<svg height="576px" viewBox="0 0 384 576" width="384px" xmlns="http://www.w3.org/2000/svg" xmlns:inkscape="http://www.inkscape.org/namespaces/inkscape">
<g fill="none" id="1" stroke="black" stroke-width="0.2mm">
<circle cx="6.4" cy="5.76" r="0.1"/>
<circle cx="19.200000000000003" cy="5.76" r="0.1"/>
<circle cx="32" cy="5.76" r="0.1"/>
<circle cx="44.800000000000004" cy="5.76" r="0.1"/>
<circle cx="57.6" cy="5.76" r="0.1"/>
<circle cx="70.4" cy="5.76" r="0.1"/>
<circle cx="83.20000000000002" cy="5.76" r="0.1"/>
<circle cx="96.00000000000001" cy="5.76" r="0.1"/>
<circle cx="108.80000000000001" cy="5.76" r="0.1"/>
<circle cx="121.60000000000001" cy="5.76" r="0.1"/>
<circle cx="134.4" cy="5.76" r="0.1"/>
<circle cx="147.20000000000002" cy="5.76" r="0.1"/>
<circle cx="160.00000000000003" cy="5.76" r="0.1"/>
<circle cx="172.8" cy="5.76" r="0.1"/>
<circle cx="185.60000000000002" cy="5.76" r="0.1"/>
<circle cx="198.4" cy="5.76" r="0.1"/>
<circle cx="211.20000000000002" cy="5.76" r="0.1"/>
<circle cx="224.00000000000003" cy="5.76" r="0.1"/>
<circle cx="236.8" cy="5.76" r="0.1"/>
<circle cx="249.60000000000002" cy="5.76" r="0.1"/>
<circle cx="262.4" cy="5.76" r="0.1"/>
<circle cx="275.2" cy="5.76" r="0.1"/>
<circle cx="288" cy="5.76" r="0.1"/>
<circle cx="300.8" cy="5.76" r="0.1"/>
<circle cx="313.6" cy="5.76" r="0.1"/>
<circle cx="326.4" cy="5.76" r="0.1"/>
<circle cx="339.2" cy="5.76" r="0.1"/>
<circle cx="352" cy="5.76" r="0.1"/>
<circle cx="364.8" cy="5.76" r="0.1"/>
<circle cx="377.6" cy="5.76" r="0.1"/>
<circle cx="6.4" cy="17.28" r="0.1"/>
<circle cx="19.200000000000003" cy="17.28" r="0.1"/>
<circle cx="32" cy="17.28" r="0.1"/>
<circle cx="44.800000000000004" cy="17.28" r="0.1"/>
<circle cx="57.6" cy="17.28" r="0.1"/>
<circle cx="70.4" cy="17.28" r="0.1"/>
<circle cx="83.20000000000002" cy="17.28" r="0.1"/>
<circle cx="96.00000000000001" cy="17.28" r="0.1"/>
<circle cx="108.80000000000001" cy="17.28" r="0.1"/>
<circle cx="121.60000000000001" cy="17.28" r="0.1"/>
<circle cx="134.4" cy="17.28" r="0.1"/>
<circle cx="147.20000000000002" cy="17.28" r="0.1"/>
<circle cx="160.00000000000003" cy="17.28" r="0.1"/>
<circle cx="172.8" cy="17.28" r="0.1"/>
<circle cx="185.60000000000002" cy="17.28" r="0.1"/>
<circle cx="198.4" cy="17.28" r="0.1"/>
<circle cx="211.20000000000002" cy="17.28" r="0.1"/>
<circle cx="224.00000000000003" cy="17.28" r="0.1"/>
<circle cx="236.8" cy="17.28" r="0.1"/>
<circle cx="249.60000000000002" cy="17.28" r="0.1"/>
<circle cx="262.4" cy="17.28" r="0.1"/>
<circle cx="275.2" cy="17.28" r="0.1"/>
<circle cx="288" cy="17.28" r="0.1"/>
<circle cx="300.8" cy="17.28" r="0.1"/>
<circle cx="313.6" cy="17.28" r="0.1"/>
<circle cx="326.4" cy="17.28" r="0.1"/>
<circle cx="339.2" cy="17.28" r="0.1"/>
<circle cx="352" cy="17.28" r="0.1"/>
<circle cx="364.8" cy="17.28" r="0.1"/>
<circle cx="377.6" cy="17.28" r="0.1"/>
<circle cx="6.4" cy="28.799999999999997" r="0.1"/>
<circle cx="19.200000000000003" cy="28.799999999999997" r="0.1"/>
<circle cx="32" cy="28.799999999999997" r="0.1"/>
<circle cx="44.800000000000004" cy="28.799999999999997" r="0.1"/>
<circle cx="57.6" cy="28.799999999999997" r="0.1"/>
<circle cx="70.4" cy="28.799999999999997" r="0.1"/>
<circle cx="83.20000000000002" cy="28.799999999999997" r="0.1"/>
<circle cx="96.00000000000001" cy="28.799999999999997" r="0.1"/>
<circle cx="108.80000000000001" cy="28.799999999999997" r="0.1"/>
<circle cx="121.60000000000001" cy="28.799999999999997" r="0.1"/>
<circle cx="134.4" cy="28.799999999999997" r="0.1"/>
<circle cx="147.20000000000002" cy="28.799999999999997" r="0.1"/>
<circle cx="160.00000000000003" cy="28.799999999999997" r="0.1"/>
<circle cx="172.8" cy="28.799999999999997" r="0.1"/>
<circle cx="185.60000000000002" cy="28.799999999999997" r="0.1"/>
<circle cx="198.4" cy="28.799999999999997" r="0.1"/>
<circle cx="211.20000000000002" cy="28.799999999999997" r="0.1"/>
<circle cx="224.00000000000003" cy="28.799999999999997" r="0.1"/>
<circle cx="236.8" cy="28.799999999999997" r="0.1"/>
<circle cx="249.60000000000002" cy="28.799999999999997" r="0.1"/>
<circle cx="262.4" cy="28.799999999999997" r="0.1"/>
<circle cx="275.2" cy="28.799999999999997" r="0.1"/>
<circle cx="288" cy="28.799999999999997" r="0.1"/>
<circle cx="300.8" cy="28.799999999999997" r="0.1"/>
<circle cx="313.6" cy="28.799999999999997" r="0.1"/>
<circle cx="326.4" cy="28.799999999999997" r="0.1"/>
<circle cx="339.2" cy="28.799999999999997" r="0.1"/>
<circle cx="352" cy="28.799999999999997" r="0.1"/>
<circle cx="364.8" cy="28.799999999999997" r="0.1"/>
<circle cx="377.6" cy="28.799999999999997" r="0.1"/>
<circle cx="6.4" cy="40.32" r="0.1"/>
<circle cx="19.200000000000003" cy="40.32" r="0.1"/>
<circle cx="32" cy="40.32" r="0.1"/>
<circle cx="44.800000000000004" cy="40.32" r="0.1"/>
<circle cx="57.6" cy="40.32" r="0.1"/>
<circle cx="70.4" cy="40.32" r="0.1"/>
<circle cx="83.20000000000002" cy="40.32" r="0.1"/>
<circle cx="96.00000000000001" cy="40.32" r="0.1"/>
<circle cx="108.80000000000001" cy="40.32" r="0.1"/>
<circle cx="121.60000000000001" cy="40.32" r="0.1"/>
<circle cx="134.4" cy="40.32" r="0.1"/>
<circle cx="147.20000000000002" cy="40.32" r="0.1"/>
<circle cx="160.00000000000003" cy="40.32" r="0.1"/>
<circle cx="172.8" cy="40.32" r="0.1"/>
<circle cx="185.60000000000002" cy="40.32" r="0.1"/>
<circle cx="198.4" cy="40.32" r="0.1"/>
<circle cx="211.20000000000002" cy="40.32" r="0.1"/>
<circle cx="224.00000000000003" cy="40.32" r="0.1"/>
<circle cx="236.8" cy="40.32" r="0.1"/>
<circle cx="249.60000000000002" cy="40.32" r="0.1"/>
<circle cx="262.4" cy="40.32" r="0.1"/>
<circle cx="275.2" cy="40.32" r="0.1"/>
<circle cx="288" cy="40.32" r="0.1"/>
<circle cx="300.8" cy="40.32" r="0.1"/>
<circle cx="313.6" cy="40.32" r="0.1"/>
<circle cx="326.4" cy="40.32" r="0.1"/>
<circle cx="339.2" cy="40.32" r="0.1"/>
<circle cx="352" cy="40.32" r="0.1"/>
<circle cx="364.8" cy="40.32" r="0.1"/>
<circle cx="377.6" cy="40.32" r="0.1"/>
<circle cx="6.4" cy="51.839999999999996" r="0.1"/>
<circle cx="19.200000000000003" cy="51.839999999999996" r="0.1"/>
<circle cx="32" cy="51.839999999999996" r="0.1"/>
<circle cx="44.800000000000004" cy="51.839999999999996" r="0.1"/>
<circle cx="57.6" cy="51.839999999999996" r="0.1"/>
<circle cx="70.4" cy="51.839999999999996" r="0.1"/>
<circle cx="83.20000000000002" cy="51.839999999999996" r="0.1"/>
<circle cx="96.00000000000001" cy="51.839999999999996" r="0.1"/>
<circle cx="108.80000000000001" cy="51.839999999999996" r="0.1"/>
<circle cx="121.60000000000001" cy="51.839999999999996" r="0.1"/>
<circle cx="134.4" cy="51.839999999999996" r="0.1"/>
<circle cx="147.20000000000002" cy="51.839999999999996" r="0.1"/>
<circle cx="160.00000000000003" cy="51.839999999999996" r="0.1"/>
<circle cx="172.8" cy="51.839999999999996" r="0.1"/>
<circle cx="185.60000000000002" cy="51.839999999999996" r="0.1"/>
<circle cx="198.4" cy="51.839999999999996" r="0.1"/>
<circle cx="211.20000000000002" cy="51.839999999999996" r="0.1"/>
<circle cx="224.00000000000003" cy="51.839999999999996" r="0.1"/>
<circle cx="236.8" cy="51.839999999999996" r="0.1"/>
<circle cx="249.60000000000002" cy="51.839999999999996" r="0.1"/>
<circle cx="262.4" cy="51.839999999999996" r="0.1"/>
<circle cx="275.2" cy="51.839999999999996" r="0.1"/>
<circle cx="288" cy="51.839999999999996" r="0.1"/>
<circle cx="300.8" cy="51.839999999999996" r="0.1"/>
<circle cx="313.6" cy="51.839999999999996" r="0.1"/>
<circle cx="326.4" cy="51.839999999999996" r="0.1"/>
<circle cx="339.2" cy="51.839999999999996" r="0.1"/>
<circle cx="352" cy="51.839999999999996" r="0.1"/>
<circle cx="364.8" cy="51.839999999999996" r="0.1"/>
<circle cx="377.6" cy="51.839999999999996" r="0.1"/>
<circle cx="6.4" cy="63.35999999999999" r="0.1"/>
<circle cx="19.200000000000003" cy="63.35999999999999" r="0.1"/>
<circle cx="32" cy="63.35999999999999" r="0.1"/>
<circle cx="44.800000000000004" cy="63.35999999999999" r="0.1"/>
<circle cx="57.6" cy="63.35999999999999" r="0.1"/>
<circle cx="70.4" cy="63.35999999999999" r="0.1"/>
<circle cx="83.20000000000002" cy="63.35999999999999" r="0.1"/>
<circle cx="96.00000000000001" cy="63.35999999999999" r="0.1"/>
<circle cx="108.80000000000001" cy="63.35999999999999" r="0.1"/>
<circle cx="121.60000000000001" cy="63.35999999999999" r="0.1"/>
<circle cx="134.4" cy="63.35999999999999" r="0.1"/>
<circle cx="147.20000000000002" cy="63.35999999999999" r="0.1"/>
<circle cx="160.00000000000003" cy="63.35999999999999" r="0.1"/>
<circle cx="172.8" cy="63.35999999999999" r="0.1"/>
<circle cx="185.60000000000002" cy="63.35999999999999" r="0.1"/>
<circle cx="198.4" cy="63.35999999999999" r="0.1"/>
<circle cx="211.20000000000002" cy="63.35999999999999" r="0.1"/>
<circle cx="224.00000000000003" cy="63.35999999999999" r="0.1"/>
<circle cx="236.8" cy="63.35999999999999" r="0.1"/>
<circle cx="249.60000000000002" cy="63.35999999999999" r="0.1"/>
<circle cx="262.4" cy="63.35999999999999" r="0.1"/>
<circle cx="275.2" cy="63.35999999999999" r="0.1"/>
<circle cx="288" cy="63.35999999999999" r="0.1"/>
<circle cx="300.8" cy="63.35999999999999" r="0.1"/>
<circle cx="313.6" cy="63.35999999999999" r="0.1"/>
<circle cx="326.4" cy="63.35999999999999" r="0.1"/>
<circle cx="339.2" cy="63.35999999999999" r="0.1"/>
<circle cx="352" cy="63.35999999999999" r="0.1"/>
<circle cx="364.8" cy="63.35999999999999" r="0.1"/>
<circle cx="377.6" cy="63.35999999999999" r="0.1"/>
<circle cx="6.4" cy="74.88000000000001" r="0.1"/>
<circle cx="19.200000000000003" cy="74.88000000000001" r="0.1"/>
<circle cx="32" cy="74.88000000000001" r="0.1"/>
<circle cx="44.800000000000004" cy="74.88000000000001" r="0.1"/>
<circle cx="57.6" cy="74.88000000000001" r="0.1"/>
<circle cx="70.4" cy="74.88000000000001" r="0.1"/>
<circle cx="83.20000000000002" cy="74.88000000000001" r="0.1"/>
<circle cx="96.00000000000001" cy="74.88000000000001" r="0.1"/>
<circle cx="108.80000000000001" cy="74.88000000000001" r="0.1"/>
<circle cx="121.60000000000001" cy="74.88000000000001" r="0.1"/>
<circle cx="134.4" cy="74.88000000000001" r="0.1"/>
<circle cx="147.20000000000002" cy="74.88000000000001" r="0.1"/>
<circle cx="160.00000000000003" cy="74.88000000000001" r="0.1"/>
<circle cx="172.8" cy="74.88000000000001" r="0.1"/>
<circle cx="185.60000000000002" cy="74.88000000000001" r="0.1"/>
<circle cx="198.4" cy="74.88000000000001" r="0.1"/>
<circle cx="211.20000000000002" cy="74.88000000000001" r="0.1"/>
<circle cx="224.00000000000003" cy="74.88000000000001" r="0.1"/>
<circle cx="236.8" cy="74.88000000000001" r="0.1"/>
<circle cx="249.60000000000002" cy="74.88000000000001" r="0.1"/>
<circle cx="262.4" cy="74.88000000000001" r="0.1"/>
<circle cx="275.2" cy="74.88000000000001" r="0.1"/>
<circle cx="288" cy="74.88000000000001" r="0.1"/>
<circle cx="300.8" cy="74.88000000000001" r="0.1"/>
<circle cx="313.6" cy="74.88000000000001" r="0.1"/>
<circle cx="326.4" cy="74.88000000000001" r="0.1"/>
<circle cx="339.2" cy="74.88000000000001" r="0.1"/>
<circle cx="352" cy="74.88000000000001" r="0.1"/>
<circle cx="364.8" cy="74.88000000000001" r="0.1"/>
<circle cx="377.6" cy="74.88000000000001" r="0.1"/>
<circle cx="6.4" cy="86.4" r="0.1"/>
<circle cx="19.200000000000003" cy="86.4" r="0.1"/>
<circle cx="32" cy="86.4" r="0.1"/>
<circle cx="44.800000000000004" cy="86.4" r="0.1"/>
<circle cx="57.6" cy="86.4" r="0.1"/>
<circle cx="70.4" cy="86.4" r="0.1"/>
<circle cx="83.20000000000002" cy="86.4" r="0.1"/>
<circle cx="96.00000000000001" cy="86.4" r="0.1"/>
<circle cx="108.80000000000001" cy="86.4" r="0.1"/>
<circle cx="121.60000000000001" cy="86.4" r="0.1"/>
<circle cx="134.4" cy="86.4" r="0.1"/>
<circle cx="147.20000000000002" cy="86.4" r="0.1"/>
<circle cx="160.00000000000003" cy="86.4" r="0.1"/>
<circle cx="172.8" cy="86.4" r="0.1"/>
<circle cx="185.60000000000002" cy="86.4" r="0.1"/>
<circle cx="198.4" cy="86.4" r="0.1"/>
<circle cx="211.20000000000002" cy="86.4" r="0.1"/>
<circle cx="224.00000000000003" cy="86.4" r="0.1"/>
<circle cx="236.8" cy="86.4" r="0.1"/>
<circle cx="249.60000000000002" cy="86.4" r="0.1"/>
<circle cx="262.4" cy="86.4" r="0.1"/>
<circle cx="275.2" cy="86.4" r="0.1"/>
<circle cx="288" cy="86.4" r="0.1"/>
<circle cx="300.8" cy="86.4" r="0.1"/>
<circle cx="313.6" cy="86.4" r="0.1"/>
<circle cx="326.4" cy="86.4" r="0.1"/>
<circle cx="339.2" cy="86.4" r="0.1"/>
<circle cx="352" cy="86.4" r="0.1"/>
<circle cx="364.8" cy="86.4" r="0.1"/>
<circle cx="377.6" cy="86.4" r="0.1"/>
<circle cx="6.4" cy="97.92" r="0.1"/>
<circle cx="19.200000000000003" cy="97.92" r="0.1"/>
<circle cx="32" cy="97.92" r="0.1"/>
<circle cx="44.800000000000004" cy="97.92" r="0.1"/>
<circle cx="57.6" cy="97.92" r="0.1"/>
<circle cx="70.4" cy="97.92" r="0.1"/>
<circle cx="83.20000000000002" cy="97.92" r="0.1"/>
<circle cx="96.00000000000001" cy="97.92" r="0.1"/>
<circle cx="108.80000000000001" cy="97.92" r="0.1"/>
<circle cx="121.60000000000001" cy="97.92" r="0.1"/>
<circle cx="134.4" cy="97.92" r="0.1"/>
<circle cx="147.20000000000002" cy="97.92" r="0.1"/>
<circle cx="160.00000000000003" cy="97.92" r="0.1"/>
<circle cx="172.8" cy="97.92" r="0.1"/>
<circle cx="185.60000000000002" cy="97.92" r="0.1"/>
<circle cx="198.4" cy="97.92" r="0.1"/>
<circle cx="211.20000000000002" cy="97.92" r="0.1"/>
<circle cx="224.00000000000003" cy="97.92" r="0.1"/>
<circle cx="236.8" cy="97.92" r="0.1"/>
<circle cx="249.60000000000002" cy="97.92" r="0.1"/>
<circle cx="262.4" cy="97.92" r="0.1"/>
<circle cx="275.2" cy="97.92" r="0.1"/>
<circle cx="288" cy="97.92" r="0.1"/>
<circle cx="300.8" cy="97.92" r="0.1"/>
<circle cx="313.6" cy="97.92" r="0.1"/>
<circle cx="326.4" cy="97.92" r="0.1"/>
<circle cx="339.2" cy="97.92" r="0.1"/>
<circle cx="352" cy="97.92" r="0.1"/>
<circle cx="364.8" cy="97.92" r="0.1"/>
<circle cx="377.6" cy="97.92" r="0.1"/>
<circle cx="6.4" cy="109.44" r="0.1"/>
<circle cx="19.200000000000003" cy="109.44" r="0.1"/>
<circle cx="32" cy="109.44" r="0.1"/>
<circle cx="44.800000000000004" cy="109.44" r="0.1"/>
<circle cx="57.6" cy="109.44" r="0.1"/>
<circle cx="70.4" cy="109.44" r="0.1"/>
<circle cx="83.20000000000002" cy="109.44" r="0.1"/>
<circle cx="96.00000000000001" cy="109.44" r="0.1"/>
<circle cx="108.80000000000001" cy="109.44" r="0.1"/>
<circle cx="121.60000000000001" cy="109.44" r="0.1"/>
<circle cx="134.4" cy="109.44" r="0.1"/>
<circle cx="147.20000000000002" cy="109.44" r="0.1"/>
<circle cx="160.00000000000003" cy="109.44" r="0.1"/>
<circle cx="172.8" cy="109.44" r="0.1"/>
<circle cx="185.60000000000002" cy="109.44" r="0.1"/>
<circle cx="198.4" cy="109.44" r="0.1"/>
<circle cx="211.20000000000002" cy="109.44" r="0.1"/>
<circle cx="224.00000000000003" cy="109.44" r="0.1"/>
<circle cx="236.8" cy="109.44" r="0.1"/>
<circle cx="249.60000000000002" cy="109.44" r="0.1"/>
<circle cx="262.4" cy="109.44" r="0.1"/>
<circle cx="275.2" cy="109.44" r="0.1"/>
<circle cx="288" cy="109.44" r="0.1"/>
<circle cx="300.8" cy="109.44" r="0.1"/>
<circle cx="313.6" cy="109.44" r="0.1"/>
<circle cx="326.4" cy="109.44" r="0.1"/>
<circle cx="339.2" cy="109.44" r="0.1"/>
<circle cx="352" cy="109.44" r="0.1"/>
<circle cx="364.8" cy="109.44" r="0.1"/>
<circle cx="377.6" cy="109.44" r="0.1"/>
<circle cx="6.4" cy="120.96" r="0.1"/>
<circle cx="19.200000000000003" cy="120.96" r="0.1"/>
<circle cx="32" cy="120.96" r="0.1"/>
<circle cx="44.800000000000004" cy="120.96" r="0.1"/>
<circle cx="57.6" cy="120.96" r="0.1"/>
<circle cx="70.4" cy="120.96" r="0.1"/>
<circle cx="83.20000000000002" cy="120.96" r="0.1"/>
<circle cx="96.00000000000001" cy="120.96" r="0.1"/>
<circle cx="108.80000000000001" cy="120.96" r="0.1"/>
<circle cx="121.60000000000001" cy="120.96" r="0.1"/>
<circle cx="134.4" cy="120.96" r="0.1"/>
<circle cx="147.20000000000002" cy="120.96" r="0.1"/>
<circle cx="160.00000000000003" cy="120.96" r="0.1"/>
<circle cx="172.8" cy="120.96" r="0.1"/>
<circle cx="185.60000000000002" cy="120.96" r="0.1"/>
<circle cx="198.4" cy="120.96" r="0.1"/>
<circle cx="211.20000000000002" cy="120.96" r="0.1"/>
<circle cx="224.00000000000003" cy="120.96" r="0.1"/>
<circle cx="236.8" cy="120.96" r="0.1"/>
<circle cx="249.60000000000002" cy="120.96" r="0.1"/>
<circle cx="262.4" cy="120.96" r="0.1"/>
<circle cx="275.2" cy="120.96" r="0.1"/>
<circle cx="288" cy="120.96" r="0.1"/>
<circle cx="300.8" cy="120.96" r="0.1"/>
<circle cx="313.6" cy="120.96" r="0.1"/>
<circle cx="326.4" cy="120.96" r="0.1"/>
<circle cx="339.2" cy="120.96" r="0.1"/>
<circle cx="352" cy="120.96" r="0.1"/>
<circle cx="364.8" cy="120.96" r="0.1"/>
<circle cx="377.6" cy="120.96" r="0.1"/>
<circle cx="6.4" cy="132.48" r="0.1"/>
<circle cx="19.200000000000003" cy="132.48" r="0.1"/>
<circle cx="32" cy="132.48" r="0.1"/>
<circle cx="44.800000000000004" cy="132.48" r="0.1"/>
<circle cx="57.6" cy="132.48" r="0.1"/>
<circle cx="70.4" cy="132.48" r="0.1"/>
<circle cx="83.20000000000002" cy="132.48" r="0.1"/>
<circle cx="96.00000000000001" cy="132.48" r="0.1"/>
<circle cx="108.80000000000001" cy="132.48" r="0.1"/>
<circle cx="121.60000000000001" cy="132.48" r="0.1"/>
<circle cx="134.4" cy="132.48" r="0.1"/>
<circle cx="147.20000000000002" cy="132.48" r="0.1"/>
<circle cx="160.00000000000003" cy="132.48" r="0.1"/>
<circle cx="172.8" cy="132.48" r="0.1"/>
<circle cx="185.60000000000002" cy="132.48" r="0.1"/>
<circle cx="198.4" cy="132.48" r="0.1"/>
<circle cx="211.20000000000002" cy="132.48" r="0.1"/>
<circle cx="224.00000000000003" cy="132.48" r="0.1"/>
<circle cx="236.8" cy="132.48" r="0.1"/>
<circle cx="249.60000000000002" cy="132.48" r="0.1"/>
<circle cx="262.4" cy="132.48" r="0.1"/>
<circle cx="275.2" cy="132.48" r="0.1"/>
<circle cx="288" cy="132.48" r="0.1"/>
<circle cx="300.8" cy="132.48" r="0.1"/>
<circle cx="313.6" cy="132.48" r="0.1"/>
<circle cx="326.4" cy="132.48" r="0.1"/>
<circle cx="339.2" cy="132.48" r="0.1"/>
<circle cx="352" cy="132.48" r="0.1"/>
<circle cx="364.8" cy="132.48" r="0.1"/>
<circle cx="377.6" cy="132.48" r="0.1"/>
<circle cx="6.4" cy="144" r="0.1"/>
<circle cx="19.200000000000003" cy="144" r="0.1"/>
<circle cx="32" cy="144" r="0.1"/>
<circle cx="44.800000000000004" cy="144" r="0.1"/>
<circle cx="57.6" cy="144" r="0.1"/>
<circle cx="70.4" cy="144" r="0.1"/>
<circle cx="83.20000000000002" cy="144" r="0.1"/>
<circle cx="96.00000000000001" cy="144" r="0.1"/>
<circle cx="108.80000000000001" cy="144" r="0.1"/>
<circle cx="121.60000000000001" cy="144" r="0.1"/>
<circle cx="134.4" cy="144" r="0.1"/>
<circle cx="147.20000000000002" cy="144" r="0.1"/>
<circle cx="160.00000000000003" cy="144" r="0.1"/>
<circle cx="172.8" cy="144" r="0.1"/>
<circle cx="185.60000000000002" cy="144" r="0.1"/>
<circle cx="198.4" cy="144" r="0.1"/>
<circle cx="211.20000000000002" cy="144" r="0.1"/>
<circle cx="224.00000000000003" cy="144" r="0.1"/>
<circle cx="236.8" cy="144" r="0.1"/>
<circle cx="249.60000000000002" cy="144" r="0.1"/>
<circle cx="262.4" cy="144" r="0.1"/>
<circle cx="275.2" cy="144" r="0.1"/>
<circle cx="288" cy="144" r="0.1"/>
<circle cx="300.8" cy="144" r="0.1"/>
<circle cx="313.6" cy="144" r="0.1"/>
<circle cx="326.4" cy="144" r="0.1"/>
<circle cx="339.2" cy="144" r="0.1"/>
<circle cx="352" cy="144" r="0.1"/>
<circle cx="364.8" cy="144" r="0.1"/>
<circle cx="377.6" cy="144" r="0.1"/>
<circle cx="6.4" cy="155.51999999999998" r="0.1"/>
<circle cx="19.200000000000003" cy="155.51999999999998" r="0.1"/>
<circle cx="32" cy="155.51999999999998" r="0.1"/>
<circle cx="44.800000000000004" cy="155.51999999999998" r="0.1"/>
<circle cx="57.6" cy="155.51999999999998" r="0.1"/>
<circle cx="70.4" cy="155.51999999999998" r="0.1"/>
<circle cx="83.20000000000002" cy="155.51999999999998" r="0.1"/>
<circle cx="96.00000000000001" cy="155.51999999999998" r="0.1"/>
<circle cx="108.80000000000001" cy="155.51999999999998" r="0.1"/>
<circle cx="121.60000000000001" cy="155.51999999999998" r="0.1"/>
<circle cx="134.4" cy="155.51999999999998" r="0.1"/>
<circle cx="147.20000000000002" cy="155.51999999999998" r="0.1"/>
<circle cx="160.00000000000003" cy="155.51999999999998" r="0.1"/>
<circle cx="172.8" cy="155.51999999999998" r="0.1"/>
<circle cx="185.60000000000002" cy="155.51999999999998" r="0.1"/>
<circle cx="198.4" cy="155.51999999999998" r="0.1"/>
<circle cx="211.20000000000002" cy="155.51999999999998" r="0.1"/>
<circle cx="224.00000000000003" cy="155.51999999999998" r="0.1"/>
<circle cx="236.8" cy="155.51999999999998" r="0.1"/>
<circle cx="249.60000000000002" cy="155.51999999999998" r="0.1"/>
<circle cx="262.4" cy="155.51999999999998" r="0.1"/>
<circle cx="275.2" cy="155.51999999999998" r="0.1"/>
<circle cx="288" cy="155.51999999999998" r="0.1"/>
<circle cx="300.8" cy="155.51999999999998" r="0.1"/>
<circle cx="313.6" cy="155.51999999999998" r="0.1"/>
<circle cx="326.4" cy="155.51999999999998" r="0.1"/>
<circle cx="339.2" cy="155.51999999999998" r="0.1"/>
<circle cx="352" cy="155.51999999999998" r="0.1"/>
<circle cx="364.8" cy="155.51999999999998" r="0.1"/>
<circle cx="377.6" cy="155.51999999999998" r="0.1"/>
<circle cx="6.4" cy="167.04" r="0.1"/>
<circle cx="19.200000000000003" cy="167.04" r="0.1"/>
<circle cx="32" cy="167.04" r="0.1"/>
<circle cx="44.800000000000004" cy="167.04" r="0.1"/>
<circle cx="57.6" cy="167.04" r="0.1"/>
<circle cx="70.4" cy="167.04" r="0.1"/>
<circle cx="83.20000000000002" cy="167.04" r="0.1"/>
<circle cx="96.00000000000001" cy="167.04" r="0.1"/>
<circle cx="108.80000000000001" cy="167.04" r="0.1"/>
<circle cx="121.60000000000001" cy="167.04" r="0.1"/>
<circle cx="134.4" cy="167.04" r="0.1"/>
<circle cx="147.20000000000002" cy="167.04" r="0.1"/>
<circle cx="160.00000000000003" cy="167.04" r="0.1"/>
<circle cx="172.8" cy="167.04" r="0.1"/>
<circle cx="185.60000000000002" cy="167.04" r="0.1"/>
<circle cx="198.4" cy="167.04" r="0.1"/>
<circle cx="211.20000000000002" cy="167.04" r="0.1"/>
<circle cx="224.00000000000003" cy="167.04" r="0.1"/>
<circle cx="236.8" cy="167.04" r="0.1"/>
<circle cx="249.60000000000002" cy="167.04" r="0.1"/>
<circle cx="262.4" cy="167.04" r="0.1"/>
<circle cx="275.2" cy="167.04" r="0.1"/>
<circle cx="288" cy="167.04" r="0.1"/>
<circle cx="300.8" cy="167.04" r="0.1"/>
<circle cx="313.6" cy="167.04" r="0.1"/>
<circle cx="326.4" cy="167.04" r="0.1"/>
<circle cx="339.2" cy="167.04" r="0.1"/>
<circle cx="352" cy="167.04" r="0.1"/>
<circle cx="364.8" cy="167.04" r="0.1"/>
<circle cx="377.6" cy="167.04" r="0.1"/>
<circle cx="6.4" cy="178.55999999999997" r="0.1"/>
<circle cx="19.200000000000003" cy="178.55999999999997" r="0.1"/>
<circle cx="32" cy="178.55999999999997" r="0.1"/>
<circle cx="44.800000000000004" cy="178.55999999999997" r="0.1"/>
<circle cx="57.6" cy="178.55999999999997" r="0.1"/>
<circle cx="70.4" cy="178.55999999999997" r="0.1"/>
<circle cx="83.20000000000002" cy="178.55999999999997" r="0.1"/>
<circle cx="96.00000000000001" cy="178.55999999999997" r="0.1"/>
<circle cx="108.80000000000001" cy="178.55999999999997" r="0.1"/>
<circle cx="121.60000000000001" cy="178.55999999999997" r="0.1"/>
<circle cx="134.4" cy="178.55999999999997" r="0.1"/>
<circle cx="147.20000000000002" cy="178.55999999999997" r="0.1"/>
<circle cx="160.00000000000003" cy="178.55999999999997" r="0.1"/>
<circle cx="172.8" cy="178.55999999999997" r="0.1"/>
<circle cx="185.60000000000002" cy="178.55999999999997" r="0.1"/>
<circle cx="198.4" cy="178.55999999999997" r="0.1"/>
<circle cx="211.20000000000002" cy="178.55999999999997" r="0.1"/>
<circle cx="224.00000000000003" cy="178.55999999999997" r="0.1"/>
<circle cx="236.8" cy="178.55999999999997" r="0.1"/>
<circle cx="249.60000000000002" cy="178.55999999999997" r="0.1"/>
<circle cx="262.4" cy="178.55999999999997" r="0.1"/>
<circle cx="275.2" cy="178.55999999999997" r="0.1"/>
<circle cx="288" cy="178.55999999999997" r="0.1"/>
<circle cx="300.8" cy="178.55999999999997" r="0.1"/>
<circle cx="313.6" cy="178.55999999999997" r="0.1"/>
<circle cx="326.4" cy="178.55999999999997" r="0.1"/>
<circle cx="339.2" cy="178.55999999999997" r="0.1"/>
<circle cx="352" cy="178.55999999999997" r="0.1"/>
<circle cx="364.8" cy="178.55999999999997" r="0.1"/>
<circle cx="377.6" cy="178.55999999999997" r="0.1"/>
<circle cx="6.4" cy="190.07999999999998" r="0.1"/>
<circle cx="19.200000000000003" cy="190.07999999999998" r="0.1"/>
<circle cx="32" cy="190.07999999999998" r="0.1"/>
<circle cx="44.800000000000004" cy="190.07999999999998" r="0.1"/>
<circle cx="57.6" cy="190.07999999999998" r="0.1"/>
<circle cx="70.4" cy="190.07999999999998" r="0.1"/>
<circle cx="83.20000000000002" cy="190.07999999999998" r="0.1"/>
<circle cx="96.00000000000001" cy="190.07999999999998" r="0.1"/>
<circle cx="108.80000000000001" cy="190.07999999999998" r="0.1"/>
<circle cx="121.60000000000001" cy="190.07999999999998" r="0.1"/>
<circle cx="134.4" cy="190.07999999999998" r="0.1"/>
<circle cx="147.20000000000002" cy="190.07999999999998" r="0.1"/>
<circle cx="160.00000000000003" cy="190.07999999999998" r="0.1"/>
<circle cx="172.8" cy="190.07999999999998" r="0.1"/>
<circle cx="185.60000000000002" cy="190.07999999999998" r="0.1"/>
<circle cx="198.4" cy="190.07999999999998" r="0.1"/>
<circle cx="211.20000000000002" cy="190.07999999999998" r="0.1"/>
<circle cx="224.00000000000003" cy="190.07999999999998" r="0.1"/>
<circle cx="236.8" cy="190.07999999999998" r="0.1"/>
<circle cx="249.60000000000002" cy="190.07999999999998" r="0.1"/>
<circle cx="262.4" cy="190.07999999999998" r="0.1"/>
<circle cx="275.2" cy="190.07999999999998" r="0.1"/>
<circle cx="288" cy="190.07999999999998" r="0.1"/>
<circle cx="300.8" cy="190.07999999999998" r="0.1"/>
<circle cx="313.6" cy="190.07999999999998" r="0.1"/>
<circle cx="326.4" cy="190.07999999999998" r="0.1"/>
<circle cx="339.2" cy="190.07999999999998" r="0.1"/>
<circle cx="352" cy="190.07999999999998" r="0.1"/>
<circle cx="364.8" cy="190.07999999999998" r="0.1"/>
<circle cx="377.6" cy="190.07999999999998" r="0.1"/>
<circle cx="6.4" cy="201.6" r="0.1"/>
<circle cx="19.200000000000003" cy="201.6" r="0.1"/>
<circle cx="32" cy="201.6" r="0.1"/>
<circle cx="44.800000000000004" cy="201.6" r="0.1"/>
<circle cx="57.6" cy="201.6" r="0.1"/>
<circle cx="70.4" cy="201.6" r="0.1"/>
<circle cx="83.20000000000002" cy="201.6" r="0.1"/>
<circle cx="96.00000000000001" cy="201.6" r="0.1"/>
<circle cx="108.80000000000001" cy="201.6" r="0.1"/>
<circle cx="121.60000000000001" cy="201.6" r="0.1"/>
<circle cx="134.4" cy="201.6" r="0.1"/>
<circle cx="147.20000000000002" cy="201.6" r="0.1"/>
<circle cx="160.00000000000003" cy="201.6" r="0.1"/>
<circle cx="172.8" cy="201.6" r="0.1"/>
<circle cx="185.60000000000002" cy="201.6" r="0.1"/>
<circle cx="198.4" cy="201.6" r="0.1"/>
<circle cx="211.20000000000002" cy="201.6" r="0.1"/>
<circle cx="224.00000000000003" cy="201.6" r="0.1"/>
<circle cx="236.8" cy="201.6" r="0.1"/>
<circle cx="249.60000000000002" cy="201.6" r="0.1"/>
<circle cx="262.4" cy="201.6" r="0.1"/>
<circle cx="275.2" cy="201.6" r="0.1"/>
<circle cx="288" cy="201.6" r="0.1"/>
<circle cx="300.8" cy="201.6" r="0.1"/>
<circle cx="313.6" cy="201.6" r="0.1"/>
<circle cx="326.4" cy="201.6" r="0.1"/>
<circle cx="339.2" cy="201.6" r="0.1"/>
<circle cx="352" cy="201.6" r="0.1"/>
<circle cx="364.8" cy="201.6" r="0.1"/>
<circle cx="377.6" cy="201.6" r="0.1"/>
<circle cx="6.4" cy="213.11999999999998" r="0.1"/>
<circle cx="19.200000000000003" cy="213.11999999999998" r="0.1"/>
<circle cx="32" cy="213.11999999999998" r="0.1"/>
<circle cx="44.800000000000004" cy="213.11999999999998" r="0.1"/>
<circle cx="57.6" cy="213.11999999999998" r="0.1"/>
<circle cx="70.4" cy="213.11999999999998" r="0.1"/>
<circle cx="83.20000000000002" cy="213.11999999999998" r="0.1"/>
<circle cx="96.00000000000001" cy="213.11999999999998" r="0.1"/>
<circle cx="108.80000000000001" cy="213.11999999999998" r="0.1"/>
<circle cx="121.60000000000001" cy="213.11999999999998" r="0.1"/>
<circle cx="134.4" cy="213.11999999999998" r="0.1"/>
<circle cx="147.20000000000002" cy="213.11999999999998" r="0.1"/>
<circle cx="160.00000000000003" cy="213.11999999999998" r="0.1"/>
<circle cx="172.8" cy="213.11999999999998" r="0.1"/>
<circle cx="185.60000000000002" cy="213.11999999999998" r="0.1"/>
<circle cx="198.4" cy="213.11999999999998" r="0.1"/>
<circle cx="211.20000000000002" cy="213.11999999999998" r="0.1"/>
<circle cx="224.00000000000003" cy="213.11999999999998" r="0.1"/>
<circle cx="236.8" cy="213.11999999999998" r="0.1"/>
<circle cx="249.60000000000002" cy="213.11999999999998" r="0.1"/>
<circle cx="262.4" cy="213.11999999999998" r="0.1"/>
<circle cx="275.2" cy="213.11999999999998" r="0.1"/>
<circle cx="288" cy="213.11999999999998" r="0.1"/>
<circle cx="300.8" cy="213.11999999999998" r="0.1"/>
<circle cx="313.6" cy="213.11999999999998" r="0.1"/>
<circle cx="326.4" cy="213.11999999999998" r="0.1"/>
<circle cx="339.2" cy="213.11999999999998" r="0.1"/>
<circle cx="352" cy="213.11999999999998" r="0.1"/>
<circle cx="364.8" cy="213.11999999999998" r="0.1"/>
<circle cx="377.6" cy="213.11999999999998" r="0.1"/>
<circle cx="6.4" cy="224.64" r="0.1"/>
<circle cx="19.200000000000003" cy="224.64" r="0.1"/>
<circle cx="32" cy="224.64" r="0.1"/>
<circle cx="44.800000000000004" cy="224.64" r="0.1"/>
<circle cx="57.6" cy="224.64" r="0.1"/>
<circle cx="70.4" cy="224.64" r="0.1"/>
<circle cx="83.20000000000002" cy="224.64" r="0.1"/>
<circle cx="96.00000000000001" cy="224.64" r="0.1"/>
<circle cx="108.80000000000001" cy="224.64" r="0.1"/>
<circle cx="121.60000000000001" cy="224.64" r="0.1"/>
<circle cx="134.4" cy="224.64" r="0.1"/>
<circle cx="147.20000000000002" cy="224.64" r="0.1"/>
<circle cx="160.00000000000003" cy="224.64" r="0.1"/>
<circle cx="172.8" cy="224.64" r="0.1"/>
<circle cx="185.60000000000002" cy="224.64" r="0.1"/>
<circle cx="198.4" cy="224.64" r="0.1"/>
<circle cx="211.20000000000002" cy="224.64" r="0.1"/>
<circle cx="224.00000000000003" cy="224.64" r="0.1"/>
<circle cx="236.8" cy="224.64" r="0.1"/>
<circle cx="249.60000000000002" cy="224.64" r="0.1"/>
<circle cx="262.4" cy="224.64" r="0.1"/>
<circle cx="275.2" cy="224.64" r="0.1"/>
<circle cx="288" cy="224.64" r="0.1"/>
<circle cx="300.8" cy="224.64" r="0.1"/>
<circle cx="313.6" cy="224.64" r="0.1"/>
<circle cx="326.4" cy="224.64" r="0.1"/>
<circle cx="339.2" cy="224.64" r="0.1"/>
<circle cx="352" cy="224.64" r="0.1"/>
<circle cx="364.8" cy="224.64" r="0.1"/>
<circle cx="377.6" cy="224.64" r="0.1"/>
<circle cx="6.4" cy="236.15999999999997" r="0.1"/>
<circle cx="19.200000000000003" cy="236.15999999999997" r="0.1"/>
<circle cx="32" cy="236.15999999999997" r="0.1"/>
<circle cx="44.800000000000004" cy="236.15999999999997" r="0.1"/>
<circle cx="57.6" cy="236.15999999999997" r="0.1"/>
<circle cx="70.4" cy="236.15999999999997" r="0.1"/>
<circle cx="83.20000000000002" cy="236.15999999999997" r="0.1"/>
<circle cx="96.00000000000001" cy="236.15999999999997" r="0.1"/>
<circle cx="108.80000000000001" cy="236.15999999999997" r="0.1"/>
<circle cx="121.60000000000001" cy="236.15999999999997" r="0.1"/>
<circle cx="134.4" cy="236.15999999999997" r="0.1"/>
<circle cx="147.20000000000002" cy="236.15999999999997" r="0.1"/>
<circle cx="160.00000000000003" cy="236.15999999999997" r="0.1"/>
<circle cx="172.8" cy="236.15999999999997" r="0.1"/>
<circle cx="185.60000000000002" cy="236.15999999999997" r="0.1"/>
<circle cx="198.4" cy="236.15999999999997" r="0.1"/>
<circle cx="211.20000000000002" cy="236.15999999999997" r="0.1"/>
<circle cx="224.00000000000003" cy="236.15999999999997" r="0.1"/>
<circle cx="236.8" cy="236.15999999999997" r="0.1"/>
<circle cx="249.60000000000002" cy="236.15999999999997" r="0.1"/>
<circle cx="262.4" cy="236.15999999999997" r="0.1"/>
<circle cx="275.2" cy="236.15999999999997" r="0.1"/>
<circle cx="288" cy="236.15999999999997" r="0.1"/>
<circle cx="300.8" cy="236.15999999999997" r="0.1"/>
<circle cx="313.6" cy="236.15999999999997" r="0.1"/>
<circle cx="326.4" cy="236.15999999999997" r="0.1"/>
<circle cx="339.2" cy="236.15999999999997" r="0.1"/>
<circle cx="352" cy="236.15999999999997" r="0.1"/>
<circle cx="364.8" cy="236.15999999999997" r="0.1"/>
<circle cx="377.6" cy="236.15999999999997" r="0.1"/>
<circle cx="6.4" cy="247.67999999999998" r="0.1"/>
<circle cx="19.200000000000003" cy="247.67999999999998" r="0.1"/>
<circle cx="32" cy="247.67999999999998" r="0.1"/>
<circle cx="44.800000000000004" cy="247.67999999999998" r="0.1"/>
<circle cx="57.6" cy="247.67999999999998" r="0.1"/>
<circle cx="70.4" cy="247.67999999999998" r="0.1"/>
<circle cx="83.20000000000002" cy="247.67999999999998" r="0.1"/>
<circle cx="96.00000000000001" cy="247.67999999999998" r="0.1"/>
<circle cx="108.80000000000001" cy="247.67999999999998" r="0.1"/>
<circle cx="121.60000000000001" cy="247.67999999999998" r="0.1"/>
<circle cx="134.4" cy="247.67999999999998" r="0.1"/>
<circle cx="147.20000000000002" cy="247.67999999999998" r="0.1"/>
<circle cx="160.00000000000003" cy="247.67999999999998" r="0.1"/>
<circle cx="172.8" cy="247.67999999999998" r="0.1"/>
<circle cx="185.60000000000002" cy="247.67999999999998" r="0.1"/>
<circle cx="198.4" cy="247.67999999999998" r="0.1"/>
<circle cx="211.20000000000002" cy="247.67999999999998" r="0.1"/>
<circle cx="224.00000000000003" cy="247.67999999999998" r="0.1"/>
<circle cx="236.8" cy="247.67999999999998" r="0.1"/>
<circle cx="249.60000000000002" cy="247.67999999999998" r="0.1"/>
<circle cx="262.4" cy="247.67999999999998" r="0.1"/>
<circle cx="275.2" cy="247.67999999999998" r="0.1"/>
<circle cx="288" cy="247.67999999999998" r="0.1"/>
<circle cx="300.8" cy="247.67999999999998" r="0.1"/>
<circle cx="313.6" cy="247.67999999999998" r="0.1"/>
<circle cx="326.4" cy="247.67999999999998" r="0.1"/>
<circle cx="339.2" cy="247.67999999999998" r="0.1"/>
<circle cx="352" cy="247.67999999999998" r="0.1"/>
<circle cx="364.8" cy="247.67999999999998" r="0.1"/>
<circle cx="377.6" cy="247.67999999999998" r="0.1"/>
<circle cx="6.4" cy="259.2" r="0.1"/>
<circle cx="19.200000000000003" cy="259.2" r="0.1"/>
<circle cx="32" cy="259.2" r="0.1"/>
<circle cx="44.800000000000004" cy="259.2" r="0.1"/>
<circle cx="57.6" cy="259.2" r="0.1"/>
<circle cx="70.4" cy="259.2" r="0.1"/>
<circle cx="83.20000000000002" cy="259.2" r="0.1"/>
<circle cx="96.00000000000001" cy="259.2" r="0.1"/>
<circle cx="108.80000000000001" cy="259.2" r="0.1"/>
<circle cx="121.60000000000001" cy="259.2" r="0.1"/>
<circle cx="134.4" cy="259.2" r="0.1"/>
<circle cx="147.20000000000002" cy="259.2" r="0.1"/>
<circle cx="160.00000000000003" cy="259.2" r="0.1"/>
<circle cx="172.8" cy="259.2" r="0.1"/>
<circle cx="185.60000000000002" cy="259.2" r="0.1"/>
<circle cx="198.4" cy="259.2" r="0.1"/>
<circle cx="211.20000000000002" cy="259.2" r="0.1"/>
<circle cx="224.00000000000003" cy="259.2" r="0.1"/>
<circle cx="236.8" cy="259.2" r="0.1"/>
<circle cx="249.60000000000002" cy="259.2" r="0.1"/>
<circle cx="262.4" cy="259.2" r="0.1"/>
<circle cx="275.2" cy="259.2" r="0.1"/>
<circle cx="288" cy="259.2" r="0.1"/>
<circle cx="300.8" cy="259.2" r="0.1"/>
<circle cx="313.6" cy="259.2" r="0.1"/>
<circle cx="326.4" cy="259.2" r="0.1"/>
<circle cx="339.2" cy="259.2" r="0.1"/>
<circle cx="352" cy="259.2" r="0.1"/>
<circle cx="364.8" cy="259.2" r="0.1"/>
<circle cx="377.6" cy="259.2" r="0.1"/>
<circle cx="6.4" cy="270.71999999999997" r="0.1"/>
<circle cx="19.200000000000003" cy="270.71999999999997" r="0.1"/>
<circle cx="32" cy="270.71999999999997" r="0.1"/>
<circle cx="44.800000000000004" cy="270.71999999999997" r="0.1"/>
<circle cx="57.6" cy="270.71999999999997" r="0.1"/>
<circle cx="70.4" cy="270.71999999999997" r="0.1"/>
<circle cx="83.20000000000002" cy="270.71999999999997" r="0.1"/>
<circle cx="96.00000000000001" cy="270.71999999999997" r="0.1"/>
<circle cx="108.80000000000001" cy="270.71999999999997" r="0.1"/>
<circle cx="121.60000000000001" cy="270.71999999999997" r="0.1"/>
<circle cx="134.4" cy="270.71999999999997" r="0.1"/>
<circle cx="147.20000000000002" cy="270.71999999999997" r="0.1"/>
<circle cx="160.00000000000003" cy="270.71999999999997" r="0.1"/>
<circle cx="172.8" cy="270.71999999999997" r="0.1"/>
<circle cx="185.60000000000002" cy="270.71999999999997" r="0.1"/>
<circle cx="198.4" cy="270.71999999999997" r="0.1"/>
<circle cx="211.20000000000002" cy="270.71999999999997" r="0.1"/>
<circle cx="224.00000000000003" cy="270.71999999999997" r="0.1"/>
<circle cx="236.8" cy="270.71999999999997" r="0.1"/>
<circle cx="249.60000000000002" cy="270.71999999999997" r="0.1"/>
<circle cx="262.4" cy="270.71999999999997" r="0.1"/>
<circle cx="275.2" cy="270.71999999999997" r="0.1"/>
<circle cx="288" cy="270.71999999999997" r="0.1"/>
<circle cx="300.8" cy="270.71999999999997" r="0.1"/>
<circle cx="313.6" cy="270.71999999999997" r="0.1"/>
<circle cx="326.4" cy="270.71999999999997" r="0.1"/>
<circle cx="339.2" cy="270.71999999999997" r="0.1"/>
<circle cx="352" cy="270.71999999999997" r="0.1"/>
<circle cx="364.8" cy="270.71999999999997" r="0.1"/>
<circle cx="377.6" cy="270.71999999999997" r="0.1"/>
<circle cx="6.4" cy="282.24" r="0.1"/>
<circle cx="19.200000000000003" cy="282.24" r="0.1"/>
<circle cx="32" cy="282.24" r="0.1"/>
<circle cx="44.800000000000004" cy="282.24" r="0.1"/>
<circle cx="57.6" cy="282.24" r="0.1"/>
<circle cx="70.4" cy="282.24" r="0.1"/>
<circle cx="83.20000000000002" cy="282.24" r="0.1"/>
<circle cx="96.00000000000001" cy="282.24" r="0.1"/>
<circle cx="108.80000000000001" cy="282.24" r="0.1"/>
<circle cx="121.60000000000001" cy="282.24" r="0.1"/>
<circle cx="134.4" cy="282.24" r="0.1"/>
<circle cx="147.20000000000002" cy="282.24" r="0.1"/>
<circle cx="160.00000000000003" cy="282.24" r="0.1"/>
<circle cx="172.8" cy="282.24" r="0.1"/>
<circle cx="185.60000000000002" cy="282.24" r="0.1"/>
<circle cx="198.4" cy="282.24" r="0.1"/>
<circle cx="211.20000000000002" cy="282.24" r="0.1"/>
<circle cx="224.00000000000003" cy="282.24" r="0.1"/>
<circle cx="236.8" cy="282.24" r="0.1"/>
<circle cx="249.60000000000002" cy="282.24" r="0.1"/>
<circle cx="262.4" cy="282.24" r="0.1"/>
<circle cx="275.2" cy="282.24" r="0.1"/>
<circle cx="288" cy="282.24" r="0.1"/>
<circle cx="300.8" cy="282.24" r="0.1"/>
<circle cx="313.6" cy="282.24" r="0.1"/>
<circle cx="326.4" cy="282.24" r="0.1"/>
<circle cx="339.2" cy="282.24" r="0.1"/>
<circle cx="352" cy="282.24" r="0.1"/>
<circle cx="364.8" cy="282.24" r="0.1"/>
<circle cx="377.6" cy="282.24" r="0.1"/>
<circle cx="6.4" cy="293.76" r="0.1"/>
<circle cx="19.200000000000003" cy="293.76" r="0.1"/>
<circle cx="32" cy="293.76" r="0.1"/>
<circle cx="44.800000000000004" cy="293.76" r="0.1"/>
<circle cx="57.6" cy="293.76" r="0.1"/>
<circle cx="70.4" cy="293.76" r="0.1"/>
<circle cx="83.20000000000002" cy="293.76" r="0.1"/>
<circle cx="96.00000000000001" cy="293.76" r="0.1"/>
<circle cx="108.80000000000001" cy="293.76" r="0.1"/>
<circle cx="121.60000000000001" cy="293.76" r="0.1"/>
<circle cx="134.4" cy="293.76" r="0.1"/>
<circle cx="147.20000000000002" cy="293.76" r="0.1"/>
<circle cx="160.00000000000003" cy="293.76" r="0.1"/>
<circle cx="172.8" cy="293.76" r="0.1"/>
<circle cx="185.60000000000002" cy="293.76" r="0.1"/>
<circle cx="198.4" cy="293.76" r="0.1"/>
<circle cx="211.20000000000002" cy="293.76" r="0.1"/>
<circle cx="224.00000000000003" cy="293.76" r="0.1"/>
<circle cx="236.8" cy="293.76" r="0.1"/>
<circle cx="249.60000000000002" cy="293.76" r="0.1"/>
<circle cx="262.4" cy="293.76" r="0.1"/>
<circle cx="275.2" cy="293.76" r="0.1"/>
<circle cx="288" cy="293.76" r="0.1"/>
<circle cx="300.8" cy="293.76" r="0.1"/>
<circle cx="313.6" cy="293.76" r="0.1"/>
<circle cx="326.4" cy="293.76" r="0.1"/>
<circle cx="339.2" cy="293.76" r="0.1"/>
<circle cx="352" cy="293.76" r="0.1"/>
<circle cx="364.8" cy="293.76" r="0.1"/>
<circle cx="377.6" cy="293.76" r="0.1"/>
<circle cx="6.4" cy="305.28" r="0.1"/>
<circle cx="19.200000000000003" cy="305.28" r="0.1"/>
<circle cx="32" cy="305.28" r="0.1"/>
<circle cx="44.800000000000004" cy="305.28" r="0.1"/>
<circle cx="57.6" cy="305.28" r="0.1"/>
<circle cx="70.4" cy="305.28" r="0.1"/>
<circle cx="83.20000000000002" cy="305.28" r="0.1"/>
<circle cx="96.00000000000001" cy="305.28" r="0.1"/>
<circle cx="108.80000000000001" cy="305.28" r="0.1"/>
<circle cx="121.60000000000001" cy="305.28" r="0.1"/>
<circle cx="134.4" cy="305.28" r="0.1"/>
<circle cx="147.20000000000002" cy="305.28" r="0.1"/>
<circle cx="160.00000000000003" cy="305.28" r="0.1"/>
<circle cx="172.8" cy="305.28" r="0.1"/>
<circle cx="185.60000000000002" cy="305.28" r="0.1"/>
<circle cx="198.4" cy="305.28" r="0.1"/>
<circle cx="211.20000000000002" cy="305.28" r="0.1"/>
<circle cx="224.00000000000003" cy="305.28" r="0.1"/>
<circle cx="236.8" cy="305.28" r="0.1"/>
<circle cx="249.60000000000002" cy="305.28" r="0.1"/>
<circle cx="262.4" cy="305.28" r="0.1"/>
<circle cx="275.2" cy="305.28" r="0.1"/>
<circle cx="288" cy="305.28" r="0.1"/>
<circle cx="300.8" cy="305.28" r="0.1"/>
<circle cx="313.6" cy="305.28" r="0.1"/>
<circle cx="326.4" cy="305.28" r="0.1"/>
<circle cx="339.2" cy="305.28" r="0.1"/>
<circle cx="352" cy="305.28" r="0.1"/>
<circle cx="364.8" cy="305.28" r="0.1"/>
<circle cx="377.6" cy="305.28" r="0.1"/>
<circle cx="6.4" cy="316.79999999999995" r="0.1"/>
<circle cx="19.200000000000003" cy="316.79999999999995" r="0.1"/>
<circle cx="32" cy="316.79999999999995" r="0.1"/>
<circle cx="44.800000000000004" cy="316.79999999999995" r="0.1"/>
<circle cx="57.6" cy="316.79999999999995" r="0.1"/>
<circle cx="70.4" cy="316.79999999999995" r="0.1"/>
<circle cx="83.20000000000002" cy="316.79999999999995" r="0.1"/>
<circle cx="96.00000000000001" cy="316.79999999999995" r="0.1"/>
<circle cx="108.80000000000001" cy="316.79999999999995" r="0.1"/>
<circle cx="121.60000000000001" cy="316.79999999999995" r="0.1"/>
<circle cx="134.4" cy="316.79999999999995" r="0.1"/>
<circle cx="147.20000000000002" cy="316.79999999999995" r="0.1"/>
<circle cx="160.00000000000003" cy="316.79999999999995" r="0.1"/>
<circle cx="172.8" cy="316.79999999999995" r="0.1"/>
<circle cx="185.60000000000002" cy="316.79999999999995" r="0.1"/>
<circle cx="198.4" cy="316.79999999999995" r="0.1"/>
<circle cx="211.20000000000002" cy="316.79999999999995" r="0.1"/>
<circle cx="224.00000000000003" cy="316.79999999999995" r="0.1"/>
<circle cx="236.8" cy="316.79999999999995" r="0.1"/>
<circle cx="249.60000000000002" cy="316.79999999999995" r="0.1"/>
<circle cx="262.4" cy="316.79999999999995" r="0.1"/>
<circle cx="275.2" cy="316.79999999999995" r="0.1"/>
<circle cx="288" cy="316.79999999999995" r="0.1"/>
<circle cx="300.8" cy="316.79999999999995" r="0.1"/>
<circle cx="313.6" cy="316.79999999999995" r="0.1"/>
<circle cx="326.4" cy="316.79999999999995" r="0.1"/>
<circle cx="339.2" cy="316.79999999999995" r="0.1"/>
<circle cx="352" cy="316.79999999999995" r="0.1"/>
<circle cx="364.8" cy="316.79999999999995" r="0.1"/>
<circle cx="377.6" cy="316.79999999999995" r="0.1"/>
<circle cx="6.4" cy="328.32" r="0.1"/>
<circle cx="19.200000000000003" cy="328.32" r="0.1"/>
<circle cx="32" cy="328.32" r="0.1"/>
<circle cx="44.800000000000004" cy="328.32" r="0.1"/>
<circle cx="57.6" cy="328.32" r="0.1"/>
<circle cx="70.4" cy="328.32" r="0.1"/>
<circle cx="83.20000000000002" cy="328.32" r="0.1"/>
<circle cx="96.00000000000001" cy="328.32" r="0.1"/>
<circle cx="108.80000000000001" cy="328.32" r="0.1"/>
<circle cx="121.60000000000001" cy="328.32" r="0.1"/>
<circle cx="134.4" cy="328.32" r="0.1"/>
<circle cx="147.20000000000002" cy="328.32" r="0.1"/>
<circle cx="160.00000000000003" cy="328.32" r="0.1"/>
<circle cx="172.8" cy="328.32" r="0.1"/>
<circle cx="185.60000000000002" cy="328.32" r="0.1"/>
<circle cx="198.4" cy="328.32" r="0.1"/>
<circle cx="211.20000000000002" cy="328.32" r="0.1"/>
<circle cx="224.00000000000003" cy="328.32" r="0.1"/>
<circle cx="236.8" cy="328.32" r="0.1"/>
<circle cx="249.60000000000002" cy="328.32" r="0.1"/>
<circle cx="262.4" cy="328.32" r="0.1"/>
<circle cx="275.2" cy="328.32" r="0.1"/>
<circle cx="288" cy="328.32" r="0.1"/>
<circle cx="300.8" cy="328.32" r="0.1"/>
<circle cx="313.6" cy="328.32" r="0.1"/>
<circle cx="326.4" cy="328.32" r="0.1"/>
<circle cx="339.2" cy="328.32" r="0.1"/>
<circle cx="352" cy="328.32" r="0.1"/>
<circle cx="364.8" cy="328.32" r="0.1"/>
<circle cx="377.6" cy="328.32" r="0.1"/>
<circle cx="6.4" cy="339.84" r="0.1"/>
<circle cx="19.200000000000003" cy="339.84" r="0.1"/>
<circle cx="32" cy="339.84" r="0.1"/>
<circle cx="44.800000000000004" cy="339.84" r="0.1"/>
<circle cx="57.6" cy="339.84" r="0.1"/>
<circle cx="70.4" cy="339.84" r="0.1"/>
<circle cx="83.20000000000002" cy="339.84" r="0.1"/>
<circle cx="96.00000000000001" cy="339.84" r="0.1"/>
<circle cx="108.80000000000001" cy="339.84" r="0.1"/>
<circle cx="121.60000000000001" cy="339.84" r="0.1"/>
<circle cx="134.4" cy="339.84" r="0.1"/>
<circle cx="147.20000000000002" cy="339.84" r="0.1"/>
<circle cx="160.00000000000003" cy="339.84" r="0.1"/>
<circle cx="172.8" cy="339.84" r="0.1"/>
<circle cx="185.60000000000002" cy="339.84" r="0.1"/>
<circle cx="198.4" cy="339.84" r="0.1"/>
<circle cx="211.20000000000002" cy="339.84" r="0.1"/>
<circle cx="224.00000000000003" cy="339.84" r="0.1"/>
<circle cx="236.8" cy="339.84" r="0.1"/>
<circle cx="249.60000000000002" cy="339.84" r="0.1"/>
<circle cx="262.4" cy="339.84" r="0.1"/>
<circle cx="275.2" cy="339.84" r="0.1"/>
<circle cx="288" cy="339.84" r="0.1"/>
<circle cx="300.8" cy="339.84" r="0.1"/>
<circle cx="313.6" cy="339.84" r="0.1"/>
<circle cx="326.4" cy="339.84" r="0.1"/>
<circle cx="339.2" cy="339.84" r="0.1"/>
<circle cx="352" cy="339.84" r="0.1"/>
<circle cx="364.8" cy="339.84" r="0.1"/>
<circle cx="377.6" cy="339.84" r="0.1"/>
<circle cx="6.4" cy="351.35999999999996" r="0.1"/>
<circle cx="19.200000000000003" cy="351.35999999999996" r="0.1"/>
<circle cx="32" cy="351.35999999999996" r="0.1"/>
<circle cx="44.800000000000004" cy="351.35999999999996" r="0.1"/>
<circle cx="57.6" cy="351.35999999999996" r="0.1"/>
<circle cx="70.4" cy="351.35999999999996" r="0.1"/>
<circle cx="83.20000000000002" cy="351.35999999999996" r="0.1"/>
<circle cx="96.00000000000001" cy="351.35999999999996" r="0.1"/>
<circle cx="108.80000000000001" cy="351.35999999999996" r="0.1"/>
<circle cx="121.60000000000001" cy="351.35999999999996" r="0.1"/>
<circle cx="134.4" cy="351.35999999999996" r="0.1"/>
<circle cx="147.20000000000002" cy="351.35999999999996" r="0.1"/>
<circle cx="160.00000000000003" cy="351.35999999999996" r="0.1"/>
<circle cx="172.8" cy="351.35999999999996" r="0.1"/>
<circle cx="185.60000000000002" cy="351.35999999999996" r="0.1"/>
<circle cx="198.4" cy="351.35999999999996" r="0.1"/>
<circle cx="211.20000000000002" cy="351.35999999999996" r="0.1"/>
<circle cx="224.00000000000003" cy="351.35999999999996" r="0.1"/>
<circle cx="236.8" cy="351.35999999999996" r="0.1"/>
<circle cx="249.60000000000002" cy="351.35999999999996" r="0.1"/>
<circle cx="262.4" cy="351.35999999999996" r="0.1"/>
<circle cx="275.2" cy="351.35999999999996" r="0.1"/>
<circle cx="288" cy="351.35999999999996" r="0.1"/>
<circle cx="300.8" cy="351.35999999999996" r="0.1"/>
<circle cx="313.6" cy="351.35999999999996" r="0.1"/>
<circle cx="326.4" cy="351.35999999999996" r="0.1"/>
<circle cx="339.2" cy="351.35999999999996" r="0.1"/>
<circle cx="352" cy="351.35999999999996" r="0.1"/>
<circle cx="364.8" cy="351.35999999999996" r="0.1"/>
<circle cx="377.6" cy="351.35999999999996" r="0.1"/>
<circle cx="6.4" cy="362.88" r="0.1"/>
<circle cx="19.200000000000003" cy="362.88" r="0.1"/>
<circle cx="32" cy="362.88" r="0.1"/>
<circle cx="44.800000000000004" cy="362.88" r="0.1"/>
<circle cx="57.6" cy="362.88" r="0.1"/>
<circle cx="70.4" cy="362.88" r="0.1"/>
<circle cx="83.20000000000002" cy="362.88" r="0.1"/>
<circle cx="96.00000000000001" cy="362.88" r="0.1"/>
<circle cx="108.80000000000001" cy="362.88" r="0.1"/>
<circle cx="121.60000000000001" cy="362.88" r="0.1"/>
<circle cx="134.4" cy="362.88" r="0.1"/>
<circle cx="147.20000000000002" cy="362.88" r="0.1"/>
<circle cx="160.00000000000003" cy="362.88" r="0.1"/>
<circle cx="172.8" cy="362.88" r="0.1"/>
<circle cx="185.60000000000002" cy="362.88" r="0.1"/>
<circle cx="198.4" cy="362.88" r="0.1"/>
<circle cx="211.20000000000002" cy="362.88" r="0.1"/>
<circle cx="224.00000000000003" cy="362.88" r="0.1"/>
<circle cx="236.8" cy="362.88" r="0.1"/>
<circle cx="249.60000000000002" cy="362.88" r="0.1"/>
<circle cx="262.4" cy="362.88" r="0.1"/>
<circle cx="275.2" cy="362.88" r="0.1"/>
<circle cx="288" cy="362.88" r="0.1"/>
<circle cx="300.8" cy="362.88" r="0.1"/>
<circle cx="313.6" cy="362.88" r="0.1"/>
<circle cx="326.4" cy="362.88" r="0.1"/>
<circle cx="339.2" cy="362.88" r="0.1"/>
<circle cx="352" cy="362.88" r="0.1"/>
<circle cx="364.8" cy="362.88" r="0.1"/>
<circle cx="377.6" cy="362.88" r="0.1"/>
<circle cx="6.4" cy="374.4" r="0.1"/>
<circle cx="19.200000000000003" cy="374.4" r="0.1"/>
<circle cx="32" cy="374.4" r="0.1"/>
<circle cx="44.800000000000004" cy="374.4" r="0.1"/>
<circle cx="57.6" cy="374.4" r="0.1"/>
<circle cx="70.4" cy="374.4" r="0.1"/>
<circle cx="83.20000000000002" cy="374.4" r="0.1"/>
<circle cx="96.00000000000001" cy="374.4" r="0.1"/>
<circle cx="108.80000000000001" cy="374.4" r="0.1"/>
<circle cx="121.60000000000001" cy="374.4" r="0.1"/>
<circle cx="134.4" cy="374.4" r="0.1"/>
<circle cx="147.20000000000002" cy="374.4" r="0.1"/>
<circle cx="160.00000000000003" cy="374.4" r="0.1"/>
<circle cx="172.8" cy="374.4" r="0.1"/>
<circle cx="185.60000000000002" cy="374.4" r="0.1"/>
<circle cx="198.4" cy="374.4" r="0.1"/>
<circle cx="211.20000000000002" cy="374.4" r="0.1"/>
<circle cx="224.00000000000003" cy="374.4" r="0.1"/>
<circle cx="236.8" cy="374.4" r="0.1"/>
<circle cx="249.60000000000002" cy="374.4" r="0.1"/>
<circle cx="262.4" cy="374.4" r="0.1"/>
<circle cx="275.2" cy="374.4" r="0.1"/>
<circle cx="288" cy="374.4" r="0.1"/>
<circle cx="300.8" cy="374.4" r="0.1"/>
<circle cx="313.6" cy="374.4" r="0.1"/>
<circle cx="326.4" cy="374.4" r="0.1"/>
<circle cx="339.2" cy="374.4" r="0.1"/>
<circle cx="352" cy="374.4" r="0.1"/>
<circle cx="364.8" cy="374.4" r="0.1"/>
<circle cx="377.6" cy="374.4" r="0.1"/>
<circle cx="6.4" cy="385.91999999999996" r="0.1"/>
<circle cx="19.200000000000003" cy="385.91999999999996" r="0.1"/>
<circle cx="32" cy="385.91999999999996" r="0.1"/>
<circle cx="44.800000000000004" cy="385.91999999999996" r="0.1"/>
<circle cx="57.6" cy="385.91999999999996" r="0.1"/>
<circle cx="70.4" cy="385.91999999999996" r="0.1"/>
<circle cx="83.20000000000002" cy="385.91999999999996" r="0.1"/>
<circle cx="96.00000000000001" cy="385.91999999999996" r="0.1"/>
<circle cx="108.80000000000001" cy="385.91999999999996" r="0.1"/>
<circle cx="121.60000000000001" cy="385.91999999999996" r="0.1"/>
<circle cx="134.4" cy="385.91999999999996" r="0.1"/>
<circle cx="147.20000000000002" cy="385.91999999999996" r="0.1"/>
<circle cx="160.00000000000003" cy="385.91999999999996" r="0.1"/>
<circle cx="172.8" cy="385.91999999999996" r="0.1"/>
<circle cx="185.60000000000002" cy="385.91999999999996" r="0.1"/>
<circle cx="198.4" cy="385.91999999999996" r="0.1"/>
<circle cx="211.20000000000002" cy="385.91999999999996" r="0.1"/>
<circle cx="224.00000000000003" cy="385.91999999999996" r="0.1"/>
<circle cx="236.8" cy="385.91999999999996" r="0.1"/>
<circle cx="249.60000000000002" cy="385.91999999999996" r="0.1"/>
<circle cx="262.4" cy="385.91999999999996" r="0.1"/>
<circle cx="275.2" cy="385.91999999999996" r="0.1"/>
<circle cx="288" cy="385.91999999999996" r="0.1"/>
<circle cx="300.8" cy="385.91999999999996" r="0.1"/>
<circle cx="313.6" cy="385.91999999999996" r="0.1"/>
<circle cx="326.4" cy="385.91999999999996" r="0.1"/>
<circle cx="339.2" cy="385.91999999999996" r="0.1"/>
<circle cx="352" cy="385.91999999999996" r="0.1"/>
<circle cx="364.8" cy="385.91999999999996" r="0.1"/>
<circle cx="377.6" cy="385.91999999999996" r="0.1"/>
<circle cx="6.4" cy="397.44" r="0.1"/>
<circle cx="19.200000000000003" cy="397.44" r="0.1"/>
<circle cx="32" cy="397.44" r="0.1"/>
<circle cx="44.800000000000004" cy="397.44" r="0.1"/>
<circle cx="57.6" cy="397.44" r="0.1"/>
<circle cx="70.4" cy="397.44" r="0.1"/>
<circle cx="83.20000000000002" cy="397.44" r="0.1"/>
<circle cx="96.00000000000001" cy="397.44" r="0.1"/>
<circle cx="108.80000000000001" cy="397.44" r="0.1"/>
<circle cx="121.60000000000001" cy="397.44" r="0.1"/>
<circle cx="134.4" cy="397.44" r="0.1"/>
<circle cx="147.20000000000002" cy="397.44" r="0.1"/>
<circle cx="160.00000000000003" cy="397.44" r="0.1"/>
<circle cx="172.8" cy="397.44" r="0.1"/>
<circle cx="185.60000000000002" cy="397.44" r="0.1"/>
<circle cx="198.4" cy="397.44" r="0.1"/>
<circle cx="211.20000000000002" cy="397.44" r="0.1"/>
<circle cx="224.00000000000003" cy="397.44" r="0.1"/>
<circle cx="236.8" cy="397.44" r="0.1"/>
<circle cx="249.60000000000002" cy="397.44" r="0.1"/>
<circle cx="262.4" cy="397.44" r="0.1"/>
<circle cx="275.2" cy="397.44" r="0.1"/>
<circle cx="288" cy="397.44" r="0.1"/>
<circle cx="300.8" cy="397.44" r="0.1"/>
<circle cx="313.6" cy="397.44" r="0.1"/>
<circle cx="326.4" cy="397.44" r="0.1"/>
<circle cx="339.2" cy="397.44" r="0.1"/>
<circle cx="352" cy="397.44" r="0.1"/>
<circle cx="364.8" cy="397.44" r="0.1"/>
<circle cx="377.6" cy="397.44" r="0.1"/>
<circle cx="6.4" cy="408.96" r="0.1"/>
<circle cx="19.200000000000003" cy="408.96" r="0.1"/>
<circle cx="32" cy="408.96" r="0.1"/>
<circle cx="44.800000000000004" cy="408.96" r="0.1"/>
<circle cx="57.6" cy="408.96" r="0.1"/>
<circle cx="70.4" cy="408.96" r="0.1"/>
<circle cx="83.20000000000002" cy="408.96" r="0.1"/>
<circle cx="96.00000000000001" cy="408.96" r="0.1"/>
<circle cx="108.80000000000001" cy="408.96" r="0.1"/>
<circle cx="121.60000000000001" cy="408.96" r="0.1"/>
<circle cx="134.4" cy="408.96" r="0.1"/>
<circle cx="147.20000000000002" cy="408.96" r="0.1"/>
<circle cx="160.00000000000003" cy="408.96" r="0.1"/>
<circle cx="172.8" cy="408.96" r="0.1"/>
<circle cx="185.60000000000002" cy="408.96" r="0.1"/>
<circle cx="198.4" cy="408.96" r="0.1"/>
<circle cx="211.20000000000002" cy="408.96" r="0.1"/>
<circle cx="224.00000000000003" cy="408.96" r="0.1"/>
<circle cx="236.8" cy="408.96" r="0.1"/>
<circle cx="249.60000000000002" cy="408.96" r="0.1"/>
<circle cx="262.4" cy="408.96" r="0.1"/>
<circle cx="275.2" cy="408.96" r="0.1"/>
<circle cx="288" cy="408.96" r="0.1"/>
<circle cx="300.8" cy="408.96" r="0.1"/>
<circle cx="313.6" cy="408.96" r="0.1"/>
<circle cx="326.4" cy="408.96" r="0.1"/>
<circle cx="339.2" cy="408.96" r="0.1"/>
<circle cx="352" cy="408.96" r="0.1"/>
<circle cx="364.8" cy="408.96" r="0.1"/>
<circle cx="377.6" cy="408.96" r="0.1"/>
<circle cx="6.4" cy="420.47999999999996" r="0.1"/>
<circle cx="19.200000000000003" cy="420.47999999999996" r="0.1"/>
<circle cx="32" cy="420.47999999999996" r="0.1"/>
<circle cx="44.800000000000004" cy="420.47999999999996" r="0.1"/>
<circle cx="57.6" cy="420.47999999999996" r="0.1"/>
<circle cx="70.4" cy="420.47999999999996" r="0.1"/>
<circle cx="83.20000000000002" cy="420.47999999999996" r="0.1"/>
<circle cx="96.00000000000001" cy="420.47999999999996" r="0.1"/>
<circle cx="108.80000000000001" cy="420.47999999999996" r="0.1"/>
<circle cx="121.60000000000001" cy="420.47999999999996" r="0.1"/>
<circle cx="134.4" cy="420.47999999999996" r="0.1"/>
<circle cx="147.20000000000002" cy="420.47999999999996" r="0.1"/>
<circle cx="160.00000000000003" cy="420.47999999999996" r="0.1"/>
<circle cx="172.8" cy="420.47999999999996" r="0.1"/>
<circle cx="185.60000000000002" cy="420.47999999999996" r="0.1"/>
<circle cx="198.4" cy="420.47999999999996" r="0.1"/>
<circle cx="211.20000000000002" cy="420.47999999999996" r="0.1"/>
<circle cx="224.00000000000003" cy="420.47999999999996" r="0.1"/>
<circle cx="236.8" cy="420.47999999999996" r="0.1"/>
<circle cx="249.60000000000002" cy="420.47999999999996" r="0.1"/>
<circle cx="262.4" cy="420.47999999999996" r="0.1"/>
<circle cx="275.2" cy="420.47999999999996" r="0.1"/>
<circle cx="288" cy="420.47999999999996" r="0.1"/>
<circle cx="300.8" cy="420.47999999999996" r="0.1"/>
<circle cx="313.6" cy="420.47999999999996" r="0.1"/>
<circle cx="326.4" cy="420.47999999999996" r="0.1"/>
<circle cx="339.2" cy="420.47999999999996" r="0.1"/>
<circle cx="352" cy="420.47999999999996" r="0.1"/>
<circle cx="364.8" cy="420.47999999999996" r="0.1"/>
<circle cx="377.6" cy="420.47999999999996" r="0.1"/>
<circle cx="6.4" cy="432" r="0.1"/>
<circle cx="19.200000000000003" cy="432" r="0.1"/>
<circle cx="32" cy="432" r="0.1"/>
<circle cx="44.800000000000004" cy="432" r="0.1"/>
<circle cx="57.6" cy="432" r="0.1"/>
<circle cx="70.4" cy="432" r="0.1"/>
<circle cx="83.20000000000002" cy="432" r="0.1"/>
<circle cx="96.00000000000001" cy="432" r="0.1"/>
<circle cx="108.80000000000001" cy="432" r="0.1"/>
<circle cx="121.60000000000001" cy="432" r="0.1"/>
<circle cx="134.4" cy="432" r="0.1"/>
<circle cx="147.20000000000002" cy="432" r="0.1"/>
<circle cx="160.00000000000003" cy="432" r="0.1"/>
<circle cx="172.8" cy="432" r="0.1"/>
<circle cx="185.60000000000002" cy="432" r="0.1"/>
<circle cx="198.4" cy="432" r="0.1"/>
<circle cx="211.20000000000002" cy="432" r="0.1"/>
<circle cx="224.00000000000003" cy="432" r="0.1"/>
<circle cx="236.8" cy="432" r="0.1"/>
<circle cx="249.60000000000002" cy="432" r="0.1"/>
<circle cx="262.4" cy="432" r="0.1"/>
<circle cx="275.2" cy="432" r="0.1"/>
<circle cx="288" cy="432" r="0.1"/>
<circle cx="300.8" cy="432" r="0.1"/>
<circle cx="313.6" cy="432" r="0.1"/>
<circle cx="326.4" cy="432" r="0.1"/>
<circle cx="339.2" cy="432" r="0.1"/>
<circle cx="352" cy="432" r="0.1"/>
<circle cx="364.8" cy="432" r="0.1"/>
<circle cx="377.6" cy="432" r="0.1"/>
<circle cx="6.4" cy="443.52" r="0.1"/>
<circle cx="19.200000000000003" cy="443.52" r="0.1"/>
<circle cx="32" cy="443.52" r="0.1"/>
<circle cx="44.800000000000004" cy="443.52" r="0.1"/>
<circle cx="57.6" cy="443.52" r="0.1"/>
<circle cx="70.4" cy="443.52" r="0.1"/>
<circle cx="83.20000000000002" cy="443.52" r="0.1"/>
<circle cx="96.00000000000001" cy="443.52" r="0.1"/>
<circle cx="108.80000000000001" cy="443.52" r="0.1"/>
<circle cx="121.60000000000001" cy="443.52" r="0.1"/>
<circle cx="134.4" cy="443.52" r="0.1"/>
<circle cx="147.20000000000002" cy="443.52" r="0.1"/>
<circle cx="160.00000000000003" cy="443.52" r="0.1"/>
<circle cx="172.8" cy="443.52" r="0.1"/>
<circle cx="185.60000000000002" cy="443.52" r="0.1"/>
<circle cx="198.4" cy="443.52" r="0.1"/>
<circle cx="211.20000000000002" cy="443.52" r="0.1"/>
<circle cx="224.00000000000003" cy="443.52" r="0.1"/>
<circle cx="236.8" cy="443.52" r="0.1"/>
<circle cx="249.60000000000002" cy="443.52" r="0.1"/>
<circle cx="262.4" cy="443.52" r="0.1"/>
<circle cx="275.2" cy="443.52" r="0.1"/>
<circle cx="288" cy="443.52" r="0.1"/>
<circle cx="300.8" cy="443.52" r="0.1"/>
<circle cx="313.6" cy="443.52" r="0.1"/>
<circle cx="326.4" cy="443.52" r="0.1"/>
<circle cx="339.2" cy="443.52" r="0.1"/>
<circle cx="352" cy="443.52" r="0.1"/>
<circle cx="364.8" cy="443.52" r="0.1"/>
<circle cx="377.6" cy="443.52" r="0.1"/>
<circle cx="6.4" cy="455.03999999999996" r="0.1"/>
<circle cx="19.200000000000003" cy="455.03999999999996" r="0.1"/>
<circle cx="32" cy="455.03999999999996" r="0.1"/>
<circle cx="44.800000000000004" cy="455.03999999999996" r="0.1"/>
<circle cx="57.6" cy="455.03999999999996" r="0.1"/>
<circle cx="70.4" cy="455.03999999999996" r="0.1"/>
<circle cx="83.20000000000002" cy="455.03999999999996" r="0.1"/>
<circle cx="96.00000000000001" cy="455.03999999999996" r="0.1"/>
<circle cx="108.80000000000001" cy="455.03999999999996" r="0.1"/>
<circle cx="121.60000000000001" cy="455.03999999999996" r="0.1"/>
<circle cx="134.4" cy="455.03999999999996" r="0.1"/>
<circle cx="147.20000000000002" cy="455.03999999999996" r="0.1"/>
<circle cx="160.00000000000003" cy="455.03999999999996" r="0.1"/>
<circle cx="172.8" cy="455.03999999999996" r="0.1"/>
<circle cx="185.60000000000002" cy="455.03999999999996" r="0.1"/>
<circle cx="198.4" cy="455.03999999999996" r="0.1"/>
<circle cx="211.20000000000002" cy="455.03999999999996" r="0.1"/>
<circle cx="224.00000000000003" cy="455.03999999999996" r="0.1"/>
<circle cx="236.8" cy="455.03999999999996" r="0.1"/>
<circle cx="249.60000000000002" cy="455.03999999999996" r="0.1"/>
<circle cx="262.4" cy="455.03999999999996" r="0.1"/>
<circle cx="275.2" cy="455.03999999999996" r="0.1"/>
<circle cx="288" cy="455.03999999999996" r="0.1"/>
<circle cx="300.8" cy="455.03999999999996" r="0.1"/>
<circle cx="313.6" cy="455.03999999999996" r="0.1"/>
<circle cx="326.4" cy="455.03999999999996" r="0.1"/>
<circle cx="339.2" cy="455.03999999999996" r="0.1"/>
<circle cx="352" cy="455.03999999999996" r="0.1"/>
<circle cx="364.8" cy="455.03999999999996" r="0.1"/>
<circle cx="377.6" cy="455.03999999999996" r="0.1"/>
<circle cx="6.4" cy="466.55999999999995" r="0.1"/>
<circle cx="19.200000000000003" cy="466.55999999999995" r="0.1"/>
<circle cx="32" cy="466.55999999999995" r="0.1"/>
<circle cx="44.800000000000004" cy="466.55999999999995" r="0.1"/>
<circle cx="57.6" cy="466.55999999999995" r="0.1"/>
<circle cx="70.4" cy="466.55999999999995" r="0.1"/>
<circle cx="83.20000000000002" cy="466.55999999999995" r="0.1"/>
<circle cx="96.00000000000001" cy="466.55999999999995" r="0.1"/>
<circle cx="108.80000000000001" cy="466.55999999999995" r="0.1"/>
<circle cx="121.60000000000001" cy="466.55999999999995" r="0.1"/>
<circle cx="134.4" cy="466.55999999999995" r="0.1"/>
<circle cx="147.20000000000002" cy="466.55999999999995" r="0.1"/>
<circle cx="160.00000000000003" cy="466.55999999999995" r="0.1"/>
<circle cx="172.8" cy="466.55999999999995" r="0.1"/>
<circle cx="185.60000000000002" cy="466.55999999999995" r="0.1"/>
<circle cx="198.4" cy="466.55999999999995" r="0.1"/>
<circle cx="211.20000000000002" cy="466.55999999999995" r="0.1"/>
<circle cx="224.00000000000003" cy="466.55999999999995" r="0.1"/>
<circle cx="236.8" cy="466.55999999999995" r="0.1"/>
<circle cx="249.60000000000002" cy="466.55999999999995" r="0.1"/>
<circle cx="262.4" cy="466.55999999999995" r="0.1"/>
<circle cx="275.2" cy="466.55999999999995" r="0.1"/>
<circle cx="288" cy="466.55999999999995" r="0.1"/>
<circle cx="300.8" cy="466.55999999999995" r="0.1"/>
<circle cx="313.6" cy="466.55999999999995" r="0.1"/>
<circle cx="326.4" cy="466.55999999999995" r="0.1"/>
<circle cx="339.2" cy="466.55999999999995" r="0.1"/>
<circle cx="352" cy="466.55999999999995" r="0.1"/>
<circle cx="364.8" cy="466.55999999999995" r="0.1"/>
<circle cx="377.6" cy="466.55999999999995" r="0.1"/>
<circle cx="6.4" cy="478.08" r="0.1"/>
<circle cx="19.200000000000003" cy="478.08" r="0.1"/>
<circle cx="32" cy="478.08" r="0.1"/>
<circle cx="44.800000000000004" cy="478.08" r="0.1"/>
<circle cx="57.6" cy="478.08" r="0.1"/>
<circle cx="70.4" cy="478.08" r="0.1"/>
<circle cx="83.20000000000002" cy="478.08" r="0.1"/>
<circle cx="96.00000000000001" cy="478.08" r="0.1"/>
<circle cx="108.80000000000001" cy="478.08" r="0.1"/>
<circle cx="121.60000000000001" cy="478.08" r="0.1"/>
<circle cx="134.4" cy="478.08" r="0.1"/>
<circle cx="147.20000000000002" cy="478.08" r="0.1"/>
<circle cx="160.00000000000003" cy="478.08" r="0.1"/>
<circle cx="172.8" cy="478.08" r="0.1"/>
<circle cx="185.60000000000002" cy="478.08" r="0.1"/>
<circle cx="198.4" cy="478.08" r="0.1"/>
<circle cx="211.20000000000002" cy="478.08" r="0.1"/>
<circle cx="224.00000000000003" cy="478.08" r="0.1"/>
<circle cx="236.8" cy="478.08" r="0.1"/>
<circle cx="249.60000000000002" cy="478.08" r="0.1"/>
<circle cx="262.4" cy="478.08" r="0.1"/>
<circle cx="275.2" cy="478.08" r="0.1"/>
<circle cx="288" cy="478.08" r="0.1"/>
<circle cx="300.8" cy="478.08" r="0.1"/>
<circle cx="313.6" cy="478.08" r="0.1"/>
<circle cx="326.4" cy="478.08" r="0.1"/>
<circle cx="339.2" cy="478.08" r="0.1"/>
<circle cx="352" cy="478.08" r="0.1"/>
<circle cx="364.8" cy="478.08" r="0.1"/>
<circle cx="377.6" cy="478.08" r="0.1"/>
<circle cx="6.4" cy="489.59999999999997" r="0.1"/>
<circle cx="19.200000000000003" cy="489.59999999999997" r="0.1"/>
<circle cx="32" cy="489.59999999999997" r="0.1"/>
<circle cx="44.800000000000004" cy="489.59999999999997" r="0.1"/>
<circle cx="57.6" cy="489.59999999999997" r="0.1"/>
<circle cx="70.4" cy="489.59999999999997" r="0.1"/>
<circle cx="83.20000000000002" cy="489.59999999999997" r="0.1"/>
<circle cx="96.00000000000001" cy="489.59999999999997" r="0.1"/>
<circle cx="108.80000000000001" cy="489.59999999999997" r="0.1"/>
<circle cx="121.60000000000001" cy="489.59999999999997" r="0.1"/>
<circle cx="134.4" cy="489.59999999999997" r="0.1"/>
<circle cx="147.20000000000002" cy="489.59999999999997" r="0.1"/>
<circle cx="160.00000000000003" cy="489.59999999999997" r="0.1"/>
<circle cx="172.8" cy="489.59999999999997" r="0.1"/>
<circle cx="185.60000000000002" cy="489.59999999999997" r="0.1"/>
<circle cx="198.4" cy="489.59999999999997" r="0.1"/>
<circle cx="211.20000000000002" cy="489.59999999999997" r="0.1"/>
<circle cx="224.00000000000003" cy="489.59999999999997" r="0.1"/>
<circle cx="236.8" cy="489.59999999999997" r="0.1"/>
<circle cx="249.60000000000002" cy="489.59999999999997" r="0.1"/>
<circle cx="262.4" cy="489.59999999999997" r="0.1"/>
<circle cx="275.2" cy="489.59999999999997" r="0.1"/>
<circle cx="288" cy="489.59999999999997" r="0.1"/>
<circle cx="300.8" cy="489.59999999999997" r="0.1"/>
<circle cx="313.6" cy="489.59999999999997" r="0.1"/>
<circle cx="326.4" cy="489.59999999999997" r="0.1"/>
<circle cx="339.2" cy="489.59999999999997" r="0.1"/>
<circle cx="352" cy="489.59999999999997" r="0.1"/>
<circle cx="364.8" cy="489.59999999999997" r="0.1"/>
<circle cx="377.6" cy="489.59999999999997" r="0.1"/>
<circle cx="6.4" cy="501.11999999999995" r="0.1"/>
<circle cx="19.200000000000003" cy="501.11999999999995" r="0.1"/>
<circle cx="32" cy="501.11999999999995" r="0.1"/>
<circle cx="44.800000000000004" cy="501.11999999999995" r="0.1"/>
<circle cx="57.6" cy="501.11999999999995" r="0.1"/>
<circle cx="70.4" cy="501.11999999999995" r="0.1"/>
<circle cx="83.20000000000002" cy="501.11999999999995" r="0.1"/>
<circle cx="96.00000000000001" cy="501.11999999999995" r="0.1"/>
<circle cx="108.80000000000001" cy="501.11999999999995" r="0.1"/>
<circle cx="121.60000000000001" cy="501.11999999999995" r="0.1"/>
<circle cx="134.4" cy="501.11999999999995" r="0.1"/>
<circle cx="147.20000000000002" cy="501.11999999999995" r="0.1"/>
<circle cx="160.00000000000003" cy="501.11999999999995" r="0.1"/>
<circle cx="172.8" cy="501.11999999999995" r="0.1"/>
<circle cx="185.60000000000002" cy="501.11999999999995" r="0.1"/>
<circle cx="198.4" cy="501.11999999999995" r="0.1"/>
<circle cx="211.20000000000002" cy="501.11999999999995" r="0.1"/>
<circle cx="224.00000000000003" cy="501.11999999999995" r="0.1"/>
<circle cx="236.8" cy="501.11999999999995" r="0.1"/>
<circle cx="249.60000000000002" cy="501.11999999999995" r="0.1"/>
<circle cx="262.4" cy="501.11999999999995" r="0.1"/>
<circle cx="275.2" cy="501.11999999999995" r="0.1"/>
<circle cx="288" cy="501.11999999999995" r="0.1"/>
<circle cx="300.8" cy="501.11999999999995" r="0.1"/>
<circle cx="313.6" cy="501.11999999999995" r="0.1"/>
<circle cx="326.4" cy="501.11999999999995" r="0.1"/>
<circle cx="339.2" cy="501.11999999999995" r="0.1"/>
<circle cx="352" cy="501.11999999999995" r="0.1"/>
<circle cx="364.8" cy="501.11999999999995" r="0.1"/>
<circle cx="377.6" cy="501.11999999999995" r="0.1"/>
<circle cx="6.4" cy="512.64" r="0.1"/>
<circle cx="19.200000000000003" cy="512.64" r="0.1"/>
<circle cx="32" cy="512.64" r="0.1"/>
<circle cx="44.800000000000004" cy="512.64" r="0.1"/>
<circle cx="57.6" cy="512.64" r="0.1"/>
<circle cx="70.4" cy="512.64" r="0.1"/>
<circle cx="83.20000000000002" cy="512.64" r="0.1"/>
<circle cx="96.00000000000001" cy="512.64" r="0.1"/>
<circle cx="108.80000000000001" cy="512.64" r="0.1"/>
<circle cx="121.60000000000001" cy="512.64" r="0.1"/>
<circle cx="134.4" cy="512.64" r="0.1"/>
<circle cx="147.20000000000002" cy="512.64" r="0.1"/>
<circle cx="160.00000000000003" cy="512.64" r="0.1"/>
<circle cx="172.8" cy="512.64" r="0.1"/>
<circle cx="185.60000000000002" cy="512.64" r="0.1"/>
<circle cx="198.4" cy="512.64" r="0.1"/>
<circle cx="211.20000000000002" cy="512.64" r="0.1"/>
<circle cx="224.00000000000003" cy="512.64" r="0.1"/>
<circle cx="236.8" cy="512.64" r="0.1"/>
<circle cx="249.60000000000002" cy="512.64" r="0.1"/>
<circle cx="262.4" cy="512.64" r="0.1"/>
<circle cx="275.2" cy="512.64" r="0.1"/>
<circle cx="288" cy="512.64" r="0.1"/>
<circle cx="300.8" cy="512.64" r="0.1"/>
<circle cx="313.6" cy="512.64" r="0.1"/>
<circle cx="326.4" cy="512.64" r="0.1"/>
<circle cx="339.2" cy="512.64" r="0.1"/>
<circle cx="352" cy="512.64" r="0.1"/>
<circle cx="364.8" cy="512.64" r="0.1"/>
<circle cx="377.6" cy="512.64" r="0.1"/>
<circle cx="6.4" cy="524.16" r="0.1"/>
<circle cx="19.200000000000003" cy="524.16" r="0.1"/>
<circle cx="32" cy="524.16" r="0.1"/>
<circle cx="44.800000000000004" cy="524.16" r="0.1"/>
<circle cx="57.6" cy="524.16" r="0.1"/>
<circle cx="70.4" cy="524.16" r="0.1"/>
<circle cx="83.20000000000002" cy="524.16" r="0.1"/>
<circle cx="96.00000000000001" cy="524.16" r="0.1"/>
<circle cx="108.80000000000001" cy="524.16" r="0.1"/>
<circle cx="121.60000000000001" cy="524.16" r="0.1"/>
<circle cx="134.4" cy="524.16" r="0.1"/>
<circle cx="147.20000000000002" cy="524.16" r="0.1"/>
<circle cx="160.00000000000003" cy="524.16" r="0.1"/>
<circle cx="172.8" cy="524.16" r="0.1"/>
<circle cx="185.60000000000002" cy="524.16" r="0.1"/>
<circle cx="198.4" cy="524.16" r="0.1"/>
<circle cx="211.20000000000002" cy="524.16" r="0.1"/>
<circle cx="224.00000000000003" cy="524.16" r="0.1"/>
<circle cx="236.8" cy="524.16" r="0.1"/>
<circle cx="249.60000000000002" cy="524.16" r="0.1"/>
<circle cx="262.4" cy="524.16" r="0.1"/>
<circle cx="275.2" cy="524.16" r="0.1"/>
<circle cx="288" cy="524.16" r="0.1"/>
<circle cx="300.8" cy="524.16" r="0.1"/>
<circle cx="313.6" cy="524.16" r="0.1"/>
<circle cx="326.4" cy="524.16" r="0.1"/>
<circle cx="339.2" cy="524.16" r="0.1"/>
<circle cx="352" cy="524.16" r="0.1"/>
<circle cx="364.8" cy="524.16" r="0.1"/>
<circle cx="377.6" cy="524.16" r="0.1"/>
<circle cx="6.4" cy="535.68" r="0.1"/>
<circle cx="19.200000000000003" cy="535.68" r="0.1"/>
<circle cx="32" cy="535.68" r="0.1"/>
<circle cx="44.800000000000004" cy="535.68" r="0.1"/>
<circle cx="57.6" cy="535.68" r="0.1"/>
<circle cx="70.4" cy="535.68" r="0.1"/>
<circle cx="83.20000000000002" cy="535.68" r="0.1"/>
<circle cx="96.00000000000001" cy="535.68" r="0.1"/>
<circle cx="108.80000000000001" cy="535.68" r="0.1"/>
<circle cx="121.60000000000001" cy="535.68" r="0.1"/>
<circle cx="134.4" cy="535.68" r="0.1"/>
<circle cx="147.20000000000002" cy="535.68" r="0.1"/>
<circle cx="160.00000000000003" cy="535.68" r="0.1"/>
<circle cx="172.8" cy="535.68" r="0.1"/>
<circle cx="185.60000000000002" cy="535.68" r="0.1"/>
<circle cx="198.4" cy="535.68" r="0.1"/>
<circle cx="211.20000000000002" cy="535.68" r="0.1"/>
<circle cx="224.00000000000003" cy="535.68" r="0.1"/>
<circle cx="236.8" cy="535.68" r="0.1"/>
<circle cx="249.60000000000002" cy="535.68" r="0.1"/>
<circle cx="262.4" cy="535.68" r="0.1"/>
<circle cx="275.2" cy="535.68" r="0.1"/>
<circle cx="288" cy="535.68" r="0.1"/>
<circle cx="300.8" cy="535.68" r="0.1"/>
<circle cx="313.6" cy="535.68" r="0.1"/>
<circle cx="326.4" cy="535.68" r="0.1"/>
<circle cx="339.2" cy="535.68" r="0.1"/>
<circle cx="352" cy="535.68" r="0.1"/>
<circle cx="364.8" cy="535.68" r="0.1"/>
<circle cx="377.6" cy="535.68" r="0.1"/>
<circle cx="6.4" cy="547.1999999999999" r="0.1"/>
<circle cx="19.200000000000003" cy="547.1999999999999" r="0.1"/>
<circle cx="32" cy="547.1999999999999" r="0.1"/>
<circle cx="44.800000000000004" cy="547.1999999999999" r="0.1"/>
<circle cx="57.6" cy="547.1999999999999" r="0.1"/>
<circle cx="70.4" cy="547.1999999999999" r="0.1"/>
<circle cx="83.20000000000002" cy="547.1999999999999" r="0.1"/>
<circle cx="96.00000000000001" cy="547.1999999999999" r="0.1"/>
<circle cx="108.80000000000001" cy="547.1999999999999" r="0.1"/>
<circle cx="121.60000000000001" cy="547.1999999999999" r="0.1"/>
<circle cx="134.4" cy="547.1999999999999" r="0.1"/>
<circle cx="147.20000000000002" cy="547.1999999999999" r="0.1"/>
<circle cx="160.00000000000003" cy="547.1999999999999" r="0.1"/>
<circle cx="172.8" cy="547.1999999999999" r="0.1"/>
<circle cx="185.60000000000002" cy="547.1999999999999" r="0.1"/>
<circle cx="198.4" cy="547.1999999999999" r="0.1"/>
<circle cx="211.20000000000002" cy="547.1999999999999" r="0.1"/>
<circle cx="224.00000000000003" cy="547.1999999999999" r="0.1"/>
<circle cx="236.8" cy="547.1999999999999" r="0.1"/>
<circle cx="249.60000000000002" cy="547.1999999999999" r="0.1"/>
<circle cx="262.4" cy="547.1999999999999" r="0.1"/>
<circle cx="275.2" cy="547.1999999999999" r="0.1"/>
<circle cx="288" cy="547.1999999999999" r="0.1"/>
<circle cx="300.8" cy="547.1999999999999" r="0.1"/>
<circle cx="313.6" cy="547.1999999999999" r="0.1"/>
<circle cx="326.4" cy="547.1999999999999" r="0.1"/>
<circle cx="339.2" cy="547.1999999999999" r="0.1"/>
<circle cx="352" cy="547.1999999999999" r="0.1"/>
<circle cx="364.8" cy="547.1999999999999" r="0.1"/>
<circle cx="377.6" cy="547.1999999999999" r="0.1"/>
<circle cx="6.4" cy="558.72" r="0.1"/>
<circle cx="19.200000000000003" cy="558.72" r="0.1"/>
<circle cx="32" cy="558.72" r="0.1"/>
<circle cx="44.800000000000004" cy="558.72" r="0.1"/>
<circle cx="57.6" cy="558.72" r="0.1"/>
<circle cx="70.4" cy="558.72" r="0.1"/>
<circle cx="83.20000000000002" cy="558.72" r="0.1"/>
<circle cx="96.00000000000001" cy="558.72" r="0.1"/>
<circle cx="108.80000000000001" cy="558.72" r="0.1"/>
<circle cx="121.60000000000001" cy="558.72" r="0.1"/>
<circle cx="134.4" cy="558.72" r="0.1"/>
<circle cx="147.20000000000002" cy="558.72" r="0.1"/>
<circle cx="160.00000000000003" cy="558.72" r="0.1"/>
<circle cx="172.8" cy="558.72" r="0.1"/>
<circle cx="185.60000000000002" cy="558.72" r="0.1"/>
<circle cx="198.4" cy="558.72" r="0.1"/>
<circle cx="211.20000000000002" cy="558.72" r="0.1"/>
<circle cx="224.00000000000003" cy="558.72" r="0.1"/>
<circle cx="236.8" cy="558.72" r="0.1"/>
<circle cx="249.60000000000002" cy="558.72" r="0.1"/>
<circle cx="262.4" cy="558.72" r="0.1"/>
<circle cx="275.2" cy="558.72" r="0.1"/>
<circle cx="288" cy="558.72" r="0.1"/>
<circle cx="300.8" cy="558.72" r="0.1"/>
<circle cx="313.6" cy="558.72" r="0.1"/>
<circle cx="326.4" cy="558.72" r="0.1"/>
<circle cx="339.2" cy="558.72" r="0.1"/>
<circle cx="352" cy="558.72" r="0.1"/>
<circle cx="364.8" cy="558.72" r="0.1"/>
<circle cx="377.6" cy="558.72" r="0.1"/>
<circle cx="6.4" cy="570.24" r="0.1"/>
<circle cx="19.200000000000003" cy="570.24" r="0.1"/>
<circle cx="32" cy="570.24" r="0.1"/>
<circle cx="44.800000000000004" cy="570.24" r="0.1"/>
<circle cx="57.6" cy="570.24" r="0.1"/>
<circle cx="70.4" cy="570.24" r="0.1"/>
<circle cx="83.20000000000002" cy="570.24" r="0.1"/>
<circle cx="96.00000000000001" cy="570.24" r="0.1"/>
<circle cx="108.80000000000001" cy="570.24" r="0.1"/>
<circle cx="121.60000000000001" cy="570.24" r="0.1"/>
<circle cx="134.4" cy="570.24" r="0.1"/>
<circle cx="147.20000000000002" cy="570.24" r="0.1"/>
<circle cx="160.00000000000003" cy="570.24" r="0.1"/>
<circle cx="172.8" cy="570.24" r="0.1"/>
<circle cx="185.60000000000002" cy="570.24" r="0.1"/>
<circle cx="198.4" cy="570.24" r="0.1"/>
<circle cx="211.20000000000002" cy="570.24" r="0.1"/>
<circle cx="224.00000000000003" cy="570.24" r="0.1"/>
<circle cx="236.8" cy="570.24" r="0.1"/>
<circle cx="249.60000000000002" cy="570.24" r="0.1"/>
<circle cx="262.4" cy="570.24" r="0.1"/>
<circle cx="275.2" cy="570.24" r="0.1"/>
<circle cx="288" cy="570.24" r="0.1"/>
<circle cx="300.8" cy="570.24" r="0.1"/>
<circle cx="313.6" cy="570.24" r="0.1"/>
<circle cx="326.4" cy="570.24" r="0.1"/>
<circle cx="339.2" cy="570.24" r="0.1"/>
<circle cx="352" cy="570.24" r="0.1"/>
<circle cx="364.8" cy="570.24" r="0.1"/>
<circle cx="377.6" cy="570.24" r="0.1"/>
</g>
<g fill="none" id="2" stroke="#093c80" stroke-width="0.2mm">
<path d="M349.5,323 L286.61853,352.39752 L138.92459,359.70093 L77.45012,317.7872 L154.27344,222.77415 L258.83627,148.73526 L268.83783,192.79022 L190.33455,345.02475 L123.453964,460.86377 L129.76817,410.45126 L181.64438,239.26927 L228.60956,129.42975 L256.26465,191.85646 L261.46265,340.72318 L219.5383,403.96796 L126.655975,327.48813 L54.50058,221.54991 L98.42893,210.30579 L249.35907,289.1206 L364.5619,356.92886 L314.42874,350.3516 L143.15462,297.13596 L32.38831,249.81503 L94.36324,223.8701 L244.38223,220.7666 L309.3916,262.7079 L233.2664,353.45175 L125.946945,423.6994 L113.42472,379.894 L192.52263,230.30753 L261.27722,115.789955 L254.48912,165.6497 L199.96619,336.97318 L152.2743,448.62332 L128.00618,387.0969 L126.9853,235.94702 L168.95009,169.18013 L257.54895,244.94014 L325.86572,353.64606 L282.17972,367.48083 L133.97552,288.1279 L20.191906,218.40845 L69.78413,225.35504 L241.11382,281.15298 L353.60413,329.23123 L292.52274,351.85693 L140.2642,350.80804 L71.74822,308.813 L147.13303,222.36432 L257.22995,156.00049 L272.41068,199.57076 L192.83028,346.3546 L122.12759,459.356 L129.18039,410.02545 L186.2208,238.733 L234.70116,125.446884 L255.7198,186.08698 L252.61491,339.43106 L210.58263,409.68634 L126.28807,334.6862 L61.898155,223.19446 L105.35623,206.63547 L250.68239,286.41614 L362.85367,358.12033 L313.77905,351.01358 L142.5676,292.7634 L28.530682,243.865 L88.73345,224.41699 L243.13913,229.56319 L315.12253,271.63992 L240.51591,353.7777 L127.62629,416.1739 L109.657845,372.82443 L189.61212,228.99261 L262.33585,117.698845 L255.2273,166.52321 L195.80028,337.60968 L146.46764,452.35178 L128.55289,392.58215 L135.72478,237.1397 L177.85344,163.44069 L257.8331,237.6454 L318.2168,351.93527 L274.9724,371.34323 L132.67088,291.24158 L22.301495,217.48045 L70.881256,224.53873 L241.79852,285.1096 L357.19955,334.8929 L297.8587,351.3127 L141.4051,342.1316 L66.00434,299.94336 L139.79933,222.12183 L255.49107,163.76823 L276.36743,206.9111 L196.14413,347.64716 L121.327934,457.0458 L128.28407,408.70508 L189.96562,238.00148 L240.2163,121.988266 L255.18036,180.90494 L244.00742,338.34317 L201.75162,415.43054 L126.087,342.05252 L69.77997,224.95807 L112.824905,202.58559 L251.96109,282.9053 L360.34314,358.794 L312.23602,351.9917 L141.79068,289.23267 L25.21259,238.49779 L83.709816,224.9493 L242.10541,238.09587 L320.86285,280.42743 L247.9086,353.9377 L129.41135,408.18283 L105.516235,365.23224 L185.90762,227.72954 L262.88602,120.40929 L256.28897,168.28824 L192.48578,338.4305 L141.2496,455.52573 L129.07567,397.443 L144.17685,238.1182 L186.59259,157.70842 L257.95245,230.23271 L310.12143,350.13205 L267.2616,375.5751 L131.42513,295.13623 L25.211294,217.05122 L72.867386,223.39183 L242.66173,288.20584 L360.2258,339.96063 L302.55252,350.80185 L142.3274,333.7659 L60.284397,291.25726 L132.37299,222.04263 L253.67293,171.96286 L280.68796,214.73561 L200.22534,348.87393 L121.01707,453.93735 L127.05034,406.4989 L192.84186,237.09747 L245.13274,119.1132 L254.68387,176.38225 L235.73381,337.47797 L193.12329,421.13385 L126.047386,349.48618 L78.06875,226.78793 L120.75809,198.1781 L253.1672,278.64133 L357.03696,358.9892 L309.81097,353.31378 L140.8475,286.57813 L22.49205,233.73349 L79.362236,225.42899 L241.29807,246.27176 L326.54523,288.9934 L255.34315,353.9384 L131.24977,399.8051 L101.02359,357.19547 L181.4648,226.54564 L262.9683,123.91222 L257.7009,170.93076 L190.05443,339.4112 L136.63815,458.08844 L129.53607,401.61163 L152.24944,238.86696 L195.09175,152.05139 L257.91495,222.80357 L301.66006,348.28818 L259.1263,380.15097 L130.265,299.75388 L28.909779,217.07904 L75.72586,221.88872 L243.67819,290.41272 L362.62753,344.41864 L306.53854,350.36322 L143.017,325.80212 L54.65709,282.82938 L124.95564,222.11754 L251.8267,180.50253 L285.34503,222.9642 L205.01357,350.0088 L121.1521,450.04465 L125.45475,403.42615 L194.82312,236.04695 L249.43683,116.87553 L254.26952,172.58241 L227.88428,336.84805 L184.77097,426.72702 L126.15879,356.88538 L86.68125,228.6335 L129.07478,193.44196 L254.27539,273.68683 L352.95154,358.7499 L306.5258,355.00305 L139.76472,284.82343 L20.421423,229.5836 L75.751976,225.81656 L240.72824,254.00168 L332.09982,297.2659 L262.71796,353.79147 L133.09169,391.12527 L96.21061,348.7959 L176.34851,225.46555 L262.62775,128.1887 L259.485,174.42636 L188.52708,340.5244 L132.64268,459.98917 L129.89435,405.02908 L159.85448,239.37634 L203.28024,146.53981 L257.73352,215.45953 L292.91852,346.45285 L250.6492,385.03845 L129.21431,305.02737 L33.37554,217.51782 L79.42975,220.00879 L244.82,291.71213 L364.3556,348.25964 L309.76004,350.03677 L143.46571,318.32715 L49.192978,274.7289 L117.648605,222.33234 L250.0008,189.30016 L290.30457,231.51357 L210.43958,351.02878 L121.685974,445.39157 L123.47803,399.51627 L195.89412,234.87843 L253.12341,115.32279 L253.9774,169.55975 L220.54446,336.46014 L176.7625,432.1392 L126.40577,364.14917 L95.52925,230.44716 L137.69106,188.41295 L255.26349,268.11316 L348.11322,358.12408 L302.41238,357.07742 L138.57138,283.98108 L19.046528,226.05124 L72.93098,226.07181 L240.40125,261.20132 L337.45557,305.17856 L269.93228,353.51358 L134.89035,382.23267 L91.11477,340.1181 L170.6321,224.5105 L261.91315,133.21 L261.65775,178.74074 L187.91344,341.74066 L129.26422,461.1838 L130.11023,407.6458 L166.90907,239.64249 L211.09332,141.24496 L257.42603,208.3008 L283.9871,344.67188 L241.91525,390.1984 L128.2934,310.88147 L38.577408,218.31793 L83.94235,217.73695 L246.0572,292.09714 L365.36768,351.48468 L312.17,349.86276 L143.6711,311.42242 L43.96351,267.019 L110.55159,222.668 L248.24011,198.2645 L295.52576,240.29825 L216.42616,351.91455 L122.56836,440.0117 L121.10657,394.80832 L196.05081,233.62224 L256.1956,114.495384 L253.84776,167.35884 L213.79427,336.3153 L169.15935,437.29883 L126.76812,371.1784 L104.52064,232.18498 L146.52107,183.13344 L256.11313,261.99933 L342.55798,357.16272 L297.5121,359.54898 L137.29816,284.05228 L18.405857,223.13124 L70.94125,226.1546 L240.31668,267.79245 L342.54092,312.67157 L276.88776,353.12607 L136.60283,373.22018 L85.77998,331.24817 L164.39638,223.69786 L260.87616,138.93771 L264.22974,183.83025 L188.21187,343.02893 L126.49556,461.63583 L130.14372,409.42233 L173.33661,239.66716 L218.4729,136.23833 L257.01498,201.42506 L274.95947,342.98712 L233.01079,395.58533 L127.51859,317.23358 L44.474636,219.4272 L89.21778,215.06424 L247.35855,291.5723 L365.6293,354.1029 L313.73157,349.88098 L143.63632,305.16278 L39.040005,259.75607 L103.76145,223.10092 L246.58546,207.30128 L300.96164,249.23184 L222.88918,352.6508 L123.74654,433.94806 L118.332985,389.35037 L195.30052,232.30981 L258.66446,114.42583 L253.92014,166.01393 L207.70673,336.409 L162.01605,442.1348 L127.22118,377.87717 L113.56055,233.80728 L155.4784,177.6519 L256.8101,255.43108 L336.33124,355.91904 L291.87512,362.4235 L135.97665,285.02682 L18.529858,220.81055 L69.81447,226.0257 L240.46866,273.70377 L347.285,319.69223 L283.48935,352.65466 L138.19061,364.18317 L80.25617,322.2725 L157.72862,223.04074 L259.57037,145.3242 L267.20514,189.64256 L189.40935,344.35754 L124.32176,461.31693 L129.95595,410.3297 L179.06781,239.45757 L225.36816,131.59044 L256.5271,194.92624 L265.9314,341.43597 L224.02214,401.14795 L126.90185,323.9951 L51.017323,220.7917 L95.20169,211.98813 L248.69226,290.1534 L365.11423,356.1312 L314.41833,350.12997 L143.36987,299.61554 L34.492615,252.98892 L97.37097,223.6034 L245.07298,216.31435 L306.5595,258.22815 L229.73851,353.22668 L125.166306,427.25284 L115.156425,383.19873 L193.66191,230.97298 L260.54877,115.13813 L254.23257,165.5487 L202.34715,336.73145 L155.3796,446.57742 L127.73627,384.1538 L122.55257,235.27917 L164.477,172.02237 L257.3448,248.49982 L329.48727,354.44742 L285.55978,365.70013 L134.63866,286.88327 L19.440329,219.06863 L69.5716,225.64754 L240.8462,278.87216 L351.61868,326.1956 L289.64682,352.12897 L139.62006,355.21826 L74.59869,313.27682 L150.72144,222.54756 L258.05032,152.31297 L270.58136,196.11754 L191.48163,345.69473 L122.72053,460.2075 L129.50989,410.34958 L184.04161,239.02591 L231.73607,127.369896 L255.99289,188.89326 L256.99963,340.05078 L215.03465,406.82962 L126.45041,331.0721 L58.14687,222.35675 L101.8321,208.51291 L250.02673,287.8675 L363.80518,357.5936 L314.21475,350.6461 L142.88518,294.83957 L30.389303,246.75862 L91.46767,224.144 L243.73367,225.20695 L312.26154,267.2022 L236.87933,353.63623 L126.77293,419.9867 L111.58292,376.4172 L191.16476,229.64316 L261.8742,116.64728 L254.82088,165.97604 L197.77211,337.2681 L149.28896,450.55948 L128.28113,389.92236 L131.39998,236.57097 L173.43254,166.3039 L257.7124,241.30139 L322.0888,352.8026 L278.6315,369.37112 L133.31538,289.58917 L21.149933,217.87811 L70.2228,224.98505 L241.43358,283.24332 L355.47543,332.14465 L295.27563,351.5821 L140.86282,346.42203 L68.8677,304.34497 L143.47159,222.22188 L256.37073,159.83936 L274.3489,203.18806 L194.39352,347.00958 L121.6628,458.2972 L128.77118,409.47455 L188.2061,238.38905 L237.54176,123.64233 L255.4462,183.40901 L248.26056,338.85846 L206.13153,412.5691 L126.16655,338.36716 L65.79664,224.06773 L109.04031,204.64987 L251.3313,284.75244 L361.6942,358.5207 L313.11612,351.46292 L142.20015,290.8844 L26.794792,241.09795 L86.132744,224.68822 L242.59312,233.88293 L318.00543,276.07162 L244.21327,353.87845 L128.51196,412.21814 L107.62551,369.07596 L187.84956,228.35068 L262.673,118.958824 L255.71773,167.29793 L194.02873,337.9999 L143.77483,454.01715 L128.82053,395.10333 L140.00697,237.6585 L182.26326,160.55971 L257.9132,233.93483 L314.20624,351.03885 L271.16196,373.42163 L132.03679,293.10132 L23.661814,217.20526 L71.76737,224.00636 L242.21078,286.7726 L358.79257,337.51083 L300.2982,351.04984 L141.89616,337.88986 L63.12739,295.5578 L136.07875,222.06215 L254.58556,167.83113 L278.49112,210.78108 L198.09932,348.27255 L121.11345,455.58542 L127.70893,407.708 L191.51912,237.56793 L242.75877,120.46938 L254.92348,178.5493 L239.80905,337.88034 L197.39272,418.3013 L126.04748,345.77997 L73.89268,225.87106 L116.75192,200.41739 L252.57693,280.8565 L358.78308,358.9491 L311.12848,352.6104 L141.33667,287.7896 L23.769575,236.03125 L81.44008,225.19897 L241.67123,242.24802 L323.72528,284.75732 L251.63968,353.95737 L130.3302,404.02286 L103.30438,361.2507 L183.76709,227.12407 L262.98306,122.06861 L256.95206,169.5056 L191.154,338.9042 L138.8594,456.89117 L129.31693,399.62485 L148.27994,238.5233 L190.89119,154.85652 L257.95255,226.50117 L305.91684,349.20892 L263.22806,377.82968 L130.83081,297.36655 L26.969358,217.01085 L74.1939,222.68365 L243.15422,289.42563 L361.51205,342.2741 L304.64456,350.57025 L142.70311,329.71466 L57.445198,286.99222 L128.6442,222.06174 L252.74709,176.20944 L282.98434,218.81856 L202.54337,349.4563 L121.03193,452.08115 L126.296394,405.064 L193.94894,236.587 L247.36919,117.907745 L254.46321,174.38188 L231.73718,337.13196 L188.89403,423.95813 L126.08526,353.209 L82.354614,227.71495 L124.887856,195.84096 L253.7369,276.2377 L355.08325,358.92053 L308.26855,354.11417 L140.31996,285.5843 L21.368942,231.5743 L77.45532,225.63745 L240.98203,250.21103 L329.3524,293.18472 L259.05692,353.8822 L132.17644,395.4827 L98.64675,353.02148 L178.97772,225.98936 L262.84732,125.96262 L258.54828,172.5798 L189.17429,339.95493 L134.55637,459.12772 L129.73111,403.4234 L156.12868,239.15282 L199.24298,149.26358 L257.84088,219.1021 L297.30386,347.36337 L254.91077,382.56638 L129.72282,302.32214 L31.05608,217.25084 L77.480515,220.99373 L244.23721,291.17877 L363.5815,346.42294 L308.2535,350.1829 L143.27252,321.9856 L51.89087,278.7203 L121.2696,222.20891 L250.9052,184.8897 L287.79785,227.21866 L207.66074,350.5362 L121.37317,447.80338 L124.51166,401.567 L195.47475,235.47359 L251.36359,116.008194 L254.10515,170.96577 L224.13301,336.623 L180.70612,429.46942 L126.266914,360.55286 L91.096565,229.55025 L133.36548,190.95299 L254.78737,270.96313 L350.6162,358.4811 L304.56323,355.99475 L139.17796,284.28644 L19.642078,227.73436 L74.235146,225.96367 L240.53374,257.6851 L334.81613,301.28458 L266.36368,353.66718 L134.00227,386.6847 L93.68677,344.47165 L173.55069,224.96957 L262.3128,130.61699 L260.52567,176.49107 L188.10484,341.12366 L130.87083,460.67926 L130.02296,406.4447 L163.46754,239.5403 L207.25081,143.85179 L257.5937,211.83862 L288.45554,345.5498 L246.29407,387.59586 L128.73494,307.89682 L35.89565,217.87729 L81.595314,218.9187 L245.43073,292.01956 L364.9552,349.95425 L311.07312,349.9279 L143.5991,314.7869 L46.535534,270.80832 L114.05561,222.487 L249.10664,193.7826 L292.89413,235.89685 L213.3781,351.49103 L122.088356,442.78082 L122.33821,397.25122 L196.08682,234.2572 L254.74101,114.81478 L253.88956,168.35045 L217.07942,336.35727 L172.89372,434.76382 L126.574585,367.71118 L100.02822,231.3311 L142.09978,185.79262 L255.70805,265.10812 L345.41312,357.68042 L300.0493,358.26724 L137.94063,283.90298 L18.631224,224.51036 L71.82659,226.13739 L240.32875,264.5888 L340.04517,308.99374 L273.46027,353.33136 L135.7628,377.72015 L88.465164,335.68665 L167.5632,224.08406 L261.42987,135.99808 L262.8978,181.20035 L187.9497,342.37997 L127.799706,461.5054 L130.1523,408.6442 L170.21669,239.68472 L214.85323,138.69266 L257.23117,204.80986 L279.464,343.81216 L237.46376,392.87573 L127.88555,314.0115 L41.452057,218.83916 L86.49691,216.44647 L246.70406,291.94684 L365.5946,352.8732 L313.0614,349.84543 L143.68326,308.1969 L41.4507,263.31607 L107.100685,222.87468 L247.39435,202.79521 L298.22928,244.76706 L219.61464,352.3034 L123.12585,437.05194 L119.765526,392.16046 L195.78685,232.96883 L257.50864,114.364044 L253.8564,166.57536 L210.65302,336.333 L165.51494,439.7699 L126.985794,374.58636 L109.05593,233.01564 L151.00447,180.40533 L256.4826,258.75522 L339.51474,356.57068 L294.7726,360.94064 L136.6392,284.42938 L18.370913,221.89314 L70.26651,226.11879 L240.36394,270.8473 L344.96808,316.2559 L280.2498,352.8983 L137.41724,368.68332 L83.02895,326.75287 L161.09947,223.3481 L260.25125,142.06282 L265.6721,186.65953 L188.70152,343.69244 L125.33183,461.57364 L130.07954,409.9876 L176.30304,239.59064 L221.99568,133.85727 L256.77798,198.11177 L270.42407,342.19006 L228.5063,398.35757 L127.18884,320.58044 L47.67991,220.0833 L92.13507,213.57126 L248.02562,290.97076 L365.46927,355.1929 L314.1867,349.97473 L143.53088,302.28677 L36.707237,256.29623 L100.49976,223.3462 L245.80681,211.83218 L303.75336,253.74283 L226.28305,352.96024 L124.43206,430.6644 L116.78945,386.34695 L194.58786,231.64018 L259.68146,114.6843 L254.04459,165.66951 L204.92307,336.543 L158.62054,444.41714 L127.47379,381.08444 L118.083916,234.56653 L159.9932,174.84247 L257.09906,251.99312 L332.971,355.20578 L288.78757,364.01746 L135.30547,285.84976 L18.887323,219.86583 L69.58124,225.8694 L240.63077,276.39325 L349.51477,323.02216"/>
</g>
</svg>