<svg height="384px" viewBox="0 0 576 384" width="576px" xmlns="http://www.w3.org/2000/svg" xmlns:inkscape="http://www.inkscape.org/namespaces/inkscape">
<g fill="none" id="1" stroke="#093c80" stroke-width="0.45mm">
<path d="M131.05753,88.24637 L149.3605,64.81854"/>
<path d="M118.01372,111.34244 L168.60532,46.585186"/>
<path d="M112.05931,125.36408 L180.78018,37.401363"/>
<path d="M108.15521,136.76132 L190.89561,30.853605"/>
<path d="M105.39382,146.6959 L199.84978,25.792278"/>
<path d="M103.39926,155.64894 L208.07727,21.661095"/>
<path d="M101.969604,163.8789 L215.69324,18.312649"/>
<path d="M100.97806,171.5481 L222.91005,15.475141"/>
<path d="M100.3212,178.78886 L229.78703,13.072601"/>
<path d="M99.95311,185.66002 L236.34207,11.082153"/>
<path d="M99.843155,192.20076 L242.65303,9.404112"/>
<path d="M99.95845,198.45319 L248.75037,7.9995265"/>
<path d="M100.262405,204.46413 L254.65733,6.838609"/>
<path d="M100.735855,210.2581 L260.39346,5.896375"/>
<path d="M101.36258,215.8559 L265.97522,5.1517"/>
<path d="M102.13307,221.26967 L271.41672,4.5865884"/>
<path d="M103.04174,226.50656 L276.73,4.185605"/>
<path d="M104.070076,231.5903 L281.92126,3.9407916"/>
<path d="M105.20867,236.5329 L286.98758,3.8559043"/>
<path d="M106.449356,241.34482 L291.9515,3.9020753"/>
<path d="M107.78498,246.03522 L296.82025,4.070078"/>
<path d="M109.20927,250.61214 L301.60016,4.3518114"/>
<path d="M110.7328,255.06201 L306.29678,4.740126"/>
<path d="M112.346634,259.3963 L310.89975,5.248301"/>
<path d="M114.03466,263.63562 L315.41476,5.8690834"/>
<path d="M115.792885,267.7851 L319.85956,6.579766"/>
<path d="M117.6242,271.84103 L324.23767,7.37578"/>
<path d="M119.54473,275.78275 L328.54138,8.267035"/>
<path d="M121.52582,279.64694 L332.76263,9.263827"/>
<path d="M123.56486,283.43698 L336.92596,10.33477"/>
<path d="M125.67485,287.1362 L341.0337,11.476873"/>
<path d="M127.85744,290.7425 L345.06482,12.717014"/>
<path d="M130.09146,294.28293 L349.03278,14.038039"/>
<path d="M132.37524,297.75967 L352.95105,15.422654"/>
<path d="M134.74307,301.12888 L356.81143,16.881369"/>
<path d="M137.15746,304.43845 L360.59875,18.433598"/>
<path d="M139.61719,307.69 L364.3408,20.043787"/>
<path d="M142.14862,310.84976 L368.03696,21.712677"/>
<path d="M144.73245,313.94244 L371.6547,23.481998"/>
<path d="M147.35843,316.9812 L375.23032,25.30521"/>
<path d="M150.04866,319.9377 L378.7646,27.181334"/>
<path d="M152.79404,322.82364 L382.22333,29.15416"/>
<path d="M155.57939,325.6584 L385.63947,31.1815"/>
<path d="M158.42502,328.416 L389.01614,33.259335"/>
<path d="M161.32668,331.10187 L392.32043,35.429844"/>
<path d="M164.26698,333.73825 L395.58157,37.6556"/>
<path d="M167.26593,336.29962 L398.8043,39.9305"/>
<path d="M170.32089,338.78925 L401.95572,42.296665"/>
<path d="M173.41399,341.2301 L405.06406,44.718006"/>
<path d="M176.56541,343.59625 L408.13428,47.188126"/>
<path d="M179.77289,345.8907 L411.13324,49.74947"/>
<path d="M183.0187,348.13605 L414.08884,52.3663"/>
<path d="M186.323,350.30658 L417.00586,55.032505"/>
<path d="M189.6843,352.40408 L419.85147,57.790104"/>
<path d="M193.08495,354.45126 L422.6523,60.60505"/>
<path d="M196.54367,356.4241 L425.4133,63.470978"/>
<path d="M200.0623,358.32025 L428.10352,66.4275"/>
<path d="M203.6221,360.1637 L430.74527,69.446045"/>
<path d="M207.23814,361.93518 L433.3451,72.51829"/>
<path d="M210.91997,363.62244 L435.87653,75.67805"/>
<path d="M214.64574,365.25345 L438.35248,78.90884"/>
<path d="M218.4233,366.81818 L440.78336,82.1973"/>
<path d="M222.27687,368.2856 L443.1512,85.56644"/>
<path d="M226.17825,369.69183 L445.45178,89.02171"/>
<path d="M230.12894,371.03494 L447.70297,92.540184"/>
<path d="M234.16008,372.2751 L449.9009,96.126854"/>
<path d="M238.25014,373.43982 L452.01315,99.82318"/>
<path d="M242.39531,374.534 L454.07022,103.5901"/>
<path d="M246.6056,375.54483 L456.0699,107.430565"/>
<path d="M250.90158,376.44598 L457.99686,111.36403"/>
<path d="M255.26044,377.26666 L459.84085,115.40371"/>
<path d="M259.68527,378.00284 L461.61887,119.52787"/>
<path d="M264.18497,378.64325 L463.32736,123.740974"/>
<path d="M268.78262,379.15823 L464.95734,128.0546"/>
<path d="M273.45776,379.57404 L466.48602,132.49788"/>
<path d="M278.21527,379.88443 L467.9325,137.04642"/>
<path d="M283.0606,380.0824 L469.2913,141.70715"/>
<path d="M288,380.16 L470.55627,146.48799"/>
<path d="M293.06213,380.08047 L471.7204,151.3979"/>
<path d="M298.23175,379.86334 L472.76807,156.4569"/>
<path d="M303.51776,379.49728 L473.68866,161.6785"/>
<path d="M308.93036,378.96912 L474.4833,167.06136"/>
<path d="M314.48145,378.26376 L475.14032,172.62038"/>
<path d="M320.18478,377.36346 L475.6461,178.37302"/>
<path d="M326.0566,376.24753 L475.98462,184.33968"/>
<path d="M332.1161,374.8914 L476.13715,190.54446"/>
<path d="M338.3861,373.26578 L476.0812,197.01607"/>
<path d="M344.89413,371.3355 L475.78992,203.7889"/>
<path d="M351.67358,369.0578 L475.18652,210.96126"/>
<path d="M358.82834,366.29974 L474.25314,218.55598"/>
<path d="M366.37775,363.0365 L472.93423,226.64417"/>
<path d="M374.44476,359.11072 L471.0498,235.45624"/>
<path d="M383.2215,354.2765 L468.49435,245.12723"/>
<path d="M393.05817,348.08557 L464.87744,256.1569"/>
<path d="M404.7216,339.55637 L459.405,269.5616"/>
<path d="M421.08063,325.01678 L449.17984,289.0498"/>
</g>
<g fill="none" id="2" stroke="#a32784" stroke-width="0.45mm">
<path d="M125.33034,97.46781 L159.581,54.4866"/>
<path d="M116.31797,115.051956 L174.66808,41.828297"/>
<path d="M111.12035,127.848976 L185.96112,33.931145"/>
<path d="M107.61248,138.52551 L195.59364,28.117788"/>
<path d="M105.0886,147.96725 L204.25095,23.528229"/>
<path d="M103.19982,156.61198 L212.23465,19.783964"/>
<path d="M101.87407,164.55019 L219.70238,16.68722"/>
<path d="M100.92666,172.0136 L226.75574,14.110444"/>
<path d="M100.29858,179.0763 L233.49324,11.930048"/>
<path d="M99.94688,185.79214 L239.95695,10.093232"/>
<path d="M99.843094,192.1969 L246.18105,8.557111"/>
<path d="M99.95282,198.33372 L252.19359,7.286469"/>
<path d="M100.244896,204.2417 L258.01785,6.2521048"/>
<path d="M100.70114,209.94366 L263.6733,5.4295845"/>
<path d="M101.30956,215.45467 L269.17636,4.7982926"/>
<path d="M102.06377,220.78271 L274.54102,4.3407025"/>
<path d="M102.94487,225.95154 L279.77917,4.041809"/>
<path d="M103.942474,230.97415 L284.9012,3.8886797"/>
<path d="M105.04757,235.86186 L289.91602,3.870099"/>
<path d="M106.25231,240.62454 L294.8314,3.976286"/>
<path d="M107.54982,245.27081 L299.6503,4.20354"/>
<path d="M108.94247,249.79768 L304.35913,4.5689473"/>
<path d="M110.436676,254.19711 L308.9861,5.037032"/>
<path d="M112.007904,258.49988 L313.53613,5.6017127"/>
<path d="M113.65184,262.71143 L318.0135,6.257576"/>
<path d="M115.36461,266.83658 L322.403,7.0236697"/>
<path d="M117.173004,270.84174 L326.7138,7.8885617"/>
<path d="M119.04633,274.76538 L330.9623,8.831608"/>
<path d="M120.979126,278.61444 L335.15134,9.849291"/>
<path d="M122.975105,282.3842 L339.25644,10.972317"/>
<path d="M125.05472,286.04898 L343.299,12.1737795"/>
<path d="M127.186745,289.648 L347.28915,13.441061"/>
<path d="M129.36932,293.1836 L351.2174,14.786002"/>
<path d="M131.62857,296.62296 L355.07156,16.223927"/>
<path d="M133.94397,299.99188 L358.87854,17.721058"/>
<path d="M136.30518,303.3033 L362.63773,19.278162"/>
<path d="M138.73077,306.53394 L366.31668,20.935934"/>
<path d="M141.21762,309.68768 L369.95236,22.648031"/>
<path d="M143.74677,312.78836 L373.5457,24.413252"/>
<path d="M146.33339,315.81693 L377.06204,26.27507"/>
<path d="M148.98294,318.7665 L380.53513,28.191227"/>
<path d="M151.67233,321.6661 L383.9683,30.15742"/>
<path d="M154.41609,324.49744 L387.3278,32.21611"/>
<path d="M157.22229,327.25046 L390.64426,34.328793"/>
<path d="M160.06677,329.9554 L393.9224,36.48953"/>
<path d="M162.96515,332.59274 L397.1274,38.742054"/>
<path d="M165.92433,335.15378 L400.29092,41.046688"/>
<path d="M168.92102,337.66772 L403.4169,43.39839"/>
<path d="M171.97275,340.11264 L406.46863,45.843285"/>
<path d="M175.08342,342.48355 L409.48065,48.338024"/>
<path d="M178.23157,344.80743 L412.45517,50.879784"/>
<path d="M181.43658,347.05997 L415.35355,53.51711"/>
<path d="M184.69936,349.24002 L418.21344,56.202736"/>
<path d="M188.00032,351.37216 L421.03476,58.93678"/>
<path d="M191.3598,353.43085 L423.77893,61.767628"/>
<path d="M194.77737,355.41663 L426.48395,64.6476"/>
<path d="M198.23468,357.35257 L429.1493,67.57737"/>
<path d="M201.75104,359.2144 L431.7359,70.60592"/>
<path d="M205.32843,360.99963 L434.28104,73.68655"/>
<path d="M208.94792,362.73203 L436.7841,76.819954"/>
<path d="M212.62492,364.39224 L439.20972,80.05057"/>
<path d="M216.36963,365.96753 L441.58737,83.341324"/>
<path d="M220.15987,367.48566 L443.9196,86.689156"/>
<path d="M224.00273,368.93774 L446.17883,90.12853"/>
<path d="M227.9252,370.28995 L448.37854,93.64261"/>
<path d="M231.89786,371.57916 L450.5281,97.219635"/>
<path d="M235.92255,372.80307 L452.61398,100.87657"/>
<path d="M240.02763,373.92612 L454.62167,104.631615"/>
<path d="M244.19827,374.96686 L456.57294,108.45747"/>
<path d="M248.42784,375.9337 L458.46533,112.35725"/>
<path d="M252.7196,376.82245 L460.2737,116.3624"/>
<path d="M257.1086,377.5892 L462.00613,120.462875"/>
<path d="M261.56573,378.27048 L463.67044,124.64887"/>
<path d="M266.09476,378.86148 L465.2628,128.92513"/>
<path d="M270.6999,379.357 L466.76544,133.31396"/>
<path d="M275.40482,379.7273 L468.17166,137.8238"/>
<path d="M280.20483,379.97827 L469.49213,142.44125"/>
<path d="M285.09634,380.11438 L470.72092,147.17377"/>
<path d="M290.08612,380.12723 L471.85126,152.0298"/>
<path d="M295.18176,380.0072 L472.87546,157.01903"/>
<path d="M300.3921,379.74326 L473.7738,162.16623"/>
<path d="M305.72717,379.32275 L474.54236,167.47624"/>
<path d="M311.2095,378.7175 L475.1772,172.95413"/>
<path d="M316.83838,377.9283 L475.66522,178.6162"/>
<path d="M322.62833,376.937 L475.9913,184.48149"/>
<path d="M328.59695,375.72147 L476.13757,190.57245"/>
<path d="M334.76523,374.2554 L476.08276,196.91573"/>
<path d="M341.18198,372.4775 L475.8015,203.5432"/>
<path d="M347.86905,370.36038 L475.23416,210.52968"/>
<path d="M354.8668,367.85345 L474.34335,217.92206"/>
<path d="M362.2266,364.89212 L473.08606,225.77437"/>
<path d="M370.10867,361.2754 L471.3426,234.23676"/>
<path d="M378.57724,356.92267 L468.96112,243.49979"/>
<path d="M388.00092,351.3714 L465.65872,253.91846"/>
<path d="M398.84244,344.04086 L460.93698,266.1183"/>
<path d="M412.7813,332.82346 L453.1235,282.19797"/>
</g>
</svg>