<svg height="384px" viewBox="0 0 576 384" width="576px" xmlns="http://www.w3.org/2000/svg" xmlns:inkscape="http://www.inkscape.org/namespaces/inkscape">
<g fill="none" id="1" stroke="#093c80" stroke-width="0.45mm">
<path d="M0,0 L-300,384"/>
<path d="M5,0 L-295,384"/>
<path d="M10,0 L-290,384"/>
<path d="M15,0 L-285,384"/>
<path d="M20,0 L-280,384"/>
<path d="M25,0 L-275,384"/>
<path d="M30,0 L-270,384"/>
<path d="M35,0 L-265,384"/>
<path d="M40,0 L-260,384"/>
<path d="M45,0 L-255,384"/>
<path d="M50,0 L-250,384"/>
<path d="M55,0 L-245,384"/>
<path d="M60,0 L-240,384"/>
<path d="M65,0 L-235,384"/>
<path d="M70,0 L-230,384"/>
<path d="M75,0 L-225,384"/>
<path d="M80,0 L-220,384"/>
<path d="M85,0 L-215,384"/>
<path d="M90,0 L-210,384"/>
<path d="M95,0 L-205,384"/>
<path d="M100,0 L-200,384"/>
<path d="M105,0 L-195,384"/>
<path d="M110,0 L-190,384"/>
<path d="M115,0 L-185,384"/>
<path d="M120,0 L-180,384"/>
<path d="M125,0 L-175,384"/>
<path d="M130,0 L-170,384"/>
<path d="M135,0 L-165,384"/>
<path d="M140,0 L-160,384"/>
<path d="M145,0 L-155,384"/>
<path d="M150,0 L-150,384"/>
<path d="M155,0 L-145,384"/>
<path d="M160,0 L-140,384"/>
<path d="M165,0 L-135,384"/>
<path d="M170,0 L-130,384"/>
<path d="M175,0 L-125,384"/>
<path d="M180,0 L-120,384"/>
<path d="M185,0 L-115,384"/>
<path d="M190,0 L-110,384"/>
<path d="M195,0 L-105,384"/>
<path d="M200,0 L-100,384"/>
<path d="M205,0 L-95,384"/>
<path d="M210,0 L-90,384"/>
<path d="M215,0 L-85,384"/>
<path d="M220,0 L-80,384"/>
<path d="M225,0 L-75,384"/>
<path d="M230,0 L-70,384"/>
<path d="M235,0 L-65,384"/>
<path d="M240,0 L-60,384"/>
<path d="M245,0 L-55,384"/>
<path d="M250,0 L-50,384"/>
<path d="M255,0 L-45,384"/>
<path d="M260,0 L-40,384"/>
<path d="M265,0 L-35,384"/>
<path d="M270,0 L-30,384"/>
<path d="M275,0 L-25,384"/>
<path d="M280,0 L-20,384"/>
<path d="M285,0 L-15,384"/>
<path d="M290,0 L-10,384"/>
<path d="M295,0 L-5,384"/>
<path d="M300,0 L0,384"/>
<path d="M305,0 L5,384"/>
<path d="M310,0 L10,384"/>
<path d="M315,0 L15,384"/>
<path d="M320,0 L20,384"/>
<path d="M325,0 L25,384"/>
<path d="M330,0 L30,384"/>
<path d="M335,0 L35,384"/>
<path d="M340,0 L40,384"/>
<path d="M345,0 L45,384"/>
<path d="M350,0 L50,384"/>
<path d="M355,0 L55,384"/>
<path d="M360,0 L60,384"/>
<path d="M365,0 L65,384"/>
<path d="M370,0 L70,384"/>
<path d="M375,0 L75,384"/>
<path d="M380,0 L80,384"/>
<path d="M385,0 L85,384"/>
<path d="M390,0 L90,384"/>
<path d="M395,0 L95,384"/>
<path d="M400,0 L100,384"/>
<path d="M405,0 L105,384"/>
<path d="M410,0 L110,384"/>
<path d="M415,0 L115,384"/>
<path d="M420,0 L120,384"/>
<path d="M425,0 L125,384"/>
<path d="M430,0 L130,384"/>
<path d="M435,0 L135,384"/>
<path d="M440,0 L140,384"/>
<path d="M445,0 L145,384"/>
<path d="M450,0 L150,384"/>
<path d="M455,0 L155,384"/>
<path d="M460,0 L160,384"/>
<path d="M465,0 L165,384"/>
<path d="M470,0 L170,384"/>
<path d="M475,0 L175,384"/>
<path d="M480,0 L180,384"/>
<path d="M485,0 L185,384"/>
<path d="M490,0 L190,384"/>
<path d="M495,0 L195,384"/>
<path d="M500,0 L200,384"/>
<path d="M505,0 L205,384"/>
<path d="M510,0 L210,384"/>
<path d="M515,0 L215,384"/>
<path d="M520,0 L220,384"/>
<path d="M525,0 L225,384"/>
<path d="M530,0 L230,384"/>
<path d="M535,0 L235,384"/>
<path d="M540,0 L240,384"/>
<path d="M545,0 L245,384"/>
<path d="M550,0 L250,384"/>
<path d="M555,0 L255,384"/>
<path d="M560,0 L260,384"/>
<path d="M565,0 L265,384"/>
<path d="M570,0 L270,384"/>
<path d="M575,0 L275,384"/>
<path d="M580,0 L280,384"/>
<path d="M585,0 L285,384"/>
<path d="M590,0 L290,384"/>
<path d="M595,0 L295,384"/>
<path d="M600,0 L300,384"/>
<path d="M605,0 L305,384"/>
<path d="M610,0 L310,384"/>
<path d="M615,0 L315,384"/>
<path d="M620,0 L320,384"/>
<path d="M625,0 L325,384"/>
<path d="M630,0 L330,384"/>
<path d="M635,0 L335,384"/>
<path d="M640,0 L340,384"/>
<path d="M645,0 L345,384"/>
<path d="M650,0 L350,384"/>
<path d="M655,0 L355,384"/>
<path d="M660,0 L360,384"/>
<path d="M665,0 L365,384"/>
<path d="M670,0 L370,384"/>
<path d="M675,0 L375,384"/>
<path d="M680,0 L380,384"/>
<path d="M685,0 L385,384"/>
<path d="M690,0 L390,384"/>
<path d="M695,0 L395,384"/>
<path d="M700,0 L400,384"/>
<path d="M705,0 L405,384"/>
<path d="M710,0 L410,384"/>
<path d="M715,0 L415,384"/>
<path d="M720,0 L420,384"/>
<path d="M725,0 L425,384"/>
<path d="M730,0 L430,384"/>
<path d="M735,0 L435,384"/>
<path d="M740,0 L440,384"/>
<path d="M745,0 L445,384"/>
<path d="M750,0 L450,384"/>
<path d="M755,0 L455,384"/>
<path d="M760,0 L460,384"/>
<path d="M765,0 L465,384"/>
<path d="M770,0 L470,384"/>
<path d="M775,0 L475,384"/>
<path d="M780,0 L480,384"/>
<path d="M785,0 L485,384"/>
<path d="M790,0 L490,384"/>
<path d="M795,0 L495,384"/>
<path d="M800,0 L500,384"/>
<path d="M805,0 L505,384"/>
<path d="M810,0 L510,384"/>
<path d="M815,0 L515,384"/>
<path d="M820,0 L520,384"/>
<path d="M825,0 L525,384"/>
<path d="M830,0 L530,384"/>
<path d="M835,0 L535,384"/>
<path d="M840,0 L540,384"/>
<path d="M845,0 L545,384"/>
<path d="M850,0 L550,384"/>
<path d="M855,0 L555,384"/>
<path d="M860,0 L560,384"/>
<path d="M865,0 L565,384"/>
<path d="M870,0 L570,384"/>
<path d="M875,0 L575,384"/>
<path d="M880,0 L580,384"/>
<path d="M885,0 L585,384"/>
<path d="M890,0 L590,384"/>
<path d="M895,0 L595,384"/>
<path d="M900,0 L600,384"/>
<path d="M905,0 L605,384"/>
<path d="M910,0 L610,384"/>
<path d="M915,0 L615,384"/>
<path d="M920,0 L620,384"/>
<path d="M925,0 L625,384"/>
<path d="M930,0 L630,384"/>
<path d="M935,0 L635,384"/>
<path d="M940,0 L640,384"/>
<path d="M945,0 L645,384"/>
<path d="M950,0 L650,384"/>
<path d="M955,0 L655,384"/>
<path d="M960,0 L660,384"/>
<path d="M965,0 L665,384"/>
<path d="M970,0 L670,384"/>
<path d="M975,0 L675,384"/>
<path d="M980,0 L680,384"/>
<path d="M985,0 L685,384"/>
<path d="M990,0 L690,384"/>
<path d="M995,0 L695,384"/>
</g>
<g fill="none" id="2" stroke="#a32784" stroke-width="0.45mm">
<path d="M3,0 L-303,384"/>
<path d="M8,0 L-298,384"/>
<path d="M13,0 L-293,384"/>
<path d="M18,0 L-288,384"/>
<path d="M23,0 L-283,384"/>
<path d="M28,0 L-278,384"/>
<path d="M33,0 L-273,384"/>
<path d="M38,0 L-268,384"/>
<path d="M43,0 L-263,384"/>
<path d="M48,0 L-258,384"/>
<path d="M53,0 L-253,384"/>
<path d="M58,0 L-248,384"/>
<path d="M63,0 L-243,384"/>
<path d="M68,0 L-238,384"/>
<path d="M73,0 L-233,384"/>
<path d="M78,0 L-228,384"/>
<path d="M83,0 L-223,384"/>
<path d="M88,0 L-218,384"/>
<path d="M93,0 L-213,384"/>
<path d="M98,0 L-208,384"/>
<path d="M103,0 L-203,384"/>
<path d="M108,0 L-198,384"/>
<path d="M113,0 L-193,384"/>
<path d="M118,0 L-188,384"/>
<path d="M123,0 L-183,384"/>
<path d="M128,0 L-178,384"/>
<path d="M133,0 L-173,384"/>
<path d="M138,0 L-168,384"/>
<path d="M143,0 L-163,384"/>
<path d="M148,0 L-158,384"/>
<path d="M153,0 L-153,384"/>
<path d="M158,0 L-148,384"/>
<path d="M163,0 L-143,384"/>
<path d="M168,0 L-138,384"/>
<path d="M173,0 L-133,384"/>
<path d="M178,0 L-128,384"/>
<path d="M183,0 L-123,384"/>
<path d="M188,0 L-118,384"/>
<path d="M193,0 L-113,384"/>
<path d="M198,0 L-108,384"/>
<path d="M203,0 L-103,384"/>
<path d="M208,0 L-98,384"/>
<path d="M213,0 L-93,384"/>
<path d="M218,0 L-88,384"/>
<path d="M223,0 L-83,384"/>
<path d="M228,0 L-78,384"/>
<path d="M233,0 L-73,384"/>
<path d="M238,0 L-68,384"/>
<path d="M243,0 L-63,384"/>
<path d="M248,0 L-58,384"/>
<path d="M253,0 L-53,384"/>
<path d="M258,0 L-48,384"/>
<path d="M263,0 L-43,384"/>
<path d="M268,0 L-38,384"/>
<path d="M273,0 L-33,384"/>
<path d="M278,0 L-28,384"/>
<path d="M283,0 L-23,384"/>
<path d="M288,0 L-18,384"/>
<path d="M293,0 L-13,384"/>
<path d="M298,0 L-8,384"/>
<path d="M303,0 L-3,384"/>
<path d="M308,0 L2,384"/>
<path d="M313,0 L7,384"/>
<path d="M318,0 L12,384"/>
<path d="M323,0 L17,384"/>
<path d="M328,0 L22,384"/>
<path d="M333,0 L27,384"/>
<path d="M338,0 L32,384"/>
<path d="M343,0 L37,384"/>
<path d="M348,0 L42,384"/>
<path d="M353,0 L47,384"/>
<path d="M358,0 L52,384"/>
<path d="M363,0 L57,384"/>
<path d="M368,0 L62,384"/>
<path d="M373,0 L67,384"/>
<path d="M378,0 L72,384"/>
<path d="M383,0 L77,384"/>
<path d="M388,0 L82,384"/>
<path d="M393,0 L87,384"/>
<path d="M398,0 L92,384"/>
<path d="M403,0 L97,384"/>
<path d="M408,0 L102,384"/>
<path d="M413,0 L107,384"/>
<path d="M418,0 L112,384"/>
<path d="M423,0 L117,384"/>
<path d="M428,0 L122,384"/>
<path d="M433,0 L127,384"/>
<path d="M438,0 L132,384"/>
<path d="M443,0 L137,384"/>
<path d="M448,0 L142,384"/>
<path d="M453,0 L147,384"/>
<path d="M458,0 L152,384"/>
<path d="M463,0 L157,384"/>
<path d="M468,0 L162,384"/>
<path d="M473,0 L167,384"/>
<path d="M478,0 L172,384"/>
<path d="M483,0 L177,384"/>
<path d="M488,0 L182,384"/>
<path d="M493,0 L187,384"/>
<path d="M498,0 L192,384"/>
<path d="M503,0 L197,384"/>
<path d="M508,0 L202,384"/>
<path d="M513,0 L207,384"/>
<path d="M518,0 L212,384"/>
<path d="M523,0 L217,384"/>
<path d="M528,0 L222,384"/>
<path d="M533,0 L227,384"/>
<path d="M538,0 L232,384"/>
<path d="M543,0 L237,384"/>
<path d="M548,0 L242,384"/>
<path d="M553,0 L247,384"/>
<path d="M558,0 L252,384"/>
<path d="M563,0 L257,384"/>
<path d="M568,0 L262,384"/>
<path d="M573,0 L267,384"/>
<path d="M578,0 L272,384"/>
<path d="M583,0 L277,384"/>
<path d="M588,0 L282,384"/>
<path d="M593,0 L287,384"/>
<path d="M598,0 L292,384"/>
<path d="M603,0 L297,384"/>
<path d="M608,0 L302,384"/>
<path d="M613,0 L307,384"/>
<path d="M618,0 L312,384"/>
<path d="M623,0 L317,384"/>
<path d="M628,0 L322,384"/>
<path d="M633,0 L327,384"/>
<path d="M638,0 L332,384"/>
<path d="M643,0 L337,384"/>
<path d="M648,0 L342,384"/>
<path d="M653,0 L347,384"/>
<path d="M658,0 L352,384"/>
<path d="M663,0 L357,384"/>
<path d="M668,0 L362,384"/>
<path d="M673,0 L367,384"/>
<path d="M678,0 L372,384"/>
<path d="M683,0 L377,384"/>
<path d="M688,0 L382,384"/>
<path d="M693,0 L387,384"/>
<path d="M698,0 L392,384"/>
<path d="M703,0 L397,384"/>
<path d="M708,0 L402,384"/>
<path d="M713,0 L407,384"/>
<path d="M718,0 L412,384"/>
<path d="M723,0 L417,384"/>
<path d="M728,0 L422,384"/>
<path d="M733,0 L427,384"/>
<path d="M738,0 L432,384"/>
<path d="M743,0 L437,384"/>
<path d="M748,0 L442,384"/>
<path d="M753,0 L447,384"/>
<path d="M758,0 L452,384"/>
<path d="M763,0 L457,384"/>
<path d="M768,0 L462,384"/>
<path d="M773,0 L467,384"/>
<path d="M778,0 L472,384"/>
<path d="M783,0 L477,384"/>
<path d="M788,0 L482,384"/>
<path d="M793,0 L487,384"/>
<path d="M798,0 L492,384"/>
<path d="M803,0 L497,384"/>
<path d="M808,0 L502,384"/>
<path d="M813,0 L507,384"/>
<path d="M818,0 L512,384"/>
<path d="M823,0 L517,384"/>
<path d="M828,0 L522,384"/>
<path d="M833,0 L527,384"/>
<path d="M838,0 L532,384"/>
<path d="M843,0 L537,384"/>
<path d="M848,0 L542,384"/>
<path d="M853,0 L547,384"/>
<path d="M858,0 L552,384"/>
<path d="M863,0 L557,384"/>
<path d="M868,0 L562,384"/>
<path d="M873,0 L567,384"/>
<path d="M878,0 L572,384"/>
<path d="M883,0 L577,384"/>
<path d="M888,0 L582,384"/>
<path d="M893,0 L587,384"/>
<path d="M898,0 L592,384"/>
<path d="M903,0 L597,384"/>
<path d="M908,0 L602,384"/>
<path d="M913,0 L607,384"/>
<path d="M918,0 L612,384"/>
<path d="M923,0 L617,384"/>
<path d="M928,0 L622,384"/>
<path d="M933,0 L627,384"/>
<path d="M938,0 L632,384"/>
<path d="M943,0 L637,384"/>
<path d="M948,0 L642,384"/>
<path d="M953,0 L647,384"/>
<path d="M958,0 L652,384"/>
<path d="M963,0 L657,384"/>
<path d="M968,0 L662,384"/>
<path d="M973,0 L667,384"/>
<path d="M978,0 L672,384"/>
<path d="M983,0 L677,384"/>
<path d="M988,0 L682,384"/>
<path d="M993,0 L687,384"/>
<path d="M998,0 L692,384"/>
</g>
</svg>