<svg height="384px" viewBox="0 0 576 384" width="576px" xmlns="http://www.w3.org/2000/svg" xmlns:inkscape="http://www.inkscape.org/namespaces/inkscape">
<g fill="none" id="1" stroke="#093c80" stroke-width="0.45mm">
<path d="M33.50593,91.512405 L53.20007,66.30391"/>
<path d="M21.09912,113.79313 L71.69658,49.028378"/>
<path d="M15.324944,127.584076 L83.73773,40.015705"/>
<path d="M11.533875,138.83664 L93.73869,33.61447"/>
<path d="M8.876027,148.63869 L102.58852,28.6867"/>
<path d="M6.9338555,157.52466 L110.71732,24.68183"/>
<path d="M5.597947,165.63463 L118.285255,21.394876"/>
<path d="M4.6537704,173.24318 L125.45458,18.618137"/>
<path d="M4.043924,180.42378 L132.2401,16.332676"/>
<path d="M3.7555153,187.19295 L138.746,14.405122"/>
<path d="M3.7060192,193.6563 L145.0103,12.786809"/>
<path d="M3.8680625,199.84888 L151.06091,11.442029"/>
<path d="M4.2189217,205.79977 L156.92102,10.341097"/>
<path d="M4.739508,211.53343 L162.61006,9.459123"/>
<path d="M5.4136615,217.07051 L168.14449,8.775067"/>
<path d="M6.2275996,222.42867 L173.53827,8.271018"/>
<path d="M7.1694913,227.62305 L178.80342,7.931618"/>
<path d="M8.2291155,232.66673 L183.9503,7.743618"/>
<path d="M9.404441,237.56232 L188.98787,7.695519"/>
<path d="M10.694348,242.31123 L193.924,7.777287"/>
<path d="M12.079787,246.93787 L198.74632,8.004703"/>
<path d="M13.55453,251.4502 L203.4759,8.350836"/>
<path d="M15.113083,255.85526 L208.12154,8.804436"/>
<path d="M16.750574,260.15927 L212.6881,9.359236"/>
<path d="M18.483013,264.34174 L217.17995,10.009663"/>
<path d="M20.293985,268.4237 L221.58,10.7775955"/>
<path d="M22.172474,272.41922 L225.9047,11.641996"/>
<path d="M24.115337,276.33237 L230.165,12.588815"/>
<path d="M26.13511,280.14706 L234.36372,13.614431"/>
<path d="M28.229736,283.86594 L238.48328,14.741412"/>
<path d="M30.381052,287.51227 L242.53459,15.955722"/>
<path d="M32.586994,291.08865 L246.53131,17.239923"/>
<path d="M34.87079,294.5654 L250.47528,18.591635"/>
<path d="M37.21356,297.96664 L254.33566,20.05035"/>
<path d="M39.60579,301.3046 L258.14578,21.573412"/>
<path d="M42.056137,304.56815 L261.9078,23.158014"/>
<path d="M44.577564,307.74072 L265.60397,24.826902"/>
<path d="M47.144672,310.85483 L269.239,26.574076"/>
<path d="M49.75651,313.91165 L272.8293,28.378464"/>
<path d="M52.44673,316.8682 L276.36627,30.251177"/>
<path d="M55.18048,319.76898 L279.83453,32.211815"/>
<path d="M57.956642,322.6155 L283.26038,34.226707"/>
<path d="M60.802265,325.3731 L286.64163,36.29873"/>
<path d="M63.697136,328.06766 L289.94867,38.465687"/>
<path d="M66.63302,330.70975 L293.21475,40.68512"/>
<path d="M69.631966,333.2711 L296.4401,42.956696"/>
<path d="M72.68486,335.7634 L299.59152,45.32286"/>
<path d="M75.7782,338.20392 L302.7001,47.743874"/>
<path d="M78.929634,340.57007 L305.76825,50.21665"/>
<path d="M82.1397,342.86118 L308.76718,52.777996"/>
<path d="M85.39046,345.10022 L311.71838,55.400486"/>
<path d="M88.69475,347.27072 L314.6286,58.07538"/>
<path d="M92.06337,349.3589 L317.47424,60.83298"/>
<path d="M95.47373,351.39362 L320.26587,63.65969"/>
<path d="M98.932465,353.36646 L323.01523,66.54051"/>
<path d="M102.46329,355.24698 L325.70544,69.49703"/>
<path d="M106.03779,357.07162 L328.33307,72.53368"/>
<path d="M109.656784,358.83932 L330.91614,75.627335"/>
<path d="M113.35296,360.5082 L333.4476,78.78709"/>
<path d="M117.09872,362.11365 L335.90414,82.0427"/>
<path d="M120.89226,363.6579 L338.31287,85.35953"/>
<path d="M124.75264,365.1166 L340.67245,88.73926"/>
<path d="M128.67972,366.48996 L342.95624,92.216"/>
<path d="M132.65918,367.79626 L345.17935,95.77042"/>
<path d="M136.69283,369.0332 L347.34827,99.39422"/>
<path d="M140.81236,370.1602 L349.45825,103.09343"/>
<path d="M144.99295,371.209 L351.4807,106.90469"/>
<path d="M149.23457,372.17975 L353.44214,110.794075"/>
<path d="M153.54,373.06882 L355.33975,114.76512"/>
<path d="M157.94003,373.83676 L357.1705,118.82176"/>
<path d="M162.41197,374.5127 L358.90292,123.00424"/>
<path d="M166.95787,375.09393 L360.5609,127.28202"/>
<path d="M171.58202,375.575 L362.14078,131.65982"/>
<path d="M176.29239,375.94574 L363.6377,136.14377"/>
<path d="M181.11154,376.17722 L365.0463,140.74074"/>
<path d="M186.02425,376.28897 L366.34305,145.48088"/>
<path d="M191.03728,376.27228 L367.53583,150.35416"/>
<path d="M196.15833,376.11734 L368.62097,155.36516"/>
<path d="M201.39622,375.81284 L369.58978,160.52505"/>
<path d="M206.76112,375.34576 L370.43225,165.84673"/>
<path d="M212.26485,374.701 L371.1367,171.34506"/>
<path d="M217.92111,373.861 L371.68954,177.03737"/>
<path d="M223.74606,372.80502 L372.075,182.94398"/>
<path d="M229.75883,371.5087 L372.27426,189.08893"/>
<path d="M235.98218,369.9428 L372.265,195.5008"/>
<path d="M242.44351,368.0723 L372.02042,202.21388"/>
<path d="M249.17613,365.85455 L371.508,209.26978"/>
<path d="M256.23633,363.2175 L370.62482,216.80025"/>
<path d="M263.7377,360.01575 L369.3538,224.82713"/>
<path d="M271.70602,356.2163 L367.5676,233.51347"/>
<path d="M280.43152,351.44766 L365.0962,243.07686"/>
<path d="M290.15952,345.3958 L361.58026,253.97726"/>
<path d="M301.63034,337.11316 L356.27023,267.1741"/>
<path d="M317.68637,322.96143 L346.48438,286.09998"/>
<path d="M233.50594,91.512405 L253.20007,66.30391"/>
<path d="M221.09912,113.79313 L271.6966,49.028378"/>
<path d="M215.32494,127.584076 L283.73773,40.015705"/>
<path d="M211.53387,138.83664 L293.7387,33.61447"/>
<path d="M208.87602,148.63869 L302.5885,28.6867"/>
<path d="M206.93385,157.52466 L310.71732,24.68183"/>
<path d="M205.59795,165.63463 L318.28525,21.394876"/>
<path d="M204.65378,173.24318 L325.4546,18.618137"/>
<path d="M204.04393,180.42378 L332.24008,16.332676"/>
<path d="M203.75551,187.19295 L338.746,14.405122"/>
<path d="M203.70602,193.6563 L345.0103,12.786809"/>
<path d="M203.86806,199.84888 L351.0609,11.442029"/>
<path d="M204.21892,205.79977 L356.92102,10.341097"/>
<path d="M204.7395,211.53343 L362.61005,9.459123"/>
<path d="M205.41367,217.07051 L368.14447,8.775067"/>
<path d="M206.2276,222.42867 L373.53827,8.271018"/>
<path d="M207.1695,227.62305 L378.80344,7.931618"/>
<path d="M208.22911,232.66673 L383.9503,7.743618"/>
<path d="M209.40443,237.56232 L388.98788,7.695519"/>
<path d="M210.69435,242.31123 L393.92398,7.777287"/>
<path d="M212.07979,246.93787 L398.74634,8.004703"/>
<path d="M213.55453,251.4502 L403.47592,8.350836"/>
<path d="M215.11308,255.85526 L408.12152,8.804436"/>
<path d="M216.75058,260.15927 L412.6881,9.359236"/>
<path d="M218.48302,264.34174 L417.17996,10.009663"/>
<path d="M220.29399,268.4237 L421.58002,10.7775955"/>
<path d="M222.17247,272.41922 L425.9047,11.641996"/>
<path d="M224.11534,276.33237 L430.16498,12.588815"/>
<path d="M226.13512,280.14706 L434.36374,13.614431"/>
<path d="M228.22974,283.86594 L438.48328,14.741412"/>
<path d="M230.38106,287.51227 L442.5346,15.955722"/>
<path d="M232.58699,291.08865 L446.5313,17.239923"/>
<path d="M234.87079,294.5654 L450.47528,18.591635"/>
<path d="M237.21356,297.96664 L454.33566,20.05035"/>
<path d="M239.60579,301.3046 L458.14578,21.573412"/>
<path d="M242.05614,304.56815 L461.9078,23.158014"/>
<path d="M244.57756,307.74072 L465.60397,24.826902"/>
<path d="M247.14467,310.85483 L469.239,26.574076"/>
<path d="M249.75652,313.91165 L472.8293,28.378464"/>
<path d="M252.44673,316.8682 L476.36627,30.251177"/>
<path d="M255.18048,319.76898 L479.83453,32.211815"/>
<path d="M257.95663,322.6155 L483.26038,34.226707"/>
<path d="M260.80228,325.3731 L486.64163,36.29873"/>
<path d="M263.69714,328.06766 L489.94867,38.465687"/>
<path d="M266.63303,330.70975 L493.21475,40.68512"/>
<path d="M269.63196,333.2711 L496.4401,42.956696"/>
<path d="M272.68484,335.7634 L499.59152,45.32286"/>
<path d="M275.7782,338.20392 L502.7001,47.743874"/>
<path d="M278.92963,340.57007 L505.76825,50.21665"/>
<path d="M282.1397,342.86118 L508.76718,52.777996"/>
<path d="M285.39047,345.10022 L511.71838,55.400486"/>
<path d="M288.69476,347.27072 L514.6286,58.07538"/>
<path d="M292.06335,349.3589 L517.47424,60.83298"/>
<path d="M295.47372,351.39362 L520.26587,63.65969"/>
<path d="M298.93246,353.36646 L523.0152,66.54051"/>
<path d="M302.4633,355.24698 L525.70544,69.49703"/>
<path d="M306.03778,357.07162 L528.33307,72.53368"/>
<path d="M309.65677,358.83932 L530.91614,75.627335"/>
<path d="M313.35297,360.5082 L533.4476,78.78709"/>
<path d="M317.09872,362.11365 L535.9041,82.0427"/>
<path d="M320.89227,363.6579 L538.31287,85.35953"/>
<path d="M324.75262,365.1166 L540.6724,88.73926"/>
<path d="M328.67972,366.48996 L542.95624,92.216"/>
<path d="M332.65918,367.79626 L545.1794,95.77042"/>
<path d="M336.6928,369.0332 L547.34827,99.39422"/>
<path d="M340.81238,370.1602 L549.45825,103.09343"/>
<path d="M344.99295,371.209 L551.4807,106.90469"/>
<path d="M349.23456,372.17975 L553.44214,110.794075"/>
<path d="M353.53998,373.06882 L555.3397,114.76512"/>
<path d="M357.94003,373.83676 L557.1705,118.82176"/>
<path d="M362.41196,374.5127 L558.90295,123.00424"/>
<path d="M366.95786,375.09393 L560.5609,127.28202"/>
<path d="M371.582,375.575 L562.14075,131.65982"/>
<path d="M376.2924,375.94574 L563.6377,136.14377"/>
<path d="M381.11154,376.17722 L565.0463,140.74074"/>
<path d="M386.02426,376.28897 L566.3431,145.48088"/>
<path d="M391.03726,376.27228 L567.5358,150.35416"/>
<path d="M396.15833,376.11734 L568.621,155.36516"/>
<path d="M401.3962,375.81284 L569.5898,160.52505"/>
<path d="M406.76114,375.34576 L570.43225,165.84673"/>
<path d="M412.26483,374.701 L571.13666,171.34506"/>
<path d="M417.9211,373.861 L571.6896,177.03737"/>
<path d="M423.74606,372.80502 L572.075,182.94398"/>
<path d="M429.75882,371.5087 L572.2743,189.08893"/>
<path d="M435.98218,369.9428 L572.265,195.5008"/>
<path d="M442.4435,368.0723 L572.0204,202.21388"/>
<path d="M449.17612,365.85455 L571.508,209.26978"/>
<path d="M456.23633,363.2175 L570.6248,216.80025"/>
<path d="M463.7377,360.01575 L569.3538,224.82713"/>
<path d="M471.70602,356.2163 L567.5676,233.51347"/>
<path d="M480.43152,351.44766 L565.0962,243.07686"/>
<path d="M490.15952,345.3958 L561.58026,253.97726"/>
<path d="M501.63034,337.11316 L556.2702,267.1741"/>
<path d="M517.6864,322.96143 L546.4844,286.09998"/>
</g>
<g fill="none" id="2" stroke="#a32784" stroke-width="0.45mm">
<path d="M28.29035,100.027794 L62.72146,56.82013"/>
<path d="M19.50151,117.331436 L77.590645,44.43527"/>
<path d="M14.443544,129.9532 L88.77157,36.678818"/>
<path d="M11.01153,140.53455 L98.30259,30.992832"/>
<path d="M8.583895,149.8555 L106.86399,26.52362"/>
<path d="M6.7827916,158.39023 L114.800835,22.83817"/>
<path d="M5.508374,166.264 L122.176636,19.85677"/>
<path d="M4.606637,173.6701 L129.18436,17.33727"/>
<path d="M4.0324564,180.66515 L135.87633,15.214027"/>
<path d="M3.754005,187.2891 L142.2901,13.439873"/>
<path d="M3.705519,193.62445 L148.45152,11.9824095"/>
<path d="M3.8612103,199.70358 L154.41025,10.779297"/>
<path d="M4.1995406,205.55351 L160.18752,9.803902"/>
<path d="M4.702369,211.19702 L165.80122,9.033766"/>
<path d="M5.354301,216.65343 L171.26656,8.449805"/>
<path d="M6.142178,221.93922 L176.59656,8.035691"/>
<path d="M7.0546784,227.06863 L181.7918,7.7906904"/>
<path d="M8.08604,232.04889 L186.8658,7.6978173"/>
<path d="M9.239617,236.87578 L191.83203,7.740198"/>
<path d="M10.493444,241.57686 L196.69823,7.9081163"/>
<path d="M11.840695,246.16069 L201.47116,8.193058"/>
<path d="M13.275367,250.63483 L206.15681,8.587528"/>
<path d="M14.79215,255.00594 L210.7525,9.094897"/>
<path d="M16.400452,259.26218 L215.25117,9.724015"/>
<path d="M18.096416,263.40842 L219.67636,10.445355"/>
<path d="M19.862097,267.46716 L224.03185,11.254149"/>
<path d="M21.694084,271.44272 L228.32106,12.146126"/>
<path d="M23.59767,275.32843 L232.51811,13.1537485"/>
<path d="M25.5853,279.10864 L236.65213,14.240468"/>
<path d="M27.63092,282.8161 L240.72813,15.399983"/>
<path d="M29.7323,286.45358 L244.74371,16.635336"/>
<path d="M31.905851,290.0005 L248.67662,17.97443"/>
<path d="M34.146664,293.463 L252.55774,19.378529"/>
<path d="M36.43762,296.86258 L256.38867,20.845594"/>
<path d="M38.780815,300.19662 L260.14786,22.4027"/>
<path d="M41.202866,303.4317 L263.8479,24.034004"/>
<path d="M43.67092,306.60904 L267.50192,25.723085"/>
<path d="M46.183945,309.72995 L271.09805,27.48481"/>
<path d="M48.77057,312.7585 L274.6273,29.330444"/>
<path d="M51.40658,315.72507 L278.11346,31.23015"/>
<path d="M54.084953,318.6385 L281.55103,33.190887"/>
<path d="M56.828724,321.46985 L284.91675,35.241726"/>
<path d="M59.62637,324.23358 L288.24136,37.344185"/>
<path d="M62.46471,326.94626 L291.52338,39.500072"/>
<path d="M65.36309,329.58356 L294.7303,41.750248"/>
<path d="M68.31853,332.1493 L297.89713,44.050674"/>
<path d="M71.313835,334.66498 L301.02408,46.40114"/>
<path d="M74.36556,337.1099 L304.0758,48.846035"/>
<path d="M77.47722,339.47955 L307.08646,51.3425"/>
<path d="M80.62872,341.79926 L310.05722,53.888966"/>
<path d="M83.83374,344.0518 L312.95563,56.526287"/>
<path d="M87.10224,346.22464 L315.80936,59.219616"/>
<path d="M90.411354,348.34653 L318.62253,61.96389"/>
<path d="M93.770836,350.4052 L321.3663,64.79524"/>
<path d="M97.19902,352.37772 L324.0603,67.68904"/>
<path d="M100.669426,354.29718 L326.7121,70.63579"/>
<path d="M104.18579,356.159 L329.29874,73.66434"/>
<path d="M107.77886,357.92456 L331.82773,76.76519"/>
<path d="M111.416695,359.63394 L334.312,79.92218"/>
<path d="M115.10031,361.2859 L336.7376,83.15279"/>
<path d="M118.8595,362.843 L339.09375,86.4706"/>
<path d="M122.67369,364.33105 L341.4015,89.84911"/>
<path d="M126.53772,365.7566 L343.65942,93.290115"/>
<path d="M130.46597,367.10153 L345.83298,96.83703"/>
<path d="M134.46875,368.35294 L347.9519,100.452515"/>
<path d="M138.52686,369.5349 L350.0155,104.137405"/>
<path d="M142.64249,370.6447 L352.01147,107.90716"/>
<path d="M146.83954,371.65234 L353.9252,111.78014"/>
<path d="M151.1098,372.56808 L355.7762,115.7318"/>
<path d="M155.44574,373.40143 L357.56155,119.76588"/>
<path d="M159.85068,374.14816 L359.27167,123.894394"/>
<path d="M164.34138,374.7873 L360.8862,128.14282"/>
<path d="M168.92404,375.311 L362.4241,132.4874"/>
<path d="M173.58786,375.73288 L363.88077,136.93393"/>
<path d="M178.338,376.04645 L365.25098,141.48895"/>
<path d="M183.18033,376.2443 L366.5288,146.15991"/>
<path d="M188.12152,376.31808 L367.68646,150.98167"/>
<path d="M193.1849,376.23856 L368.73904,155.93532"/>
<path d="M198.3644,376.0133 L369.67816,161.03133"/>
<path d="M203.66653,375.63416 L370.49417,166.28183"/>
<path d="M209.10233,375.08728 L371.17593,171.70078"/>
<path d="M214.68457,374.35663 L371.71057,177.30438"/>
<path d="M220.4282,373.42343 L372.08292,183.11163"/>
<path d="M226.35085,372.26563 L372.27515,189.14491"/>
<path d="M232.47333,370.857 L372.2661,195.43077"/>
<path d="M238.8206,369.1663 L372.03046,202.001"/>
<path d="M245.44044,367.13358 L371.53757,208.89404"/>
<path d="M252.39252,364.6839 L370.70905,216.20824"/>
<path d="M259.70645,361.78012 L369.49765,224.00296"/>
<path d="M267.49564,358.28 L367.8473,232.34851"/>
<path d="M275.91675,353.98685 L365.5134,241.5518"/>
<path d="M285.24216,348.55887 L362.30975,251.84657"/>
<path d="M295.95645,341.38797 L357.69485,263.91235"/>
<path d="M309.676,330.44583 L350.0769,279.74664"/>
</g>
<g fill="none" id="3" stroke="red" stroke-width="0.45mm">
<path d="M228.29034,100.027794 L262.72147,56.82013"/>
<path d="M219.50151,117.331436 L277.59064,44.43527"/>
<path d="M214.44354,129.9532 L288.77158,36.678818"/>
<path d="M211.01154,140.53455 L298.30258,30.992832"/>
<path d="M208.5839,149.8555 L306.86398,26.52362"/>
<path d="M206.78279,158.39023 L314.80084,22.83817"/>
<path d="M205.50838,166.264 L322.17664,19.85677"/>
<path d="M204.60664,173.6701 L329.18436,17.33727"/>
<path d="M204.03246,180.66515 L335.8763,15.214027"/>
<path d="M203.754,187.2891 L342.2901,13.439873"/>
<path d="M203.70552,193.62445 L348.4515,11.9824095"/>
<path d="M203.8612,199.70358 L354.41025,10.779297"/>
<path d="M204.19954,205.55351 L360.18753,9.803902"/>
<path d="M204.70236,211.19702 L365.8012,9.033766"/>
<path d="M205.3543,216.65343 L371.26657,8.449805"/>
<path d="M206.14218,221.93922 L376.59656,8.035691"/>
<path d="M207.05467,227.06863 L381.79178,7.7906904"/>
<path d="M208.08604,232.04889 L386.8658,7.6978173"/>
<path d="M209.23962,236.87578 L391.83203,7.740198"/>
<path d="M210.49344,241.57686 L396.6982,7.9081163"/>
<path d="M211.8407,246.16069 L401.47116,8.193058"/>
<path d="M213.27536,250.63483 L406.1568,8.587528"/>
<path d="M214.79214,255.00594 L410.7525,9.094897"/>
<path d="M216.40045,259.26218 L415.2512,9.724015"/>
<path d="M218.09642,263.40842 L419.67636,10.445355"/>
<path d="M219.86209,267.46716 L424.03186,11.254149"/>
<path d="M221.69409,271.44272 L428.32104,12.146126"/>
<path d="M223.59767,275.32843 L432.5181,13.1537485"/>
<path d="M225.5853,279.10864 L436.65213,14.240468"/>
<path d="M227.63092,282.8161 L440.72815,15.399983"/>
<path d="M229.7323,286.45358 L444.7437,16.635336"/>
<path d="M231.90585,290.0005 L448.67664,17.97443"/>
<path d="M234.14667,293.463 L452.55774,19.378529"/>
<path d="M236.43762,296.86258 L456.38867,20.845594"/>
<path d="M238.78082,300.19662 L460.14786,22.4027"/>
<path d="M241.20287,303.4317 L463.8479,24.034004"/>
<path d="M243.67093,306.60904 L467.50192,25.723085"/>
<path d="M246.18394,309.72995 L471.09805,27.48481"/>
<path d="M248.77057,312.7585 L474.6273,29.330444"/>
<path d="M251.40659,315.72507 L478.11346,31.23015"/>
<path d="M254.08496,318.6385 L481.55103,33.190887"/>
<path d="M256.82874,321.46985 L484.91675,35.241726"/>
<path d="M259.62637,324.23358 L488.24136,37.344185"/>
<path d="M262.46472,326.94626 L491.52338,39.500072"/>
<path d="M265.3631,329.58356 L494.7303,41.750248"/>
<path d="M268.31854,332.1493 L497.89713,44.050674"/>
<path d="M271.31384,334.66498 L501.02408,46.40114"/>
<path d="M274.36557,337.1099 L504.0758,48.846035"/>
<path d="M277.47723,339.47955 L507.08646,51.3425"/>
<path d="M280.62872,341.79926 L510.05722,53.888966"/>
<path d="M283.83374,344.0518 L512.9556,56.526287"/>
<path d="M287.10223,346.22464 L515.8094,59.219616"/>
<path d="M290.41135,348.34653 L518.6225,61.96389"/>
<path d="M293.77084,350.4052 L521.3663,64.79524"/>
<path d="M297.199,352.37772 L524.0603,67.68904"/>
<path d="M300.66943,354.29718 L526.7121,70.63579"/>
<path d="M304.1858,356.159 L529.2987,73.66434"/>
<path d="M307.77887,357.92456 L531.82776,76.76519"/>
<path d="M311.4167,359.63394 L534.312,79.92218"/>
<path d="M315.1003,361.2859 L536.7376,83.15279"/>
<path d="M318.8595,362.843 L539.09375,86.4706"/>
<path d="M322.6737,364.33105 L541.4015,89.84911"/>
<path d="M326.53772,365.7566 L543.6594,93.290115"/>
<path d="M330.46597,367.10153 L545.833,96.83703"/>
<path d="M334.46875,368.35294 L547.9519,100.452515"/>
<path d="M338.52686,369.5349 L550.0155,104.137405"/>
<path d="M342.6425,370.6447 L552.0115,107.90716"/>
<path d="M346.83954,371.65234 L553.9252,111.78014"/>
<path d="M351.1098,372.56808 L555.77625,115.7318"/>
<path d="M355.44574,373.40143 L557.5616,119.76588"/>
<path d="M359.85068,374.14816 L559.27167,123.894394"/>
<path d="M364.3414,374.7873 L560.88617,128.14282"/>
<path d="M368.92404,375.311 L562.42413,132.4874"/>
<path d="M373.58786,375.73288 L563.8808,136.93393"/>
<path d="M378.338,376.04645 L565.251,141.48895"/>
<path d="M383.18033,376.2443 L566.5288,146.15991"/>
<path d="M388.12152,376.31808 L567.68646,150.98167"/>
<path d="M393.1849,376.23856 L568.7391,155.93532"/>
<path d="M398.36438,376.0133 L569.67816,161.03133"/>
<path d="M403.66653,375.63416 L570.49414,166.28183"/>
<path d="M409.10233,375.08728 L571.17596,171.70078"/>
<path d="M414.68457,374.35663 L571.7106,177.30438"/>
<path d="M420.42822,373.42343 L572.08295,183.11163"/>
<path d="M426.35083,372.26563 L572.27515,189.14491"/>
<path d="M432.47333,370.857 L572.2661,195.43077"/>
<path d="M438.8206,369.1663 L572.03046,202.001"/>
<path d="M445.44043,367.13358 L571.53754,208.89404"/>
<path d="M452.39252,364.6839 L570.70905,216.20824"/>
<path d="M459.70645,361.78012 L569.4976,224.00296"/>
<path d="M467.49564,358.28 L567.8473,232.34851"/>
<path d="M475.91675,353.98685 L565.5134,241.5518"/>
<path d="M485.24216,348.55887 L562.30975,251.84657"/>
<path d="M495.95645,341.38797 L557.6948,263.91235"/>
<path d="M509.676,330.44583 L550.0769,279.74664"/>
</g>
</svg>