<svg height="576px" viewBox="0 0 384 576" width="384px" xmlns="http://www.w3.org/2000/svg" xmlns:inkscape="http://www.inkscape.org/namespaces/inkscape">
<g fill="none" id="1" stroke="black" stroke-width="3px">
<path d="M184.63239,284.8826 L184.66684,284.80237 L184.70218,284.72253 L184.73839,284.64307 L184.77545,284.56403 L184.81339,284.48538 L184.85217,284.40717 L184.89182,284.32935 L184.9323,284.25198 L184.97362,284.17508 L185.0158,284.09863 L185.05878,284.0226 L185.1026,283.9471 L185.14725,283.87207 L185.19272,283.79752 L185.23898,283.72348 L185.28606,283.64993 L185.33394,283.57693 L185.38261,283.50443 L185.43207,283.43246 L185.48232,283.36105 L185.53333,283.2902 L185.58511,283.2199 L185.63766,283.15018 L185.69098,283.08102 L185.74504,283.01245 L185.79985,282.9445 L185.8554,282.87714 L185.91167,282.81036 L185.96867,282.74423 L186.0264,282.6787 L186.08482,282.61383 L186.14397,282.5496 L186.2038,282.48602 L186.26433,282.42307 L186.32553,282.3608 L186.38742,282.29922 L186.44997,282.2383 L186.51318,282.17807 L186.57706,282.11853 L186.64157,282.0597 L186.70673,282.00156 L186.7725,281.94415 L186.83891,281.88745 L186.90593,281.83148 L186.97356,281.77628 L187.04178,281.72177 L187.1106,281.66803 L187.18,281.61505 L187.24997,281.56284"/>
<path d="M182.64102,275.02274 L182.24988,275.314 L181.86778,275.617 L181.4951,275.93155 L181.13219,276.25732 L180.77937,276.59396 L180.43697,276.94122 L180.10532,277.29877 L179.78471,277.66623 L179.47545,278.0433 L179.17783,278.42963 L178.89212,278.82486 L178.61858,279.22858 L178.35748,279.64047 L178.10905,280.06012 L177.87354,280.48715 L177.65112,280.92117 L177.44206,281.36176 L177.24652,281.8085 L177.06468,282.26102 L176.89671,282.71884 L176.74278,283.18158 L176.60301,283.6488 L176.47757,284.12006 L176.36653,284.5949 L176.27002,285.07294 L176.18813,285.5537 L176.12091,286.0367 L176.06845,286.52158 L176.03079,287.00778 L176.00798,287.4949 L176.00002,287.9825 L176.00691,288.47015 L176.02867,288.95734 L176.06526,289.44363 L176.11665,289.9286 L176.18282,290.41174 L176.26366,290.89267 L176.35913,291.3709 L176.46913,291.84604 L176.59355,292.31757 L176.73228,292.7851 L176.88521,293.24817 L177.05217,293.70636 L177.23303,294.15927 L177.4276,294.60645 L177.6357,295.0475 L177.85715,295.48196 L178.09174,295.90952 L178.33925,296.3297"/>
<path d="M187.24997,281.56284 L182.64102,275.02274"/>
<path d="M171.89919,301.11325 L171.83336,301.01178 L171.76805,300.91 L171.70326,300.8079 L171.63898,300.70547 L171.57521,300.60272 L171.51198,300.49963 L171.44925,300.39624 L171.38705,300.29254 L171.32536,300.1885 L171.26422,300.08417 L171.20358,299.97955 L171.1435,299.8746 L171.08392,299.76935 L171.02489,299.66382 L170.96638,299.55798 L170.9084,299.45184 L170.85097,299.34543 L170.79407,299.2387 L170.73772,299.1317 L170.68188,299.02444 L170.62662,298.91687 L170.57187,298.80905 L170.51768,298.70093 L170.46404,298.59256 L170.41093,298.4839 L170.35838,298.37497 L170.30638,298.2658 L170.25493,298.15637 L170.20403,298.04666 L170.15367,297.9367 L170.10388,297.8265 L170.05464,297.71603 L170.00597,297.60535 L169.95786,297.4944 L169.9103,297.3832 L169.86328,297.2718 L169.81685,297.16013 L169.77098,297.04822 L169.72566,296.9361 L169.68092,296.82376 L169.63675,296.71118 L169.59314,296.5984 L169.5501,296.48538 L169.50761,296.37213 L169.46571,296.2587 L169.4244,296.14505 L169.38364,296.0312 L169.34346,295.91714 L169.30385,295.80286"/>
<path d="M178.33925,296.3297 L171.89919,301.11325"/>
<path d="M161.68643,298.25122 L161.04924,296.12717 L160.5607,293.96408 L160.22313,291.77237 L160.03818,289.56253 L160.0067,287.34518 L160.12888,285.13098 L160.4041,282.93057 L160.83107,280.7545 L161.40771,278.6132 L162.13127,276.517 L162.99828,274.47595 L164.00455,272.49985 L165.14528,270.59818 L166.41496,268.78006 L167.80751,267.05426 L169.31625,265.42905 L170.93393,263.91223 L172.65276,262.5111 L174.46451,261.23236 L176.36047,260.08218 L178.33154,259.06607 L180.36824,258.1889 L182.46082,257.4549 L184.59918,256.86758 L186.7731,256.42978 L188.97212,256.1436 L191.18568,256.01038 L193.40317,256.0308 L195.61389,256.2047 L197.80727,256.53134 L199.97276,257.00912 L202.09996,257.6357 L204.17867,258.4081 L206.19887,259.32263 L208.1509,260.37485 L210.02536,261.55975 L211.81326,262.87164 L213.50601,264.3042 L215.09547,265.85052 L216.57404,267.50323 L217.93457,269.2544 L219.17058,271.09555 L220.2761,273.0179 L221.24582,275.0122 L222.07509,277.06888 L222.75993,279.17807 L223.29706,281.3296 L223.68388,283.51315 L223.91855,285.71826"/>
<path d="M169.30385,295.80286 L161.68643,298.25122"/>
</g>
</svg>