<svg height="576px" viewBox="0 0 384 576" width="384px" xmlns="http://www.w3.org/2000/svg" xmlns:inkscape="http://www.inkscape.org/namespaces/inkscape">
<g fill="none" id="1" stroke="black" stroke-width="1.5px">
<path d="M276.23935,427.3787 L275.68622,428.09177 L272.7781,431.39038 L269.6686,434.49988 L266.37,437.40802 L262.89526,440.10327 L259.25818,442.57504 L255.47307,444.81357 L251.55486,446.80997 L247.51903,448.55643 L243.3815,450.04605 L239.1586,451.27292 L234.867,452.2322 L230.52364,452.9201 L226.14565,453.33395 L221.7503,453.47208 L217.35497,453.33395 L212.97697,452.9201 L208.6336,452.2322 L204.34201,451.27292 L200.11911,450.04605 L195.98158,448.55643 L191.94576,446.80997 L188.02754,444.81357 L184.24243,442.57504 L180.60533,440.10327 L177.13063,437.40802 L173.832,434.49988 L170.7225,431.39038 L167.81438,428.09177 L165.11911,424.61707 L162.64735,420.97995 L160.40884,417.19485 L158.41241,413.27664 L156.66595,409.2408 L155.17635,405.10327 L153.94948,400.88037 L152.9902,396.58878 L152.30228,392.24542 L151.88843,387.86743 L151.7503,383.47208 L151.88843,379.07675 L152.30228,374.69876 L152.9902,370.3554 L153.94948,366.06378 L155.17635,361.8409 L156.66595,357.70337 L158.41241,353.66754 L160.40884,349.74933 L162.64735,345.9642 L165.11911,342.32712 L167.81438,338.85242 L170.7225,335.5538 L173.832,332.44427 L177.13063,329.53616 L180.60533,326.8409 L184.24243,324.36914 L188.02754,322.1306 L191.94576,320.1342 L195.98158,318.38773 L200.11911,316.89813 L204.34201,315.67126 L208.22163,314.80408"/>
<path d="M201.83029,450.54318 L199.74321,451.44635 L195.60568,452.93594 L191.38278,454.1628 L187.09119,455.1221 L182.74782,455.81003 L178.36983,456.22385 L173.9745,456.362 L169.57916,456.22385 L165.20117,455.81003 L160.8578,455.1221 L156.56621,454.1628 L152.3433,452.93594 L148.20578,451.44635 L144.16995,449.6999 L140.25174,447.70346 L136.46661,445.46494 L132.82953,442.9932 L129.35481,440.2979 L126.0562,437.3898 L122.94669,434.28027 L120.03857,430.98166 L117.34331,427.50696 L114.871544,423.86987 L112.633026,420.08475 L110.636604,416.16653 L108.890144,412.1307 L107.40054,407.9932 L106.173676,403.7703 L105.214386,399.47867 L104.52647,395.1353 L104.112625,390.75732 L103.974495,386.362 L104.112625,381.96664 L104.52647,377.58865 L105.214386,373.2453 L106.173676,368.9537 L107.40054,364.7308 L108.890144,360.59326 L110.636604,356.55743 L112.633026,352.63922 L114.871544,348.85413 L117.34331,345.217 L120.03857,341.7423 L122.94669,338.4437 L126.0562,335.3342 L129.35481,332.42606 L132.82953,329.7308 L136.46661,327.25903 L140.25174,325.02054 L144.16995,323.0241 L148.20578,321.27765 L152.3433,319.78802 L156.56621,318.56116 L160.8578,317.6019 L165.20117,316.91397 L169.57916,316.50012 L173.9745,316.362 L178.36983,316.50012 L182.74782,316.91397 L187.09119,317.6019 L191.38278,318.56116 L193.89452,319.2909"/>
<path d="M125.17499,436.50858 L121.55479,436.16638 L117.21142,435.47845 L112.91982,434.51917 L108.69692,433.2923 L104.559395,431.8027 L100.52356,430.05624 L96.605354,428.0598 L92.82024,425.8213 L89.18314,423.34955 L85.708435,420.65427 L82.40981,417.74615 L79.30031,414.63666 L76.39219,411.338 L73.69692,407.8633 L71.22516,404.22623 L68.98665,400.4411 L66.99022,396.5229 L65.24376,392.48706 L63.754158,388.34955 L62.52729,384.12665 L61.568005,379.83505 L60.880085,375.49167 L60.46624,371.11368 L60.328114,366.71835 L60.46624,362.323 L60.880085,357.945 L61.568005,353.60165 L62.52729,349.31006 L63.754158,345.08716 L65.24376,340.94962 L66.99022,336.9138 L68.98665,332.9956 L71.22516,329.21048 L73.69692,325.5734 L76.39219,322.09866 L79.30031,318.80005 L82.40981,315.69055 L85.708435,312.7824 L89.18314,310.08716 L92.82024,307.6154 L96.605354,305.3769 L100.52356,303.38046 L104.559395,301.634 L108.69692,300.14438 L112.91982,298.91754 L117.21142,297.95825 L121.55479,297.27032 L125.93278,296.85648 L130.32811,296.71835 L134.72345,296.85648 L139.10144,297.27032 L143.44481,297.95825 L147.7364,298.91754 L151.9593,300.14438 L156.09683,301.634 L160.13266,303.38046 L164.05087,305.3769 L167.83598,307.6154 L171.47308,310.08716 L174.94778,312.7824 L178.24641,315.69055 L179.12762,316.57175"/>
<path d="M63.782524,388.42834 L63.30214,388.14423 L59.665047,385.6725 L56.190334,382.9772 L52.89172,380.0691 L49.78221,376.95956 L46.87409,373.66095 L44.178825,370.18625 L41.70706,366.54916 L39.468548,362.76404 L37.472122,358.84583 L35.725662,354.81 L34.23606,350.6725 L33.009193,346.4496 L32.049908,342.15796 L31.361986,337.8146 L30.948145,333.4366 L30.810015,329.0413 L30.948145,324.64594 L31.361986,320.26794 L32.049908,315.9246 L33.009193,311.633 L34.23606,307.4101 L35.725662,303.27255 L37.472122,299.23672 L39.468548,295.3185 L41.70706,291.53342 L44.178825,287.8963 L46.87409,284.4216 L49.78221,281.123 L52.89172,278.0135 L56.190334,275.10535 L59.665047,272.4101 L63.30214,269.93832 L67.08726,267.6998 L71.00546,265.7034 L75.0413,263.95694 L79.178825,262.46732 L83.401726,261.24045 L87.69332,260.28116 L92.03669,259.59326 L96.41468,259.1794 L100.81001,259.0413 L105.20535,259.1794 L109.58334,259.59326 L113.926704,260.28116 L118.21831,261.24045 L122.44121,262.46732 L126.578735,263.95694 L130.61456,265.7034 L134.53278,267.6998 L138.31789,269.93832 L141.95499,272.4101 L145.42969,275.10535 L148.72832,278.0135 L151.83781,281.123 L154.74594,284.4216 L157.44121,287.8963 L159.91296,291.53342 L162.15149,295.3185 L164.1479,299.23672 L165.89436,303.27255 L167.3556,307.3313"/>
<path d="M31.824476,317.3479 L30.840977,315.6849 L28.844551,311.7667 L27.098091,307.73087 L25.608488,303.59335 L24.381624,299.37045 L23.422337,295.07886 L22.734415,290.73547 L22.320574,286.35748 L22.182446,281.96216 L22.320574,277.5668 L22.734415,273.1888 L23.422337,268.84546 L24.381624,264.55386 L25.608488,260.33096 L27.098091,256.19342 L28.844551,252.1576 L30.840977,248.2394 L33.07949,244.45427 L35.551254,240.81718 L38.246517,237.34247 L41.15464,234.04385 L44.26415,230.93434 L47.562767,228.02623 L51.037476,225.33096 L54.67457,222.85919 L58.459686,220.62068 L62.377895,218.62425 L66.41373,216.87779 L70.551254,215.3882 L74.774155,214.16133 L79.06575,213.20204 L83.40912,212.51411 L87.78711,212.10028 L92.18244,211.96214 L96.57778,212.10028 L100.95577,212.51411 L105.29913,213.20204 L109.59074,214.16133 L113.81364,215.3882 L117.951164,216.87779 L121.98699,218.62425 L125.905205,220.62068 L129.69032,222.85919 L133.32741,225.33096 L136.80212,228.02623 L140.10074,230.93434 L143.21025,234.04385 L146.11838,237.34247 L148.81363,240.81718 L151.2854,244.45427 L153.52391,248.2394 L155.52034,252.1576 L157.2668,256.19342 L158.7564,260.33096 L159.98326,264.55386 L160.94255,268.84546 L161.63048,273.1888 L162.04431,277.5668 L162.18245,281.96216"/>
<path d="M161.16798,293.65552 L161.63048,290.73547 L162.04431,286.35748 L162.18245,281.96216"/>
<path d="M176.42188,236.26622 L176.28374,231.87088 L175.8699,227.49289 L175.18198,223.14952 L174.22269,218.85793 L172.99583,214.63503 L171.50623,210.4975 L169.75977,206.46167 L167.76334,202.54346 L165.52483,198.75835 L163.05305,195.12125 L160.3578,191.64655 L157.44968,188.34792 L154.34016,185.23842 L151.04155,182.33029 L147.56683,179.63503 L143.92975,177.16327 L140.14462,174.92474 L136.22643,172.92833 L132.1906,171.18187 L128.05305,169.69226 L123.83016,168.4654 L119.53857,167.5061 L115.1952,166.81819 L110.81721,166.40434 L106.421875,166.26622 L102.026535,166.40434 L97.648544,166.81819 L93.30518,167.5061 L89.01358,168.4654 L84.79068,169.69226 L80.65315,171.18187 L76.617325,172.92833 L72.69911,174.92474 L68.913994,177.16327 L65.27691,179.63503 L61.802193,182.33029 L58.503574,185.23842 L55.39407,188.34792 L52.485947,191.64655 L49.790684,195.12125 L47.318916,198.75835 L45.080406,202.54346 L43.08398,206.46167 L41.33752,210.4975 L39.847916,214.63503 L38.62105,218.85793 L37.661766,223.14952 L36.973843,227.49289 L36.56,231.87088 L36.42187,236.26622 L36.525425,239.5613"/>
<path d="M162.07889,278.66708 L163.05305,277.4112 L165.52483,273.7741 L167.76334,269.98898 L169.75977,266.07077 L171.50623,262.03494 L172.99583,257.8974 L174.22269,253.67451 L175.18198,249.3829 L175.8699,245.03955 L176.28374,240.66156 L176.42188,236.26622"/>
<path d="M76.83439,172.8344 L76.92832,172.61732 L78.92475,168.69911 L81.16326,164.914 L83.63503,161.2769 L86.33029,157.8022 L89.23841,154.50357 L92.34792,151.39407 L95.64654,148.48595 L99.121254,145.79068 L102.75835,143.31892 L106.543465,141.0804 L110.46167,139.08398 L114.4975,137.33752 L118.63503,135.84792 L122.857925,134.62105 L127.14953,133.66176 L131.49289,132.97385 L135.87088,132.56 L140.26622,132.42188 L144.66156,132.56 L149.03955,132.97385 L153.3829,133.66176 L157.67451,134.62105 L161.89742,135.84792 L166.03494,137.33752 L170.07077,139.08398 L173.98898,141.0804 L177.7741,143.31892 L181.4112,145.79068 L184.8859,148.48595 L188.18451,151.39407 L191.29402,154.50357 L194.20215,157.8022 L196.89742,161.2769 L199.36917,164.914 L201.60768,168.69911 L203.60411,172.61732 L205.35057,176.65315 L206.84018,180.79068 L208.06705,185.01358 L209.02632,189.30518 L209.71425,193.64854 L210.12808,198.02654 L210.26622,202.42188"/>
<path d="M169.8537,265.8537 L170.07077,265.75977 L173.98898,263.76334 L177.7741,261.52484 L181.4112,259.05307 L184.8859,256.3578 L188.18451,253.44968 L191.29402,250.34016 L194.20215,247.04155 L196.89742,243.56683 L199.36917,239.92975 L201.60768,236.14462 L203.60411,232.22643 L205.35057,228.1906 L206.84018,224.05305 L208.06705,219.83017 L209.02632,215.53856 L209.71425,211.1952 L210.12808,206.81721 L210.26622,202.42188"/>
<path d="M143.5613,132.52542 L144.81718,131.55125 L148.45427,129.07948 L152.2394,126.84098 L156.1576,124.84455 L160.19344,123.09809 L164.33096,121.60849 L168.55386,120.38162 L172.84546,119.42234 L177.18883,118.73441 L181.56682,118.32057 L185.96214,118.18244 L190.35748,118.32057 L194.73547,118.73441 L199.07884,119.42234 L203.37044,120.38162 L207.59334,121.60849 L211.73087,123.09809 L215.7667,124.84455 L219.6849,126.84098 L223.47003,129.07948 L227.10712,131.55125 L230.58183,134.24652 L233.88045,137.15465 L236.98996,140.26414 L239.89807,143.56276 L242.59334,147.03748 L245.06511,150.67458 L247.30362,154.45969 L249.30005,158.3779 L251.04651,162.41373 L252.5361,166.55125 L253.76297,170.77415 L254.72226,175.06575 L255.41019,179.40912 L255.82402,183.78711 L255.96214,188.18245"/>
<path d="M182.66708,258.0789 L185.96214,258.18243 L190.35748,258.0443 L194.73547,257.63046 L199.07884,256.94257 L203.37044,255.98326 L207.59334,254.7564 L211.73087,253.2668 L215.7667,251.52034 L219.6849,249.52391 L223.47003,247.2854 L227.10712,244.81363 L230.58183,242.11838 L233.88045,239.21025 L236.98996,236.10074 L239.89807,232.80212 L242.59334,229.32741 L245.06511,225.69032 L247.30362,221.9052 L249.30005,217.987 L251.04651,213.95116 L252.5361,209.81363 L253.76297,205.59074 L254.72226,201.29913 L255.41019,196.95576 L255.82402,192.57777 L255.96214,188.18245"/>
<path d="M197.65552,257.168 L199.31853,258.1515 L203.23672,260.14792 L207.27257,261.89438 L211.4101,263.38397 L215.633,264.61084 L219.92459,265.57013 L224.26796,266.25806 L228.64595,266.67188 L233.04128,266.81003 L237.43661,266.67188 L241.8146,266.25806 L246.15797,265.57013 L250.44957,264.61084 L254.67247,263.38397 L258.81,261.89438 L262.84583,260.14792 L266.76404,258.1515 L270.54916,255.91296 L274.18625,253.44121 L277.66095,250.74594 L280.95956,247.83781 L284.0691,244.72832 L286.9772,241.42969 L289.6725,237.95499 L292.14423,234.31789 L294.38275,230.53278 L296.37918,226.61456 L298.12564,222.57874 L299.61523,218.44121 L300.8421,214.2183 L301.8014,209.92671 L302.48932,205.58334 L302.90314,201.20535 L303.0413,196.81001"/>
<path d="M221.34792,127.82448 L224.26796,127.361984 L228.64595,126.94814 L233.04128,126.81001 L237.43661,126.94814 L241.8146,127.361984 L246.15797,128.04991 L250.44957,129.0092 L254.67247,130.23605 L258.81,131.72566 L262.84583,133.47212 L266.76404,135.46855 L270.54916,137.70706 L274.18625,140.17883 L277.66095,142.87408 L280.95956,145.78221 L284.0691,148.89172 L286.9772,152.19034 L289.6725,155.66505 L292.14423,159.30214 L294.38275,163.08727 L296.37918,167.00546 L298.12564,171.04129 L299.61523,175.17883 L300.8421,179.40172 L301.8014,183.69333 L302.48932,188.03668 L302.90314,192.41467 L303.0413,196.81001"/>
<path d="M211.3313,263.3556 L211.61539,263.836 L214.08716,267.47308 L216.78242,270.94778 L219.69055,274.2464 L222.80005,277.35593 L226.09866,280.26404 L229.57338,282.9593 L233.21048,285.43106 L236.99559,287.6696 L240.9138,289.66602 L244.94963,291.41248 L249.08716,292.90207 L253.31006,294.12894 L257.60165,295.08823 L261.945,295.77615 L266.323,296.18997 L270.71835,296.32813 L275.11368,296.18997 L279.49167,295.77615 L283.83505,295.08823 L288.12665,294.12894 L292.34955,292.90207 L296.48706,291.41248 L300.5229,289.66602 L304.4411,287.6696 L308.22623,285.43106 L311.8633,282.9593 L315.338,280.26404 L318.63666,277.35593 L321.74615,274.2464 L324.65427,270.94778 L327.34955,267.47308 L329.8213,263.836 L332.0598,260.05087 L334.05624,256.13266 L335.8027,252.09683 L337.2923,247.9593 L338.51917,243.7364 L339.47845,239.44481 L340.16638,235.10144 L340.58023,230.72345 L340.71835,226.32811"/>
<path d="M292.42834,159.78253 L296.48706,161.24376 L300.5229,162.99022 L304.4411,164.98665 L308.22623,167.22516 L311.8633,169.69693 L315.338,172.39218 L318.63666,175.30031 L321.74615,178.40982 L324.65427,181.70844 L327.34955,185.18315 L329.8213,188.82024 L332.0598,192.60536 L334.05624,196.52356 L335.8027,200.55939 L337.2923,204.69693 L338.51917,208.91982 L339.47845,213.21143 L340.16638,217.55478 L340.58023,221.93277 L340.71835,226.32811"/>
<path d="M220.57175,275.12762 L220.91396,278.74783 L221.60188,283.0912 L222.56117,287.38278 L223.78804,291.60568 L225.27763,295.74323 L227.0241,299.77905 L229.02052,303.69727 L231.25903,307.48236 L233.7308,311.11948 L236.42607,314.59418 L239.33418,317.8928 L242.4437,321.0023 L245.74231,323.91043 L249.21703,326.60568 L252.85411,329.07745 L256.63922,331.31598 L260.55743,333.31238 L264.59326,335.05884 L268.7308,336.54846 L272.9537,337.77533 L277.2453,338.7346 L281.58865,339.42252 L285.96664,339.83636 L290.362,339.9745 L294.75732,339.83636 L299.1353,339.42252 L303.47867,338.7346 L307.7703,337.77533 L311.9932,336.54846 L316.1307,335.05884 L320.16653,333.31238 L324.08475,331.31598 L327.86987,329.07745 L331.50696,326.60568 L334.98166,323.91043 L338.28027,321.0023 L341.3898,317.8928 L344.2979,314.59418 L346.9932,311.11948 L349.46494,307.48236 L351.70346,303.69727 L353.6999,299.77905 L355.44635,295.74323 L356.93594,291.60568 L358.1628,287.38278 L359.1221,283.0912 L359.81003,278.74783 L360.22385,274.36984 L360.362,269.9745"/>
<path d="M340.50858,221.17499 L341.3898,222.0562 L344.2979,225.35481 L346.9932,228.82953 L349.46494,232.46661 L351.70346,236.25174 L353.6999,240.16995 L355.44635,244.20578 L356.93594,248.3433 L358.1628,252.56621 L359.1221,256.85782 L359.81003,261.20117 L360.22385,265.57916 L360.362,269.9745"/>
<path d="M357.47208,317.7503 L357.33395,322.14563 L356.9201,326.52362 L356.2322,330.867 L355.27292,335.1586 L354.04605,339.3815 L352.55643,343.519 L350.80997,347.55487 L348.81357,351.47305 L346.57504,355.25818 L344.10327,358.89526 L341.40802,362.37 L338.49988,365.6686 L335.39038,368.7781 L332.09177,371.68622 L328.61707,374.3815 L324.97995,376.85327 L321.19485,379.09177 L317.27664,381.0882 L313.2408,382.83466 L309.10327,384.32425 L304.88037,385.55112 L300.58878,386.5104 L296.24542,387.19833 L291.86743,387.61218 L287.47208,387.7503 L283.07675,387.61218 L278.69876,387.19833 L274.3554,386.5104 L270.06378,385.55112 L265.8409,384.32425 L261.70337,382.83466 L257.66754,381.0882 L253.74933,379.09177 L249.96422,376.85327 L246.32712,374.3815 L242.8524,371.68622 L239.55379,368.7781 L236.44429,365.6686 L233.53616,362.37 L230.8409,358.89526 L228.36913,355.25818 L226.13062,351.47305 L224.13419,347.55487 L222.38773,343.519 L220.89813,339.3815 L219.67126,335.1586 L218.71198,330.867 L218.02406,326.52362 L217.61021,322.14563 L217.47209,317.7503 L217.61021,313.35498 L218.02406,308.977 L218.71198,304.6336 L219.67126,300.342 L220.89813,296.1191 L222.38773,291.9816 L223.2909,289.8945"/>
<path d="M354.54318,297.8303 L355.27292,300.342 L356.2322,304.6336 L356.9201,308.977 L357.33395,313.35498 L357.47208,317.7503"/>
<path d="M331.3787,372.23935 L330.5115,376.11896 L329.28464,380.34186 L327.79504,384.4794 L326.04858,388.51523 L324.05215,392.43344 L321.81363,396.21857 L319.34186,399.85565 L316.6466,403.33035 L313.7385,406.62897 L310.62897,409.7385 L307.33035,412.6466 L303.85565,415.34186 L300.21857,417.81363 L296.43344,420.05215 L292.51523,422.04858 L288.4794,423.79504 L284.34186,425.28464 L280.11896,426.5115 L275.82736,427.4708 L271.484,428.15872 L267.10602,428.57254 L262.7107,428.7107 L258.31534,428.57254 L253.93735,428.15872 L249.59398,427.4708 L245.30238,426.5115 L241.07948,425.28464 L236.94196,423.79504 L232.90613,422.04858 L228.98792,420.05215 L225.2028,417.81363 L221.5657,415.34186 L218.091,412.6466 L214.79237,409.7385 L211.68288,406.62897 L208.77475,403.33035 L206.07948,399.85565 L203.60773,396.21857 L201.36922,392.43344 L199.37279,388.51523 L197.62633,384.4794 L196.13672,380.34186 L194.90985,376.11896 L193.95058,371.82736 L193.26265,367.484 L192.8488,363.10602 L192.71068,358.7107 L192.8488,354.31534 L193.26265,349.93735 L193.95058,345.594 L194.90985,341.3024 L196.13672,337.0795 L197.62633,332.94196 L199.37279,328.90613 L201.36922,324.9879 L203.60773,321.2028 L206.07948,317.5657 L208.77475,314.091 L211.68288,310.7924 L214.79237,307.68286 L218.091,304.77475 L218.80406,304.22165"/>
</g>
</svg>