<svg height="1123.1999999999998px" viewBox="0 0 796.8000000000001 1123.1999999999998" width="796.8000000000001px" xmlns="http://www.w3.org/2000/svg" xmlns:inkscape="http://www.inkscape.org/namespaces/inkscape">
<g fill="none" id="layer1" inkscape:groupmode="layer" inkscape:label="1" stroke="black" stroke-width="0.5mm">
<path d="M-0.000000000000049566644,17.362202 L-0.000000000000038551834,22.322832 L-0.000000000000028913876,27.28346 L-0.000000000000020652767,32.24409 L-0.000000000000013768512,37.20472 L-0.000000000000008261107,42.165348 L-0.0000000000000041305536,47.125977 L-0.0000000000000013768512,52.086605 L0,57.047237 L0,62.007866 L-0.0000000000000013768512,66.96849 L-0.0000000000000041305536,71.92912 L-0.000000000000008261107,76.889755 L-0.000000000000013768512,81.85038 L-0.000000000000020652767,86.81101 L-0.000000000000028913876,91.77164 L-0.000000000000038551834,96.73227 L-0.000000000000049566644,101.6929 L-0.00000000000005782775,106.65353 L-0.000000000000063335154,111.61416 L-0.00000000000006608886,116.57478 L-0.00000000000006608886,121.535416 L-0.000000000000063335154,126.49605 L-0.00000000000005782775,131.45668 L-0.000000000000049566644,136.4173 L-0.000000000000038551834,141.37793 L-0.000000000000028913876,146.33856 L-0.000000000000020652767,151.2992 L-0.000000000000013768512,156.25983 L-0.000000000000008261107,161.22044 L-0.0000000000000041305536,166.18108 L-0.0000000000000013768512,171.14171 L0,176.10234 L0,181.06296 L-0.0000000000000013768512,186.02359 L-0.0000000000000041305536,190.98422 L-0.000000000000008261107,195.94485 L-0.000000000000013768512,200.90549 L-0.000000000000020652767,205.8661 L-0.000000000000028913876,210.82674 L-0.000000000000038551834,215.78737 L-0.000000000000049566644,220.748 L-0.00000000000005782775,225.70863 L-0.000000000000063335154,230.66925 L-0.00000000000006608886,235.62988 L-0.00000000000006608886,240.59052 L-0.000000000000063335154,245.55115 L-0.00000000000005782775,250.51178 L-0.000000000000049566644,255.4724 L-0.000000000000038551834,260.43304 L-0.000000000000028913876,265.39368 L-0.000000000000020652767,270.35428 L-0.000000000000013768512,275.3149 L-0.000000000000008261107,280.27554 L-0.0000000000000041305536,285.23618 L-0.0000000000000013768512,290.1968 L0,295.15744 L0,300.11807 L0.0000000000000006884256,305.0787 L0.0000000000000020652768,310.03934 L0.0000000000000041305536,314.99994 L0.000000000000006884256,319.96057 L0.000000000000010326384,324.9212 L0.000000000000014456938,329.88184 L0.000000000000019275917,334.84247 L0.000000000000024783322,339.8031 L0.000000000000028913876,344.76373 L0.000000000000031667577,349.72437 L0.00000000000003304443,354.685 L0.00000000000003304443,359.64563 L0.000000000000031667577,364.60623 L0.000000000000028913876,369.56686 L0.000000000000024783322,374.5275 L0.000000000000019275917,379.48813 L0.000000000000015833788,384.44876 L0.000000000000014456938,389.4094 L0.000000000000015145362,394.37003 L0.000000000000017899065,399.33066 L0.000000000000022718045,404.2913 L0.0000000000000296023,409.25192 L0.000000000000038551834,414.21252 L0.000000000000049566644,419.17316 L0.00000000000005782775,424.1338 L0.000000000000063335154,429.09442 L0.00000000000006608886,434.05505 L0.00000000000006608886,439.0157 L0.000000000000063335154,443.97632 L0.00000000000005782775,448.93695 L0.000000000000049566644,453.89758 L0.000000000000038551834,458.8582 L0.000000000000028913876,463.81882 L0.000000000000020652767,468.77945 L0.000000000000013768512,473.74008 L0.000000000000008261107,478.7007 L0.0000000000000041305536,483.66135 L0.0000000000000013768512,488.62198 L0,493.5826 L0,498.54324 L0.0000000000000006884256,503.50388 L0.0000000000000020652768,508.46448 L0.0000000000000041305536,513.4251 L0.000000000000006884256,518.38574 L0.000000000000010326384,523.3464 L0.000000000000014456938,528.307 L0.000000000000019275917,533.26764 L0.000000000000024783322,538.2283 L0.000000000000028913876,543.1889 L0.000000000000031667577,548.14954 L0.00000000000003304443,553.11017 L0.00000000000003304443,558.0708 L0.000000000000031667577,563.03143 L0.000000000000028913876,567.99207 L0.000000000000024783322,572.9527 L0.000000000000019275917,577.9133 L0.000000000000014456938,582.8739 L0.000000000000010326384,587.83453 L0.000000000000006884256,592.79517 L0.0000000000000041305536,597.7558 L0.0000000000000020652768,602.71643 L0.0000000000000006884256,607.67706 L0,612.6377 L0,617.5983 L0,622.55896 L0,627.5196 L0,632.4802 L0,637.44086 L0,642.4015 L0,647.3621 L0,652.32275 L0,657.2834 L0.0000000000000006884256,662.244 L0.0000000000000020652768,667.20465 L0.0000000000000041305536,672.1653 L0.000000000000006884256,677.12585 L0.000000000000010326384,682.0865 L0.000000000000014456938,687.0471 L0.000000000000019275917,692.00775 L0.000000000000024783322,696.9684 L0.000000000000030979153,701.929 L0.000000000000037863406,706.88965 L0.00000000000004543609,711.8503 L0.000000000000053697196,716.8109 L0.000000000000062646726,721.77155 L0.00000000000007228469,726.7322 L0.00000000000008261107,731.6928 L0.00000000000009362588,736.65344"/>
<path d="M39.68503,17.362202 L39.68503,22.322832 L39.68503,27.28346 L39.68503,32.24409 L39.68503,37.20472 L39.68503,42.165348 L39.68503,47.125977 L39.68503,52.086605 L39.68503,57.047237 L39.68503,62.007866 L39.68503,66.96849 L39.68503,71.92912 L39.68503,76.889755 L39.68503,81.85038 L39.68503,86.81101 L39.68503,91.77164 L39.68503,96.73227 L39.68503,101.6929 L39.68503,106.65353 L39.68503,111.61416 L39.68503,116.57478 L39.68503,121.535416 L39.68503,126.49605 L39.68503,131.45668 L39.68503,136.4173 L39.68503,141.37793 L39.68503,146.33856 L39.68503,151.2992 L39.68503,156.25983 L39.68503,161.22044 L39.68503,166.18108 L39.68503,171.14171 L39.68503,176.10234 L39.68503,181.06296 L39.745487,185.89182 L39.866394,190.58888 L40.047752,195.15416 L40.289566,199.58766 L40.59183,203.88937 L40.95455,208.05931 L41.377724,212.09747 L41.86135,216.00385 L42.39198,219.73045 L42.96961,223.27731 L43.594242,226.64441 L44.265877,229.83174 L44.984512,232.83932 L45.750153,235.66714 L46.562794,238.3152 L47.422436,240.78351 L48.200256,243.33354 L48.896248,245.96529 L49.510418,248.67877 L50.042763,251.47397 L50.493282,254.35089 L50.861977,257.30954 L51.148846,260.3499 L51.35389,263.47202 L51.492752,266.67883 L51.56544,269.97043 L51.57195,273.34674 L51.51228,276.8078 L51.386433,280.3536 L51.194405,283.98413 L50.9362,287.69943 L50.611816,291.49945 L50.243694,295.38974 L49.83184,299.3703 L49.37625,303.44116 L48.876926,307.6023 L48.333862,311.8537 L47.747066,316.19537 L47.116535,320.62732 L46.44227,325.14957 L45.753227,329.76776 L45.049416,334.48193 L44.330826,339.29208 L43.59747,344.1982 L42.84934,349.20032 L42.086433,354.29837 L41.308754,359.4924 L40.516304,364.7824 L39.74349,370.17136 L38.990307,375.65918 L38.25676,381.24594 L37.542843,386.9316 L36.848564,392.7162 L36.17392,398.5997 L35.51891,404.58212 L34.883533,410.66345 L34.305683,416.84103 L33.78536,423.1149 L33.32256,429.48502 L32.917286,435.95142 L32.56954,442.51404 L32.27932,449.17297 L32.046623,455.92813 L31.871454,462.77957 L31.79254,469.7169 L31.809881,476.74008 L31.923477,483.84912 L32.133327,491.04407 L32.439434,498.32486 L32.841797,505.69153 L33.340412,513.14404 L33.935284,520.6825 L34.513103,528.03186 L35.07387,535.1922 L35.61759,542.16345 L36.14426,548.94574 L36.653873,555.53894 L37.14644,561.94305 L37.621952,568.1582 L38.080414,574.18427 L38.48157,580.07715 L38.825417,585.83685 L39.111954,591.4634 L39.341187,596.9567 L39.51311,602.3169 L39.627728,607.5439 L39.68503,612.6377 L39.68503,617.5983 L39.68503,622.55896 L39.68503,627.5196 L39.68503,632.4802 L39.68503,637.44086 L39.68503,642.4015 L39.68503,647.3621 L39.68503,652.32275 L39.68503,657.2834 L39.68503,662.244 L39.68503,667.20465 L39.68503,672.1653 L39.68503,677.12585 L39.68503,682.0865 L39.68503,687.0471 L39.68503,692.00775 L39.68503,696.9684 L39.68503,701.929 L39.68503,706.88965 L39.68503,711.8503 L39.68503,716.8109 L39.68503,721.77155 L39.68503,726.7322 L39.68503,731.6928 L39.68503,736.65344"/>
<path d="M79.37006,17.362202 L79.37006,22.322832 L79.37006,27.28346 L79.37006,32.24409 L79.37006,37.20472 L79.37006,42.165348 L79.37006,47.125977 L79.37006,52.086605 L79.37006,57.047237 L79.37006,62.007866 L79.37006,66.96849 L79.37006,71.92912 L79.37006,76.889755 L79.37006,81.85038 L79.37006,86.81101 L79.37006,91.77164 L79.37006,96.73227 L79.37006,101.6929 L79.37006,106.65353 L79.37006,111.61416 L79.37006,116.57478 L79.37006,121.535416 L79.37006,126.49605 L79.37006,131.45668 L79.37006,136.4173 L79.37006,141.37793 L79.664955,145.91034 L80.25473,150.01453 L81.13939,153.69049 L82.31894,156.93822 L83.79337,159.75774 L85.56269,162.14903 L87.6269,164.1121 L89.986,165.64696 L92.23281,167.2534 L94.36734,168.93144 L96.38959,170.68109 L98.299545,172.50233 L100.09723,174.39519 L101.78262,176.35963 L103.355736,178.39568 L104.81656,180.50333 L106.16822,182.67622 L107.410706,184.91434 L108.54402,187.21771 L109.56817,189.58632 L110.48315,192.02017 L111.288956,194.51927 L111.98559,197.0836 L112.57306,199.71317 L113.060555,202.40776 L113.44808,205.16736 L113.735634,207.99197 L113.92322,210.8816 L114.01083,213.83626 L113.99848,216.85593 L113.88616,219.9406 L113.67387,223.09029 L113.37759,226.31075 L112.997314,229.60194 L112.533066,232.9639 L111.984825,236.39662 L111.3526,239.9001 L110.63638,243.47433 L109.83618,247.11932 L108.952,250.83507 L108.00726,254.6317 L107.001976,258.50925 L105.93614,262.46768 L104.80975,266.50702 L103.62282,270.62723 L102.375336,274.82837 L101.0673,279.11038 L99.69871,283.4733 L98.30059,287.92865 L96.87295,292.4764 L95.41577,297.1166 L93.92906,301.8492 L92.41282,306.67422 L90.86705,311.59167 L89.29175,316.60153 L87.68692,321.70383 L86.09022,326.9075 L84.50164,332.21255 L82.92119,337.619 L81.34886,343.12683 L79.78466,348.73605 L78.228584,354.44666 L76.68063,360.25864 L75.14081,366.172 L73.65118,372.1893 L72.21174,378.31052 L70.82249,384.53564 L69.48344,390.8647 L68.19457,397.29764 L66.9559,403.83453 L65.767426,410.4753 L64.62914,417.22003 L63.58434,424.06195 L62.633015,431.00107 L61.77517,438.03738 L61.010807,445.17087 L60.339924,452.40158 L59.762524,459.7295 L59.278603,467.15457 L58.88816,474.67688 L58.632206,482.27914 L58.510742,489.9614 L58.523766,497.7236 L58.671276,505.5658 L58.953278,513.488 L59.369762,521.4901 L59.92074,529.57227 L60.6062,537.7344 L61.46168,545.949 L62.48718,554.2162 L63.68269,562.5359 L65.04822,570.9081 L66.58376,579.3328 L68.28932,587.8101 L70.1649,596.33997 L72.210495,604.9223 L74.00039,613.05194 L75.534584,620.7289 L76.81308,627.95306 L77.83587,634.72455 L78.60297,641.04333 L79.114365,646.9094 L79.37006,652.32275 L79.37006,657.2834 L79.37006,662.244 L79.37006,667.20465 L79.37006,672.1653 L79.37006,677.12585 L79.37006,682.0865 L79.37006,687.0471 L79.37006,692.00775 L79.37006,696.9684 L79.37006,701.929 L79.37006,706.88965 L79.37006,711.8503 L79.37006,716.8109 L79.37006,721.77155 L79.37006,726.7322 L79.37006,731.6928 L79.37006,736.65344"/>
<path d="M119.0551,17.362202 L119.0551,22.322832 L119.0551,27.28346 L119.0551,32.24409 L119.0551,37.20472 L119.0551,42.165348 L119.0551,47.125977 L119.0551,52.086605 L119.0551,57.047237 L119.0551,62.007866 L119.12416,66.90051 L119.26229,71.72518 L119.46948,76.481865 L119.745735,81.17056 L120.09106,85.79128 L120.50544,90.344025 L120.988884,94.82878 L121.54139,99.24555 L122.44331,103.295425 L123.69465,106.978386 L125.2954,110.29444 L127.24557,113.2436 L129.54515,115.82584 L132.19414,118.04118 L135.19255,119.88962 L138.54037,121.37115 L141.76158,122.91954 L144.8562,124.5348 L147.8242,126.21691 L150.6656,127.9659 L153.3804,129.78174 L155.96858,131.66444 L158.43018,133.61401 L160.76515,135.63045 L162.97171,137.69894 L165.04988,139.8195 L166.99962,141.99211 L168.82097,144.2168 L170.5139,146.49353 L172.07841,148.82233 L173.51453,151.20319 L174.82224,153.63611 L176.00496,156.11293 L177.06273,158.63367 L177.99554,161.19829 L178.80338,163.80682 L179.48625,166.45926 L180.04416,169.1556 L180.4771,171.89583 L180.78508,174.67998 L180.9772,177.50801 L181.05351,180.37996 L181.01396,183.2958 L180.85858,186.25557 L180.58736,189.25922 L180.20029,192.30678 L179.69737,195.39825 L179.07863,198.53362 L178.35986,201.72142 L177.54106,204.96165 L176.62222,208.25433 L175.60338,211.59946 L174.4845,214.99701 L173.2656,218.44699 L171.94666,221.94942 L170.5277,225.50429 L169.03253,229.12709 L167.46118,232.81786 L165.81361,236.57657 L164.08987,240.40323 L162.28992,244.29784 L160.41377,248.26039 L158.46143,252.2909 L156.43288,256.38934 L154.36082,260.5744 L152.24524,264.84604 L150.08617,269.20425 L147.88356,273.64908 L145.63745,278.18048 L143.34782,282.7985 L141.0147,287.50308 L138.63805,292.29425 L136.25874,297.18835 L133.87682,302.18533 L131.49223,307.28525 L129.10501,312.48804 L126.71516,317.79376 L124.322655,323.2024 L121.92751,328.71393 L119.529724,334.32834 L117.17573,340.0543 L114.86552,345.89172 L112.59909,351.84064 L110.37646,357.90106 L108.1976,364.073 L106.062546,370.3564 L103.97127,376.75134 L101.92378,383.25775 L99.96804,389.87286 L98.10406,396.59668 L96.33183,403.42917 L94.65135,410.37036 L93.06263,417.42026 L91.56566,424.57886 L90.16044,431.84613 L88.84698,439.2221 L87.67049,446.69128 L86.63098,454.25372 L85.728455,461.9094 L84.962906,469.65826 L84.33434,477.5004 L83.84275,485.43573 L83.488144,493.46432 L83.270515,501.58612 L83.22874,509.7738 L83.362816,518.02734 L83.67274,526.3468 L84.158516,534.73206 L84.820145,543.1832 L85.65762,551.7003 L86.67095,560.2832 L87.86013,568.932 L89.25507,577.60944 L90.855774,586.3155 L92.66223,595.0502 L94.674446,603.8135 L96.89242,612.6054 L99.316154,621.426 L101.94564,630.2752 L104.78089,639.1531 L107.32972,647.6103 L109.59212,655.647 L111.56809,663.26306 L113.257645,670.45856 L114.660774,677.23346 L115.77747,683.58777 L116.60776,689.5215 L117.15161,695.0346 L117.62748,700.4787 L118.03537,705.8537 L118.37528,711.15967 L118.64721,716.39655 L118.85116,721.56433 L118.98712,726.6631 L119.0551,731.6928 L119.0551,736.65344"/>
<path d="M158.74013,17.362202 L158.74013,22.322832 L158.74013,27.28346 L158.74013,32.24409 L158.74013,37.20472 L158.74013,42.165348 L158.74013,47.125977 L158.74013,52.086605 L158.74013,57.047237 L158.74013,62.007866 L159.29884,66.546104 L160.41628,70.66196 L162.09242,74.35542 L164.32729,77.6265 L167.12086,80.47519 L170.47314,82.90149 L174.38416,84.9054 L178.85387,86.48693 L183.18787,88.14116 L187.38614,89.86809 L191.44867,91.66772 L195.37549,93.540054 L199.16658,95.485085 L202.82193,97.50282 L206.34157,99.59326 L209.72548,101.7564 L212.96814,103.968285 L216.06956,106.228905 L219.02974,108.53826 L221.84868,110.896355 L224.52638,113.303185 L227.06284,115.75876 L229.45804,118.26307 L231.71202,120.81612 L233.82428,123.399124 L235.79482,126.0121 L237.62364,128.65504 L239.31076,131.32794 L240.85616,134.0308 L242.25984,136.76363 L243.52182,139.52643 L244.64207,142.31917 L245.62479,145.13094 L246.46994,147.9617 L247.17757,150.81148 L247.74763,153.68025 L248.18015,156.56804 L248.47513,159.47484 L248.63255,162.40063 L248.65244,165.34544 L248.54375,168.30861 L248.3065,171.29012 L247.9407,174.28998 L247.44633,177.3082 L246.82341,180.34477 L246.07191,183.3997 L245.19186,186.47298 L244.18326,189.5646 L243.06111,192.68568 L241.82547,195.83618 L240.47629,199.01613 L239.0136,202.22551 L237.43738,205.46432 L235.74765,208.73259 L233.9444,212.03027 L232.02762,215.3574 L230.02069,218.73567 L227.92361,222.1651 L225.73639,225.64566 L223.45901,229.17737 L221.09149,232.76022 L218.63383,236.39423 L216.086,240.07936 L213.44803,243.81566 L210.75371,247.63057 L208.00305,251.52412 L205.19603,255.49629 L202.33266,259.5471 L199.41295,263.6765 L196.43689,267.88458 L193.40446,272.17126 L190.3157,276.53656 L187.21474,281.00592 L184.10156,285.5793 L180.97617,290.25677 L177.83856,295.03827 L174.68875,299.92383 L171.52673,304.91342 L168.35251,310.00705 L165.16608,315.20474 L162.01859,320.52206 L158.91005,325.959 L155.84047,331.51556 L152.80983,337.19174 L149.81815,342.98758 L146.86542,348.903 L143.95163,354.93808 L141.0768,361.09274 L138.2937,367.3681 L135.60236,373.7641 L133.00275,380.28076 L130.49487,386.9181 L128.07875,393.6761 L125.754364,400.55472 L123.52171,407.55402 L121.380806,414.67398 L119.38074,421.90024 L117.52151,429.2328 L115.803116,436.67166 L114.22556,444.2168 L112.78884,451.86826 L111.49296,459.626 L110.33792,467.49005 L109.323715,475.4604 L108.491806,483.50903 L107.84219,491.63602 L107.374886,499.8413 L107.08987,508.1249 L106.98715,516.4868 L107.066734,524.92706 L107.32861,533.4456 L107.77278,542.0425 L108.43064,550.679 L109.302185,559.3551 L110.387405,568.07086 L111.68632,576.8263 L113.198906,585.62134 L114.92518,594.456 L116.86513,603.33026 L119.01877,612.2442 L121.406075,621.1515 L124.02704,630.0522 L126.88167,638.9462 L129.96997,647.8337 L133.29193,656.7145 L136.84755,665.5887 L140.63684,674.4563 L144.65979,683.31726 L148.17989,691.6907 L151.1971,699.57654 L153.71144,706.97485 L155.72292,713.8857 L157.23152,720.3089 L158.23726,726.2446 L158.74013,731.6928 L158.74013,736.65344"/>
<path d="M198.42517,17.362202 L198.42517,22.322832 L198.87788,27.027761 L199.78331,31.476992 L201.14146,35.670525 L202.95232,39.608356 L205.2159,43.29049 L207.93219,46.716927 L211.1012,49.88766 L214.72292,52.802696 L218.45894,55.658096 L222.30927,58.453857 L226.2739,61.189983 L230.35284,63.86647 L234.5461,66.483315 L238.85364,69.04053 L243.2755,71.5381 L247.81166,73.976036 L252.1973,76.472755 L256.4324,79.028244 L260.517,81.64251 L264.45108,84.31555 L268.23462,87.04737 L271.86765,89.83796 L275.35016,92.68733 L278.68216,95.59548 L281.8604,98.53354 L284.88495,101.50152 L287.75574,104.49941 L290.47284,107.527214 L293.0362,110.58494 L295.44583,113.67257 L297.70172,116.79012 L299.8039,119.937584 L301.75412,123.091415 L303.5524,126.2516 L305.1987,129.41815 L306.69305,132.59106 L308.03546,135.77034 L309.2259,138.95598 L310.26437,142.14796 L311.15088,145.34633 L311.89114,148.53601 L312.48517,151.71703 L312.93292,154.88936 L313.23444,158.05301 L313.3897,161.208 L313.3987,164.3543 L313.26147,167.49193 L312.97797,170.62088 L312.55737,173.73836 L311.99963,176.84435 L311.3048,179.93886 L310.47287,183.02188 L309.5038,186.09343 L308.39764,189.1535 L307.15436,192.20209 L305.77396,195.23918 L304.2701,198.27756 L302.64282,201.3172 L300.89212,204.35811 L299.01794,207.4003 L297.02032,210.44376 L294.89926,213.48848 L292.65475,216.53447 L290.2868,219.58174 L287.81708,222.65895 L285.2456,225.76614 L282.5724,228.90327 L279.7974,232.07037 L276.92062,235.26743 L273.94208,238.49443 L270.8618,241.7514 L267.67975,245.03831 L264.43002,248.39397 L261.11264,251.81834 L257.7276,255.31145 L254.27487,258.87326 L250.7545,262.5038 L247.16646,266.2031 L243.51074,269.9711 L239.78737,273.80783 L236.04399,277.7503 L232.28062,281.7985 L228.49725,285.9524 L224.6939,290.21204 L220.87051,294.5774 L217.02715,299.0485 L213.16379,303.62534 L209.28043,308.3079 L205.43364,313.1196 L201.62343,318.06046 L197.84981,323.1305 L194.11275,328.3297 L190.41228,333.65805 L186.7484,339.11557 L183.12108,344.70224 L179.53035,350.4181 L176.03389,356.2672 L172.63173,362.24966 L169.32382,368.3654 L166.11021,374.61444 L162.99088,380.9968 L159.96584,387.51242 L157.03505,394.16138 L154.19856,400.94363 L151.50854,407.84464 L148.96503,414.86435 L146.56798,422.00284 L144.3174,429.26007 L142.21332,436.63605 L140.25572,444.13074 L138.4446,451.7442 L136.77995,459.4764 L135.30461,467.29773 L134.01857,475.20816 L132.92183,483.20767 L132.01439,491.29633 L131.29625,499.47406 L130.76741,507.74094 L130.42787,516.0969 L130.27763,524.542 L130.3483,533.0355 L130.63986,541.5776 L131.15236,550.1681 L131.88574,558.80707 L132.84004,567.49457 L134.01524,576.2305 L135.41136,585.01495 L137.02838,593.8479 L138.88596,602.6813 L140.98405,611.5152 L143.32271,620.3496 L145.9019,629.18445 L148.72165,638.01984 L151.78194,646.8557 L155.08276,655.692 L158.62413,664.5289 L162.15105,673.1761 L165.66351,681.63367 L169.16154,689.90155 L172.64511,697.97986 L176.11424,705.8685 L179.56892,713.5675 L183.00916,721.07684 L186.43494,728.3966"/>
<path d="M241.83925,15.757584 L242.90468,20.25975 L244.55667,24.53515 L246.79518,28.583784 L249.62024,32.40565 L253.03185,36.00075 L257.02997,39.369087 L261.61465,42.510654 L266.7859,45.425457 L272.54364,48.11349 L278.14365,50.883152 L283.58594,53.734436 L288.87048,56.667343 L293.99728,59.681877 L298.96637,62.77803 L303.7777,65.95581 L308.4313,69.21522 L312.92715,72.556244 L317.2586,75.94273 L321.42563,79.37469 L325.42825,82.852104 L329.26642,86.37498 L332.9402,89.94331 L336.44955,93.55711 L339.7945,97.21638 L342.975,100.921104 L345.99097,104.637474 L348.84235,108.36549 L351.5292,112.105156 L354.05148,115.85647 L356.4092,119.61942 L358.60236,123.394035 L360.63098,127.18028 L362.49503,130.97818 L364.19965,134.75887 L365.74484,138.52232 L367.1306,142.26855 L368.357,145.99756 L369.42392,149.70935 L370.33145,153.4039 L371.07956,157.08125 L371.66824,160.74136 L372.10617,164.36377 L372.3933,167.94847 L372.52966,171.49547 L372.51526,175.00476 L372.3501,178.47633 L372.03415,181.91022 L371.56744,185.30638 L370.94995,188.66484 L370.1921,191.97836 L369.29385,195.24695 L368.25525,198.4706 L367.07626,201.64932 L365.75687,204.7831 L364.29712,207.87195 L362.697,210.91585 L360.95648,213.91483 L359.08765,216.88113 L357.09048,219.81477 L354.96503,222.71574 L352.71124,225.58405 L350.32916,228.4197 L347.81873,231.22266 L345.18,233.99297 L342.41296,236.73059 L339.5358,239.47157 L336.54852,242.21588 L333.45117,244.96352 L330.2437,247.7145 L326.92615,250.46881 L323.49847,253.22646 L319.9607,255.98744 L316.3128,258.75177 L312.58786,261.5732 L308.7859,264.45178 L304.90683,267.38748 L300.95074,270.38034 L296.91757,273.4303 L292.80737,276.5374 L288.6201,279.70163 L284.35577,282.923 L280.0663,286.25385 L275.7517,289.69415 L271.41202,293.24396 L267.04715,296.90326 L262.65717,300.67203 L258.24207,304.55026 L253.80183,308.538 L249.33646,312.6352 L244.90913,316.87357 L240.51985,321.25314 L236.16861,325.7739 L231.85541,330.43585 L227.58025,335.23895 L223.34314,340.18326 L219.14406,345.26877 L214.98303,350.49542 L210.92233,355.8685 L206.96194,361.38797 L203.10188,367.05386 L199.34213,372.86615 L195.68272,378.82486 L192.12361,384.92996 L188.66484,391.18146 L185.30638,397.57938 L182.10193,404.1068 L179.05148,410.76385 L176.15504,417.5504 L173.41263,424.46655 L170.8242,431.51227 L168.38979,438.6875 L166.10938,445.9923 L163.98299,453.4267 L162.0529,460.95816 L160.31914,468.5868 L158.78171,476.31253 L157.44058,484.13538 L156.29578,492.05536 L155.34729,500.07245 L154.59512,508.18668 L154.03928,516.398 L153.71007,524.66364 L153.60747,532.98346 L153.73152,541.3576 L154.08218,549.786 L154.65948,558.26874 L155.46342,566.80566 L156.49397,575.39685 L157.75117,584.04236 L159.25322,592.69257 L161.00014,601.3476 L162.99193,610.00745 L165.22856,618.672 L167.71007,627.34143 L170.43643,636.01556 L173.40767,644.6945 L176.62376,653.37823 L180.09091,662.01355 L183.80911,670.6006 L187.77835,679.1393 L191.99866,687.6296 L196.47,696.07153 L201.19241,704.4652 L206.16586,712.8105 L211.39037,721.10736"/>
<path d="M290.54654,13.675533 L294.18976,17.582829 L298.09528,21.46088 L302.26312,25.309689 L306.69324,29.129253 L311.38568,32.919575 L316.34042,36.680653 L321.55743,40.412487 L327.03677,44.115078 L332.7784,47.788425 L338.34604,51.535614 L343.73962,55.356636 L348.95923,59.2515 L354.00482,63.2202 L358.8764,67.26274 L363.57397,71.37911 L368.0975,75.56933 L372.44705,79.83338 L376.61847,84.13095 L380.61176,88.46203 L384.4269,92.82663 L388.06393,97.22474 L391.52283,101.65636 L394.8036,106.1215 L397.90622,110.62015 L400.83075,115.15231 L403.58047,119.67964 L406.15546,124.20213 L408.55563,128.7198 L410.78107,133.23262 L412.8317,137.74062 L414.70758,142.24377 L416.4087,146.7421 L417.935,151.23558 L419.29608,155.69014 L420.4919,160.10577 L421.5225,164.48248 L422.38785,168.82027 L423.08792,173.11913 L423.62277,177.37906 L423.99234,181.60007 L424.1967,185.78215 L424.24927,189.89853 L424.15005,193.9492 L423.8991,197.93417 L423.49637,201.85344 L422.94183,205.707 L422.23557,209.49486 L421.3775,213.21701 L420.36768,216.87347 L419.22025,220.44984 L417.93518,223.94612 L416.51248,227.36234 L414.95218,230.69846 L413.25427,233.9545 L411.41873,237.13046 L409.44556,240.22633 L407.33478,243.24214 L405.0981,246.18524 L402.73553,249.05565 L400.24704,251.85338 L397.63266,254.5784 L394.8924,257.23074 L392.0262,259.8104 L389.03412,262.31735 L385.91614,264.75162 L382.68475,267.15503 L379.33994,269.5276 L375.88168,271.86932 L372.31003,274.1802 L368.62494,276.46024 L364.82645,278.7094 L360.91452,280.92773 L356.88916,283.11523 L352.77988,285.34686 L348.58664,287.62262 L344.30948,289.94247 L339.94836,292.3065 L335.5033,294.7146 L330.9743,297.16687 L326.36136,299.66324 L321.66446,302.20377 L316.94168,304.86227 L312.193,307.63876 L307.4184,310.53326 L302.6179,313.54578 L297.7915,316.67627 L292.9392,319.92477 L288.061,323.29126 L283.1569,326.77576 L278.29828,330.4168 L273.48517,334.21442 L268.71753,338.1686 L263.9954,342.27936 L259.31873,346.54666 L254.68756,350.97052 L250.10188,355.55093 L245.56169,360.28793 L241.13197,365.18347 L236.81273,370.2376 L232.60394,375.45032 L228.50562,380.8216 L224.51778,386.35144 L220.64038,392.03986 L216.87347,397.88684 L213.21701,403.89243 L209.72313,410.03482 L206.39182,416.3141 L203.22308,422.73022 L200.2169,429.2832 L197.37329,435.97302 L194.69226,442.79968 L192.17378,449.7632 L189.81789,456.8636 L187.66397,464.06494 L185.71204,471.3672 L183.96211,478.77042 L182.41415,486.2746 L181.06819,493.87973 L179.92422,501.5858 L178.98224,509.3928 L178.24225,517.3008 L177.73181,525.2649 L177.45096,533.2852 L177.39966,541.36176 L177.57791,549.4944 L177.98575,557.6832 L178.62314,565.9283 L179.4901,574.2295 L180.58662,582.58685 L181.92877,590.9501 L183.51656,599.31915 L185.34995,607.69415 L187.42897,616.07495 L189.75363,624.4616 L192.3239,632.8541 L195.1398,641.25244 L198.20132,649.6567 L201.51308,658.0135 L205.07503,666.3228 L208.88719,674.5848 L212.94957,682.79926 L217.26218,690.9663 L221.82498,699.08594 L226.638,707.1581 L231.70125,715.18286"/>
<path d="M336.8494,14.288626 L342.38342,18.37109 L347.93008,22.522804 L353.48935,26.743769 L359.0612,31.033983 L364.6457,35.393448 L370.24277,39.822163 L375.85245,44.320126 L381.47476,48.887337 L387.10968,53.523804 L392.5541,58.227364 L397.8081,62.998028 L402.87164,67.835785 L407.74472,72.74065 L412.42734,77.71261 L416.9195,82.75166 L421.2212,87.85782 L425.33246,93.031075 L429.25137,98.227615 L432.978,103.44743 L436.51233,108.69054 L439.85434,113.95692 L443.00403,119.24658 L445.96143,124.559525 L448.7265,129.89575 L451.2993,135.25526 L453.6864,140.59601 L455.88785,145.91798 L457.90366,151.22119 L459.73376,156.50565 L461.37823,161.77133 L462.83704,167.01825 L464.1102,172.2464 L465.19766,177.4558 L466.11362,182.60805 L466.858,187.70319 L467.43088,192.7412 L467.8322,197.72208 L468.062,202.64583 L468.12027,207.51247 L468.00696,212.32196 L467.72214,217.07434 L467.2855,221.73712 L466.697,226.3103 L465.95667,230.7939 L465.06448,235.1879 L464.0205,239.4923 L462.82465,243.70709 L461.477,247.83229 L459.97748,251.8679 L458.34778,255.79092 L456.58786,259.60135 L454.69775,263.29916 L452.67746,266.8844 L450.52695,270.35703 L448.24625,273.71704 L445.83536,276.9645 L443.29425,280.09933 L440.63962,283.11734 L437.8714,286.0185 L434.98965,288.8028 L431.99432,291.47025 L428.88547,294.02087 L425.66302,296.45465 L422.32706,298.77158 L418.87753,300.97165 L415.32043,303.09506 L411.65576,305.14175 L407.8835,307.1118 L404.00372,309.00516 L400.01636,310.8218 L395.92142,312.5618 L391.71893,314.2251 L387.40887,315.81174 L383.01187,317.4284 L378.52795,319.0751 L373.95712,320.75183 L369.29935,322.4586 L364.55466,324.1954 L359.72305,325.96225 L354.8045,327.75912 L349.79904,329.58603 L344.77536,331.54895 L339.7335,333.6479 L334.67343,335.88284 L329.59515,338.2538 L324.4987,340.76077 L319.384,343.40375 L314.25113,346.18274 L309.10007,349.09775 L304.01047,352.1867 L298.98236,355.44962 L294.01572,358.8865 L289.11057,362.49734 L284.26688,366.28214 L279.48468,370.24088 L274.76398,374.3736 L270.10474,378.68027 L265.56876,383.153 L261.156,387.79184 L256.86652,392.59674 L252.70026,397.56775 L248.65726,402.7048 L244.73749,408.00793 L240.94096,413.47717 L237.2677,419.11246 L233.76385,424.88586 L230.42946,430.79742 L227.2645,436.84708 L224.26898,443.03485 L221.44289,449.36075 L218.78624,455.82477 L216.29903,462.4269 L213.98125,469.16718 L211.86751,476.00693 L209.95782,482.94617 L208.25217,489.9849 L206.75053,497.12314 L205.45296,504.36084 L204.35942,511.69806 L203.46991,519.13477 L202.78445,526.6709 L202.32721,534.26105 L202.09818,541.905 L202.09735,549.60297 L202.32475,557.3548 L202.78036,565.1606 L203.46419,573.02026 L204.37624,580.93384 L205.5165,588.90137 L206.8987,596.8727 L208.52286,604.8477 L210.38896,612.8266 L212.49702,620.80927 L214.84702,628.79565 L217.43898,636.7859 L220.27287,644.77985 L223.34872,652.77765 L226.66956,660.7266 L230.23535,668.6268 L234.04613,676.47815 L238.10188,684.28076 L242.4026,692.03455 L246.94829,699.73956 L251.73895,707.39575 L256.7746,715.0032"/>
<path d="M380.45688,16.512444 L387.11163,21.230284 L393.6179,26.051008 L399.97568,30.974617 L406.185,36.00111 L412.24585,41.130486 L418.15823,46.362743 L423.92212,51.697887 L429.53754,57.135918 L435.00452,62.676826 L440.26462,68.27903 L445.31793,73.94251 L450.16437,79.66729 L454.80402,85.453354 L459.23682,91.300705 L463.46277,97.20935 L467.4819,103.179276 L471.29422,109.210495 L474.89948,115.25633 L478.29773,121.31679 L481.48892,127.39186 L484.47308,133.48155 L487.2502,139.58586 L489.8203,145.70477 L492.18338,151.83832 L494.33942,157.98648 L496.2975,164.10442 L498.0576,170.19211 L499.61975,176.24957 L500.98395,182.27681 L502.15018,188.27382 L503.11844,194.2406 L503.88873,200.17714 L504.4611,206.08347 L504.85312,211.91829 L505.06482,217.68161 L505.09622,223.37346 L504.9473,228.9938 L504.61807,234.54266 L504.10855,240.02003 L503.41867,245.4259 L502.5485,250.76028 L501.52307,255.98717 L500.3424,261.10654 L499.00644,266.1184 L497.51526,271.02277 L495.8688,275.8196 L494.06708,280.50897 L492.11014,285.09082 L489.9979,289.56516 L487.7609,293.90295 L485.39908,298.10416 L482.91248,302.1688 L480.30106,306.0969 L477.56485,309.8884 L474.70386,313.54333 L471.71808,317.06174 L468.60748,320.44354 L465.40286,323.67007 L462.10416,326.74136 L458.71146,329.65735 L455.22467,332.4181 L451.64386,335.02353 L447.96896,337.47372 L444.20007,339.76865 L440.3371,341.90826 L436.39178,343.90945 L432.3641,345.77222 L428.25406,347.49655 L424.06168,349.0824 L419.78696,350.52985 L415.42984,351.83884 L410.9904,353.0094 L406.46857,354.0415 L401.86752,355.0888 L397.18726,356.15134 L392.42776,357.22906 L387.58902,358.322 L382.67105,359.43015 L377.67386,360.5535 L372.59744,361.69205 L367.44177,362.8458 L362.29425,364.16803 L357.15488,365.65872 L352.0236,367.31793 L346.90045,369.1456 L341.78543,371.14172 L336.67856,373.30634 L331.57977,375.63943 L326.48914,378.14102 L321.48172,380.82678 L316.55746,383.69675 L311.71643,386.7509 L306.9586,389.98923 L302.28394,393.41177 L297.6925,397.0185 L293.18427,400.80942 L288.75922,404.78455 L284.46603,408.9233 L280.30478,413.22574 L276.27542,417.69183 L272.37793,422.32156 L268.61237,427.11496 L264.97867,432.07202 L261.47687,437.19272 L258.10696,442.4771 L254.90729,447.8936 L251.87784,453.44214 L249.01859,459.1228 L246.32956,464.93558 L243.81076,470.88043 L241.46217,476.9574 L239.28381,483.16647 L237.27567,489.50763 L235.46785,495.94177 L233.86034,502.46887 L232.45314,509.089 L231.24628,515.80206 L230.23972,522.60815 L229.43347,529.5072 L228.82756,536.4992 L228.42195,543.5842 L228.23805,550.71735 L228.27585,557.8985 L228.53535,565.12775 L229.01654,572.40515 L229.71944,579.7306 L230.64404,587.10406 L231.79033,594.5257 L233.15833,601.9954 L234.75992,609.46423 L236.5951,616.9323 L238.66386,624.3995 L240.96623,631.86584 L243.50218,639.3313 L246.27173,646.796 L249.27487,654.2598 L252.5116,661.72284 L255.98373,669.1339 L259.69125,676.49304 L263.6342,683.8003 L267.8125,691.0556 L272.22623,698.259 L276.87537,705.4104 L281.7599,712.50995 L286.8798,719.55756"/>
<path d="M421.29477,19.28602 L428.27887,24.79631 L435.0499,30.411978 L441.6078,36.13302 L447.95258,41.959435 L454.08426,47.891228 L460.0028,53.92839 L465.70825,60.070934 L471.2006,66.31885 L476.47983,72.67214 L481.5368,79.08165 L486.37152,85.54738 L490.984,92.06932 L495.3742,98.64749 L499.54218,105.28187 L503.48788,111.97247 L507.21133,118.71929 L510.71252,125.52233 L513.9924,132.33252 L517.0508,139.14987 L519.8879,145.97438 L522.50354,152.80603 L524.8978,159.64484 L527.07074,166.4908 L529.0223,173.34392 L530.75244,180.2042 L532.2718,187.02454 L533.5804,193.80498 L534.6781,200.54549 L535.56506,207.2461 L536.2413,213.90677 L536.7066,220.52754 L536.9612,227.10838 L537.00494,233.6493 L536.85754,240.10704 L536.519,246.48157 L535.98926,252.77289 L535.2684,258.98102 L534.3563,265.10596 L533.2531,271.14767 L531.95874,277.10623 L530.4732,282.98157 L528.8242,288.73584 L527.0118,294.36905 L525.03595,299.88123 L522.8966,305.27234 L520.5939,310.54242 L518.1277,315.69144 L515.49805,320.7194 L512.70496,325.62628 L509.783,330.38113 L506.73215,334.98392 L503.5524,339.43463 L500.24377,343.73328 L496.80627,347.87985 L493.23987,351.8744 L489.5446,355.71686 L485.7204,359.40726 L481.80722,362.92258 L477.80505,366.26282 L473.7139,369.428 L469.53375,372.41812 L465.2646,375.23315 L460.90646,377.87314 L456.45932,380.338 L451.92322,382.62784 L447.34164,384.72845 L442.71466,386.6398 L438.04227,388.36197 L433.32443,389.89487 L428.56116,391.23856 L423.75247,392.39304 L418.89835,393.35828 L413.99878,394.13428 L409.0992,394.9103 L404.19968,395.6863 L399.3001,396.46234 L394.40054,397.23834 L389.501,398.01434 L384.60144,398.79037 L379.7019,399.56638 L374.80234,400.3424 L369.9482,401.30765 L365.13953,402.4621 L360.37625,403.8058 L355.65842,405.3387 L350.986,407.06085 L346.359,408.97223 L341.77747,411.0728 L337.24133,413.36264 L332.79422,415.82755 L328.43607,418.4675 L324.16693,421.28256 L319.9868,424.27267 L315.89563,427.43784 L311.89346,430.7781 L307.9803,434.29343 L304.1561,437.98383 L300.46082,441.8263 L296.8944,445.8208 L293.45688,449.9674 L290.14825,454.26605 L286.9685,458.71677 L283.91766,463.31955 L280.9957,468.07437 L278.20264,472.9813 L275.573,478.00925 L273.1068,483.15826 L270.80405,488.4283 L268.66476,493.81943 L266.68887,499.3316 L264.87646,504.96484 L263.22748,510.71912 L261.74194,516.5944 L260.44757,522.553 L259.34436,528.5947 L258.4323,534.71967 L257.71143,540.9278 L257.1817,547.2191 L256.84314,553.5936 L256.69574,560.0514 L256.7395,566.5923 L256.99405,573.17316 L257.4594,579.7939 L258.1356,586.4546 L259.02255,593.15515 L260.1203,599.8957 L261.42886,606.67615 L262.9482,613.49646 L264.67838,620.35675 L266.6299,627.2099 L268.80283,634.05585 L271.19714,640.89465 L273.8128,647.7263 L276.64987,654.5508 L279.7083,661.36816 L282.98813,668.17834 L286.48935,674.9814 L290.2128,681.7282 L294.1585,688.4188 L298.32645,695.05316 L302.71667,701.63135 L307.32913,708.1533 L312.16385,714.619 L317.22083,721.0285 L322.50006,727.38184"/>
<path d="M459.4454,21.645956 L465.99112,27.830515 L472.3586,34.122955 L478.54788,40.523277 L484.55893,47.03148 L490.39175,53.647564 L496.04636,60.37153 L501.52274,67.20338 L506.82086,74.143105 L511.9408,81.19071 L516.8253,88.29025 L521.4744,95.4417 L525.8882,102.64509 L530.06647,109.90039 L534.0094,117.20762 L537.7169,124.566765 L541.1891,131.97784 L544.4258,139.44084 L547.42896,146.90468 L550.1985,154.36934 L552.73444,161.83485 L555.0368,169.30121 L557.1056,176.76839 L558.94073,184.2364 L560.54236,191.70526 L561.91034,199.17496 L563.05664,206.59657 L563.9812,213.97011 L564.68414,221.29555 L565.16534,228.57289 L565.4248,235.80215 L565.4626,242.98334 L565.2787,250.11644 L564.8731,257.20145 L564.2672,264.19348 L563.46094,271.09253 L562.4544,277.8986 L561.2475,284.61166 L559.84033,291.23178 L558.23285,297.7589 L556.425,304.19305 L554.4169,310.5342 L552.23846,316.7433 L549.8899,322.82022 L547.3711,328.7651 L544.68207,334.57785 L541.8228,340.25854 L538.7934,345.8071 L535.5937,351.22357 L532.2238,356.50793 L528.722,361.62866 L525.0883,366.5857 L521.32275,371.37912 L517.42523,376.00885 L513.3959,380.47495 L509.23462,384.77737 L504.94147,388.91614 L500.51642,392.89124 L496.00818,396.68216 L491.41672,400.2889 L486.74207,403.71143 L481.98422,406.94977 L477.1432,410.00394 L472.21896,412.8739 L467.21152,415.55966 L462.12088,418.06122 L457.02213,420.39432 L451.91525,422.55893 L446.80023,424.55508 L441.67706,426.38275 L436.5458,428.04193 L431.4064,429.53265 L426.25888,430.8549 L421.10324,432.00864 L416.0268,433.1472 L411.0296,434.27054 L406.11166,435.37866 L401.27292,436.4716 L396.51343,437.54932 L391.83313,438.61185 L387.2321,439.65918 L382.7103,440.69128 L378.2708,441.86185 L373.91373,443.17084 L369.63898,444.61826 L365.4466,446.20413 L361.33658,447.92844 L357.3089,449.7912 L353.36356,451.7924 L349.5006,453.93204 L345.7317,456.22696 L342.05682,458.67712 L338.476,461.2826 L334.98923,464.0433 L331.5965,466.95932 L328.29782,470.03058 L325.0932,473.25714 L321.9826,476.63895 L318.9968,480.15732 L316.1358,483.8123 L313.39963,487.6038 L310.7882,491.53186 L308.3016,495.59653 L305.9398,499.79773 L303.70276,504.1355 L301.59055,508.60983 L299.63358,513.1917 L297.83188,517.88104 L296.18542,522.6779 L294.6942,527.5823 L293.35828,532.5941 L292.17758,537.7135 L291.15216,542.94037 L290.28198,548.2748 L289.59213,553.68066 L289.08258,559.158 L288.75336,564.70685 L288.60446,570.3272 L288.63583,576.01904 L288.84756,581.7824 L289.2396,587.6172 L289.81192,593.5235 L290.58224,599.4601 L291.5505,605.4268 L292.71674,611.4238 L294.08093,617.4511 L295.64307,623.50854 L297.40317,629.59625 L299.36124,635.7142 L301.51727,641.86237 L303.88034,647.9959 L306.45044,654.1148 L309.22757,660.2191 L312.21176,666.30884 L315.40295,672.3839 L318.80118,678.44434 L322.40646,684.4902 L326.21875,690.52136 L330.23788,696.49133 L334.46387,702.39996 L338.89667,708.2473 L343.5363,714.0334 L348.38275,719.7582 L353.43604,725.42163 L358.69617,731.02386 L364.16312,736.56476"/>
<path d="M495.0683,22.7813 L500.45343,29.290243 L505.79486,35.936493 L511.0926,42.720055 L516.3467,49.640923 L521.55707,56.6991 L526.72375,63.894585 L531.84674,71.22738 L536.9261,78.69748 L541.96173,86.30489 L546.7524,93.9611 L551.2981,101.6661 L555.5988,109.4199 L559.65454,117.222496 L563.46533,125.07388 L567.0311,132.97406 L570.3519,140.92303 L573.4278,148.9208 L576.2617,156.9148 L578.85364,164.90501 L581.2037,172.89143 L583.3117,180.87407 L585.1778,188.85294 L586.80194,196.82802 L588.1842,204.7993 L589.32446,212.76682 L590.23645,220.6804 L590.9203,228.54008 L591.3759,236.34586 L591.60333,244.0977 L591.6025,251.79562 L591.3735,259.43964 L590.9162,267.02975 L590.2308,274.56592 L589.34125,282.00262 L588.2477,289.3398 L586.95013,296.57755 L585.4485,303.71576 L583.74286,310.7545 L581.8331,317.69373 L579.7194,324.53348 L577.4017,331.27374 L574.9144,337.8759 L572.2578,344.3399 L569.4317,350.66583 L566.43616,356.8536 L563.27124,362.90326 L559.9368,368.8148 L556.433,374.58823 L552.7597,380.2235 L548.9632,385.69272 L545.0434,390.99588 L541.0004,396.13293 L536.83417,401.1039 L532.5447,405.9088 L528.1319,410.54764 L523.59595,415.0204 L518.9367,419.3271 L514.216,423.45978 L509.43378,427.41855 L504.59012,431.20334 L499.68497,434.81418 L494.71832,438.25104 L489.69022,441.51398 L484.60062,444.60294 L479.44952,447.5179 L474.31665,450.2969 L469.202,452.9399 L464.1055,455.44687 L459.02725,457.8178 L453.96716,460.05276 L448.9253,462.1517 L443.90164,464.11462 L438.89618,465.94156 L433.97763,467.73843 L429.146,469.50528 L424.4013,471.24207 L419.74356,472.94885 L415.1727,474.62558 L410.6888,476.27228 L406.2918,477.88895 L401.98175,479.47556 L397.77924,481.13885 L393.68433,482.87885 L389.69696,484.69553 L385.81714,486.58887 L382.04492,488.5589 L378.38025,490.60562 L374.82315,492.729 L371.37363,494.9291 L368.03763,497.24603 L364.81522,499.67978 L361.70633,502.2304 L358.71103,504.89786 L355.82925,507.6822 L353.06107,510.58334 L350.4064,513.6013 L347.86533,516.7362 L345.4544,519.98364 L343.1737,523.3436 L341.02322,526.8163 L339.00293,530.4015 L337.11282,534.0993 L335.3529,537.9097 L333.7232,541.83276 L332.2237,545.86835 L330.876,549.9936 L329.68018,554.2084 L328.63617,558.51276 L327.74402,562.9068 L327.00366,567.3904 L326.4152,571.96356 L325.97852,576.62634 L325.6937,581.3787 L325.5804,586.18823 L325.63867,591.0548 L325.86847,595.9786 L326.26978,600.9595 L326.84265,605.9975 L327.58707,611.0926 L328.503,616.2449 L329.59048,621.4543 L330.86362,626.68243 L332.32242,631.9293 L333.9669,637.195 L335.79703,642.4795 L337.8128,647.7827 L340.01428,653.1047 L342.4014,658.44543 L344.97415,663.80493 L347.73926,669.1411 L350.69662,674.4541 L353.84634,679.7438 L357.18835,685.01013 L360.72266,690.25323 L364.44928,695.4731 L368.36823,700.6696 L372.47946,705.84283 L376.78116,710.94904 L381.27332,715.98804 L385.95593,720.96 L390.829,725.86487 L395.89255,730.70264 L401.14655,735.4733 L406.591,740.1769 L412.22592,744.81335"/>
<path d="M528.3185,22.063646 L531.86505,28.367544 L535.6012,34.88655 L539.527,41.620663 L543.6423,48.569878 L547.9472,55.734203 L552.4417,63.113632 L557.1258,70.70817 L561.99945,78.517815 L567.0627,86.542564 L571.8757,94.614746 L576.4385,102.73437 L580.7511,110.90142 L584.8135,119.115906 L588.6257,127.37783 L592.1876,135.68718 L595.4993,144.04398 L598.56085,152.4482 L601.3768,160.84657 L603.947,169.23909 L606.27167,177.62575 L608.3507,186.00655 L610.18414,194.38148 L611.7719,202.75058 L613.114,211.11382 L614.2106,219.47119 L615.0775,227.7724 L615.7149,236.01743 L616.12274,244.20627 L616.301,252.33894 L616.2497,260.41544 L615.9689,268.43576 L615.45844,276.3999 L614.71844,284.30786 L613.7764,292.11487 L612.63245,299.82095 L611.2865,307.42606 L609.7386,314.93024 L607.98865,322.33347 L606.0367,329.63574 L603.8828,336.83707 L601.5269,343.93744 L599.0084,350.90097 L596.3274,357.72766 L593.48376,364.41748 L590.4776,370.97046 L587.30884,377.38657 L583.97754,383.66583 L580.48364,389.80826 L576.8272,395.8138 L573.0603,401.66083 L569.1829,407.34924 L565.19507,412.8791 L561.09674,418.25037 L556.88794,423.46307 L552.56866,428.51718 L548.139,433.41275 L543.59875,438.14975 L539.0131,442.73016 L534.38196,447.15402 L529.70526,451.42133 L524.98315,455.53207 L520.2155,459.48624 L515.4024,463.28384 L510.54376,466.9249 L505.63968,470.4094 L500.76147,473.7759 L495.90918,477.02438 L491.08276,480.15488 L486.2823,483.1674 L481.5077,486.0619 L476.759,488.8384 L472.0362,491.49692 L467.33932,494.0374 L462.72638,496.5338 L458.1974,498.98605 L453.75232,501.3942 L449.3912,503.75818 L445.114,506.07806 L440.9208,508.35382 L436.8115,510.58542 L432.78616,512.77295 L428.87424,514.9913 L425.0757,517.2404 L421.39066,519.5205 L417.81897,521.83136 L414.36075,524.1731 L411.01593,526.54565 L407.78452,528.94904 L404.66653,531.3833 L401.67447,533.89026 L398.8083,536.4699 L396.06802,539.12225 L393.45364,541.8473 L390.96515,544.645 L388.60257,547.51544 L386.36588,550.45856 L384.2551,553.4743 L382.28195,556.5702 L380.4464,559.74615 L378.74847,563.0022 L377.18817,566.3383 L375.7655,569.7545 L374.48044,573.25085 L373.33298,576.8272 L372.32315,580.48364 L371.46512,584.2058 L370.75882,587.99365 L370.2043,591.8472 L369.80157,595.7665 L369.5506,599.75146 L369.45142,603.8021 L369.50397,607.9185 L369.7083,612.1006 L370.0779,616.3216 L370.61273,620.58154 L371.31284,624.8804 L372.17816,629.2182 L373.20874,633.5949 L374.40457,638.01056 L375.76566,642.4651 L377.292,646.95856 L378.9931,651.4569 L380.86896,655.9601 L382.91962,660.468 L385.14505,664.9809 L387.54523,669.49854 L390.12018,674.02106 L392.86993,678.54834 L395.79443,683.0805 L398.89706,687.57916 L402.17786,692.0443 L405.63675,696.47595 L409.27377,700.874 L413.08893,705.23865 L417.0822,709.5697 L421.25363,713.8673 L425.60315,718.13135 L430.1267,722.32153 L434.82428,726.4379 L439.69586,730.48047 L444.74142,734.44916 L449.96103,738.34406 L455.35464,742.16504 L460.92227,745.91223 L466.6639,749.5856"/>
<path d="M559.2804,19.054892 L560.33466,24.499147 L561.91016,30.299986 L564.00696,36.45741 L566.62506,42.971416 L569.76447,49.842007 L573.4251,57.069183 L577.60706,64.65295 L582.3103,72.593285 L587.5348,80.89021 L592.50824,89.23549 L597.23065,97.62911 L601.702,106.07109 L605.9223,114.56141 L609.89154,123.10008 L613.60974,131.6871 L617.0769,140.32246 L620.293,149.00618 L623.2642,157.68512 L625.9906,166.35927 L628.4721,175.02864 L630.70874,183.69324 L632.7005,192.35306 L634.44745,201.00809 L635.9495,209.65834 L637.20667,218.30382 L638.23724,226.89502 L639.0412,235.43196 L639.61847,243.91463 L639.9692,252.34303 L640.0932,260.7172 L639.9906,269.03705 L639.6614,277.30267 L639.1055,285.514 L638.3534,293.62823 L637.4049,301.64532 L636.2601,309.5653 L634.91895,317.38815 L633.38153,325.1139 L631.64777,332.7425 L629.7177,340.274 L627.5913,347.70834 L625.3109,355.01315 L622.87646,362.18842 L620.288,369.2341 L617.5456,376.15024 L614.6492,382.93683 L611.59875,389.59384 L608.3943,396.1213 L605.0358,402.51923 L601.577,408.77072 L598.01794,414.87582 L594.3585,420.8345 L590.5988,426.6468 L586.7387,432.31268 L582.7783,437.83215 L578.71765,443.20523 L574.5566,448.43192 L570.35754,453.5174 L566.1204,458.4617 L561.8453,463.26483 L557.53204,467.92676 L553.18085,472.4475 L548.79156,476.8271 L544.3642,481.0655 L539.89886,485.1627 L535.4586,489.15042 L531.0435,493.02866 L526.6535,496.79742 L522.28864,500.4567 L517.949,504.0065 L513.63434,507.44684 L509.3449,510.77768 L505.08057,513.999 L500.8933,517.16327 L496.7831,520.2704 L492.74994,523.3203 L488.79382,526.3132 L484.9148,529.2489 L481.1128,532.12744 L477.38785,534.9489 L473.74,537.71326 L470.2022,540.47424 L466.77454,543.2319 L463.45697,545.9862 L460.24948,548.7372 L457.15213,551.4848 L454.1649,554.2291 L451.28772,556.9701 L448.52066,559.7077 L445.88193,562.478 L443.37152,565.281 L440.9894,568.11664 L438.73563,570.9849 L436.61017,573.8859 L434.61304,576.8195 L432.7442,579.7858 L431.0037,582.7848 L429.40356,585.82874 L427.9438,588.9176 L426.62442,592.05133 L425.44543,595.23004 L424.4068,598.45374 L423.50858,601.7223 L422.7507,605.0358 L422.1332,608.3943 L421.6665,611.79047 L421.3506,615.2243 L421.1854,618.6959 L421.171,622.2052 L421.30737,625.7522 L421.5945,629.3369 L422.03244,632.9593 L422.62112,636.61945 L423.3692,640.29675 L424.27673,643.99133 L425.3437,647.7031 L426.57004,651.4321 L427.95584,655.17834 L429.50104,658.94183 L431.20566,662.7225 L433.0697,666.5204 L435.0983,670.30664 L437.29147,674.08124 L439.6492,677.8442 L442.17148,681.5955 L444.8583,685.3352 L447.70972,689.0632 L450.72568,692.77954 L453.9062,696.4843 L457.25113,700.14355 L460.76047,703.7573 L464.43423,707.3257 L468.27243,710.8486 L472.27502,714.326 L476.44208,717.75793 L480.7735,721.1444 L485.26938,724.4855 L489.92297,727.7449 L494.7343,730.92267 L499.70337,734.0188 L504.8302,737.0333 L510.11475,739.96625 L515.557,742.8175 L521.15704,745.58716 L526.9148,748.2752"/>
<path d="M595.2755,17.362202 L595.2755,22.322832 L595.70374,27.578348 L596.5602,33.12875 L597.84485,38.97404 L599.55774,45.11422 L601.69885,51.549282 L604.2682,58.279232 L607.26575,65.30407 L610.6915,72.623795 L614.1318,80.13316 L617.5864,87.83217 L621.05554,95.72081 L624.5391,103.799095 L628.0372,112.06702 L631.5496,120.52458 L635.07654,129.17178 L638.6179,138.00862 L641.91876,146.84497 L644.979,155.68083 L647.79877,164.5162 L650.3779,173.35109 L652.7166,182.18547 L654.8147,191.01938 L656.6723,199.85278 L658.2893,208.6857 L659.6854,217.47014 L660.86066,226.2061 L661.81494,234.89359 L662.54834,243.53258 L663.0608,252.1231 L663.35236,260.66513 L663.42303,269.1587 L663.2728,277.60376 L662.9333,285.95975 L662.4044,294.2266 L661.6863,302.40436 L660.7789,310.49298 L659.6821,318.49252 L658.39606,326.40295 L656.9207,334.22424 L655.2561,341.95645 L653.44495,349.56992 L651.48737,357.06464 L649.38324,364.4406 L647.1327,371.6978 L644.73566,378.8363 L642.19214,385.85605 L639.50214,392.75705 L636.6656,399.53928 L633.73486,406.18823 L630.7098,412.7039 L627.59045,419.0862 L624.37683,425.33527 L621.069,431.45102 L617.66675,437.43344 L614.17035,443.2826 L610.5796,448.9984 L606.9523,454.5851 L603.2884,460.0426 L599.5879,465.37097 L595.8509,470.57016 L592.0772,475.6402 L588.267,480.5811 L584.4202,485.3928 L580.53687,490.07535 L576.6735,494.65216 L572.83014,499.12326 L569.0068,503.48865 L565.2034,507.7483 L561.42004,511.9022 L557.6567,515.9504 L553.91327,519.8928 L550.18994,523.72955 L546.53424,527.49756 L542.94617,531.19684 L539.4258,534.8274 L535.9731,538.3892 L532.588,541.8823 L529.2706,545.3067 L526.02094,548.66235 L522.83887,551.9493 L519.7586,555.20624 L516.78,558.4332 L513.9033,561.6303 L511.1283,564.7974 L508.45505,567.9345 L505.88358,571.0417 L503.41388,574.11896 L501.04593,577.1662 L498.80142,580.2122 L496.68036,583.2569 L494.68274,586.30035 L492.80856,589.3425 L491.05783,592.3835 L489.43054,595.4231 L487.9267,598.4615 L486.54633,601.4986 L485.30304,604.5472 L484.19687,607.60724 L483.2278,610.6788 L482.39584,613.76184 L481.70102,616.8563 L481.1433,619.96234 L480.7227,623.0798 L480.4392,626.20874 L480.30197,629.3464 L480.31097,632.4927 L480.46622,635.64764 L480.76773,638.81134 L481.2155,641.98364 L481.8095,645.1647 L482.54977,648.3543 L483.4363,651.5527 L484.4748,654.7447 L485.66522,657.93036 L487.0076,661.1096 L488.50195,664.28253 L490.1483,667.4491 L491.94653,670.60925 L493.89676,673.76306 L495.99893,676.9105 L498.25485,680.0281 L500.6645,683.1157 L503.22784,686.17346 L505.94492,689.20123 L508.81573,692.19916 L511.84027,695.1671 L515.0185,698.10516 L518.3505,701.01337 L521.833,703.86273 L525.46606,706.6533 L529.2496,709.38513 L533.18365,712.05817 L537.26825,714.6724 L541.50336,717.2279 L545.88904,719.7246 L550.4252,722.16254 L554.84705,724.66016 L559.1546,727.21735 L563.34784,729.8342 L567.42676,732.5107 L571.3914,735.2468 L575.24176,738.0426 L578.9778,740.89795 L582.5995,743.813"/>
<path d="M634.9605,17.362202 L634.9605,22.322832 L634.9605,27.28346 L634.9605,32.24409 L634.9605,37.20472 L634.9605,42.165348 L634.9605,47.125977 L634.9605,52.086605 L634.9605,57.047237 L634.9605,62.007866 L635.4634,67.45603 L636.4691,73.39175 L637.9777,79.815 L639.98926,86.72579 L642.5036,94.12413 L645.5208,102.01001 L649.0409,110.38343 L653.06384,119.244385 L656.8531,128.11197 L660.40875,136.98618 L663.7307,145.86699 L666.819,154.75444 L669.67365,163.6485 L672.2946,172.54918 L674.6819,181.45648 L676.8355,190.3704 L678.7755,199.2447 L680.5018,208.07936 L682.01434,216.87439 L683.31323,225.62979 L684.3985,234.34555 L685.27,243.02168 L685.92786,251.65819 L686.3721,260.25507 L686.6339,268.7736 L686.7135,277.21384 L686.6108,285.57574 L686.3258,293.85938 L685.85846,302.06467 L685.20886,310.19162 L684.37695,318.2403 L683.36273,326.21063 L682.2077,334.07468 L680.9118,341.8324 L679.4751,349.48386 L677.8976,357.02902 L676.17914,364.46786 L674.31995,371.8004 L672.3199,379.02667 L670.17896,386.14664 L667.9463,393.14597 L665.62195,400.0246 L663.2058,406.7826 L660.69794,413.4199 L658.0983,419.93658 L655.407,426.33258 L652.62384,432.6079 L649.749,438.7626 L646.83527,444.79767 L643.8825,450.7131 L640.89087,456.5089 L637.8602,462.1851 L634.79065,467.74167 L631.68207,473.17862 L628.5346,478.4959 L625.34814,483.6936 L622.17395,488.78726 L619.0119,493.77686 L615.8621,498.6624 L612.7245,503.4439 L609.5991,508.12134 L606.48596,512.69476 L603.38495,517.1641 L600.2962,521.5294 L597.2638,525.8161 L594.2877,530.0242 L591.368,534.15356 L588.50464,538.2044 L585.69763,542.1766 L582.94696,546.07007 L580.2526,549.885 L577.6147,553.6213 L575.06683,557.30646 L572.6092,560.9404 L570.24164,564.5233 L567.9643,568.055 L565.77704,571.5356 L563.68,574.96497 L561.67303,578.34326 L559.7563,581.6704 L557.953,584.9681 L556.2633,588.2363 L554.6871,591.47516 L553.22437,594.6845 L551.8752,597.8645 L550.6395,601.015 L549.5174,604.13605 L548.5088,607.22766 L547.6287,610.30096 L546.87726,613.3559 L546.25433,616.39246 L545.75995,619.4107 L545.39417,622.4106 L545.1569,625.3921 L545.0482,628.3552 L545.0681,631.30005 L545.2255,634.2258 L545.5205,637.1326 L545.95306,640.0204 L546.52313,642.8892 L547.2307,645.73895 L548.07587,648.56976 L549.0586,651.3815 L550.17883,654.17426 L551.4408,656.937 L552.8445,659.66986 L554.3899,662.37274 L556.077,665.04565 L557.9058,667.6886 L559.8764,670.3015 L561.98865,672.8846 L564.2426,675.4376 L566.6378,677.9419 L569.1743,680.39746 L571.852,682.8043 L574.67096,685.1624 L577.6311,687.47174 L580.73254,689.73236 L583.9752,691.9443 L587.35913,694.1074 L590.8787,696.1979 L594.5341,698.2156 L598.3252,700.16064 L602.252,702.03296 L606.3145,703.8326 L610.5128,705.5595 L614.8468,707.21375 L619.3165,708.7953 L623.22754,710.7992 L626.57983,713.22546 L629.3734,716.07416 L631.6083,719.3453 L633.28436,723.0387 L634.4018,727.15454 L634.9605,731.6928 L634.9605,736.65344"/>
<path d="M674.64557,17.362202 L674.64557,22.322832 L674.64557,27.28346 L674.64557,32.24409 L674.64557,37.20472 L674.64557,42.165348 L674.64557,47.125977 L674.64557,52.086605 L674.64557,57.047237 L674.64557,62.007866 L674.71356,67.03756 L674.8495,72.136314 L675.05347,77.30413 L675.3254,82.541016 L675.6653,87.84696 L676.0732,93.22198 L676.5491,98.66605 L677.0929,104.17919 L677.9232,110.112915 L679.0399,116.46723 L680.44305,123.24213 L682.13257,130.43762 L684.1086,138.0537 L686.371,146.09036 L688.9198,154.5476 L691.755,163.42546 L694.3845,172.27466 L696.8082,181.09525 L699.02625,189.88719 L701.03845,198.6505 L702.8449,207.3852 L704.4456,216.09123 L705.8405,224.76866 L707.0297,233.41745 L708.043,242.00037 L708.88055,250.51741 L709.5422,258.9686 L710.02795,267.35388 L710.3378,275.6733 L710.4719,283.92685 L710.4302,292.11453 L710.2125,300.23636 L709.8579,308.26492 L709.36633,316.2003 L708.73773,324.0424 L707.9722,331.7913 L707.0697,339.44696 L706.03015,347.00937 L704.8537,354.47858 L703.5402,361.85455 L702.135,369.12183 L700.63806,376.2804 L699.0493,383.3303 L697.36884,390.27148 L695.5966,397.104 L693.7326,403.8278 L691.7769,410.4429 L689.72943,416.94934 L687.6381,423.34424 L685.50305,429.6277 L683.3242,435.7996 L681.10156,441.86002 L678.83514,447.80896 L676.52496,453.6464 L674.17096,459.3723 L671.77313,464.98676 L669.378,470.4983 L666.98553,475.9069 L664.59564,481.21262 L662.20844,486.41544 L659.82385,491.51532 L657.4419,496.51233 L655.0626,501.4064 L652.686,506.1976 L650.35284,510.9022 L648.06323,515.5202 L645.8171,520.0516 L643.6145,524.4964 L641.45544,528.8546 L639.33984,533.1263 L637.2678,537.31134 L635.23926,541.4098 L633.2869,545.4403 L631.41077,549.40283 L629.6108,553.2974 L627.887,557.1241 L626.2395,560.8828 L624.66815,564.57355 L623.173,568.1964 L621.754,571.7512 L620.43506,575.25366 L619.2162,578.7037 L618.0973,582.1012 L617.0784,585.44635 L616.1596,588.739 L615.3408,591.97925 L614.622,595.16705 L614.0033,598.3024 L613.50037,601.39386 L613.11334,604.44147 L612.8421,607.4451 L612.6867,610.40485 L612.64716,613.3207 L612.72345,616.1926 L612.9156,619.0207 L613.2236,621.8048 L613.6565,624.5451 L614.2144,627.2414 L614.8973,629.89386 L615.70514,632.5024 L616.63794,635.067 L617.6957,637.5877 L618.8784,640.0646 L620.18616,642.4975 L621.62225,644.87836 L623.18677,647.20715 L624.8797,649.4839 L626.70105,651.70856 L628.6508,653.88116 L630.72894,656.0017 L632.93555,658.0702 L635.2705,660.0867 L637.73206,662.0362 L640.32025,663.91895 L643.0351,665.7348 L645.87646,667.48376 L648.8445,669.1659 L651.9391,670.7811 L655.1603,672.3295 L658.5081,673.81104 L661.50653,675.6595 L664.1555,677.8748 L666.4551,680.4571 L668.4053,683.40625 L670.00604,686.7223 L671.2574,690.4053 L672.1593,694.45514 L672.7118,698.8719 L673.19525,703.3566 L673.6096,707.90936 L673.95496,712.5301 L674.2312,717.2188 L674.43835,721.97546 L674.5765,726.8002 L674.64557,731.6928 L674.64557,736.65344"/>
<path d="M714.3306,17.362202 L714.3306,22.322832 L714.3306,27.28346 L714.3306,32.24409 L714.3306,37.20472 L714.3306,42.165348 L714.3306,47.125977 L714.3306,52.086605 L714.3306,57.047237 L714.3306,62.007866 L714.3306,66.96849 L714.3306,71.92912 L714.3306,76.889755 L714.3306,81.85038 L714.3306,86.81101 L714.3306,91.77164 L714.3306,96.73227 L714.3306,101.6929 L714.3306,106.65353 L714.3306,111.61416 L714.3306,116.57478 L714.3306,121.535416 L714.3306,126.49605 L714.3306,131.45668 L714.3306,136.4173 L714.3306,141.37793 L714.5863,146.79128 L715.0977,152.65733 L715.8648,158.9761 L716.8876,165.7476 L718.1661,172.9718 L719.70026,180.64873 L721.4902,188.77837 L723.53577,197.3607 L725.4114,205.89053 L727.1169,214.36781 L728.65247,222.79257 L730.018,231.16481 L731.2135,239.4845 L732.239,247.75166 L733.0945,255.96631 L733.7799,264.12842 L734.33093,272.21054 L734.7474,280.21268 L735.0294,288.13486 L735.1769,295.97708 L735.18994,303.7393 L735.0685,311.42154 L734.8125,319.0238 L734.42206,326.54608 L733.9382,333.9712 L733.3607,341.2991 L732.6899,348.5298 L731.9255,355.6633 L731.0676,362.69962 L730.11633,369.6387 L729.07153,376.48062 L727.9332,383.22534 L726.74475,389.86615 L725.5061,396.403 L724.2172,402.836 L722.8782,409.16504 L721.48895,415.39017 L720.0495,421.51138 L718.5599,427.52866 L717.02,433.44205 L715.4721,439.25403 L713.916,444.96463 L712.3518,450.57385 L710.7795,456.08167 L709.19904,461.48813 L707.6105,466.79318 L706.01373,471.99686 L704.40894,477.09912 L702.8336,482.109 L701.28784,487.02643 L699.7716,491.85147 L698.2849,496.58408 L696.8277,501.22424 L695.4001,505.772 L694.00195,510.22736 L692.63336,514.5903 L691.3253,518.8723 L690.0778,523.0734 L688.8909,527.19366 L687.7645,531.233 L686.69867,535.1914 L685.6934,539.069 L684.74866,542.8656 L683.8645,546.58136 L683.0643,550.2263 L682.3481,553.8006 L681.7158,557.3041 L681.1676,560.73676 L680.70337,564.09875 L680.32306,567.38995 L680.0268,570.61035 L679.8145,573.7601 L679.7022,576.8447 L679.6898,579.86444 L679.77747,582.81903 L679.965,585.7087 L680.25256,588.5333 L680.64014,591.2929 L681.1276,593.9875 L681.7151,596.61707 L682.41174,599.1814 L683.2175,601.6805 L684.1325,604.1143 L685.1566,606.483 L686.29,608.7863 L687.5325,611.0245 L688.8841,613.1973 L690.3449,615.305 L691.918,617.34106 L693.60345,619.3055 L695.4011,621.1983 L697.3111,623.0196 L699.3333,624.7692 L701.46783,626.44727 L703.71466,628.0537 L706.0738,629.58856 L708.138,631.55164 L709.9073,633.94293 L711.3817,636.76245 L712.5613,640.0102 L713.4459,643.68616 L714.0357,647.79034 L714.3306,652.32275 L714.3306,657.2834 L714.3306,662.244 L714.3306,667.20465 L714.3306,672.1653 L714.3306,677.12585 L714.3306,682.0865 L714.3306,687.0471 L714.3306,692.00775 L714.3306,696.9684 L714.3306,701.929 L714.3306,706.88965 L714.3306,711.8503 L714.3306,716.8109 L714.3306,721.77155 L714.3306,726.7322 L714.3306,731.6928 L714.3306,736.65344"/>
<path d="M754.0156,17.362202 L754.0156,22.322832 L754.0156,27.28346 L754.0156,32.24409 L754.0156,37.20472 L754.0156,42.165348 L754.0156,47.125977 L754.0156,52.086605 L754.0156,57.047237 L754.0156,62.007866 L754.0156,66.96849 L754.0156,71.92912 L754.0156,76.889755 L754.0156,81.85038 L754.0156,86.81101 L754.0156,91.77164 L754.0156,96.73227 L754.0156,101.6929 L754.0156,106.65353 L754.0156,111.61416 L754.0156,116.57478 L754.0156,121.535416 L754.0156,126.49605 L754.0156,131.45668 L754.0156,136.4173 L754.0156,141.37793 L754.0156,146.33856 L754.0156,151.2992 L754.0156,156.25983 L754.0156,161.22044 L754.0156,166.18108 L754.0156,171.14171 L754.0156,176.10234 L754.0156,181.06296 L754.07294,186.15677 L754.18756,191.38376 L754.3595,196.74393 L754.5887,202.23729 L754.87524,207.86382 L755.2191,213.62352 L755.62024,219.51642 L756.07874,225.54248 L756.55426,231.7576 L757.0468,238.16176 L757.5564,244.75496 L758.08307,251.5372 L758.6268,258.50848 L759.18756,265.66882 L759.7654,273.0182 L760.3602,280.5566 L760.8589,288.00916 L761.2612,295.37582 L761.5673,302.65662 L761.7772,309.85153 L761.8908,316.9606 L761.90814,323.9838 L761.8292,330.92108 L761.65405,337.77252 L761.4213,344.5277 L761.1311,351.1866 L760.7834,357.74927 L760.3781,364.21564 L759.9153,370.5858 L759.39496,376.85962 L758.81714,383.03723 L758.18176,389.11856 L757.52673,395.10098 L756.8521,400.98447 L756.15784,406.76904 L755.4439,412.45474 L754.7104,418.04147 L753.95715,423.52933 L753.1844,428.91824 L752.3919,434.20825 L751.61426,439.4023 L750.8513,444.50037 L750.1032,449.50247 L749.3698,454.40857 L748.65125,459.21872 L747.94745,463.9329 L747.2584,468.55112 L746.5841,473.07333 L745.9536,477.5053 L745.3668,481.847 L744.8237,486.0984 L744.3244,490.25952 L743.86884,494.33035 L743.457,498.31094 L743.08887,502.20123 L742.76447,506.00125 L742.5063,509.71652 L742.3142,513.34705 L742.1884,516.8929 L742.1287,520.35394 L742.13525,523.7302 L742.2079,527.02185 L742.3468,530.22864 L742.5518,533.35077 L742.8387,536.3911 L743.2074,539.3498 L743.6579,542.2267 L744.19025,545.0219 L744.80444,547.73535 L745.5004,550.3671 L746.27826,552.9172 L747.1379,555.38544 L747.9505,558.0335 L748.7162,560.8613 L749.4348,563.86896 L750.10645,567.0563 L750.7311,570.42334 L751.3087,573.9702 L751.8393,577.69684 L752.32294,581.6032 L752.7461,585.64136 L753.1088,589.8113 L753.41113,594.11304 L753.6529,598.5465 L753.8343,603.1118 L753.9552,607.80884 L754.0156,612.6377 L754.0156,617.5983 L754.0156,622.55896 L754.0156,627.5196 L754.0156,632.4802 L754.0156,637.44086 L754.0156,642.4015 L754.0156,647.3621 L754.0156,652.32275 L754.0156,657.2834 L754.0156,662.244 L754.0156,667.20465 L754.0156,672.1653 L754.0156,677.12585 L754.0156,682.0865 L754.0156,687.0471 L754.0156,692.00775 L754.0156,696.9684 L754.0156,701.929 L754.0156,706.88965 L754.0156,711.8503 L754.0156,716.8109 L754.0156,721.77155 L754.0156,726.7322 L754.0156,731.6928 L754.0156,736.65344"/>
</g>
<g fill="none" id="layer2" inkscape:groupmode="layer" inkscape:label="2" stroke="black" stroke-width="0.5mm"/>
<g fill="none" id="layer3" inkscape:groupmode="layer" inkscape:label="3" stroke="black" stroke-width="0.5mm"/>
<g fill="none" id="layer4" inkscape:groupmode="layer" inkscape:label="4" stroke="black" stroke-width="0.5mm"/>
<g fill="none" id="layer5" inkscape:groupmode="layer" inkscape:label="5" stroke="black" stroke-width="0.5mm"/>
<g fill="none" id="layer6" inkscape:groupmode="layer" inkscape:label="6" stroke="black" stroke-width="0.5mm"/>
<g fill="none" id="layer7" inkscape:groupmode="layer" inkscape:label="7" stroke="black" stroke-width="0.5mm"/>
<g fill="none" id="layer8" inkscape:groupmode="layer" inkscape:label="8" stroke="black" stroke-width="0.5mm"/>
<g fill="none" id="layer9" inkscape:groupmode="layer" inkscape:label="9" stroke="black" stroke-width="0.5mm"/>
<g fill="none" id="layer10" inkscape:groupmode="layer" inkscape:label="10" stroke="black" stroke-width="0.5mm"/>
<g fill="none" id="layer11" inkscape:groupmode="layer" inkscape:label="11" stroke="black" stroke-width="0.5mm">
<rect height="1123.1999999999998" width="796.8000000000001" x="0" y="0"/>
</g>
</svg>