<?xml version="1.0" encoding="utf-8" ?>
<svg xmlns="http://www.w3.org/2000/svg" xmlns:cc="http://creativecommons.org/ns" xmlns:dc="http://purl.org/dc/elements/1.1/" xmlns:ev="http://www.w3.org/2001/xml-events" xmlns:inkscape="http://www.inkscape.org/namespaces/inkscape" xmlns:rdf="http://www.w3.org/1999/02/22-rdf-syntax-ns" xmlns:sodipodi="http://sodipodi.sourceforge.net/DTD/sodipodi-0.dtd" xmlns:xlink="http://www.w3.org/1999/xlink" baseProfile="tiny" height="10.16cm" version="1.2" viewBox="0 0 576.0 384.0" width="15.24cm">
  <metadata>
    <rdf:RDF>
      <cc:Work>
        <dc:format>image/svg+xml</dc:format>
        <dc:source>vpype read samples/hexagons_1.svg linemerge --tolerance 0.1mm linesort reloop linesimplify write samples/hexagons_1_opt.svg
</dc:source>
        <dc:date>2024-07-01T22:00:01.692174</dc:date>
      </cc:Work>
    </rdf:RDF>
  </metadata>
  <defs/>
  <g fill="none" id="layer2" inkscape:groupmode="layer" inkscape:label="2" stroke="#2a9492" stroke-opacity="0.902" stroke-width="3.7795" style="display:inline">
    <line x1="284.7268" x2="291.2732" y1="165.1654" y2="165.1654"/>
    <line x1="297.8195" x2="278.1805" y1="168.9449" y2="168.9449"/>
    <line x1="271.6342" x2="304.3658" y1="172.7244" y2="172.7244"/>
    <line x1="310.9122" x2="265.0878" y1="176.5039" y2="176.5039"/>
    <line x1="263.1239" x2="312.8761" y1="180.2835" y2="180.2835"/>
    <line x1="312.8761" x2="263.1239" y1="184.063" y2="184.063"/>
    <line x1="263.1239" x2="312.8761" y1="187.8425" y2="187.8425"/>
    <line x1="312.8761" x2="263.1239" y1="191.622" y2="191.622"/>
    <line x1="263.1239" x2="312.8761" y1="195.4016" y2="195.4016"/>
    <line x1="312.8761" x2="263.1239" y1="199.1811" y2="199.1811"/>
    <line x1="263.1239" x2="312.8761" y1="202.9606" y2="202.9606"/>
    <line x1="312.2214" x2="263.7786" y1="206.7402" y2="206.7402"/>
    <line x1="270.3249" x2="305.6751" y1="210.5197" y2="210.5197"/>
    <line x1="299.1288" x2="276.8712" y1="214.2992" y2="214.2992"/>
    <line x1="283.4176" x2="292.5824" y1="218.0787" y2="218.0787"/>
    <line x1="296.1829" x2="342.0072" y1="230.3622" y2="230.3622"/>
    <line x1="343.9711" x2="294.219" y1="234.1417" y2="234.1417"/>
    <line x1="294.219" x2="343.9711" y1="237.9212" y2="237.9212"/>
    <line x1="343.9711" x2="294.219" y1="241.7008" y2="241.7008"/>
    <line x1="294.219" x2="343.9711" y1="245.4803" y2="245.4803"/>
    <line x1="343.9711" x2="294.219" y1="249.2598" y2="249.2598"/>
    <line x1="294.219" x2="343.9711" y1="253.0394" y2="253.0394"/>
    <line x1="343.9711" x2="294.219" y1="256.8189" y2="256.8189"/>
    <line x1="294.8737" x2="343.3165" y1="260.5984" y2="260.5984"/>
    <line x1="336.7702" x2="301.42" y1="264.3779" y2="264.3779"/>
    <line x1="307.9663" x2="330.2239" y1="268.1575" y2="268.1575"/>
    <line x1="323.6775" x2="314.5126" y1="271.937" y2="271.937"/>
    <line x1="310.9122" x2="265.0878" y1="284.2205" y2="284.2205"/>
    <line x1="263.1239" x2="312.8761" y1="288.0" y2="288.0"/>
    <line x1="312.8761" x2="263.1239" y1="291.7795" y2="291.7795"/>
    <line x1="263.1239" x2="312.8761" y1="295.559" y2="295.559"/>
    <line x1="312.8761" x2="263.1239" y1="299.3386" y2="299.3386"/>
    <line x1="263.1239" x2="312.8761" y1="303.1181" y2="303.1181"/>
    <line x1="312.8761" x2="263.1239" y1="306.8976" y2="306.8976"/>
    <line x1="263.1239" x2="312.8761" y1="310.6772" y2="310.6772"/>
    <line x1="312.2214" x2="263.7786" y1="314.4567" y2="314.4567"/>
    <line x1="270.3249" x2="305.6751" y1="318.2362" y2="318.2362"/>
    <line x1="299.1288" x2="276.8712" y1="322.0157" y2="322.0157"/>
    <line x1="283.4176" x2="292.5824" y1="325.7953" y2="325.7953"/>
    <line x1="325.9687" x2="374.4116" y1="314.4567" y2="314.4567"/>
    <line x1="375.0662" x2="325.3141" y1="310.6772" y2="310.6772"/>
    <line x1="325.3141" x2="375.0662" y1="306.8976" y2="306.8976"/>
    <line x1="375.0662" x2="325.3141" y1="303.1181" y2="303.1181"/>
    <line x1="325.3141" x2="375.0662" y1="299.3386" y2="299.3386"/>
    <line x1="375.0662" x2="325.3141" y1="295.559" y2="295.559"/>
    <line x1="325.3141" x2="375.0662" y1="291.7795" y2="291.7795"/>
    <line x1="375.0662" x2="325.3141" y1="288.0" y2="288.0"/>
    <line x1="327.278" x2="373.1023" y1="284.2205" y2="284.2205"/>
    <line x1="366.556" x2="333.8243" y1="280.4409" y2="280.4409"/>
    <line x1="340.3707" x2="360.0097" y1="276.6614" y2="276.6614"/>
    <line x1="353.4633" x2="346.917" y1="272.8819" y2="272.8819"/>
    <line x1="357.0638" x2="405.5067" y1="260.5984" y2="260.5984"/>
    <line x1="406.1613" x2="356.4092" y1="256.8189" y2="256.8189"/>
    <line x1="356.4092" x2="406.1613" y1="253.0394" y2="253.0394"/>
    <line x1="406.1613" x2="356.4092" y1="249.2598" y2="249.2598"/>
    <line x1="356.4092" x2="406.1613" y1="245.4803" y2="245.4803"/>
    <line x1="406.1613" x2="356.4092" y1="241.7008" y2="241.7008"/>
    <line x1="356.4092" x2="406.1613" y1="237.9212" y2="237.9212"/>
    <line x1="406.1613" x2="356.4092" y1="234.1417" y2="234.1417"/>
    <line x1="358.3731" x2="404.1974" y1="230.3622" y2="230.3622"/>
    <line x1="397.6511" x2="364.9194" y1="226.5827" y2="226.5827"/>
    <line x1="371.4657" x2="391.1047" y1="222.8032" y2="222.8032"/>
    <line x1="384.5584" x2="378.0121" y1="219.0236" y2="219.0236"/>
    <line x1="374.4116" x2="325.9687" y1="206.7402" y2="206.7402"/>
    <line x1="325.3141" x2="375.0662" y1="202.9606" y2="202.9606"/>
    <line x1="375.0662" x2="325.3141" y1="199.1811" y2="199.1811"/>
    <line x1="325.3141" x2="375.0662" y1="195.4016" y2="195.4016"/>
    <line x1="375.0662" x2="325.3141" y1="191.622" y2="191.622"/>
    <line x1="325.3141" x2="375.0662" y1="187.8425" y2="187.8425"/>
    <line x1="375.0662" x2="325.3141" y1="184.063" y2="184.063"/>
    <line x1="325.3141" x2="375.0662" y1="180.2835" y2="180.2835"/>
    <line x1="373.1023" x2="327.278" y1="176.5039" y2="176.5039"/>
    <line x1="333.8243" x2="366.556" y1="172.7244" y2="172.7244"/>
    <line x1="360.0097" x2="340.3707" y1="168.9449" y2="168.9449"/>
    <line x1="346.917" x2="353.4633" y1="165.1654" y2="165.1654"/>
    <line x1="357.0638" x2="405.5067" y1="152.8819" y2="152.8819"/>
    <line x1="406.1613" x2="356.4092" y1="149.1024" y2="149.1024"/>
    <line x1="356.4092" x2="406.1613" y1="145.3228" y2="145.3228"/>
    <line x1="406.1613" x2="356.4092" y1="141.5433" y2="141.5433"/>
    <line x1="356.4092" x2="406.1613" y1="137.7638" y2="137.7638"/>
    <line x1="406.1613" x2="356.4092" y1="133.9842" y2="133.9842"/>
    <line x1="356.4092" x2="406.1613" y1="130.2047" y2="130.2047"/>
    <line x1="406.1613" x2="356.4092" y1="126.4252" y2="126.4252"/>
    <line x1="358.3731" x2="404.1974" y1="122.6457" y2="122.6457"/>
    <line x1="397.6511" x2="364.9194" y1="118.8662" y2="118.8662"/>
    <line x1="371.4657" x2="391.1047" y1="115.0866" y2="115.0866"/>
    <line x1="384.5584" x2="378.0121" y1="111.3071" y2="111.3071"/>
    <line x1="374.4116" x2="325.9687" y1="99.0236" y2="99.0236"/>
    <line x1="325.3141" x2="375.0662" y1="95.2441" y2="95.2441"/>
    <line x1="375.0662" x2="325.3141" y1="91.4646" y2="91.4646"/>
    <line x1="325.3141" x2="375.0662" y1="87.6851" y2="87.6851"/>
    <line x1="375.0662" x2="325.3141" y1="83.9055" y2="83.9055"/>
    <line x1="325.3141" x2="375.0662" y1="80.126" y2="80.126"/>
    <line x1="375.0662" x2="325.3141" y1="76.3465" y2="76.3465"/>
    <line x1="325.3141" x2="375.0662" y1="72.567" y2="72.567"/>
    <line x1="373.1023" x2="327.278" y1="68.7874" y2="68.7874"/>
    <line x1="333.8243" x2="366.556" y1="65.0079" y2="65.0079"/>
    <line x1="360.0097" x2="340.3707" y1="61.2284" y2="61.2284"/>
    <line x1="346.917" x2="353.4633" y1="57.4488" y2="57.4488"/>
    <line x1="312.8761" x2="263.1239" y1="72.567" y2="72.567"/>
    <line x1="263.1239" x2="312.8761" y1="76.3465" y2="76.3465"/>
    <line x1="312.8761" x2="263.1239" y1="80.126" y2="80.126"/>
    <line x1="263.1239" x2="312.8761" y1="83.9055" y2="83.9055"/>
    <line x1="312.8761" x2="263.1239" y1="87.6851" y2="87.6851"/>
    <line x1="263.1239" x2="312.8761" y1="91.4646" y2="91.4646"/>
    <line x1="312.8761" x2="263.1239" y1="95.2441" y2="95.2441"/>
    <line x1="263.7786" x2="312.2214" y1="99.0236" y2="99.0236"/>
    <line x1="305.6751" x2="270.3249" y1="102.8032" y2="102.8032"/>
    <line x1="276.8712" x2="299.1288" y1="106.5827" y2="106.5827"/>
    <line x1="292.5824" x2="283.4176" y1="110.3622" y2="110.3622"/>
    <line x1="279.8171" x2="233.9928" y1="122.6457" y2="122.6457"/>
    <line x1="232.0288" x2="281.781" y1="126.4252" y2="126.4252"/>
    <line x1="281.781" x2="232.0288" y1="130.2047" y2="130.2047"/>
    <line x1="232.0288" x2="281.781" y1="133.9842" y2="133.9842"/>
    <line x1="281.781" x2="232.0288" y1="137.7638" y2="137.7638"/>
    <line x1="232.0288" x2="281.781" y1="141.5433" y2="141.5433"/>
    <line x1="281.781" x2="232.0288" y1="145.3228" y2="145.3228"/>
    <line x1="232.0288" x2="281.781" y1="149.1024" y2="149.1024"/>
    <line x1="281.1263" x2="232.6835" y1="152.8819" y2="152.8819"/>
    <line x1="239.2298" x2="274.58" y1="156.6614" y2="156.6614"/>
    <line x1="268.0337" x2="245.7762" y1="160.4409" y2="160.4409"/>
    <line x1="252.3225" x2="261.4874" y1="164.2205" y2="164.2205"/>
    <line x1="248.722" x2="202.8977" y1="176.5039" y2="176.5039"/>
    <line x1="200.9338" x2="250.6859" y1="180.2835" y2="180.2835"/>
    <line x1="250.6859" x2="200.9338" y1="184.063" y2="184.063"/>
    <line x1="200.9338" x2="250.6859" y1="187.8425" y2="187.8425"/>
    <line x1="250.6859" x2="200.9338" y1="191.622" y2="191.622"/>
    <line x1="200.9338" x2="250.6859" y1="195.4016" y2="195.4016"/>
    <line x1="250.6859" x2="200.9338" y1="199.1811" y2="199.1811"/>
    <line x1="200.9338" x2="250.6859" y1="202.9606" y2="202.9606"/>
    <line x1="250.0313" x2="201.5884" y1="206.7402" y2="206.7402"/>
    <line x1="208.1347" x2="243.4849" y1="210.5197" y2="210.5197"/>
    <line x1="236.9386" x2="214.6811" y1="214.2992" y2="214.2992"/>
    <line x1="221.2274" x2="230.3923" y1="218.0787" y2="218.0787"/>
    <line x1="233.9928" x2="279.8171" y1="230.3622" y2="230.3622"/>
    <line x1="281.781" x2="232.0288" y1="234.1417" y2="234.1417"/>
    <line x1="232.0288" x2="281.781" y1="237.9212" y2="237.9212"/>
    <line x1="281.781" x2="232.0288" y1="241.7008" y2="241.7008"/>
    <line x1="232.0288" x2="281.781" y1="245.4803" y2="245.4803"/>
    <line x1="281.781" x2="232.0288" y1="249.2598" y2="249.2598"/>
    <line x1="232.0288" x2="281.781" y1="253.0394" y2="253.0394"/>
    <line x1="281.781" x2="232.0288" y1="256.8189" y2="256.8189"/>
    <line x1="232.6835" x2="281.1263" y1="260.5984" y2="260.5984"/>
    <line x1="274.58" x2="239.2298" y1="264.3779" y2="264.3779"/>
    <line x1="245.7762" x2="268.0337" y1="268.1575" y2="268.1575"/>
    <line x1="261.4874" x2="252.3225" y1="271.937" y2="271.937"/>
    <line x1="248.722" x2="202.8977" y1="284.2205" y2="284.2205"/>
    <line x1="200.9338" x2="250.6859" y1="288.0" y2="288.0"/>
    <line x1="250.6859" x2="200.9338" y1="291.7795" y2="291.7795"/>
    <line x1="200.9338" x2="250.6859" y1="295.559" y2="295.559"/>
    <line x1="250.6859" x2="200.9338" y1="299.3386" y2="299.3386"/>
    <line x1="200.9338" x2="250.6859" y1="303.1181" y2="303.1181"/>
    <line x1="250.6859" x2="200.9338" y1="306.8976" y2="306.8976"/>
    <line x1="200.9338" x2="250.6859" y1="310.6772" y2="310.6772"/>
    <line x1="250.0313" x2="201.5884" y1="314.4567" y2="314.4567"/>
    <line x1="208.1347" x2="243.4849" y1="318.2362" y2="318.2362"/>
    <line x1="236.9386" x2="214.6811" y1="322.0157" y2="322.0157"/>
    <line x1="221.2274" x2="230.3923" y1="325.7953" y2="325.7953"/>
    <line x1="242.1757" x2="209.444" y1="280.4409" y2="280.4409"/>
    <line x1="215.9903" x2="235.6293" y1="276.6614" y2="276.6614"/>
    <line x1="229.083" x2="222.5367" y1="272.8819" y2="272.8819"/>
    <line x1="218.9362" x2="170.4933" y1="260.5984" y2="260.5984"/>
    <line x1="169.8387" x2="219.5908" y1="256.8189" y2="256.8189"/>
    <line x1="219.5908" x2="169.8387" y1="253.0394" y2="253.0394"/>
    <line x1="169.8387" x2="219.5908" y1="249.2598" y2="249.2598"/>
    <line x1="219.5908" x2="169.8387" y1="245.4803" y2="245.4803"/>
    <line x1="169.8387" x2="219.5908" y1="241.7008" y2="241.7008"/>
    <line x1="219.5908" x2="169.8387" y1="237.9212" y2="237.9212"/>
    <line x1="169.8387" x2="219.5908" y1="234.1417" y2="234.1417"/>
    <line x1="217.6269" x2="171.8026" y1="230.3622" y2="230.3622"/>
    <line x1="178.3489" x2="211.0806" y1="226.5827" y2="226.5827"/>
    <line x1="204.5343" x2="184.8953" y1="222.8032" y2="222.8032"/>
    <line x1="191.4416" x2="197.9879" y1="219.0236" y2="219.0236"/>
    <line x1="187.8411" x2="139.3982" y1="206.7402" y2="206.7402"/>
    <line x1="138.7436" x2="188.4957" y1="202.9606" y2="202.9606"/>
    <line x1="188.4957" x2="138.7436" y1="199.1811" y2="199.1811"/>
    <line x1="138.7436" x2="188.4957" y1="195.4016" y2="195.4016"/>
    <line x1="188.4957" x2="138.7436" y1="191.622" y2="191.622"/>
    <line x1="138.7436" x2="188.4957" y1="187.8425" y2="187.8425"/>
    <line x1="188.4957" x2="138.7436" y1="184.063" y2="184.063"/>
    <line x1="138.7436" x2="188.4957" y1="180.2835" y2="180.2835"/>
    <line x1="186.5318" x2="140.7075" y1="176.5039" y2="176.5039"/>
    <line x1="147.2538" x2="179.9855" y1="172.7244" y2="172.7244"/>
    <line x1="173.4392" x2="153.8002" y1="168.9449" y2="168.9449"/>
    <line x1="160.3465" x2="166.8928" y1="165.1654" y2="165.1654"/>
    <line x1="170.4933" x2="218.9362" y1="152.8819" y2="152.8819"/>
    <line x1="219.5908" x2="169.8387" y1="149.1024" y2="149.1024"/>
    <line x1="169.8387" x2="219.5908" y1="145.3228" y2="145.3228"/>
    <line x1="219.5908" x2="169.8387" y1="141.5433" y2="141.5433"/>
    <line x1="169.8387" x2="219.5908" y1="137.7638" y2="137.7638"/>
    <line x1="219.5908" x2="169.8387" y1="133.9842" y2="133.9842"/>
    <line x1="169.8387" x2="219.5908" y1="130.2047" y2="130.2047"/>
    <line x1="219.5908" x2="169.8387" y1="126.4252" y2="126.4252"/>
    <line x1="171.8026" x2="217.6269" y1="122.6457" y2="122.6457"/>
    <line x1="211.0806" x2="178.3489" y1="118.8662" y2="118.8662"/>
    <line x1="184.8953" x2="204.5343" y1="115.0866" y2="115.0866"/>
    <line x1="197.9879" x2="191.4416" y1="111.3071" y2="111.3071"/>
    <line x1="201.5884" x2="250.0313" y1="99.0236" y2="99.0236"/>
    <line x1="250.6859" x2="200.9338" y1="95.2441" y2="95.2441"/>
    <line x1="200.9338" x2="250.6859" y1="91.4646" y2="91.4646"/>
    <line x1="250.6859" x2="200.9338" y1="87.6851" y2="87.6851"/>
    <line x1="200.9338" x2="250.6859" y1="83.9055" y2="83.9055"/>
    <line x1="250.6859" x2="200.9338" y1="80.126" y2="80.126"/>
    <line x1="200.9338" x2="250.6859" y1="76.3465" y2="76.3465"/>
    <line x1="250.6859" x2="200.9338" y1="72.567" y2="72.567"/>
    <line x1="202.8977" x2="248.722" y1="68.7874" y2="68.7874"/>
    <line x1="242.1757" x2="209.444" y1="65.0079" y2="65.0079"/>
    <line x1="215.9903" x2="235.6293" y1="61.2284" y2="61.2284"/>
    <line x1="229.083" x2="222.5367" y1="57.4488" y2="57.4488"/>
    <line x1="265.0878" x2="310.9122" y1="68.7874" y2="68.7874"/>
    <line x1="304.3658" x2="271.6342" y1="65.0079" y2="65.0079"/>
    <line x1="278.1805" x2="297.8195" y1="61.2284" y2="61.2284"/>
    <line x1="291.2732" x2="284.7268" y1="57.4488" y2="57.4488"/>
    <line x1="260.1781" x2="253.6318" y1="111.3071" y2="111.3071"/>
    <line x1="247.0854" x2="266.7244" y1="115.0866" y2="115.0866"/>
    <line x1="273.2708" x2="240.5391" y1="118.8662" y2="118.8662"/>
    <line x1="236.9386" x2="214.6811" y1="106.5827" y2="106.5827"/>
    <line x1="221.2274" x2="230.3923" y1="110.3622" y2="110.3622"/>
    <line x1="243.4849" x2="208.1347" y1="102.8032" y2="102.8032"/>
    <line x1="212.3899" x2="177.0397" y1="156.6614" y2="156.6614"/>
    <line x1="183.586" x2="205.8435" y1="160.4409" y2="160.4409"/>
    <line x1="199.2972" x2="190.1323" y1="164.2205" y2="164.2205"/>
    <line x1="209.444" x2="242.1757" y1="172.7244" y2="172.7244"/>
    <line x1="235.6293" x2="215.9903" y1="168.9449" y2="168.9449"/>
    <line x1="222.5367" x2="229.083" y1="165.1654" y2="165.1654"/>
    <line x1="253.6318" x2="260.1781" y1="219.0236" y2="219.0236"/>
    <line x1="266.7244" x2="247.0854" y1="222.8032" y2="222.8032"/>
    <line x1="240.5391" x2="273.2708" y1="226.5827" y2="226.5827"/>
    <line x1="302.7292" x2="335.4609" y1="226.5827" y2="226.5827"/>
    <line x1="328.9146" x2="309.2756" y1="222.8032" y2="222.8032"/>
    <line x1="315.8219" x2="322.3683" y1="219.0236" y2="219.0236"/>
    <line x1="332.5151" x2="367.8653" y1="210.5197" y2="210.5197"/>
    <line x1="361.3189" x2="339.0614" y1="214.2992" y2="214.2992"/>
    <line x1="345.6077" x2="354.7726" y1="218.0787" y2="218.0787"/>
    <line x1="388.1589" x2="436.6018" y1="206.7402" y2="206.7402"/>
    <line x1="437.2564" x2="387.5043" y1="202.9606" y2="202.9606"/>
    <line x1="387.5043" x2="437.2564" y1="199.1811" y2="199.1811"/>
    <line x1="437.2564" x2="387.5043" y1="195.4016" y2="195.4016"/>
    <line x1="387.5043" x2="437.2564" y1="191.622" y2="191.622"/>
    <line x1="437.2564" x2="387.5043" y1="187.8425" y2="187.8425"/>
    <line x1="387.5043" x2="437.2564" y1="184.063" y2="184.063"/>
    <line x1="437.2564" x2="387.5043" y1="180.2835" y2="180.2835"/>
    <line x1="389.4682" x2="435.2925" y1="176.5039" y2="176.5039"/>
    <line x1="428.7462" x2="396.0145" y1="172.7244" y2="172.7244"/>
    <line x1="402.5608" x2="422.1998" y1="168.9449" y2="168.9449"/>
    <line x1="415.6535" x2="409.1072" y1="165.1654" y2="165.1654"/>
    <line x1="398.9603" x2="363.6101" y1="156.6614" y2="156.6614"/>
    <line x1="370.1565" x2="392.414" y1="160.4409" y2="160.4409"/>
    <line x1="385.8677" x2="376.7028" y1="164.2205" y2="164.2205"/>
    <line x1="343.3165" x2="294.8737" y1="152.8819" y2="152.8819"/>
    <line x1="294.219" x2="343.9711" y1="149.1024" y2="149.1024"/>
    <line x1="343.9711" x2="294.219" y1="145.3228" y2="145.3228"/>
    <line x1="294.219" x2="343.9711" y1="141.5433" y2="141.5433"/>
    <line x1="343.9711" x2="294.219" y1="137.7638" y2="137.7638"/>
    <line x1="294.219" x2="343.9711" y1="133.9842" y2="133.9842"/>
    <line x1="343.9711" x2="294.219" y1="130.2047" y2="130.2047"/>
    <line x1="294.219" x2="343.9711" y1="126.4252" y2="126.4252"/>
    <line x1="342.0072" x2="296.1829" y1="122.6457" y2="122.6457"/>
    <line x1="302.7292" x2="335.4609" y1="118.8662" y2="118.8662"/>
    <line x1="328.9146" x2="309.2756" y1="115.0866" y2="115.0866"/>
    <line x1="315.8219" x2="322.3683" y1="111.3071" y2="111.3071"/>
    <line x1="332.5151" x2="367.8653" y1="102.8032" y2="102.8032"/>
    <line x1="361.3189" x2="339.0614" y1="106.5827" y2="106.5827"/>
    <line x1="345.6077" x2="354.7726" y1="110.3622" y2="110.3622"/>
    <line x1="336.7702" x2="301.42" y1="156.6614" y2="156.6614"/>
    <line x1="307.9663" x2="330.2239" y1="160.4409" y2="160.4409"/>
    <line x1="323.6775" x2="314.5126" y1="164.2205" y2="164.2205"/>
    <line x1="394.7052" x2="430.0554" y1="210.5197" y2="210.5197"/>
    <line x1="423.5091" x2="401.2516" y1="214.2992" y2="214.2992"/>
    <line x1="407.7979" x2="416.9628" y1="218.0787" y2="218.0787"/>
    <line x1="398.9603" x2="363.6101" y1="264.3779" y2="264.3779"/>
    <line x1="370.1565" x2="392.414" y1="268.1575" y2="268.1575"/>
    <line x1="385.8677" x2="376.7028" y1="271.937" y2="271.937"/>
    <line x1="367.8653" x2="332.5151" y1="318.2362" y2="318.2362"/>
    <line x1="339.0614" x2="361.3189" y1="322.0157" y2="322.0157"/>
    <line x1="354.7726" x2="345.6077" y1="325.7953" y2="325.7953"/>
    <line x1="304.3658" x2="271.6342" y1="280.4409" y2="280.4409"/>
    <line x1="278.1805" x2="297.8195" y1="276.6614" y2="276.6614"/>
    <line x1="291.2732" x2="284.7268" y1="272.8819" y2="272.8819"/>
    <line x1="212.3899" x2="177.0397" y1="264.3779" y2="264.3779"/>
    <line x1="183.586" x2="205.8435" y1="268.1575" y2="268.1575"/>
    <line x1="199.2972" x2="190.1323" y1="271.937" y2="271.937"/>
    <line x1="168.2021" x2="159.0372" y1="218.0787" y2="218.0787"/>
    <line x1="152.4909" x2="174.7484" y1="214.2992" y2="214.2992"/>
    <line x1="181.2948" x2="145.9446" y1="210.5197" y2="210.5197"/>
  </g>
  <g fill="none" id="layer3" inkscape:groupmode="layer" inkscape:label="3" stroke="#000000" stroke-opacity="0.902" stroke-width="3.7795" style="display:inline">
    <polygon points="312.8761,206.3622 288.0,220.7244 263.1239,206.3622 263.1239,177.6378 288.0,163.2756 312.8761,177.6378"/>
    <polygon points="288.0,224.5039 259.8508,208.252 259.8508,175.748 288.0,159.4961 316.1492,175.748 316.1492,208.252"/>
    <polygon points="232.0288,231.4961 256.9049,217.1338 281.781,231.4961 281.781,260.2205 256.9049,274.5827 232.0288,260.2205"/>
    <polygon points="256.9049,213.3543 285.0541,229.6063 285.0541,262.1102 256.9049,278.3622 228.7557,262.1102 228.7557,229.6063"/>
    <polygon points="225.8098,328.4409 200.9338,314.0787 200.9338,285.3543 225.8098,270.9921 250.6859,285.3543 250.6859,314.0787"/>
    <polygon points="253.9591,315.9685 225.8098,332.2205 197.6606,315.9685 197.6606,283.4645 225.8098,267.2126 253.9591,283.4645"/>
    <polygon points="259.8508,283.4645 288.0,267.2126 316.1492,283.4645 316.1492,315.9685 288.0,332.2205 259.8508,315.9685"/>
    <polygon points="312.8761,285.3543 312.8761,314.0787 288.0,328.4409 263.1239,314.0787 263.1239,285.3543 288.0,270.9921"/>
    <polygon points="290.9459,262.1102 290.9459,229.6063 319.0951,213.3543 347.2443,229.6063 347.2443,262.1102 319.0951,278.3622"/>
    <polygon points="343.9711,260.2205 319.0951,274.5827 294.219,260.2205 294.219,231.4961 319.0951,217.1338 343.9711,231.4961"/>
    <polygon points="322.0409,175.748 350.1902,159.4961 378.3394,175.748 378.3394,208.252 350.1902,224.5039 322.0409,208.252"/>
    <polygon points="325.3141,177.6378 350.1902,163.2756 375.0662,177.6378 375.0662,206.3622 350.1902,220.7244 325.3141,206.3622"/>
    <polygon points="319.0951,170.6457 290.9459,154.3937 290.9459,121.8898 319.0951,105.6378 347.2443,121.8898 347.2443,154.3937"/>
    <polygon points="319.0951,109.4173 343.9711,123.7795 343.9711,152.5039 319.0951,166.8662 294.219,152.5039 294.219,123.7795"/>
    <polygon points="322.0409,68.0315 350.1902,51.7796 378.3394,68.0315 378.3394,100.5354 350.1902,116.7874 322.0409,100.5354"/>
    <polygon points="375.0662,98.6457 350.1902,113.0079 325.3141,98.6457 325.3141,69.9213 350.1902,55.5591 375.0662,69.9213"/>
    <polygon points="288.0,55.5591 312.8761,69.9213 312.8761,98.6457 288.0,113.0079 263.1239,98.6457 263.1239,69.9213"/>
    <polygon points="316.1492,100.5354 288.0,116.7874 259.8508,100.5354 259.8508,68.0315 288.0,51.7796 316.1492,68.0315"/>
    <polygon points="232.0288,152.5039 232.0288,123.7795 256.9049,109.4173 281.781,123.7795 281.781,152.5039 256.9049,166.8662"/>
    <polygon points="256.9049,105.6378 285.0541,121.8898 285.0541,154.3937 256.9049,170.6457 228.7557,154.3937 228.7557,121.8898"/>
    <polygon points="225.8098,163.2756 250.6859,177.6378 250.6859,206.3622 225.8098,220.7244 200.9338,206.3622 200.9338,177.6378"/>
    <polygon points="197.6606,208.252 197.6606,175.748 225.8098,159.4961 253.9591,175.748 253.9591,208.252 225.8098,224.5039"/>
    <polygon points="194.7148,217.1338 219.5908,231.4961 219.5908,260.2205 194.7148,274.5827 169.8387,260.2205 169.8387,231.4961"/>
    <polygon points="222.864,262.1102 194.7148,278.3622 166.5655,262.1102 166.5655,229.6063 194.7148,213.3543 222.864,229.6063"/>
    <polygon points="135.4704,208.252 135.4704,175.748 163.6197,159.4961 191.7689,175.748 191.7689,208.252 163.6197,224.5039"/>
    <polygon points="163.6197,220.7244 138.7436,206.3622 138.7436,177.6378 163.6197,163.2756 188.4957,177.6378 188.4957,206.3622"/>
    <polygon points="222.864,121.8898 222.864,154.3937 194.7148,170.6457 166.5655,154.3937 166.5655,121.8898 194.7148,105.6378"/>
    <polygon points="219.5908,152.5039 194.7148,166.8662 169.8387,152.5039 169.8387,123.7795 194.7148,109.4173 219.5908,123.7795"/>
    <polygon points="253.9591,68.0315 253.9591,100.5354 225.8098,116.7874 197.6606,100.5354 197.6606,68.0315 225.8098,51.7796"/>
    <polygon points="225.8098,55.5591 250.6859,69.9213 250.6859,98.6457 225.8098,113.0079 200.9338,98.6457 200.9338,69.9213"/>
    <polygon points="381.2852,166.8662 356.4092,152.5039 356.4092,123.7795 381.2852,109.4173 406.1613,123.7795 406.1613,152.5039"/>
    <polygon points="353.136,121.8898 381.2852,105.6378 409.4345,121.8898 409.4345,154.3937 381.2852,170.6457 353.136,154.3937"/>
    <polygon points="412.3803,163.2756 437.2564,177.6378 437.2564,206.3622 412.3803,220.7244 387.5043,206.3622 387.5043,177.6378"/>
    <polygon points="384.2311,175.748 412.3803,159.4961 440.5295,175.748 440.5295,208.252 412.3803,224.5039 384.2311,208.252"/>
    <polygon points="356.4092,260.2205 356.4092,231.4961 381.2852,217.1338 406.1613,231.4961 406.1613,260.2205 381.2852,274.5827"/>
    <polygon points="353.136,262.1102 353.136,229.6063 381.2852,213.3543 409.4345,229.6063 409.4345,262.1102 381.2852,278.3622"/>
    <polygon points="375.0662,285.3543 375.0662,314.0787 350.1902,328.4409 325.3141,314.0787 325.3141,285.3543 350.1902,270.9921"/>
    <polygon points="350.1902,332.2205 322.0409,315.9685 322.0409,283.4645 350.1902,267.2126 378.3394,283.4645 378.3394,315.9685"/>
  </g>
</svg>
