<svg height="576px" viewBox="0 0 384 576" width="384px" xmlns="http://www.w3.org/2000/svg" xmlns:inkscape="http://www.inkscape.org/namespaces/inkscape">
<g fill="none" id="layer1" inkscape:groupmode="layer" inkscape:label="1" stroke="black" stroke-width="0.45mm">
<path d="M178.77165,310.91217 L165.5433,288 L178.77165,265.08783 L205.22835,265.08783 L218.4567,288 L205.22835,310.91217 z"/>
<path d="M139.08662,333.82434 L125.85828,310.91217 L139.08662,288 L165.5433,288 L178.77165,310.91217 L165.5433,333.82434 z"/>
<path d="M139.08662,288 L125.85828,265.08783 L139.08662,242.17567 L165.5433,242.17567 L178.77165,265.08783 L165.5433,288 z"/>
<path d="M178.77165,265.08783 L165.5433,242.17567 L178.77165,219.2635 L205.22835,219.2635 L218.4567,242.17567 L205.22835,265.08783 z"/>
<path d="M218.4567,288 L205.22835,265.08783 L218.4567,242.17567 L244.91338,242.17567 L258.14172,265.08783 L244.91338,288 z"/>
<path d="M218.4567,333.82434 L205.22835,310.91217 L218.4567,288 L244.91338,288 L258.14172,310.91217 L244.91338,333.82434 z"/>
<path d="M178.77165,356.73648 L165.5433,333.82434 L178.77165,310.91217 L205.22835,310.91217 L218.4567,333.82434 L205.22835,356.73648 z"/>
<path d="M139.08662,379.64865 L125.85828,356.73648 L139.08662,333.82434 L165.5433,333.82434 L178.77165,356.73648 L165.5433,379.64865 z"/>
<path d="M99.40159,356.73648 L86.17324,333.82434 L99.40159,310.91217 L125.85828,310.91217 L139.08662,333.82434 L125.85828,356.73648 z"/>
<path d="M99.40159,310.91217 L86.17324,288 L99.40159,265.08783 L125.85828,265.08783 L139.08662,288 L125.85828,310.91217 z"/>
<path d="M99.40159,265.08783 L86.17324,242.17567 L99.40159,219.2635 L125.85828,219.2635 L139.08662,242.17567 L125.85828,265.08783 z"/>
<path d="M139.08662,242.17567 L125.85828,219.2635 L139.08662,196.35133 L165.5433,196.35133 L178.77165,219.2635 L165.5433,242.17567 z"/>
<path d="M178.77165,219.2635 L165.5433,196.35133 L178.77165,173.43918 L205.22835,173.43918 L218.4567,196.35133 L205.22835,219.2635 z"/>
<path d="M218.4567,242.17567 L205.22835,219.2635 L218.4567,196.35133 L244.91338,196.35133 L258.14172,219.2635 L244.91338,242.17567 z"/>
<path d="M258.14172,265.08783 L244.91338,242.17567 L258.14172,219.2635 L284.59842,219.2635 L297.82675,242.17567 L284.59842,265.08783 z"/>
<path d="M258.14172,310.91217 L244.91338,288 L258.14172,265.08783 L284.59842,265.08783 L297.82675,288 L284.59842,310.91217 z"/>
<path d="M258.14172,356.73648 L244.91338,333.82434 L258.14172,310.91217 L284.59842,310.91217 L297.82675,333.82434 L284.59842,356.73648 z"/>
<path d="M218.4567,379.64865 L205.22835,356.73648 L218.4567,333.82434 L244.91338,333.82434 L258.14172,356.73648 L244.91338,379.64865 z"/>
<path d="M178.77165,402.56082 L165.5433,379.64865 L178.77165,356.73648 L205.22835,356.73648 L218.4567,379.64865 L205.22835,402.56082 z"/>
<path d="M139.08662,425.473 L125.85828,402.56082 L139.08662,379.64865 L165.5433,379.64865 L178.77165,402.56082 L165.5433,425.473 z"/>
<path d="M99.40159,402.56082 L86.17324,379.64865 L99.40159,356.73648 L125.85828,356.73648 L139.08662,379.64865 L125.85828,402.56082 z"/>
<path d="M59.716557,379.64865 L46.48821,356.73648 L59.716557,333.82434 L86.17324,333.82434 L99.40159,356.73648 L86.17324,379.64865 z"/>
<path d="M59.716557,333.82434 L46.48821,310.91217 L59.716557,288 L86.17324,288 L99.40159,310.91217 L86.17324,333.82434 z"/>
<path d="M59.716557,288 L46.48821,265.08783 L59.716557,242.17567 L86.17324,242.17567 L99.40159,265.08783 L86.17324,288 z"/>
<path d="M59.716557,242.17567 L46.48821,219.2635 L59.716557,196.35133 L86.17324,196.35133 L99.40159,219.2635 L86.17324,242.17567 z"/>
<path d="M99.40159,219.2635 L86.17324,196.35133 L99.40159,173.43918 L125.85828,173.43918 L139.08662,196.35133 L125.85828,219.2635 z"/>
<path d="M139.08662,196.35133 L125.85828,173.43918 L139.08662,150.52701 L165.5433,150.52701 L178.77165,173.43918 L165.5433,196.35133 z"/>
<path d="M178.77165,173.43918 L165.5433,150.52701 L178.77165,127.614845 L205.22835,127.614845 L218.4567,150.52701 L205.22835,173.43918 z"/>
<path d="M218.4567,196.35133 L205.22835,173.43918 L218.4567,150.52701 L244.91338,150.52701 L258.14172,173.43918 L244.91338,196.35133 z"/>
<path d="M258.14172,219.2635 L244.91338,196.35133 L258.14172,173.43918 L284.59842,173.43918 L297.82675,196.35133 L284.59842,219.2635 z"/>
<path d="M297.82675,242.17567 L284.59842,219.2635 L297.82675,196.35133 L324.28345,196.35133 L337.51178,219.2635 L324.28345,242.17567 z"/>
<path d="M297.82675,288 L284.59842,265.08783 L297.82675,242.17567 L324.28345,242.17567 L337.51178,265.08783 L324.28345,288 z"/>
<path d="M297.82675,333.82434 L284.59842,310.91217 L297.82675,288 L324.28345,288 L337.51178,310.91217 L324.28345,333.82434 z"/>
<path d="M297.82675,379.64865 L284.59842,356.73648 L297.82675,333.82434 L324.28345,333.82434 L337.51178,356.73648 L324.28345,379.64865 z"/>
<path d="M258.14172,402.56082 L244.91338,379.64865 L258.14172,356.73648 L284.59842,356.73648 L297.82675,379.64865 L284.59842,402.56082 z"/>
<path d="M218.4567,425.473 L205.22835,402.56082 L218.4567,379.64865 L244.91338,379.64865 L258.14172,402.56082 L244.91338,425.473 z"/>
<path d="M178.77165,448.38516 L165.5433,425.473 L178.77165,402.56082 L205.22835,402.56082 L218.4567,425.473 L205.22835,448.38516 z"/>
</g>
<g fill="none" id="layer2" inkscape:groupmode="layer" inkscape:label="2" stroke="black" stroke-width="0.5mm"/>
<g fill="none" id="layer3" inkscape:groupmode="layer" inkscape:label="3" stroke="black" stroke-width="0.5mm"/>
<g fill="none" id="layer4" inkscape:groupmode="layer" inkscape:label="4" stroke="black" stroke-width="0.5mm"/>
<g fill="none" id="layer5" inkscape:groupmode="layer" inkscape:label="5" stroke="black" stroke-width="0.5mm"/>
<g fill="none" id="layer6" inkscape:groupmode="layer" inkscape:label="6" stroke="black" stroke-width="0.5mm"/>
<g fill="none" id="layer7" inkscape:groupmode="layer" inkscape:label="7" stroke="black" stroke-width="0.5mm"/>
<g fill="none" id="layer8" inkscape:groupmode="layer" inkscape:label="8" stroke="black" stroke-width="0.5mm"/>
<g fill="none" id="layer9" inkscape:groupmode="layer" inkscape:label="9" stroke="black" stroke-width="0.5mm"/>
<g fill="none" id="layer10" inkscape:groupmode="layer" inkscape:label="10" stroke="black" stroke-width="0.5mm"/>
<g fill="none" id="layer11" inkscape:groupmode="layer" inkscape:label="11" stroke="black" stroke-width="0.5mm">
<rect height="576" width="384" x="0" y="0"/>
</g>
</svg>