<svg height="1123.1999999999998px" viewBox="0 0 796.8000000000001 1123.1999999999998" width="796.8000000000001px" xmlns="http://www.w3.org/2000/svg" xmlns:inkscape="http://www.inkscape.org/namespaces/inkscape">
<g fill="none" id="layer1" inkscape:groupmode="layer" inkscape:label="1" stroke="orange" stroke-width="1.0px">
<circle cx="498.40000000000003" cy="661.5999999999999" r="10"/>
<circle cx="496.1777777777778" cy="659.3777777777777" r="17.11111111111111"/>
<circle cx="493.9555555555556" cy="657.1555555555555" r="24.22222222222222"/>
<circle cx="491.73333333333335" cy="654.9333333333333" r="31.333333333333332"/>
<circle cx="489.5111111111111" cy="652.711111111111" r="38.44444444444444"/>
<circle cx="487.28888888888895" cy="650.4888888888888" r="45.55555555555556"/>
<circle cx="485.0666666666667" cy="648.2666666666665" r="52.666666666666664"/>
<circle cx="482.8444444444445" cy="646.0444444444444" r="59.77777777777778"/>
<circle cx="480.62222222222226" cy="643.8222222222221" r="66.88888888888889"/>
<circle cx="478.40000000000003" cy="641.5999999999999" r="74"/>
<circle cx="476.1777777777778" cy="639.3777777777777" r="81.11111111111111"/>
<circle cx="473.9555555555556" cy="637.1555555555555" r="88.22222222222221"/>
<circle cx="471.73333333333335" cy="634.9333333333333" r="95.33333333333333"/>
<circle cx="469.5111111111112" cy="632.711111111111" r="102.44444444444443"/>
<circle cx="467.28888888888895" cy="630.4888888888888" r="109.55555555555556"/>
<circle cx="465.0666666666667" cy="628.2666666666665" r="116.66666666666666"/>
<circle cx="462.8444444444445" cy="626.0444444444444" r="123.77777777777779"/>
<circle cx="460.62222222222226" cy="623.8222222222221" r="130.88888888888889"/>
<circle cx="458.40000000000003" cy="621.5999999999999" r="138"/>
<circle cx="456.1777777777778" cy="619.3777777777777" r="145.11111111111111"/>
<circle cx="453.9555555555556" cy="617.1555555555555" r="152.22222222222223"/>
<circle cx="451.73333333333335" cy="614.9333333333333" r="159.33333333333334"/>
<circle cx="449.5111111111112" cy="612.711111111111" r="166.44444444444443"/>
<circle cx="447.28888888888895" cy="610.4888888888888" r="173.55555555555554"/>
<circle cx="445.0666666666667" cy="608.2666666666665" r="180.66666666666666"/>
<circle cx="442.8444444444445" cy="606.0444444444444" r="187.77777777777777"/>
<circle cx="440.62222222222226" cy="603.8222222222221" r="194.88888888888886"/>
<circle cx="438.40000000000003" cy="601.5999999999999" r="202"/>
<circle cx="436.1777777777778" cy="599.3777777777777" r="209.11111111111111"/>
<circle cx="433.9555555555556" cy="597.1555555555555" r="216.22222222222223"/>
<circle cx="431.73333333333335" cy="594.9333333333333" r="223.33333333333331"/>
<circle cx="429.5111111111112" cy="592.711111111111" r="230.44444444444446"/>
<circle cx="427.2888888888889" cy="590.4888888888888" r="237.55555555555557"/>
<circle cx="425.0666666666667" cy="588.2666666666665" r="244.66666666666666"/>
<circle cx="422.8444444444445" cy="586.0444444444444" r="251.77777777777777"/>
<circle cx="420.62222222222226" cy="583.8222222222221" r="258.8888888888889"/>
<circle cx="418.40000000000003" cy="581.5999999999999" r="266"/>
<circle cx="416.1777777777778" cy="579.3777777777777" r="273.1111111111111"/>
<circle cx="413.9555555555556" cy="577.1555555555555" r="280.22222222222223"/>
<circle cx="411.73333333333335" cy="574.9333333333333" r="287.33333333333337"/>
<circle cx="409.5111111111112" cy="572.711111111111" r="294.44444444444446"/>
<circle cx="407.2888888888889" cy="570.4888888888888" r="301.55555555555554"/>
<circle cx="405.0666666666667" cy="568.2666666666665" r="308.6666666666667"/>
<circle cx="402.8444444444445" cy="566.0444444444444" r="315.77777777777777"/>
<circle cx="400.62222222222226" cy="563.8222222222221" r="322.88888888888886"/>
</g>
<g fill="none" id="layer2" inkscape:groupmode="layer" inkscape:label="2" stroke="pink" stroke-width="1.0px">
<circle cx="498.40000000000003" cy="666.5999999999999" r="11"/>
<circle cx="496.1777777777778" cy="664.2666666666665" r="18.022222222222222"/>
<circle cx="493.9555555555556" cy="661.9333333333333" r="25.044444444444444"/>
<circle cx="491.73333333333335" cy="659.5999999999999" r="32.06666666666666"/>
<circle cx="489.5111111111111" cy="657.2666666666665" r="39.08888888888889"/>
<circle cx="487.28888888888895" cy="654.9333333333333" r="46.11111111111111"/>
<circle cx="485.0666666666667" cy="652.5999999999999" r="53.13333333333333"/>
<circle cx="482.8444444444445" cy="650.2666666666665" r="60.15555555555556"/>
<circle cx="480.62222222222226" cy="647.9333333333333" r="67.17777777777778"/>
<circle cx="478.40000000000003" cy="645.5999999999999" r="74.2"/>
<circle cx="476.1777777777778" cy="643.2666666666665" r="81.22222222222221"/>
<circle cx="473.9555555555556" cy="640.9333333333333" r="88.24444444444444"/>
<circle cx="471.73333333333335" cy="638.5999999999999" r="95.26666666666667"/>
<circle cx="469.5111111111112" cy="636.2666666666665" r="102.28888888888888"/>
<circle cx="467.28888888888895" cy="633.9333333333333" r="109.31111111111112"/>
<circle cx="465.0666666666667" cy="631.5999999999999" r="116.33333333333333"/>
<circle cx="462.8444444444445" cy="629.2666666666665" r="123.35555555555555"/>
<circle cx="460.62222222222226" cy="626.9333333333333" r="130.3777777777778"/>
<circle cx="458.40000000000003" cy="624.5999999999999" r="137.4"/>
<circle cx="456.1777777777778" cy="622.2666666666665" r="144.42222222222222"/>
<circle cx="453.9555555555556" cy="619.9333333333333" r="151.44444444444443"/>
<circle cx="451.73333333333335" cy="617.5999999999999" r="158.46666666666667"/>
<circle cx="449.5111111111112" cy="615.2666666666665" r="165.48888888888888"/>
<circle cx="447.28888888888895" cy="612.9333333333333" r="172.5111111111111"/>
<circle cx="445.0666666666667" cy="610.5999999999999" r="179.53333333333333"/>
<circle cx="442.8444444444445" cy="608.2666666666665" r="186.55555555555557"/>
<circle cx="440.62222222222226" cy="605.9333333333333" r="193.57777777777775"/>
<circle cx="438.40000000000003" cy="603.5999999999999" r="200.6"/>
<circle cx="436.1777777777778" cy="601.2666666666665" r="207.62222222222223"/>
<circle cx="433.9555555555556" cy="598.9333333333333" r="214.64444444444445"/>
<circle cx="431.73333333333335" cy="596.5999999999999" r="221.66666666666666"/>
<circle cx="429.5111111111112" cy="594.2666666666665" r="228.6888888888889"/>
<circle cx="427.2888888888889" cy="591.9333333333333" r="235.7111111111111"/>
<circle cx="425.0666666666667" cy="589.5999999999999" r="242.73333333333332"/>
<circle cx="422.8444444444445" cy="587.2666666666665" r="249.75555555555556"/>
<circle cx="420.62222222222226" cy="584.9333333333333" r="256.77777777777777"/>
<circle cx="418.40000000000003" cy="582.5999999999999" r="263.8"/>
<circle cx="416.1777777777778" cy="580.2666666666665" r="270.8222222222222"/>
<circle cx="413.9555555555556" cy="577.9333333333333" r="277.84444444444443"/>
<circle cx="411.73333333333335" cy="575.5999999999999" r="284.8666666666667"/>
<circle cx="409.5111111111112" cy="573.2666666666665" r="291.88888888888886"/>
<circle cx="407.2888888888889" cy="570.9333333333333" r="298.9111111111111"/>
<circle cx="405.0666666666667" cy="568.5999999999999" r="305.93333333333334"/>
<circle cx="402.8444444444445" cy="566.2666666666665" r="312.9555555555556"/>
<circle cx="400.62222222222226" cy="563.9333333333333" r="319.97777777777776"/>
</g>
<g fill="none" id="layer3" inkscape:groupmode="layer" inkscape:label="3" stroke="red" stroke-width="1.0px">
<circle cx="503.40000000000003" cy="661.5999999999999" r="9"/>
<circle cx="501.0666666666667" cy="659.3777777777777" r="16.2"/>
<circle cx="498.73333333333335" cy="657.1555555555555" r="23.4"/>
<circle cx="496.40000000000003" cy="654.9333333333333" r="30.6"/>
<circle cx="494.0666666666667" cy="652.711111111111" r="37.8"/>
<circle cx="491.73333333333335" cy="650.4888888888888" r="45"/>
<circle cx="489.40000000000003" cy="648.2666666666665" r="52.2"/>
<circle cx="487.0666666666667" cy="646.0444444444444" r="59.4"/>
<circle cx="484.73333333333335" cy="643.8222222222221" r="66.6"/>
<circle cx="482.40000000000003" cy="641.5999999999999" r="73.8"/>
<circle cx="480.0666666666667" cy="639.3777777777777" r="81"/>
<circle cx="477.73333333333335" cy="637.1555555555555" r="88.2"/>
<circle cx="475.40000000000003" cy="634.9333333333333" r="95.4"/>
<circle cx="473.0666666666667" cy="632.711111111111" r="102.6"/>
<circle cx="470.73333333333335" cy="630.4888888888888" r="109.8"/>
<circle cx="468.40000000000003" cy="628.2666666666665" r="117"/>
<circle cx="466.0666666666667" cy="626.0444444444444" r="124.2"/>
<circle cx="463.73333333333335" cy="623.8222222222221" r="131.39999999999998"/>
<circle cx="461.40000000000003" cy="621.5999999999999" r="138.6"/>
<circle cx="459.0666666666667" cy="619.3777777777777" r="145.8"/>
<circle cx="456.73333333333335" cy="617.1555555555555" r="153"/>
<circle cx="454.40000000000003" cy="614.9333333333333" r="160.2"/>
<circle cx="452.0666666666667" cy="612.711111111111" r="167.4"/>
<circle cx="449.73333333333335" cy="610.4888888888888" r="174.6"/>
<circle cx="447.40000000000003" cy="608.2666666666665" r="181.8"/>
<circle cx="445.0666666666667" cy="606.0444444444444" r="189"/>
<circle cx="442.73333333333335" cy="603.8222222222221" r="196.2"/>
<circle cx="440.40000000000003" cy="601.5999999999999" r="203.4"/>
<circle cx="438.0666666666667" cy="599.3777777777777" r="210.6"/>
<circle cx="435.73333333333335" cy="597.1555555555555" r="217.8"/>
<circle cx="433.40000000000003" cy="594.9333333333333" r="225"/>
<circle cx="431.0666666666667" cy="592.711111111111" r="232.2"/>
<circle cx="428.73333333333335" cy="590.4888888888888" r="239.4"/>
<circle cx="426.40000000000003" cy="588.2666666666665" r="246.6"/>
<circle cx="424.0666666666667" cy="586.0444444444444" r="253.79999999999998"/>
<circle cx="421.73333333333335" cy="583.8222222222221" r="261"/>
<circle cx="419.40000000000003" cy="581.5999999999999" r="268.2"/>
<circle cx="417.0666666666667" cy="579.3777777777777" r="275.4"/>
<circle cx="414.73333333333335" cy="577.1555555555555" r="282.6"/>
<circle cx="412.40000000000003" cy="574.9333333333333" r="289.8"/>
<circle cx="410.0666666666667" cy="572.711111111111" r="297"/>
<circle cx="407.73333333333335" cy="570.4888888888888" r="304.2"/>
<circle cx="405.40000000000003" cy="568.2666666666665" r="311.4"/>
<circle cx="403.0666666666667" cy="566.0444444444444" r="318.6"/>
<circle cx="400.73333333333335" cy="563.8222222222221" r="325.8"/>
</g>
<g fill="none" id="layer4" inkscape:groupmode="layer" inkscape:label="4" stroke="green" stroke-width="1.0px">
<circle cx="492.40000000000003" cy="663.5999999999999" r="8"/>
<circle cx="490.31111111111113" cy="661.3333333333333" r="15.244444444444444"/>
<circle cx="488.22222222222223" cy="659.0666666666666" r="22.488888888888887"/>
<circle cx="486.1333333333334" cy="656.8" r="29.733333333333334"/>
<circle cx="484.0444444444445" cy="654.5333333333332" r="36.977777777777774"/>
<circle cx="481.9555555555556" cy="652.2666666666665" r="44.22222222222222"/>
<circle cx="479.8666666666667" cy="649.9999999999999" r="51.46666666666667"/>
<circle cx="477.7777777777778" cy="647.7333333333332" r="58.71111111111111"/>
<circle cx="475.6888888888889" cy="645.4666666666666" r="65.95555555555555"/>
<circle cx="473.6" cy="643.1999999999999" r="73.2"/>
<circle cx="471.5111111111111" cy="640.9333333333333" r="80.44444444444444"/>
<circle cx="469.4222222222223" cy="638.6666666666666" r="87.68888888888888"/>
<circle cx="467.33333333333337" cy="636.3999999999999" r="94.93333333333334"/>
<circle cx="465.24444444444447" cy="634.1333333333332" r="102.17777777777776"/>
<circle cx="463.15555555555557" cy="631.8666666666666" r="109.42222222222222"/>
<circle cx="461.0666666666667" cy="629.5999999999999" r="116.66666666666666"/>
<circle cx="458.9777777777778" cy="627.3333333333333" r="123.91111111111111"/>
<circle cx="456.8888888888889" cy="625.0666666666666" r="131.15555555555557"/>
<circle cx="454.8" cy="622.8" r="138.4"/>
<circle cx="452.71111111111117" cy="620.5333333333332" r="145.64444444444445"/>
<circle cx="450.62222222222226" cy="618.2666666666665" r="152.88888888888889"/>
<circle cx="448.53333333333336" cy="615.9999999999999" r="160.13333333333333"/>
<circle cx="446.44444444444446" cy="613.7333333333332" r="167.37777777777777"/>
<circle cx="444.3555555555556" cy="611.4666666666666" r="174.6222222222222"/>
<circle cx="442.2666666666667" cy="609.1999999999999" r="181.86666666666667"/>
<circle cx="440.1777777777778" cy="606.9333333333333" r="189.11111111111111"/>
<circle cx="438.08888888888896" cy="604.6666666666666" r="196.35555555555553"/>
<circle cx="436.00000000000006" cy="602.3999999999999" r="203.6"/>
<circle cx="433.91111111111115" cy="600.1333333333332" r="210.84444444444443"/>
<circle cx="431.82222222222225" cy="597.8666666666666" r="218.0888888888889"/>
<circle cx="429.73333333333335" cy="595.5999999999999" r="225.33333333333331"/>
<circle cx="427.6444444444445" cy="593.3333333333333" r="232.57777777777778"/>
<circle cx="425.5555555555556" cy="591.0666666666666" r="239.82222222222222"/>
<circle cx="423.4666666666667" cy="588.8" r="247.06666666666666"/>
<circle cx="421.3777777777778" cy="586.5333333333333" r="254.3111111111111"/>
<circle cx="419.2888888888889" cy="584.2666666666665" r="261.55555555555554"/>
<circle cx="417.20000000000005" cy="581.9999999999999" r="268.8"/>
<circle cx="415.11111111111114" cy="579.7333333333332" r="276.0444444444444"/>
<circle cx="413.02222222222224" cy="577.4666666666666" r="283.2888888888889"/>
<circle cx="410.9333333333334" cy="575.1999999999999" r="290.53333333333336"/>
<circle cx="408.8444444444445" cy="572.9333333333333" r="297.77777777777777"/>
<circle cx="406.7555555555556" cy="570.6666666666665" r="305.02222222222224"/>
<circle cx="404.6666666666667" cy="568.3999999999999" r="312.26666666666665"/>
<circle cx="402.5777777777778" cy="566.1333333333332" r="319.5111111111111"/>
<circle cx="400.48888888888894" cy="563.8666666666666" r="326.75555555555553"/>
</g>
<g fill="none" id="layer5" inkscape:groupmode="layer" inkscape:label="5" stroke="blue" stroke-width="1.0px">
<circle cx="501.40000000000003" cy="656.5999999999999" r="11"/>
<circle cx="499.11111111111114" cy="654.4888888888888" r="18.133333333333333"/>
<circle cx="496.82222222222225" cy="652.3777777777777" r="25.266666666666666"/>
<circle cx="494.53333333333336" cy="650.2666666666665" r="32.4"/>
<circle cx="492.24444444444447" cy="648.1555555555555" r="39.53333333333333"/>
<circle cx="489.9555555555556" cy="646.0444444444444" r="46.666666666666664"/>
<circle cx="487.6666666666667" cy="643.9333333333333" r="53.8"/>
<circle cx="485.3777777777778" cy="641.8222222222221" r="60.93333333333334"/>
<circle cx="483.0888888888889" cy="639.711111111111" r="68.06666666666666"/>
<circle cx="480.8" cy="637.5999999999999" r="75.2"/>
<circle cx="478.5111111111111" cy="635.4888888888888" r="82.33333333333333"/>
<circle cx="476.2222222222223" cy="633.3777777777777" r="89.46666666666667"/>
<circle cx="473.9333333333334" cy="631.2666666666665" r="96.6"/>
<circle cx="471.6444444444445" cy="629.1555555555555" r="103.73333333333332"/>
<circle cx="469.3555555555556" cy="627.0444444444444" r="110.86666666666667"/>
<circle cx="467.0666666666667" cy="624.9333333333333" r="118"/>
<circle cx="464.7777777777778" cy="622.8222222222221" r="125.13333333333334"/>
<circle cx="462.48888888888894" cy="620.711111111111" r="132.26666666666665"/>
<circle cx="460.20000000000005" cy="618.5999999999999" r="139.4"/>
<circle cx="457.91111111111115" cy="616.4888888888888" r="146.53333333333333"/>
<circle cx="455.62222222222226" cy="614.3777777777777" r="153.66666666666666"/>
<circle cx="453.33333333333337" cy="612.2666666666665" r="160.8"/>
<circle cx="451.0444444444445" cy="610.1555555555555" r="167.93333333333334"/>
<circle cx="448.7555555555556" cy="608.0444444444444" r="175.06666666666666"/>
<circle cx="446.4666666666667" cy="605.9333333333333" r="182.2"/>
<circle cx="444.1777777777778" cy="603.8222222222221" r="189.33333333333334"/>
<circle cx="441.8888888888889" cy="601.711111111111" r="196.46666666666664"/>
<circle cx="439.6" cy="599.5999999999999" r="203.6"/>
<circle cx="437.31111111111113" cy="597.4888888888888" r="210.73333333333335"/>
<circle cx="435.02222222222224" cy="595.3777777777777" r="217.86666666666667"/>
<circle cx="432.73333333333335" cy="593.2666666666665" r="225"/>
<circle cx="430.44444444444446" cy="591.1555555555555" r="232.13333333333333"/>
<circle cx="428.15555555555557" cy="589.0444444444444" r="239.26666666666668"/>
<circle cx="425.8666666666667" cy="586.9333333333333" r="246.39999999999998"/>
<circle cx="423.5777777777778" cy="584.8222222222221" r="253.53333333333333"/>
<circle cx="421.2888888888889" cy="582.711111111111" r="260.66666666666663"/>
<circle cx="419" cy="580.5999999999999" r="267.8"/>
<circle cx="416.71111111111117" cy="578.4888888888888" r="274.93333333333334"/>
<circle cx="414.4222222222223" cy="576.3777777777777" r="282.06666666666666"/>
<circle cx="412.1333333333334" cy="574.2666666666665" r="289.2"/>
<circle cx="409.8444444444445" cy="572.1555555555555" r="296.3333333333333"/>
<circle cx="407.5555555555556" cy="570.0444444444444" r="303.46666666666664"/>
<circle cx="405.2666666666667" cy="567.9333333333333" r="310.6"/>
<circle cx="402.9777777777778" cy="565.8222222222221" r="317.73333333333335"/>
<circle cx="400.6888888888889" cy="563.711111111111" r="324.8666666666667"/>
</g>
<g fill="none" id="layer6" inkscape:groupmode="layer" inkscape:label="6" stroke="black" stroke-width="1.0px">
<circle cx="502.40000000000003" cy="659.5999999999999" r="5"/>
<circle cx="500.0888888888889" cy="657.4222222222221" r="12.288888888888888"/>
<circle cx="497.7777777777778" cy="655.2444444444443" r="19.577777777777776"/>
<circle cx="495.4666666666667" cy="653.0666666666666" r="26.866666666666667"/>
<circle cx="493.15555555555557" cy="650.8888888888888" r="34.15555555555555"/>
<circle cx="490.8444444444445" cy="648.711111111111" r="41.44444444444444"/>
<circle cx="488.53333333333336" cy="646.5333333333332" r="48.733333333333334"/>
<circle cx="486.2222222222223" cy="644.3555555555555" r="56.022222222222226"/>
<circle cx="483.91111111111115" cy="642.1777777777777" r="63.31111111111111"/>
<circle cx="481.6" cy="639.9999999999999" r="70.60000000000001"/>
<circle cx="479.28888888888895" cy="637.8222222222221" r="77.88888888888889"/>
<circle cx="476.9777777777778" cy="635.6444444444444" r="85.17777777777778"/>
<circle cx="474.6666666666667" cy="633.4666666666666" r="92.46666666666667"/>
<circle cx="472.3555555555556" cy="631.2888888888888" r="99.75555555555555"/>
<circle cx="470.0444444444445" cy="629.111111111111" r="107.04444444444445"/>
<circle cx="467.73333333333335" cy="626.9333333333333" r="114.33333333333333"/>
<circle cx="465.4222222222223" cy="624.7555555555555" r="121.62222222222222"/>
<circle cx="463.11111111111114" cy="622.5777777777777" r="128.9111111111111"/>
<circle cx="460.8" cy="620.3999999999999" r="136.20000000000002"/>
<circle cx="458.48888888888894" cy="618.2222222222222" r="143.48888888888888"/>
<circle cx="456.1777777777778" cy="616.0444444444444" r="150.77777777777777"/>
<circle cx="453.8666666666667" cy="613.8666666666666" r="158.06666666666666"/>
<circle cx="451.5555555555556" cy="611.6888888888888" r="165.35555555555555"/>
<circle cx="449.24444444444447" cy="609.5111111111111" r="172.64444444444445"/>
<circle cx="446.9333333333334" cy="607.3333333333333" r="179.93333333333334"/>
<circle cx="444.62222222222226" cy="605.1555555555555" r="187.22222222222223"/>
<circle cx="442.31111111111113" cy="602.9777777777776" r="194.5111111111111"/>
<circle cx="440.00000000000006" cy="600.8" r="201.79999999999998"/>
<circle cx="437.6888888888889" cy="598.6222222222221" r="209.0888888888889"/>
<circle cx="435.3777777777778" cy="596.4444444444443" r="216.3777777777778"/>
<circle cx="433.0666666666667" cy="594.2666666666665" r="223.66666666666666"/>
<circle cx="430.7555555555556" cy="592.0888888888888" r="230.95555555555555"/>
<circle cx="428.44444444444446" cy="589.911111111111" r="238.24444444444444"/>
<circle cx="426.1333333333334" cy="587.7333333333332" r="245.5333333333333"/>
<circle cx="423.82222222222225" cy="585.5555555555554" r="252.82222222222222"/>
<circle cx="421.5111111111112" cy="583.3777777777777" r="260.1111111111111"/>
<circle cx="419.20000000000005" cy="581.1999999999999" r="267.40000000000003"/>
<circle cx="416.8888888888889" cy="579.0222222222221" r="274.68888888888887"/>
<circle cx="414.5777777777778" cy="576.8444444444443" r="281.97777777777776"/>
<circle cx="412.2666666666667" cy="574.6666666666665" r="289.26666666666665"/>
<circle cx="409.9555555555556" cy="572.4888888888888" r="296.55555555555554"/>
<circle cx="407.6444444444445" cy="570.311111111111" r="303.84444444444443"/>
<circle cx="405.33333333333337" cy="568.1333333333332" r="311.1333333333333"/>
<circle cx="403.02222222222224" cy="565.9555555555555" r="318.4222222222222"/>
</g>
<g fill="none" id="layer7" inkscape:groupmode="layer" inkscape:label="7" stroke="black" stroke-width="0.2mm">
<rect height="1123.1999999999998" width="796.8000000000001" x="0" y="0"/>
</g>
</svg>