<svg height="1123.1999999999998px" viewBox="0 0 796.8000000000001 1123.1999999999998" width="796.8000000000001px" xmlns="http://www.w3.org/2000/svg" xmlns:inkscape="http://www.inkscape.org/namespaces/inkscape">
<g fill="none" id="layer1" inkscape:groupmode="layer" inkscape:label="1" stroke="yellow" stroke-width="1.0px">
<circle cx="498.40000000000003" cy="661.5999999999999" r="10"/>
<circle cx="495.90000000000003" cy="659.0999999999999" r="18"/>
<circle cx="493.40000000000003" cy="656.5999999999999" r="26"/>
<circle cx="490.90000000000003" cy="654.0999999999999" r="34"/>
<circle cx="488.40000000000003" cy="651.5999999999999" r="42"/>
<circle cx="485.90000000000003" cy="649.0999999999999" r="50"/>
<circle cx="483.40000000000003" cy="646.5999999999999" r="58"/>
<circle cx="480.90000000000003" cy="644.0999999999999" r="66"/>
<circle cx="478.40000000000003" cy="641.5999999999999" r="74"/>
<circle cx="475.90000000000003" cy="639.0999999999999" r="82"/>
<circle cx="473.40000000000003" cy="636.5999999999999" r="90"/>
<circle cx="470.90000000000003" cy="634.0999999999999" r="98"/>
<circle cx="468.40000000000003" cy="631.5999999999999" r="106"/>
<circle cx="465.90000000000003" cy="629.0999999999999" r="114"/>
<circle cx="463.40000000000003" cy="626.5999999999999" r="122"/>
<circle cx="460.90000000000003" cy="624.0999999999999" r="130"/>
<circle cx="458.40000000000003" cy="621.5999999999999" r="138"/>
<circle cx="455.90000000000003" cy="619.0999999999999" r="146"/>
<circle cx="453.40000000000003" cy="616.5999999999999" r="154"/>
<circle cx="450.90000000000003" cy="614.0999999999999" r="162"/>
<circle cx="448.40000000000003" cy="611.5999999999999" r="170"/>
<circle cx="445.90000000000003" cy="609.0999999999999" r="178"/>
<circle cx="443.40000000000003" cy="606.5999999999999" r="186"/>
<circle cx="440.90000000000003" cy="604.0999999999999" r="194"/>
<circle cx="438.40000000000003" cy="601.5999999999999" r="202"/>
<circle cx="435.90000000000003" cy="599.0999999999999" r="210"/>
<circle cx="433.40000000000003" cy="596.5999999999999" r="218"/>
<circle cx="430.90000000000003" cy="594.0999999999999" r="226"/>
<circle cx="428.40000000000003" cy="591.5999999999999" r="234"/>
<circle cx="425.90000000000003" cy="589.0999999999999" r="242"/>
<circle cx="423.40000000000003" cy="586.5999999999999" r="250"/>
<circle cx="420.90000000000003" cy="584.0999999999999" r="258"/>
<circle cx="418.40000000000003" cy="581.5999999999999" r="266"/>
<circle cx="415.90000000000003" cy="579.0999999999999" r="274"/>
<circle cx="413.40000000000003" cy="576.5999999999999" r="282"/>
<circle cx="410.90000000000003" cy="574.0999999999999" r="290"/>
<circle cx="408.40000000000003" cy="571.5999999999999" r="298"/>
<circle cx="405.90000000000003" cy="569.0999999999999" r="306"/>
<circle cx="403.40000000000003" cy="566.5999999999999" r="314"/>
<circle cx="400.90000000000003" cy="564.0999999999999" r="322"/>
</g>
<g fill="none" id="layer2" inkscape:groupmode="layer" inkscape:label="2" stroke="blue" stroke-width="1.0px">
<circle cx="498.40000000000003" cy="666.5999999999999" r="11"/>
<circle cx="495.90000000000003" cy="663.9749999999999" r="18.9"/>
<circle cx="493.40000000000003" cy="661.3499999999999" r="26.8"/>
<circle cx="490.90000000000003" cy="658.7249999999999" r="34.7"/>
<circle cx="488.40000000000003" cy="656.0999999999999" r="42.6"/>
<circle cx="485.90000000000003" cy="653.4749999999999" r="50.5"/>
<circle cx="483.40000000000003" cy="650.8499999999999" r="58.4"/>
<circle cx="480.90000000000003" cy="648.2249999999999" r="66.3"/>
<circle cx="478.40000000000003" cy="645.5999999999999" r="74.2"/>
<circle cx="475.90000000000003" cy="642.9749999999999" r="82.10000000000001"/>
<circle cx="473.40000000000003" cy="640.3499999999999" r="90"/>
<circle cx="470.90000000000003" cy="637.7249999999999" r="97.9"/>
<circle cx="468.40000000000003" cy="635.0999999999999" r="105.8"/>
<circle cx="465.90000000000003" cy="632.4749999999999" r="113.7"/>
<circle cx="463.40000000000003" cy="629.8499999999999" r="121.6"/>
<circle cx="460.90000000000003" cy="627.2249999999999" r="129.5"/>
<circle cx="458.40000000000003" cy="624.5999999999999" r="137.4"/>
<circle cx="455.90000000000003" cy="621.9749999999999" r="145.29999999999998"/>
<circle cx="453.40000000000003" cy="619.3499999999999" r="153.20000000000002"/>
<circle cx="450.90000000000003" cy="616.7249999999999" r="161.1"/>
<circle cx="448.40000000000003" cy="614.0999999999999" r="169"/>
<circle cx="445.90000000000003" cy="611.4749999999999" r="176.9"/>
<circle cx="443.40000000000003" cy="608.8499999999999" r="184.8"/>
<circle cx="440.90000000000003" cy="606.2249999999999" r="192.7"/>
<circle cx="438.40000000000003" cy="603.5999999999999" r="200.6"/>
<circle cx="435.90000000000003" cy="600.9749999999999" r="208.5"/>
<circle cx="433.40000000000003" cy="598.3499999999999" r="216.4"/>
<circle cx="430.90000000000003" cy="595.7249999999999" r="224.3"/>
<circle cx="428.40000000000003" cy="593.0999999999999" r="232.2"/>
<circle cx="425.90000000000003" cy="590.4749999999999" r="240.1"/>
<circle cx="423.40000000000003" cy="587.8499999999999" r="248"/>
<circle cx="420.90000000000003" cy="585.2249999999999" r="255.9"/>
<circle cx="418.40000000000003" cy="582.5999999999999" r="263.8"/>
<circle cx="415.90000000000003" cy="579.9749999999999" r="271.7"/>
<circle cx="413.40000000000003" cy="577.3499999999999" r="279.59999999999997"/>
<circle cx="410.90000000000003" cy="574.7249999999999" r="287.5"/>
<circle cx="408.40000000000003" cy="572.0999999999999" r="295.40000000000003"/>
<circle cx="405.90000000000003" cy="569.4749999999999" r="303.3"/>
<circle cx="403.40000000000003" cy="566.8499999999999" r="311.2"/>
<circle cx="400.90000000000003" cy="564.2249999999999" r="319.09999999999997"/>
</g>
<g fill="none" id="layer3" inkscape:groupmode="layer" inkscape:label="3" stroke="red" stroke-width="1.0px">
<circle cx="503.40000000000003" cy="661.5999999999999" r="9"/>
<circle cx="500.77500000000003" cy="659.0999999999999" r="17.1"/>
<circle cx="498.15000000000003" cy="656.5999999999999" r="25.2"/>
<circle cx="495.52500000000003" cy="654.0999999999999" r="33.3"/>
<circle cx="492.90000000000003" cy="651.5999999999999" r="41.4"/>
<circle cx="490.27500000000003" cy="649.0999999999999" r="49.5"/>
<circle cx="487.65000000000003" cy="646.5999999999999" r="57.6"/>
<circle cx="485.02500000000003" cy="644.0999999999999" r="65.69999999999999"/>
<circle cx="482.40000000000003" cy="641.5999999999999" r="73.8"/>
<circle cx="479.77500000000003" cy="639.0999999999999" r="81.9"/>
<circle cx="477.15000000000003" cy="636.5999999999999" r="90"/>
<circle cx="474.52500000000003" cy="634.0999999999999" r="98.10000000000001"/>
<circle cx="471.90000000000003" cy="631.5999999999999" r="106.2"/>
<circle cx="469.27500000000003" cy="629.0999999999999" r="114.3"/>
<circle cx="466.65000000000003" cy="626.5999999999999" r="122.39999999999999"/>
<circle cx="464.02500000000003" cy="624.0999999999999" r="130.5"/>
<circle cx="461.40000000000003" cy="621.5999999999999" r="138.6"/>
<circle cx="458.77500000000003" cy="619.0999999999999" r="146.7"/>
<circle cx="456.15000000000003" cy="616.5999999999999" r="154.8"/>
<circle cx="453.52500000000003" cy="614.0999999999999" r="162.9"/>
<circle cx="450.90000000000003" cy="611.5999999999999" r="171"/>
<circle cx="448.27500000000003" cy="609.0999999999999" r="179.1"/>
<circle cx="445.65000000000003" cy="606.5999999999999" r="187.20000000000002"/>
<circle cx="443.02500000000003" cy="604.0999999999999" r="195.29999999999998"/>
<circle cx="440.40000000000003" cy="601.5999999999999" r="203.4"/>
<circle cx="437.77500000000003" cy="599.0999999999999" r="211.5"/>
<circle cx="435.15000000000003" cy="596.5999999999999" r="219.6"/>
<circle cx="432.52500000000003" cy="594.0999999999999" r="227.70000000000002"/>
<circle cx="429.90000000000003" cy="591.5999999999999" r="235.79999999999998"/>
<circle cx="427.27500000000003" cy="589.0999999999999" r="243.9"/>
<circle cx="424.65000000000003" cy="586.5999999999999" r="252"/>
<circle cx="422.02500000000003" cy="584.0999999999999" r="260.1"/>
<circle cx="419.40000000000003" cy="581.5999999999999" r="268.2"/>
<circle cx="416.77500000000003" cy="579.0999999999999" r="276.3"/>
<circle cx="414.15000000000003" cy="576.5999999999999" r="284.4"/>
<circle cx="411.52500000000003" cy="574.0999999999999" r="292.5"/>
<circle cx="408.90000000000003" cy="571.5999999999999" r="300.6"/>
<circle cx="406.27500000000003" cy="569.0999999999999" r="308.7"/>
<circle cx="403.65000000000003" cy="566.5999999999999" r="316.8"/>
<circle cx="401.02500000000003" cy="564.0999999999999" r="324.9"/>
</g>
<g fill="none" id="layer4" inkscape:groupmode="layer" inkscape:label="4" stroke="black" stroke-width="1.0px">
<circle cx="492.40000000000003" cy="663.5999999999999" r="8"/>
<circle cx="490.05" cy="661.05" r="16.15"/>
<circle cx="487.70000000000005" cy="658.4999999999999" r="24.3"/>
<circle cx="485.35" cy="655.9499999999999" r="32.45"/>
<circle cx="483.00000000000006" cy="653.3999999999999" r="40.6"/>
<circle cx="480.65000000000003" cy="650.8499999999999" r="48.75"/>
<circle cx="478.3" cy="648.3" r="56.9"/>
<circle cx="475.95000000000005" cy="645.7499999999999" r="65.05"/>
<circle cx="473.6" cy="643.1999999999999" r="73.2"/>
<circle cx="471.25000000000006" cy="640.6499999999999" r="81.35000000000001"/>
<circle cx="468.90000000000003" cy="638.0999999999999" r="89.5"/>
<circle cx="466.55" cy="635.55" r="97.65"/>
<circle cx="464.20000000000005" cy="632.9999999999999" r="105.8"/>
<circle cx="461.85" cy="630.4499999999999" r="113.95"/>
<circle cx="459.50000000000006" cy="627.8999999999999" r="122.1"/>
<circle cx="457.15000000000003" cy="625.3499999999999" r="130.25"/>
<circle cx="454.8" cy="622.8" r="138.4"/>
<circle cx="452.45000000000005" cy="620.2499999999999" r="146.54999999999998"/>
<circle cx="450.1" cy="617.6999999999999" r="154.70000000000002"/>
<circle cx="447.75000000000006" cy="615.1499999999999" r="162.85"/>
<circle cx="445.40000000000003" cy="612.5999999999999" r="171"/>
<circle cx="443.05" cy="610.05" r="179.15"/>
<circle cx="440.70000000000005" cy="607.4999999999999" r="187.3"/>
<circle cx="438.35" cy="604.9499999999999" r="195.45"/>
<circle cx="436.00000000000006" cy="602.3999999999999" r="203.6"/>
<circle cx="433.65000000000003" cy="599.8499999999999" r="211.75"/>
<circle cx="431.3" cy="597.3" r="219.9"/>
<circle cx="428.95000000000005" cy="594.7499999999999" r="228.05"/>
<circle cx="426.6" cy="592.1999999999999" r="236.2"/>
<circle cx="424.25000000000006" cy="589.6499999999999" r="244.35"/>
<circle cx="421.90000000000003" cy="587.0999999999999" r="252.5"/>
<circle cx="419.55" cy="584.55" r="260.65"/>
<circle cx="417.20000000000005" cy="581.9999999999999" r="268.8"/>
<circle cx="414.85" cy="579.4499999999999" r="276.95"/>
<circle cx="412.50000000000006" cy="576.8999999999999" r="285.09999999999997"/>
<circle cx="410.15000000000003" cy="574.3499999999999" r="293.25"/>
<circle cx="407.8" cy="571.8" r="301.40000000000003"/>
<circle cx="405.45000000000005" cy="569.2499999999999" r="309.55"/>
<circle cx="403.1" cy="566.6999999999999" r="317.7"/>
<circle cx="400.75000000000006" cy="564.1499999999999" r="325.84999999999997"/>
</g>
<g fill="none" id="layer5" inkscape:groupmode="layer" inkscape:label="5" stroke="brown" stroke-width="1.0px">
<circle cx="501.40000000000003" cy="658.5999999999999" r="11"/>
<circle cx="498.82500000000005" cy="656.175" r="19.025"/>
<circle cx="496.25000000000006" cy="653.7499999999999" r="27.05"/>
<circle cx="493.675" cy="651.3249999999999" r="35.075"/>
<circle cx="491.1" cy="648.8999999999999" r="43.1"/>
<circle cx="488.52500000000003" cy="646.4749999999999" r="51.125"/>
<circle cx="485.95000000000005" cy="644.05" r="59.15"/>
<circle cx="483.37500000000006" cy="641.6249999999999" r="67.175"/>
<circle cx="480.8" cy="639.1999999999999" r="75.2"/>
<circle cx="478.225" cy="636.7749999999999" r="83.22500000000001"/>
<circle cx="475.65000000000003" cy="634.3499999999999" r="91.25"/>
<circle cx="473.07500000000005" cy="631.925" r="99.275"/>
<circle cx="470.50000000000006" cy="629.4999999999999" r="107.3"/>
<circle cx="467.925" cy="627.0749999999999" r="115.325"/>
<circle cx="465.35" cy="624.6499999999999" r="123.35"/>
<circle cx="462.77500000000003" cy="622.2249999999999" r="131.375"/>
<circle cx="460.20000000000005" cy="619.8" r="139.4"/>
<circle cx="457.62500000000006" cy="617.3749999999999" r="147.42499999999998"/>
<circle cx="455.05" cy="614.9499999999999" r="155.45000000000002"/>
<circle cx="452.475" cy="612.5249999999999" r="163.475"/>
<circle cx="449.90000000000003" cy="610.0999999999999" r="171.5"/>
<circle cx="447.32500000000005" cy="607.675" r="179.525"/>
<circle cx="444.75" cy="605.2499999999999" r="187.55"/>
<circle cx="442.17500000000007" cy="602.8249999999999" r="195.575"/>
<circle cx="439.6" cy="600.3999999999999" r="203.6"/>
<circle cx="437.02500000000003" cy="597.9749999999999" r="211.625"/>
<circle cx="434.45000000000005" cy="595.55" r="219.65"/>
<circle cx="431.875" cy="593.1249999999999" r="227.675"/>
<circle cx="429.30000000000007" cy="590.6999999999999" r="235.7"/>
<circle cx="426.725" cy="588.2749999999999" r="243.725"/>
<circle cx="424.15000000000003" cy="585.8499999999999" r="251.75"/>
<circle cx="421.57500000000005" cy="583.425" r="259.775"/>
<circle cx="419" cy="580.9999999999999" r="267.8"/>
<circle cx="416.42500000000007" cy="578.5749999999999" r="275.825"/>
<circle cx="413.85" cy="576.1499999999999" r="283.84999999999997"/>
<circle cx="411.27500000000003" cy="573.7249999999999" r="291.875"/>
<circle cx="408.70000000000005" cy="571.3" r="299.90000000000003"/>
<circle cx="406.125" cy="568.8749999999999" r="307.925"/>
<circle cx="403.55000000000007" cy="566.4499999999999" r="315.95"/>
<circle cx="400.975" cy="564.0249999999999" r="323.97499999999997"/>
</g>
<g fill="none" id="layer6" inkscape:groupmode="layer" inkscape:label="6" stroke="black" stroke-width="1.0px">
<circle cx="504.40000000000003" cy="652.5999999999999" r="5"/>
<circle cx="501.75000000000006" cy="650.3249999999999" r="13.200000000000001"/>
<circle cx="499.1" cy="648.05" r="21.400000000000002"/>
<circle cx="496.45000000000005" cy="645.7749999999999" r="29.599999999999998"/>
<circle cx="493.8" cy="643.4999999999999" r="37.800000000000004"/>
<circle cx="491.15000000000003" cy="641.2249999999999" r="46"/>
<circle cx="488.50000000000006" cy="638.9499999999999" r="54.199999999999996"/>
<circle cx="485.85" cy="636.675" r="62.4"/>
<circle cx="483.20000000000005" cy="634.3999999999999" r="70.60000000000001"/>
<circle cx="480.55" cy="632.1249999999999" r="78.8"/>
<circle cx="477.90000000000003" cy="629.8499999999999" r="87"/>
<circle cx="475.25000000000006" cy="627.5749999999999" r="95.2"/>
<circle cx="472.6" cy="625.3" r="103.39999999999999"/>
<circle cx="469.95000000000005" cy="623.0249999999999" r="111.60000000000001"/>
<circle cx="467.30000000000007" cy="620.7499999999999" r="119.8"/>
<circle cx="464.65000000000003" cy="618.4749999999999" r="128"/>
<circle cx="462" cy="616.1999999999999" r="136.20000000000002"/>
<circle cx="459.35" cy="613.925" r="144.4"/>
<circle cx="456.70000000000005" cy="611.6499999999999" r="152.6"/>
<circle cx="454.05000000000007" cy="609.3749999999999" r="160.79999999999998"/>
<circle cx="451.40000000000003" cy="607.0999999999999" r="169"/>
<circle cx="448.75" cy="604.8249999999999" r="177.20000000000002"/>
<circle cx="446.1" cy="602.55" r="185.4"/>
<circle cx="443.45000000000005" cy="600.2749999999999" r="193.6"/>
<circle cx="440.80000000000007" cy="597.9999999999999" r="201.79999999999998"/>
<circle cx="438.15000000000003" cy="595.7249999999999" r="210"/>
<circle cx="435.5" cy="593.4499999999999" r="218.20000000000002"/>
<circle cx="432.85" cy="591.175" r="226.4"/>
<circle cx="430.20000000000005" cy="588.8999999999999" r="234.6"/>
<circle cx="427.55000000000007" cy="586.6249999999999" r="242.79999999999998"/>
<circle cx="424.90000000000003" cy="584.3499999999999" r="251"/>
<circle cx="422.25" cy="582.0749999999999" r="259.20000000000005"/>
<circle cx="419.6" cy="579.8" r="267.40000000000003"/>
<circle cx="416.95000000000005" cy="577.5249999999999" r="275.59999999999997"/>
<circle cx="414.30000000000007" cy="575.2499999999999" r="283.8"/>
<circle cx="411.65000000000003" cy="572.9749999999999" r="292"/>
<circle cx="409" cy="570.6999999999999" r="300.2"/>
<circle cx="406.35" cy="568.425" r="308.40000000000003"/>
<circle cx="403.70000000000005" cy="566.1499999999999" r="316.59999999999997"/>
<circle cx="401.05000000000007" cy="563.8749999999999" r="324.8"/>
</g>
<g fill="none" id="layer7" inkscape:groupmode="layer" inkscape:label="7" stroke="black" stroke-width="0.2mm">
<rect height="1123.1999999999998" width="796.8000000000001" x="0" y="0"/>
</g>
</svg>