<svg height="576px" viewBox="0 0 384 576" width="384px" xmlns="http://www.w3.org/2000/svg" xmlns:inkscape="http://www.inkscape.org/namespaces/inkscape">
<g fill="none" id="1" stroke="black" stroke-width="1.0px">
<path d="M12,13 L7.4855475,10.850646"/>
<path d="M22,13 L17.872772,10.17759"/>
<path d="M32,13 L28.265501,9.675317"/>
<path d="M42,13 L38.58867,9.34448"/>
<path d="M52,13 L48.78816,9.168019"/>
<path d="M62,13 L58.836483,9.128029"/>
<path d="M72,13 L68.732086,9.215725"/>
<path d="M82,13 L78.49635,9.432867"/>
<path d="M92,13 L88.16976,9.786085"/>
<path d="M102,13 L97.806335,10.277282"/>
<path d="M112,13 L107.46506,10.894216"/>
<path d="M122,13 L117.198456,11.605298"/>
<path d="M132,13 L127.04098,12.361162"/>
<path d="M142,13 L137.00105,13.102678"/>
<path d="M152,13 L147.05997,13.772107"/>
<path d="M162,13 L157.17812,14.322665"/>
<path d="M172,13 L167.30618,14.722829"/>
<path d="M182,13 L177.39787,14.9545765"/>
<path d="M192,13 L187.42084,15.007793"/>
<path d="M202,13 L197.36482,14.874853"/>
<path d="M212,13 L207.24612,14.549407"/>
<path d="M222,13 L217.1076,14.0317545"/>
<path d="M232,13 L227.01157,13.339997"/>
<path d="M242,13 L237.02292,12.5218315"/>
<path d="M252,13 L247.18332,11.6585"/>
<path d="M262,13 L257.4855,10.850748"/>
<path d="M272,13 L267.8724,10.178118"/>
<path d="M282,13 L278.2643,9.6766615"/>
<path d="M292,13 L288.58594,9.347022"/>
<path d="M302,13 L298.7832,9.172166"/>
<path d="M312,13 L308.8288,9.134331"/>
<path d="M322,13 L318.7214,9.2249775"/>
<path d="M332,13 L328.4829,9.446126"/>
<path d="M342,13 L338.15436,9.804543"/>
<path d="M352,13 L347.79037,10.302024"/>
<path d="M362,13 L357.45047,10.925917"/>
<path d="M372,13 L367.18738,11.643971"/>
<path d="M12,23 L7.986827,20.017645"/>
<path d="M22,23 L18.490921,19.438208"/>
<path d="M32,23 L28.967167,19.024837"/>
<path d="M42,23 L39.34315,18.764301"/>
<path d="M52,23 L49.569916,18.630253"/>
<path d="M62,23 L59.62432,18.600437"/>
<path d="M72,23 L69.50654,18.666105"/>
<path d="M82,23 L79.236916,18.83282"/>
<path d="M92,23 L88.853325,19.114332"/>
<path d="M102,23 L98.40751,19.52236"/>
<path d="M112,23 L107.9586,20.056"/>
<path d="M122,23 L117.563194,20.694628"/>
<path d="M132,23 L127.26386,21.397188"/>
<path d="M142,23 L137.08015,22.108326"/>
<path d="M152,23 L147.00536,22.768784"/>
<path d="M162,23 L157.01062,23.325699"/>
<path d="M172,23 L167.0549,23.738901"/>
<path d="M182,23 L177.09732,23.98172"/>
<path d="M192,23 L187.1089,24.037865"/>
<path d="M202,23 L197.08128,23.897882"/>
<path d="M212,23 L207.03134,23.558914"/>
<path d="M222,23 L217.00009,23.029825"/>
<path d="M232,23 L227.04369,22.340435"/>
<path d="M242,23 L237.21503,21.549463"/>
<path d="M252,23 L247.53824,20.743313"/>
<path d="M262,23 L257.98648,20.018106"/>
<path d="M272,23 L268.48862,19.440487"/>
<path d="M282,23 L278.9599,19.0304"/>
<path d="M292,23 L289.32712,18.774391"/>
<path d="M302,23 L299.54132,18.64627"/>
<path d="M312,23 L309.58002,18.624657"/>
<path d="M322,23 L319.44464,18.702312"/>
<path d="M332,23 L329.15762,18.8865"/>
<path d="M342,23 L338.75958,19.192162"/>
<path d="M352,23 L348.30542,19.631016"/>
<path d="M362,23 L357.85718,20.200539"/>
<path d="M372,23 L367.4731,20.876976"/>
<path d="M12,33 L8.694289,29.248697"/>
<path d="M22,33 L19.292147,28.796724"/>
<path d="M32,33 L29.829002,28.495916"/>
<path d="M42,33 L40.23935,28.320244"/>
<path d="M52,33 L50.482185,28.235943"/>
<path d="M62,33 L60.539974,28.217916"/>
<path d="M72,33 L70.414635,28.257994"/>
<path d="M82,33 L80.12444,28.365103"/>
<path d="M92,33 L89.70259,28.559065"/>
<path d="M102,33 L99.19568,28.860462"/>
<path d="M112,33 L108.65957,29.27958"/>
<path d="M122,33 L118.15153,29.80794"/>
<path d="M132,33 L127.71983,30.415396"/>
<path d="M142,33 L137.39426,31.05393"/>
<path d="M152,33 L147.18109,31.666521"/>
<path d="M162,33 L157.06483,32.19742"/>
<path d="M172,33 L167.01602,32.59999"/>
<path d="M182,33 L177.00256,32.840145"/>
<path d="M192,33 L187.00108,32.896065"/>
<path d="M202,33 L197.0059,32.75692"/>
<path d="M212,33 L207.03333,32.423702"/>
<path d="M222,33 L217.11943,31.913723"/>
<path d="M232,33 L227.30989,31.267113"/>
<path d="M242,33 L237.64127,30.550219"/>
<path d="M252,33 L248.11766,29.849216"/>
<path d="M262,33 L258.6931,29.249723"/>
<path d="M272,33 L269.28476,28.801489"/>
<path d="M282,33 L279.8067,28.50673"/>
<path d="M292,33 L290.19153,28.338514"/>
<path d="M302,33 L300.39807,28.263567"/>
<path d="M312,33 L310.41006,28.25952"/>
<path d="M322,33 L320.2323,28.322908"/>
<path d="M332,33 L329.8876,28.468138"/>
<path d="M342,33 L339.41602,28.719458"/>
<path d="M352,33 L348.87256,29.09883"/>
<path d="M362,33 L358.3215,29.613462"/>
<path d="M372,33 L367.826,30.247267"/>
<path d="M12,43 L9.596775,38.615425"/>
<path d="M22,43 L20.249956,38.31627"/>
<path d="M32,43 L30.813738,38.14276"/>
<path d="M42,43 L41.233345,38.059124"/>
<path d="M52,43 L51.477673,38.02736"/>
<path d="M62,43 L61.535416,38.02163"/>
<path d="M72,43 L71.40999,38.034935"/>
<path d="M82,43 L81.11673,38.078636"/>
<path d="M92,43 L90.68261,38.176674"/>
<path d="M102,43 L100.146576,38.356205"/>
<path d="M112,43 L109.557816,38.637005"/>
<path d="M122,43 L118.97034,39.022423"/>
<path d="M132,43 L128.43443,39.494762"/>
<path d="M142,43 L137.98758,40.016644"/>
<path d="M152,43 L147.64833,40.537678"/>
<path d="M162,43 L157.41576,41.003822"/>
<path d="M172,43 L167.27455,41.365963"/>
<path d="M182,43 L177.20424,41.58554"/>
<path d="M192,43 L187.18935,41.637047"/>
<path d="M202,43 L197.22743,41.509148"/>
<path d="M212,43 L207.33275,41.20647"/>
<path d="M222,43 L217.5333,40.753094"/>
<path d="M232,43 L227.86035,40.195835"/>
<path d="M242,43 L238.33118,39.602978"/>
<path d="M252,43 L248.92978,39.053642"/>
<path d="M262,43 L259.59402,38.616936"/>
<path d="M272,43 L270.2333,38.322517"/>
<path d="M282,43 L280.76514,38.154884"/>
<path d="M292,43 L291.13132,38.07604"/>
<path d="M302,43 L301.30026,38.049206"/>
<path d="M312,43 L311.2622,38.054733"/>
<path d="M322,43 L321.02457,38.09607"/>
<path d="M332,43 L330.61008,38.197067"/>
<path d="M342,43 L340.05792,38.39258"/>
<path d="M352,43 L349.4234,38.715008"/>
<path d="M362,43 L358.7734,39.180424"/>
<path d="M372,43 L368.17596,39.77871"/>
<path d="M12,53 L10.639678,48.188606"/>
<path d="M22,53 L21.29865,48.049435"/>
<path d="M32,53 L31.84961,48.002262"/>
<path d="M42,53 L42.250668,48.006287"/>
<path d="M52,53 L52.481007,48.02319"/>
<path d="M62,53 L62.53512,48.028717"/>
<path d="M72,53 L72.41743,48.017456"/>
<path d="M82,53 L82.13992,48.001957"/>
<path d="M92,53 L91.72276,48.00769"/>
<path d="M102,53 L101.195946,48.065075"/>
<path d="M112,53 L110.59955,48.20013"/>
<path d="M122,53 L119.98076,48.425873"/>
<path d="M132,53 L129.38759,48.736744"/>
<path d="M142,53 L138.86124,49.10794"/>
<path d="M152,53 L148.42963,49.499645"/>
<path d="M162,53 L158.1052,49.864643"/>
<path d="M172,53 L167.8872,50.15661"/>
<path d="M182,53 L177.76817,50.336994"/>
<path d="M192,53 L187.74161,50.379665"/>
<path d="M202,53 L197.8085,50.273952"/>
<path d="M212,53 L207.97978,50.027153"/>
<path d="M222,53 L218.27316,49.666737"/>
<path d="M232,53 L228.70358,49.240532"/>
<path d="M242,53 L239.26909,48.81167"/>
<path d="M252,53 L249.93695,48.445465"/>
<path d="M262,53 L260.63452,48.190067"/>
<path d="M272,53 L271.26862,48.05378"/>
<path d="M282,53 L281.76422,48.00556"/>
<path d="M292,53 L292.07443,48.000553"/>
<path d="M302,53 L302.17706,48.003136"/>
<path d="M312,53 L312.0674,48.000454"/>
<path d="M322,53 L321.75366,48.006073"/>
<path d="M332,53 L331.25742,48.05545"/>
<path d="M342,53 L340.61682,48.195126"/>
<path d="M352,53 L349.8885,48.467728"/>
<path d="M362,53 L359.14307,48.89659"/>
<path d="M372,53 L368.45413,49.474842"/>
<path d="M12,63 L11.731123,58.007236"/>
<path d="M22,63 L22.345375,58.011944"/>
<path d="M32,63 L32.846092,58.072105"/>
<path d="M42,63 L43.204086,58.14715"/>
<path d="M52,63 L53.407394,58.202164"/>
<path d="M62,63 L63.45492,58.216362"/>
<path d="M72,63 L73.35143,58.1861"/>
<path d="M82,63 L83.10575,58.123802"/>
<path d="M92,63 L92.731766,58.053837"/>
<path d="M102,63 L102.25081,58.006294"/>
<path d="M112,63 L111.693115,58.009426"/>
<path d="M122,63 L121.096794,58.082256"/>
<path d="M132,63 L130.50392,58.229073"/>
<path d="M142,63 L139.9547,58.437466"/>
<path d="M152,63 L149.48187,58.680386"/>
<path d="M162,63 L159.10748,58.9216"/>
<path d="M172,63 L168.84297,59.12273"/>
<path d="M182,63 L178.69263,59.25016"/>
<path d="M192,63 L188.65839,59.280636"/>
<path d="M202,63 L198.74411,59.205368"/>
<path d="M212,63 L208.95685,59.032734"/>
<path d="M222,63 L219.30376,58.789265"/>
<path d="M232,63 L229.78474,58.517517"/>
<path d="M242,63 L240.38242,58.268887"/>
<path d="M252,63 L251.05377,58.09035"/>
<path d="M262,63 L261.72293,58.007683"/>
<path d="M272,63 L272.29913,58.008957"/>
<path d="M282,63 L282.7173,58.05172"/>
<path d="M292,63 L292.94144,58.089428"/>
<path d="M302,63 L302.9564,58.09232"/>
<path d="M312,63 L312.75937,58.058"/>
<path d="M322,63 L322.35696,58.01276"/>
<path d="M332,63 L331.76855,58.00536"/>
<path d="M342,63 L341.03226,58.094547"/>
<path d="M352,63 L350.2078,58.332233"/>
<path d="M362,63 L359.37198,58.746353"/>
<path d="M372,63 L368.605,59.329285"/>
<path d="M12,73 L12.765229,68.05891"/>
<path d="M22,73 L23.294695,68.17053"/>
<path d="M32,73 L33.71824,68.304504"/>
<path d="M42,73 L44.01707,68.42491"/>
<path d="M52,73 L54.1854,68.502884"/>
<path d="M62,73 L64.22461,68.52215"/>
<path d="M72,73 L74.13916,68.48071"/>
<path d="M82,73 L83.935295,68.389725"/>
<path d="M92,73 L93.62212,68.27044"/>
<path d="M102,73 L103.21392,68.1496"/>
<path d="M112,73 L112.73208,68.05389"/>
<path d="M122,73 L122.20522,68.00421"/>
<path d="M132,73 L131.66724,68.011086"/>
<path d="M142,73 L141.1534,68.0722"/>
<path d="M152,73 L150.69614,68.173"/>
<path d="M162,73 L160.32173,68.29008"/>
<path d="M172,73 L170.04901,68.39634"/>
<path d="M182,73 L179.89038,68.46684"/>
<path d="M192,73 L189.85385,68.484024"/>
<path d="M202,73 L199.94504,68.44181"/>
<path d="M212,73 L210.16734,68.34797"/>
<path d="M222,73 L220.51955,68.224205"/>
<path d="M232,73 L230.99081,68.102905"/>
<path d="M242,73 L241.55496,68.019844"/>
<path d="M252,73 L252.16666,68.00278"/>
<path d="M262,73 L262.75378,68.057144"/>
<path d="M272,73 L273.23148,68.15402"/>
<path d="M282,73 L283.54453,68.24453"/>
<path d="M292,73 L293.66498,68.285355"/>
<path d="M302,73 L303.58054,68.25638"/>
<path d="M312,73 L313.28653,68.16835"/>
<path d="M322,73 L322.78592,68.06216"/>
<path d="M332,73 L332.09616,68.00092"/>
<path d="M342,73 L341.2576,68.05542"/>
<path d="M352,73 L350.33688,68.284706"/>
<path d="M362,73 L359.4199,68.71712"/>
<path d="M372,73 L368.59482,69.33877"/>
<path d="M12,83 L13.651017,78.28045"/>
<path d="M22,83 L24.07331,78.45012"/>
<path d="M32,83 L34.407257,78.61764"/>
<path d="M42,83 L44.641113,78.75447"/>
<path d="M52,83 L54.772278,78.838936"/>
<path d="M62,83 L64.80278,78.85941"/>
<path d="M72,83 L74.73629,78.81518"/>
<path d="M82,83 L84.577255,78.7154"/>
<path d="M92,83 L94.33174,78.576996"/>
<path d="M102,83 L104.009254,78.42148"/>
<path d="M112,83 L113.624374,78.27122"/>
<path d="M122,83 L123.19742,78.1455"/>
<path d="M132,83 L132.75362,78.05712"/>
<path d="M142,83 L142.32092,78.01031"/>
<path d="M152,83 L151.92725,78.00053"/>
<path d="M162,83 L161.5977,78.01621"/>
<path d="M172,83 L171.35292,78.042046"/>
<path d="M182,83 L181.20845,78.06305"/>
<path d="M192,83 L191.17496,78.06854"/>
<path d="M202,83 L201.2584,78.055305"/>
<path d="M212,83 L211.45966,78.02928"/>
<path d="M222,83 L221.77269,78.00517"/>
<path d="M232,83 L232.18196,78.00331"/>
<path d="M242,83 L242.65987,78.04373"/>
<path d="M252,83 L253.16586,78.137825"/>
<path d="M262,83 L263.6365,78.2754"/>
<path d="M272,83 L273.99402,78.41482"/>
<path d="M282,83 L284.19064,78.50544"/>
<path d="M292,83 L294.20178,78.51089"/>
<path d="M302,83 L304.01328,78.42325"/>
<path d="M312,83 L313.6155,78.26818"/>
<path d="M322,83 L323.0074,78.10253"/>
<path d="M332,83 L332.20685,78.00428"/>
<path d="M342,83 L341.26126,78.05487"/>
<path d="M352,83 L350.2491,78.31658"/>
<path d="M362,83 L359.26883,78.811844"/>
<path d="M372,83 L368.41635,79.513245"/>
<path d="M12,93 L14.332138,88.5772"/>
<path d="M22,93 L24.642601,88.755394"/>
<path d="M32,93 L34.887386,88.91797"/>
<path d="M42,93 L45.0587,89.04471"/>
<path d="M52,93 L55.15483,89.12095"/>
<path d="M62,93 L65.17719,89.139244"/>
<path d="M72,93 L75.12845,89.09964"/>
<path d="M82,93 L85.01192,89.008965"/>
<path d="M92,93 L94.83206,88.879395"/>
<path d="M102,93 L104.5956,88.72649"/>
<path d="M112,93 L114.3125,88.5669"/>
<path d="M122,93 L123.99663,88.415955"/>
<path d="M132,93 L133.66545,88.28552"/>
<path d="M142,93 L143.33897,88.18262"/>
<path d="M152,93 L153.03812,88.108955"/>
<path d="M162,93 L162.78297,88.06168"/>
<path d="M172,93 L172.59123,88.03508"/>
<path d="M182,93 L182.47707,88.02281"/>
<path d="M192,93 L192.45049,88.02033"/>
<path d="M202,93 L202.51663,88.026764"/>
<path d="M212,93 L212.6751,88.045784"/>
<path d="M222,93 L222.91887,88.08516"/>
<path d="M232,93 L233.23323,88.15447"/>
<path d="M242,93 L243.59505,88.26124"/>
<path d="M252,93 L253.97316,88.4058"/>
<path d="M262,93 L264.31488,88.56814"/>
<path d="M272,93 L274.5486,88.6983"/>
<path d="M282,93 L284.62982,88.74747"/>
<path d="M292,93 L294.53232,88.6887"/>
<path d="M302,93 L304.23627,88.527954"/>
<path d="M312,93 L313.726,88.30736"/>
<path d="M322,93 L322.99875,88.10076"/>
<path d="M332,93 L332.07846,88.00062"/>
<path d="M342,93 L341.0262,88.09574"/>
<path d="M352,93 L349.93817,88.44491"/>
<path d="M362,93 L358.9272,89.055664"/>
<path d="M372,93 L368.09402,89.878555"/>
<path d="M12,103 L14.788959,98.8501"/>
<path d="M22,103 L24.994411,98.99581"/>
<path d="M32,103 L35.1574,99.12304"/>
<path d="M42,103 L45.27222,99.21945"/>
<path d="M52,103 L55.337006,99.276505"/>
<path d="M62,103 L65.35211,99.29011"/>
<path d="M72,103 L75.3192,99.26063"/>
<path d="M82,103 L85.24079,99.19247"/>
<path d="M92,103 L95.12046,99.09325"/>
<path d="M102,103 L104.96323,98.97268"/>
<path d="M112,103 L114.77599,98.841415"/>
<path d="M122,103 L124.56781,98.70974"/>
<path d="M132,103 L134.34975,98.58654"/>
<path d="M142,103 L144.13448,98.47849"/>
<path d="M152,103 L153.93541,98.38978"/>
<path d="M162,103 L163.76581,98.32219"/>
<path d="M172,103 L173.63774,98.275826"/>
<path d="M182,103 L183.5612,98.249985"/>
<path d="M192,103 L193.54335,98.244156"/>
<path d="M202,103 L203.58775,98.25879"/>
<path d="M212,103 L213.69382,98.29565"/>
<path d="M222,103 L223.85625,98.35733"/>
<path d="M232,103 L234.0646,98.44617"/>
<path d="M242,103 L244.30338,98.56216"/>
<path d="M252,103 L254.5523,98.7005"/>
<path d="M262,103 L264.76917,98.83687"/>
<path d="M272,103 L274.88596,98.916954"/>
<path d="M282,103 L284.85684,98.89652"/>
<path d="M292,103 L294.64996,98.75998"/>
<path d="M302,103 L304.23822,98.52894"/>
<path d="M312,103 L313.60208,98.26361"/>
<path d="M322,103 L322.74286,98.05549"/>
<path d="M332,103 L331.69888,98.00907"/>
<path d="M342,103 L340.55322,98.21389"/>
<path d="M352,103 L349.42383,98.71476"/>
<path d="M362,103 L358.43616,99.493004"/>
<path d="M372,103 L367.68802,100.46882"/>
<path d="M12,113 L15.025249,109.01906"/>
<path d="M22,113 L25.13506,109.10495"/>
<path d="M32,113 L35.223377,109.17772"/>
<path d="M42,113 L45.286366,109.231735"/>
<path d="M52,113 L55.322224,109.26331"/>
<path d="M62,113 L65.33062,109.2708"/>
<path d="M72,113 L75.31234,109.254555"/>
<path d="M82,113 L85.26906,109.21671"/>
<path d="M92,113 L95.203255,109.16084"/>
<path d="M102,113 L105.11829,109.091515"/>
<path d="M112,113 L115.01837,109.01384"/>
<path d="M122,113 L124.90856,108.93303"/>
<path d="M132,113 L134.79471,108.853966"/>
<path d="M142,113 L144.68318,108.78093"/>
<path d="M152,113 L154.58063,108.71743"/>
<path d="M162,113 L164.49355,108.66615"/>
<path d="M172,113 L174.42793,108.62905"/>
<path d="M182,113 L184.38875,108.60752"/>
<path d="M192,113 L194.37961,108.60256"/>
<path d="M202,113 L204.40234,108.61494"/>
<path d="M212,113 L214.45665,108.645134"/>
<path d="M222,113 L224.53995,108.693184"/>
<path d="M232,113 L234.64713,108.75822"/>
<path d="M242,113 L244.77061,108.83782"/>
<path d="M252,113 L254.90038,108.927185"/>
<path d="M262,113 L265.0028,109.002106"/>
<path d="M272,113 L275.01013,109.00762"/>
<path d="M282,113 L284.87152,108.906784"/>
<path d="M292,113 L294.5475,108.69763"/>
<path d="M302,113 L304.0053,108.41975"/>
<path d="M312,113 L313.22748,108.15301"/>
<path d="M322,113 L322.22885,108.00524"/>
<path d="M332,113 L331.07245,108.08679"/>
<path d="M342,113 L339.87003,108.47638"/>
<path d="M352,113 L348.7613,109.190704"/>
<path d="M362,113 L357.8759,110.17305"/>
<path d="M372,113 L367.29483,111.30842"/>
<path d="M12,123 L15.049121,119.037315"/>
<path d="M22,123 L25.067614,119.05161"/>
<path d="M32,123 L35.08274,119.063416"/>
<path d="M42,123 L45.093685,119.07201"/>
<path d="M52,123 L55.09997,119.07697"/>
<path d="M62,123 L65.101456,119.07814"/>
<path d="M72,123 L75.098236,119.0756"/>
<path d="M82,123 L85.09066,119.06963"/>
<path d="M92,123 L95.07928,119.0607"/>
<path d="M102,123 L105.064766,119.04941"/>
<path d="M112,123 L115.04797,119.03643"/>
<path d="M122,123 L125.02982,119.02254"/>
<path d="M132,123 L135.01129,119.0085"/>
<path d="M142,123 L144.99342,118.99508"/>
<path d="M152,123 L154.9772,118.983"/>
<path d="M162,123 L164.96358,118.97294"/>
<path d="M172,123 L174.95338,118.965454"/>
<path d="M182,123 L184.94733,118.96104"/>
<path d="M192,123 L194.94592,118.96001"/>
<path d="M202,123 L204.94943,118.96256"/>
<path d="M212,123 L214.95784,118.96872"/>
<path d="M222,123 L224.97083,118.97828"/>
<path d="M232,123 L234.9877,118.99081"/>
<path d="M242,123 L245.00742,119.00557"/>
<path d="M252,123 L255.02837,119.02143"/>
<path d="M262,123 L265.02344,119.01768"/>
<path d="M272,123 L274.92194,118.94261"/>
<path d="M282,123 L284.66586,118.76997"/>
<path d="M292,123 L294.20932,118.514595"/>
<path d="M302,123 L303.5195,118.23648"/>
<path d="M312,123 L312.59064,118.03501"/>
<path d="M322,123 L321.46304,118.028915"/>
<path d="M332,123 L330.2336,118.32241"/>
<path d="M342,123 L339.0447,118.96686"/>
<path d="M352,123 L348.04938,119.93529"/>
<path d="M362,123 L357.36496,121.12478"/>
<path d="M372,123 L367.0376,122.38786"/>
<path d="M12,133 L14.858828,128.89792"/>
<path d="M22,133 L24.781822,128.8453"/>
<path d="M32,133 L34.717888,128.8032"/>
<path d="M42,133 L44.671127,128.77328"/>
<path d="M52,133 L54.64406,128.7563"/>
<path d="M62,133 L64.637665,128.75233"/>
<path d="M72,133 L74.65155,128.76099"/>
<path d="M82,133 L84.68408,128.78151"/>
<path d="M92,133 L94.73262,128.81277"/>
<path d="M102,133 L104.793755,128.85332"/>
<path d="M112,133 L114.86356,128.90121"/>
<path d="M122,133 L124.93785,128.95413"/>
<path d="M132,133 L135.01237,129.00931"/>
<path d="M142,133 L145.08307,129.06367"/>
<path d="M152,133 L155.1462,129.11394"/>
<path d="M162,133 L165.19844,129.15683"/>
<path d="M172,133 L175.23705,129.18929"/>
<path d="M182,133 L185.25978,129.20871"/>
<path d="M192,133 L195.26505,129.21326"/>
<path d="M202,133 L205.25192,129.20197"/>
<path d="M212,133 L215.22023,129.17506"/>
<path d="M222,133 L225.17075,129.13396"/>
<path d="M232,133 L235.10547,129.08131"/>
<path d="M242,133 L245.02783,129.02103"/>
<path d="M252,133 L254.94307,128.95793"/>
<path d="M262,133 L264.82898,128.87727"/>
<path d="M272,133 L274.60992,128.73523"/>
<path d="M282,133 L284.22137,128.52055"/>
<path d="M292,133 L293.61563,128.26822"/>
<path d="M302,133 L302.76938,128.05956"/>
<path d="M312,133 L311.70114,128.00894"/>
<path d="M322,133 L320.48767,128.23419"/>
<path d="M332,133 L329.2636,128.81525"/>
<path d="M342,133 L338.1942,129.75716"/>
<path d="M352,133 L347.4273,130.97751"/>
<path d="M362,133 L357.04532,132.32834"/>
<path d="M372,133 L367.04156,133.64343"/>
<path d="M12,143 L14.440403,138.636"/>
<path d="M22,143 L24.257229,138.53851"/>
<path d="M32,143 L34.103954,138.46422"/>
<path d="M42,143 L43.991272,138.41362"/>
<path d="M52,143 L53.92584,138.38577"/>
<path d="M62,143 L63.910374,138.37935"/>
<path d="M72,143 L73.94396,138.39337"/>
<path d="M82,143 L84.02253,138.42732"/>
<path d="M92,143 L94.13935,138.4808"/>
<path d="M102,143 L104.28572,138.55304"/>
<path d="M112,143 L114.451614,138.64229"/>
<path d="M122,143 L124.62643,138.74536"/>
<path d="M132,143 L134.79971,138.85735"/>
<path d="M142,143 L144.96188,138.9717"/>
<path d="M152,143 L155.1046,139.08063"/>
<path d="M162,143 L165.22108,139.1758"/>
<path d="M172,143 L175.30609,139.24904"/>
<path d="M182,143 L185.35573,139.29337"/>
<path d="M192,143 L195.36717,139.30377"/>
<path d="M202,143 L205.33861,139.27794"/>
<path d="M212,143 L215.26918,139.21681"/>
<path d="M222,143 L225.15955,139.12479"/>
<path d="M232,143 L235.01276,139.0096"/>
<path d="M242,143 L244.83539,138.88167"/>
<path d="M252,143 L254.63881,138.75304"/>
<path d="M262,143 L264.4055,138.61667"/>
<path d="M272,143 L274.05502,138.44183"/>
<path d="M282,143 L283.51996,138.23662"/>
<path d="M292,143 L292.75955,138.05803"/>
<path d="M302,143 L301.77213,138.0052"/>
<path d="M312,143 L310.61227,138.19643"/>
<path d="M322,143 L319.39874,138.72993"/>
<path d="M332,143 L328.2972,139.64003"/>
<path d="M342,143 L337.47623,140.87035"/>
<path d="M352,143 L347.05182,142.28197"/>
<path d="M362,143 L357.04877,143.69661"/>
<path d="M372,143 L367.39746,144.95363"/>
<path d="M12,153 L13.779023,148.3272"/>
<path d="M22,153 L23.479847,148.22401"/>
<path d="M32,153 L33.229786,148.1536"/>
<path d="M42,153 L43.046345,148.1107"/>
<path d="M52,153 L52.94004,148.08916"/>
<path d="M62,153 L62.91494,148.08443"/>
<path d="M72,153 L72.96947,148.0949"/>
<path d="M82,153 L83.09718,148.12187"/>
<path d="M92,153 L93.28749,148.16861"/>
<path d="M102,153 L103.526375,148.23868"/>
<path d="M112,153 L113.79733,148.33421"/>
<path d="M122,153 L124.082565,148.45435"/>
<path d="M132,153 L134.36438,148.59435"/>
<path d="M142,153 L144.62657,148.74547"/>
<path d="M152,153 L154.85556,148.89563"/>
<path d="M162,153 L165.04082,149.03093"/>
<path d="M172,153 L175.17487,149.13733"/>
<path d="M182,153 L185.25261,149.20256"/>
<path d="M192,153 L195.27051,149.21796"/>
<path d="M202,153 L205.22585,149.1798"/>
<path d="M212,153 L215.11678,149.0903"/>
<path d="M222,153 L224.94315,148.95798"/>
<path d="M232,153 L234.7084,148.79707"/>
<path d="M242,153 L244.42218,148.62587"/>
<path d="M252,153 L254.10281,148.46368"/>
<path d="M262,153 L263.73874,148.31206"/>
<path d="M272,153 L273.24753,148.15814"/>
<path d="M282,153 L282.56628,148.03217"/>
<path d="M292,153 L291.67215,148.01076"/>
<path d="M302,153 L300.5966,148.20099"/>
<path d="M312,153 L309.4367,148.70703"/>
<path d="M322,153 L318.3477,149.58525"/>
<path d="M332,153 L327.50668,150.80682"/>
<path d="M342,153 L337.0565,152.25055"/>
<path d="M352,153 L347.0544,153.73572"/>
<path d="M362,153 L357.45377,155.08131"/>
<path d="M372,153 L368.12625,156.16132"/>
<path d="M12,163 L12.880108,158.07806"/>
<path d="M22,163 L22.466444,158.0218"/>
<path d="M32,163 L32.124336,158.00154"/>
<path d="M42,163 L41.8758,158.00154"/>
<path d="M52,163 L51.73281,158.00714"/>
<path d="M62,163 L61.699165,158.00906"/>
<path d="M72,163 L71.772316,158.00519"/>
<path d="M82,163 L81.94446,158.0003"/>
<path d="M92,163 L92.20296,158.00412"/>
<path d="M102,163 L102.53049,158.02823"/>
<path d="M112,163 L112.905556,158.08269"/>
<path d="M122,163 L123.303734,158.17296"/>
<path d="M132,163 L133.69963,158.29774"/>
<path d="M142,163 L144.06937,158.44833"/>
<path d="M152,163 L154.3926,158.60962"/>
<path d="M162,163 L164.65382,158.7624"/>
<path d="M172,163 L174.84242,158.88654"/>
<path d="M182,163 L184.95155,158.96413"/>
<path d="M192,163 L194.97664,158.98259"/>
<path d="M202,163 L204.914,158.93692"/>
<path d="M212,163 L214.76076,158.83128"/>
<path d="M222,163 L224.51616,158.67924"/>
<path d="M232,163 L234.18488,158.50262"/>
<path d="M242,163 L243.78107,158.32797"/>
<path d="M252,163 L253.33217,158.18074"/>
<path d="M262,163 L262.8352,158.07025"/>
<path d="M272,163 L272.21143,158.00447"/>
<path d="M282,163 L281.4118,158.03471"/>
<path d="M292,163 L290.44196,158.24895"/>
<path d="M302,163 L299.37274,158.7459"/>
<path d="M312,163 L308.33936,159.59416"/>
<path d="M322,163 L317.51498,160.78987"/>
<path d="M332,163 L327.05878,162.23563"/>
<path d="M342,163 L337.05795,163.75906"/>
<path d="M352,163 L347.49402,165.16708"/>
<path d="M362,163 L358.2517,166.30911"/>
<path d="M372,163 L369.16354,167.11758"/>
<path d="M12,173 L11.790193,168.00441"/>
<path d="M22,173 L21.28422,168.0515"/>
<path d="M32,173 L30.874191,168.12839"/>
<path d="M42,173 L40.581608,168.2054"/>
<path d="M52,173 L50.41544,168.25772"/>
<path d="M62,173 L60.376583,168.27089"/>
<path d="M72,173 L70.46118,168.24269"/>
<path d="M82,173 L80.661964,168.18236"/>
<path d="M92,173 L90.9677,168.10773"/>
<path d="M102,173 L101.361855,168.0409"/>
<path d="M112,173 L111.821655,168.00319"/>
<path d="M122,173 L122.31858,168.01016"/>
<path d="M132,173 L132.82056,168.0678"/>
<path d="M142,173 L143.29547,168.17075"/>
<path d="M152,173 L153.71477,168.30324"/>
<path d="M162,173 L164.05594,168.44225"/>
<path d="M172,173 L174.30327,168.5621"/>
<path d="M182,173 L184.44672,168.63954"/>
<path d="M192,173 L194.4797,168.65822"/>
<path d="M202,173 L204.39734,168.6122"/>
<path d="M212,173 L214.19608,168.50809"/>
<path d="M222,173 L223.87592,168.36525"/>
<path d="M232,173 L233.44492,168.21333"/>
<path d="M242,173 L242.92468,168.08624"/>
<path d="M252,173 L252.35443,168.01257"/>
<path d="M262,173 L261.7427,168.00662"/>
<path d="M272,173 L271.0218,168.09662"/>
<path d="M282,173 L280.16547,168.34871"/>
<path d="M292,173 L289.21332,168.84857"/>
<path d="M302,173 L298.27246,169.66753"/>
<path d="M312,173 L307.49976,170.82103"/>
<path d="M322,173 L317.05835,172.2383"/>
<path d="M332,173 L327.0589,173.76527"/>
<path d="M342,173 L337.51373,175.20761"/>
<path d="M352,173 L348.32953,176.39525"/>
<path d="M362,173 L359.34265,177.23538"/>
<path d="M372,173 L370.37576,177.72884"/>
<path d="M12,183 L10.604322,178.19875"/>
<path d="M22,183 L20.051586,178.39525"/>
<path d="M32,183 L29.617596,178.60408"/>
<path d="M42,183 L39.316498,178.78114"/>
<path d="M52,183 L49.14899,178.89247"/>
<path d="M62,183 L59.110207,178.91966"/>
<path d="M72,183 L69.19484,178.86102"/>
<path d="M82,183 L79.39843,178.73012"/>
<path d="M92,183 L89.71538,178.55247"/>
<path d="M102,183 L100.135216,178.36075"/>
<path d="M112,183 L110.639275,178.18872"/>
<path d="M122,183 L121.19938,178.06451"/>
<path d="M132,183 L131.77962,178.00485"/>
<path d="M142,183 L142.34058,178.01161"/>
<path d="M152,183 L152.84464,178.07185"/>
<path d="M162,183 L163.2604,178.16147"/>
<path d="M172,183 L173.56479,178.25116"/>
<path d="M182,183 L183.7424,178.31342"/>
<path d="M192,183 L193.78336,178.32886"/>
<path d="M202,183 L203.68117,178.2911"/>
<path d="M212,183 L213.43256,178.20961"/>
<path d="M222,183 L223.0404,178.10944"/>
<path d="M232,183 L232.5193,178.02704"/>
<path d="M242,183 L241.90166,178.00096"/>
<path d="M252,183 L251.24039,178.05804"/>
<path d="M262,183 L260.5575,178.2126"/>
<path d="M272,183 L269.80292,178.50858"/>
<path d="M282,183 L278.97827,179.01639"/>
<path d="M292,183 L288.15494,179.80382"/>
<path d="M302,183 L297.46265,180.89943"/>
<path d="M312,183 L307.05527,182.25871"/>
<path d="M322,183 L317.05713,183.75368"/>
<path d="M332,183 L327.51028,185.20058"/>
<path d="M342,183 L338.351,186.41832"/>
<path d="M352,183 L349.43042,187.2892"/>
<path d="M362,183 L360.56708,187.79028"/>
<path d="M372,183 L371.6023,187.98416"/>
<path d="M12,193 L9.450841,188.69862"/>
<path d="M22,193 L18.913181,189.0666"/>
<path d="M32,193 L28.510641,189.41888"/>
<path d="M42,193 L38.243477,189.70023"/>
<path d="M52,193 L48.099823,189.87132"/>
<path d="M62,193 L58.067116,189.91254"/>
<path d="M72,193 L68.13876,189.8234"/>
<path d="M82,193 L78.31509,189.62044"/>
<path d="M92,193 L88.59965,189.33426"/>
<path d="M102,193 L98.99285,189.00537"/>
<path d="M112,193 L109.485664,188.67818"/>
<path d="M122,193 L120.055725,188.39351"/>
<path d="M132,193 L130.66763,188.18079"/>
<path d="M142,193 L141.27734,188.0525"/>
<path d="M152,193 L151.83896,188.0026"/>
<path d="M162,193 L162.3113,188.0097"/>
<path d="M172,193 L172.6621,188.04404"/>
<path d="M182,193 L182.86868,188.07603"/>
<path d="M192,193 L192.91652,188.08472"/>
<path d="M202,193 L202.7973,188.06398"/>
<path d="M212,193 L212.5092,188.026"/>
<path d="M222,193 L222.06038,188.00037"/>
<path d="M232,193 L231.47505,188.02763"/>
<path d="M242,193 L240.79883,188.14642"/>
<path d="M252,193 L250.09833,188.37576"/>
<path d="M262,193 L259.4084,188.72408"/>
<path d="M272,193 L268.7004,189.2433"/>
<path d="M282,193 L278.00278,189.99629"/>
<path d="M292,193 L287.4085,191.02054"/>
<path d="M302,193 L297.04984,192.29573"/>
<path d="M312,193 L307.0528,193.72473"/>
<path d="M322,193 L317.4837,195.14551"/>
<path d="M332,193 L328.31293,196.3772"/>
<path d="M342,193 L339.41736,197.28136"/>
<path d="M352,193 L350.62222,197.80643"/>
<path d="M362,193 L361.75806,197.99414"/>
<path d="M372,193 L372.70346,197.95027"/>
<path d="M12,203 L8.456856,199.47209"/>
<path d="M22,203 L17.99758,200.00323"/>
<path d="M32,203 L27.67922,200.48389"/>
<path d="M42,203 L37.484085,200.85373"/>
<path d="M52,203 L47.385986,201.07364"/>
<path d="M62,203 L57.364433,201.1261"/>
<path d="M72,203 L67.41204,201.01239"/>
<path d="M82,203 L77.53489,200.74994"/>
<path d="M92,203 L87.747345,200.37038"/>
<path d="M102,203 L98.06343,199.91724"/>
<path d="M112,203 L108.4877,199.44138"/>
<path d="M122,203 L119.00843,198.9937"/>
<path d="M132,203 L129.59566,198.61603"/>
<path d="M142,203 L140.20479,198.33339"/>
<path d="M152,203 L150.78413,198.15009"/>
<path d="M162,203 L161.28366,198.05157"/>
<path d="M172,203 L171.66144,198.01147"/>
<path d="M182,203 L181.88654,198.00128"/>
<path d="M192,203 L191.93892,198.00037"/>
<path d="M202,203 L201.80853,198.00366"/>
<path d="M212,203 L211.4961,198.02545"/>
<path d="M222,203 L221.01697,198.0976"/>
<path d="M232,203 L230.40685,198.2606"/>
<path d="M242,203 L239.72485,198.54762"/>
<path d="M252,203 L249.04845,198.96413"/>
<path d="M262,203 L258.4221,199.50734"/>
<path d="M272,203 L267.83813,200.22891"/>
<path d="M282,203 L277.34512,201.17462"/>
<path d="M292,203 L287.0429,202.34648"/>
<path d="M302,203 L297.0465,203.68036"/>
<path d="M312,203 L307.4373,205.04489"/>
<path d="M322,203 L318.2192,206.27194"/>
<path d="M332,203 L329.30405,207.2109"/>
<path d="M342,203 L340.53598,207.78087"/>
<path d="M352,203 L351.74323,207.99341"/>
<path d="M362,203 L362.78802,207.93752"/>
<path d="M372,203 L373.59198,207.73979"/>
<path d="M12,213 L7.7108874,210.43027"/>
<path d="M22,213 L17.379099,211.09021"/>
<path d="M32,213 L27.181866,211.66374"/>
<path d="M42,213 L37.083057,212.09242"/>
<path d="M52,213 L47.0434,212.34264"/>
<path d="M62,213 L57.03591,212.40182"/>
<path d="M72,213 L67.05309,212.27328"/>
<path d="M82,213 L77.106575,211.97314"/>
<path d="M92,213 L87.22095,211.53008"/>
<path d="M102,213 L97.42382,210.98541"/>
<path d="M112,213 L107.734604,210.3911"/>
<path d="M122,213 L118.155075,209.80367"/>
<path d="M132,213 L128.66481,209.27489"/>
<path d="M142,213 L139.22307,208.84204"/>
<path d="M152,213 L149.77628,208.52171"/>
<path d="M162,213 L160.26808,208.30954"/>
<path d="M172,213 L170.64822,208.1862"/>
<path d="M182,213 L180.87791,208.12753"/>
<path d="M192,213 L190.9317,208.11546"/>
<path d="M202,213 L200.79807,208.1466"/>
<path d="M212,213 L210.481,208.23631"/>
<path d="M222,213 L220.00389,208.41573"/>
<path d="M232,213 L229.41376,208.72083"/>
<path d="M242,213 L238.78094,209.17407"/>
<path d="M252,213 L248.18877,209.76358"/>
<path d="M262,213 L257.68594,210.47238"/>
<path d="M272,213 L267.2818,211.34512"/>
<path d="M282,213 L277.0354,212.40602"/>
<path d="M292,213 L287.03915,213.62445"/>
<path d="M302,213 L297.3774,214.90569"/>
<path d="M312,213 L308.0819,216.10623"/>
<path d="M322,213 L319.1035,217.07556"/>
<path d="M332,213 L330.31714,217.7083"/>
<path d="M342,213 L341.56064,217.98065"/>
<path d="M352,213 L352.68497,217.95287"/>
<path d="M362,213 L363.5912,217.74005"/>
<path d="M372,213 L374.2387,217.47083"/>
<path d="M12,223 L7.242406,221.46205"/>
<path d="M22,223 L17.063957,222.20284"/>
<path d="M32,223 L27.003046,222.82552"/>
<path d="M42,223 L37.00781,223.27931"/>
<path d="M52,223 L47.02922,223.53978"/>
<path d="M62,223 L57.036243,223.60092"/>
<path d="M72,223 L67.02194,223.4679"/>
<path d="M82,223 L77.00237,223.154"/>
<path d="M92,223 L87.010124,222.68202"/>
<path d="M102,223 L97.08406,222.087"/>
<path d="M112,223 L107.25715,221.41716"/>
<path d="M122,223 L117.54508,220.72983"/>
<path d="M132,223 L127.93924,220.08276"/>
<path d="M142,223 L138.40639,219.52351"/>
<path d="M152,223 L148.89516,219.08083"/>
<path d="M162,223 L159.34656,218.76216"/>
<path d="M172,223 L169.70473,218.55795"/>
<path d="M182,223 L179.92467,218.45105"/>
<path d="M192,223 L189.97655,218.42773"/>
<path d="M202,223 L199.84793,218.48685"/>
<path d="M212,223 L209.54625,218.6435"/>
<path d="M222,223 L219.1023,218.92528"/>
<path d="M232,223 L228.57233,219.3598"/>
<path d="M242,223 L238.03384,219.9554"/>
<path d="M252,223 L247.56987,220.68182"/>
<path d="M262,223 L257.2279,221.50769"/>
<path d="M272,223 L267.02847,222.46706"/>
<path d="M282,223 L277.0318,223.5631"/>
<path d="M292,223 L287.31284,224.74086"/>
<path d="M302,223 L297.92047,225.89093"/>
<path d="M312,223 L308.8422,226.87663"/>
<path d="M322,223 L319.99197,227.57906"/>
<path d="M332,223 L331.23016,227.94038"/>
<path d="M342,223 L342.40677,227.98343"/>
<path d="M352,223 L353.4042,227.79877"/>
<path d="M362,223 L364.15924,227.50974"/>
<path d="M372,223 L374.65845,227.23471"/>
<path d="M12,233 L7.0277886,232.47359"/>
<path d="M22,233 L17.006124,233.24739"/>
<path d="M32,233 L27.077864,233.87897"/>
<path d="M42,233 L37.179756,234.32863"/>
<path d="M52,233 L47.25708,234.58263"/>
<path d="M62,233 L57.277245,234.64182"/>
<path d="M72,233 L67.23436,234.51285"/>
<path d="M82,233 L77.14747,234.20537"/>
<path d="M92,233 L87.054306,233.73491"/>
<path d="M102,233 L97.00164,233.12805"/>
<path d="M112,233 L107.03307,232.42587"/>
<path d="M122,233 L117.17669,231.68254"/>
<path d="M132,233 L127.43606,230.95782"/>
<path d="M142,233 L137.78763,230.30632"/>
<path d="M152,233 L148.18556,229.76735"/>
<path d="M162,233 L158.57196,229.36014"/>
<path d="M172,233 L168.88864,229.08598"/>
<path d="M182,233 L179.08691,228.93626"/>
<path d="M192,233 L189.13408,228.90286"/>
<path d="M202,233 L199.01743,228.98698"/>
<path d="M212,233 L208.74753,229.20244"/>
<path d="M222,233 L218.36093,229.57114"/>
<path d="M232,233 L227.9199,230.10988"/>
<path d="M242,233 L237.50426,230.81178"/>
<path d="M252,233 L247.19145,231.62965"/>
<path d="M262,233 L257.0231,232.51979"/>
<path d="M272,233 L267.02554,233.50482"/>
<path d="M282,233 L277.25314,234.57076"/>
<path d="M292,233 L287.75894,235.64828"/>
<path d="M302,233 L298.55847,236.6271"/>
<path d="M312,233 L309.60568,237.38945"/>
<path d="M322,233 L320.79446,237.8525"/>
<path d="M332,233 L331.98706,237.99998"/>
<path d="M342,233 L343.05533,237.88736"/>
<path d="M352,233 L353.91284,237.61964"/>
<path d="M362,233 L364.52396,237.31621"/>
<path d="M372,233 L374.8911,237.07939"/>
<path d="M12,243 L7.017346,243.41612"/>
<path d="M22,243 L17.142262,244.18422"/>
<path d="M32,243 L27.332956,244.79408"/>
<path d="M42,243 L37.51914,245.21854"/>
<path d="M52,243 L47.643913,245.45448"/>
<path d="M62,243 L57.675114,245.50906"/>
<path d="M72,243 L67.60817,245.38994"/>
<path d="M82,243 L77.463776,245.10303"/>
<path d="M92,243 L87.282326,244.65636"/>
<path d="M102,243 L97.11523,244.06725"/>
<path d="M112,243 L107.013565,243.36803"/>
<path d="M122,243 L117.01547,242.60695"/>
<path d="M132,243 L127.1358,241.84259"/>
<path d="M142,243 L137.36148,241.13342"/>
<path d="M152,243 L147.6544,240.52698"/>
<path d="M162,243 L157.96075,240.05305"/>
<path d="M172,243 L168.22304,239.72365"/>
<path d="M182,243 L178.39136,239.53912"/>
<path d="M192,243 L188.43181,239.49742"/>
<path d="M202,243 L198.33203,239.60205"/>
<path d="M212,243 L208.10509,239.86478"/>
<path d="M222,243 L217.79129,240.3006"/>
<path d="M232,243 L227.45558,240.91475"/>
<path d="M242,243 L237.17586,241.68558"/>
<path d="M252,243 L247.02011,242.55194"/>
<path d="M262,243 L257.02127,243.4607"/>
<path d="M272,243 L267.20703,244.4239"/>
<path d="M282,243 L277.62204,245.41524"/>
<path d="M292,243 L288.29703,246.35976"/>
<path d="M302,243 L299.2197,247.1557"/>
<path d="M312,243 L310.32153,247.70985"/>
<path d="M322,243 L321.48944,247.97386"/>
<path d="M332,243 L332.59726,247.9642"/>
<path d="M342,243 L343.54135,247.7565"/>
<path d="M352,243 L354.2618,247.45918"/>
<path d="M362,243 L364.7419,247.18114"/>
<path d="M372,243 L374.99106,247.0067"/>
<path d="M12,253 L7.1707344,254.29546"/>
<path d="M22,253 L17.430367,255.0294"/>
<path d="M32,253 L27.726637,255.59584"/>
<path d="M42,253 L37.985485,255.98055"/>
<path d="M52,253 L48.150326,256.1906"/>
<path d="M62,253 L58.190754,256.23877"/>
<path d="M72,253 L68.10363,256.13342"/>
<path d="M82,253 L77.91039,255.87665"/>
<path d="M92,253 L87.652245,255.46921"/>
<path d="M102,253 L97.3829,254.91896"/>
<path d="M112,253 L107.15842,254.24864"/>
<path d="M122,253 L117.02496,253.499"/>
<path d="M132,253 L127.00757,252.72505"/>
<path d="M142,253 L137.10374,251.98672"/>
<path d="M152,253 L147.28445,251.33759"/>
<path d="M162,253 L157.50194,250.81654"/>
<path d="M172,253 L167.70172,250.44562"/>
<path d="M182,253 L177.83473,250.23404"/>
<path d="M192,253 L187.86719,250.18578"/>
<path d="M202,253 L197.78755,250.30644"/>
<path d="M212,253 L207.61075,250.60533"/>
<path d="M222,253 L217.37915,251.09007"/>
<path d="M232,253 L227.15767,251.75429"/>
<path d="M242,253 L237.01915,252.56285"/>
<path d="M252,253 L247.0197,253.44344"/>
<path d="M262,253 L257.18182,254.3361"/>
<path d="M272,253 L267.53165,255.24362"/>
<path d="M282,253 L278.10202,256.1314"/>
<path d="M292,253 L288.90277,256.9252"/>
<path d="M302,253 L299.89926,257.5373"/>
<path d="M312,253 L311.0093,257.90088"/>
<path d="M322,253 L322.12115,257.99854"/>
<path d="M332,253 L333.125,257.8718"/>
<path d="M342,253 L343.94095,257.6079"/>
<path d="M352,253 L354.53067,257.3123"/>
<path d="M362,253 L364.88962,257.08044"/>
<path d="M372,253 L375.02832,256.9786"/>
<path d="M12,263 L7.4867134,265.1518"/>
<path d="M22,263 L17.87544,265.8263"/>
<path d="M32,263 L28.269707,266.3294"/>
<path d="M42,263 L38.594055,266.66052"/>
<path d="M52,263 L48.794075,266.83694"/>
<path d="M62,263 L58.842148,266.8766"/>
<path d="M72,263 L68.7367,266.78827"/>
<path d="M82,263 L78.49924,266.56998"/>
<path d="M92,263 L88.17053,266.21484"/>
<path d="M102,263 L97.80504,265.72073"/>
<path d="M112,263 L107.46227,265.09976"/>
<path d="M122,263 L117.19529,264.38376"/>
<path d="M132,263 L127.03889,263.6224"/>
<path d="M142,263 L137.00156,262.87534"/>
<path d="M152,263 L147.06429,262.2008"/>
<path d="M162,263 L157.18689,261.64578"/>
<path d="M172,263 L167.31934,261.24176"/>
<path d="M182,263 L177.41457,261.00656"/>
<path d="M192,263 L187.43959,260.94995"/>
<path d="M202,263 L197.38358,261.0794"/>
<path d="M212,263 L207.26244,261.4014"/>
<path d="M222,263 L217.11891,261.91602"/>
<path d="M232,263 L227.01556,262.6058"/>
<path d="M242,263 L237.01799,263.42374"/>
<path d="M252,263 L247.16899,264.28894"/>
<path d="M262,263 L257.4797,265.13705"/>
<path d="M272,263 L267.97263,265.96313"/>
<path d="M282,263 L278.66815,266.7281"/>
<path d="M292,263 L289.55762,267.36288"/>
<path d="M302,263 L300.58987,267.79703"/>
<path d="M312,263 L311.67587,267.98947"/>
<path d="M322,263 L322.71103,267.9492"/>
<path d="M332,263 L333.60352,267.7359"/>
<path d="M342,263 L344.29495,267.4422"/>
<path d="M352,263 L354.76352,267.16687"/>
<path d="M362,263 L365.01175,266.99115"/>
<path d="M372,263 L375.04752,266.9639"/>
<path d="M12,273 L7.9952555,275.99365"/>
<path d="M22,273 L18.508503,276.57904"/>
<path d="M32,273 L28.993523,276.99515"/>
<path d="M42,273 L39.376003,277.25613"/>
<path d="M52,273 L49.60573,277.38947"/>
<path d="M62,273 L59.65891,277.41806"/>
<path d="M72,273 L69.53558,277.35046"/>
<path d="M82,273 L79.25652,277.1801"/>
<path d="M92,273 L88.86066,276.8916"/>
<path d="M102,273 L98.40166,276.4716"/>
<path d="M112,273 L107.94124,275.92"/>
<path d="M122,273 L117.53874,275.2577"/>
<path d="M132,273 L127.23896,274.52725"/>
<path d="M142,273 L137.06224,273.78644"/>
<path d="M152,273 L147.00095,273.09705"/>
<path d="M162,273 L157.02371,272.51367"/>
<path d="M172,273 L167.08589,272.07718"/>
<path d="M182,273 L177.14276,271.81375"/>
<path d="M192,273 L187.16165,271.7389"/>
<path d="M202,273 L197.1313,271.86166"/>
<path d="M212,273 L207.06676,272.18573"/>
<path d="M222,273 L217.00874,272.7043"/>
<path d="M232,273 L227.01527,273.39056"/>
<path d="M242,273 L237.14319,274.18802"/>
<path d="M252,273 L247.42206,275.0106"/>
<path d="M262,273 L257.8522,275.79208"/>
<path d="M272,273 L268.45157,276.52258"/>
<path d="M282,273 L279.22983,277.16245"/>
<path d="M292,273 L290.16476,277.651"/>
<path d="M302,273 L301.19565,277.93488"/>
<path d="M312,273 L312.23337,277.99454"/>
<path d="M322,273 L323.18356,277.8579"/>
<path d="M332,273 L333.97128,277.595"/>
<path d="M342,273 L344.55457,277.29816"/>
<path d="M352,273 L354.9221,277.05728"/>
<path d="M362,273 L365.07822,276.94012"/>
<path d="M372,273 L375.02588,276.98047"/>
<path d="M12,283 L8.7237015,286.777"/>
<path d="M22,283 L19.349848,287.2399"/>
<path d="M32,283 L29.912315,287.5433"/>
<path d="M42,283 L40.3411,287.7168"/>
<path d="M52,283 L50.592426,287.7978"/>
<path d="M62,283 L60.64738,287.81357"/>
<path d="M72,283 L70.50738,287.772"/>
<path d="M82,283 L80.19109,287.66132"/>
<path d="M92,283 L89.73361,287.45685"/>
<path d="M102,283 L99.18551,287.13263"/>
<path d="M112,283 L108.60886,286.67426"/>
<path d="M122,283 L118.06835,286.08902"/>
<path d="M132,283 L127.61901,285.40976"/>
<path d="M142,283 L137.29436,284.69025"/>
<path d="M152,283 L147.09993,283.9947"/>
<path d="M162,283 L157.01485,283.38498"/>
<path d="M172,283 L167.00078,282.91147"/>
<path d="M182,283 L177.01529,282.60934"/>
<path d="M192,283 L187.02504,282.5002"/>
<path d="M202,283 L197.0164,282.5953"/>
<path d="M212,283 L207.00108,282.89627"/>
<path d="M222,283 L217.01532,283.39117"/>
<path d="M232,283 L227.11067,284.04617"/>
<path d="M242,283 L237.33478,284.7988"/>
<path d="M252,283 L247.70549,285.5607"/>
<path d="M262,283 L258.21417,286.2661"/>
<path d="M272,283 L268.87503,286.90314"/>
<path d="M282,283 L279.69052,287.43466"/>
<path d="M292,283 L290.63095,287.80893"/>
<path d="M302,283 L301.63263,287.98648"/>
<path d="M312,283 L312.61075,287.96255"/>
<path d="M322,283 L323.4816,287.77545"/>
<path d="M332,283 L334.18295,287.4983"/>
<path d="M342,283 L344.68314,287.21912"/>
<path d="M352,283 L354.9751,287.01855"/>
<path d="M362,283 L365.06158,286.95306"/>
<path d="M372,283 L374.93988,287.04437"/>
<path d="M12,293 L9.668027,297.42288"/>
<path d="M22,293 L20.383465,297.73148"/>
<path d="M32,293 L31.000782,297.89914"/>
<path d="M42,293 L41.457882,297.97052"/>
<path d="M52,293 L51.7198,297.99216"/>
<path d="M62,293 L61.773354,297.99487"/>
<path d="M72,293 L71.62077,297.9856"/>
<path d="M82,293 L81.27683,297.94742"/>
<path d="M92,293 L90.76988,297.8463"/>
<path d="M102,293 L100.1441,297.6428"/>
<path d="M112,293 L109.45882,297.3061"/>
<path d="M122,293 L118.78209,296.82687"/>
<path d="M132,293 L128.1788,296.22467"/>
<path d="M142,293 L137.69687,295.54617"/>
<path d="M152,293 L147.35724,294.85602"/>
<path d="M162,293 L157.15182,294.2228"/>
<path d="M172,293 L167.05023,293.70697"/>
<path d="M182,293 L177.01254,293.35385"/>
<path d="M192,293 L187.00371,293.19244"/>
<path d="M202,293 L197.00565,293.23764"/>
<path d="M212,293 L207.02415,293.49088"/>
<path d="M222,293 L217.08865,293.93738"/>
<path d="M232,293 L227.24289,294.53946"/>
<path d="M242,293 L237.52577,295.23187"/>
<path d="M252,293 L247.94585,295.92642"/>
<path d="M262,293 L258.48828,296.5592"/>
<path d="M272,293 L269.16553,297.11896"/>
<path d="M282,293 L279.97702,297.57248"/>
<path d="M292,293 L290.89145,297.87555"/>
<path d="M302,293 L301.84732,297.99768"/>
<path d="M312,293 L312.76614,297.94095"/>
<path d="M322,293 L323.57275,297.74622"/>
<path d="M332,293 L334.2125,297.48386"/>
<path d="M342,293 L344.65756,297.23526"/>
<path d="M352,293 L354.90063,297.07263"/>
<path d="M362,293 L364.94073,297.04376"/>
<path d="M372,293 L374.7706,297.16217"/>
<path d="M12,303 L10.776348,307.84796"/>
<path d="M22,303 L21.545431,307.97928"/>
<path d="M32,303 L32.18655,307.99652"/>
<path d="M42,303 L42.649075,307.9577"/>
<path d="M52,303 L52.90887,307.9167"/>
<path d="M62,303 L62.95913,307.90714"/>
<path d="M72,303 L72.80222,307.9352"/>
<path d="M82,303 L82.44704,307.97998"/>
<path d="M92,303 L91.91199,307.99924"/>
<path d="M102,303 L101.23063,307.94046"/>
<path d="M112,303 L110.45513,307.75534"/>
<path d="M122,303 L119.65336,307.41513"/>
<path d="M132,303 L128.89832,306.92166"/>
<path d="M142,303 L138.25287,306.31046"/>
<path d="M152,303 L147.75577,305.6432"/>
<path d="M162,303 L157.41476,304.9939"/>
<path d="M172,303 L167.20988,304.43344"/>
<path d="M182,303 L177.10492,304.0189"/>
<path d="M192,303 L187.06262,303.78885"/>
<path d="M202,303 L197.05873,303.7641"/>
<path d="M212,303 L207.09077,303.9484"/>
<path d="M222,303 L217.17926,304.3268"/>
<path d="M232,303 L227.35924,304.861"/>
<path d="M242,303 L237.66173,305.48584"/>
<path d="M252,303 L248.08875,306.1148"/>
<path d="M262,303 L258.62213,306.68646"/>
<path d="M272,303 L269.27487,307.19208"/>
<path d="M282,303 L280.04752,307.60303"/>
<path d="M292,303 L290.91196,307.8802"/>
<path d="M302,303 L301.81253,307.9965"/>
<path d="M312,303 L312.67773,307.95386"/>
<path d="M322,303 L323.4381,307.78873"/>
<path d="M332,303 L334.04153,307.56424"/>
<path d="M342,303 L344.45898,307.35355"/>
<path d="M352,303 L354.67914,307.22162"/>
<path d="M362,303 L364.6968,307.21036"/>
<path d="M372,303 L374.50204,307.32895"/>
<path d="M12,313 L11.952432,317.9998"/>
<path d="M22,313 L22.73268,317.946"/>
<path d="M32,313 L33.36294,317.81064"/>
<path d="M42,313 L43.806755,317.66214"/>
<path d="M52,313 L54.052135,317.55948"/>
<path d="M62,313 L64.09901,317.5381"/>
<path d="M72,313 L73.949486,317.60428"/>
<path d="M82,313 L83.60514,317.73535"/>
<path d="M92,313 L93.071655,317.88382"/>
<path d="M102,313 L102.3677,317.98645"/>
<path d="M112,313 L111.53296,317.97815"/>
<path d="M122,313 L120.629906,317.80862"/>
<path d="M132,313 L129.73613,317.45813"/>
<path d="M142,313 L138.9286,316.94543"/>
<path d="M152,313 L148.26567,316.32486"/>
<path d="M162,313 L157.77444,315.67297"/>
<path d="M172,313 L167.44897,315.0708"/>
<path d="M182,313 L177.25908,314.5886"/>
<path d="M192,313 L187.16591,314.2773"/>
<path d="M202,313 L197.13794,314.16635"/>
<path d="M212,313 L207.16255,314.26456"/>
<path d="M222,313 L217.24951,314.55975"/>
<path d="M232,313 L227.42429,315.01566"/>
<path d="M242,313 L237.71078,315.56955"/>
<path d="M252,313 L248.10687,316.13745"/>
<path d="M262,313 L258.59372,316.66022"/>
<path d="M272,313 L269.1866,317.1334"/>
<path d="M282,313 L279.89053,317.53323"/>
<path d="M292,313 L290.68436,317.82382"/>
<path d="M302,313 L301.52097,317.977"/>
<path d="M312,313 L312.33643,317.98868"/>
<path d="M322,313 L323.06506,317.88525"/>
<path d="M332,313 L333.65372,317.7186"/>
<path d="M342,313 L344.06836,317.55212"/>
<path d="M352,313 L354.29132,317.4441"/>
<path d="M362,313 L364.31265,317.433"/>
<path d="M372,313 L374.12137,317.52765"/>
<path d="M12,323 L13.079957,327.882"/>
<path d="M22,323 L23.830772,327.65277"/>
<path d="M32,323 L34.418945,327.37592"/>
<path d="M42,323 L44.823357,327.1266"/>
<path d="M52,323 L55.044476,326.96625"/>
<path d="M62,323 L65.08914,326.93158"/>
<path d="M72,323 L74.95938,327.03015"/>
<path d="M82,323 L84.649315,327.24042"/>
<path d="M92,323 L94.150536,327.5139"/>
<path d="M102,323 L103.46358,327.781"/>
<path d="M112,323 L112.61043,327.9626"/>
<path d="M122,323 L121.64196,327.98715"/>
<path d="M132,323 L130.63492,327.81006"/>
<path d="M142,323 L139.67747,327.42786"/>
<path d="M152,323 L148.84807,326.8814"/>
<path d="M162,323 L158.19647,326.24548"/>
<path d="M172,323 L167.73508,325.60968"/>
<path d="M182,323 L177.44336,325.0584"/>
<path d="M192,323 L187.28265,324.6573"/>
<path d="M202,323 L197.21413,324.44754"/>
<path d="M212,323 L207.21364,324.44592"/>
<path d="M222,323 L217.2785,324.64545"/>
<path d="M232,323 L227.42358,325.01404"/>
<path d="M242,323 L237.66585,325.493"/>
<path d="M252,323 L248.00085,326.00113"/>
<path d="M262,323 L258.41095,326.4812"/>
<path d="M272,323 L268.9147,326.9346"/>
<path d="M282,323 L279.52332,327.3435"/>
<path d="M292,323 L290.2253,327.67444"/>
<path d="M302,323 L300.98477,327.89584"/>
<path d="M312,323 L311.74686,327.9936"/>
<path d="M322,323 L322.44983,327.97974"/>
<path d="M332,323 L333.03812,327.89105"/>
<path d="M342,323 L343.47058,327.77884"/>
<path d="M352,323 L353.72168,327.69424"/>
<path d="M362,323 L363.77582,327.674"/>
<path d="M372,323 L373.62128,327.72986"/>
<path d="M12,333 L14.056294,337.5576"/>
<path d="M22,333 L24.747797,337.17728"/>
<path d="M32,333 L35.272633,336.78018"/>
<path d="M42,333 L45.62437,336.4444"/>
<path d="M52,333 L55.815163,336.2318"/>
<path d="M62,333 L65.85876,336.17963"/>
<path d="M72,333 L75.75808,336.298"/>
<path d="M82,333 L85.501175,336.56955"/>
<path d="M92,333 L95.06634,336.94937"/>
<path d="M102,333 L104.43482,337.3671"/>
<path d="M112,333 L113.60713,337.73468"/>
<path d="M122,333 L122.61643,337.96185"/>
<path d="M132,333 L131.53181,337.97803"/>
<path d="M142,333 L140.44759,337.7529"/>
<path d="M152,333 L149.46077,337.30725"/>
<path d="M162,333 L158.64595,336.70813"/>
<path d="M172,333 L168.03827,336.05035"/>
<path d="M182,333 L177.63148,335.43228"/>
<path d="M192,333 L187.39014,334.93628"/>
<path d="M202,333 L197.26906,334.61807"/>
<path d="M212,333 L207.23189,334.50504"/>
<path d="M222,333 L217.26201,334.59732"/>
<path d="M232,333 L227.36223,334.86847"/>
<path d="M242,333 L237.54224,335.2646"/>
<path d="M252,333 L247.79622,335.70706"/>
<path d="M262,333 L258.109,336.1401"/>
<path d="M272,333 L268.50186,336.57254"/>
<path d="M282,333 L278.9924,336.9943"/>
<path d="M292,333 L289.5803,337.3755"/>
<path d="M302,333 L300.24307,337.68115"/>
<path d="M312,333 L310.93793,337.8859"/>
<path d="M322,333 L321.60953,337.98474"/>
<path d="M332,333 L332.2014,337.99594"/>
<path d="M342,333 L342.66565,337.9555"/>
<path d="M352,333 L352.96765,337.9055"/>
<path d="M362,333 L363.08493,337.88086"/>
<path d="M372,333 L373.00317,337.89832"/>
<path d="M12,343 L14.818498,347.1299"/>
<path d="M22,343 L25.437262,346.63113"/>
<path d="M32,343 L35.891346,346.13965"/>
<path d="M42,343 L46.18669,345.73343"/>
<path d="M52,343 L56.34541,345.47336"/>
<path d="M62,343 L66.38796,345.39703"/>
<path d="M72,343 L76.31971,345.51794"/>
<path d="M82,343 L86.125404,345.82507"/>
<path d="M92,343 L95.77295,346.28098"/>
<path d="M102,343 L105.22585,346.8202"/>
<path d="M112,343 L114.461845,347.35193"/>
<path d="M122,343 L123.49168,347.7723"/>
<path d="M132,343 L132.36989,347.9863"/>
<path d="M142,343 L141.19017,347.934"/>
<path d="M152,343 L150.06424,347.61008"/>
<path d="M162,343 L159.09169,347.06714"/>
<path d="M172,343 L168.33414,346.4002"/>
<path d="M182,343 L177.80453,345.71994"/>
<path d="M192,343 L187.47469,345.1264"/>
<path d="M202,343 L197.29509,344.69226"/>
<path d="M212,343 L207.2172,344.45764"/>
<path d="M222,343 L217.20926,344.43137"/>
<path d="M232,343 L227.26057,344.59308"/>
<path d="M242,343 L237.37251,344.89374"/>
<path d="M252,343 L247.53827,345.25674"/>
<path d="M262,343 L257.74585,345.6272"/>
<path d="M272,343 L268.0172,346.0228"/>
<path d="M282,343 L278.3747,346.44342"/>
<path d="M292,343 L288.82858,346.86548"/>
<path d="M302,343 L299.3714,347.2533"/>
<path d="M312,343 L309.9758,347.57193"/>
<path d="M322,343 L320.59753,347.7993"/>
<path d="M332,343 L331.18362,347.9329"/>
<path d="M342,343 L341.68216,347.9899"/>
<path d="M352,343 L352.05014,347.99976"/>
<path d="M362,343 L362.25635,347.99344"/>
<path d="M372,343 L372.28094,347.9921"/>
<path d="M12,353 L15.349523,356.71225"/>
<path d="M22,353 L25.899824,356.12912"/>
<path d="M32,353 L36.29009,355.5681"/>
<path d="M42,353 L46.535057,355.10553"/>
<path d="M52,353 L56.66443,354.80087"/>
<path d="M62,353 L66.70491,354.6923"/>
<path d="M72,353 L76.665955,354.7969"/>
<path d="M82,353 L86.5325,355.11102"/>
<path d="M92,353 L96.26651,355.6071"/>
<path d="M102,353 L105.8177,356.2288"/>
<path d="M112,353 L115.14263,356.88895"/>
<path d="M122,353 L124.227615,357.47635"/>
<path d="M132,353 L133.10693,357.87592"/>
<path d="M142,353 L141.86633,357.9982"/>
<path d="M152,353 L150.62624,357.8076"/>
<path d="M162,353 L159.50922,357.33542"/>
<path d="M172,353 L168.60538,356.67105"/>
<path d="M182,353 L177.95142,355.9341"/>
<path d="M192,353 L187.53093,355.24222"/>
<path d="M202,353 L197.29308,354.68668"/>
<path d="M212,353 L207.17796,354.3221"/>
<path d="M222,353 L217.13806,354.16684"/>
<path d="M232,353 L227.14778,354.2066"/>
<path d="M242,353 L237.19897,354.39645"/>
<path d="M252,353 L247.28392,354.6609"/>
<path d="M262,353 L257.394,354.94547"/>
<path d="M272,353 L267.54883,355.27753"/>
<path d="M282,353 L277.77173,355.66864"/>
<path d="M292,353 L288.0808,356.10483"/>
<path d="M302,353 L298.4832,356.55414"/>
<path d="M312,353 L308.96948,356.97693"/>
<path d="M322,353 L319.51193,357.337"/>
<path d="M332,353 L330.06778,357.61157"/>
<path d="M342,353 L340.58688,357.79614"/>
<path d="M352,353 L351.02063,357.90314"/>
<path d="M362,353 L361.32877,357.95474"/>
<path d="M372,353 L371.4825,357.97314"/>
<path d="M12,363 L15.6649275,366.4012"/>
<path d="M22,363 L26.166203,365.76456"/>
<path d="M32,363 L36.511887,365.15472"/>
<path d="M42,363 L46.721287,364.64606"/>
<path d="M52,363 L56.828796,364.2972"/>
<path d="M62,363 L66.86652,364.14758"/>
<path d="M72,363 L76.84934,364.21814"/>
<path d="M82,363 L86.7658,364.51233"/>
<path d="M92,363 L96.5769,365.01297"/>
<path d="M102,363 L106.22405,365.67532"/>
<path d="M112,363 L115.6469,366.42053"/>
<path d="M122,363 L124.80831,367.13684"/>
<path d="M132,363 L133.71909,367.6952"/>
<path d="M142,363 L142.45042,367.97968"/>
<path d="M152,363 L151.12442,367.92273"/>
<path d="M162,363 L159.88216,367.52933"/>
<path d="M172,363 L168.84215,366.8766"/>
<path d="M182,363 L178.06815,366.08878"/>
<path d="M192,363 L187.56018,365.29956"/>
<path d="M202,363 L197.26959,364.61966"/>
<path d="M212,363 L207.12695,364.11954"/>
<path d="M222,363 L217.06897,363.82764"/>
<path d="M232,363 L227.05434,363.73517"/>
<path d="M242,363 L237.06442,363.80002"/>
<path d="M252,363 L247.09048,363.9469"/>
<path d="M262,363 L257.1274,364.12152"/>
<path d="M272,363 L267.18866,364.36057"/>
<path d="M282,363 L277.2934,364.68756"/>
<path d="M292,363 L287.46262,365.1005"/>
<path d="M302,363 L297.71472,365.5761"/>
<path d="M312,363 L308.05853,366.07648"/>
<path d="M322,363 L318.48697,366.5579"/>
<path d="M332,363 L328.9748,366.981"/>
<path d="M342,363 L339.4817,367.31952"/>
<path d="M352,363 L349.9597,367.5648"/>
<path d="M362,363 L360.36182,367.72403"/>
<path d="M372,363 L370.64883,367.81396"/>
<path d="M12,373 L15.789988,376.2613"/>
<path d="M22,373 L26.272236,375.5977"/>
<path d="M32,373 L36.601746,374.95547"/>
<path d="M42,373 L46.797867,374.4073"/>
<path d="M52,373 L56.89641,374.0125"/>
<path d="M62,373 L66.933464,373.813"/>
<path d="M72,373 L76.92996,373.83392"/>
<path d="M82,373 L86.880806,374.08524"/>
<path d="M92,373 L96.75066,374.55923"/>
<path d="M102,373 L106.47863,375.22302"/>
<path d="M112,373 L115.993324,376.00888"/>
<path d="M122,373 L125.23797,376.80994"/>
<path d="M132,373 L134.19962,377.49017"/>
<path d="M142,373 L142.93034,377.9127"/>
<path d="M152,373 L151.54678,377.97943"/>
<path d="M162,373 L160.2024,377.66568"/>
<path d="M172,373 L169.04156,377.03085"/>
<path d="M182,373 L178.15675,376.19836"/>
<path d="M192,373 L187.56837,375.3153"/>
<path d="M202,373 L197.23395,374.51157"/>
<path d="M212,373 L207.07706,373.87442"/>
<path d="M222,373 L217.01965,373.4429"/>
<path d="M232,373 L227.00453,373.213"/>
<path d="M242,373 L237.00208,373.14423"/>
<path d="M252,373 L247.0026,373.16086"/>
<path d="M262,373 L257.00436,373.20874"/>
<path d="M272,373 L267.01105,373.33212"/>
<path d="M282,373 L277.032,373.56497"/>
<path d="M292,373 L287.08484,373.91718"/>
<path d="M302,373 L297.19348,374.3775"/>
<path d="M312,373 L307.3818,374.9163"/>
<path d="M322,373 L317.6645,375.49066"/>
<path d="M332,373 L328.0397,376.05222"/>
<path d="M342,373 L338.48578,376.5567"/>
<path d="M352,373 L348.9644,376.97305"/>
<path d="M362,373 L359.428,377.28775"/>
<path d="M372,373 L369.82877,377.50397"/>
<path d="M12,383 L15.739183,386.31943"/>
<path d="M22,383 L26.237661,385.65372"/>
<path d="M32,383 L36.58519,384.994"/>
<path d="M42,383 L46.796577,384.41168"/>
<path d="M52,383 L56.905296,383.96854"/>
<path d="M62,383 L66.94923,383.71075"/>
<path d="M72,383 L76.955086,383.66867"/>
<path d="M82,383 L86.92579,383.85825"/>
<path d="M92,383 L96.83342,384.27988"/>
<path d="M102,383 L106.62028,384.9113"/>
<path d="M112,383 L116.210464,385.69666"/>
<path d="M122,383 L125.53328,386.53778"/>
<path d="M132,383 L134.55463,387.29813"/>
<path d="M142,383 L143.30534,387.8266"/>
<path d="M152,383 L151.89064,387.9988"/>
<path d="M162,383 L160.46924,387.75992"/>
<path d="M172,383 L169.20676,387.14703"/>
<path d="M182,383 L178.22385,386.27728"/>
<path d="M192,383 L187.56418,385.30728"/>
<path d="M202,383 L197.19556,384.38467"/>
<path d="M212,383 L207.03786,383.61414"/>
<path d="M222,383 L217.00021,383.04584"/>
<path d="M232,383 L227.01022,382.6804"/>
<path d="M242,383 L237.02733,382.47797"/>
<path d="M252,383 L247.04085,382.3622"/>
<path d="M262,383 L257.05215,382.2797"/>
<path d="M272,383 L267.0522,382.27942"/>
<path d="M282,383 L277.0359,382.40207"/>
<path d="M292,383 L287.0111,382.6667"/>
<path d="M302,383 L297.00055,383.07404"/>
<path d="M312,383 L307.03702,383.60733"/>
<path d="M322,383 L317.15436,384.23273"/>
<path d="M332,383 L327.37613,384.90256"/>
<path d="M342,383 L337.70663,385.56262"/>
<path d="M352,383 L348.12714,386.16245"/>
<path d="M362,383 L358.5989,386.66507"/>
<path d="M372,383 L369.07162,387.05273"/>
<path d="M12,393 L15.506373,396.56445"/>
<path d="M22,393 L26.056019,395.92383"/>
<path d="M32,393 L36.457832,395.26443"/>
<path d="M42,393 L46.7177,394.65628"/>
<path d="M52,393 L56.862465,394.16467"/>
<path d="M62,393 L66.92858,393.84207"/>
<path d="M72,393 L76.94707,393.72562"/>
<path d="M82,393 L86.929306,393.83783"/>
<path d="M92,393 L96.8573,394.18604"/>
<path d="M102,393 L106.68111,394.75705"/>
<path d="M112,393 L116.326584,395.50613"/>
<path d="M122,393 L125.71565,396.34573"/>
<path d="M132,393 L134.79773,397.14398"/>
<path d="M142,393 L143.583,397.7428"/>
<path d="M152,393 L152.16086,397.9974"/>
<path d="M162,393 L160.68823,397.82486"/>
<path d="M172,393 L169.34561,397.23724"/>
<path d="M182,393 L178.27919,396.34"/>
<path d="M192,393 L187.55739,395.29416"/>
<path d="M202,393 L197.16211,394.26285"/>
<path d="M212,393 L207.01355,393.36786"/>
<path d="M222,393 L217.01082,392.67133"/>
<path d="M232,393 L227.06786,392.17902"/>
<path d="M242,393 L237.13364,391.85175"/>
<path d="M252,393 L247.19624,391.6129"/>
<path d="M262,393 L257.25934,391.41064"/>
<path d="M272,393 L267.29944,391.29572"/>
<path d="M282,393 L277.2942,391.31027"/>
<path d="M292,393 L287.23746,391.47742"/>
<path d="M302,393 L297.14444,391.80685"/>
<path d="M312,393 L307.04987,392.2955"/>
<path d="M322,393 L317.00058,392.9244"/>
<path d="M332,393 L327.04327,393.65643"/>
<path d="M342,393 L337.21124,394.43796"/>
<path d="M352,393 L347.5134,395.2069"/>
<path d="M362,393 L357.9304,395.90488"/>
<path d="M372,393 L368.41858,396.48904"/>
<path d="M12,403 L15.068945,406.94736"/>
<path d="M22,403 L25.698277,406.36493"/>
<path d="M32,403 L36.188034,405.73138"/>
<path d="M42,403 L46.531414,405.11334"/>
<path d="M52,403 L56.743927,404.5796"/>
<path d="M62,403 L66.85624,404.19037"/>
<path d="M72,403 L76.90069,403.99158"/>
<path d="M82,403 L86.896164,404.0137"/>
<path d="M92,403 L96.8357,404.2712"/>
<path d="M102,403 L106.68049,404.7587"/>
<path d="M112,403 L116.36345,405.44138"/>
<path d="M122,403 L125.80569,406.24295"/>
<path d="M132,403 L134.94597,407.03998"/>
<path d="M142,403 L143.7763,407.67383"/>
<path d="M152,403 L152.36806,407.98645"/>
<path d="M162,403 L160.86981,407.8706"/>
<path d="M172,403 L169.4696,407.31244"/>
<path d="M182,403 L178.3346,406.4007"/>
<path d="M192,403 L187.5579,405.29517"/>
<path d="M202,403 L197.13893,404.17047"/>
<path d="M212,403 L207.00272,403.1646"/>
<path d="M222,403 L217.04207,402.35275"/>
<path d="M232,403 L227.15955,401.747"/>
<path d="M242,403 L237.29434,401.30978"/>
<path d="M252,403 L247.43266,400.96542"/>
<path d="M262,403 L257.57898,400.6645"/>
<path d="M272,403 L267.6951,400.4568"/>
<path d="M282,403 L277.7409,400.3808"/>
<path d="M292,403 L287.69458,400.45767"/>
<path d="M302,403 L297.56,400.7008"/>
<path d="M312,403 L307.36765,401.11813"/>
<path d="M322,403 L317.1699,401.7077"/>
<path d="M332,403 L327.03036,402.44992"/>
<path d="M342,403 L337.00916,403.30234"/>
<path d="M352,403 L347.14658,404.20184"/>
<path d="M362,403 L357.45108,405.07538"/>
<path d="M372,403 L367.89575,405.85574"/>
<path d="M12,413 L14.404584,417.38382"/>
<path d="M22,413 L25.129213,416.89975"/>
<path d="M32,413 L35.731834,416.32767"/>
<path d="M42,413 L46.19058,415.72748"/>
<path d="M52,413 L56.50506,415.16898"/>
<path d="M62,413 L66.69482,414.7201"/>
<path d="M72,413 L76.788956,414.43732"/>
<path d="M82,413 L86.81116,414.36118"/>
<path d="M92,413 L96.76508,414.5146"/>
<path d="M102,413 L106.62492,414.90002"/>
<path d="M112,413 L116.33481,415.49188"/>
<path d="M122,413 L125.82085,416.22507"/>
<path d="M132,413 L135.01718,416.98706"/>
<path d="M142,413 L143.90161,417.62427"/>
<path d="M152,413 L152.52684,417.97217"/>
<path d="M162,413 L161.0279,417.9046"/>
<path d="M172,413 L169.59262,417.3823"/>
<path d="M182,413 L178.40315,416.47314"/>
<path d="M192,413 L187.57559,415.32907"/>
<path d="M202,413 L197.12964,414.1312"/>
<path d="M212,413 L207.0001,413.0317"/>
<path d="M222,413 L217.07813,412.11954"/>
<path d="M232,413 L227.25778,411.41528"/>
<path d="M242,413 L237.46947,410.88474"/>
<path d="M252,413 L247.69629,410.45477"/>
<path d="M262,413 L257.94168,410.07935"/>
<path d="M272,413 L268.15363,409.80542"/>
<path d="M282,413 L278.27563,409.66397"/>
<path d="M292,413 L288.27106,409.6691"/>
<path d="M302,413 L298.13162,409.8321"/>
<path d="M312,413 L307.8798,410.16736"/>
<path d="M322,413 L317.56662,410.68802"/>
<path d="M332,413 L327.26468,411.39478"/>
<path d="M342,413 L337.0545,412.26382"/>
<path d="M352,413 L347.00583,413.2415"/>
<path d="M362,413 L357.15866,414.24957"/>
<path d="M372,413 L367.51093,415.20187"/>
<path d="M12,423 L13.514423,427.76514"/>
<path d="M22,423 L24.331432,427.42316"/>
<path d="M32,423 L35.056366,426.9571"/>
<path d="M42,423 L45.65215,426.41495"/>
<path d="M52,423 L56.099174,425.863"/>
<path d="M62,423 L66.40029,425.37433"/>
<path d="M72,423 L76.575485,425.01617"/>
<path d="M82,423 L86.64866,424.8412"/>
<path d="M92,423 L96.63186,424.88306"/>
<path d="M102,423 L106.5125,425.15347"/>
<path d="M112,423 L116.248566,425.63623"/>
<path d="M122,423 L125.7758,426.2777"/>
<path d="M132,423 L135.02934,426.9778"/>
<path d="M142,423 L143.97725,427.59244"/>
<path d="M152,423 L152.65453,427.95697"/>
<path d="M162,423 L161.17863,427.93207"/>
<path d="M172,423 L169.73004,427.45502"/>
<path d="M182,423 L178.49872,426.56946"/>
<path d="M192,423 L187.62074,425.4129"/>
<path d="M202,423 L197.13795,424.1664"/>
<path d="M212,423 L207,422.9932"/>
<path d="M222,423 L217.1018,421.99615"/>
<path d="M232,423 L227.33263,421.20676"/>
<path d="M242,423 L237.61536,420.5969"/>
<path d="M252,423 L247.92854,420.09772"/>
<path d="M262,423 L258.27258,419.6674"/>
<path d="M272,423 L268.58334,419.34946"/>
<path d="M282,423 L278.79062,419.16595"/>
<path d="M292,423 L288.84546,419.12073"/>
<path d="M302,423 L298.7286,419.21872"/>
<path d="M312,423 L308.4534,419.4756"/>
<path d="M322,423 L318.06512,419.91507"/>
<path d="M332,423 L327.6378,420.55643"/>
<path d="M342,423 L337.26385,421.39725"/>
<path d="M352,423 L347.0361,422.4003"/>
<path d="M362,423 L357.02423,423.4918"/>
<path d="M372,423 L367.25446,424.5747"/>
<path d="M12,433 L12.441722,437.98044"/>
<path d="M22,433 L23.327272,437.82062"/>
<path d="M32,433 L34.163437,437.50772"/>
<path d="M42,433 L44.90066,437.0726"/>
<path d="M52,433 L55.499283,436.5714"/>
<path d="M62,433 L65.94102,436.0771"/>
<path d="M72,433 L76.23033,435.66537"/>
<path d="M82,433 L86.3853,435.4019"/>
<path d="M92,433 L96.422104,435.33344"/>
<path d="M102,433 L106.33976,435.48325"/>
<path d="M112,433 L116.11101,435.84598"/>
<path d="M122,433 L125.6844,436.38013"/>
<path d="M132,433 L135.00072,436.99948"/>
<path d="M142,433 L144.02272,437.5726"/>
<path d="M152,433 L152.7697,437.9404"/>
<path d="M162,433 L161.33917,437.95615"/>
<path d="M172,433 L169.89774,437.53656"/>
<path d="M182,433 L178.63585,436.69897"/>
<path d="M192,433 L187.70511,435.56006"/>
<path d="M202,433 L197.17023,434.29355"/>
<path d="M212,433 L207.00047,433.06885"/>
<path d="M222,433 L217.10057,432.00223"/>
<path d="M232,433 L227.35954,431.1382"/>
<path d="M242,433 L237.69453,430.45776"/>
<path d="M252,433 L248.07831,429.89832"/>
<path d="M262,433 L258.5065,429.4229"/>
<path d="M272,433 L268.90536,429.07275"/>
<path d="M282,433 L279.19388,428.8617"/>
<path d="M292,433 L289.31345,428.78308"/>
<path d="M302,433 L299.2362,428.8333"/>
<path d="M312,433 L308.96695,429.025"/>
<path d="M322,433 L318.54358,429.3871"/>
<path d="M332,433 L328.0362,429.95233"/>
<path d="M342,433 L337.5412,430.7375"/>
<path d="M352,433 L347.1656,431.7239"/>
<path d="M362,433 L357.0023,432.84885"/>
<path d="M372,433 L367.10376,434.01334"/>
<path d="M12,443 L11.274433,447.94708"/>
<path d="M22,443 L22.18672,447.99652"/>
<path d="M32,443 L33.10201,447.87704"/>
<path d="M42,443 L43.963795,447.5982"/>
<path d="M52,443 L54.714825,447.1988"/>
<path d="M62,443 L65.3138,446.74417"/>
<path d="M72,443 L75.744286,446.31366"/>
<path d="M82,443 L86.011765,445.98425"/>
<path d="M92,443 L96.130775,445.8172"/>
<path d="M102,443 L106.10834,445.84982"/>
<path d="M112,443 L115.931,446.08987"/>
<path d="M122,443 L125.56164,446.50925"/>
<path d="M132,443 L134.95003,447.037"/>
<path d="M142,443 L144.05774,447.55695"/>
<path d="M152,443 L152.89093,447.91998"/>
<path d="M162,443 L161.52625,447.9775"/>
<path d="M172,443 L170.11122,447.62952"/>
<path d="M182,443 L178.82959,446.86633"/>
<path d="M192,443 L187.84293,445.77826"/>
<path d="M202,443 L197.23792,444.52402"/>
<path d="M212,443 L207.00746,443.27316"/>
<path d="M222,443 L217.07224,442.1532"/>
<path d="M232,443 L227.32642,441.22302"/>
<path d="M242,443 L237.68402,440.47568"/>
<path d="M252,443 L248.1114,439.85693"/>
<path d="M262,443 L258.59845,439.3354"/>
<path d="M272,443 L269.06476,438.95224"/>
<path d="M282,443 L279.42136,438.71625"/>
<path d="M292,443 L289.6022,438.61246"/>
<path d="M302,443 L299.57278,438.62866"/>
<path d="M312,443 L309.33096,438.77197"/>
<path d="M322,443 L318.90732,439.07123"/>
<path d="M332,443 L328.36563,439.56613"/>
<path d="M342,443 L337.80026,440.28665"/>
<path d="M352,443 L347.32364,441.23032"/>
<path d="M362,443 L357.04272,442.34775"/>
<path d="M372,443 L367.0298,443.545"/>
<path d="M12,453 L10.126676,457.6358"/>
<path d="M22,453 L21.014343,457.9019"/>
<path d="M32,453 L31.961243,457.99985"/>
<path d="M42,453 L42.911167,457.9163"/>
<path d="M52,453 L53.79499,457.6667"/>
<path d="M62,453 L64.549995,457.30087"/>
<path d="M72,453 L75.13583,456.89444"/>
<path d="M82,453 L85.53943,456.53165"/>
<path d="M92,453 L95.767136,456.28766"/>
<path d="M102,453 L105.828896,456.2155"/>
<path d="M112,453 L115.72235,456.3383"/>
<path d="M122,453 L125.4245,456.6432"/>
<path d="M132,453 L134.8962,457.0758"/>
<path d="M142,453 L144.10109,457.5371"/>
<path d="M152,453 L153.03519,457.89166"/>
<path d="M162,453 L161.75464,457.994"/>
<path d="M172,453 L170.3844,457.73178"/>
<path d="M182,453 L179.09483,457.0694"/>
<path d="M192,453 L188.05104,456.06686"/>
<path d="M202,453 L197.35909,454.86063"/>
<path d="M212,453 L207.03775,453.6132"/>
<path d="M222,453 L217.02931,452.45935"/>
<path d="M232,453 L227.23903,451.47253"/>
<path d="M242,453 L237.58138,450.65997"/>
<path d="M252,453 L248.01674,449.9778"/>
<path d="M262,453 L258.52914,449.40094"/>
<path d="M272,453 L269.03522,448.97382"/>
<path d="M282,453 L279.44073,448.70465"/>
<path d="M292,453 L289.6737,448.57413"/>
<path d="M302,453 L299.6941,448.56348"/>
<path d="M312,453 L309.49423,448.67322"/>
<path d="M322,453 L319.09845,448.92804"/>
<path d="M332,453 L328.56375,449.3679"/>
<path d="M342,453 L337.97885,450.0284"/>
<path d="M352,453 L347.4543,450.91754"/>
<path d="M362,453 L357.10147,451.9978"/>
<path d="M372,453 L367.00342,453.18454"/>
<path d="M12,463 L9.106295,467.07755"/>
<path d="M22,463 L19.919546,467.5466"/>
<path d="M32,463 L30.845348,467.86484"/>
<path d="M42,463 L41.835136,467.99728"/>
<path d="M52,463 L52.81568,467.933"/>
<path d="M62,463 L63.707752,467.6993"/>
<path d="M72,463 L74.44732,467.3601"/>
<path d="M82,463 L84.99877,467.00092"/>
<path d="M92,463 L95.35426,466.70795"/>
<path d="M102,463 L105.52085,466.55014"/>
<path d="M112,463 L115.50327,466.5675"/>
<path d="M122,463 L125.29103,466.7642"/>
<path d="M132,463 L134.85672,467.10355"/>
<path d="M142,463 L144.1687,467.5052"/>
<path d="M152,463 L153.21587,467.8499"/>
<path d="M162,463 L162.03543,467.99988"/>
<path d="M172,463 L170.72787,467.83545"/>
<path d="M182,463 L179.44466,467.2977"/>
<path d="M192,463 L188.34761,466.41467"/>
<path d="M202,463 L197.55751,465.2944"/>
<path d="M212,463 L207.11914,464.085"/>
<path d="M222,463 L217.0006,462.9228"/>
<path d="M232,463 L227.1239,461.89383"/>
<path d="M242,463 L237.40848,461.02063"/>
<path d="M252,463 L247.81027,460.2712"/>
<path d="M262,463 L258.30847,459.62766"/>
<path d="M272,463 L268.82098,459.14075"/>
<path d="M282,463 L279.2514,458.82324"/>
<path d="M292,463 L289.5231,458.65662"/>
<path d="M302,463 L299.59088,458.61865"/>
<path d="M312,463 L309.44223,458.70377"/>
<path d="M322,463 L319.09613,458.92966"/>
<path d="M332,463 L328.60327,459.3309"/>
<path d="M342,463 L338.0446,459.94144"/>
<path d="M352,463 L347.52353,460.7726"/>
<path d="M362,463 L357.1473,461.79523"/>
<path d="M372,463 L367.00043,462.9352"/>
<path d="M12,473 L8.284906,476.34634"/>
<path d="M22,473 L18.984818,476.98856"/>
<path d="M32,473 L29.842278,477.51047"/>
<path d="M42,473 L40.8223,477.8593"/>
<path d="M52,473 L51.85562,477.99792"/>
<path d="M62,473 L62.853493,477.9266"/>
<path d="M72,473 L73.731415,477.69064"/>
<path d="M82,473 L84.429955,477.3698"/>
<path d="M92,473 L94.92252,477.05695"/>
<path d="M102,473 L105.2078,476.83536"/>
<path d="M112,473 L115.293,476.76245"/>
<path d="M122,473 L125.17752,476.86047"/>
<path d="M132,473 L134.84543,477.1114"/>
<path d="M142,473 L144.27151,477.45422"/>
<path d="M152,473 L153.44066,477.78796"/>
<path d="M162,473 L162.37366,477.98602"/>
<path d="M172,473 L171.14632,477.92657"/>
<path d="M182,473 L179.88724,477.5317"/>
<path d="M192,473 L188.74828,476.7982"/>
<path d="M202,473 L197.85875,475.8018"/>
<path d="M212,473 L207.2868,474.66904"/>
<path d="M222,473 L217.0283,473.53128"/>
<path d="M232,473 L227.0268,472.48312"/>
<path d="M242,473 L237.21136,471.5616"/>
<path d="M252,473 L247.53606,470.74762"/>
<path d="M262,473 L257.97702,470.03085"/>
<path d="M272,473 L268.45837,469.47058"/>
<path d="M282,473 L278.88525,469.08868"/>
<path d="M292,473 L289.17807,468.87244"/>
<path d="M302,473 L299.2868,468.80017"/>
<path d="M312,473 L309.19406,468.86157"/>
<path d="M322,473 L318.9138,469.06613"/>
<path d="M332,473 L328.49014,469.43896"/>
<path d="M342,473 L337.99512,470.00653"/>
<path d="M352,473 L347.52112,470.7775"/>
<path d="M362,473 L357.16483,471.72675"/>
<path d="M372,473 L367.0044,472.7903"/>
<path d="M12,483 L7.6852846,485.52652"/>
<path d="M22,483 L18.247618,486.30447"/>
<path d="M32,483 L29.001461,487.0011"/>
<path d="M42,483 L39.929214,487.55103"/>
<path d="M52,483 L50.972485,487.89328"/>
<path d="M62,483 L62.040485,487.99985"/>
<path d="M72,483 L73.03338,487.89206"/>
<path d="M82,483 L83.868965,487.63757"/>
<path d="M92,483 L94.49925,487.33057"/>
<path d="M102,483 L104.90999,487.06595"/>
<path d="M112,483 L115.10637,486.91797"/>
<path d="M122,483 L125.09463,486.92725"/>
<path d="M132,483 L134.8693,487.09476"/>
<path d="M142,483 L144.41289,487.37927"/>
<path d="M152,483 L153.70915,487.69882"/>
<path d="M162,483 L162.76573,487.941"/>
<path d="M172,483 L171.6353,487.9867"/>
<path d="M182,483 L180.42139,487.74426"/>
<path d="M192,483 L189.2601,487.18246"/>
<path d="M202,483 L198.28224,486.3434"/>
<path d="M212,483 L207.57437,485.32678"/>
<path d="M222,483 L217.15924,484.25183"/>
<path d="M232,483 L227.00468,483.21628"/>
<path d="M242,483 L237.0537,482.26923"/>
<path d="M252,483 L247.2615,481.40417"/>
<path d="M262,483 L257.60355,480.6186"/>
<path d="M272,483 L268.01486,479.9803"/>
<path d="M282,483 L278.4067,479.5232"/>
<path d="M292,483 L288.699,479.24454"/>
<path d="M302,483 L298.83783,479.12695"/>
<path d="M312,483 L308.80057,479.15765"/>
<path d="M322,483 L318.59552,479.3381"/>
<path d="M332,483 L328.25943,479.68216"/>
<path d="M342,483 L337.85397,480.2053"/>
<path d="M352,483 L347.45792,480.90964"/>
<path d="M362,483 L357.1534,481.7709"/>
<path d="M372,483 L367.00708,482.73404"/>
<path d="M12,493 L7.2902627,494.6788"/>
<path d="M22,493 L17.702583,495.55582"/>
<path d="M32,493 L28.329212,496.3949"/>
<path d="M42,493 L39.17189,497.12332"/>
<path d="M52,493 L50.18834,497.66025"/>
<path d="M62,493 L61.292618,497.9497"/>
<path d="M72,493 L72.37527,497.9859"/>
<path d="M82,493 L83.33379,497.81882"/>
<path d="M92,493 L94.097595,497.53873"/>
<path d="M102,493 L104.635864,497.24878"/>
<path d="M112,493 L114.9477,497.0387"/>
<path d="M122,493 L125.04299,496.96738"/>
<path d="M132,493 L134.92549,497.0548"/>
<path d="M142,493 L144.58621,497.2792"/>
<path d="M152,493 L154.01067,497.5779"/>
<path d="M162,493 L163.1971,497.85458"/>
<path d="M172,493 L172.17792,497.99683"/>
<path d="M182,493 L181.03151,497.9053"/>
<path d="M192,493 L189.87407,497.52554"/>
<path d="M202,493 L198.83107,496.86755"/>
<path d="M212,493 L208.00084,496.00113"/>
<path d="M222,493 L217.42953,495.02753"/>
<path d="M232,493 L227.10966,494.04144"/>
<path d="M242,493 L237.001,493.1001"/>
<path d="M252,493 L247.06305,492.2085"/>
<path d="M262,493 L257.27274,491.37122"/>
<path d="M272,493 L267.57986,490.66284"/>
<path d="M282,493 L277.906,490.12958"/>
<path d="M292,493 L288.17407,489.78094"/>
<path d="M302,493 L298.32764,489.6068"/>
<path d="M312,493 L308.33902,489.59454"/>
<path d="M322,493 L318.20975,489.739"/>
<path d="M332,493 L327.96786,490.0433"/>
<path d="M342,493 L337.6633,490.51144"/>
<path d="M352,493 L347.35977,491.13766"/>
<path d="M362,493 L357.1232,491.89694"/>
<path d="M372,493 L367.00668,492.74167"/>
<path d="M12,503 L7.067293,503.81757"/>
<path d="M22,503 L17.320738,504.76196"/>
<path d="M32,503 L27.801186,505.71478"/>
<path d="M42,503 L38.530853,506.6007"/>
<path d="M52,503 L49.48787,507.3231"/>
<path d="M62,503 L60.59738,507.79922"/>
<path d="M72,503 L71.746025,507.99353"/>
<path d="M82,503 L82.81381,507.93332"/>
<path d="M92,503 L93.70677,507.69968"/>
<path d="M102,503 L104.37419,507.40036"/>
<path d="M112,503 L114.80491,507.13913"/>
<path d="M122,503 L125.00924,506.99304"/>
<path d="M132,503 L134.99861,507.00104"/>
<path d="M142,503 L144.7732,507.16046"/>
<path d="M152,503 L154.32283,507.4277"/>
<path d="M162,503 L163.64056,507.72318"/>
<path d="M172,503 L172.74254,507.94455"/>
<path d="M182,503 L181.68376,507.99"/>
<path d="M192,503 L190.55861,507.78772"/>
<path d="M202,503 L199.48158,507.31943"/>
<path d="M212,503 L208.55597,506.62473"/>
<path d="M222,503 L217.846,505.78284"/>
<path d="M232,503 L227.3669,504.88"/>
<path d="M242,503 L237.09639,503.97705"/>
<path d="M252,503 L247.00078,503.0886"/>
<path d="M262,503 L257.06036,502.2253"/>
<path d="M272,503 L267.2413,501.46542"/>
<path d="M282,503 L277.47855,500.86542"/>
<path d="M292,503 L287.70093,500.447"/>
<path d="M302,503 L297.85165,500.20874"/>
<path d="M312,503 L307.89838,500.1405"/>
<path d="M322,503 L317.8353,500.2332"/>
<path d="M332,503 L327.68073,500.4813"/>
<path d="M342,503 L337.472,500.87936"/>
<path d="M352,503 L347.25793,501.41483"/>
<path d="M362,503 L357.0888,502.06177"/>
<path d="M372,503 L367.00488,502.7788"/>
<path d="M12,513 L7.000159,512.9602"/>
<path d="M22,513 L17.089182,513.9401"/>
<path d="M32,513 L27.407246,514.9765"/>
<path d="M42,513 L37.99735,515.99646"/>
<path d="M52,513 L48.861732,516.89246"/>
<path d="M62,513 L59.94292,517.55725"/>
<path d="M72,513 L71.130135,517.92377"/>
<path d="M82,513 L82.289825,517.9916"/>
<path d="M92,513 L93.3047,517.8268"/>
<path d="M102,513 L104.10094,517.5372"/>
<path d="M112,513 L114.65264,517.23834"/>
<path d="M122,513 L124.966576,517.02484"/>
<path d="M132,513 L135.0596,516.9546"/>
<path d="M142,513 L144.94101,517.0436"/>
<path d="M152,513 L154.60736,517.26636"/>
<path d="M162,513 L164.05061,517.5601"/>
<path d="M172,513 L173.27565,517.83453"/>
<path d="M182,513 L182.31784,517.98987"/>
<path d="M192,513 L191.25008,517.9434"/>
<path d="M202,513 L200.1724,517.654"/>
<path d="M212,513 L209.18677,517.1335"/>
<path d="M222,513 L218.36926,516.4377"/>
<path d="M232,513 L227.75397,515.6403"/>
<path d="M242,513 L237.33582,514.8015"/>
<path d="M252,513 L247.08974,513.943"/>
<path d="M262,513 L257.00064,513.08044"/>
<path d="M272,513 L267.05035,512.29224"/>
<path d="M282,513 L277.18805,511.64166"/>
<path d="M292,513 L287.35056,511.1608"/>
<path d="M302,513 L297.48254,510.857"/>
<path d="M312,513 L307.54797,510.72415"/>
<path d="M322,513 L317.5339,510.7519"/>
<path d="M332,513 L327.44885,510.92947"/>
<path d="M342,513 L337.31808,511.2451"/>
<path d="M352,513 L347.1769,511.6817"/>
<path d="M362,513 L357.0623,512.2133"/>
<path d="M372,513 L367.00388,512.8035"/>
<path d="M12,523 L7.066649,522.18634"/>
<path d="M22,523 L17.002764,523.16626"/>
<path d="M32,523 L27.15802,524.2471"/>
<path d="M42,523 L37.59404,525.3638"/>
<path d="M52,523 L48.338367,526.4048"/>
<path d="M62,523 L59.35611,527.2438"/>
<path d="M72,523 L70.54656,527.7841"/>
<path d="M82,523 L81.769325,527.9947"/>
<path d="M92,523 L92.88702,527.9207"/>
<path d="M102,523 L103.80184,527.66406"/>
<path d="M112,523 L114.46943,527.34766"/>
<path d="M122,523 L124.88852,527.08124"/>
<path d="M132,523 L135.07788,526.94037"/>
<path d="M142,523 L145.0545,526.95856"/>
<path d="M152,523 L154.82272,527.127"/>
<path d="M162,523 L164.37714,527.3988"/>
<path d="M172,523 L173.7166,527.6961"/>
<path d="M182,523 L182.86201,527.9251"/>
<path d="M192,523 L191.86763,527.9982"/>
<path d="M202,523 L200.81786,527.8582"/>
<path d="M212,523 L209.80853,527.49414"/>
<path d="M222,523 L218.92122,526.9397"/>
<path d="M232,523 L228.2037,526.25397"/>
<path d="M242,523 L237.66579,525.4929"/>
<path d="M252,523 L247.29163,524.6826"/>
<path d="M262,523 L257.0714,523.84204"/>
<path d="M272,523 L267.0002,523.0468"/>
<path d="M282,523 L277.04068,522.3636"/>
<path d="M292,523 L287.13837,521.8319"/>
<path d="M302,523 L297.24084,521.46686"/>
<path d="M312,523 L307.30984,521.2672"/>
<path d="M322,523 L317.32626,521.22345"/>
<path d="M332,523 L327.2897,521.3228"/>
<path d="M342,523 L337.21478,521.55023"/>
<path d="M352,523 L347.12552,521.88666"/>
<path d="M362,523 L357.04828,522.3069"/>
<path d="M372,523 L367.00488,522.7789"/>
<path d="M12,533 L7.2130632,531.55597"/>
<path d="M22,533 L17.024597,532.50464"/>
<path d="M32,533 L27.03496,533.5902"/>
<path d="M42,533 L37.319813,534.7595"/>
<path d="M52,533 L47.929893,535.9042"/>
<path d="M62,533 L58.855286,536.88727"/>
<path d="M72,533 L70.01214,537.5878"/>
<path d="M82,533 L81.26164,537.9452"/>
<path d="M92,533 L92.45288,537.97943"/>
<path d="M102,533 L103.46649,537.7801"/>
<path d="M112,533 L114.23791,537.4712"/>
<path d="M122,533 L124.75376,537.17334"/>
<path d="M132,533 L135.03038,536.97705"/>
<path d="M142,533 L145.08952,536.9313"/>
<path d="M152,533 L154.9427,537.04236"/>
<path d="M162,533 L164.58928,537.27734"/>
<path d="M172,533 L174.02666,537.57086"/>
<path d="M182,533 L183.26672,537.83685"/>
<path d="M192,533 L192.34944,537.9878"/>
<path d="M202,533 L201.34486,537.9569"/>
<path d="M212,533 L210.34024,537.7165"/>
<path d="M222,533 L219.41774,537.28156"/>
<path d="M232,533 L228.63358,536.6969"/>
<path d="M242,533 L238.00916,536.01215"/>
<path d="M252,533 L247.53745,535.2551"/>
<path d="M262,533 L257.2139,534.4468"/>
<path d="M272,533 L267.0435,533.6581"/>
<path d="M282,533 L277.00018,532.956"/>
<path d="M292,533 L287.038,532.3848"/>
<path d="M302,533 L297.10815,531.9657"/>
<path d="M312,533 L307.1714,531.7021"/>
<path d="M322,533 L317.2038,531.58704"/>
<path d="M332,533 L327.19772,531.60785"/>
<path d="M342,533 L337.1591,531.7487"/>
<path d="M352,533 L347.10297,531.99054"/>
<path d="M362,533 L357.0479,532.3096"/>
<path d="M372,533 L367.0104,532.6774"/>
<path d="M12,543 L7.3759947,541.0977"/>
<path d="M22,543 L17.102343,541.9935"/>
<path d="M32,543 L27.000254,543.05035"/>
<path d="M42,543 L37.153397,544.229"/>
<path d="M52,543 L47.630596,545.4307"/>
<path d="M62,543 L58.44587,546.51685"/>
<path d="M72,543 L69.536644,547.3511"/>
<path d="M82,543 L80.774185,547.8474"/>
<path d="M92,543 L92.002884,548"/>
<path d="M102,543 L103.08747,547.8803"/>
<path d="M112,543 L113.944244,547.6065"/>
<path d="M122,543 L124.544945,547.3039"/>
<path d="M132,543 L134.89906,547.0737"/>
<path d="M142,543 L145.02902,546.9781"/>
<path d="M152,543 L154.95142,547.03595"/>
<path d="M162,543 L164.67079,547.2269"/>
<path d="M172,543 L174.18613,547.49677"/>
<path d="M182,543 L183.50516,547.76807"/>
<path d="M192,543 L192.65843,547.9565"/>
<path d="M202,543 L201.70453,547.9913"/>
<path d="M212,543 L210.72203,547.8339"/>
<path d="M222,543 L219.79063,547.4854"/>
<path d="M232,543 L228.97084,546.97797"/>
<path d="M242,543 L238.29224,546.3545"/>
<path d="M252,543 L247.75548,545.64276"/>
<path d="M262,543 L257.36072,544.8647"/>
<path d="M272,543 L267.1194,544.08606"/>
<path d="M282,543 L277.01385,543.372"/>
<path d="M292,543 L287.00534,542.76917"/>
<path d="M302,543 L297.04883,542.303"/>
<path d="M312,543 L307.1049,541.9812"/>
<path d="M322,543 L317.1462,541.7997"/>
<path d="M332,543 L327.15945,541.7473"/>
<path d="M342,543 L337.1439,541.80914"/>
<path d="M352,543 L347.10788,541.967"/>
<path d="M362,543 L357.0645,542.19946"/>
<path d="M372,543 L367.02698,542.4812"/>
<path d="M12,553 L7.5017853,550.8169"/>
<path d="M22,553 L17.186382,551.6476"/>
<path d="M32,553 L27.012205,552.6509"/>
<path d="M42,553 L37.064667,553.8016"/>
<path d="M52,553 L47.42379,555.0145"/>
<path d="M62,553 L58.12339,556.15784"/>
<path d="M72,553 L69.123505,557.0897"/>
<path d="M82,553 L80.312355,557.7066"/>
<path d="M92,553 L91.53916,557.9787"/>
<path d="M102,553 L102.66088,557.9561"/>
<path d="M112,553 L113.57847,557.7443"/>
<path d="M122,553 L124.24806,557.4661"/>
<path d="M132,553 L134.66861,557.22833"/>
<path d="M142,553 L144.85886,557.10205"/>
<path d="M152,553 L154.83714,557.1171"/>
<path d="M162,553 L164.61218,557.26337"/>
<path d="M172,553 L174.18605,557.4968"/>
<path d="M182,553 L183.56596,557.7485"/>
<path d="M192,553 L192.77753,557.93915"/>
<path d="M202,553 L201.8716,557.99835"/>
<path d="M212,553 L210.91939,557.88184"/>
<path d="M222,553 L219.99693,557.58124"/>
<path d="M232,553 L229.16614,557.1194"/>
<path d="M242,553 L238.46185,556.5329"/>
<path d="M252,553 L247.89102,555.8489"/>
<path d="M262,553 L257.4576,555.08966"/>
<path d="M272,553 L267.17627,554.316"/>
<path d="M282,553 L277.03494,553.5901"/>
<path d="M292,553 L287.00015,552.9592"/>
<path d="M302,553 L297.03018,552.45154"/>
<path d="M312,553 L307.08572,552.0781"/>
<path d="M322,553 L317.137,551.83765"/>
<path d="M332,553 L327.16635,551.72095"/>
<path d="M342,553 L337.168,551.7148"/>
<path d="M352,553 L347.14548,551.8027"/>
<path d="M362,553 L357.1082,551.9656"/>
<path d="M372,553 L367.0675,552.1812"/>
<path d="M12,563 L7.557116,560.70636"/>
<path d="M22,563 L17.241253,561.46564"/>
<path d="M32,563 L27.036364,562.3981"/>
<path d="M42,563 L37.02415,563.49084"/>
<path d="M52,563 L47.288574,564.6741"/>
<path d="M62,563 L57.877205,565.82886"/>
<path d="M72,563 L68.77109,566.8176"/>
<path d="M82,563 L79.87965,567.52814"/>
<path d="M92,563 L91.06549,567.91187"/>
<path d="M102,563 L102.18681,567.9965"/>
<path d="M112,563 L113.13531,567.8694"/>
<path d="M122,563 L123.85303,567.644"/>
<path d="M132,563 L134.3262,567.4259"/>
<path d="M142,563 L144.56598,567.2914"/>
<path d="M152,563 L154.58879,567.27765"/>
<path d="M162,563 L164.40547,567.38336"/>
<path d="M172,563 L174.02144,567.5732"/>
<path d="M182,563 L183.44571,567.78644"/>
<path d="M192,563 L192.70259,567.9504"/>
<path d="M202,563 L201.8387,567.9974"/>
<path d="M212,563 L210.91997,567.88196"/>
<path d="M222,563 L220.01878,567.5907"/>
<path d="M232,563 L229.1967,567.14026"/>
<path d="M242,563 L238.49165,566.5625"/>
<path d="M252,563 L247.9154,565.8837"/>
<path d="M262,563 L257.47482,565.12665"/>
<path d="M272,563 L267.18503,564.3476"/>
<path d="M282,563 L277.03683,563.6057"/>
<path d="M292,563 L287.00027,562.94763"/>
<path d="M302,563 L297.0358,562.40283"/>
<path d="M312,563 L307.10416,561.9848"/>
<path d="M322,563 L317.17346,561.6944"/>
<path d="M332,563 L327.22266,561.52454"/>
<path d="M342,563 L337.24194,561.4635"/>
<path d="M352,563 L347.23126,561.497"/>
<path d="M362,563 L357.19757,561.60834"/>
<path d="M372,563 L367.15155,561.77826"/>
</g>
<g fill="none" id="2" stroke="red" stroke-width="1.5px">
<path d="M139.72128,288.03845 L130.8338,292.6224 L123.27113,299.16504 L117.69139,307.46362 L114.585976,316.9692 L114.0446,326.95456 L115.697014,336.81708 L118.90874,346.2873 L123.04254,355.39288 L127.589905,364.29913 L132.18047,373.18323 L136.55267,382.17676 L140.52966,391.35193 L144.00706,400.7278 L146.94724,410.28583 L149.3725,419.98727 L151.3542,429.78894 L152.99837,439.65286 L154.43127,449.54965 L155.78784,459.4572 L157.20317,469.35657 L158.8058,479.2273 L160.70993,489.04434 L163.00468,498.7775 L165.73985,508.39615 L168.90547,517.8819 L172.40466,527.2497 L176.07776,536.55066 L179.72969,545.86 L183.14426,555.259 L186.09137,564.8148"/>
<path d="M240.49187,332.7057 L231.51991,337.12204 L222.15639,340.63266 L212.60571,343.59653 L203.03177,346.4844 L193.59906,349.80463 L184.54091,354.04135 L176.21071,359.5738 L169.05777,366.56204 L163.47902,374.8613 L159.61281,384.08368 L157.26843,393.805 L156.06319,403.7321 L155.60887,413.72177 L155.6122,423.72177 L155.89273,433.71783 L156.36493,443.70667 L157.01328,453.68564 L157.8698,463.64886 L158.9959,473.58527 L160.46632,483.47656 L162.35318,493.29694 L164.70834,503.01566 L167.5441,512.60516 L170.80205,522.0596 L174.34512,531.4108 L177.98964,540.7231 L181.52591,550.0769 L184.72815,559.55035 L187.36043,569.1977"/>
<path d="M199.3302,339.68185 L189.97319,343.2098 L181.03215,347.68842 L172.87994,353.47992 L165.97864,360.71677 L160.71936,369.22205 L157.21365,378.5874 L155.23601,388.38992 L154.37532,398.3528 L154.22467,408.35165 L154.4788,418.34845 L154.94919,428.33737 L155.54506,438.3196 L156.24799,448.29486 L157.08932,458.2594 L158.13206,468.2049 L159.45605,478.11685 L161.14384,487.9734 L163.26521,497.7458 L165.85957,507.4034 L168.91417,516.9255 L172.33281,526.32294 L175.95493,535.6439 L179.58403,544.96216 L183.00285,554.35956 L185.98056,563.90594"/>
<path d="M150.1897,341.05228 L146.46764,350.33377 L144.75424,360.18588 L144.62456,370.18506 L145.52466,380.14447 L146.96881,390.03964 L148.6074,399.90448 L150.22223,409.77322 L151.70186,419.66315 L153.01614,429.57642 L154.19336,439.50687 L155.30106,449.44534 L156.43106,459.3813 L157.68774,469.302 L159.17834,479.1903 L161.0026,489.0225 L163.23976,498.76904 L165.93303,508.39954 L169.0677,517.8955 L172.54335,527.2721 L176.1977,536.58044 L179.83376,545.896 L183.23409,555.3001 L186.16774,564.8601"/>
<path d="M204.8569,225.79897 L199.92459,217.09999 L196.80449,207.5992 L195.67203,197.66353 L196.5608,187.70311 L199.28676,178.08182 L203.4773,169.0022 L208.6944,160.47098 L214.5476,152.36296 L220.7381,144.50945 L227.05295,136.75555 L233.34311,128.98163 L239.50095,121.102486 L245.43979,113.05698 L251.07358,104.79499 L256.29514,96.26649 L260.94675,87.41423 L264.79398,78.183914 L267.52386,68.56374 L268.759,58.640312 L268.10632,48.661633 L265.2566,39.076275 L260.11514,30.499235 L252.89388,23.581638 L244.09814,18.824015 L234.39761,16.395067 L224.40378,16.044039 L214.47313,17.219675 L204.69095,19.295523 L194.98767,21.713419 L185.25659,24.016958 L175.4245,25.841742 L165.48154,26.908232 L155.48224,27.026617 L145.5248,26.104952 L135.71803,24.148548 L126.14886,21.244959 L116.86121,17.538265 L107.85037,13.201817 L99.06908,8.417596"/>
<path d="M222.74963,254.2167 L213.39406,250.68497 L204.75456,245.6492 L197.00726,239.32626 L190.2841,231.92361 L184.7276,223.60947 L180.53041,214.53293 L177.93681,204.8751 L177.18602,194.90334 L178.39728,184.97696 L181.45963,175.4574 L186.03206,166.56398 L191.6678,158.30333 L197.94795,150.52132 L204.53902,143.00082 L211.18872,135.53214 L217.70126,127.943535 L223.91284,120.10668 L229.66953,111.92985 L234.80418,103.34875 L239.10954,94.32301 L242.30872,84.848564 L244.03403,74.99852 L243.84206,65.00036 L241.31273,55.32552 L236.258,46.697098 L228.93924,39.882717 L220.04742,35.307182 L210.36198,32.81874 L200.40958,31.844255 L190.41052,31.70704 L180.41115,31.819338 L170.41153,31.73159 L160.42986,31.126488 L150.51743,29.805984 L140.74619,27.679316 L131.18556,24.747679 L121.88116,21.08324 L112.84248,16.80511 L104.04122,12.057714 L95.41694,6.9959283"/>
<path d="M233.12325,234.95638 L224.65907,229.63118 L217.59671,222.55142 L212.29787,214.07071 L209.02544,204.6213 L207.90817,194.68391 L208.87447,184.73071 L211.63216,175.11847 L215.7524,166.00674 L220.8009,157.37468 L226.42305,149.10477 L232.36272,141.05988 L238.4463,133.12325 L244.55814,125.20836 L250.61745,117.25318 L256.55695,109.20815 L262.2946,101.017944 L267.70013,92.60487 L272.59012,83.88203 L276.72485,74.77686 L279.80862,65.26421 L281.5028,55.40877 L281.46603,45.40884 L279.4282,35.618683 L275.27823,26.52045 L269.11707,18.643892 L261.24646,12.475134 L252.12346,8.379921 L242.29984,6.5100827 L232.30167,6.701568 L222.46396,8.495838 L212.8716,11.321915 L203.44116,14.648625 L194.02986,18.02905 L184.50967,21.08946 L174.80847,23.515678 L164.92778,25.055782 L154.93933,25.53646 L144.96089,24.880093 L135.11905,23.10864 L125.51324,20.328651 L116.19361,16.703094 L107.15651,12.421651 L98.35269,7.6790013"/>
<path d="M155.426,277.87466 L145.44633,278.5123 L135.66566,280.59515 L126.44576,284.4673 L118.32266,290.29956 L111.92593,297.98602 L107.81853,307.10355 L106.29387,316.98663 L107.22533,326.94315 L110.11,336.51807 L114.29856,345.59857 L119.20612,354.31155 L124.385155,362.86594 L129.51048,371.4526 L134.34776,380.2048 L138.73344,389.19177 L142.56738,398.42764 L145.81114,407.8869 L148.4849,417.52283 L150.65894,427.28366 L152.44034,437.12372 L153.95834,447.0078 L155.35188,456.91025 L156.76064,466.81052 L158.31828,476.68845 L160.14554,486.5201 L162.34056,496.2762 L164.96567,505.9255 L168.03015,515.4444 L171.4597,524.8379 L175.10793,534.1487 L178.78737,543.44714 L182.28659,552.81494 L185.37862,562.3249"/>
<path d="M207.7702,265.32227 L198.27872,262.17398 L189.16309,258.06235 L180.43137,253.18823 L172.05287,247.72923 L163.97403,241.83582 L156.13866,235.62238 L148.50897,229.15802 L141.07729,222.46696 L133.87668,215.52786 L126.99439,208.27292 L120.59068,200.59227 L114.921715,192.35437 L110.3559,183.45757 L107.35001,173.92001 L106.33384,163.97179 L107.503876,154.04047 L110.6747,144.55649 L115.35675,135.72029 L120.97316,127.44648 L126.99917,119.46605 L132.97044,111.444595 L138.42712,103.064575 L142.85579,94.0987 L145.67987,84.50576 L146.36046,74.528946 L144.62572,64.680565 L140.66522,55.49827 L135.03438,47.234272 L128.34335,39.802574 L121.05072,32.960247 L113.43926,26.474434 L105.662,20.188402 L97.786026,14.0265 L89.82106,7.9800653"/>
<path d="M151.21335,289.72177 L141.7617,292.98773 L133.17395,298.11127 L126.08498,305.16437 L121.14054,313.85648 L118.731384,323.56192 L118.78025,333.5618 L120.78477,343.35886 L124.08094,352.8 L128.07263,361.96875 L132.30783,371.02765 L136.46548,380.12234 L140.32683,389.34677 L143.75626,398.74036 L146.691,408.30002 L149.1328,417.9973 L151.13684,427.79443 L152.79729,437.65564 L154.2326,447.5521 L155.57306,457.46182 L156.9516,467.36636 L158.49672,477.24628 L160.32497,487.07773 L162.53062,496.83145 L165.17204,506.4763 L168.25354,515.9897 L171.69495,525.37885 L175.34625,534.6884 L179.01782,543.99 L182.49687,553.3653 L185.55556,562.88605"/>
<path d="M188.71663,331.6278 L179.59064,335.71634 L171.12839,341.04462 L163.7928,347.84088 L158.05806,356.0331 L154.18411,365.25226 L152.0608,375.02423 L151.28906,384.99442 L151.39613,394.99384 L151.98828,404.9763 L152.79726,414.9435 L153.67079,424.90527 L154.5472,434.8668 L155.43005,444.82776 L156.36725,454.78375 L157.43446,464.72662 L158.72223,474.64337 L160.32385,484.51428 L162.32227,494.31256 L164.77419,504.0073 L167.69197,513.57214 L171.01224,523.0049 L174.59471,532.3411 L178.25452,541.64734 L181.78146,551.00476 L184.94942,560.4897 L187.52245,570.153"/>
<path d="M186.78056,354.99612 L178.2609,360.2321 L170.82988,366.92386 L164.90814,374.98196 L160.69096,384.04922 L158.0424,393.6921 L156.60313,403.58798 L155.981,413.56863 L155.86818,423.568 L156.06927,433.56598 L156.48694,443.55725 L157.09708,453.5386 L157.92586,463.5042 L159.03072,473.443 L160.48389,483.33682 L162.35606,493.16 L164.69841,502.8818 L167.52324,512.47455 L170.77284,521.9318 L174.31058,531.28516 L177.95299,540.59814 L181.49046,549.9516 L184.69725,559.42346 L187.33745,569.06866"/>
<path d="M227.58908,335.04547 L218.17938,338.43036 L208.63116,341.40216 L199.10474,344.4431 L189.781,348.05804 L180.92851,352.70923 L172.93944,358.72375 L166.27168,366.17636 L161.26857,374.8348 L157.96913,384.2748 L156.10132,394.09882 L155.25555,404.063 L155.05608,414.061 L155.23479,424.05942 L155.63503,434.0514 L156.18973,444.036 L156.8966,454.011 L157.79684,463.9704 L158.9578,473.90277 L160.45798,483.7896 L162.37149,493.6048 L164.75085,503.31763 L167.6078,512.9008 L170.88202,522.3496 L174.43503,531.69714 L178.08258,541.0082 L181.61462,550.36365 L184.80516,559.841 L187.4182,569.4935"/>
<path d="M146.80441,299.44467 L138.4222,304.89795 L131.62178,312.22968 L127.02355,321.1098 L124.92993,330.88818 L125.145355,340.88586 L127.09936,350.69308 L130.13525,360.22113 L133.70088,369.56384 L137.39163,378.85782 L140.9299,388.21094 L144.13936,397.68192 L146.92764,407.28534 L149.27383,417.0062 L151.21529,426.81592 L152.8325,436.6843 L154.23392,446.5856 L155.54279,456.49957 L156.88751,466.40875 L158.3941,476.29462 L160.17838,486.13416 L162.3358,495.89865 L164.92778,505.5569 L167.9644,515.08466 L171.37341,524.48566 L175.00955,533.80115 L178.6858,543.1009 L182.19095,552.4665 L185.2982,561.9715"/>
<path d="M209.24661,286.75235 L199.24687,286.82367 L189.25401,286.44562 L179.2653,285.9705 L169.2671,285.78116 L159.28012,286.2912 L149.4166,287.93768 L139.94374,291.1416 L131.32643,296.21527 L124.19644,303.2269 L119.199646,311.889 L116.74066,321.58197 L116.76895,331.58194 L118.80291,341.3729 L122.18126,350.78494 L126.29916,359.89774 L130.69368,368.8804 L135.03362,377.88956 L139.08997,387.0299 L142.71594,396.34937 L145.83699,405.84985 L148.44377,415.5041 L150.58261,425.2727 L152.34206,435.1167 L153.83801,445.00418 L155.2005,454.91092 L156.56387,464.81754 L158.05939,474.70508 L159.80815,484.551 L161.91185,494.3272 L164.43985,504.00238 L167.41327,513.5501 L170.77515,522.968 L174.39009,532.2918 L178.0767,541.5874 L181.62726,550.93585 L184.81723,560.41345 L187.4117,570.071"/>
<path d="M168.98842,326.53888 L160.93987,332.47357 L154.33598,339.98282 L149.63968,348.81143 L146.98213,358.45184 L146.08139,368.4112 L146.42238,378.4054 L147.49033,388.3482 L148.88847,398.24997 L150.35583,408.14172 L151.74757,418.0444 L153.00856,427.9646 L154.1491,437.89935 L155.22424,447.84137 L156.31752,457.78143 L157.5283,467.70786 L158.96149,477.6046 L160.71706,487.4493 L162.87744,497.21317 L165.49193,506.86533 L168.55696,516.38403 L171.98503,525.7781 L175.6212,535.09357 L179.27264,544.4031 L182.72443,553.78845 L185.74731,563.3206"/>
<path d="M174.95285,284.352 L164.95439,284.176 L154.97603,284.83344 L145.16307,286.75845 L135.83018,290.3497 L127.488716,295.86514 L120.78871,303.28876 L116.34251,312.24594 L114.47235,322.06952 L115.035835,332.05362 L117.49908,341.7455 L121.19909,351.03583 L125.55412,360.0377 L130.12575,368.93152 L134.60063,377.87442 L138.76135,386.96774 L142.46844,396.25522 L145.65211,405.7349 L148.3065,415.37616 L150.48067,425.13696 L152.26549,434.97638 L153.77885,444.8612 L155.15245,454.76642 L156.5219,464.6722 L158.01949,474.55945 L159.76721,484.40552 L161.86755,494.18246 L164.39076,503.85892 L167.35907,513.4082 L170.71701,522.8276 L174.3302,532.152 L178.01788,541.4472 L181.57265,550.79407 L184.77023,560.26904 L187.37585,569.9236"/>
<path d="M204.77757,333.95978 L195.28569,337.10684 L186.02222,340.87357 L177.27051,345.7117 L169.44104,351.9326 L163.00528,359.58643 L158.3048,368.4128 L155.35794,377.96878 L153.86165,387.8562 L153.37662,397.84442 L153.5036,407.8436 L153.95699,417.8333 L154.56747,427.81467 L155.25957,437.7907 L156.0261,447.7613 L156.90643,457.72244 L157.96935,467.6658 L159.29889,477.57703 L160.98103,487.43454 L163.08885,497.20987 L165.66533,506.87225 L168.70247,516.3999 L172.10947,525.8016 L175.72894,535.1236 L179.36632,544.4386 L182.80547,553.8286 L185.81638,563.36456"/>
<path d="M144.25218,281.9304 L134.67216,284.79797 L125.87118,289.5459 L118.4522,296.25104 L113.05431,304.66904 L110.1447,314.2364 L109.80742,324.23068 L111.684166,334.053 L115.15106,343.4328 L119.5724,352.40228 L124.436264,361.13974 L129.36705,369.83957 L134.0957,378.65094 L138.43416,387.6608 L142.26318,396.89868 L145.52817,406.35068 L148.23528,415.97726 L150.4434,425.73044 L152.25125,435.56567 L153.7825,445.44772 L155.17293,455.3506 L156.56085,465.2538 L158.08011,475.13773 L159.85312,484.9793 L161.9818,494.75012 L164.5347,504.41876 L167.53094,513.95935 L170.91011,523.3711 L174.53458,532.69116 L178.22174,541.9866 L181.76318,551.33844 L184.93391,560.82245"/>
<path d="M179.61139,361.57422 L172.03018,368.09537 L165.92102,376.01233 L161.50517,384.98453 L158.67488,394.57562 L157.08601,404.4486 L156.34843,414.42136 L156.15036,424.4194 L156.29153,434.4184 L156.67052,444.41122 L157.26012,454.39383 L158.08417,464.3598 L159.19815,474.29758 L160.67227,484.18832 L162.57454,494.0057 L164.95242,503.7189 L167.81293,513.301 L171.09026,522.7487 L174.64204,532.09674 L178.28168,541.4108 L181.79764,550.7724 L184.96292,560.2582 L187.54099,569.92017"/>
</g>
</svg>