<svg height="384px" viewBox="0 0 576 384" width="576px" xmlns="http://www.w3.org/2000/svg" xmlns:inkscape="http://www.inkscape.org/namespaces/inkscape">
<g fill="none" id="1" stroke="black" stroke-width="0.2mm">
<path d="M63.011158,60.185425 L59.789066,60.212727 L60.212727,110.21093 L81.04068,110.03445"/>
<path d="M94.66984,59.917164 L109.78727,59.789066 L109.788284,59.908012"/>
<path d="M75.031395,109.99417 L62.988758,109.988754 L63.011246,59.988758 L66.24388,59.99021"/>
<path d="M75.031204,109.84471 L65.756226,109.75382 L66.24618,59.756226 L69.48879,59.788002"/>
<path d="M71.768616,109.56956 L68.51545,109.50587 L69.49413,59.51545 L85.34666,59.825798"/>
<path d="M75.03114,109.79519 L71.76679,109.764595 L72.235405,59.76679 L78.24553,59.82312"/>
<path d="M78.24353,60.02732 L74.968605,60.031437 L75.03144,110.031395 L81.040665,110.02385"/>
<path d="M102.76579,59.996506 L105.113235,59.993553"/>
<path d="M81.040276,109.785995 L77.75622,109.753815 L78.246185,59.756218 L103.52915,60.003986"/>
<path d="M105.1132,60.001408 L80.95937,60.04069 L81.04069,110.04063 L84.33664,110.03526"/>
<path d="M105.112976,60.05033 L83.66387,60.34071 L84.34071,110.33613 L87.644455,110.291405"/>
<path d="M114.15996,59.927853 L114.81768,59.91895"/>
<path d="M105.112434,60.169445 L86.36328,60.653366 L87.653366,110.63672 L90.96742,110.551186"/>
<path d="M114.42593,59.92906 L120.25418,59.77863"/>
<path d="M92.37909,60.85434 L89.05455,60.982635 L90.982635,110.94545 L96.98196,110.71393"/>
<path d="M116.15296,59.936897 L139.01736,59.054554 L139.02605,59.279423"/>
<path d="M101.74355,60.404568 L92.3737,60.64239 L93.642395,110.6263 L96.97525,110.5417"/>
<path d="M119.559715,59.95236 L125.81953,59.793472"/>
<path d="M98.39224,60.86105 L95.046555,60.99128 L96.99128,110.953445 L111.66575,110.382256"/>
<path d="M121.51015,59.961212 L145.00873,59.046555 L145.02519,59.469643"/>
<path d="M101.74501,60.545483 L98.386475,60.628967 L99.62897,110.613525 L111.66394,110.31437"/>
<path d="M124.67239,59.975563 L148.37103,59.386475 L148.37575,59.575874"/>
<path d="M105.11218,60.225674 L101.74206,60.26063 L102.26063,110.25794 L108.27069,110.1956"/>
<path d="M127.840225,59.98994 L141.2988,59.85035"/>
<path d="M108.26752,109.90163 L104.886795,109.886284 L105.113716,59.8868 L132.03413,60.008976"/>
<path d="M137.58702,59.948994 L107.73144,60.27148 L108.27148,110.26856 L111.66175,110.23194"/>
<path d="M119.77157,60.42247 L110.34464,60.673004 L111.673004,110.65536 L115.07119,110.56504"/>
<path d="M130.74689,60.130783 L143.04918,59.80383"/>
<path d="M116.35832,60.946083 L112.95395,61.091778 L115.091774,111.04605 L124.86757,110.62769"/>
<path d="M136.6951,60.075756 L162.90822,58.953945 L162.92696,59.391605"/>
<path d="M119.772995,60.57629 L116.35096,60.666348 L117.66634,110.64904 L123.6729,110.49097"/>
<path d="M139.92932,60.045837 L161.57846,59.4761"/>
<path d="M149.13618,59.960667 L119.76981,60.23233 L120.23233,110.23019 L123.66507,110.19843"/>
<path d="M154.63536,59.813576 L122.34048,60.677402 L123.67741,110.65952 L127.11256,110.56764"/>
<path d="M160.0032,59.574806 L124.913765,61.135628 L127.13563,111.086235 L130.57596,110.933205"/>
<path d="M130.94167,61.395813 L127.4855,61.612377 L130.61238,111.5145 L136.59953,111.13935"/>
<path d="M145.69308,60.47148 L177.38762,58.485493 L177.40268,58.725674"/>
<path d="M165.48627,59.604137 L130.9295,61.11843 L133.11842,111.070496 L136.5856,110.918564"/>
<path d="M170.90237,59.26241 L133.47539,61.62384 L136.62384,111.52461 L140.08705,111.30611"/>
<path d="M146.11156,111.479576 L140.14207,111.97249 L136.02751,62.14207 L139.50029,61.85532"/>
<path d="M151.73724,60.8449 L152.52704,60.779686"/>
<path d="M157.1423,60.398598 L185.85793,58.02751 L185.89792,58.511726"/>
<path d="M152.52734,60.795376 L139.48509,61.612835 L142.61284,111.514915 L146.09637,111.29657"/>
<path d="M159.62308,60.35063 L171.74583,59.590805"/>
<path d="M175.25426,59.370907 L176.44185,59.29647"/>
<path d="M158.4872,110.95838 L146.15326,111.98196 L142.01804,62.15325 L145.51106,61.863373"/>
<path d="M164.98962,60.246876 L168.14632,59.984905"/>
<path d="M169.6221,59.86243 L171.74298,59.686424"/>
<path d="M175.46814,59.377277 L191.84674,58.01804 L191.90436,58.712303"/>
<path d="M149.00641,61.383217 L145.49478,61.60186 L148.60185,111.505226 L157.05933,110.978645"/>
<path d="M179.36139,59.493256 L195.39815,58.494774 L195.43814,59.137295"/>
<path d="M152.52945,60.904026 L148.99268,61.04965 L151.04965,111.00732 L157.05025,110.76025"/>
<path d="M183.67325,59.621704 L198.95035,58.99268 L198.95036,58.99299"/>
<path d="M168.14513,60.185863 L152.52141,60.487938 L153.48795,110.4786 L157.03568,110.41"/>
<path d="M164.5668,60.662148 L154.98227,61.060955 L157.06096,111.01773 L160.60315,110.87034"/>
<path d="M187.1107,59.724102 L188.27216,59.675774"/>
<path d="M161.01822,61.418446 L157.45566,61.64624 L160.64624,111.54434 L177.51431,110.46576"/>
<path d="M187.38742,59.732346 L207.35376,58.45566 L207.39803,59.147964"/>
<path d="M164.57088,60.893307 L161.00275,61.03872 L163.03871,110.997246 L177.51312,110.40737"/>
<path d="M190.66365,59.829945 L210.96129,59.00275 L210.98668,59.625916"/>
<path d="M168.14398,60.38164 L164.56297,60.44481 L165.44481,110.437035 L177.50938,110.22422"/>
<path d="M193.92033,59.926956 L212.8175,59.59362"/>
<path d="M177.50296,109.90952 L167.85378,109.85292 L168.14708,59.85378 L171.73738,59.87484"/>
<path d="M173.88013,109.35215 L170.26668,109.24451 L171.7555,59.26668 L195.84154,59.984188"/>
<path d="M177.50266,109.894745 L173.87755,109.87694 L174.12306,59.877544 L201.22438,60.01062"/>
<path d="M206.60715,59.90081 L176.4953,60.515102 L177.5151,110.5047 L181.133,110.43089"/>
<path d="M194.62119,60.44704 L178.88779,61.16405 L181.16405,111.11221 L184.78447,110.94722"/>
<path d="M196.6513,60.354523 L211.87483,59.66075"/>
<path d="M190.96341,61.149918 L181.28732,61.838985 L184.83899,111.712685 L188.45744,111.455"/>
<path d="M193.24728,60.987278 L194.62794,60.888954"/>
<path d="M203.63368,60.247627 L217.07141,59.290684"/>
<path d="M203.28682,110.869156 L188.54018,112.30488 L183.69511,62.54018 L187.3392,62.185394"/>
<path d="M207.91577,60.18207 L233.45982,57.695118 L233.54485,58.568428"/>
<path d="M190.98053,61.552444 L187.31285,61.80957 L190.80957,111.68715 L201.19965,110.95874"/>
<path d="M211.25737,60.130913 L237.19043,58.312847 L237.24678,59.11661"/>
<path d="M194.62856,60.92855 L190.96063,61.084496 L193.08449,111.03937 L199.08371,110.78431"/>
<path d="M214.58942,60.079903 L240.91551,58.960632 L240.92601,59.207554"/>
<path d="M223.93575,59.936817 L194.62024,60.385616 L195.38562,110.37976 L199.06392,110.32345"/>
<path d="M200.6386,60.936787 L196.95093,61.095074 L199.09508,111.04908 L205.09406,110.79159"/>
<path d="M220.6818,60.076485 L243.74434,59.086582"/>
<path d="M229.84544,59.93991 L200.63022,60.375328 L201.37532,110.369774 L205.07338,110.31466"/>
<path d="M235.05563,59.714165 L202.94124,61.105625 L205.10562,111.058754 L208.8055,110.898445"/>
<path d="M208.9955,61.596474 L205.26392,61.866005 L208.86601,111.736084 L214.84572,111.30418"/>
<path d="M226.41142,60.33853 L255.13399,58.263912 L255.14346,58.395016"/>
<path d="M240.6724,59.739853 L208.97342,61.070583 L211.07059,111.02658 L214.81412,110.86943"/>
<path d="M220.99532,61.169876 L211.25368,61.877846 L214.87785,111.74633 L218.61742,111.474556"/>
<path d="M224.7529,60.896793 L245.77122,59.369297"/>
<path d="M226.86539,111.604065 L218.71892,112.45092 L213.54907,62.71891 L217.27144,62.33196"/>
<path d="M235.24054,60.464 L263.2811,57.54908 L263.38123,58.512344"/>
<path d="M221.01381,61.617756 L217.23936,61.894413 L220.89441,111.760635 L226.8451,111.32447"/>
<path d="M238.7053,60.32102 L266.93274,58.25203"/>
<path d="M252.53183,59.75044 L220.99046,61.05206 L223.05206,111.00954 L226.81097,110.85442"/>
<path d="M257.36475,59.399624 L223.25565,61.875565 L226.87556,111.744354 L230.65776,111.46981"/>
<path d="M262.72952,58.832752 L225.51141,62.765404 L230.76541,112.488594 L234.5058,112.09337"/>
<path d="M242.69,112.076416 L234.6568,113.1863 L227.8137,63.656796 L231.59215,63.134758"/>
<path d="M247.07965,60.994972 L277.3432,56.813698 L277.4991,57.94209"/>
<path d="M242.6646,111.83298 L236.7191,112.45107 L231.54893,62.719097 L235.3299,62.326023"/>
<path d="M250.39201,60.760155 L281.2809,57.548927 L281.309,57.819088"/>
<path d="M269.17163,59.42886 L235.29475,61.83041 L238.83041,111.705246 L242.6232,111.43637"/>
<path d="M273.77078,58.94888 L237.54007,62.730022 L242.73003,112.45994 L246.54333,112.061966"/>
<path d="M279.15912,58.194862 L239.77661,63.705856 L246.70586,113.22338 L250.46223,112.69773"/>
<path d="M283.31436,57.468575 L242.0689,64.67782 L250.67781,113.93111 L254.4402,113.27348"/>
<path d="M287.9623,56.482838 L244.3573,65.73058 L254.73058,114.6427 L258.4535,113.85314"/>
<path d="M292.4829,55.35078 L246.67583,66.82185 L258.82187,115.324165 L262.49615,114.404045"/>
<path d="M297.0578,54.057686 L297.04886,54.02685 L249.02686,67.951126 L262.95114,115.97315 L266.52957,114.93556"/>
<path d="M299.47305,55.072395 L298.936,53.439842 L251.43983,69.063995 L267.064,116.56016 L268.93286,115.94539"/>
<path d="M274.28964,114.41726 L268.93893,115.96644 L255.03355,67.93894 L258.73224,66.868065"/>
<path d="M261.30154,66.124176 L303.06107,54.03356 L303.5227,55.628025"/>
<path d="M303.48978,55.637573 L258.7076,66.76894 L270.76895,115.29238 L274.48718,114.36816"/>
<path d="M279.69647,114.59843 L274.95294,115.974144 L261.02585,67.95294 L264.69894,66.887665"/>
<path d="M266.66168,66.318436 L268.41043,65.811264"/>
<path d="M270.0231,65.34357 L309.04706,54.025856 L309.50406,55.60156"/>
<path d="M282.5167,113.89296 L276.81403,115.319466 L264.68054,66.81402 L268.4244,65.8775"/>
<path d="M273.41226,64.62981 L313.18597,54.680534 L313.52786,56.04727"/>
<path d="M310.34564,56.85161 L268.3846,65.68863 L278.68863,114.61539 L282.49658,113.81342"/>
<path d="M288.53708,113.93631 L282.88852,115.36403 L270.636,66.88852 L274.3948,65.938446"/>
<path d="M279.57175,64.62993 L319.11148,54.63597 L319.46997,56.05422"/>
<path d="M316.94037,56.694637 L274.3523,65.7383 L284.73828,114.64771 L288.5142,113.845894"/>
<path d="M297.23788,113.26024 L288.90033,115.37106 L276.62894,66.900314 L280.40582,65.94412"/>
<path d="M292.77048,62.813747 L325.09967,54.628937 L325.48782,56.16206"/>
<path d="M298.4357,113.00636 L290.7268,114.640236 L280.35977,65.7268 L284.2021,64.91243"/>
<path d="M296.22858,62.363453 L329.2732,55.359764 L329.5789,56.802094"/>
<path d="M298.41022,112.857765 L292.57156,113.856186 L284.14383,64.57157 L288.04208,63.90496"/>
<path d="M299.7002,61.911404 L333.42844,56.143814 L333.56573,56.94676"/>
<path d="M324.75778,58.648563 L287.9812,63.437378 L294.43738,113.01881 L298.3505,112.50926"/>
<path d="M329.472,57.840553 L290.13593,64.5827 L298.5827,113.86406 L302.45856,113.199745"/>
<path d="M333.14188,57.056812 L292.33008,65.772545 L302.77255,114.66993 L306.65955,113.83983"/>
<path d="M337.527,55.918167 L294.5193,67.08561 L307.0856,115.48073 L310.90842,114.48809"/>
<path d="M341.75262,54.619537 L296.75897,68.447136 L311.44714,116.24104 L315.19272,115.089935"/>
<path d="M320.4596,115.30474 L315.85553,116.94753 L299.05246,69.85552 L302.79355,68.52066"/>
<path d="M304.71698,67.83435 L346.14447,53.052467 L346.81055,54.919193"/>
<path d="M347.34576,54.75498 L302.76657,68.43278 L317.43277,116.23343 L321.1996,115.0777"/>
<path d="M325.4438,115.67756 L321.87024,116.9545 L305.0455,69.87023 L308.7365,68.55131"/>
<path d="M309.63016,68.23198 L352.12976,53.0455 L352.78232,54.871662"/>
<path d="M354.37866,54.377415 L308.72446,68.51239 L323.5124,116.27553 L327.22604,115.12575"/>
<path d="M356.97064,53.45011 L311.03976,69.882355 L327.88235,116.96024 L331.57562,115.63894"/>
<path d="M359.6557,52.49335 L359.6035,52.3665 L313.3665,71.39652 L332.3965,117.6335 L335.9126,116.18637"/>
<path d="M361.25632,52.022938 L361.15228,51.798767 L315.79877,72.84771 L336.84772,118.20123 L340.25143,116.62154"/>
<path d="M363.78583,53.450184 L362.6648,51.291508 L318.2915,74.33522 L341.3352,118.70849 L342.65976,118.02063"/>
<path d="M367.33566,51.969433 L367.27863,51.84528 L321.84528,72.721375 L342.72137,118.15472 L346.22372,116.54543"/>
<path d="M369.78082,53.463295 L368.64914,51.28656 L324.28656,74.35087 L347.35086,118.71344 L348.65405,118.035904"/>
<path d="M373.3777,52.03327 L373.29404,51.850994 L327.85098,72.70596 L348.70596,118.14901 L352.15265,116.56723"/>
<path d="M375.88782,53.511242 L374.7582,51.321205 L330.3212,74.241806 L353.2418,118.678795 L354.53012,118.014275"/>
<path d="M380.36343,53.954403 L379.4321,51.902527 L333.90253,72.567894 L354.5679,118.09747 L356.01944,117.43864"/>
<path d="M382.93216,52.930264 L337.519,71.036316 L356.03632,117.481 L359.72855,116.00893"/>
<path d="M363.26505,116.97919 L360.71222,118.15133 L339.84866,72.71223 L343.5265,71.02354"/>
<path d="M343.57242,71.00246 L385.28778,51.84867 L386.27557,54.00002"/>
<path d="M389.98563,52.542507 L389.97888,52.525536 L343.52554,71.02112 L362.02112,117.474464 L365.6461,116.03117"/>
<path d="M392.35715,53.975918 L391.4108,51.894535 L345.89453,72.589195 L366.5892,118.10547 L368.00595,117.46131"/>
<path d="M394.18015,53.250862 L349.5307,71.00915 L368.00916,117.46931 L371.74304,115.98424"/>
<path d="M397.26514,51.86158 L397.25333,51.835926 L351.83594,72.746666 L372.74667,118.16408 L376.3425,116.5085"/>
<path d="M399.6621,53.500275 L398.4656,51.229137 L354.22913,74.5344 L377.5344,118.77087 L378.72443,118.14391"/>
<path d="M404.2421,53.957973 L403.26895,51.8417 L357.8417,72.73105 L378.73105,118.1583 L380.4396,117.37264"/>
<path d="M385.17535,115.47364 L380.10062,117.50857 L361.49142,71.10061 L365.37112,69.54489"/>
<path d="M369.0303,68.07759 L407.89938,52.491432 L408.75467,54.62434"/>
<path d="M409.1535,54.48926 L365.30185,69.340294 L381.3403,116.698166 L385.14944,115.40814"/>
<path d="M413.01953,52.95893 L367.55353,70.95629 L385.9563,117.44648 L389.64822,115.985054"/>
<path d="M395.10272,116.07378 L390.61993,118.116974 L369.88303,72.61993 L373.67545,70.8914"/>
<path d="M375.64554,69.99346 L415.38007,51.88303 L416.39966,54.120037"/>
<path d="M416.74057,53.987255 L373.63126,70.778 L391.778,117.36873 L395.61032,115.876076"/>
<path d="M420.2445,52.388203 L375.87717,72.63565 L396.63565,118.12284 L400.31854,116.442116"/>
<path d="M422.4825,51.284554 L422.4509,51.224583 L378.22458,74.54911 L401.5491,118.77542 L405.06458,116.9214"/>
<path d="M423.59134,50.851418 L423.48694,50.678402 L380.6784,76.51308 L406.51306,119.3216 L409.84457,117.31106"/>
<path d="M426.16113,52.697258 L424.47818,50.24323 L383.24323,78.52182 L411.52182,119.756775 L412.3989,119.15529"/>
<path d="M429.6674,50.95462 L429.5033,50.682457 L386.68246,76.4967 L412.4967,119.31754 L415.73715,117.36407"/>
<path d="M389.2785,78.335304 L430.6647,50.27851 L458.7215,91.664696 L417.3353,119.72149 L389.2785,78.335304"/>
</g>
</svg>