<svg height="384px" viewBox="0 0 576 384" width="576px" xmlns="http://www.w3.org/2000/svg" xmlns:inkscape="http://www.inkscape.org/namespaces/inkscape">
<g fill="none" id="1" stroke="black" stroke-width="2.5px">
<path d="M8,52 L16,52 L24,52 L32,52 L40,40 L48,40 L56,40 L64,40 L72,40 L80,40 L88,40 L96,40 L104,40 L109.333336,48"/>
<path d="M114.666664,52 L120,52 L128,52 L136,52 L138.66667,56"/>
<path d="M152,64 L160,64 L168,64 L173.33333,72"/>
<path d="M184,76 L192,76 L200,76 L208,76 L213.33333,76"/>
<path d="M218.66667,72 L224,64 L232,64 L240,64 L248,64 L256,52 L264,52 L272,52 L280,52 L288,40 L296,40 L304,40 L312,40 L320,40 L328,52 L336,52 L344,52 L352,64 L360,64 L368,64 L376,76 L384,76 L392,76 L400,76 L408,76 L410.66666,80"/>
<path d="M437.33334,80 L440,76 L448,76 L453.33334,76"/>
<path d="M458.66666,72 L464,64 L472,64"/>
<path d="M485.33334,56 L488,52 L496,52 L504,52 L512,52"/>
<path d="M525.3333,44 L528,40 L536,40 L544,40 L552,40 L560,40"/>
<path d="M8,56 L16,56 L24,56 L32,56 L40,44 L48,44 L56,44 L64,44 L72,44 L80,44 L88,44 L96,44 L104,44 L106.666664,48"/>
<path d="M120,56 L128,56 L136,56 L144,56 L149.33333,64"/>
<path d="M160,68 L168,68 L170.66667,72"/>
<path d="M192,80 L200,80 L208,80 L210.66667,80"/>
<path d="M221.33333,72 L224,68 L232,68 L240,68 L248,68 L256,56 L264,56 L272,56 L280,56 L288,44 L296,44 L304,44 L312,44 L320,44 L328,56 L336,56 L344,56 L352,68 L360,68 L368,68 L373.33334,76"/>
<path d="M378.66666,80 L384,80 L392,80 L400,80 L408,80 L416,80 L418.66666,84"/>
<path d="M429.33334,84 L432,80 L440,80 L448,80"/>
<path d="M461.33334,72 L464,68 L469.33334,68"/>
<path d="M474.66666,64 L480,56 L488,56 L496,56 L504,56"/>
<path d="M514.6667,52 L520,44 L528,44 L536,44 L544,44 L552,44 L560,44"/>
<path d="M8,60 L16,60 L24,60 L32,60 L40,48 L48,48 L56,48 L64,48 L72,48 L80,48 L88,48 L96,48 L104,48 L112,48 L117.333336,56"/>
<path d="M128,60 L136,60 L144,60 L146.66667,64"/>
<path d="M162.66667,72 L168,72 L176,72 L178.66667,76"/>
<path d="M194.66667,84 L200,84 L208,84 L216,72 L224,72 L232,72 L240,72 L248,72 L256,60 L264,60 L272,60 L280,60 L288,48 L296,48 L304,48 L312,48 L320,48 L328,60 L336,60 L344,60 L352,72 L360,72 L368,72 L370.66666,76"/>
<path d="M381.33334,84 L384,84 L392,84 L400,84 L408,84 L416,84 L424,84 L432,84 L440,84 L445.33334,84"/>
<path d="M450.66666,80 L456,72 L464,72"/>
<path d="M477.33334,64 L480,60 L488,60 L496,60"/>
<path d="M517.3333,52 L520,48 L528,48 L536,48 L544,48 L552,48 L560,48"/>
<path d="M8,64 L16,64 L24,64 L32,64 L40,64 L48,52 L56,52 L64,52 L72,52 L80,52 L88,52 L96,52 L104,52 L112,52 L114.666664,56"/>
<path d="M136,64 L144,64 L152,64 L154.66667,68"/>
<path d="M168,76 L176,76 L184,76 L186.66667,80"/>
<path d="M200,88 L208,88 L216,76 L224,76 L232,76 L240,76 L248,76 L256,64 L264,64 L272,64 L280,64 L288,52 L296,52 L304,52 L312,52 L320,52 L328,64 L336,64 L344,64 L352,76 L360,76 L368,76 L376,76 L384,88 L392,88 L400,88 L408,88 L416,88 L424,88 L432,88 L440,88"/>
<path d="M453.33334,80 L456,76 L461.33334,76"/>
<path d="M466.66666,72 L472,64 L480,64 L488,64"/>
<path d="M509.33334,56 L512,52 L520,52 L528,52 L536,52 L544,52 L552,52 L560,52"/>
<path d="M8,68 L16,68 L24,68 L32,68 L40,68 L48,56 L56,56 L64,56 L72,56 L80,56 L88,56 L96,56 L104,56 L112,56 L120,56 L122.666664,60"/>
<path d="M144,68 L152,68 L160,68 L165.33333,76"/>
<path d="M170.66667,80 L176,80 L184,80 L192,80 L197.33333,88"/>
<path d="M202.66667,92 L208,92 L216,80 L224,80 L232,80 L240,80 L248,80 L256,68 L264,68 L272,68 L280,68 L288,56 L296,56 L304,56 L312,56 L320,56 L328,68 L336,68 L344,68 L349.33334,76"/>
<path d="M354.66666,80 L360,80 L368,80 L376,80 L384,92 L392,92 L400,92 L408,92 L416,92 L424,92 L432,92"/>
<path d="M442.66666,88 L448,80 L456,80"/>
<path d="M469.33334,72 L472,68 L480,68 L485.33334,68"/>
<path d="M501.33334,60 L504,56 L512,56 L520,56 L528,56 L536,56 L544,56 L552,56 L560,68"/>
<path d="M8,84 L16,72 L24,72 L32,72 L40,72 L48,72 L56,60 L64,60 L72,60 L80,60 L88,60 L96,60 L104,60 L112,60 L120,60 L128,60 L130.66667,64"/>
<path d="M146.66667,72 L152,72 L160,72 L162.66667,76"/>
<path d="M173.33333,84 L176,84 L184,84 L192,84 L194.66667,88"/>
<path d="M205.33333,96 L208,96 L216,84 L224,84 L232,84 L240,84 L248,84 L256,72 L264,72 L272,72 L280,72 L288,60 L296,60 L304,60 L312,60 L320,60 L325.33334,68"/>
<path d="M330.66666,72 L336,72 L344,72 L346.66666,76"/>
<path d="M357.33334,84 L360,84 L368,84 L376,84 L381.33334,92"/>
<path d="M386.66666,96 L392,96 L400,96 L408,96 L416,96 L424,96 L429.33334,96"/>
<path d="M445.33334,88 L448,84 L453.33334,84"/>
<path d="M458.66666,80 L464,72 L472,72 L480,72"/>
<path d="M493.33334,64 L496,60 L504,60 L512,60 L520,60 L528,60 L536,60 L544,60 L552,60 L560,72"/>
<path d="M8,88 L16,88 L24,76 L32,76 L40,76 L48,76 L56,76 L64,64 L72,64 L80,64 L88,64 L96,64 L104,64 L112,64 L120,64 L128,64 L136,64 L138.66667,68"/>
<path d="M149.33333,76 L152,76 L160,76 L168,76 L176,88 L184,88 L192,88 L200,88 L208,100 L216,100 L224,88 L232,88 L240,88 L248,88 L256,88 L264,76 L272,76 L280,76 L288,76 L296,64 L304,64 L312,64 L320,64 L322.66666,68"/>
<path d="M333.33334,76 L336,76 L344,76 L352,76 L360,88 L368,88 L376,88 L378.66666,92"/>
<path d="M392,100 L400,100 L408,100 L416,100 L424,100"/>
<path d="M437.33334,92 L440,88 L448,88 L450.66666,88"/>
<path d="M461.33334,80 L464,76 L472,76 L477.33334,76"/>
<path d="M482.66666,72 L488,64 L496,64 L504,64 L512,64 L520,64 L528,64 L536,64 L544,64 L552,64 L560,76"/>
<path d="M8,92 L16,92 L24,92 L32,80 L40,80 L48,80 L56,80 L64,80 L72,80 L80,68 L88,68 L96,68 L104,68 L112,68 L120,68 L128,68 L136,68 L144,68 L152,80 L160,80 L168,80 L173.33333,88"/>
<path d="M178.66667,92 L184,92 L192,92 L200,92 L208,104 L216,104 L224,92 L232,92 L240,92 L248,92 L256,92 L264,80 L272,80 L280,80 L288,80 L296,68 L304,68 L312,68 L320,68 L328,68 L336,80 L344,80 L352,80 L360,92 L368,92 L376,92 L384,92 L389.33334,100"/>
<path d="M426.66666,100 L432,92 L440,92 L448,92 L456,80 L464,80 L472,80"/>
<path d="M485.33334,72 L488,68 L496,68 L504,68 L512,68 L520,68 L528,68 L536,68 L544,68 L552,80 L560,80"/>
<path d="M8,96 L16,96 L24,96 L32,96 L40,96 L48,84 L56,84 L64,84 L72,84 L80,84 L88,72 L96,72 L104,72 L112,72 L120,72 L128,72 L136,72 L144,72 L149.33333,80"/>
<path d="M154.66667,84 L160,84 L168,84 L170.66667,88"/>
<path d="M181.33333,96 L184,96 L192,96 L200,96 L208,108 L216,108 L224,108 L232,96 L240,96 L248,96 L256,96 L264,96 L272,84 L280,84 L288,84 L296,72 L304,72 L312,72 L320,72 L328,72 L336,84 L344,84 L352,84 L357.33334,92"/>
<path d="M362.66666,96 L368,96 L376,96 L384,96 L386.66666,100"/>
<path d="M429.33334,100 L432,96 L440,96 L445.33334,96"/>
<path d="M450.66666,92 L456,84 L464,84 L469.33334,84"/>
<path d="M474.66666,80 L480,72 L488,72 L496,72 L504,72 L512,72 L520,72 L528,72 L536,72 L544,72 L552,84 L560,84"/>
<path d="M8,100 L16,100 L24,100 L32,100 L40,100 L48,100 L56,88 L64,88 L72,88 L80,88 L88,88 L96,76 L104,76 L112,76 L120,76 L128,76 L136,76 L144,76 L146.66667,80"/>
<path d="M157.33333,88 L160,88 L168,88 L176,88 L184,100 L192,100 L200,100 L208,112 L216,112 L224,112 L232,100 L240,100 L248,100 L256,100 L264,100 L272,88 L280,88 L288,88 L296,76 L304,76 L312,76 L320,76 L328,76 L336,88 L344,88 L352,88 L354.66666,92"/>
<path d="M368,100 L376,100 L384,100 L392,100 L394.66666,104"/>
<path d="M421.33334,104 L424,100 L432,100 L440,100"/>
<path d="M453.33334,92 L456,88 L464,88 L466.66666,88"/>
<path d="M477.33334,80 L480,76 L488,76 L496,76 L504,76 L512,76 L520,76 L528,76 L536,76 L544,88 L552,88 L560,88"/>
<path d="M8,104 L16,104 L24,104 L32,104 L40,104 L48,104 L56,104 L64,92 L72,92 L80,92 L88,92 L96,92 L104,80 L112,80 L120,80 L128,80 L136,80 L144,80 L152,80 L160,92 L168,92 L176,92 L184,104 L192,104 L200,104 L208,116 L216,116 L224,116 L232,116 L240,104 L248,104 L256,104 L264,104 L272,92 L280,92 L288,92 L296,92 L304,80 L312,80 L320,80 L328,80 L333.33334,88"/>
<path d="M338.66666,92 L344,92 L352,92 L360,92 L365.33334,100"/>
<path d="M370.66666,104 L376,104 L384,104 L392,104 L400,104 L408,104 L416,104 L424,104 L432,104 L437.33334,104"/>
<path d="M442.66666,100 L448,92 L456,92 L464,92 L472,80 L480,80 L488,80 L496,80 L504,80 L512,80 L520,80 L528,80 L536,92 L544,92 L552,92 L560,92"/>
<path d="M8,108 L16,108 L24,108 L32,108 L40,108 L48,108 L56,108 L64,108 L72,96 L80,96 L88,96 L96,96 L104,96 L112,84 L120,84 L128,84 L136,84 L144,84 L152,84 L160,96 L168,96 L176,96 L184,108 L192,108 L200,108 L208,120 L216,120 L224,120 L232,120 L240,108 L248,108 L256,108 L264,108 L272,96 L280,96 L288,96 L296,96 L304,84 L312,84 L320,84 L328,84 L330.66666,88"/>
<path d="M341.33334,96 L344,96 L352,96 L360,96 L362.66666,100"/>
<path d="M373.33334,108 L376,108 L384,108 L392,108 L400,108 L408,108 L416,108 L424,108 L432,108 L434.66666,108"/>
<path d="M445.33334,100 L448,96 L456,96 L464,96 L472,84 L480,84 L488,84 L496,84 L504,84 L512,84 L520,84 L528,96 L536,96 L544,96 L552,96 L560,96"/>
<path d="M8,112 L16,112 L24,124 L32,124 L40,112 L48,112 L56,112 L64,112 L72,112 L80,100 L88,100 L96,100 L104,100 L112,100 L120,88 L128,88 L136,88 L144,88 L152,88 L160,100 L168,100 L176,100 L184,112 L192,112 L200,112 L208,124 L216,124 L224,124 L232,124 L240,124 L248,112 L256,112 L264,112 L272,112 L280,100 L288,100 L296,100 L304,88 L312,88 L320,88 L328,88 L336,88 L344,100 L352,100 L360,100 L368,100 L376,112 L384,112 L392,112 L400,112 L408,112 L416,112 L424,112 L432,112 L440,100 L448,100 L456,100 L464,100 L472,88 L480,88 L488,88 L496,88 L504,88 L512,100 L520,100 L528,100 L536,100 L544,100 L552,100 L560,100"/>
<path d="M8,116 L16,128 L24,128 L32,128 L40,128 L48,128 L56,116 L64,116 L72,116 L80,116 L88,104 L96,104 L104,104 L112,104 L120,104 L128,92 L136,92 L144,92 L152,92 L160,104 L168,104 L176,104 L184,116 L192,116 L200,116 L208,128 L216,128 L224,128 L232,128 L240,128 L248,116 L256,116 L264,116 L272,116 L280,104 L288,104 L296,104 L304,92 L312,92 L320,92 L328,92 L336,92 L344,104 L352,104 L360,104 L368,104 L376,116 L384,116 L392,116 L400,116 L408,116 L416,116 L424,116 L432,116 L440,104 L448,104 L456,104 L464,104 L472,92 L480,92 L488,92 L496,92 L504,104 L512,104 L520,104 L528,104 L536,104 L544,104 L552,104 L560,104"/>
<path d="M8,132 L16,132 L24,132 L32,132 L40,132 L48,132 L56,132 L64,132 L72,120 L80,120 L88,120 L96,108 L104,108 L112,108 L120,108 L128,108 L136,96 L144,96 L152,96 L160,108 L168,108 L176,108 L184,120 L192,120 L200,120 L208,132 L216,132 L224,132 L232,132 L240,132 L248,132 L256,120 L264,120 L272,120 L280,108 L288,108 L296,108 L304,96 L312,96 L320,96 L328,96 L336,96 L344,108 L352,108 L360,108 L368,108 L376,120 L384,120 L392,120 L400,120 L408,120 L416,120 L424,120 L432,120 L440,108 L448,108 L456,108 L464,108 L472,96 L480,96 L488,96 L496,108 L504,108 L512,108 L520,108 L528,108 L536,108 L544,108 L552,108 L560,120"/>
<path d="M8,136 L16,136 L24,136 L32,136 L40,136 L48,136 L56,136 L64,136 L72,136 L80,124 L88,124 L96,124 L104,112 L112,112 L120,112 L128,112 L136,112 L144,100 L152,112 L160,112 L168,112 L176,112 L184,124 L192,124 L200,124 L208,136 L216,136 L224,136 L232,136 L240,136 L248,136 L256,124 L264,124 L272,124 L280,112 L288,112 L296,112 L304,100 L312,100 L320,100 L328,100 L336,100 L344,112 L352,112 L360,112 L368,112 L376,124 L384,124 L392,124 L400,124 L408,124 L416,124 L424,124 L432,124 L440,112 L448,112 L456,112 L464,112 L472,112 L480,100 L488,112 L496,112 L504,112 L512,112 L520,112 L528,112 L536,112 L544,112 L552,124 L560,124"/>
<path d="M8,140 L16,140 L24,140 L32,140 L40,140 L48,140 L56,140 L64,140 L72,140 L80,128 L88,128 L96,128 L104,116 L112,116 L120,116 L128,116 L136,116 L144,116 L152,116 L160,116 L168,116 L176,116 L184,128 L192,128 L200,128 L208,140 L216,140 L224,140 L232,140 L240,140 L248,140 L256,128 L264,128 L272,128 L280,116 L288,116 L296,116 L304,104 L312,104 L320,104 L328,104 L336,104 L344,116 L352,116 L360,116 L368,116 L376,128 L384,128 L392,128 L400,128 L408,128 L416,128 L424,128 L432,128 L440,116 L448,116 L456,116 L464,116 L472,116 L480,116 L488,116 L496,116 L504,116 L512,116 L520,116 L528,116 L536,116 L544,128 L552,128 L560,128"/>
<path d="M8,144 L16,144 L24,144 L32,144 L40,144 L48,144 L56,144 L64,144 L72,144 L80,144 L88,132 L96,132 L104,132 L112,120 L120,120 L128,120 L136,120 L144,120 L152,120 L160,120 L168,120 L176,120 L184,132 L192,132 L200,132 L208,144 L216,144 L224,144 L232,144 L240,144 L248,144 L256,132 L264,132 L272,132 L280,120 L288,120 L296,120 L304,108 L312,108 L320,108 L328,108 L336,108 L344,120 L352,120 L360,120 L368,120 L376,132 L384,132 L392,132 L400,132 L408,132 L416,132 L424,132 L432,132 L440,120 L448,120 L456,120 L464,120 L472,120 L480,120 L488,120 L496,120 L504,120 L512,120 L520,120 L528,132 L536,132 L544,132 L552,132 L560,132"/>
<path d="M8,148 L16,148 L24,148 L32,148 L40,148 L48,160 L56,148 L64,148 L72,148 L80,148 L88,148 L96,136 L104,136 L112,136 L120,124 L128,124 L136,124 L144,124 L152,124 L160,124 L168,124 L176,124 L184,136 L192,136 L200,136 L208,148 L216,148 L224,148 L232,148 L240,148 L245.33333,148"/>
<path d="M250.66667,144 L256,136 L264,136 L272,136 L280,124 L288,124 L296,124 L304,112 L312,112 L320,112 L328,112 L336,112 L344,124 L352,124 L360,124 L368,124 L376,136 L384,136 L392,136 L400,136 L408,136 L416,136 L424,136 L432,136 L440,124 L448,124 L456,124 L464,124 L472,124 L480,124 L488,124 L496,124 L504,124 L512,124 L520,136 L528,136 L536,136 L544,136 L552,136 L560,136"/>
<path d="M8,152 L16,152 L24,152 L32,152 L40,164 L48,164 L56,164 L64,164 L72,152 L80,152 L88,152 L96,140 L104,140 L112,140 L120,128 L128,128 L136,128 L144,128 L152,128 L160,128 L168,128 L176,128 L184,140 L192,140 L200,140 L208,152 L216,152 L224,152 L232,152 L240,152 L242.66667,152"/>
<path d="M253.33333,144 L256,140 L264,140 L272,140 L280,128 L288,128 L296,128 L304,116 L312,116 L320,116 L328,116 L336,116 L344,128 L352,128 L360,128 L368,128 L376,140 L384,140 L392,140 L400,140 L408,140 L416,140 L424,140 L432,140 L440,128 L448,128 L456,128 L464,128 L472,128 L480,128 L488,128 L496,128 L504,128 L512,140 L520,140 L528,140 L536,140 L544,140 L552,140 L560,140"/>
<path d="M10.666667,156 L16,156 L24,156 L32,156 L40,168 L48,168 L56,168 L64,168 L72,156 L80,156 L88,156 L96,144 L104,144 L112,144 L120,144 L128,132 L136,132 L144,132 L152,132 L160,132 L168,132 L176,144 L184,144 L192,144 L200,144 L208,156 L216,156 L224,156 L232,156 L240,156 L248,144 L256,144 L264,144 L272,144 L280,132 L288,132 L296,132 L304,120 L312,120 L320,120 L328,120 L336,120 L344,132 L352,132 L360,132 L368,132 L376,144 L384,144 L392,144 L400,144 L408,144 L416,144 L424,144 L432,144 L440,132 L448,132 L456,132 L464,132 L472,132 L480,132 L488,132 L496,132 L504,144 L512,144 L520,144 L528,144 L536,144 L544,144 L552,144 L560,144"/>
<path d="M13.333333,160 L16,160 L24,160 L32,160 L37.333332,168"/>
<path d="M42.666668,172 L48,172 L56,172 L64,172 L72,172 L80,160 L88,160 L96,160 L104,148 L112,148 L120,148 L128,148 L136,136 L144,136 L152,136 L160,136 L168,136 L176,148 L184,148 L192,148 L200,148 L208,160 L216,160 L224,160 L232,160"/>
<path d="M242.66667,156 L248,148 L256,148 L264,148 L269.33334,148"/>
<path d="M274.66666,144 L280,136 L288,136 L296,136 L304,124 L312,124 L320,124 L328,124 L336,124 L344,136 L352,136 L360,136 L368,136 L376,148 L384,148 L392,148 L400,148 L408,148 L416,148 L424,148 L432,148 L440,148 L448,136 L456,136 L464,136 L472,136 L480,136 L488,136 L496,136 L504,148 L512,148 L520,148 L528,148 L536,148 L544,148 L552,148 L560,148"/>
<path d="M8,152 L16,164 L24,164 L32,164 L34.666668,168"/>
<path d="M45.333332,176 L48,176 L56,176 L64,176 L72,176 L80,164 L88,164 L96,164 L104,152 L112,152 L120,152 L128,152 L136,140 L144,140 L152,140 L160,140 L168,140 L176,152 L184,152 L192,152 L200,152 L205.33333,160"/>
<path d="M245.33333,156 L248,152 L256,152 L264,152"/>
<path d="M277.33334,144 L280,140 L288,140 L293.33334,140"/>
<path d="M298.66666,136 L304,128 L312,128 L320,128 L328,128 L336,140 L344,140 L352,140 L360,140 L368,152 L376,152 L384,152 L392,152 L400,152 L408,152 L416,152 L424,152 L432,152 L440,152 L448,140 L456,140 L464,140 L472,140 L480,140 L488,140 L496,152 L504,152 L512,152 L520,152 L528,152 L536,152 L544,152 L552,152 L560,152"/>
<path d="M8,156 L13.333333,164"/>
<path d="M18.666666,168 L24,168 L32,168 L40,168 L48,180 L56,180 L64,180 L72,180 L80,168 L88,168 L96,168 L104,168 L112,156 L120,156 L128,156 L136,156 L144,144 L152,144 L160,144 L168,156 L176,156 L184,156 L192,156 L200,156 L202.66667,160"/>
<path d="M237.33333,160 L240,156 L248,156 L256,156 L261.33334,156"/>
<path d="M266.66666,152 L272,144 L280,144 L288,144 L290.66666,144"/>
<path d="M301.33334,136 L304,132 L312,132 L320,132 L328,132 L336,144 L344,144 L352,144 L360,144 L368,156 L376,156 L384,156 L392,156 L400,156 L408,156 L416,156 L424,156 L432,156 L440,156 L448,156 L456,144 L464,144 L472,144 L480,144 L488,156 L496,156 L504,156 L512,156 L520,156 L528,156 L536,156 L544,156 L552,156 L560,156"/>
<path d="M8,160 L10.666667,164"/>
<path d="M21.333334,172 L24,172 L32,172 L40,172 L48,184 L56,184 L64,184 L72,184 L80,184 L88,172 L96,172 L104,172 L112,160 L120,160 L128,160 L136,160 L144,160 L152,148 L160,148 L168,160 L176,160 L184,160 L192,160 L200,160 L208,160 L210.66667,164"/>
<path d="M229.33333,164 L232,160 L240,160 L248,160 L256,160 L258.66666,160"/>
<path d="M269.33334,152 L272,148 L280,148 L288,148 L296,136 L304,136 L312,136 L320,136 L328,136 L336,148 L344,148 L352,148 L360,160 L368,160 L376,160 L384,160 L392,160 L400,160 L408,160 L416,160 L424,160 L432,160 L440,160 L448,160 L456,160 L464,148 L472,148 L480,160 L488,160 L496,160 L504,160 L512,160 L520,160 L528,160 L536,160 L544,160 L552,160 L560,160"/>
<path d="M8,164 L16,164 L24,176 L32,176 L40,176 L45.333332,184"/>
<path d="M50.666668,188 L56,188 L64,188 L72,188 L80,188 L88,176 L96,176 L104,176 L112,164 L120,164 L128,164 L136,164 L144,164 L152,164 L160,164 L168,164 L176,164 L184,164 L192,164 L200,164 L208,164 L216,164 L224,164 L232,164 L240,164 L248,164 L256,164 L264,152 L272,152 L280,152 L288,152 L296,140 L304,140 L312,140 L320,140 L328,140 L336,152 L344,152 L352,152 L360,164 L368,164 L376,164 L384,164 L392,164 L400,176 L408,176 L416,176 L424,164 L432,164 L440,164 L448,164 L456,164 L464,164 L472,164 L480,164 L488,164 L496,164 L504,164 L512,164 L520,176 L528,176 L536,176 L544,164 L552,164 L560,164"/>
<path d="M8,168 L16,168 L21.333334,176"/>
<path d="M26.666666,180 L32,180 L40,180 L42.666668,184"/>
<path d="M53.333332,192 L56,192 L64,192 L72,192 L80,192 L88,180 L96,180 L104,180 L112,180 L120,168 L128,168 L136,168 L144,168 L152,168 L160,168 L168,168 L176,168 L184,168 L192,168 L200,168 L208,168 L216,168 L224,168 L232,168 L240,168 L248,168 L253.33333,168"/>
<path d="M258.66666,164 L264,156 L272,156 L280,156 L285.33334,156"/>
<path d="M290.66666,152 L296,144 L304,144 L312,144 L320,144 L328,156 L336,156 L344,156 L352,156 L360,168 L368,168 L376,168 L384,168 L392,180 L400,180 L408,180 L416,180 L424,180 L432,168 L440,168 L448,168 L456,168 L464,168 L472,168 L480,168 L488,168 L496,168 L504,168 L512,180 L520,180 L528,180 L536,180 L544,180 L552,168 L560,168"/>
<path d="M8,172 L16,172 L18.666666,176"/>
<path d="M29.333334,184 L32,184 L40,184 L48,184 L56,196 L64,196 L72,196 L80,196 L88,184 L96,184 L104,184 L112,184 L120,172 L128,172 L136,172 L144,172 L152,172 L160,172 L168,172 L176,172 L184,172 L192,172 L200,172 L208,172 L216,172 L224,172 L232,172 L240,172 L248,172 L250.66667,172"/>
<path d="M261.33334,164 L264,160 L272,160 L280,160 L282.66666,160"/>
<path d="M293.33334,152 L296,148 L304,148 L312,148 L320,148 L328,160 L336,160 L344,160 L352,172 L360,172 L368,172 L376,172 L384,184 L392,184 L400,184 L408,184 L416,184 L424,184 L432,172 L440,172 L448,172 L456,172 L464,172 L472,172 L480,172 L488,172 L496,172 L504,172 L512,184 L520,184 L528,184 L536,184 L544,184 L552,172 L560,172"/>
<path d="M8,176 L16,176 L24,176 L32,188 L40,188 L48,188 L56,200 L64,200 L72,200 L80,200 L88,200 L96,188 L104,188 L112,188 L120,188 L128,176 L136,176 L144,176 L152,176 L160,176 L168,176 L176,176 L184,176 L192,176 L200,176 L208,176 L216,176 L224,176 L232,176 L240,176 L248,176 L256,164 L264,164 L272,164 L280,164 L288,152 L296,152 L304,152 L312,152 L320,152 L328,164 L336,164 L344,164 L352,176 L360,176 L368,176 L376,176 L384,188 L392,188 L400,188 L408,188 L416,188 L424,188 L432,188 L440,176 L448,176 L456,176 L464,176 L472,176 L480,176 L488,176 L496,176 L504,188 L512,188 L520,188 L528,188 L536,188 L544,188 L552,176 L560,176"/>
<path d="M8,180 L16,180 L24,180 L32,192 L40,192 L48,192 L56,204 L64,204 L72,204 L80,204 L88,204 L96,192 L104,192 L112,192 L120,192 L128,180 L136,180 L144,180 L152,180 L160,180 L168,180 L176,180 L184,180 L192,180 L200,180 L208,180 L216,180 L224,180 L232,180 L240,180 L248,180 L256,168 L264,168 L272,168 L280,168 L288,156 L296,156 L304,156 L312,156 L320,156 L328,168 L336,168 L344,168 L352,180 L360,180 L368,180 L376,180 L384,192 L392,192 L400,192 L408,192 L416,192 L424,192 L432,192 L440,180 L448,180 L456,180 L464,180 L472,180 L480,180 L488,180 L496,180 L504,192 L512,192 L520,192 L528,192 L536,192 L544,192 L552,192 L560,180"/>
<path d="M8,184 L16,184 L24,184 L32,196 L40,196 L48,196 L56,208 L64,208 L72,208 L80,208 L88,208 L96,196 L104,196 L112,196 L120,196 L128,184 L136,184 L144,184 L152,184 L160,184 L168,184 L176,184 L184,184 L192,184 L200,184 L208,184 L216,184 L224,184 L232,184 L240,184 L248,184 L256,172 L264,172 L272,172 L280,172 L288,160 L296,160 L304,160 L312,160 L320,160 L328,172 L336,172 L344,172 L352,184 L360,184 L368,184 L376,196 L384,196 L392,196 L400,196 L408,196 L416,196 L424,196 L432,196 L440,196 L448,184 L456,184 L464,184 L472,184 L480,184 L488,184 L496,196 L504,196 L512,196 L520,196 L528,196 L536,196 L544,196 L552,196 L560,184"/>
<path d="M8,188 L16,188 L24,188 L32,200 L40,200 L48,200 L56,212 L64,212 L72,212 L80,212 L88,212 L96,200 L104,200 L112,200 L120,200 L128,188 L136,188 L144,188 L152,188 L160,188 L168,188 L176,188 L184,188 L192,188 L200,188 L208,188 L216,188 L224,188 L232,188 L240,188 L248,188 L256,176 L264,176 L272,176 L280,176 L288,164 L296,164 L304,164 L312,164 L320,176 L328,176 L336,176 L344,176 L352,188 L360,188 L368,188 L376,200 L384,200 L392,200 L400,200 L408,200 L416,200 L424,200 L432,200 L440,200 L448,200 L456,188 L464,188 L472,188 L480,188 L488,200 L496,200 L504,200 L512,200 L520,200 L528,200 L536,200 L544,200 L552,200 L560,188"/>
<path d="M8,192 L16,192 L24,192 L32,204 L40,204 L48,204 L56,216 L64,216 L72,216 L80,216 L88,216 L96,204 L104,204 L112,204 L120,204 L128,192 L136,192 L144,192 L152,192 L160,192 L168,192 L176,192 L184,192 L192,192 L200,192 L208,192 L216,192 L224,192 L232,192 L240,192 L248,192 L256,180 L264,180 L272,180 L280,180 L288,180 L296,168 L304,168 L312,168 L320,180 L328,180 L336,180 L344,180 L352,192 L360,192 L368,192 L373.33334,200"/>
<path d="M378.66666,204 L384,204 L392,204 L400,204 L408,204 L416,204 L424,204 L432,204 L440,204 L448,204 L456,204 L464,192 L472,192 L480,204 L488,204 L496,204 L504,204 L512,204 L520,204 L528,204 L536,204 L544,204 L552,204 L560,204"/>
<path d="M8,196 L16,196 L24,196 L32,208 L40,208 L48,208 L56,220 L64,220 L72,220 L80,220 L88,220 L96,208 L104,208 L112,208 L120,208 L128,196 L136,196 L144,196 L152,196 L160,196 L168,196"/>
<path d="M184,196 L192,196 L200,196 L208,196 L216,196 L224,196 L232,196 L240,196 L248,196 L256,184 L264,184 L272,184 L280,184 L288,184 L296,172 L304,172 L312,172 L320,184 L328,184 L336,184 L344,184 L352,196 L360,196 L368,196 L370.66666,200"/>
<path d="M381.33334,208 L384,208 L392,208 L400,208 L408,208 L416,208 L424,208 L432,208 L440,208 L448,208 L456,208 L464,208 L472,208 L480,208 L488,208 L496,208 L504,208 L512,220 L520,220 L528,220 L536,220 L544,208 L552,208 L560,208"/>
<path d="M8,200 L16,200 L24,200 L32,212 L40,212 L48,212 L56,224 L64,224 L72,224 L80,224 L88,224 L96,212 L104,212 L112,212 L117.333336,212"/>
<path d="M122.666664,208 L128,200 L136,200 L144,200 L152,200 L160,200"/>
<path d="M192,200 L200,200 L208,200 L216,200 L224,200 L232,200 L240,200 L248,200 L256,188 L264,188 L272,188 L280,188 L288,188 L296,188 L304,188 L312,188 L320,188 L328,188 L336,188 L344,188 L352,200 L360,200 L368,200 L376,200 L384,212 L392,212 L400,212 L408,212 L416,212 L424,212 L432,212 L440,212 L448,212 L456,212 L464,212 L472,212 L480,212 L488,212 L496,212 L504,212 L512,224 L520,224 L528,224 L536,224 L544,224 L552,212 L560,212"/>
<path d="M8,204 L16,204 L24,204 L32,216 L40,216 L48,216 L56,228 L64,228 L72,228 L80,228 L85.333336,228"/>
<path d="M90.666664,224 L96,216 L104,216 L112,216 L114.666664,216"/>
<path d="M125.333336,208 L128,204 L136,204 L144,204 L152,204"/>
<path d="M200,204 L208,204 L216,204 L224,204 L232,204 L240,204 L248,204 L256,192 L264,192 L272,192 L280,192 L288,192 L296,192 L304,192 L312,192 L320,192 L328,192 L336,192 L344,192 L352,204 L360,204 L368,204 L376,204 L384,216 L392,216 L400,216 L408,216 L416,216 L424,216 L432,216 L440,216 L448,216 L456,216 L464,216 L472,216 L480,216 L488,216 L496,216 L504,228 L512,228 L520,228 L528,228 L536,228 L544,228 L552,216 L560,216"/>
<path d="M8,208 L16,208 L24,208 L32,220 L40,220 L48,220 L56,232 L64,232 L72,232 L80,232 L82.666664,232"/>
<path d="M93.333336,224 L96,220 L104,220 L112,220 L120,208 L128,208 L136,208 L144,208 L149.33333,208"/>
<path d="M165.33333,200 L168,196 L176,196 L184,196 L186.66667,200"/>
<path d="M202.66667,208 L208,208 L216,208 L224,208 L232,208 L240,208 L248,208 L256,208 L264,196 L272,196 L280,196 L288,196 L296,196 L304,196 L312,196 L320,196 L328,196 L336,196 L344,196 L352,208 L360,208 L368,208 L376,208 L381.33334,216"/>
<path d="M386.66666,220 L392,220 L400,220 L408,220 L416,220 L424,220 L432,220 L440,220 L448,220 L456,220 L464,220 L472,220 L480,220 L488,220 L496,220 L504,232 L512,232 L520,232 L528,232 L536,232 L544,232 L552,232 L560,220"/>
<path d="M8,212 L16,212 L24,224 L32,224 L40,224 L48,224 L56,236 L64,236 L72,236 L80,236 L88,224 L96,224 L104,224 L109.333336,224"/>
<path d="M114.666664,220 L120,212 L128,212 L136,212 L144,212"/>
<path d="M157.33333,204 L160,200 L168,200 L176,200 L184,200 L192,200 L194.66667,204"/>
<path d="M208,212 L216,212 L224,212 L232,212 L240,212 L248,212 L256,212 L264,212 L272,200 L280,200 L288,200 L296,200 L304,200 L312,200 L320,200 L328,200 L336,200 L344,200 L349.33334,208"/>
<path d="M354.66666,212 L360,212 L368,212 L376,212 L378.66666,216"/>
<path d="M392,224 L400,224 L408,224 L416,224 L424,224 L432,224 L440,224 L448,224 L456,224 L464,224 L472,224 L480,224 L488,224 L496,236 L504,236 L512,236 L520,236 L528,236 L536,236 L544,236 L552,236 L560,224"/>
<path d="M8,216 L16,216 L24,228 L32,228 L40,228 L48,240 L56,240 L64,240 L72,240 L80,240 L88,228 L96,228 L104,228 L106.666664,228"/>
<path d="M117.333336,220 L120,216 L128,216 L136,216 L141.33333,216"/>
<path d="M146.66667,212 L152,204 L160,204 L168,204 L176,204 L184,204 L192,204 L200,204 L205.33333,212"/>
<path d="M210.66667,216 L216,216 L224,216 L232,216 L240,216 L248,216 L256,216 L264,216 L272,216 L280,204 L288,204 L296,204 L304,204 L312,204 L320,204 L328,204 L336,204 L344,204 L346.66666,208"/>
<path d="M360,216 L368,216 L376,216 L384,216 L389.33334,224"/>
<path d="M400,228 L408,228 L416,228 L424,228 L432,228 L440,228 L448,228 L456,228 L464,228 L472,228 L480,228 L488,228 L496,240 L504,240 L512,240 L520,240 L528,240 L536,240 L544,240 L552,240 L560,240"/>
<path d="M8,220 L16,220 L24,232 L32,232 L40,232 L48,244 L56,244 L64,244 L72,244 L77.333336,244"/>
<path d="M82.666664,240 L88,232 L96,232 L104,232 L112,220 L120,220 L128,220 L136,220"/>
<path d="M149.33333,212 L152,208 L160,208 L168,208 L176,208 L184,208 L192,208 L200,208 L202.66667,212"/>
<path d="M213.33333,220 L216,220 L224,220 L232,220 L240,220 L248,220 L256,220 L264,220 L272,220 L280,220 L288,208 L296,208 L304,208 L312,208 L320,208 L328,208 L336,208 L344,208 L352,208 L357.33334,216"/>
<path d="M362.66666,220 L368,220 L376,220 L384,220 L386.66666,224"/>
<path d="M402.66666,232 L408,232 L416,232 L424,232 L432,232 L440,232 L448,232 L456,232 L464,232 L472,232 L480,232 L488,232 L496,244 L504,244 L512,244 L520,244 L528,244 L536,244 L544,244 L552,244 L560,244"/>
<path d="M8,224 L16,236 L24,236 L32,236 L40,236 L48,248 L56,248 L64,248 L72,248 L74.666664,248"/>
<path d="M85.333336,240 L88,236 L96,236 L101.333336,236"/>
<path d="M106.666664,232 L112,224 L120,224 L128,224 L133.33333,224"/>
<path d="M138.66667,220 L144,212 L152,212 L160,212 L168,212 L176,212 L184,212 L192,212 L200,212 L208,212 L216,224 L224,224 L232,224 L240,224 L248,224 L256,224 L264,224 L272,224 L280,224 L288,224 L296,212 L304,212 L312,212 L320,212 L328,212 L336,212 L344,212 L352,212 L354.66666,216"/>
<path d="M365.33334,224 L368,224 L376,224 L384,224 L392,224 L394.66666,228"/>
<path d="M408,236 L416,236 L424,236 L432,236 L440,236 L448,236 L456,236 L464,236 L472,236 L480,236 L488,236 L496,248 L504,248 L512,248 L520,248 L528,248 L536,248 L544,248 L552,248 L560,248"/>
<path d="M8,228 L16,240 L24,240 L32,240 L40,240 L48,252 L56,252 L64,252 L72,252 L80,240 L88,240 L96,240 L98.666664,240"/>
<path d="M109.333336,232 L112,228 L120,228 L128,228 L130.66667,228"/>
<path d="M141.33333,220 L144,216 L152,216 L160,216 L168,216 L176,216 L184,216 L192,216 L200,216 L208,216 L216,228 L224,228 L232,228 L240,228 L248,228 L256,228 L264,228 L272,228 L280,228 L288,228 L296,228 L304,216 L312,216 L320,216 L328,216 L336,216 L344,216 L352,216 L360,216 L368,228 L376,228 L384,228 L392,228 L400,228 L405.33334,236"/>
<path d="M416,240 L424,240 L432,240 L440,240 L448,240 L456,240 L464,240 L472,240 L480,240 L488,240 L496,252 L504,252 L512,252 L520,252 L528,252 L536,252 L544,252 L552,252 L560,252"/>
<path d="M8,232 L16,244 L24,244 L32,244 L40,256 L48,256 L56,256 L64,256 L72,256 L80,244 L88,244 L96,244 L104,232 L112,232 L120,232 L128,232 L136,220 L144,220 L152,220 L160,220 L168,220 L176,220 L184,220 L192,220 L200,220 L208,220 L216,232 L224,232 L232,232 L240,232 L248,232 L256,232 L264,232 L272,232 L280,232 L288,232 L296,232 L304,232 L312,220 L320,220 L328,220 L336,220 L344,220 L352,220 L360,220 L365.33334,228"/>
<path d="M370.66666,232 L376,232 L384,232 L392,232 L400,232 L402.66666,236"/>
<path d="M432,244 L440,244 L448,244 L456,244 L464,244 L472,244 L480,244 L488,244 L493.33334,252"/>
<path d="M498.66666,256 L504,256 L512,256 L520,256 L528,256 L536,256 L544,256 L552,256 L560,256"/>
<path d="M8,248 L16,248 L24,248 L32,248 L40,260 L48,260 L56,260 L64,260 L72,260 L80,248 L88,248 L96,248 L104,236 L112,236 L120,236 L125.333336,236"/>
<path d="M130.66667,232 L136,224 L144,224 L152,224 L160,224 L168,224"/>
<path d="M184,224 L192,224 L200,224 L208,224 L216,236 L224,236 L232,236 L240,236 L248,236 L256,236 L264,236 L272,236 L280,236 L288,236 L296,236 L304,236 L312,224 L320,224 L328,224 L336,224 L344,224 L352,224 L360,224 L362.66666,228"/>
<path d="M373.33334,236 L376,236 L384,236 L392,236 L400,236 L408,236 L410.66666,240"/>
<path d="M456,248 L464,248 L472,248 L480,248 L488,248 L490.66666,252"/>
<path d="M504,260 L512,260 L520,260 L528,260 L536,260 L544,260 L552,260 L560,260"/>
<path d="M8,252 L16,252 L24,252 L32,252 L40,264 L48,264 L56,264 L64,264 L72,264 L80,252 L88,252 L96,252 L104,240 L112,240 L120,240 L122.666664,240"/>
<path d="M133.33333,232 L136,228 L144,228 L152,228 L160,228 L165.33333,228"/>
<path d="M186.66667,228 L192,228 L200,228 L208,228 L213.33333,236"/>
<path d="M218.66667,240 L224,240 L232,240 L240,240 L248,240 L256,240 L264,252 L272,252 L280,240 L288,240 L296,240 L304,240 L312,240 L320,228 L328,228 L336,228 L344,228 L352,228 L360,228 L368,228 L376,240 L384,240 L392,240 L400,240 L408,240 L416,240 L418.66666,244"/>
<path d="M464,252 L472,252 L480,252 L488,252 L496,252 L501.33334,260"/>
<path d="M506.66666,264 L512,264 L520,264 L528,264 L536,264 L544,264 L552,264 L560,264"/>
<path d="M8,256 L16,256 L24,256 L32,256 L40,268 L48,268 L56,268 L64,268 L72,268 L80,256 L88,256 L96,256 L104,244 L112,244 L120,244 L128,232 L136,232 L144,232 L152,232 L160,232"/>
<path d="M173.33333,224 L176,220 L178.66667,224"/>
<path d="M192,232 L200,232 L208,232 L210.66667,236"/>
<path d="M221.33333,244 L224,244 L232,244 L240,244 L248,244 L256,256 L264,256 L272,256 L280,256 L288,244 L296,244 L304,244 L312,244 L320,232 L328,232 L336,232 L344,232 L352,232 L360,232 L368,232 L376,244 L384,244 L392,244 L400,244 L408,244 L416,244 L424,244 L432,244 L434.66666,248"/>
<path d="M472,256 L480,256 L488,256 L496,256 L498.66666,260"/>
<path d="M512,268 L520,268 L528,268 L536,268 L544,268 L552,268 L560,268"/>
<path d="M8,260 L16,260 L24,260 L32,260 L40,272 L48,272 L56,272 L64,272 L72,272 L80,260 L88,260 L96,260 L104,248 L112,248 L120,248 L128,236 L136,236 L144,236 L152,236 L157.33333,236"/>
<path d="M162.66667,232 L168,224 L176,224 L184,224 L189.33333,232"/>
<path d="M194.66667,236 L200,236 L208,236 L216,236 L224,248 L232,248 L240,248 L248,248 L256,260 L264,260 L272,260 L280,260 L288,248 L296,248 L304,248 L312,248 L320,236 L328,236 L336,236 L344,236 L352,236 L360,236 L368,236 L376,248 L384,248 L392,248 L400,248 L408,248 L416,248 L424,248 L432,248 L440,248 L448,248 L456,248 L458.66666,252"/>
<path d="M480,260 L488,260 L496,260 L504,260 L509.33334,268"/>
<path d="M520,272 L528,272 L536,272 L544,272 L552,272 L560,272"/>
<path d="M8,264 L16,264 L24,264 L32,264 L40,276 L48,276 L56,276 L64,276 L72,276 L80,264 L88,264 L96,264 L104,252 L112,252 L120,252 L128,240 L136,240 L144,240 L152,240 L154.66667,240"/>
<path d="M165.33333,232 L168,228 L176,228 L184,228 L186.66667,232"/>
<path d="M197.33333,240 L200,240 L208,240 L216,240 L224,252 L232,252 L240,252 L248,252 L256,264 L264,264 L272,264 L280,264 L288,264 L296,252 L304,252 L312,252 L320,252 L328,240 L336,240 L344,240 L352,240 L360,240 L368,240 L376,252 L384,252 L392,252 L400,252 L408,252 L416,252 L424,252 L432,252 L440,252 L448,252 L456,252 L464,252 L466.66666,256"/>
<path d="M488,264 L496,264 L504,264 L506.66666,268"/>
<path d="M522.6667,276 L528,276 L536,276 L544,276 L552,276 L560,276"/>
<path d="M8,268 L16,268 L24,268 L32,268 L40,280 L48,280 L56,280 L64,280 L72,280 L80,268 L88,268 L96,268 L104,256 L112,256 L120,256 L128,244 L136,244 L144,244 L152,244 L160,232 L168,232 L176,232 L184,232 L192,232 L200,244 L208,244 L216,244 L224,256 L232,256 L240,256 L248,256 L256,268 L264,268 L272,268 L280,268 L288,268 L296,256 L304,256 L312,256 L320,256 L328,244 L336,244 L344,244 L352,244 L360,244 L368,244 L376,256 L384,256 L392,256 L400,256 L408,256 L416,256 L424,256 L432,256 L440,256 L448,256 L456,256 L464,256 L472,256 L474.66666,260"/>
<path d="M496,268 L504,268 L512,268 L514.6667,272"/>
<path d="M528,280 L536,280 L544,280 L552,280 L560,280"/>
<path d="M8,272 L16,272 L24,272 L32,272 L40,284 L48,284 L56,284 L64,284 L72,284 L80,272 L88,272 L96,272 L104,260 L112,260 L120,260 L128,248 L136,248 L144,248 L152,248 L160,236 L168,236 L176,236 L184,236 L192,236 L200,248 L208,248 L216,248 L224,260 L232,260 L240,260 L248,260 L256,272 L264,272 L272,272 L280,272 L288,272 L296,260 L304,260 L312,260 L320,260 L328,248 L336,248 L344,248 L352,248 L360,248 L368,248 L376,260 L384,260 L392,260 L400,260 L408,260 L416,260 L424,260 L432,260 L440,260 L448,260 L456,260 L464,260 L472,260 L480,260 L482.66666,264"/>
<path d="M498.66666,272 L504,272 L512,272 L520,272 L525.3333,280"/>
<path d="M530.6667,284 L536,284 L544,284 L552,284 L560,284"/>
<path d="M8,276 L16,276 L24,276 L32,276 L40,288 L48,288 L56,288 L64,288 L72,288 L80,276 L88,276 L96,276 L104,264 L112,264 L120,264 L128,252 L136,252 L144,252 L152,252 L160,240 L168,240 L176,240 L184,240 L192,240 L200,252 L208,252 L216,252 L221.33333,260"/>
<path d="M226.66667,264 L232,264 L240,264 L248,264 L256,276 L264,276 L272,276 L280,276 L288,276 L296,276 L304,264 L312,264 L320,264 L328,252 L336,252 L344,252 L352,252 L360,252 L368,252 L376,264 L384,264 L392,264 L400,264 L408,264 L416,264 L424,264 L432,264 L440,264 L448,264 L456,264 L464,264 L472,264 L480,264 L488,264 L490.66666,268"/>
<path d="M504,276 L512,276 L520,276 L522.6667,280"/>
<path d="M533.3333,288 L536,288 L544,288 L552,288 L560,288"/>
<path d="M10.666667,280 L16,280 L24,280 L32,280 L40,292 L48,292 L56,292 L64,292 L72,292 L80,280 L88,280 L96,280 L104,268 L112,268 L120,268 L128,256 L136,256 L144,256 L152,256 L160,256 L168,244 L176,244 L184,244 L192,244 L197.33333,252"/>
<path d="M202.66667,256 L208,256 L216,256 L218.66667,260"/>
<path d="M229.33333,268 L232,268 L240,268 L248,268 L253.33333,276"/>
<path d="M258.66666,280 L264,280 L272,280 L280,280 L288,280 L293.33334,280"/>
<path d="M298.66666,276 L304,268 L312,268 L320,268 L328,256 L336,256 L344,256 L352,256 L360,256 L368,256 L376,268 L384,268 L392,268 L400,268 L408,268 L416,268 L424,268 L432,268 L440,268 L448,268 L456,268 L464,268 L472,268 L480,268 L488,268 L496,268 L501.33334,276"/>
<path d="M506.66666,280 L512,280 L520,280 L528,280 L536,292 L544,292 L552,292 L560,292"/>
<path d="M13.333333,284 L16,284 L24,284 L32,284 L37.333332,292"/>
<path d="M42.666668,296 L48,296 L56,296 L64,296 L72,296 L80,284 L88,284 L96,284 L104,272 L112,272 L120,272 L128,272 L136,260 L144,260 L152,260 L160,260 L168,248 L176,248 L184,248 L192,248 L194.66667,252"/>
<path d="M205.33333,260 L208,260 L216,260 L224,260 L232,272 L240,272 L248,272 L250.66667,276"/>
<path d="M264,284 L272,284 L280,284 L288,284 L290.66666,284"/>
<path d="M301.33334,276 L304,272 L312,272 L320,272 L328,260 L336,260 L344,260 L352,260 L360,260 L368,260 L376,272 L384,272 L392,272 L400,272 L408,272 L416,272 L424,272 L432,272 L440,272 L448,272 L456,272 L464,272 L472,272 L480,272 L488,272 L496,272 L498.66666,276"/>
<path d="M512,284 L520,284 L528,284 L533.3333,292"/>
<path d="M538.6667,296 L544,296 L552,296 L560,296"/>
<path d="M8,276 L16,288 L24,288 L32,288 L34.666668,292"/>
<path d="M45.333332,300 L48,300 L56,300 L64,300 L72,300 L80,288 L88,288 L96,288 L104,276 L112,276 L120,276 L128,276 L136,264 L144,264 L152,264 L160,264 L168,252 L176,252 L184,252 L192,252 L200,252 L208,264 L216,264 L224,264 L229.33333,272"/>
<path d="M234.66667,276 L240,276 L248,276 L256,276 L261.33334,284"/>
<path d="M288,288 L296,276 L304,276 L312,276 L320,276 L328,276 L336,264 L344,264 L352,264 L360,264 L368,276 L376,276 L384,276 L392,276 L400,276 L408,276 L416,276 L424,276 L432,276 L440,276 L448,276 L456,276 L464,276"/>
<path d="M480,276 L488,276 L496,276 L504,276 L509.33334,284"/>
<path d="M514.6667,288 L520,288 L528,288 L530.6667,292"/>
<path d="M544,300 L552,300 L560,300"/>
<path d="M8,280 L13.333333,288"/>
<path d="M18.666666,292 L24,292 L32,292 L40,292 L48,304 L56,304 L64,304 L72,304 L80,292 L88,292 L96,292 L104,292 L112,280 L120,280 L128,280 L136,280 L144,268 L152,268 L160,268 L168,256 L176,256 L184,256 L192,256 L200,256 L208,268 L216,268 L224,268 L226.66667,272"/>
<path d="M237.33333,280 L240,280 L248,280 L256,280 L258.66666,284"/>
<path d="M290.66666,288 L296,280 L304,280 L312,280 L320,280 L328,280 L336,268 L344,268 L352,268 L360,268 L368,280 L376,280 L384,280 L392,280 L400,280 L408,280 L416,280 L424,280 L432,280 L440,280 L448,280 L456,280 L461.33334,280"/>
<path d="M482.66666,280 L488,280 L496,280 L504,280 L506.66666,284"/>
<path d="M520,292 L528,292 L536,292 L541.3333,300"/>
<path d="M546.6667,304 L552,304 L560,304"/>
<path d="M8,284 L10.666667,288"/>
<path d="M21.333334,296 L24,296 L32,296 L40,296 L48,308 L56,308 L64,308 L72,308 L80,296 L88,296 L96,296 L104,296 L112,284 L120,284 L128,284 L136,284 L144,272 L152,272 L160,272 L168,272 L176,260 L184,260 L192,260 L200,260 L205.33333,268"/>
<path d="M210.66667,272 L216,272 L224,272 L232,272 L240,284 L248,284 L256,284 L264,284 L266.66666,288"/>
<path d="M293.33334,288 L296,284 L304,284 L312,284 L320,284 L328,284 L336,272 L344,272 L352,272 L360,284 L368,284 L376,284 L384,284 L392,284 L400,284 L408,284 L416,284 L424,284 L432,284 L440,284 L448,284 L456,284"/>
<path d="M488,284 L496,284 L504,284 L512,284 L517.3333,292"/>
<path d="M522.6667,296 L528,296 L536,296 L538.6667,300"/>
<path d="M8,288 L16,288 L24,300 L32,300 L40,300 L45.333332,308"/>
<path d="M50.666668,312 L56,312 L64,312 L72,312 L80,312 L88,300 L96,300 L104,300 L112,288 L120,288 L128,288 L136,288 L144,276 L152,276 L160,276 L168,276 L176,264 L184,264 L192,264 L200,264 L202.66667,268"/>
<path d="M213.33333,276 L216,276 L224,276 L232,276 L237.33333,284"/>
<path d="M242.66667,288 L248,288 L256,288 L264,288 L272,288 L280,288 L288,288 L296,288 L304,288 L312,288 L320,288 L328,288 L336,288 L344,288 L352,288 L360,288 L368,288 L376,288 L384,288 L392,288 L400,300 L408,300 L416,288 L424,288 L432,288 L440,288 L448,288 L453.33334,288"/>
<path d="M458.66666,284 L464,276 L472,276 L480,276 L485.33334,284"/>
<path d="M490.66666,288 L496,288 L504,288 L512,288 L514.6667,292"/>
<path d="M525.3333,300 L528,300 L536,300 L544,300 L549.3333,308"/>
<path d="M8,292 L16,292 L21.333334,300"/>
<path d="M26.666666,304 L32,304 L40,304 L42.666668,308"/>
<path d="M53.333332,316 L56,316 L64,316 L72,316 L80,316 L88,304 L96,304 L104,304 L112,304 L120,292 L128,292 L136,292 L144,292 L152,280 L160,280 L168,280 L176,268 L184,268 L192,268 L200,268 L208,268 L216,280 L224,280 L232,280 L234.66667,284"/>
<path d="M248,292 L256,292 L264,292 L272,292 L280,292 L288,292 L296,292 L304,292 L312,292 L320,292 L328,292 L336,292 L344,292 L352,292 L360,292 L368,292 L376,292 L384,292 L392,304 L400,304 L408,304 L416,304 L424,292 L432,292 L440,292 L448,292 L450.66666,292"/>
<path d="M461.33334,284 L464,280 L472,280 L480,280 L482.66666,284"/>
<path d="M496,292 L504,292 L512,292 L520,292 L528,304 L536,304 L544,304 L546.6667,308"/>
<path d="M8,296 L16,296 L18.666666,300"/>
<path d="M29.333334,308 L32,308 L40,308 L48,308 L56,320 L64,320 L72,320 L80,320 L88,308 L96,308 L104,308 L112,308 L120,296 L128,296 L136,296 L144,296 L152,284 L160,284 L168,284 L176,272 L184,272 L192,272 L200,272 L208,272 L213.33333,280"/>
<path d="M224,284 L232,284 L240,284 L245.33333,292"/>
<path d="M256,296 L264,296 L272,296 L280,296 L288,296 L296,296 L304,296 L312,296 L320,296 L328,296 L336,296 L344,296 L352,296 L360,296 L368,296 L376,296 L384,308 L392,308 L400,308 L408,308 L416,308 L424,296 L432,296 L440,296 L448,296 L456,284 L464,284 L472,284 L480,284 L488,284 L493.33334,292"/>
<path d="M498.66666,296 L504,296 L512,296 L520,296 L528,308 L536,308 L544,308 L552,308 L560,308"/>
<path d="M8,300 L16,300 L24,300 L32,312 L40,312 L48,312 L56,324 L64,324 L72,324 L80,324 L88,324 L96,312 L104,312 L112,312 L120,300 L128,300 L136,300 L144,300 L152,288 L160,288 L168,288 L176,276 L184,276 L192,276 L200,276 L208,276 L210.66667,280"/>
<path d="M226.66667,288 L232,288 L240,288 L242.66667,292"/>
<path d="M258.66666,300 L264,300 L272,300 L280,300 L288,300 L296,300 L304,300 L312,300 L320,300 L328,300 L336,300 L344,300 L352,300 L360,300 L368,300 L376,300 L384,312 L392,312 L400,312 L408,312 L416,312 L424,312 L432,300 L440,300 L448,300 L456,288 L464,288 L472,288 L480,288 L488,288 L490.66666,292"/>
<path d="M501.33334,300 L504,300 L512,300 L520,300 L525.3333,308"/>
<path d="M530.6667,312 L536,312 L544,312 L552,312 L560,312"/>
<path d="M8,304 L16,304 L24,304 L32,316 L40,316 L48,316 L56,328 L64,328 L72,328 L80,328 L88,328 L96,316 L104,316 L112,316 L120,316 L128,304 L136,304 L144,304 L152,292 L160,292 L168,292 L176,280 L184,280 L192,280 L200,280 L208,280 L216,280 L218.66667,284"/>
<path d="M232,292 L240,292 L248,292 L250.66667,296"/>
<path d="M264,304 L272,304 L280,304 L288,304 L296,304 L304,304 L312,304 L320,304 L328,304 L336,304 L344,304 L352,304 L360,304 L368,304 L376,316 L384,316 L392,316 L400,316 L408,316 L416,316 L424,316 L432,304 L440,304 L448,304 L456,292 L464,292 L472,292 L480,292 L488,292 L496,292 L504,304 L512,304 L520,304 L522.6667,308"/>
<path d="M533.3333,316 L536,316 L544,316 L552,316 L560,316"/>
<path d="M8,308 L16,308 L24,308 L32,320 L40,320 L48,320 L56,332 L64,332 L72,332 L80,332 L88,332 L96,320 L104,320 L112,320 L120,320 L128,308 L136,308 L144,308 L152,296 L160,296 L168,296 L176,284 L184,284 L192,284 L200,284 L208,284 L216,284 L224,284 L229.33333,292"/>
<path d="M234.66667,296 L240,296 L248,296 L256,296 L261.33334,304"/>
<path d="M272,308 L280,308 L288,308 L296,308 L304,308 L312,308 L320,308 L328,308 L336,308 L344,308 L352,308 L360,308 L368,320 L376,320 L384,320 L392,320 L400,320 L408,320 L416,320 L424,320 L432,308 L440,308 L448,308 L456,296 L464,296 L472,296 L480,296 L488,296 L496,296 L504,308 L512,308 L520,308 L528,308 L536,320 L544,320 L552,320 L560,320"/>
<path d="M8,312 L16,312 L24,312 L32,324 L40,324 L48,324 L56,336 L64,336 L72,336 L80,336 L88,336 L96,324 L104,324 L112,324 L120,324 L128,312 L136,312 L144,312 L149.33333,312"/>
<path d="M154.66667,308 L160,300 L168,300 L176,288 L184,288 L192,288 L200,288 L208,288 L216,288 L224,288 L226.66667,292"/>
<path d="M240,300 L248,300 L256,300 L258.66666,304"/>
<path d="M280,312 L288,312 L296,312 L304,312 L312,312 L320,312 L328,312 L336,312 L344,312 L352,312 L360,312 L368,324 L376,324 L384,324 L392,324 L400,324 L408,324 L416,324 L424,324 L432,312 L440,312 L448,312 L456,300 L464,300 L472,300 L480,300 L488,300 L496,300 L504,312 L512,312 L520,312 L528,312 L536,324 L544,324 L552,324 L560,324"/>
<path d="M8,316 L16,316 L24,316 L32,328 L40,328 L48,328 L56,340 L64,340 L72,340 L80,340 L88,340 L96,328 L104,328 L112,328 L120,328 L128,316 L136,316 L144,316 L146.66667,316"/>
<path d="M157.33333,308 L160,304 L168,304 L176,292 L184,292 L192,292 L200,292 L208,292 L216,292 L224,292 L232,292 L237.33333,300"/>
<path d="M242.66667,304 L248,304 L256,304 L264,304 L266.66666,308"/>
<path d="M282.66666,316 L288,316 L296,316 L304,316 L312,316 L320,316 L328,316 L336,316 L344,316 L352,316 L360,328 L368,328 L376,328 L384,328 L392,328 L400,328 L408,328 L416,328 L424,328 L432,328 L440,316 L448,316 L456,304 L464,304 L472,304 L480,304 L488,304 L496,304 L504,316 L512,316 L520,316 L528,316 L536,328 L544,328 L552,328 L560,328"/>
<path d="M8,320 L16,320 L24,320 L32,332 L40,332 L48,332 L56,344 L64,344 L72,344 L80,344 L88,344 L96,332 L104,332 L112,332 L120,332 L128,320 L136,320 L144,320 L152,308 L160,308 L168,308 L176,296 L184,296 L192,296 L200,296 L208,296 L216,296 L224,296 L232,296 L234.66667,300"/>
<path d="M248,308 L256,308 L264,308 L272,308 L274.66666,312"/>
<path d="M288,320 L296,320 L304,320 L312,320 L320,320 L328,320 L336,320 L344,320 L352,332 L360,332 L368,332 L376,332 L384,332 L392,344 L400,344 L408,332 L416,332 L424,332 L432,332 L440,320 L448,320 L456,308 L464,308 L472,308 L480,308 L488,308 L496,308 L504,320 L512,320 L520,320 L528,320 L536,332 L544,332 L552,332 L560,332"/>
<path d="M8,324 L16,324 L24,324 L32,336 L40,336 L48,336 L56,348 L64,348 L72,348 L80,348 L88,348 L96,336 L104,336 L112,336 L120,336 L128,324 L136,324 L144,324 L152,312 L160,312 L165.33333,312"/>
<path d="M170.66667,308 L176,300 L184,300 L192,300 L200,300 L208,300 L216,300 L224,300 L232,300 L240,300 L245.33333,308"/>
<path d="M250.66667,312 L256,312 L264,312 L272,312 L280,312 L285.33334,320"/>
<path d="M290.66666,324 L296,324 L304,324 L312,324 L320,324 L328,324 L336,324 L344,336 L352,336 L360,336 L368,336 L376,336 L384,348 L392,348 L400,348 L408,348 L416,336 L424,336 L432,336 L440,324 L448,324 L456,324 L464,312 L472,312 L480,312 L488,312 L496,312 L504,324 L512,324 L520,324 L528,324 L536,336 L544,336 L552,336 L560,336"/>
<path d="M8,328 L16,328 L24,328 L32,340 L40,340 L48,340 L56,352 L64,352 L72,352 L80,352 L85.333336,352"/>
<path d="M90.666664,348 L96,340 L104,340 L112,340 L117.333336,340"/>
<path d="M122.666664,336 L128,328 L136,328 L144,328 L152,316 L160,316 L162.66667,316"/>
<path d="M173.33333,308 L176,304 L184,304 L192,304 L200,304 L208,304 L216,304 L224,304 L232,304 L240,304 L242.66667,308"/>
<path d="M256,316 L264,316 L272,316 L280,316 L282.66666,320"/>
<path d="M293.33334,328 L296,328 L304,328 L312,328 L320,328 L328,328 L336,328 L344,340 L352,340 L360,340 L368,340 L376,340 L384,352 L392,352 L400,352 L408,352 L416,352 L424,340 L432,340 L440,328 L448,328 L456,328 L464,316 L472,316 L480,316 L488,316 L496,316 L504,328 L512,328 L520,328 L528,340 L536,340 L544,340 L552,340 L560,340"/>
<path d="M8,332 L16,332 L24,332 L32,344 L40,344 L48,344 L56,356 L64,356 L72,356 L80,356 L82.666664,356"/>
<path d="M93.333336,348 L96,344 L104,344 L112,344 L114.666664,344"/>
<path d="M125.333336,336 L128,332 L136,332 L144,332 L152,320 L160,320 L168,308 L176,308 L184,308 L192,308 L200,308 L208,308 L216,308 L224,308 L232,308 L240,308 L248,308 L253.33333,316"/>
<path d="M258.66666,320 L264,320 L272,320 L280,320 L288,320 L296,332 L304,332 L312,332 L320,332 L328,332 L336,344 L344,344 L352,344 L360,344 L368,344 L376,356 L384,356 L392,356 L400,356 L408,356 L416,356 L424,344 L432,344 L440,332 L448,332 L456,332 L464,320 L472,320 L480,320 L488,320 L496,332 L504,332 L512,332 L520,332 L528,344 L536,344 L544,344 L552,344 L560,344"/>
<path d="M8,336 L16,336 L24,348 L32,348 L40,348 L48,348 L56,360 L64,360 L72,360 L80,360 L88,348 L96,348 L104,348 L112,348 L120,336 L128,336 L136,336 L141.33333,336"/>
<path d="M146.66667,332 L152,324 L160,324 L168,312 L176,312 L184,312 L192,312 L200,312 L208,312 L216,312 L224,312 L232,312 L240,312 L248,312 L250.66667,316"/>
<path d="M261.33334,324 L264,324 L272,324 L280,324 L288,324 L296,336 L304,336 L312,336 L320,336 L328,336 L336,348 L344,348 L352,348 L360,348 L368,348 L376,360 L384,360 L392,360 L400,360 L408,360 L416,360 L424,348 L432,348 L440,348 L448,336 L456,336 L464,324 L472,324 L480,324 L488,324 L496,336 L504,336 L512,336 L520,336 L528,348 L536,348 L544,348 L552,348 L560,348"/>
<path d="M8,340 L16,340 L24,352 L32,352 L40,352 L48,364 L56,364 L64,364 L72,364 L80,364 L88,352 L96,352 L104,352 L109.333336,352"/>
<path d="M114.666664,348 L120,340 L128,340 L136,340 L138.66667,340"/>
<path d="M149.33333,332 L152,328 L160,328 L168,316 L176,316 L184,316 L192,316 L200,316 L208,316 L216,316 L224,316 L232,316 L240,316 L248,316 L256,316 L264,328 L272,328 L280,328 L288,328 L296,340 L304,340 L312,340 L320,340 L328,340 L336,352 L344,352 L352,352 L360,352 L368,364 L376,364 L384,364 L392,364 L400,364 L408,364 L416,364 L424,352 L432,352 L440,352 L448,340 L456,340 L464,340 L472,328 L480,328 L488,328 L496,340 L504,340 L512,340 L520,340 L528,352 L536,352 L544,352 L552,352 L560,364"/>
<path d="M8,344 L16,344 L24,356 L32,356 L40,356 L48,368 L56,368 L64,368 L72,368 L77.333336,368"/>
<path d="M82.666664,364 L88,356 L96,356 L104,356 L106.666664,356"/>
<path d="M117.333336,348 L120,344 L128,344 L136,344 L144,332 L152,332 L157.33333,332"/>
<path d="M162.66667,328 L168,320 L176,320 L184,320 L192,320 L200,320 L208,320 L216,320 L224,320 L232,320 L240,320 L248,320 L256,320 L264,332 L272,332 L280,332 L288,332 L296,344 L304,344 L312,344 L320,344 L328,344 L336,356 L344,356 L352,356 L360,356 L368,368 L376,368 L384,368 L392,368 L400,368 L408,368 L416,368 L424,356 L432,356 L440,356 L448,344 L456,344 L464,344 L472,344 L480,332 L488,344 L496,344 L504,344 L512,344 L520,356 L528,356 L536,356 L544,356 L552,368 L560,368"/>
<path d="M8,348 L16,348 L24,360 L32,360 L40,360 L48,372 L56,372 L64,372 L72,372 L74.666664,372"/>
<path d="M85.333336,364 L88,360 L96,360 L104,360 L112,348 L120,348 L128,348 L133.33333,348"/>
<path d="M138.66667,344 L144,336 L152,336 L154.66667,336"/>
<path d="M165.33333,328 L168,324 L176,324 L184,324 L192,324 L200,324 L208,324 L216,324 L224,324 L232,324 L240,324 L248,324 L256,324 L264,336 L272,336 L280,336 L288,336 L296,348 L304,348 L312,348 L320,348 L328,348 L336,360 L344,360 L352,360 L360,360 L368,372 L376,372 L384,372 L392,372 L400,372 L408,372 L416,372 L424,372 L432,360 L440,360 L448,348 L456,348 L464,348 L472,348 L480,348 L488,348 L496,348 L504,348 L512,348 L520,360 L528,360 L536,360 L544,360 L552,372 L560,372"/>
<path d="M8,352 L16,364 L24,364 L32,364 L40,364 L48,376 L56,376 L64,376 L72,376 L80,364 L88,364 L96,364 L101.333336,364"/>
<path d="M106.666664,360 L112,352 L120,352 L128,352 L130.66667,352"/>
<path d="M141.33333,344 L144,340 L152,340 L160,328 L168,328 L176,328 L184,328 L192,328 L200,328 L208,328 L216,328 L224,328 L232,328 L240,328 L248,328 L256,328 L264,340 L272,340 L280,340 L288,340 L296,352 L304,352 L312,352 L320,352 L328,352 L336,364 L344,364 L352,364 L360,364 L365.33334,372"/>
<path d="M370.66666,376 L376,376 L384,376 L392,376 L400,376 L408,376 L416,376 L424,376 L432,364 L440,364 L448,352 L456,352 L464,352 L472,352 L480,352 L488,352 L496,352 L504,352 L512,352 L520,364 L528,364 L536,364 L544,376 L552,376 L560,376"/>
<path d="M8,356 L16,368 L24,368 L32,368 L40,368 L48,380 L56,380 L64,380 L72,380 L80,368 L88,368 L96,368 L98.666664,368"/>
<path d="M109.333336,360 L112,356 L120,356 L128,356 L136,344 L144,344 L152,344 L160,332 L168,332 L176,332 L184,332 L192,332 L200,332 L208,332 L216,332 L224,332 L232,332 L240,332 L248,332 L256,332 L264,344 L272,344 L280,344 L288,344 L296,356 L304,356 L312,356 L320,356 L328,356 L336,368 L344,368 L352,368 L360,368 L362.66666,372"/>
<path d="M376,380 L384,380 L392,380 L400,380 L408,380 L416,380 L424,380 L432,368 L440,368 L448,356 L456,356 L464,356 L472,356 L480,356 L488,356 L496,356 L504,356 L512,368 L520,368 L528,368 L536,368 L544,380 L552,380 L560,380"/>
<path d="M8,372 L16,372 L24,372 L32,372 L40,384"/>
<path d="M72,384 L80,372 L88,372 L96,372 L104,360 L112,360 L120,360 L125.333336,360"/>
<path d="M130.66667,356 L136,348 L144,348 L152,348 L160,336 L168,336 L176,336 L184,336 L192,336 L200,336 L208,336 L216,336 L224,336 L232,336 L240,336 L248,336 L256,348 L264,348 L272,348 L280,348 L288,348 L296,360 L304,360 L312,360 L320,360 L328,360 L333.33334,368"/>
<path d="M338.66666,372 L344,372 L352,372 L360,372 L368,372 L373.33334,380"/>
<path d="M426.66666,380 L432,372 L440,372 L448,372 L456,360 L464,360 L472,360 L480,360 L488,360 L496,360 L504,360 L512,372 L520,372 L528,372 L536,384"/>
<path d="M8,376 L16,376 L24,376 L32,376 L37.333332,384"/>
<path d="M74.666664,384 L80,376 L88,376 L96,376 L104,364 L112,364 L120,364 L122.666664,364"/>
<path d="M133.33333,356 L136,352 L144,352 L152,352 L160,340 L168,340 L176,340 L184,340 L192,340 L200,340 L208,340 L216,340 L224,340 L232,340 L240,340 L248,340 L256,352 L264,352 L272,352 L280,352 L288,352 L296,364 L304,364 L312,364 L320,364 L328,364 L330.66666,368"/>
<path d="M344,376 L352,376 L360,376 L368,376 L370.66666,380"/>
<path d="M429.33334,380 L432,376 L440,376 L448,376 L456,364 L464,364 L472,364 L480,364 L488,364 L496,364 L504,364 L512,376 L520,376 L528,376 L533.3333,384"/>
<path d="M8,380 L16,380 L24,380 L32,380 L34.666668,384"/>
<path d="M77.333336,384 L80,380 L88,380 L96,380 L104,368 L112,368 L120,368 L128,356 L136,356 L144,356 L152,356 L160,344 L168,344 L176,344 L184,344 L192,344 L200,344 L208,344 L216,344 L224,344 L232,344 L240,344 L248,344 L256,356 L264,356 L272,356 L280,356 L288,368 L296,368 L304,368 L312,368 L320,368 L328,368 L336,368 L341.33334,376"/>
<path d="M352,380 L360,380 L368,380 L376,380 L378.66666,384"/>
<path d="M421.33334,384 L424,380 L432,380 L440,380 L445.33334,380"/>
<path d="M450.66666,376 L456,368 L464,368 L472,368 L480,368 L488,368 L496,368 L504,380 L512,380 L520,380 L528,380 L530.6667,384"/>
<path d="M96,384 L104,372 L112,372 L120,372 L128,360 L136,360 L144,360 L152,360 L160,348 L168,348 L176,348 L184,348 L192,348 L200,348 L208,348 L216,348 L224,348 L232,348 L240,348 L248,360 L256,360 L264,360 L272,360 L280,360 L288,372 L296,372 L304,372 L312,372 L320,372 L328,372 L336,372 L338.66666,376"/>
<path d="M453.33334,376 L456,372 L464,372 L472,372 L480,372 L488,372 L496,372 L504,384"/>
<path d="M98.666664,384 L104,376 L112,376 L120,376 L128,364 L136,364 L144,364 L152,364 L160,352 L168,352 L176,352 L184,352 L192,352 L200,352 L208,352 L216,352 L224,352 L232,352 L240,364 L248,364 L256,364 L264,364 L272,364 L280,376 L288,376 L296,376 L304,376 L312,376 L320,376 L328,376 L336,376 L344,376 L346.66666,380"/>
<path d="M442.66666,384 L448,376 L456,376 L464,376 L472,376 L480,376 L488,376 L496,376 L501.33334,384"/>
<path d="M101.333336,384 L104,380 L112,380 L120,380 L128,368 L136,368 L144,368 L152,368 L160,356 L168,356 L176,356 L184,356 L192,356 L200,356 L208,356 L216,356 L224,356 L232,356 L240,368 L248,368 L256,368 L264,368 L272,380 L280,380 L288,380 L296,380 L304,380 L312,380 L320,380 L328,380 L336,380 L344,380 L352,380 L354.66666,384"/>
<path d="M445.33334,384 L448,380 L456,380 L464,380 L472,380 L480,380 L488,380 L496,380 L498.66666,384"/>
<path d="M120,384 L128,372 L136,372 L144,372 L152,372 L160,360 L168,360 L176,360 L184,360 L192,360 L200,360 L208,360 L216,360 L224,360 L232,372 L240,372 L248,372 L256,372 L264,372 L272,384"/>
<path d="M122.666664,384 L128,376 L136,376 L144,376 L152,376 L160,364 L168,364 L176,364 L184,364 L192,364 L200,364 L208,364 L216,364 L224,364 L232,376 L240,376 L248,376 L256,376 L261.33334,384"/>
<path d="M125.333336,384 L128,380 L136,380 L144,380 L152,380 L160,368 L168,368 L176,368 L184,368 L192,368 L200,368 L208,368 L216,368 L224,380 L232,380 L240,380 L248,380 L250.66667,384"/>
</g>
</svg>