<svg height="576px" viewBox="0 0 384 576" width="384px" xmlns="http://www.w3.org/2000/svg" xmlns:inkscape="http://www.inkscape.org/namespaces/inkscape">
<g fill="none" id="1" stroke="black" stroke-width="1.5px">
<path d="M249.12338,241.79474 L245.2359,244.9392 L241.34843,248.08363 L237.46097,251.22809 L233.5735,254.37254 L229.68602,257.517 L225.79855,260.66144 L221.91109,263.80588 L218.0236,266.95035 L214.13614,270.0948 L210.24867,273.23923 L206.36119,276.3837 L202.47372,279.52814 L198.58626,282.6726 L194.69878,285.81705 L190.81131,288.9615 L186.92384,292.10596 L183.03636,295.2504 L179.1489,298.39484 L175.26143,301.5393 L171.37395,304.68375 L167.48648,307.8282 L163.59901,310.97266 L159.71153,314.1171 L155.82407,317.26154 L151.9366,320.406 L148.04913,323.55045 L144.16165,326.6949 L140.27419,329.83936 L136.38672,332.9838 L132.49924,336.12823 L128.61177,339.2727 L124.7243,342.41714 L120.83683,345.56158 L116.949356,348.70605 L113.06188,351.8505 L109.174416,354.99493 L105.28694,358.1394 L101.39947,361.28384 L97.512,364.42828 L93.62453,367.57275 L89.73706,370.7172 L85.84959,373.86166 L81.96211,377.0061 L78.074646,380.15054 L74.18717,383.295 L70.2997,386.43945 L66.41223,389.5839 L62.524757,392.72836 L58.637287,395.8728 L54.749817,399.01724 L50.862347,402.1617 L46.974873,405.30615 L43.087402,408.4506 L39.199932,411.59506 L35.312458,414.7395 L31.424988,417.88394 L27.537518,421.0284 L23.650045,424.17285 L19.762575,427.3173 L15.875104,430.46176 L11.987632,433.6062 L8.100161,436.75064 L4.21269,439.8951"/>
<path d="M103.91433,440.1635 L106.41932,435.83627 L108.92431,431.50903 L111.4293,427.1818 L113.93429,422.85455 L116.43928,418.5273 L118.94427,414.20007 L121.44926,409.87283 L123.95425,405.5456 L126.459236,401.21832 L128.96422,396.89108 L131.46921,392.56384 L133.9742,388.2366 L136.47919,383.90936 L138.98418,379.58212 L141.48917,375.25488 L143.99416,370.92764 L146.49915,366.6004 L149.00414,362.27316 L151.50912,357.94592 L154.01411,353.61868 L156.5191,349.29144 L159.0241,344.96417 L161.52908,340.63693 L164.03407,336.3097 L166.53908,331.98245 L169.04407,327.6552 L171.54906,323.32797 L174.05405,319.00073 L176.55904,314.6735 L179.06403,310.34625 L181.56902,306.019 L184.074,301.69177 L186.579,297.36453 L189.08398,293.0373 L191.58897,288.71002 L194.09396,284.38278 L196.59895,280.05554 L199.10394,275.7283 L201.60893,271.40106 L204.11392,267.07382 L206.61891,262.74658 L209.1239,258.41934 L211.62889,254.0921 L214.13388,249.76486 L216.63887,245.4376 L219.14386,241.11037 L221.64885,236.78313 L224.15384,232.45589 L226.65883,228.12865 L229.16382,223.8014 L231.66881,219.47417 L234.1738,215.14691 L236.67879,210.81967 L239.18378,206.49243 L241.68877,202.16519 L244.19376,197.83795 L246.69875,193.51071 L249.20374,189.18346 L251.70872,184.85622 L254.21371,180.52898 L256.7187,176.20174 L259.2237,171.8745 L261.72867,167.54726 L264.23367,163.22002 L266.73865,158.89276 L269.24365,154.56552 L271.74863,150.23828 L274.25363,145.91104 L276.7586,141.5838 L279.2636,137.25656 L281.7686,132.9293 L284.2736,128.60207 L286.77856,124.274826 L289.28357,119.947586 L291.78854,115.620346 L294.29355,111.2931 L296.79855,106.96586 L299.30353,102.63862 L301.80853,98.31137 L304.3135,93.98413 L306.8185,89.65689 L309.3235,85.32965 L311.8285,81.0024 L314.33347,76.67516 L316.83847,72.34792 L319.34344,68.020676 L321.84845,63.693436 L324.35342,59.36619 L326.85843,55.03895 L329.3634,50.711708 L331.8684,46.384464 L334.37338,42.057224 L336.8784,37.72998 L339.38336,33.40274 L341.88837,29.075497 L344.39334,24.748255 L346.89835,20.421013 L349.40332,16.09377 L351.90833,11.766527 L354.4133,7.4392853"/>
<path d="M264.85168,222.80782 L261.1257,226.14206 L257.39972,229.47629 L253.67375,232.81052 L249.94778,236.14476 L246.2218,239.47899 L242.49583,242.81322 L238.76985,246.14745 L235.04388,249.48169 L231.3179,252.81592 L227.59192,256.15015 L223.86595,259.48438 L220.13997,262.8186 L216.414,266.15283 L212.68802,269.4871 L208.96205,272.82132 L205.23607,276.15555 L201.5101,279.48978 L197.78412,282.824 L194.05815,286.15823 L190.33217,289.49246 L186.6062,292.82672 L182.88022,296.16095 L179.15425,299.49518 L175.42827,302.8294 L171.7023,306.16364 L167.97632,309.49786 L164.25035,312.8321 L160.52437,316.16635 L156.79839,319.50058 L153.07242,322.8348 L149.34644,326.16904 L145.62047,329.50327 L141.89449,332.8375 L138.16852,336.17172 L134.44254,339.50595 L130.71657,342.8402 L126.99059,346.17444 L123.26462,349.50867 L119.538635,352.8429 L115.81266,356.17712 L112.086685,359.51135 L108.36071,362.84558 L104.634735,366.17984 L100.90876,369.51407 L97.182785,372.8483 L93.45681,376.18253 L89.730835,379.51675 L86.00486,382.85098 L82.278885,386.1852 L78.55291,389.51944 L74.826935,392.8537 L71.10096,396.18793 L67.374985,399.52216 L63.649006,402.85638 L59.92303,406.1906 L56.197056,409.52484 L52.47108,412.85907 L48.745106,416.19333 L45.01913,419.52756 L41.293156,422.8618 L37.56718,426.196 L33.841206,429.53024 L30.115229,432.86447 L26.389254,436.1987 L22.663279,439.53293 L18.937304,442.8672 L15.211328,446.20142 L11.485352,449.53564 L7.7593765,452.86987 L4.033401,456.2041"/>
<path d="M32.23563,436.8389 L35.894043,433.43066 L39.552452,430.02243 L43.21086,426.6142 L46.869274,423.20596 L50.527683,419.79773 L54.186092,416.3895 L57.844505,412.98126 L61.502914,409.57306 L65.16132,406.16483 L68.81973,402.7566 L72.47815,399.34836 L76.13656,395.94012 L79.79497,392.5319 L83.45338,389.12366 L87.111786,385.71542 L90.770195,382.30722 L94.42861,378.899 L98.08702,375.49075 L101.74543,372.08252 L105.40384,368.6743 L109.06225,365.26605 L112.72066,361.85782 L116.379074,358.4496 L120.03748,355.04135 L123.69589,351.63315 L127.3543,348.2249 L131.01271,344.81668 L134.67113,341.40845 L138.32953,338.0002 L141.98795,334.59198 L145.64636,331.18375 L149.30476,327.7755 L152.96318,324.36728 L156.62158,320.95908 L160.28,317.55084 L163.9384,314.1426 L167.59682,310.73438 L171.25523,307.32614 L174.91364,303.9179 L178.57205,300.50967 L182.23045,297.10144 L185.88887,293.6932 L189.54729,290.285 L193.20569,286.87677 L196.8641,283.46854 L200.5225,280.0603 L204.18092,276.65207 L207.83932,273.24384 L211.49774,269.8356 L215.15616,266.42737 L218.81456,263.01913 L222.47298,259.61093 L226.13138,256.2027 L229.7898,252.79446 L233.44821,249.38623 L237.10661,245.978 L240.76503,242.56976 L244.42343,239.16154 L248.08185,235.75331 L251.74026,232.34508 L255.39867,228.93684 L259.05707,225.52861 L262.71548,222.12039 L266.3739,218.71216 L270.03232,215.30392 L273.69073,211.89569 L277.34912,208.48747 L281.00754,205.07924 L284.66595,201.671 L288.32437,198.26277 L291.98276,194.85454 L295.64117,191.44632 L299.2996,188.03809 L302.958,184.62985 L306.61642,181.22162 L310.2748,177.8134 L313.93323,174.40517 L317.59164,170.99693 L321.25006,167.5887 L324.90848,164.18048 L328.56686,160.77225 L332.22528,157.36401 L335.8837,153.95578 L339.5421,150.54755 L343.20053,147.13933 L346.85892,143.7311 L350.51733,140.32286 L354.17575,136.91463 L357.83417,133.50641 L361.49258,130.09818 L365.15097,126.68994 L368.8094,123.28171 L372.4678,119.87348 L376.12622,116.46525 L379.78464,113.05702"/>
<path d="M133.08272,265.2601 L137.74733,267.06046 L142.41196,268.86084 L147.07657,270.6612 L151.7412,272.46158 L156.4058,274.26193 L161.07042,276.06232 L165.73505,277.8627 L170.39966,279.66306 L175.06429,281.46344 L179.7289,283.2638 L184.39351,285.06418 L189.05814,286.86453 L193.72275,288.66492 L198.38737,290.4653 L203.05199,292.26566 L207.71661,294.06604 L212.38123,295.8664 L217.04584,297.66678 L221.71046,299.46716 L226.37508,301.26752 L231.0397,303.0679 L235.70432,304.86826 L240.36893,306.66864 L245.03355,308.469 L249.69817,310.26938 L254.3628,312.06976 L259.0274,313.87012 L263.69202,315.6705 L268.35663,317.47086 L273.02127,319.27124 L277.68588,321.0716 L282.3505,322.87198 L287.0151,324.67236 L291.67972,326.47272 L296.34436,328.2731 L301.00897,330.07346 L305.67358,331.87384 L310.3382,333.6742 L315.0028,335.47458 L319.66745,337.27496 L324.33206,339.07532 L328.99667,340.8757 L333.6613,342.67606 L338.32593,344.47644 L342.99054,346.27682 L347.65515,348.07718 L352.31976,349.87756 L356.98438,351.67792 L361.64902,353.4783 L366.31363,355.27866 L370.97824,357.07904 L375.64285,358.87943"/>
<path d="M289.06635,46.172676 L287.20386,50.812836 L285.34137,55.452995 L283.47885,60.09316 L281.61636,64.733315 L279.75385,69.37348 L277.89136,74.01364 L276.02887,78.6538 L274.16635,83.29396 L272.30386,87.93412 L270.44135,92.57428 L268.57886,97.21445 L266.71634,101.85461 L264.85385,106.49477 L262.99136,111.134926 L261.12885,115.775085 L259.26636,120.415245 L257.40384,125.055405 L255.54135,129.69557 L253.67885,134.33572 L251.81635,138.97589 L249.95384,143.61606 L248.09135,148.25621 L246.22885,152.89638 L244.36635,157.53653 L242.50385,162.1767 L240.64134,166.81685 L238.77884,171.45702 L236.91635,176.09718 L235.05385,180.73734 L233.19135,185.3775 L231.32884,190.01765 L229.46634,194.65782 L227.60384,199.29797 L225.74135,203.93814 L223.87885,208.57831 L222.01634,213.21846 L220.15384,217.85863 L218.29134,222.49878 L216.42883,227.13895 L214.56635,231.7791 L212.70384,236.41927 L210.84134,241.05943 L208.97884,245.69958 L207.11633,250.33975 L205.25383,254.9799 L203.39134,259.62006 L201.52884,264.26022 L199.66634,268.9004 L197.80383,273.54056 L195.94133,278.18073 L194.07883,282.82086 L192.21634,287.46103 L190.35384,292.1012 L188.49133,296.74136 L186.62883,301.38153 L184.76633,306.02167 L182.90382,310.66183 L181.04134,315.302 L179.17883,319.94217 L177.31633,324.5823 L175.45383,329.22247 L173.59132,333.86264 L171.72882,338.5028 L169.86633,343.14297 L168.00383,347.7831 L166.14133,352.42328 L164.27882,357.06345 L162.41632,361.7036 L160.55382,366.34378 L158.69133,370.98392 L156.82883,375.62408 L154.96632,380.26425 L153.10382,384.90442 L151.24132,389.5446 L149.37883,394.18472 L147.51633,398.8249 L145.65382,403.46506 L143.79132,408.10522 L141.92882,412.74536 L140.06631,417.38553 L138.20383,422.0257 L136.34132,426.66586 L134.47882,431.30603 L132.61632,435.94617 L130.75381,440.58633 L128.89131,445.2265 L127.02882,449.86667 L125.16631,454.50684 L123.30382,459.14697 L121.441315,463.78714 L119.57881,468.4273 L117.71632,473.06747 L115.85381,477.7076 L113.99131,482.34778 L112.128815,486.98795 L110.26631,491.6281 L108.40381,496.26828 L106.54131,500.90842 L104.67881,505.54858 L102.81631,510.18875"/>
<path d="M195.01677,470.03525 L194.93393,465.03592 L194.85107,460.03662 L194.76822,455.0373 L194.68536,450.038 L194.60252,445.03867 L194.51967,440.03937 L194.43681,435.04004 L194.35396,430.04074 L194.27112,425.0414 L194.18826,420.0421 L194.10541,415.0428 L194.02257,410.0435 L193.93971,405.04416 L193.85686,400.04486 L193.774,395.04553 L193.69116,390.04623 L193.6083,385.0469 L193.52545,380.0476 L193.44261,375.04828 L193.35976,370.04898 L193.2769,365.04965 L193.19405,360.05035 L193.1112,355.05103 L193.02835,350.05173 L192.9455,345.0524 L192.86266,340.0531 L192.7798,335.05377 L192.69695,330.05447 L192.61409,325.05515 L192.53125,320.05585 L192.4484,315.05652 L192.36554,310.05722 L192.28268,305.0579 L192.19984,300.05856 L192.11699,295.05927 L192.03413,290.05994 L191.9513,285.06064 L191.86844,280.0613 L191.78558,275.062 L191.70273,270.06268 L191.61989,265.0634 L191.53703,260.06406 L191.45418,255.06476 L191.37134,250.06544 L191.28848,245.06613 L191.20563,240.06682 L191.12277,235.0675 L191.03993,230.06819 L190.95708,225.06888 L190.87422,220.06956 L190.79137,215.07025 L190.70853,210.07094 L190.62567,205.07162 L190.54282,200.07231 L190.45998,195.073 L190.37712,190.07368 L190.29427,185.07437 L190.21141,180.07506 L190.12857,175.07574 L190.04572,170.07643 L189.96286,165.07712 L189.88002,160.0778 L189.79716,155.07849 L189.71431,150.07918 L189.63145,145.07986 L189.54861,140.08055 L189.46576,135.08124 L189.3829,130.08192 L189.30006,125.0826 L189.21721,120.08329 L189.13435,115.08398 L189.0515,110.08466 L188.96866,105.08535 L188.8858,100.08604 L188.80295,95.08672 L188.7201,90.08741 L188.63725,85.0881 L188.5544,80.08878 L188.47154,75.08947 L188.3887,70.09016 L188.30585,65.09084 L188.22299,60.09153 L188.14014,55.092216 L188.0573,50.092903 L187.97444,45.09359 L187.89159,40.094276 L187.80875,35.094963 L187.72589,30.095648 L187.64304,25.096334 L187.56018,20.097021 L187.47734,15.097708 L187.39449,10.098393"/>
<path d="M213.82843,83.88604 L213.29674,88.85769 L212.76506,93.82934 L212.23338,98.800995 L211.7017,103.772644 L211.17003,108.74429 L210.63834,113.71594 L210.10666,118.6876 L209.57498,123.65925 L209.0433,128.6309 L208.51163,133.60255 L207.97995,138.5742 L207.44826,143.54585 L206.91658,148.5175 L206.3849,153.48915 L205.85323,158.4608 L205.32155,163.43246 L204.78986,168.40411 L204.25818,173.37576 L203.7265,178.34741 L203.19482,183.31906 L202.66315,188.29071 L202.13147,193.26236 L201.59978,198.23402 L201.0681,203.20567 L200.53642,208.17732 L200.00475,213.14897 L199.47307,218.12062 L198.94139,223.09227 L198.4097,228.06392 L197.87802,233.03558 L197.34634,238.00723 L196.81467,242.97888 L196.28299,247.95053 L195.7513,252.92218 L195.21962,257.89383 L194.68794,262.86548 L194.15627,267.83713 L193.62459,272.80878 L193.09291,277.78043 L192.56122,282.75208 L192.02954,287.72375 L191.49786,292.6954 L190.96619,297.66705 L190.43451,302.6387 L189.90282,307.61035 L189.37114,312.582 L188.83946,317.55365 L188.30779,322.5253 L187.77611,327.49695 L187.24443,332.4686 L186.71274,337.44025 L186.18106,342.4119 L185.64938,347.38354 L185.1177,352.3552 L184.58603,357.32684 L184.05434,362.29852 L183.52266,367.27017 L182.99098,372.24182 L182.4593,377.21347 L181.92763,382.18512 L181.39595,387.15677 L180.86426,392.12842 L180.33258,397.10007 L179.8009,402.07172 L179.26923,407.04337 L178.73755,412.015 L178.20587,416.98666 L177.67418,421.9583 L177.1425,426.92996 L176.61082,431.90164 L176.07915,436.8733 L175.54747,441.84494 L175.01578,446.8166 L174.4841,451.78824 L173.95242,456.7599 L173.42075,461.73154 L172.88907,466.7032 L172.35739,471.67484 L171.8257,476.64648 L171.29402,481.61813 L170.76234,486.58978 L170.23067,491.56143 L169.69899,496.53308 L169.1673,501.50473 L168.63562,506.4764 L168.10394,511.44806 L167.57227,516.4197 L167.04059,521.39136 L166.50891,526.363 L165.97722,531.33466 L165.44554,536.3063 L164.91386,541.27795 L164.38219,546.24963 L163.85051,551.22125 L163.31883,556.19293 L162.78714,561.16455 L162.25546,566.1362"/>
<path d="M176.77728,79.794815 L177.14188,84.7815 L177.50647,89.76819 L177.87106,94.75488 L178.23566,99.74157 L178.60027,104.72826 L178.96486,109.71495 L179.32945,114.70164 L179.69405,119.688324 L180.05865,124.67502 L180.42325,129.6617 L180.78784,134.64839 L181.15244,139.63509 L181.51704,144.62177 L181.88164,149.60846 L182.24623,154.59515 L182.61082,159.58183 L182.97542,164.56853 L183.34003,169.55522 L183.70462,174.5419 L184.06921,179.5286 L184.4338,184.51529 L184.79842,189.50197 L185.16301,194.48866 L185.5276,199.47536 L185.8922,204.46204 L186.2568,209.44873 L186.6214,214.43542 L186.986,219.4221 L187.35059,224.4088 L187.71518,229.3955 L188.07979,234.38217 L188.44438,239.36887 L188.80898,244.35556 L189.17357,249.34224 L189.53818,254.32893 L189.90277,259.3156 L190.26736,264.3023 L190.63196,269.289 L190.99657,274.2757 L191.36116,279.2624 L191.72575,284.24905 L192.09035,289.23575 L192.45494,294.22244 L192.81955,299.20914 L193.18414,304.19583 L193.54874,309.18253 L193.91333,314.1692 L194.27794,319.15588 L194.64253,324.14258 L195.00713,329.12927 L195.37172,334.11597 L195.73633,339.10266 L196.10092,344.08932 L196.46552,349.07602 L196.83011,354.0627 L197.1947,359.0494 L197.55931,364.0361 L197.9239,369.0228 L198.2885,374.00946 L198.65309,378.99615 L199.0177,383.98285 L199.3823,388.96954 L199.74689,393.95624 L200.11148,398.94293 L200.47609,403.9296 L200.84068,408.9163 L201.20528,413.90298 L201.56987,418.88968 L201.93446,423.87637 L202.29907,428.86307 L202.66367,433.84973 L203.02826,438.83643 L203.39285,443.82312 L203.75746,448.8098 L204.12206,453.7965 L204.48665,458.7832 L204.85124,463.76987 L205.21585,468.75656 L205.58044,473.74326 L205.94504,478.72995 L206.30963,483.71664 L206.67424,488.70334 L207.03883,493.69 L207.40343,498.6767 L207.76802,503.6634 L208.13261,508.6501 L208.49722,513.6368 L208.86182,518.6235 L209.22641,523.61017 L209.591,528.59686 L209.95561,533.58356 L210.3202,538.5702 L210.6848,543.5569 L211.0494,548.5436 L211.414,553.5303 L211.7786,558.51697 L212.14319,563.50366 L212.50778,568.49036"/>
<path d="M319.38068,204.7672 L315.195,207.5022 L311.00934,210.23718 L306.82367,212.97217 L302.638,215.70717 L298.45233,218.44215 L294.26666,221.17714 L290.081,223.91214 L285.89532,226.64713 L281.70966,229.38211 L277.524,232.11711 L273.33832,234.8521 L269.15265,237.58708 L264.96698,240.32208 L260.7813,243.05707 L256.59564,245.79205 L252.40997,248.52705 L248.2243,251.26204 L244.03864,253.99704 L239.85297,256.73203 L235.6673,259.467 L231.48163,262.202 L227.29596,264.93698 L223.11029,267.672 L218.92462,270.40698 L214.73895,273.14197 L210.55328,275.87695 L206.36761,278.61194 L202.18195,281.34695 L197.99628,284.08194 L193.81061,286.81693 L189.62492,289.5519 L185.43925,292.2869 L181.25359,295.02188 L177.06792,297.7569 L172.88225,300.49188 L168.69658,303.22687 L164.51091,305.96185 L160.32524,308.69684 L156.13957,311.43182 L151.9539,314.16684 L147.76823,316.90182 L143.58257,319.6368 L139.3969,322.3718 L135.21123,325.10678 L131.02556,327.8418 L126.8399,330.57678 L122.65423,333.31177 L118.46856,336.04675 L114.28289,338.78174 L110.09722,341.51672 L105.91155,344.25174 L101.72588,346.98672 L97.540215,349.7217 L93.354546,352.4567 L89.16888,355.19168 L84.98321,357.92667 L80.79754,360.66168 L76.61187,363.39667 L72.4262,366.13165 L68.24053,368.86664 L64.054855,371.60162 L59.86919,374.33664 L55.68352,377.07162 L51.497852,379.8066 L47.312183,382.5416 L43.126514,385.27658 L38.940845,388.01157 L34.755177,390.74658 L30.569506,393.48157 L26.383837,396.21655 L22.198168,398.95154 L18.012499,401.68652 L13.82683,404.4215 L9.641161,407.15652 L5.455492,409.8915"/>
</g>
</svg>