<?xml version="1.0" encoding="utf-8" ?>
<svg xmlns="http://www.w3.org/2000/svg" xmlns:cc="http://creativecommons.org/ns" xmlns:dc="http://purl.org/dc/elements/1.1/" xmlns:ev="http://www.w3.org/2001/xml-events" xmlns:inkscape="http://www.inkscape.org/namespaces/inkscape" xmlns:rdf="http://www.w3.org/1999/02/22-rdf-syntax-ns" xmlns:sodipodi="http://sodipodi.sourceforge.net/DTD/sodipodi-0.dtd" xmlns:xlink="http://www.w3.org/1999/xlink" baseProfile="tiny" height="10.16cm" version="1.2" viewBox="0 0 576.0 384.0" width="15.24cm">
  <metadata>
    <rdf:RDF>
      <cc:Work>
        <dc:format>image/svg+xml</dc:format>
        <dc:source>vpype read samples/noise_waves_1.svg linemerge --tolerance 0.1mm linesort reloop linesimplify write samples/noise_waves_1_opt.svg
</dc:source>
        <dc:date>2024-03-13T08:47:03.108898</dc:date>
      </cc:Work>
    </rdf:RDF>
  </metadata>
  <defs/>
  <g fill="none" id="layer1" inkscape:groupmode="layer" inkscape:label="1" stroke="#0000ff" stroke-width="1.5118" style="display:inline">
    <line x1="4.32" x2="54.6004" y1="5.0461" y2="2.88"/>
    <polyline points="4.32,10.2956 52.8,8.223 91.2,7.6235 124.8,8.2236 201.6,11.0883 254.4,11.4054 288.0,10.8934 355.2,8.657 388.8,8.2932 427.2,9.0879 494.4,12.1089 518.4,12.906 542.4,13.0694 571.68,12.4068"/>
    <polyline points="571.68,6.7497 542.4,7.3731 518.4,7.191 494.4,6.3871 436.8,3.7299 410.6724,2.88"/>
    <polyline points="357.811,2.88 283.2,5.3021 240.0,5.7158 196.8,5.2816 129.9847,2.88"/>
    <polyline points="4.32,15.5374 52.8,13.5039 91.2,13.0008 124.8,13.7153 201.6,16.7729 254.4,17.1073 288.0,16.5989 355.2,14.3756 388.8,14.0179 427.2,14.8169 494.4,17.8387 518.4,18.6294 542.4,18.7748 571.68,18.0739"/>
    <polyline points="571.68,23.7542 542.4,24.4917 518.4,24.3635 494.4,23.5789 427.2,20.5551 388.8,19.7485 360.0,19.9887 288.0,22.2947 249.6,22.8098 220.8,22.7542 196.8,22.3149 124.8,19.198 91.2,18.3719 52.8,18.7791 4.32,20.7694"/>
    <polyline points="4.32,25.9907 52.8,24.0485 91.2,23.7364 120.0,24.4776 196.8,27.9606 220.8,28.4189 249.6,28.4818 288.0,27.9783 360.0,25.7113 388.8,25.4853 427.2,26.3036 494.4,29.3303 518.4,30.1094 542.4,30.2217 571.68,29.4497"/>
    <polyline points="571.68,35.1613 542.4,35.9653 518.4,35.8674 494.4,35.0933 427.2,32.0623 403.2,31.4005 384.0,31.2121 350.4,31.65 273.6,33.9452 216.0,34.0084 182.4,33.049 115.2,29.7331 86.4,29.037 52.8,29.3128 4.32,31.2013"/>
    <polyline points="4.32,36.402 48.0,34.692 81.6,34.3307 115.2,35.1541 182.4,38.6301 216.0,39.6252 273.6,39.5885 350.4,37.3635 384.0,36.9566 427.2,37.8305 494.4,40.8669 518.4,41.6369 542.4,41.7221 571.68,40.8892"/>
    <polyline points="571.68,46.6327 542.4,47.491 518.4,47.4164 494.4,46.6498 422.4,43.4383 384.0,42.7043 350.4,43.0735 273.6,45.2118 216.0,45.2162 182.4,44.1867 115.2,40.5658 81.6,39.6539 48.0,39.9416 4.32,41.5944"/>
    <polyline points="4.32,46.7806 48.0,45.1914 81.6,44.9756 110.4,45.7591 182.4,49.7179 216.0,50.78 273.6,50.814 350.4,48.7786 384.0,48.4537 422.4,49.2186 494.4,52.44 518.4,53.204 542.4,53.2702 571.68,52.3904"/>
    <polyline points="571.68,58.1605 542.4,59.0576 518.4,58.9974 494.4,58.2348 422.4,55.0026 384.0,54.2029 350.4,54.4776 273.6,56.3944 216.0,56.3155 182.4,55.2229 110.4,51.1447 76.8,50.2443 43.2,50.5553 4.32,51.963"/>
    <polyline points="4.32,57.1446 43.2,55.8042 76.8,55.56 110.4,56.5258 182.4,60.7016 216.0,61.8225 273.6,61.9524 350.4,60.1692 384.0,59.95 422.4,60.7875 513.6,64.6916 542.4,64.8503 571.68,63.9406"/>
    <polyline points="571.68,69.728 542.4,70.6455 513.6,70.4874 422.4,66.5706 384.0,65.6927 350.4,65.8518 273.6,67.488 216.0,67.3009 182.4,66.1544 110.4,61.9044 76.8,60.8822 43.2,61.0615 4.32,62.3286"/>
    <polyline points="4.32,67.5183 43.2,66.3303 76.8,66.2134 110.4,67.2824 182.4,71.5818 216.0,72.7512 273.6,73.0015 350.4,71.5243 379.2,71.3913 422.4,72.3488 513.6,76.2793 542.4,76.4399 571.68,75.5197"/>
    <polyline points="571.68,81.3126 542.4,82.2301 513.6,82.0638 422.4,78.1189 379.2,77.1106 345.6,77.248 273.6,78.4932 220.8,78.2571 187.2,77.2192 115.2,72.9056 86.4,71.7546 67.2,71.457 48.0,71.5401 4.32,72.7172"/>
    <polyline points="4.32,77.9286 48.0,76.8509 86.4,77.1225 115.2,78.2901 187.2,82.6 220.8,83.6581 273.6,83.9641 345.6,82.8851 379.2,82.8187 422.4,83.8778 513.6,87.8374 542.4,88.0128 571.68,87.1034"/>
    <polyline points="571.68,92.8886 542.4,93.7845 513.6,93.5968 422.4,89.6225 379.2,88.5135 345.6,88.5083 273.6,89.415 220.8,89.0344 187.2,87.9583 115.2,83.6784 86.4,82.5046 48.0,82.1823 4.32,83.156"/>
    <polyline points="4.32,88.4026 48.0,87.537 86.4,87.9033 115.2,89.0725 187.2,93.296 220.8,94.3877 273.6,94.8473 345.6,94.1169 379.2,94.1932 422.4,95.3501 513.6,99.3387 542.4,99.542 571.68,98.665"/>
    <polyline points="571.68,104.4294 542.4,105.282 513.6,105.0598 422.4,101.0576 379.2,99.856 345.6,99.7104 273.6,100.2624 216.0,99.6178 182.4,98.3837 110.4,94.2374 76.8,93.0958 43.2,92.9529 4.32,93.6714"/>
    <polyline points="4.32,98.9653 43.2,98.3519 76.8,98.5338 110.4,99.6558 182.4,103.6899 216.0,104.9261 273.6,105.662 345.6,105.2882 379.2,105.5004 422.4,106.7427 513.6,110.7574 542.4,111.0015 571.68,110.1786"/>
    <polyline points="571.68,115.9097 542.4,116.6978 513.6,116.4287 417.6,112.2144 374.4,111.0482 345.6,110.8502 273.6,111.0478 216.0,110.2177 182.4,108.9832 110.4,105.0877 76.8,103.9967 43.2,103.7809 4.32,104.2867"/>
    <polyline points="4.32,109.6378 48.0,109.2324 86.4,109.7025 120.0,110.9699 192.0,114.6904 230.4,115.8105 273.6,116.4217 350.4,116.4115 388.8,116.9339 422.4,118.0364 494.4,121.3725 518.4,122.1907 542.4,122.3684 571.68,121.62"/>
    <polyline points="571.68,127.3071 542.4,128.0112 518.4,127.8067 494.4,126.9771 422.4,123.6413 388.8,122.5249 350.4,121.951 273.6,121.7859 235.2,121.1891 192.0,119.955 120.0,116.408 91.2,115.3386 52.8,114.7446 4.32,115.0204"/>
    <polyline points="4.32,120.436 52.8,120.285 91.2,120.8648 124.8,122.0663 196.8,125.3979 244.8,126.6696 283.2,127.2352 355.2,127.5149 388.8,128.0916 422.4,129.2165 494.4,132.5491 518.4,133.3908 542.4,133.6244 571.68,132.969"/>
    <polyline points="571.68,138.6036 547.2,139.1764 518.4,138.942 494.4,138.0874 422.4,134.761 388.8,133.6335 355.2,133.0286 288.0,132.6518 254.4,132.1681 201.6,130.819 124.8,127.5171 91.2,126.4156 52.8,125.8582 4.32,125.8854"/>
    <polyline points="4.32,131.3694 52.8,131.4639 86.4,131.8908 124.8,132.9829 201.6,136.0651 240.0,137.1428 278.4,137.9126 355.2,138.5255 388.8,139.1504 422.4,140.2743 499.2,143.7988 523.2,144.5709 547.2,144.7349 571.68,144.2098"/>
    <polyline points="571.68,149.7862 547.2,150.2613 523.2,150.0596 499.2,149.2696 422.4,145.7562 388.8,144.6426 254.4,142.7889 211.2,141.6243 129.6,138.6226 91.2,137.5918 4.32,136.8879"/>
    <polyline points="4.32,142.4407 100.8,143.3918 264.0,148.335 388.8,150.1105 427.2,151.3984 499.2,154.7059 523.2,155.5145 547.2,155.7552 571.68,155.3324"/>
    <polyline points="571.68,160.8478 547.2,161.2167 523.2,160.9361 398.4,155.8148 364.8,155.0646 268.8,153.7847 124.8,149.4793 81.6,148.7438 4.32,148.0271"/>
    <polyline points="4.32,153.6458 139.2,155.3053 273.6,159.2501 364.8,160.5013 398.4,161.2281 432.0,162.3938 523.2,166.3253 547.2,166.6465 571.68,166.3328"/>
    <polyline points="571.68,171.7876 547.2,172.0455 523.2,171.6834 436.8,167.9426 403.2,166.7521 369.6,165.9993 278.4,164.7313 153.6,161.066 4.32,159.2952"/>
    <polyline points="4.32,164.9734 43.2,165.6252 129.6,166.1776 168.0,166.7743 283.2,170.2279 374.4,171.4812 408.0,172.2505 528.0,177.137 552.0,177.4252 571.68,177.213"/>
    <polyline points="571.68,182.6104 552.0,182.777 528.0,182.445 504.0,181.6176 441.6,178.7551 408.0,177.5836 374.4,176.8667 283.2,175.6303 177.6,172.354 134.4,171.7669 52.8,171.52 4.32,170.678"/>
    <polyline points="4.32,176.4063 52.8,177.334 144.0,177.3502 182.4,177.8268 288.0,181.1583 379.2,182.3093 412.8,183.0284 528.0,187.7279 552.0,188.103 571.68,187.9811"/>
    <polyline points="571.68,193.327 547.2,193.3655 523.2,192.8447 446.4,189.4656 412.8,188.3161 288.0,186.5918 182.4,183.2127 144.0,182.8788 57.6,183.1991 4.32,182.1554"/>
    <polyline points="4.32,187.9222 33.6,188.7232 62.4,189.0581 148.8,188.408 187.2,188.7067 292.8,192.148 412.8,193.5888 446.4,194.6916 523.2,198.0798 547.2,198.6374 571.68,198.6502"/>
    <polyline points="571.68,203.953 547.2,203.8913 523.2,203.2989 451.2,200.098 417.6,198.9642 388.8,198.4436 292.8,197.6142 187.2,194.1298 148.8,193.9528 62.4,194.8993 33.6,194.5609 4.32,193.7033"/>
    <polyline points="4.32,199.4952 33.6,200.4044 62.4,200.7445 153.6,199.4715 187.2,199.5788 211.2,200.1641 264.0,202.26 292.8,203.0974 321.6,203.4958 388.8,203.7534 422.4,204.3234 451.2,205.2943 528.0,208.6653 552.0,209.1965 571.68,209.2379"/>
    <polyline points="571.68,214.5075 552.0,214.4312 528.0,213.8667 451.2,210.4825 422.4,209.5489 388.8,209.0599 297.6,208.6915 268.8,207.9275 216.0,205.7829 192.0,205.1303 153.6,205.0368 91.2,206.3072 62.4,206.5902 33.6,206.25 4.32,205.2944"/>
    <polyline points="4.32,211.0975 33.6,212.0942 62.4,212.4333 91.2,212.0987 153.6,210.6216 192.0,210.626 216.0,211.2666 268.8,213.448 297.6,214.208 326.4,214.4699 393.6,214.3868 427.2,214.8837 456.0,215.8618 528.0,219.0615 552.0,219.6562 571.68,219.7647"/>
    <polyline points="571.68,225.012 552.0,224.8748 528.0,224.2529 456.0,221.041 427.2,220.0957 393.6,219.6803 326.4,219.9592 297.6,219.7427 268.8,218.9915 216.0,216.779 192.0,216.1494 153.6,216.2253 91.2,217.889 67.2,218.2522 38.4,218.0433 4.32,216.901"/>
    <polyline points="4.32,222.7018 38.4,223.877 67.2,224.0768 91.2,223.6757 153.6,221.8471 192.0,221.7003 216.0,222.3198 268.8,224.558 297.6,225.2959 326.4,225.4616 393.6,224.9775 427.2,225.3097 456.0,226.222 528.0,229.444 552.0,230.0898 571.68,230.2524"/>
    <polyline points="571.68,235.4883 552.0,235.304 528.0,234.6377 460.8,231.6077 432.0,230.6321 398.4,230.2698 326.4,230.9777 297.6,230.8675 268.8,230.1474 216.0,227.8888 192.0,227.278 153.6,227.4859 91.2,229.4569 67.2,229.8909 38.4,229.6996 4.32,228.497"/>
    <polyline points="4.32,234.2842 38.4,235.509 67.2,235.6926 91.2,235.2308 153.6,233.1407 192.0,232.8816 216.0,233.4848 268.8,235.7587 297.6,236.4573 326.4,236.5078 398.4,235.5658 432.0,235.8497 456.0,236.6003 532.8,240.0054 571.68,240.7223"/>
    <polyline points="571.68,245.9565 532.8,245.2136 460.8,241.9982 432.0,241.0762 398.4,240.8708 331.2,241.9949 297.6,242.0644 268.8,241.391 216.0,239.1066 192.0,238.5095 153.6,238.8098 91.2,240.996 67.2,241.4805 38.4,241.3034 4.32,240.0612"/>
    <polyline points="4.32,245.8269 38.4,247.0818 67.2,247.2537 91.2,246.7518 153.6,244.4917 182.4,244.0977 211.2,244.5876 268.8,247.0427 297.6,247.6878 331.2,247.5379 393.6,246.2408 422.4,246.1759 456.0,247.0147 532.8,250.4298 571.68,251.1927"/>
    <polyline points="571.68,256.4323 532.8,255.6552 456.0,252.2385 422.4,251.4408 393.6,251.5809 331.2,253.0929 307.2,253.3556 273.6,252.8672 216.0,250.419 187.2,249.7879 153.6,250.1847 91.2,252.4976 67.2,253.0121 38.4,252.8443 4.32,251.5804"/>
    <polyline points="4.32,257.322 38.4,258.5915 67.2,258.7566 96.0,258.0745 153.6,255.8868 187.2,255.4765 216.0,256.1042 273.6,258.5483 307.2,258.9871 336.0,258.5446 393.6,256.931 422.4,256.7163 456.0,257.4735 537.6,261.0507 571.68,261.6761"/>
    <polyline points="571.68,266.9242 532.8,266.1329 456.0,262.7188 427.2,262.0326 393.6,262.29 331.2,264.2336 302.4,264.6452 273.6,264.2413 216.0,261.804 187.2,261.1781 153.6,261.5959 96.0,263.8011 67.2,264.4889 38.4,264.3253 4.32,263.0528"/>
    <polyline points="4.32,268.7752 38.4,270.0488 67.2,270.2119 96.0,269.5218 153.6,267.3097 187.2,266.889 216.0,267.5142 273.6,269.9425 302.4,270.3045 331.2,269.815 393.6,267.656 427.2,267.3165 456.0,267.972 537.6,271.5445 571.68,272.1762"/>
    <polyline points="571.68,277.4305 537.6,276.7986 456.0,273.2299 427.2,272.6049 393.6,273.0259 331.2,275.4001 302.4,275.9676 273.6,275.6482 216.0,273.2299 187.2,272.6049 153.6,273.0259 96.0,275.239 67.2,275.9294 38.4,275.7665 4.32,274.4928"/>
    <polyline points="4.32,280.2085 38.4,281.4823 67.2,281.6453 96.0,280.9551 153.6,278.7423 187.2,278.3214 216.0,278.9465 273.6,281.3547 302.4,281.6314 331.2,280.9857 393.6,278.3962 427.2,277.8934 456.0,278.4878 537.6,282.0524 571.68,282.6846"/>
    <polyline points="571.68,287.9349 537.6,287.3013 456.0,283.7417 427.2,283.1786 398.4,283.6078 331.2,286.5707 297.6,287.327 268.8,286.9258 216.0,284.6628 187.2,284.0374 153.6,284.4573 96.0,286.6675 67.2,287.3567 38.4,287.1931 4.32,285.9191"/>
    <polyline points="4.32,291.62 38.4,292.8944 67.2,293.0596 96.0,292.373 153.6,290.1691 187.2,289.7519 216.0,290.3783 268.8,292.6348 297.6,292.9995 331.2,292.1546 398.4,288.9574 427.2,288.4583 456.0,288.9884 537.6,292.5415 571.68,293.1788"/>
    <polyline points="571.68,298.4146 537.6,297.7706 460.8,294.4021 432.0,293.7395 398.4,294.3023 331.2,297.7367 297.6,298.6704 268.8,298.3421 216.0,296.0919 187.2,295.4637 153.6,295.8763 96.0,298.0687 67.2,298.7504 38.4,298.5824 4.32,297.3071"/>
    <polyline points="4.32,302.9772 38.4,304.2538 67.2,304.4261 96.0,303.7517 153.6,301.577 187.2,301.1716 216.0,301.8025 268.8,304.0466 297.6,304.3388 331.2,303.3166 398.4,299.6423 432.0,298.9963 460.8,299.6276 537.6,302.9872 571.68,303.6414"/>
    <polyline points="571.68,308.8595 537.6,308.1909 460.8,304.8434 432.0,304.2459 398.4,304.9777 331.2,308.8936 297.6,310.0037 268.8,309.747 216.0,307.5087 187.2,306.8741 153.6,307.2695 96.0,309.4198 67.2,310.0841 38.4,309.9057 4.32,308.6274"/>
    <polyline points="4.32,314.2553 38.4,315.536 67.2,315.7221 96.0,315.0709 153.6,312.9521 187.2,312.5696 216.0,313.209 268.8,315.4418 297.6,315.664 331.2,314.4674 398.4,310.3095 417.6,309.6494 432.0,309.4893 460.8,310.0503 537.6,313.3822 571.68,314.0696"/>
    <polyline points="571.68,319.2729 532.8,318.3954 456.0,315.0883 432.0,314.7281 417.6,314.9214 398.4,315.6387 331.2,320.0376 297.6,321.3184 268.8,321.1296 216.0,318.9018 187.2,318.2565 153.6,318.6232 96.0,320.7033 67.2,321.3384 38.4,321.1428 4.32,319.8593"/>
    <polyline points="4.32,325.438 38.4,326.7248 67.2,326.9316 96.0,326.3156 153.6,324.2811 187.2,323.9331 216.0,324.5854 268.8,326.8086 292.8,327.0282 307.2,326.7344 326.4,325.8844 398.4,320.9671 417.6,320.1918 432.0,319.9644 456.0,320.2874 532.8,323.5643 571.68,324.4712"/>
    <polyline points="571.68,329.6669 537.6,328.8968 465.6,325.8118 436.8,325.1871 422.4,325.3389 403.2,326.0414 326.4,331.4598 307.2,332.3559 292.8,332.6745 264.0,332.3377 216.0,330.2581 187.2,329.5978 153.6,329.9244 96.0,331.9066 67.2,332.5008 38.4,332.2812 4.32,330.9905"/>
    <polyline points="4.32,336.5165 38.4,337.8115 67.2,338.0454 96.0,337.4756 153.6,335.5518 187.2,335.2491 216.0,335.9182 264.0,337.9963 292.8,338.3107 307.2,337.9692 326.4,337.0296 403.2,331.3582 422.4,330.6005 436.8,330.4159 460.8,330.8282 532.8,333.883 571.68,334.8623"/>
    <polyline points="571.68,340.0602 537.6,339.2142 460.8,336.0238 436.8,335.6501 422.4,335.8679 403.2,336.6804 326.4,342.5936 307.2,343.5732 292.8,343.9355 264.0,343.6413 216.0,341.5643 187.2,340.8854 153.6,341.162 96.0,343.0219 67.2,343.5652 38.4,343.3156 4.32,342.0159"/>
    <polyline points="4.32,347.489 38.4,348.7937 67.2,349.0602 96.0,348.5454 153.6,346.754 187.2,346.5054 216.0,347.1947 264.0,349.2711 292.8,349.5479 307.2,349.167 326.4,348.1514 403.2,342.0104 422.4,341.1439 436.8,340.8927 460.8,341.2262 537.6,344.3742 571.68,345.2636"/>
    <polyline points="571.68,350.4752 537.6,349.5395 465.6,346.5916 436.8,346.1468 422.4,346.4313 403.2,347.3503 326.4,353.7027 307.2,354.75 292.8,355.1467 264.0,354.8844 216.0,352.8082 187.2,352.1078 153.6,352.3269 96.0,354.046 67.2,354.5307 38.4,354.2466 4.32,352.9366"/>
    <polyline points="4.32,358.3596 38.4,359.6751 67.2,359.9776 96.0,359.5242 153.6,357.8801 187.2,357.6916 216.0,358.4035 264.0,360.48 292.8,360.7311 312.0,360.106 331.2,358.8985 403.2,352.7027 422.4,351.733 441.6,351.391 465.6,351.8108 542.4,354.8895 571.68,355.698"/>
    <polyline points="571.68,360.9348 542.4,360.0796 465.6,357.0465 441.6,356.6676 422.4,357.0517 403.2,358.0697 331.2,364.4293 312.0,365.6608 292.8,366.3001 264.0,366.057 216.0,363.9795 187.2,363.256 153.6,363.413 96.0,364.9804 67.2,365.4018 38.4,365.0805 4.32,363.7593"/>
    <polyline points="4.32,369.1374 38.4,370.4642 67.2,370.8046 96.0,370.4154 153.6,368.9255 182.4,368.7549 211.2,369.3614 264.0,371.6144 292.8,371.8533 312.0,371.2043 331.2,369.9547 388.8,364.5929 408.0,363.1331 427.2,362.2212 441.6,361.9648 470.4,362.4558 571.68,366.1885"/>
    <polyline points="571.68,371.4616 470.4,367.7262 441.6,367.2852 427.2,367.5711 408.0,368.5249 388.8,370.0261 331.2,375.475 312.0,376.7362 292.8,377.39 264.0,377.1515 211.2,374.8957 182.4,374.2751 153.6,374.4175 96.0,375.8303 67.2,376.1874 38.4,375.8281 4.32,374.4955"/>
    <line x1="4.32" x2="36.5248" y1="379.8358" y2="381.12"/>
    <polyline points="100.9343,381.12 144.0,380.0606 172.8,379.7351 201.6,380.113 228.592,381.12"/>
    <polyline points="329.4996,381.12 398.4,374.6503 417.6,373.3637 436.8,372.694 451.2,372.6268 470.4,373.0217 571.68,376.7565"/>
    <polyline points="544.7779,381.12 475.2,378.492 446.4,377.9746 417.6,378.7827 386.9191,381.12"/>
  </g>
  <g fill="none" id="layer2" inkscape:groupmode="layer" inkscape:label="2" stroke="#ff0000" stroke-width="1.5118" style="display:inline">
    <line x1="4.32" x2="38.9828" y1="4.2193" y2="2.88"/>
    <polyline points="4.32,9.5175 48.0,7.9527 86.4,7.7707 120.0,8.8241 192.0,12.4396 211.2,12.9377 235.2,13.1165 278.4,12.8176 360.0,10.14 398.4,9.7622 432.0,10.4303 518.4,13.6714 542.4,13.8881 571.68,13.4748"/>
    <polyline points="571.68,7.8125 542.4,8.1903 518.4,7.9566 432.0,4.7094 393.6,4.0214 355.2,4.5506 278.4,7.106 254.4,7.3865 216.0,7.3017 182.4,6.3936 108.4079,2.88"/>
    <polyline points="4.32,14.8092 48.0,13.2723 67.2,13.0291 86.4,13.1699 120.0,14.3234 187.2,17.9306 206.4,18.536 230.4,18.8089 278.4,18.521 360.0,15.8576 398.4,15.4861 432.0,16.1572 518.4,19.3929 542.4,19.593 571.68,19.1444"/>
    <polyline points="571.68,24.8235 542.4,25.3067 518.4,25.1228 432.0,21.8915 393.6,21.1917 355.2,21.7002 278.4,24.2128 220.8,24.4385 187.2,23.5843 115.2,19.5747 86.4,18.5639 67.2,18.3775 48.0,18.5871 4.32,20.0929"/>
    <polyline points="4.32,25.3679 48.0,23.8972 67.2,23.7213 86.4,23.9521 115.2,25.0422 182.4,29.0008 220.8,30.1018 278.4,29.8898 355.2,27.4144 393.6,26.9238 432.0,27.6336 518.4,30.8616 542.4,31.03 571.68,30.5132"/>
    <polyline points="571.68,36.2136 542.4,36.7629 518.4,36.6092 427.2,33.236 388.8,32.6521 355.2,33.1258 278.4,35.5493 220.8,35.7428 201.6,35.369 182.4,34.6076 115.2,30.4999 86.4,29.335 67.2,29.0611 48.0,29.2034 4.32,30.6343"/>
    <polyline points="4.32,35.893 48.0,34.5068 67.2,34.3981 86.4,34.7131 115.2,35.9475 182.4,40.1905 201.6,40.9724 220.8,41.3586 278.4,41.1892 355.2,38.8328 388.8,38.3874 427.2,38.9906 518.4,42.3645 542.4,42.5046 571.68,41.9242"/>
    <polyline points="571.68,47.6441 542.4,48.2535 518.4,48.1258 427.2,44.7495 388.8,44.1231 355.2,44.534 278.4,46.8074 220.8,46.9471 201.6,46.5484 182.4,45.7476 115.2,41.3853 81.6,39.9581 48.0,39.8092 4.32,41.1455"/>
    <polyline points="4.32,46.3937 48.0,45.1126 81.6,45.3211 115.2,46.8139 182.4,51.2775 201.6,52.0951 220.8,52.5065 278.4,52.4026 355.2,50.2277 388.8,49.8572 427.2,50.5108 518.4,53.891 542.4,54.0078 571.68,53.3715"/>
    <polyline points="571.68,59.1043 542.4,59.765 518.4,59.6576 494.4,58.9592 427.2,56.2717 388.8,55.5877 355.2,55.9123 278.4,57.9735 220.8,58.0355 201.6,57.6115 182.4,56.7792 115.2,52.2341 81.6,50.6847 48.0,50.4195 4.32,51.6399"/>
    <polyline points="4.32,56.8868 48.0,55.7324 81.6,56.0507 115.2,57.647 182.4,62.2522 201.6,63.0968 220.8,63.5333 278.4,63.5194 355.2,61.5859 388.8,61.3123 427.2,62.0297 494.4,64.7262 518.4,65.4226 542.4,65.5223 571.68,64.8402"/>
    <polyline points="571.68,70.5765 542.4,71.2768 518.4,71.1828 494.4,70.4876 427.2,67.7817 388.8,67.0286 355.2,67.2471 278.4,69.0397 220.8,68.9997 201.6,68.5507 182.4,67.6966 115.2,63.0541 81.6,61.4215 48.0,61.0539 4.32,62.1372"/>
    <polyline points="4.32,67.394 48.0,66.3868 81.6,66.7991 110.4,68.1561 182.4,73.1125 201.6,73.9735 220.8,74.4346 278.4,74.5345 350.4,72.975 384.0,72.7083 427.2,73.5246 494.4,76.2403 518.4,76.9351 542.4,77.0253 571.68,76.3103"/>
    <polyline points="571.68,82.0387 542.4,82.7647 518.4,82.6762 494.4,81.9809 427.2,79.2554 384.0,78.3936 350.4,78.5962 278.4,80.0039 220.8,79.8385 201.6,79.3657 182.4,78.5008 110.4,73.5558 81.6,72.1859 48.0,71.7338 4.32,72.6604"/>
    <polyline points="4.32,77.9394 48.0,77.0974 81.6,77.584 110.4,78.9566 182.4,83.8624 201.6,84.7282 220.8,85.2123 278.4,85.4484 350.4,84.2 384.0,84.0634 422.4,84.8157 494.4,87.706 518.4,88.4026 542.4,88.4918 571.68,87.7586"/>
    <polyline points="571.68,93.4672 542.4,94.2034 518.4,94.1113 494.4,93.4124 422.4,90.5103 384.0,89.7155 350.4,89.7856 273.6,90.8936 220.8,90.5572 182.4,89.1988 110.4,84.3604 81.6,82.9956 48.0,82.4803 4.32,83.2338"/>
    <polyline points="4.32,88.5466 48.0,87.8846 81.6,88.4227 110.4,89.7689 182.4,94.5116 220.8,95.8747 273.6,96.2821 350.4,95.3519 384.0,95.3482 427.2,96.3446 513.6,99.7018 542.4,99.8965 571.68,99.1616"/>
    <polyline points="571.68,104.8391 542.4,105.5684 513.6,105.3649 427.2,101.9974 384.0,100.9597 350.4,100.8984 273.6,101.6485 220.8,101.1666 182.4,99.8027 115.2,95.4663 81.6,93.8672 48.0,93.3126 4.32,93.8803"/>
    <polyline points="4.32,99.2374 48.0,98.766 81.6,99.3306 115.2,100.8798 182.4,105.0743 220.8,106.4351 273.6,106.9944 350.4,106.4246 384.0,106.5486 422.4,107.4593 513.6,111.0015 542.4,111.2164 571.68,110.4971"/>
    <polyline points="571.68,116.1333 542.4,116.8382 518.4,116.7114 494.4,115.9941 422.4,113.0565 379.2,112.0516 350.4,111.9304 278.4,112.3338 220.8,111.6824 182.4,110.3287 115.2,106.3012 81.6,104.8144 48.0,104.2465 4.32,104.62"/>
    <polyline points="4.32,110.0299 48.0,109.7552 86.4,110.4723 115.2,111.7321 182.4,115.5684 220.8,116.9111 278.4,117.6542 350.4,117.4157 379.2,117.5857 422.4,118.6246 494.4,121.5666 518.4,122.2906 542.4,122.432 571.68,121.7457"/>
    <polyline points="571.68,127.3325 542.4,127.9959 518.4,127.838 422.4,124.1622 379.2,123.0952 278.4,122.9602 225.6,122.2267 187.2,121.0133 115.2,117.1738 86.4,115.9921 48.0,115.293 4.32,115.4686"/>
    <polyline points="4.32,120.9373 48.0,120.8604 86.4,121.5338 115.2,122.6278 187.2,126.2232 225.6,127.4319 278.4,128.2541 355.2,128.3458 388.8,128.7467 422.4,129.6683 499.2,132.7946 523.2,133.438 547.2,133.4867 571.68,132.8923"/>
    <polyline points="571.68,138.4241 542.4,139.0299 518.4,138.8327 398.4,134.4286 360.0,133.8134 278.4,133.5384 235.2,132.8319 192.0,131.6149 120.0,128.2984 86.4,127.0978 48.0,126.4577 4.32,126.4367"/>
    <polyline points="4.32,131.9671 52.8,132.1258 91.2,132.8067 196.8,136.9773 254.4,138.4382 288.0,138.9103 364.8,139.2805 398.4,139.8711 518.4,144.2791 547.2,144.4669 571.68,143.9271"/>
    <polyline points="571.68,149.4009 547.2,149.9091 518.4,149.6914 427.2,146.1626 393.6,145.1716 259.2,143.7667 201.6,142.3179 96.0,138.5172 57.6,137.8326 4.32,137.5285"/>
    <polyline points="4.32,143.1205 62.4,143.5694 100.8,144.2207 211.2,147.7877 268.8,149.1968 393.6,150.5602 427.2,151.5402 499.2,154.4764 523.2,155.1707 547.2,155.3196 571.68,154.8457"/>
    <polyline points="571.68,160.2618 547.2,160.6991 523.2,160.5213 499.2,159.8127 432.0,157.0575 393.6,155.9241 273.6,154.545 110.4,150.0081 4.32,148.7423"/>
    <polyline points="4.32,154.3926 115.2,155.6572 273.6,159.8122 393.6,161.2648 432.0,162.3727 499.2,165.1177 523.2,165.841 547.2,166.0489 571.68,165.6499"/>
    <polyline points="571.68,171.0111 547.2,171.3702 523.2,171.1316 403.2,166.8011 278.4,165.1858 148.8,161.7475 4.32,160.07"/>
    <polyline points="4.32,165.7724 43.2,166.3612 163.2,167.378 283.2,170.5731 374.4,171.5687 408.0,172.2076 523.2,176.3951 547.2,176.6651 571.68,176.347"/>
    <polyline points="571.68,181.6592 547.2,181.9356 523.2,181.6341 412.8,177.5923 379.2,176.937 283.2,175.8797 172.8,172.8684 134.4,172.4439 52.8,172.249 4.32,171.4978"/>
    <polyline points="4.32,177.2434 57.6,178.0911 144.0,177.9561 182.4,178.3395 288.0,181.2977 379.2,182.2266 412.8,182.8336 528.0,186.9593 552.0,187.185 571.68,186.9499"/>
    <polyline points="571.68,192.2212 552.0,192.4223 528.0,192.1628 417.6,188.1759 384.0,187.5619 288.0,186.6361 182.4,183.6471 144.0,183.4238 57.6,183.9108 4.32,183.0067"/>
    <polyline points="4.32,188.7847 33.6,189.4923 62.4,189.7484 148.8,188.8775 187.2,189.0453 292.8,192.0851 384.0,192.8281 417.6,193.3831 528.0,197.3507 552.0,197.6432 571.68,197.4758"/>
    <polyline points="571.68,202.7163 547.2,202.8276 523.2,202.4036 446.4,199.4125 417.6,198.5811 388.8,198.1329 292.8,197.4596 211.2,194.897 187.2,194.3897 148.8,194.359 62.4,195.5765 33.6,195.3297 4.32,194.5743"/>
    <polyline points="4.32,200.3723 33.6,201.1712 62.4,201.4075 153.6,199.7956 192.0,199.8235 288.0,202.7581 316.8,203.1641 412.8,203.6813 446.4,204.5692 523.2,207.5658 547.2,208.018 571.68,207.9455"/>
    <polyline points="571.68,213.1662 547.2,213.2018 523.2,212.7229 451.2,209.8895 422.4,209.0583 388.8,208.6341 297.6,208.35 192.0,205.2144 153.6,205.2973 91.2,206.8386 62.4,207.2385 33.6,207.0133 4.32,206.1756"/>
    <polyline points="4.32,211.981 33.6,212.853 62.4,213.0665 91.2,212.6008 153.6,210.8202 192.0,210.6351 216.0,211.161 268.8,213.1073 297.6,213.784 326.4,214.0094 393.6,213.9055 422.4,214.2402 451.2,215.0383 528.0,218.0138 552.0,218.4256 571.68,218.3814"/>
    <polyline points="571.68,223.5938 552.0,223.6115 528.0,223.1745 456.0,220.3625 427.2,219.518 393.6,219.1538 326.4,219.4267 297.6,219.2399 268.8,218.5701 216.0,216.5966 192.0,216.086 153.6,216.364 91.2,218.3625 67.2,218.8469 38.4,218.7749 4.32,217.7853"/>
    <polyline points="4.32,223.5859 38.4,224.6018 67.2,224.6549 91.2,224.1218 153.6,221.9284 192.0,221.5671 216.0,222.0638 268.8,224.0596 297.6,224.7184 326.4,224.8614 393.6,224.4102 427.2,224.7018 456.0,225.5174 528.0,228.3396 552.0,228.7996 571.68,228.8061"/>
    <polyline points="571.68,234.0208 552.0,233.9924 528.0,233.5119 456.0,230.681 427.2,229.8946 393.6,229.6768 326.4,230.3144 297.6,230.2196 268.8,229.5759 216.0,227.5625 192.0,227.0783 153.6,227.5124 91.2,229.8769 67.2,230.4532 38.4,230.4176 4.32,229.3802"/>
    <polyline points="4.32,235.1658 38.4,236.2205 67.2,236.2401 91.2,235.6264 153.6,233.1151 192.0,232.6186 216.0,233.0918 268.8,235.1183 297.6,235.7432 331.2,235.7466 393.6,234.9554 427.2,235.0984 456.0,235.8557 528.0,238.6936 552.0,239.1922 571.68,239.24"/>
    <polyline points="571.68,244.4655 552.0,244.4009 528.0,243.8868 456.0,241.0434 432.0,240.3931 398.4,240.2108 331.2,241.2242 297.6,241.2886 273.6,240.8293 216.0,238.6505 192.0,238.1866 158.4,238.5879 91.2,241.369 67.2,242.0144 38.4,242.0089 4.32,240.9412"/>
    <polyline points="4.32,246.7052 38.4,247.7822 67.2,247.7754 91.2,247.104 158.4,244.2168 192.0,243.7804 216.0,244.2365 273.6,246.4184 297.6,246.8546 331.2,246.7189 398.4,245.5034 432.0,245.6164 456.0,246.245 528.0,249.0925 552.0,249.6197 571.68,249.6987"/>
    <polyline points="571.68,254.9403 552.0,254.8494 528.0,254.3112 460.8,251.6332 432.0,250.8539 398.4,250.8099 331.2,252.2296 297.6,252.4393 273.6,252.0282 216.0,249.8471 192.0,249.3974 158.4,249.8611 91.2,252.831 67.2,253.5231 38.4,253.5402 4.32,252.4573"/>
    <polyline points="4.32,258.1978 38.4,259.2839 67.2,259.2582 91.2,258.5502 158.4,255.5184 192.0,255.0343 216.0,255.4792 268.8,257.5196 297.6,258.0404 331.2,257.7548 398.4,256.1296 432.0,256.105 460.8,256.8615 532.8,259.6841 571.68,260.1905"/>
    <polyline points="571.68,265.4484 532.8,264.928 456.0,261.9335 422.4,261.2905 393.6,261.5492 331.2,263.2918 297.6,263.6549 268.8,263.1651 211.2,260.9907 182.4,260.6983 153.6,261.3525 96.0,264.061 67.2,264.9824 38.4,265.0151 4.32,263.928"/>
    <polyline points="4.32,269.6502 38.4,270.7366 67.2,270.698 96.0,269.7657 153.6,267.0294 182.4,266.365 211.2,266.6526 268.8,268.8213 297.6,269.279 331.2,268.8377 393.6,266.9021 422.4,266.5777 456.0,267.1854 532.8,270.1805 571.68,270.7126"/>
    <polyline points="571.68,275.9804 532.8,275.4379 456.0,272.4427 422.4,271.8702 393.6,272.2599 336.0,274.2439 307.2,274.8628 273.6,274.6108 216.0,272.458 187.2,272.0158 153.6,272.7097 96.0,275.4677 67.2,276.409 38.4,276.4528 4.32,275.3677"/>
    <polyline points="4.32,281.0834 38.4,282.167 67.2,282.1183 96.0,281.1686 153.6,278.3906 187.2,277.6885 216.0,278.1276 273.6,280.2708 307.2,280.4749 336.0,279.7813 393.6,277.6181 422.4,277.1628 456.0,277.7001 532.8,280.6952 571.68,281.2482"/>
    <polyline points="571.68,286.5118 532.8,285.9468 456.0,282.9527 427.2,282.4483 393.6,282.974 331.2,285.492 302.4,286.1419 273.6,285.9326 216.0,283.7991 187.2,283.3626 153.6,284.0715 96.0,286.8664 67.2,287.8231 38.4,287.8759 4.32,286.7936"/>
    <polyline points="4.32,292.4935 38.4,293.5748 67.2,293.5192 96.0,292.558 153.6,289.7524 187.2,289.039 216.0,289.4737 273.6,291.5974 302.4,291.7673 331.2,291.0451 393.6,288.3261 427.2,287.7227 456.0,288.1968 532.8,291.1883 571.68,291.7684"/>
    <polyline points="571.68,297.0158 537.6,296.5512 456.0,293.4302 427.2,292.9887 393.6,293.6735 331.2,296.5997 302.4,297.3958 273.6,297.2658 216.0,295.1523 187.2,294.7182 153.6,295.4328 96.0,298.2408 67.2,299.2031 38.4,299.2595 4.32,298.1788"/>
    <polyline points="4.32,303.8458 38.4,304.9265 67.2,304.8716 96.0,303.9124 153.6,301.112 187.2,300.4004 216.0,300.8353 273.6,302.9383 302.4,303.0275 331.2,302.156 393.6,299.0159 427.2,298.2456 456.0,298.6515 537.6,301.7665 571.68,302.2533"/>
    <polyline points="571.68,307.4805 532.8,306.8278 456.0,303.8607 427.2,303.4936 393.6,304.3537 331.2,307.7142 302.4,308.6625 273.6,308.6148 216.0,306.5224 187.2,306.0852 153.6,306.7893 96.0,309.5706 67.2,310.522 38.4,310.5726 4.32,309.4913"/>
    <polyline points="4.32,315.1129 38.4,316.1953 67.2,316.152 96.0,315.2135 153.6,312.4637 187.2,311.7721 216.0,312.2134 268.8,314.1906 297.6,314.3762 331.2,313.2745 398.4,309.4736 427.2,308.7333 456.0,309.0583 532.8,312.0099 571.68,312.698"/>
    <polyline points="571.68,317.9071 537.6,317.3217 460.8,314.3889 432.0,313.9359 398.4,314.7884 331.2,318.8369 297.6,320.0267 268.8,319.877 216.0,317.9074 187.2,317.4603 153.6,318.1342 96.0,320.8394 67.2,321.7595 38.4,321.7927 4.32,320.7085"/>
    <polyline points="4.32,326.2764 38.4,327.3631 67.2,327.3433 96.0,326.447 153.6,323.7996 187.2,323.1488 216.0,323.6035 268.8,325.5653 297.6,325.6794 331.2,324.4016 398.4,320.1014 432.0,319.1531 456.0,319.4247 532.8,322.3321 571.68,323.1093"/>
    <polyline points="571.68,328.3068 532.8,327.476 460.8,324.7311 432.0,324.3673 417.6,324.6259 398.4,325.4147 331.2,329.9683 297.6,331.3335 268.8,331.2544 216.0,329.3006 187.2,328.8364 153.6,329.4589 96.0,332.0351 67.2,332.9021 38.4,332.9056 4.32,331.8157"/>
    <polyline points="4.32,337.3258 38.4,338.4193 67.2,338.4353 96.0,337.603 153.6,335.1108 187.2,334.522 216.0,334.9973 268.8,336.9432 297.6,336.988 331.2,335.5371 398.4,330.73 417.6,329.8778 432.0,329.5809 460.8,329.8955 532.8,332.6118 571.68,333.502"/>
    <polyline points="571.68,338.6976 537.6,337.9025 460.8,335.0595 436.8,334.7569 422.4,334.9856 403.2,335.7755 331.2,341.1079 297.6,342.6419 268.8,342.6301 216.0,340.6923 187.2,340.2041 153.6,340.7544 96.0,343.1499 67.2,343.9425 38.4,343.9042 4.32,342.8063"/>
    <polyline points="4.32,348.2576 38.4,349.3603 67.2,349.4236 96.0,348.6757 153.6,346.3885 187.2,345.8814 216.0,346.384 268.8,348.3138 292.8,348.3881 307.2,347.9969 326.4,347.001 403.2,341.0847 422.4,340.233 436.8,339.967 465.6,340.3649 537.6,343.0363 571.68,343.8964"/>
    <polyline points="571.68,349.1013 542.4,348.3346 465.6,345.5318 436.8,345.1856 422.4,345.4894 403.2,346.4028 326.4,352.5886 307.2,353.6296 292.8,354.0447 264.0,353.881 216.0,352.071 187.2,351.5525 153.6,352.012 96.0,354.1801 67.2,354.879 38.4,354.7881 4.32,353.6802"/>
    <polyline points="4.32,359.0751 38.4,360.1887 67.2,360.3093 96.0,359.6634 153.6,357.6243 187.2,357.2161 216.0,357.7517 264.0,359.5562 292.8,359.6971 307.2,359.2598 326.4,358.1769 403.2,351.7324 422.4,350.7578 436.8,350.4157 465.6,350.7082 571.68,354.3153"/>
    <polyline points="571.68,359.5414 470.4,356.0362 441.6,355.6126 422.4,356.0409 403.2,357.0756 331.2,363.407 312.0,364.6579 292.8,365.344 264.0,365.2237 216.0,363.4247 187.2,362.8708 153.6,363.2242 96.0,365.1261 67.2,365.7154 38.4,365.563 4.32,364.4434"/>
    <polyline points="4.32,369.7869 38.4,370.9128 67.2,371.0984 96.0,370.5686 153.6,368.8114 187.2,368.5156 216.0,369.0886 264.0,370.8821 292.8,370.9843 312.0,370.2731 331.2,368.9847 403.2,362.4348 422.4,361.3415 441.6,360.8642 470.4,361.2348 571.68,364.7822"/>
    <polyline points="571.68,370.0405 475.2,366.592 441.6,366.1364 427.2,366.4698 408.0,367.4714 388.8,369.0077 331.2,374.5631 312.0,375.8843 292.8,376.617 264.0,376.5302 211.2,374.5946 182.4,374.1234 153.6,374.385 96.0,375.9919 67.2,376.4598 38.4,376.2395 4.32,375.1072"/>
    <line x1="4.32" x2="23.0707" y1="380.4066" y2="381.12"/>
    <polyline points="107.1845,381.12 148.8,380.0357 177.6,379.7266 206.4,380.1034 235.4601,381.12"/>
    <polyline points="318.0693,381.12 340.8,379.2902 398.4,373.5944 417.6,372.2505 436.8,371.5137 456.0,371.4202 475.2,371.8247 571.68,375.3188"/>
    <polyline points="571.68,380.6194 504.0,377.9319 451.2,376.6887 432.0,376.9801 417.6,377.6305 398.4,379.0257 376.7375,381.12"/>
  </g>
  <g fill="none" id="layer3" inkscape:groupmode="layer" inkscape:label="3" stroke="#000000" stroke-width="1.5118" style="display:inline">
    <polyline points="479.7199,2.88 518.4,3.4731 557.0095,2.88"/>
    <polyline points="571.68,8.0965 537.6,9.0311 504.0,9.0863 360.0,5.7169 321.6,5.5136 230.4,5.7112 201.6,5.4633 172.8,4.715 124.6399,2.88"/>
    <polyline points="4.32,7.9779 48.0,7.1888 81.6,7.2879 110.4,7.981 172.8,10.3979 201.6,11.1705 230.4,11.4258 321.6,11.2302 360.0,11.4346 508.8,14.8571 537.6,14.7396 571.68,13.7825"/>
    <polyline points="571.68,19.4716 537.6,20.4514 508.8,20.5779 360.0,17.1536 321.6,16.9463 230.4,17.137 201.6,16.874 172.8,16.0771 110.4,13.5613 76.8,12.7518 43.2,12.7267 4.32,13.4571"/>
    <polyline points="4.32,18.9315 43.2,18.2152 76.8,18.2757 105.6,18.9718 172.8,21.7509 201.6,22.5715 230.4,22.8427 321.6,22.6609 360.0,22.8734 504.0,26.2508 537.6,26.1668 571.68,25.1643"/>
    <polyline points="571.68,30.8604 537.6,31.8854 504.0,31.9784 360.0,28.5932 321.6,28.3728 230.4,28.541 201.6,28.2611 172.8,27.4174 105.6,24.5372 76.8,23.7969 43.2,23.7006 4.32,24.4004"/>
    <polyline points="4.32,29.8641 43.2,29.1832 76.8,29.3156 105.6,30.0988 172.8,33.0747 201.6,33.9406 230.4,34.2296 321.6,34.0805 360.0,34.3115 504.0,37.7077 537.6,37.6061 571.68,36.5591"/>
    <polyline points="571.68,42.2589 537.6,43.3271 504.0,43.4365 360.0,40.0267 321.6,39.7822 230.4,39.9065 201.6,39.6078 172.8,38.721 105.6,35.6562 76.8,34.8322 43.2,34.6637 4.32,35.3228"/>
    <polyline points="4.32,40.7773 43.2,40.1428 72.0,40.2637 105.6,41.2095 172.8,44.3546 201.6,45.2607 230.4,45.5696 321.6,45.476 360.0,45.7369 504.0,49.1628 537.6,49.0465 571.68,47.9582"/>
    <polyline points="571.68,53.655 537.6,54.7616 508.8,54.9327 360.0,51.4398 211.2,51.0663 177.6,50.1676 110.4,46.9606 81.6,45.9684 48.0,45.6031 4.32,46.2287"/>
    <polyline points="4.32,51.6782 48.0,51.0876 81.6,51.4875 110.4,52.5109 177.6,55.774 211.2,56.6887 355.2,57.0686 508.8,60.6452 537.6,60.4699 571.68,59.347"/>
    <polyline points="571.68,65.0318 537.6,66.1684 508.8,66.3464 355.2,62.7474 211.2,62.2911 177.6,61.3626 110.4,58.0565 81.6,57.0069 48.0,56.5745 4.32,57.1273"/>
    <polyline points="4.32,62.5777 48.0,62.0653 81.6,62.5274 110.4,63.5977 177.6,66.9322 211.2,67.8719 355.2,68.4117 508.8,72.0333 537.6,71.8542 571.68,70.7069"/>
    <polyline points="571.68,76.3697 537.6,77.5242 508.8,77.7026 355.2,74.0593 211.2,73.4297 177.6,72.4817 110.4,69.1349 81.6,68.05 48.0,67.5615 4.32,68.0308"/>
    <polyline points="4.32,73.4886 48.0,73.0643 81.6,73.5756 110.4,74.6683 177.6,78.0103 211.2,78.9635 355.2,79.6879 508.8,83.3513 537.6,83.1756 571.68,82.0179"/>
    <polyline points="571.68,87.6489 537.6,88.8056 508.8,88.9765 355.2,85.2956 211.2,84.4722 177.6,83.5173 110.4,80.1985 76.8,78.977 43.2,78.5677 4.32,78.9527"/>
    <polyline points="4.32,84.4247 43.2,84.0843 72.0,84.3993 100.8,85.3099 168.0,88.5949 201.6,89.7649 225.6,90.1287 355.2,90.8804 499.2,94.455 532.8,94.4964 571.68,93.2606"/>
    <polyline points="571.68,98.8508 532.8,100.0741 499.2,100.0236 355.2,96.4408 201.6,95.2207 168.0,94.0644 100.8,90.8419 72.0,89.9401 43.2,89.6119 4.32,89.9063"/>
    <polyline points="4.32,95.399 43.2,95.1518 72.0,95.4896 100.8,96.3753 168.0,99.5139 201.6,100.6509 355.2,101.9754 499.2,105.5608 532.8,105.6226 571.68,104.4177"/>
    <polyline points="571.68,109.9597 532.8,111.1402 499.2,111.0648 355.2,107.4832 201.6,106.0559 168.0,104.9437 100.8,101.9105 72.0,101.0485 43.2,100.705 4.32,100.9043"/>
    <polyline points="4.32,106.4233 43.2,106.2724 72.0,106.6177 100.8,107.4483 168.0,110.3545 201.6,111.436 355.2,112.9633 499.2,116.5342 532.8,116.6254 571.68,115.4755"/>
    <polyline points="571.68,120.964 532.8,122.0771 499.2,121.9679 355.2,118.4154 201.6,116.7921 168.0,115.7469 100.8,112.9891 72.0,112.1977 43.2,111.8547 4.32,111.9572"/>
    <polyline points="4.32,117.5068 43.2,117.4526 72.0,117.789 105.6,118.693 172.8,121.2936 201.6,122.1253 355.2,123.8392 504.0,127.441 537.6,127.4297 571.68,126.4246"/>
    <polyline points="571.68,131.857 537.6,132.8181 504.0,132.8031 355.2,129.235 201.6,127.4368 76.8,123.4818 43.2,123.0663 4.32,123.0729"/>
    <polyline points="4.32,128.6559 43.2,128.6961 76.8,129.0891 201.6,132.7283 355.2,134.6034 504.0,138.1291 537.6,138.1728 571.68,137.2611"/>
    <polyline points="571.68,142.6373 537.6,143.4944 504.0,143.4196 360.0,140.0296 201.6,138.0015 81.6,134.7892 4.32,134.2562"/>
    <polyline points="4.32,139.8738 52.8,140.0707 91.2,140.569 201.6,143.2585 360.0,145.3438 504.0,148.6757 537.6,148.7838 571.68,147.9864"/>
    <polyline points="571.68,153.3094 537.6,154.0424 508.8,153.9697 360.0,150.6336 216.0,148.7541 86.4,146.0996 4.32,145.5085"/>
    <polyline points="4.32,151.16 100.8,151.8968 225.6,154.1323 360.0,155.9008 508.8,159.165 537.6,159.272 571.68,158.6077"/>
    <polyline points="571.68,163.8831 542.4,164.4401 513.6,164.395 360.0,161.1477 124.8,157.7367 4.32,156.8276"/>
    <polyline points="4.32,162.5107 172.8,163.7374 384.0,166.7519 513.6,169.5403 542.4,169.6277 571.68,169.1374"/>
    <polyline points="571.68,174.3732 542.4,174.7941 513.6,174.6632 388.8,172.0125 172.8,169.0119 4.32,168.208"/>
    <polyline points="4.32,173.9187 52.8,174.3035 182.4,174.3697 283.2,175.9398 398.4,177.3251 513.6,179.7671 542.4,179.9423 571.68,179.5928"/>
    <polyline points="571.68,184.799 547.2,185.065 518.4,184.9238 403.2,182.533 288.0,181.2473 187.2,179.6579 148.8,179.5479 57.6,180.0489 4.32,179.6411"/>
    <polyline points="4.32,185.374 57.6,185.7903 148.8,184.9261 192.0,184.9375 292.8,186.5536 408.0,187.721 518.4,190.0058 547.2,190.1976 571.68,189.9948"/>
    <polyline points="571.68,195.1831 523.2,195.1485 412.8,192.8931 292.8,191.8017 192.0,190.1804 153.6,190.2599 62.4,191.5166 4.32,191.1157"/>
    <polyline points="4.32,196.8646 33.6,197.254 62.4,197.2576 153.6,195.6327 196.8,195.462 292.8,197.0564 417.6,198.0537 528.0,200.2899 571.68,200.367"/>
    <polyline points="571.68,205.5497 523.2,205.3015 417.6,203.1422 297.6,202.3741 196.8,200.7214 158.4,200.9339 62.4,203.0007 33.6,203.0268 4.32,202.6188"/>
    <polyline points="4.32,208.3767 33.6,208.8007 62.4,208.7443 158.4,206.3102 196.8,205.9966 297.6,207.6474 422.4,208.2951 523.2,210.3819 571.68,210.7342"/>
    <polyline points="571.68,215.9234 528.0,215.5547 422.4,213.3905 297.6,212.9344 196.8,211.2898 158.4,211.7003 91.2,213.85 62.4,214.4871 33.6,214.574 4.32,214.1365"/>
    <polyline points="4.32,219.8966 38.4,220.3697 67.2,220.1463 158.4,217.1051 196.8,216.6027 297.6,218.237 427.2,218.5527 528.0,220.6597 571.68,221.1201"/>
    <polyline points="571.68,226.3267 532.8,225.8698 427.2,223.6689 297.6,223.557 196.8,221.9369 158.4,222.5257 67.2,225.874 38.4,226.135 4.32,225.6553"/>
    <polyline points="4.32,231.4112 38.4,231.895 67.2,231.5978 91.2,230.8398 158.4,227.9626 196.8,227.2932 297.6,228.8957 398.4,228.6598 432.0,228.8558 532.8,231.0113 571.68,231.5454"/>
    <polyline points="571.68,236.7779 432.0,234.004 398.4,233.8518 297.6,234.2539 196.8,232.6722 158.4,233.4159 91.2,236.5022 67.2,237.3168 38.4,237.6487 4.32,237.1631"/>
    <polyline points="4.32,242.91 38.4,243.3953 67.2,243.0302 91.2,242.1633 158.4,238.8856 196.8,238.0738 297.6,239.632 398.4,239.0636 432.0,239.173 571.68,242.0254"/>
    <polyline points="571.68,247.2884 432.0,244.3633 398.4,244.2956 302.4,245.0474 196.8,243.4973 158.4,244.3709 91.2,247.8227 67.2,248.7379 38.4,249.1342 4.32,248.6511"/>
    <polyline points="4.32,254.3862 38.4,254.8655 67.2,254.4396 91.2,253.4802 158.4,249.8709 196.8,248.9413 302.4,250.4588 398.4,249.5474 432.0,249.5744 571.68,252.5667"/>
    <polyline points="571.68,257.8595 436.8,254.8483 398.4,254.8174 331.2,255.7206 297.6,255.8787 268.8,255.5877 216.0,254.4851 196.8,254.4036 158.4,255.3838 91.2,259.1357 67.2,260.1357 38.4,260.5895 4.32,260.1153"/>
    <polyline points="4.32,265.839 38.4,266.3071 67.2,265.827 91.2,264.7894 158.4,260.9074 177.6,260.2012 196.8,259.8811 216.0,259.9537 268.8,261.0523 297.6,261.3256 331.2,261.1236 398.4,260.1032 436.8,260.092 571.68,263.1647"/>
    <polyline points="571.68,268.4795 470.4,265.9179 436.8,265.3485 398.4,265.4009 331.2,266.537 297.6,266.783 268.8,266.5278 216.0,265.4339 196.8,265.3697 177.6,265.707 158.4,266.4389 91.2,270.4416 67.2,271.5144 38.4,272.0197 4.32,271.5585"/>
    <polyline points="4.32,277.2756 38.4,277.7295 67.2,277.1996 91.2,276.0929 158.4,271.9746 177.6,271.2182 196.8,270.8644 216.0,270.9204 268.8,272.0091 297.6,272.2462 331.2,271.9562 398.4,270.7053 436.8,270.6121 475.2,271.2839 571.68,273.7995"/>
    <polyline points="571.68,279.1196 480.0,276.6529 436.8,275.8763 398.4,276.0105 331.2,277.3768 297.6,277.7111 268.8,277.4923 216.0,276.4091 196.8,276.3611 177.6,276.731 158.4,277.5116 91.2,281.7437 67.2,282.8838 38.4,283.4379 4.32,282.9913"/>
    <polyline points="4.32,288.7017 38.4,289.141 67.2,288.5637 91.2,287.3918 158.4,283.0517 177.6,282.2481 196.8,281.8627 216.0,281.9029 268.8,282.9802 297.6,283.1799 331.2,282.8 398.4,281.3142 436.8,281.137 489.6,282.1346 571.68,284.4347"/>
    <polyline points="571.68,289.7407 489.6,287.3753 436.8,286.392 398.4,286.6155 331.2,288.2279 297.6,288.656 268.8,288.4768 216.0,287.4062 196.8,287.3735 177.6,287.773 158.4,288.5975 91.2,293.0348 67.2,294.2354 38.4,294.834 4.32,294.4019"/>
    <polyline points="4.32,300.0873 38.4,300.5124 67.2,299.8954 91.2,298.6704 158.4,294.1509 177.6,293.3086 196.8,292.8968 216.0,292.9229 268.8,293.9851 297.6,294.1423 331.2,293.6627 398.4,291.9143 436.8,291.6398 494.4,292.7243 571.68,295.035"/>
    <polyline points="571.68,300.3157 494.4,297.9416 436.8,296.8802 398.4,297.211 331.2,299.1062 297.6,299.6411 273.6,299.5686 220.8,298.5199 196.8,298.4355 177.6,298.8573 158.4,299.7134 91.2,304.2963 67.2,305.5403 38.4,306.1723 4.32,305.7541"/>
    <polyline points="4.32,311.3987 38.4,311.8101 67.2,311.1673 91.2,309.9106 158.4,305.2862 177.6,304.4205 196.8,303.9915 220.8,304.0701 273.6,305.1051 297.6,305.1542 331.2,304.5599 398.4,302.5066 436.8,302.1134 499.2,303.2683 571.68,305.5821"/>
    <polyline points="571.68,310.834 499.2,308.46 436.8,307.3407 398.4,307.8023 331.2,310.0254 297.6,310.683 273.6,310.6591 220.8,309.6402 196.8,309.5664 177.6,309.9997 158.4,310.8698 91.2,315.5112 67.2,316.7737 38.4,317.4228 4.32,317.018"/>
    <polyline points="4.32,322.6094 38.4,323.0078 67.2,322.3574 91.2,321.0966 158.4,316.4647 177.6,315.5954 196.8,315.1612 220.8,315.2313 273.6,316.2316 297.6,316.2284 331.2,315.5037 398.4,313.1 436.8,312.5638 499.2,313.6407 571.68,316.0722"/>
    <polyline points="571.68,321.2978 523.2,319.5035 489.6,318.5827 451.2,317.8563 422.4,317.8804 388.8,318.7158 326.4,321.1548 297.6,321.791 268.8,321.7754 211.2,320.7441 187.2,320.9353 153.6,322.3441 96.0,326.356 67.2,327.9163 38.4,328.563 4.32,328.1708"/>
    <polyline points="4.32,333.7004 38.4,334.0866 67.2,333.4491 96.0,331.9112 153.6,327.957 182.4,326.6888 211.2,326.3798 268.8,327.3896 297.6,327.371 326.4,326.674 393.6,323.8733 422.4,323.1289 451.2,323.0576 489.6,323.7528 528.0,324.8256 571.68,326.5127"/>
    <polyline points="571.68,331.719 499.2,329.1377 456.0,328.3066 427.2,328.3116 398.4,329.0246 331.2,332.0246 297.6,332.9683 268.8,333.0227 211.2,332.0365 182.4,332.3376 153.6,333.5784 96.0,337.4493 67.2,338.9546 38.4,339.5775 4.32,339.197"/>
    <polyline points="4.32,344.6598 38.4,345.0347 67.2,344.4318 96.0,342.9697 153.6,339.2075 182.4,338.0028 211.2,337.7134 268.8,338.6739 297.6,338.5825 331.2,337.562 398.4,334.3508 427.2,333.5624 456.0,333.5076 499.2,334.2979 532.8,335.3051 571.68,336.9192"/>
    <polyline points="571.68,342.1159 532.8,340.4578 504.0,339.5733 460.8,338.7656 432.0,338.7523 398.4,339.6899 336.0,342.891 307.2,343.9966 273.6,344.3725 216.0,343.4469 187.2,343.5742 153.6,344.8433 96.0,348.4716 67.2,349.8804 38.4,350.4579 4.32,350.0883"/>
    <polyline points="4.32,355.4825 38.4,355.8471 67.2,355.3002 96.0,353.9547 153.6,350.4849 187.2,349.2749 216.0,349.1605 273.6,350.0518 307.2,349.6239 336.0,348.446 398.4,345.0441 432.0,344.0158 460.8,343.978 504.0,344.7382 532.8,345.613 571.68,347.3122"/>
    <polyline points="571.68,352.5109 532.8,350.7743 504.0,349.9123 460.8,349.204 432.0,349.2952 398.4,350.4156 331.2,354.2678 302.4,355.4035 273.6,355.7453 216.0,354.8903 187.2,354.9892 153.6,356.1309 96.0,359.4188 67.2,360.6914 38.4,361.2026 4.32,360.843"/>
    <polyline points="4.32,366.1704 38.4,366.5253 67.2,366.0545 96.0,364.8638 153.6,361.7802 187.2,360.7154 216.0,360.6344 273.6,361.4513 302.4,361.0678 331.2,359.8668 403.2,355.5702 436.8,354.5126 465.6,354.4905 508.8,355.2088 537.6,356.1302 571.68,357.7152"/>
    <polyline points="571.68,362.928 537.6,361.3138 508.8,360.4067 465.6,359.7459 436.8,359.8216 403.2,360.9676 331.2,365.4804 297.6,366.8758 268.8,367.1571 216.0,366.3909 187.2,366.4515 153.6,367.4315 96.0,370.29 67.2,371.3904 38.4,371.8162 4.32,371.4658"/>
    <polyline points="4.32,376.7309 38.4,377.0769 67.2,376.7 96.0,375.6977 153.6,373.0833 187.2,372.1958 216.0,372.1574 268.8,372.8876 297.6,372.57 331.2,371.1076 403.2,366.3882 422.4,365.5391 441.6,365.0767 470.4,365.0656 513.6,365.7359 542.4,366.711 571.68,368.1523"/>
    <polyline points="571.68,373.3909 542.4,371.9289 513.6,370.9694 470.4,370.3612 441.6,370.4256 422.4,370.9329 403.2,371.8333 336.0,376.4483 302.4,378.1254 268.8,378.6248 211.2,377.8936 182.4,378.009 148.8,378.9044 95.139,381.12"/>
    <polyline points="349.8455,381.12 408.0,377.0329 427.2,376.1775 446.4,375.7295 470.4,375.6844 513.6,376.2272 542.4,377.1678 571.68,378.6464"/>
    <line x1="483.0586" x2="446.9923" y1="381.12" y2="381.12"/>
  </g>
  <g fill="none" id="layer4" inkscape:groupmode="layer" inkscape:label="4" stroke="#ffffff" stroke-width="1.5118" style="display:inline">
    <polyline points="4.32,3.059 76.8,2.951 192.0,3.9157 288.0,4.2183 331.2,5.0289 422.4,7.6459 475.2,8.2808 504.0,8.3199 523.2,8.022 571.68,6.0918"/>
    <polyline points="571.68,11.8034 523.2,13.7403 504.0,14.0392 475.2,14.0003 422.4,13.3655 331.2,10.7493 288.0,9.9389 192.0,9.6329 76.8,8.6272 4.32,8.7246"/>
    <polyline points="4.32,14.385 76.8,14.3007 192.0,15.355 288.0,15.665 331.2,16.4749 417.6,18.9838 470.4,19.6974 518.4,19.5686 542.4,18.8432 571.68,17.5173"/>
    <polyline points="571.68,23.2338 542.4,24.5666 518.4,25.2949 470.4,25.4247 417.6,24.712 331.2,22.2069 288.0,21.398 192.0,21.0828 76.8,19.9702 4.32,20.0382"/>
    <polyline points="4.32,25.6827 76.8,25.6346 192.0,26.8166 288.0,27.1382 331.2,27.9455 417.6,30.4444 470.4,31.1556 518.4,31.0248 542.4,30.2932 571.68,28.9522"/>
    <polyline points="571.68,34.6716 542.4,36.022 518.4,36.7572 470.4,36.8891 417.6,36.1798 331.2,33.6901 292.8,32.9415 187.2,32.5196 72.0,31.2652 4.32,31.3172"/>
    <polyline points="4.32,36.9407 72.0,36.9129 187.2,38.2611 292.8,38.6939 331.2,39.4394 417.6,41.9168 470.4,42.6232 518.4,42.4903 542.4,41.7514 571.68,40.3907"/>
    <polyline points="571.68,46.1077 542.4,47.4793 518.4,48.2219 465.6,48.3264 417.6,47.6531 331.2,45.1919 292.8,44.4504 187.2,44.0051 72.0,42.5525 4.32,42.5526"/>
    <polyline points="4.32,48.1525 72.0,48.1832 187.2,49.7498 292.8,50.2088 331.2,50.9451 417.6,53.386 465.6,54.0549 518.4,53.9497 542.4,53.2036 571.68,51.8208"/>
    <polyline points="571.68,57.5276 542.4,58.9215 518.4,59.6706 465.6,59.7764 417.6,59.1129 331.2,56.6967 292.8,55.9667 187.2,55.4927 67.2,53.7662 4.32,53.7403"/>
    <polyline points="4.32,59.3161 67.2,59.3734 187.2,61.2316 297.6,61.7845 336.0,62.5656 417.6,64.8307 465.6,65.4877 518.4,65.3817 542.4,64.6303 571.68,63.2261"/>
    <polyline points="571.68,68.9138 542.4,70.3271 518.4,71.08 494.4,71.3116 460.8,71.152 412.8,70.43 336.0,68.3036 297.6,67.5325 187.2,66.9636 67.2,64.9708 4.32,64.8802"/>
    <polyline points="4.32,70.4332 72.0,70.6109 196.8,72.788 297.6,73.2713 336.0,74.031 412.8,76.1218 460.8,76.8337 494.4,76.993 518.4,76.7623 542.4,76.0092 571.68,74.5885"/>
    <polyline points="571.68,80.2478 542.4,81.6736 518.4,82.4256 494.4,82.6548 460.8,82.4957 412.8,81.7951 302.4,79.0665 196.8,78.5038 72.0,76.1934 4.32,75.9756"/>
    <polyline points="4.32,81.5084 72.0,81.7662 192.0,84.1522 302.4,84.777 412.8,87.447 460.8,88.1351 494.4,88.2939 518.4,88.0669 542.4,87.3178 571.68,85.8896"/>
    <polyline points="571.68,91.512 542.4,92.9392 518.4,93.6835 494.4,93.9076 456.0,93.7112 412.8,93.0748 302.4,90.4693 192.0,89.8332 72.0,87.3296 4.32,87.0323"/>
    <polyline points="4.32,92.5485 72.0,92.884 192.0,95.4942 307.2,96.2123 412.8,98.6756 456.0,99.2975 494.4,99.4931 518.4,99.2728 542.4,98.5354 571.68,97.113"/>
    <polyline points="571.68,102.6911 542.4,104.1045 518.4,104.8328 494.4,105.0483 456.0,104.8534 412.8,104.2473 307.2,101.8588 192.0,101.1331 72.0,98.4299 4.32,98.0582"/>
    <polyline points="4.32,103.5624 72.0,103.9679 192.0,106.7478 307.2,107.4795 412.8,109.7878 456.0,110.3769 494.4,110.5711 518.4,110.3613 542.4,109.6447 571.68,108.2449"/>
    <polyline points="571.68,113.7734 542.4,115.1546 518.4,115.8569 494.4,116.0601 456.0,115.8666 412.8,115.2953 302.4,113.0071 182.4,112.1889 62.4,109.345 4.32,109.0624"/>
    <polyline points="4.32,114.5595 62.4,114.8649 182.4,117.7487 302.4,118.5734 451.2,121.2816 494.4,121.5139 518.4,121.3184 542.4,120.633 571.68,119.2757"/>
    <polyline points="571.68,124.7514 542.4,126.0794 518.4,126.745 494.4,126.9318 451.2,126.7011 302.4,124.1093 187.2,123.3605 72.0,120.5407 4.32,120.0551"/>
    <polyline points="4.32,125.5504 72.0,126.054 192.0,128.9358 302.4,129.6141 451.2,132.0844 494.4,132.3134 518.4,132.1365 542.4,131.4934 571.68,130.2004"/>
    <polyline points="571.68,135.6228 542.4,136.8751 518.4,137.4929 451.2,137.4317 307.2,135.143 192.0,134.4105 72.0,131.5633 4.32,131.0468"/>
    <polyline points="4.32,136.5454 72.0,137.0696 192.0,139.8559 307.2,140.5816 451.2,142.7433 518.4,142.8147 542.4,142.225 571.68,141.0192"/>
    <polyline points="571.68,146.3905 542.4,147.5442 518.4,148.103 451.2,148.0204 307.2,145.9888 192.0,145.2723 72.0,142.5738 4.32,142.0477"/>
    <polyline points="4.32,147.5547 72.0,148.0769 192.0,150.6604 307.2,151.3651 451.2,153.2644 518.4,153.3592 542.4,152.8337 571.68,151.7376"/>
    <polyline points="571.68,157.0623 542.4,158.0954 518.4,158.585 451.2,158.4772 307.2,156.7118 192.0,156.0214 72.0,153.58 4.32,153.0677"/>
    <polyline points="4.32,158.5877 72.0,159.0842 192.0,161.3567 307.2,162.0304 451.2,163.661 518.4,163.7826 571.68,162.3662"/>
    <polyline points="571.68,167.6513 518.4,168.9548 456.0,168.849 307.2,167.3226 192.0,166.6682 72.0,164.5905 4.32,164.1157"/>
    <polyline points="4.32,169.6526 72.0,170.0998 192.0,171.9578 307.2,172.5909 460.8,174.01 518.4,174.1043 571.68,172.92"/>
    <polyline points="571.68,178.1748 523.2,179.1927 465.6,179.1484 307.2,177.8376 196.8,177.2693 72.0,175.6133 4.32,175.1993"/>
    <polyline points="4.32,180.7565 72.0,181.1318 196.8,182.5181 484.8,184.3404 528.0,184.2682 571.68,183.4184"/>
    <polyline points="571.68,188.6536 528.0,189.3852 489.6,189.4446 196.8,187.7527 4.32,186.3247"/>
    <polyline points="4.32,191.9044 494.4,194.5376 532.8,194.4565 571.68,193.8832"/>
    <polyline points="571.68,199.1104 499.2,199.6238 4.32,197.4961"/>
    <polyline points="4.32,203.0999 196.8,203.401 504.0,204.7087 571.68,204.3379"/>
    <polyline points="571.68,209.5689 508.8,209.7985 192.0,208.6008 4.32,208.7159"/>
    <polyline points="4.32,214.3441 62.4,214.4243 196.8,213.8187 513.6,214.8993 571.68,214.8059"/>
    <polyline points="571.68,220.0516 201.6,219.0324 62.4,220.0205 4.32,219.9842"/>
    <polyline points="4.32,225.636 67.2,225.5931 158.4,224.4878 201.6,224.2476 571.68,225.3083"/>
    <polyline points="571.68,230.5779 432.0,229.8724 201.6,229.472 158.4,229.7989 67.2,231.1989 4.32,231.2989"/>
    <polyline points="4.32,236.9723 67.2,236.8144 158.4,235.1208 201.6,234.7077 441.6,235.0438 571.68,235.8619"/>
    <polyline points="571.68,241.1614 446.4,240.22 206.4,239.943 163.2,240.3674 62.4,242.5041 4.32,242.6555"/>
    <polyline points="4.32,248.3473 62.4,248.1477 163.2,245.7005 206.4,245.2008 302.4,245.4767 446.4,245.4 513.6,245.7567 571.68,246.4768"/>
    <polyline points="571.68,251.8078 518.4,251.0123 451.2,250.6166 302.4,250.7331 206.4,250.4725 163.2,251.0464 62.4,253.799 4.32,254.0469"/>
    <polyline points="4.32,259.7529 62.4,259.4568 163.2,256.4041 206.4,255.7575 302.4,256.003 456.0,255.8531 518.4,256.2444 571.68,257.1532"/>
    <polyline points="571.68,262.5111 518.4,261.4922 456.0,261.0876 302.4,261.2848 206.4,261.0542 163.2,261.7723 62.4,265.12 33.6,265.4881 4.32,265.4639"/>
    <polyline points="4.32,271.1784 33.6,271.1936 62.4,270.787 163.2,267.1485 206.4,266.3598 297.6,266.576 460.8,266.3538 518.4,266.7522 571.68,267.8784"/>
    <polyline points="571.68,273.251 518.4,272.0189 460.8,271.6076 297.6,271.8732 206.4,271.6706 163.2,272.5292 62.4,276.4559 33.6,276.9008 4.32,276.8947"/>
    <polyline points="4.32,282.6108 33.6,282.6078 62.4,282.1248 91.2,281.1208 163.2,277.9115 206.4,276.9834 297.6,277.1721 465.6,276.8826 523.2,277.3626 571.68,278.6234"/>
    <polyline points="571.68,283.9895 523.2,282.6295 470.4,282.1552 412.8,282.0479 297.6,282.4756 206.4,282.3028 163.2,283.2989 91.2,286.7191 62.4,287.791 33.6,288.3114 4.32,288.3238"/>
    <polyline points="4.32,294.0305 33.6,294.0082 62.4,293.4518 91.2,292.3153 163.2,288.6956 206.4,287.6343 297.6,287.7878 412.8,287.3045 470.4,287.3994 523.2,287.8877 571.68,289.3442"/>
    <polyline points="571.68,294.6835 523.2,293.1347 475.2,292.6579 412.8,292.5584 297.6,293.1122 206.4,292.983 163.2,294.1053 91.2,297.9085 62.4,299.1046 33.6,299.695 4.32,299.7278"/>
    <polyline points="4.32,305.4129 33.6,305.3686 62.4,304.7468 91.2,303.4973 163.2,299.531 206.4,298.353 297.6,298.452 412.8,297.81 475.2,297.8852 523.2,298.3692 571.68,300.0049"/>
    <polyline points="571.68,305.3066 528.0,303.7015 480.0,303.125 412.8,303.0605 297.6,303.8098 206.4,303.7476 163.2,304.9752 91.2,309.0805 62.4,310.3761 33.6,311.0263 4.32,311.0828"/>
    <polyline points="4.32,316.735 33.6,316.6651 62.4,315.9899 91.2,314.6566 163.2,310.4396 187.2,309.5416 206.4,309.1697 297.6,309.1876 412.8,308.3116 475.2,308.3168 523.2,308.7998 571.68,310.5879"/>
    <polyline points="571.68,315.8488 523.2,313.9977 475.2,313.5239 412.8,313.5654 297.6,314.5873 206.4,314.6212 187.2,315.0063 163.2,315.9258 91.2,320.2243 62.4,321.5863 33.6,322.2826 4.32,322.3669"/>
    <polyline points="4.32,327.9764 33.6,327.8764 62.4,327.1631 91.2,325.7824 163.2,321.4344 187.2,320.4998 206.4,320.1036 297.6,320.0102 412.8,318.824 475.2,318.728 523.2,319.1861 547.2,319.9393 571.68,321.09"/>
    <polyline points="571.68,326.313 547.2,325.1306 523.2,324.3675 470.4,323.9225 412.8,324.0901 297.6,325.4572 206.4,325.6178 187.2,326.0229 163.2,326.9659 91.2,331.3295 62.4,332.7187 33.6,333.4447 4.32,333.5614"/>
    <polyline points="4.32,339.1202 33.6,338.9855 62.4,338.2515 91.2,336.8645 163.2,332.5203 187.2,331.5759 206.4,331.1641 297.6,330.9288 412.8,329.3663 470.4,329.1328 523.2,329.5445 547.2,330.3118 571.68,331.5195"/>
    <polyline points="571.68,336.7119 547.2,335.4858 523.2,334.7202 470.4,334.3496 412.8,334.6553 297.6,336.4251 206.4,336.7424 163.2,338.0973 91.2,342.3863 62.4,343.7601 33.6,344.4976 4.32,344.6513"/>
    <polyline points="4.32,350.1536 33.6,349.9798 62.4,349.2436 91.2,347.8939 163.2,343.696 206.4,342.352 297.6,341.9461 412.8,339.9599 470.4,339.5761 523.2,339.8979 547.2,340.6556 571.68,341.8927"/>
    <polyline points="571.68,347.065 547.2,345.8244 523.2,345.0808 465.6,344.8272 412.8,345.2827 297.6,347.4912 206.4,347.992 163.2,349.3156 91.2,353.3866 62.4,354.7011 33.6,355.4313 4.32,355.6262"/>
    <polyline points="4.32,361.0686 33.6,360.8517 62.4,360.1322 91.2,358.8636 163.2,354.9546 206.4,353.6608 297.6,353.0596 412.8,350.6262 465.6,350.089 523.2,350.2726 547.2,350.9955 571.68,352.2318"/>
    <polyline points="571.68,357.3964 542.4,355.9915 513.6,355.339 465.6,355.3706 422.4,355.8222 302.4,358.5742 192.0,359.641 158.4,360.8211 67.2,365.3669 38.4,366.1607 4.32,366.4807"/>
    <polyline points="4.32,371.8624 38.4,371.5186 67.2,370.7528 153.6,366.6905 187.2,365.4792 216.0,364.9538 302.4,364.1782 427.2,361.1123 470.4,360.6441 513.6,360.5732 542.4,361.1834 571.68,362.5619"/>
    <polyline points="571.68,367.7318 547.2,366.5564 518.4,365.8715 484.8,365.8634 432.0,366.4197 302.4,369.8018 187.2,371.213 153.6,372.3498 67.2,376.1137 38.4,376.8463 4.32,377.2143"/>
    <polyline points="77.3067,381.12 182.4,377.0859 302.4,375.4432 436.8,371.7466 489.6,371.1535 518.4,371.1404 547.2,371.7702 571.68,372.9092"/>
    <polyline points="571.68,378.0974 552.0,377.1732 528.0,376.5397 504.0,376.41 470.4,376.6979 412.8,377.7286 301.5334,381.12"/>
  </g>
  <g fill="none" id="layer5" inkscape:groupmode="layer" inkscape:label="5" stroke="#000000" stroke-width="1.8898" style="display:inline">
    <polygon points="0.5,383.5 0.5,0.5 575.5,0.5 575.5,383.5"/>
    <polygon points="1.5,382.5 1.5,1.5 574.5,1.5 574.5,382.5"/>
    <polygon points="573.5,2.5 573.5,381.5 2.5,381.5 2.5,2.5"/>
    <polygon points="3.5,380.5 3.5,3.5 572.5,3.5 572.5,380.5"/>
    <polygon points="4.5,4.5 571.5,4.5 571.5,379.5 4.5,379.5"/>
  </g>
</svg>
