<svg height="384px" viewBox="0 0 576 384" width="576px" xmlns="http://www.w3.org/2000/svg" xmlns:inkscape="http://www.inkscape.org/namespaces/inkscape">
<g fill="none" id="1" stroke="black" stroke-width="1.5px">
<path d="M179.95438,146.11024 L184.55649,148.06488 L189.1586,150.01952 L193.76071,151.97415 L198.36282,153.92879 L202.96492,155.88342 L207.56703,157.83804 L212.16914,159.79268 L216.77126,161.74731 L221.37337,163.70195 L225.97548,165.65659 L230.57758,167.61122 L235.17969,169.56586 L239.7818,171.5205 L244.38391,173.47513 L248.98602,175.42976 L253.58812,177.38438 L258.19025,179.33902 L262.79233,181.29366 L267.39444,183.24829 L271.99655,185.20293 L276.59866,187.15756 L281.20078,189.1122 L285.8029,191.06683 L290.405,193.02147 L295.0071,194.9761 L299.60922,196.93073 L304.21133,198.88536 L308.81342,200.84 L313.41553,202.79463 L318.01764,204.74927 L322.61975,206.7039 L327.22186,208.65854 L331.82397,210.61317 L336.4261,212.56781 L341.0282,214.52245 L345.6303,216.47707 L350.23242,218.4317 L354.83453,220.38634 L359.4366,222.34097 L364.03873,224.29561 L368.64084,226.25024 L373.24295,228.20488 L377.84506,230.15952 L382.44717,232.11415 L387.0493,234.06879 L391.6514,236.0234 L396.2535,237.97804 L400.85562,239.93268 L405.4577,241.88731 L410.0598,243.84195 L414.66193,245.79659 L419.26404,247.75122 L423.86615,249.70586 L428.46826,251.66049 L433.07037,253.61513 L437.6725,255.56975 L442.2746,257.52438 L446.8767,259.47903 L451.4788,261.43365 L456.0809,263.3883 L460.683,265.34293 L465.28513,267.29755 L469.88724,269.2522 L474.48935,271.20682 L479.09146,273.16147 L483.69357,275.1161 L488.2957,277.07074 L492.8978,279.02536 L497.49988,280.98 L502.102,282.93463 L506.7041,284.88925 L511.3062,286.8439 L515.9083,288.79852 L520.51044,290.75317 L525.11255,292.7078 L529.71466,294.66245 L534.3168,296.61707 L538.9189,298.57172 L543.521,300.52634 L548.1231,302.481 L552.7252,304.4356 L557.32733,306.39023 L561.92944,308.34488 L566.5315,310.2995"/>
<path d="M558.97784,246.62383 L554.0764,245.6358 L549.17505,244.64778 L544.2736,243.65974 L539.3722,242.67172 L534.4708,241.68369 L529.5694,240.69566 L524.66797,239.70764 L519.7666,238.7196 L514.8652,237.73158 L509.96378,236.74355 L505.06238,235.75552 L500.16095,234.7675 L495.25955,233.77946 L490.35815,232.79144 L485.45673,231.8034 L480.55533,230.81538 L475.6539,229.82736 L470.7525,228.83932 L465.8511,227.8513 L460.94968,226.86327 L456.04828,225.87524 L451.14688,224.88722 L446.24545,223.89919 L441.34406,222.91116 L436.44266,221.92313 L431.54123,220.9351 L426.63983,219.94708 L421.73843,218.95905 L416.837,217.97102 L411.9356,216.98299 L407.0342,215.99496 L402.13278,215.00694 L397.23138,214.0189 L392.33,213.03088 L387.42856,212.04285 L382.52716,211.05482 L377.62576,210.0668 L372.72433,209.07877 L367.82294,208.09074 L362.92154,207.1027 L358.0201,206.11469 L353.1187,205.12666 L348.21732,204.13863 L343.3159,203.1506 L338.4145,202.16257 L333.5131,201.17455 L328.61166,200.18652 L323.71027,199.19849 L318.80887,198.21046 L313.90744,197.22243 L309.00604,196.2344 L304.10464,195.24638 L299.20322,194.25835 L294.30182,193.27032 L289.40042,192.28229 L284.499,191.29427 L279.5976,190.30624 L274.6962,189.3182 L269.79477,188.33018 L264.89337,187.34216 L259.99197,186.35413 L255.09055,185.3661 L250.18915,184.37807 L245.28773,183.39005 L240.38632,182.40202 L235.48492,181.41399 L230.58351,180.42596 L225.6821,179.43793 L220.7807,178.4499 L215.87929,177.46188 L210.97787,176.47385 L206.07648,175.48582 L201.17506,174.49779 L196.27365,173.50977 L191.37225,172.52174 L186.47084,171.5337 L181.56943,170.54568 L176.66803,169.55765 L171.76662,168.56963 L166.8652,167.5816 L161.9638,166.59357 L157.0624,165.60555 L152.16098,164.61751 L147.25958,163.62949 L142.35817,162.64146 L137.45676,161.65343 L132.55536,160.6654 L127.653946,159.67737 L122.75253,158.68935 L117.85113,157.70132 L112.94972,156.71329 L108.04831,155.72527 L103.146904,154.73723 L98.2455,153.7492 L93.344086,152.76118 L88.44268,151.77315 L83.541275,150.78513 L78.63986,149.79709 L73.73846,148.80907 L68.83704,147.82104"/>
<path d="M200.67592,105.80252 L204.23433,109.315025 L207.79276,112.82753 L211.35117,116.340034 L214.90958,119.85254 L218.46799,123.36504 L222.0264,126.87755 L225.58482,130.39006 L229.14323,133.90256 L232.70164,137.41507 L236.26006,140.92757 L239.81847,144.44008 L243.37688,147.95258 L246.9353,151.46509 L250.49371,154.97758 L254.05212,158.4901 L257.61053,162.00261 L261.16895,165.5151 L264.72736,169.02762 L268.28577,172.54012 L271.84418,176.05263 L275.40262,179.56512 L278.96103,183.07764 L282.51944,186.59013 L286.07785,190.10265 L289.63626,193.61514 L293.19467,197.12766 L296.75308,200.64017 L300.3115,204.15266 L303.8699,207.66518 L307.4283,211.17767 L310.98676,214.69019 L314.54517,218.20268 L318.10358,221.7152 L321.662,225.22769 L325.2204,228.7402 L328.7788,232.2527 L332.33722,235.76521 L335.89563,239.27773 L339.45404,242.79022 L343.01245,246.30273 L346.57086,249.81523 L350.1293,253.32774 L353.6877,256.84024 L357.24612,260.35275 L360.80453,263.86526 L364.36295,267.37775 L367.92136,270.89026 L371.47977,274.40277 L375.03818,277.91528 L378.5966,281.4278 L382.155,284.94028 L385.7134,288.4528 L389.27185,291.9653 L392.83026,295.4778 L396.38867,298.9903 L399.94708,302.5028 L403.5055,306.01532 L407.0639,309.52783 L410.6223,313.04034 L414.18073,316.55283 L417.73914,320.06534 L421.29755,323.57785 L424.856,327.09036 L428.4144,330.60284 L431.9728,334.11536 L435.53122,337.62787 L439.08963,341.14038 L442.64804,344.65286 L446.20645,348.16537 L449.76486,351.6779 L453.32327,355.1904 L456.88168,358.7029 L460.4401,362.2154 L463.99854,365.7279 L467.55695,369.24042 L471.11536,372.75293 L474.67377,376.2654 L478.23218,379.77792"/>
<path d="M240.51385,69.88575 L242.326,74.54581 L244.13814,79.205864 L245.95027,83.86592 L247.76242,88.525986 L249.57455,93.18604 L251.3867,97.8461 L253.19884,102.50616 L255.01099,107.166214 L256.82312,111.82628 L258.63525,116.486336 L260.44742,121.14639 L262.25955,125.80645 L264.0717,130.4665 L265.88382,135.12657 L267.69595,139.78662 L269.50812,144.44669 L271.32025,149.10675 L273.1324,153.7668 L274.94452,158.42686 L276.75668,163.08691 L278.56882,167.74698 L280.38095,172.40704 L282.19308,177.0671 L284.00525,181.72716 L285.81738,186.3872 L287.62952,191.04727 L289.44165,195.70734 L291.25378,200.36739 L293.06595,205.02745 L294.87808,209.6875 L296.69022,214.34756 L298.50235,219.00763 L300.3145,223.66768 L302.12665,228.32774 L303.93878,232.9878 L305.75092,237.64786 L307.56305,242.30792 L309.3752,246.96797 L311.18735,251.62804 L312.99948,256.2881 L314.8116,260.94815 L316.62378,265.60822 L318.4359,270.26828 L320.24805,274.9283 L322.06018,279.58838 L323.87234,284.24844 L325.68448,288.9085 L327.4966,293.56857 L329.30875,298.2286 L331.12088,302.88867 L332.93304,307.54874 L334.74518,312.2088 L336.5573,316.86887 L338.36945,321.5289 L340.1816,326.18896 L341.99374,330.84903 L343.80588,335.5091 L345.618,340.16916 L347.43015,344.8292 L349.2423,349.48926 L351.05444,354.14932 L352.86658,358.8094 L354.6787,363.46945 L356.49088,368.1295 L358.303,372.78955 L360.11514,377.44962"/>
<path d="M428.54605,80.427734 L424.62997,83.5365 L420.7139,86.64526 L416.79785,89.75403 L412.88177,92.86279 L408.9657,95.97156 L405.04962,99.08032 L401.13358,102.18909 L397.2175,105.29785 L393.30142,108.40662 L389.38538,111.51538 L385.4693,114.624146 L381.55322,117.73291 L377.63718,120.841675 L373.7211,123.95044 L369.80502,127.059204 L365.88895,130.16797 L361.9729,133.27673 L358.05682,136.3855 L354.14075,139.49426 L350.2247,142.60303 L346.30862,145.71179 L342.39255,148.82056 L338.4765,151.92932 L334.56042,155.03809 L330.64435,158.14685 L326.72827,161.25562 L322.81223,164.36438 L318.89615,167.47314 L314.98007,170.5819 L311.06403,173.69066 L307.14795,176.79942 L303.23187,179.90819 L299.31583,183.01695 L295.39975,186.12572 L291.48367,189.23448 L287.5676,192.34325 L283.65155,195.45201 L279.73547,198.56078 L275.8194,201.66954 L271.90335,204.7783 L267.98727,207.88707 L264.0712,210.99583 L260.15515,214.1046 L256.23907,217.21336 L252.323,220.32213 L248.40694,223.4309 L244.49088,226.53966 L240.5748,229.64842 L236.65874,232.75719 L232.74266,235.86595 L228.8266,238.97472 L224.91054,242.08348 L220.99446,245.19225 L217.0784,248.30101 L213.16232,251.40977 L209.24626,254.51854 L205.3302,257.6273 L201.41412,260.73605 L197.49806,263.84482 L193.58199,266.95358 L189.66592,270.06235 L185.74986,273.1711 L181.83379,276.27988 L177.91772,279.38864 L174.00165,282.4974 L170.08559,285.60617 L166.16953,288.71494 L162.25345,291.8237 L158.33739,294.93246 L154.42131,298.04123 L150.50525,301.15 L146.58919,304.25876 L142.67311,307.36752 L138.75705,310.4763 L134.84097,313.58505 L130.92491,316.69382 L127.00884,319.80258 L123.09278,322.91135 L119.17671,326.0201 L115.26064,329.12888 L111.344574,332.23764 L107.428505,335.3464 L103.51244,338.45517 L99.596375,341.56393 L95.680305,344.6727 L91.76424,347.78146 L87.84817,350.89023 L83.932106,353.999 L80.01604,357.10776 L76.09997,360.21652 L72.1839,363.3253 L68.26783,366.43405 L64.35177,369.54282 L60.4357,372.65158 L56.51963,375.76035 L52.603565,378.8691"/>
<path d="M490.95523,360.37122 L487.10706,357.1788 L483.25888,353.98636 L479.41074,350.7939 L475.56256,347.6015 L471.7144,344.40906 L467.8662,341.21664 L464.01807,338.0242 L460.1699,334.8318 L456.32172,331.63934 L452.47354,328.4469 L448.6254,325.2545 L444.77722,322.06204 L440.92905,318.86963 L437.0809,315.6772 L433.23273,312.48477 L429.38455,309.29233 L425.53638,306.09988 L421.68823,302.90747 L417.84006,299.71503 L413.99188,296.5226 L410.14374,293.33017 L406.29556,290.13776 L402.4474,286.9453 L398.5992,283.75287 L394.75107,280.56046 L390.9029,277.368 L387.05472,274.1756 L383.20657,270.98315 L379.3584,267.79074 L375.51022,264.5983 L371.66205,261.40585 L367.8139,258.21344 L363.96573,255.02101 L360.11755,251.82857 L356.26938,248.63614 L352.42123,245.44371 L348.57306,242.25128 L344.72488,239.05885 L340.87674,235.86642 L337.02856,232.674 L333.1804,229.48155 L329.3322,226.28912 L325.48407,223.0967 L321.6359,219.90427 L317.78772,216.71184 L313.93958,213.51941 L310.0914,210.32698 L306.24323,207.13454 L302.39505,203.94211 L298.5469,200.74968 L294.69873,197.55725 L290.85056,194.36482 L287.00238,191.1724 L283.15424,187.97997 L279.30606,184.78752 L275.4579,181.5951 L271.60974,178.40266 L267.76157,175.21024 L263.9134,172.0178 L260.06522,168.82538 L256.21707,165.63295 L252.3689,162.4405 L248.52072,159.24808 L244.67256,156.05565 L240.8244,152.86322 L236.97623,149.67079 L233.12807,146.47836 L229.27989,143.28593 L225.43173,140.09349 L221.58356,136.90106 L217.7354,133.70863 L213.88724,130.5162 L210.03906,127.32378 L206.1909,124.13134 L202.34273,120.93891 L198.49457,117.74648 L194.6464,114.55405 L190.79823,111.36162 L186.95006,108.16919 L183.1019,104.97676 L179.25374,101.784325 L175.40556,98.591896 L171.5574,95.39947 L167.70923,92.20703 L163.86107,89.0146 L160.0129,85.822174 L156.16473,82.629745 L152.31656,79.43731 L148.4684,76.24488 L144.62024,73.05245 L140.77206,69.860016 L136.9239,66.66759 L133.07573,63.47516 L129.22757,60.282726 L125.3794,57.090298 L121.531235,53.897865 L117.68307,50.705437 L113.8349,47.513004 L109.98673,44.32057 L106.138565,41.128143"/>
<path d="M286.148,169.9461 L286.5664,174.92856 L286.98483,179.91103 L287.40323,184.8935 L287.82162,189.87595 L288.24005,194.85841 L288.65845,199.84088 L289.07684,204.82333 L289.49527,209.8058 L289.91367,214.78827 L290.33206,219.77074 L290.75046,224.75319 L291.16888,229.73566 L291.58728,234.71812 L292.00568,239.70058 L292.4241,244.68304 L292.8425,249.66551 L293.2609,254.64796 L293.67932,259.63043 L294.09772,264.61288 L294.5161,269.59537 L294.93454,274.57782 L295.35294,279.56027 L295.77133,284.54276 L296.18976,289.5252 L296.60815,294.50766 L297.02655,299.49014 L297.44498,304.4726 L297.86337,309.45505 L298.28177,314.43753 L298.7002,319.41998 L299.1186,324.40244 L299.537,329.38492 L299.9554,334.36737 L300.3738,339.34985 L300.7922,344.3323 L301.2106,349.31476 L301.62903,354.29724 L302.04742,359.2797 L302.46582,364.26215 L302.88425,369.24463 L303.30264,374.22708 L303.72104,379.20953"/>
<path d="M141.93864,9.203862 L145.05983,13.110036 L148.18102,17.016209 L151.3022,20.922382 L154.42339,24.828556 L157.54457,28.73473 L160.66576,32.640903 L163.78696,36.547077 L166.90814,40.453247 L170.02933,44.35942 L173.15051,48.265594 L176.2717,52.17177 L179.39288,56.07794 L182.51407,59.984116 L185.63527,63.89029 L188.75645,67.79646 L191.87764,71.70264 L194.99883,75.60881 L198.12001,79.514984 L201.2412,83.42116 L204.36238,87.32733 L207.48357,91.2335 L210.60477,95.13967 L213.72595,99.045845 L216.84714,102.95202 L219.96832,106.85819 L223.08951,110.764366 L226.2107,114.67054 L229.33188,118.57671 L232.45306,122.48289 L235.57426,126.38906 L238.69545,130.29523 L241.81664,134.2014 L244.93782,138.10757 L248.059,142.01375 L251.18019,145.91992 L254.30138,149.8261 L257.42258,153.73227 L260.54376,157.63844 L263.66495,161.54462 L266.78613,165.45079 L269.90732,169.35696 L273.0285,173.26314 L276.1497,177.16931 L279.27087,181.07549 L282.39206,184.98166 L285.51324,188.88783 L288.63443,192.794 L291.7556,196.70018 L294.87683,200.60635 L297.99802,204.51253 L301.1192,208.4187 L304.2404,212.32487 L307.36157,216.23105 L310.48276,220.13722 L313.60394,224.0434 L316.72513,227.94957 L319.8463,231.85574 L322.9675,235.76192 L326.08868,239.66809 L329.20987,243.57426 L332.33105,247.48044 L335.45224,251.38661 L338.57343,255.29279 L341.69464,259.19894 L344.81583,263.10513 L347.937,267.0113 L351.0582,270.91748 L354.17938,274.82364 L357.30057,278.72983 L360.42175,282.636 L363.54294,286.54218 L366.66412,290.44833 L369.7853,294.35452 L372.9065,298.26068 L376.02768,302.16687 L379.14886,306.07303 L382.27005,309.97922 L385.39124,313.88538 L388.51245,317.79156 L391.63364,321.69772 L394.75482,325.6039 L397.876,329.51007 L400.9972,333.41626 L404.11838,337.32242 L407.23956,341.22858 L410.36075,345.13477 L413.48193,349.04092 L416.60312,352.9471 L419.7243,356.85327 L422.8455,360.75946 L425.96667,364.66562 L429.08786,368.5718 L432.20905,372.47797 L435.33026,376.38416"/>
<path d="M158.7643,13.664975 L161.69829,17.713644 L164.63228,21.762314 L167.56627,25.810984 L170.50024,29.859652 L173.43423,33.90832 L176.36823,37.95699 L179.30222,42.00566 L182.23619,46.05433 L185.17018,50.102997 L188.10417,54.15167 L191.03816,58.200336 L193.97214,62.249004 L196.90613,66.297676 L199.84012,70.346344 L202.77411,74.39501 L205.70808,78.44368 L208.64207,82.492355 L211.57607,86.54102 L214.51006,90.58969 L217.44403,94.63836 L220.37802,98.68703 L223.31201,102.735695 L226.246,106.78437 L229.17998,110.83304 L232.11397,114.88171 L235.04796,118.930374 L237.98195,122.97904 L240.91592,127.02771 L243.84991,131.07639 L246.7839,135.12505 L249.7179,139.17372 L252.65187,143.2224 L255.58586,147.27106 L258.51984,151.31973 L261.45383,155.3684 L264.38782,159.41707 L267.3218,163.46573 L270.2558,167.5144 L273.1898,171.56308 L276.12378,175.61174 L279.05777,179.66042 L281.99173,183.70908 L284.92572,187.75775 L287.8597,191.80643 L290.7937,195.85509 L293.7277,199.90376 L296.66168,203.95242 L299.59567,208.0011 L302.52966,212.04977 L305.46362,216.09843 L308.3976,220.14711 L311.3316,224.19577 L314.2656,228.24445 L317.1996,232.2931 L320.13358,236.34178 L323.06757,240.39046 L326.00156,244.43912 L328.93552,248.4878 L331.8695,252.53645 L334.8035,256.5851 L337.7375,260.6338 L340.67148,264.68246 L343.60547,268.73114 L346.53946,272.77982 L349.47345,276.82846 L352.4074,280.87714 L355.3414,284.9258 L358.2754,288.9745 L361.20938,293.02316 L364.14337,297.0718 L367.07736,301.12048 L370.01135,305.16916 L372.94534,309.21783 L375.8793,313.2665 L378.8133,317.31516 L381.74728,321.36383 L384.68127,325.4125 L387.61526,329.46118 L390.54926,333.50986 L393.48325,337.5585 L396.41724,341.60718 L399.3512,345.65585 L402.2852,349.70453 L405.21918,353.7532 L408.15317,357.80185 L411.08716,361.85052 L414.02115,365.8992 L416.95514,369.94788 L419.88913,373.99652 L422.8231,378.0452"/>
<path d="M120.81774,370.59314 L124.23474,366.9429 L127.65173,363.2927 L131.06874,359.64246 L134.48573,355.99225 L137.90273,352.342 L141.31973,348.6918 L144.73672,345.04156 L148.15373,341.39136 L151.57072,337.74112 L154.98772,334.0909 L158.40472,330.44067 L161.82172,326.79047 L165.23872,323.14023 L168.65572,319.49002 L172.07271,315.83978 L175.48972,312.18958 L178.90671,308.53934 L182.32372,304.88913 L185.7407,301.2389 L189.1577,297.58868 L192.5747,293.93845 L195.9917,290.28824 L199.4087,286.638 L202.8257,282.9878 L206.24269,279.33755 L209.6597,275.68735 L213.07669,272.03714 L216.4937,268.3869 L219.91069,264.7367 L223.32768,261.08646 L226.74469,257.43625 L230.16168,253.78601 L233.57869,250.13579 L236.99568,246.48557 L240.41267,242.83534 L243.82968,239.18512 L247.24667,235.5349 L250.66368,231.88467 L254.08067,228.23445 L257.49768,224.58423 L260.91467,220.934 L264.33167,217.2838 L267.74866,213.63358 L271.16568,209.98335 L274.58267,206.33313 L277.99966,202.6829 L281.41666,199.03268 L284.83365,195.38246 L288.25067,191.73224 L291.66766,188.08202 L295.08466,184.4318 L298.50165,180.78157 L301.91864,177.13135 L305.33566,173.48112 L308.75266,169.8309 L312.16965,166.18068 L315.58664,162.53046 L319.00363,158.88023 L322.42065,155.23001 L325.83765,151.57979 L329.25464,147.92957 L332.67163,144.27934 L336.08862,140.62912 L339.50565,136.9789 L342.92264,133.32867 L346.33963,129.67845 L349.75662,126.02824 L353.1736,122.37801 L356.59064,118.72779 L360.00763,115.07757 L363.42462,111.427345 L366.8416,107.77712 L370.2586,104.1269 L373.67563,100.47668 L377.09262,96.826454 L380.5096,93.17623 L383.9266,89.52601 L387.3436,85.875786 L390.76062,82.22556 L394.1776,78.57535 L397.5946,74.925125 L401.0116,71.2749 L404.4286,67.62468 L407.8456,63.974457 L411.2626,60.324234 L414.6796,56.67401 L418.0966,53.02379 L421.51358,49.373566 L424.9306,45.723343 L428.3476,42.07312 L431.7646,38.422897 L435.18158,34.77268 L438.59857,31.122456 L442.0156,27.472233 L445.4326,23.82201 L448.84958,20.171787 L452.26657,16.521566 L455.68356,12.871344 L459.1006,9.221121 L462.51758,5.5708985"/>
</g>
</svg>