<svg height="384px" viewBox="0 0 576 384" width="576px" xmlns="http://www.w3.org/2000/svg" xmlns:inkscape="http://www.inkscape.org/namespaces/inkscape">
<g fill="none" id="1" stroke="black" stroke-width="0.2mm">
<path d="M92.50635,59.951763 L59.841534,60.159477 L60.159477,110.15846 L64.32812,110.13196"/>
<path d="M99.87512,59.854923 L63.673645,60.330673 L64.33067,110.326355 L68.50907,110.27145"/>
<path d="M107.03599,59.70921 L67.49656,60.51379 L68.51379,110.50344 L72.70188,110.41822"/>
<path d="M75.50876,60.59193 L71.310104,60.709484 L72.70949,110.689896 L84.51087,110.359474"/>
<path d="M90.99355,60.158375 L121.29051,59.3101 L121.29837,59.590637"/>
<path d="M79.71756,60.41905 L75.50699,60.502934 L76.50294,110.49301 L84.51034,110.33348"/>
<path d="M95.23177,60.10996 L125.49706,59.506985 L125.49928,59.618107"/>
<path d="M113.72257,59.898724 L79.71606,60.28721 L80.28721,110.28394 L84.508354,110.235725"/>
<path d="M121.10495,59.748497 L83.49655,60.513798 L84.5138,110.50345 L88.7432,110.41738"/>
<path d="M128.26318,59.53609 L87.2695,60.752495 L88.752495,110.7305 L92.99092,110.60473"/>
<path d="M135.38948,59.254887 L91.0337,61.005184 L93.00519,110.9663 L97.24993,110.798805"/>
<path d="M142.25276,58.914177 L94.791214,61.270283 L97.27028,111.208786 L101.52235,110.9977"/>
<path d="M148.45023,58.547436 L148.4498,58.54047 L98.540474,61.550198 L101.55019,111.459526 L105.807434,111.202805"/>
<path d="M152.15883,58.324696 L152.15584,58.282825 L102.28283,61.844166 L105.84417,111.71717 L110.10534,111.412895"/>
<path d="M155.85413,58.098404 L155.8475,58.018684 L106.018684,62.152493 L110.1525,111.981316 L114.414665,111.62772"/>
<path d="M159.58629,58.38242 L159.52628,57.749916 L109.749916,62.47373 L114.47373,112.250084 L118.133675,111.902756"/>
<path d="M163.90968,58.622906 L163.86078,58.029926 L114.02993,62.13922 L118.13922,111.97007 L121.79626,111.668495"/>
<path d="M168.20325,58.324238 L168.20322,58.32397 L118.323975,61.79678 L121.796776,111.676025 L126.09863,111.37652"/>
<path d="M171.855,58.063477 L171.85158,58.022125 L122.022125,62.14843 L126.14843,111.977875 L130.45383,111.62135"/>
<path d="M175.54701,58.38747 L175.48193,57.713326 L125.713326,62.518063 L130.51807,112.286674 L134.13435,111.93755"/>
<path d="M179.8651,58.05574 L179.86313,58.031925 L130.03192,62.136868 L134.13687,111.96808 L138.46062,111.6119"/>
<path d="M183.54047,58.39927 L183.47334,57.70625 L133.70625,62.526657 L138.52666,112.293755 L142.1214,111.945564"/>
<path d="M187.8781,58.048153 L187.87778,58.04435 L138.04434,62.12222 L142.12222,111.95565 L146.46666,111.60014"/>
<path d="M191.47035,57.751606 L191.4653,57.69963 L141.69963,62.5347 L146.5347,112.30037 L150.88054,111.87814"/>
<path d="M195.12009,58.12743 L195.03203,57.348778 L145.34879,62.96798 L150.96797,112.65122 L154.5229,112.24916"/>
<path d="M199.47588,57.738285 L199.47272,57.705738 L149.70573,62.52728 L154.52728,112.29426 L158.8941,111.87119"/>
<path d="M203.10648,58.133858 L203.01575,57.335815 L153.33582,62.984257 L158.98425,112.664185 L162.518,112.26241"/>
<path d="M169.00996,111.66162 L162.52055,112.28872 L157.71129,62.520546 L162.10754,62.09572"/>
<path d="M164.63104,61.851868 L166.52022,61.669308"/>
<path d="M169.08481,61.421482 L207.47945,57.71128 L207.55107,58.45235"/>
<path d="M166.52223,61.702072 L162.1041,62.052017 L166.05202,111.89591 L174.01225,111.26541"/>
<path d="M173.44583,61.153683 L211.94798,58.104088 L211.9973,58.726715"/>
<path d="M208.72498,58.987274 L166.5147,61.579308 L169.57932,111.4853 L174.0081,111.21334"/>
<path d="M174.53911,61.70932 L170.09453,62.063217 L174.06322,111.905464 L182.017,111.27215"/>
<path d="M182.37929,61.085045 L196.03238,59.99792"/>
<path d="M196.40671,59.968117 L219.93678,58.094536 L219.98695,58.724598"/>
<path d="M191.51414,60.53014 L174.53015,61.561848 L177.56184,111.46985 L182.01122,111.19957"/>
<path d="M192.34119,60.479904 L196.03204,60.2557"/>
<path d="M200.67523,59.973644 L216.00096,59.04267"/>
<path d="M182.5496,61.71203 L178.09059,62.067852 L182.06786,111.90942 L194.35252,110.92912"/>
<path d="M204.27591,59.97831 L227.93214,58.090584 L227.98947,58.808933"/>
<path d="M187.02643,61.28019 L182.53989,61.550858 L185.55086,111.46011 L202.21974,110.4545"/>
<path d="M208.51505,59.983803 L232.44914,58.539886 L232.48875,59.196487"/>
<path d="M191.52031,60.843163 L187.01614,61.024204 L189.0242,110.983864 L202.17017,110.455475"/>
<path d="M212.7638,59.989307 L236.9758,59.016136 L236.99934,59.60203"/>
<path d="M196.03185,60.407352 L191.51349,60.496174 L192.49617,110.48652 L200.49507,110.32928"/>
<path d="M217.01784,59.99482 L239.13239,59.5601"/>
<path d="M200.48805,109.97344 L195.96764,109.96759 L196.03241,59.96763 L224.5231,60.004543"/>
<path d="M231.9168,59.85861 L199.51152,60.498215 L200.49821,110.48848 L205.0253,110.399124"/>
<path d="M239.07825,59.56354 L202.992,61.05038 L205.05038,111.007996 L209.58972,110.82096"/>
<path d="M246.48271,59.09322 L206.46552,61.63504 L209.63504,111.53448 L214.16284,111.24688"/>
<path d="M253.2922,58.508198 L209.95181,62.23169 L214.23169,112.04818 L218.76392,111.658806"/>
<path d="M260.27213,57.745586 L213.4326,62.863194 L218.86319,112.567406 L223.38457,112.07341"/>
<path d="M266.48334,56.934544 L266.48123,56.918743 L216.91875,63.518772 L223.51877,113.08125 L228.02415,112.48129"/>
<path d="M269.81702,56.5113 L269.80124,56.411404 L220.4114,64.198746 L228.19875,113.5886 L232.6828,112.88159"/>
<path d="M273.13248,56.10792 L273.0966,55.911747 L223.91174,64.9034 L232.9034,114.08826 L237.34787,113.27575"/>
<path d="M276.65625,56.74396 L276.38318,55.431557 L227.43155,65.61684 L237.61684,114.56844 L240.84364,113.89705"/>
<path d="M281.15698,56.10646 L281.12518,55.93152 L231.93152,64.87481 L240.8748,114.06848 L245.33994,113.25674"/>
<path d="M284.4396,55.682858 L284.38803,55.434742 L235.43474,65.61198 L245.61197,114.56526 L250.05803,113.64094"/>
<path d="M287.6865,55.273613 L287.60733,54.93728 L238.93727,66.39267 L250.39267,115.06272 L254.79836,114.025764"/>
<path d="M290.9123,54.876698 L290.80048,54.45261 L242.4526,67.199524 L255.19952,115.54739 L259.55835,114.398186"/>
<path d="M294.44,55.596172 L293.96738,53.98214 L245.98213,68.032616 L260.03262,116.01786 L263.09448,115.12132"/>
<path d="M298.90326,54.870094 L298.79172,54.447506 L250.44751,67.20828 L263.20828,115.55249 L267.56918,114.401405"/>
<path d="M302.43774,55.622185 L301.95477,53.97524 L253.97523,68.04523 L268.04523,116.02476 L271.06842,115.13821"/>
<path d="M306.93375,54.870003 L306.82837,54.468884 L258.46887,67.17162 L271.17163,115.53112 L275.5535,114.38011"/>
<path d="M310.10565,54.455875 L309.96683,53.98183 L261.98184,68.03317 L276.03317,116.018166 L280.37775,114.74596"/>
<path d="M313.23584,54.06462 L313.05197,53.498657 L265.49866,68.94804 L280.94803,116.50134 L285.22723,115.11109"/>
<path d="M316.77582,54.89745 L316.10922,53.03578 L269.03577,69.89077 L285.89078,116.96422 L288.754,115.93902"/>
<path d="M321.6371,55.266518 L321.0659,53.50576 L273.50577,68.934105 L288.9341,116.49424 L291.87326,115.54079"/>
<path d="M326.48038,55.670372 L325.99127,53.995216 L277.9952,68.00873 L292.00873,116.00478 L294.99554,115.13272"/>
<path d="M331.00223,54.858753 L330.91403,54.519066 L282.51907,67.08597 L295.08597,115.480934 L299.5287,114.32728"/>
<path d="M334.4736,55.68059 L333.9788,53.988384 L285.98837,68.0212 L300.0212,116.01162 L302.98825,115.14403"/>
<path d="M339.0032,54.82305 L338.92627,54.526264 L290.52628,67.07372 L303.07373,115.47374 L307.56125,114.31037"/>
<path d="M342.4413,55.69833 L341.9307,53.9621 L293.9621,68.0693 L308.0693,116.0379 L310.98624,115.18005"/>
<path d="M347.01813,54.83683 L346.93985,54.534245 L298.53424,67.06016 L311.06015,115.46575 L315.54083,114.30629"/>
<path d="M350.0673,54.357292 L349.95535,53.97555 L301.97556,68.044655 L316.04465,116.024445 L320.4868,114.721886"/>
<path d="M353.07108,53.939095 L352.90027,53.421814 L305.4218,69.09975 L321.09973,116.578186 L325.4339,115.147"/>
<path d="M356.0825,53.53529 L355.8556,52.91712 L308.9171,70.1444 L326.1444,117.08288 L330.3934,115.523415"/>
<path d="M359.0719,53.15702 L358.78198,52.441486 L312.4415,71.21801 L331.21802,117.55851 L335.3731,115.87493"/>
<path d="M362.02643,52.77531 L361.68005,51.996727 L315.99673,72.31994 L336.31995,118.00327 L340.403,116.18682"/>
<path d="M365.601,53.821457 L364.50092,51.567543 L319.56754,73.49909 L341.49908,118.43246 L343.96384,117.22945"/>
<path d="M370.6632,54.181736 L369.6949,52.002422 L324.0024,72.30513 L344.3051,117.99758 L346.85272,116.86559"/>
<path d="M375.14355,53.125126 L374.88705,52.486156 L328.48615,71.11295 L347.11295,117.51384 L351.34622,115.814476"/>
<path d="M378.02554,52.77337 L377.68002,51.996716 L331.9967,72.31997 L352.31998,118.00329 L356.405,116.18597"/>
<path d="M380.90515,52.401054 L380.4977,51.56644 L335.56644,73.502304 L357.5023,118.43356 L361.50516,116.479324"/>
<path d="M383.74335,52.118244 L383.22794,51.1564 L339.1564,74.772064 L362.77206,118.8436 L366.60648,116.78894"/>
<path d="M386.57736,51.812565 L385.9904,50.806828 L342.80682,76.00962 L368.0096,119.19318 L371.74472,117.0133"/>
<path d="M389.35165,51.567375 L388.66257,50.485004 L346.48502,77.337425 L373.33743,119.515 L376.9217,117.23308"/>
<path d="M392.10486,51.36228 L391.3076,50.211864 L350.21185,78.69241 L378.6924,119.78814 L382.11752,117.41444"/>
<path d="M394.8663,51.236504 L393.9271,49.989662 L353.98965,80.0729 L384.0729,120.01034 L387.2955,117.58287"/>
<path d="M398.73782,52.458054 L396.5956,49.827972 L357.82797,81.404396 L389.4044,120.17203 L391.08783,118.80087"/>
<path d="M403.97617,52.619064 L402.0153,50.002186 L362.0022,79.98471 L391.9847,119.99781 L393.7892,118.64566"/>
<path d="M408.23407,51.388226 L407.44257,50.23661 L366.2366,78.557434 L394.55743,119.76339 L397.9914,117.40323"/>
<path d="M410.95126,51.180363 L410.07855,50.011314 L370.01132,79.92143 L399.92145,119.988686 L403.23065,117.518364"/>
<path d="M414.77536,52.489025 L412.61118,49.829567 L373.82956,81.38882 L405.38882,120.17043 L407.0404,118.82642"/>
<path d="M418.98715,51.210526 L418.0945,50.013634 L378.01364,79.90547 L407.9055,119.98637 L411.1897,117.537025"/>
<path d="M422.84882,52.51052 L420.68207,49.836918 L381.8369,81.31792 L413.31793,120.16308 L414.9592,118.832954"/>
<path d="M427.07025,51.206776 L426.19702,50.028713 L386.02872,79.80297 L415.80298,119.97129 L419.11365,117.51728"/>
<path d="M429.71338,51.028957 L428.75806,49.84496 L389.84497,81.24193 L421.24194,120.155045 L424.41827,117.59222"/>
<path d="M433.54965,52.371445 L431.2042,49.713436 L393.71344,82.79581 L426.7958,120.28656 L428.3273,118.93514"/>
<path d="M437.62585,51.007084 L436.6768,49.836365 L397.83636,81.323204 L429.3232,120.163635 L432.50412,117.584946"/>
<path d="M441.46152,52.376396 L439.0902,49.7065 L401.7065,82.909805 L434.9098,120.2935 L436.41745,118.95444"/>
<path d="M446.76575,52.49777 L444.59003,49.8274 L405.8274,81.40998 L437.40997,120.1726 L439.04755,118.83837"/>
<path d="M452.07675,52.669342 L450.09665,50.013943 L410.01395,79.90336 L439.90335,119.98606 L441.66946,118.66909"/>
<path d="M456.32568,51.32376 L455.60706,50.267494 L414.2675,78.392944 L442.39294,119.732506 L445.93005,117.326035"/>
<path d="M460.11496,52.73428 L458.0834,50.012016 L418.01202,79.91661 L447.9166,119.98798 L449.60498,118.72798"/>
<path d="M464.4319,51.32665 L463.7333,50.291748 L422.29175,78.26671 L450.2667,119.70825 L453.8333,117.30064"/>
<path d="M468.17133,52.705627 L466.18417,50.026806 L426.0268,79.815834 L455.81583,119.9732 L457.5609,118.67868"/>
<path d="M473.5718,53.000675 L471.74637,50.294285 L430.29428,78.25365 L458.25363,119.70572 L460.05795,118.488716"/>
<path d="M479.03748,53.31949 L477.4288,50.664085 L434.6641,76.57119 L460.5712,119.335915 L462.50598,118.16382"/>
<path d="M484.50418,53.70526 L483.10703,51.12009 L439.1201,74.89298 L462.89297,118.879906 L464.9517,117.76727"/>
<path d="M489.0808,52.300743 L488.77628,51.663548 L443.66354,73.22372 L465.22372,118.33646 L469.42935,116.32651"/>
<path d="M491.62573,51.911148 L491.21976,51.153927 L447.15393,74.78025 L470.78024,118.84607 L474.81494,116.68284"/>
<path d="M494.09955,51.50153 L493.62854,50.713726 L450.7137,76.37147 L476.37146,119.28627 L480.29666,116.93949"/>
<path d="M496.5171,51.28851 L495.86743,50.318043 L454.31805,78.13256 L482.13257,119.68196 L485.7699,117.24702"/>
<path d="M498.93655,51.006 L498.2149,50.031376 L458.03137,79.78509 L487.7851,119.96863 L491.2875,117.375275"/>
<path d="M501.25485,50.856277 L500.3905,49.807606 L461.80762,81.60951 L493.6095,120.19239 L496.8747,117.50107"/>
<path d="M503.55316,50.783436 L502.54034,49.67823 L465.67822,83.45967 L499.45966,120.32177 L502.47888,117.55487"/>
<path d="M508.09744,117.53477 L505.33066,120.35379 L469.6462,85.33067 L504.66934,49.646206 L505.8344,50.789684"/>
<path d="M513.6645,117.51039 L511.21735,120.285736 L473.71426,87.21735 L506.78265,49.71426 L508.18323,50.94922"/>
<path d="M517.7434,119.14275 L516.95294,120.13367 L477.86633,88.95292 L509.0471,49.866333 L512.4197,52.556778"/>
<path d="M521.52045,117.51044 L519.03864,120.29652 L481.7035,87.03861 L514.96136,49.703484 L516.3333,50.92561"/>
<path d="M485.84952,88.800575 L517.1994,49.84953 L556.15045,81.199425 L524.8006,120.150475 L485.84952,88.800575"/>
</g>
</svg>