<?xml version="1.0" encoding="utf-8" ?>
<svg xmlns="http://www.w3.org/2000/svg" xmlns:cc="http://creativecommons.org/ns" xmlns:dc="http://purl.org/dc/elements/1.1/" xmlns:ev="http://www.w3.org/2001/xml-events" xmlns:inkscape="http://www.inkscape.org/namespaces/inkscape" xmlns:rdf="http://www.w3.org/1999/02/22-rdf-syntax-ns" xmlns:sodipodi="http://sodipodi.sourceforge.net/DTD/sodipodi-0.dtd" xmlns:xlink="http://www.w3.org/1999/xlink" baseProfile="tiny" height="29.718cm" version="1.2" viewBox="0 0 796.8000000000001 1123.1999999999998" width="21.082cm">
  <metadata>
    <rdf:RDF>
      <cc:Work>
        <dc:format>image/svg+xml</dc:format>
        <dc:source>vpype read samples/pursuit_curves_2.svg linemerge --tolerance 0.1mm linesort reloop linesimplify write samples/pursuit_curves_2_opt.svg
</dc:source>
        <dc:date>2024-04-12T21:43:08.512359</dc:date>
      </cc:Work>
    </rdf:RDF>
  </metadata>
  <defs/>
  <g fill="none" id="layer1" inkscape:groupmode="layer" inkscape:label="1" stroke="#000000" stroke-width="1.1339" style="display:inline">
    <polygon points="517.92,561.6 435.3337,447.9297 435.3337,675.2703 517.92,561.6 435.3337,675.2703 581.5153,715.252 517.92,561.6 581.5153,715.252 637.44,561.6"/>
    <polygon points="447.0282,678.4688 576.4276,702.9598 511.3131,570.6936"/>
    <polygon points="506.1703,579.3156 457.3802,680.4281 571.2185,692.3785"/>
    <polygon points="566.0146,683.3335 502.2671,587.4047 466.4872,681.3841"/>
    <polygon points="474.4494,681.54 560.9148,675.6592 499.4047,594.923"/>
    <polygon points="497.4083,601.8524 481.3667,681.0696 555.994,669.2003"/>
    <polygon points="487.3368,680.1201 551.3071,663.8124 496.125,608.1898"/>
    <polygon points="492.4545,678.8154 546.8926,659.3626 495.4219,613.9442"/>
    <polygon points="542.7749,655.7291 495.1845,619.1339 496.8095,677.2592"/>
    <polygon points="500.4868,675.5368 538.9677,652.8015 495.3145,623.7839"/>
    <polygon points="503.5652,673.718 535.4755,650.4801 495.7283,627.9241"/>
    <polygon points="506.118,671.859 532.2956,648.6757 496.3553,631.5877"/>
    <polygon points="529.4204,647.3086 497.1363,634.8093 508.2122,670.0043"/>
    <polygon points="526.8377,646.3086 498.0224,637.6249 509.9089,668.1887"/>
    <polygon points="498.9733,640.07 511.2632,666.4382 524.5325,645.614"/>
    <polygon points="499.9565,642.1795 512.3248,664.7723 522.4877,645.1705"/>
    <polygon points="520.6852,644.9312 500.946,643.9869 513.1378,663.2042"/>
    <polygon points="513.7416,661.7423 519.1061,644.8556 501.9213,645.5243"/>
    <polygon points="517.7313,644.9091 502.8669,646.8217 514.1708,660.3914"/>
    <polygon points="516.5422,645.0621 503.7712,647.9073 514.4556,659.1528"/>
    <polygon points="514.6225,658.0255 515.5205,645.2897 504.626,648.807"/>
    <polygon points="595.7194,572.17 546.294,610.2891 594.8618,655.9929"/>
    <polygon points="550.1794,613.9454 594.9304,649.287 591.7654,575.2195"/>
    <polygon points="553.7595,616.7727 594.6772,643.3616 588.4385,578.3176"/>
    <polygon points="557.033,618.8998 594.1781,638.1581 585.6642,581.394"/>
    <polygon points="560.0045,620.4405 593.497,633.617 583.3737,584.3945"/>
    <polygon points="581.5042,587.2781 562.684,621.4946 592.6871,629.6792"/>
    <polygon points="565.0842,622.1494 591.7925,626.2871 579.9985,590.0154"/>
    <polygon points="590.849,623.3854 578.8054,592.5862 567.2209,622.4804"/>
    <polygon points="589.8855,620.9215 577.8787,594.9777 569.1111,622.5528"/>
    <polygon points="577.1772,597.1837 570.7731,622.4223 588.925,618.846"/>
    <polygon points="572.2252,622.1362 587.9852,617.113 576.6649,599.2028"/>
    <polygon points="587.0795,615.6801 576.3098,601.0375 573.486,621.7343"/>
    <polygon points="576.0839,602.6932 574.5735,621.25 586.218,614.5087"/>
    <polygon points="585.4072,613.5635 575.963,604.1778 575.5051,620.7107"/>
    <polygon points="584.6517,612.8126 575.9264,605.5004 576.2972,620.1389"/>
    <polygon points="594.3819,663.535 600.3809,569.2579 542.1124,605.659"/>
    <polygon points="537.6539,599.8933 593.3859,671.9647 605.8354,566.5939"/>
    <polygon points="612.1733,564.3141 532.9497,592.8123 591.7523,681.3256"/>
    <polygon points="528.0461,584.2176 589.3404,691.651 619.4887,562.5834"/>
    <polygon points="523.0076,573.8922 585.9893,702.9598 627.8784,561.6"/>
    <polygon points="435.3337,466.117 441.9406,666.1766 511.3131,552.5064"/>
    <polygon points="447.4904,657.083 505.2347,545.5952 435.8623,482.1217"/>
    <polygon points="436.7925,496.1186 452.11,648.164 499.6849,540.5173"/>
    <polygon points="455.916,639.5522 494.6536,536.9654 438.0179,508.2823"/>
    <polygon points="490.1227,534.6708 439.4498,518.7839 459.015,631.3453"/>
    <polygon points="441.015,527.7888 461.5036,623.6114 486.0689,533.3998"/>
    <polygon points="442.654,535.4546 463.4688,616.3945 482.4646,532.951"/>
    <polygon points="444.3192,541.9298 464.9885,609.719 479.2797,533.1512"/>
    <polygon points="466.1318,603.5936 476.4829,533.8535 445.9728,547.3529"/>
    <polygon points="466.9599,598.0143 474.0421,534.9335 447.5855,551.8522"/>
    <polygon points="471.9255,536.287 449.1354,555.5452 467.5264,592.9679"/>
    <polygon points="450.6067,558.5389 467.8784,588.4334 470.1023,537.8276"/>
    <polygon points="451.9885,560.9305 468.0563,584.385 468.5427,539.4846"/>
    <polygon points="467.2184,541.2002 453.2739,562.8069 468.0952,580.7929"/>
    <polygon points="454.4596,564.2457 468.025,577.6255 466.1028,542.9288"/>
    <polygon points="467.8713,574.8497 465.1713,544.6341 455.5448,565.3162"/>
    <polygon points="467.6553,572.4325 464.4012,546.2887 456.5309,566.0788"/>
    <polygon points="463.7716,547.8719 457.4209,566.5871 467.395,570.341"/>
    <polygon points="458.2188,566.8874 467.1051,568.5435 463.2636,549.3691"/>
    <polygon points="466.7978,567.0095 462.86,550.7706 458.9297,567.0199"/>
    <polygon points="392.99,521.85 353.2425,632.9581 426.1412,600.244"/>
    <polygon points="389.8102,530.7387 359.0744,630.3409 423.4891,593.9725"/>
    <polygon points="387.3513,538.7068 364.2276,627.4315 420.7948,588.9138"/>
    <polygon points="368.753,624.35 418.1193,584.8972 385.5014,545.8049"/>
    <polygon points="372.7023,621.1938 415.5099,581.7698 384.1615,552.0884"/>
    <polygon points="413.002,579.3953 383.2448,557.6169 376.1269,618.0399"/>
    <polygon points="379.0769,614.9483 410.6215,577.653 382.6754,562.4507"/>
    <polygon points="382.3875,566.6505 381.6005,611.9647 408.3858,576.4368"/>
    <polygon points="382.3245,570.2757 383.7433,609.1225 406.3059,575.6539"/>
    <polygon points="404.3874,575.2237 382.438,573.3834 385.5483,606.445"/>
    <polygon points="387.0554,603.9473 402.6314,575.0765 382.6869,576.0283"/>
    <polygon points="388.3015,601.6376 401.0359,575.1526 383.0363,578.2618"/>
    <polygon points="389.3202,599.5188 399.5959,575.4014 383.4576,580.1319"/>
    <polygon points="383.9266,581.6829 390.1423,597.5894 398.3048,575.7798"/>
    <polygon points="390.7953,595.8447 397.1546,576.252 384.4238,582.9554"/>
    <polygon points="346.6833,635.1355 428.6738,607.9174 397.0166,511.9992"/>
    <polygon points="402.0309,501.156 339.3522,636.695 430.9906,617.201"/>
    <polygon points="408.1892,489.3067 331.2112,637.4231 432.9733,628.3223"/>
    <polygon points="322.2315,637.0662 434.4785,641.5279 415.6638,476.4581"/>
    <polygon points="424.6435,462.6435 312.3965,635.3256 435.3337,657.083"/>
    <polygon points="301.7063,502.5883 312.3965,617.1383 424.6435,451.4032"/>
    <polygon points="414.8085,455.498 302.5615,511.7523 321.3763,603.8795"/>
    <polygon points="405.8288,459.9983 304.0667,519.1224 328.8508,592.009"/>
    <polygon points="397.6878,464.7282 306.0494,524.9534 335.0091,581.4481"/>
    <polygon points="308.3662,529.473 340.0234,572.1105 390.3568,469.5463"/>
    <polygon points="310.8988,532.8839 344.05,563.9054 383.7975,474.3404"/>
    <polygon points="347.2298,556.7402 377.9656,479.0239 313.5509,535.3657"/>
    <polygon points="372.8124,483.5312 316.2452,537.0756 349.6887,550.5229"/>
    <polygon points="318.9206,538.1514 351.5386,545.1636 368.287,487.8148"/>
    <polygon points="352.8785,540.5756 364.3377,491.8417 321.5301,538.7124"/>
    <polygon points="360.9131,495.5914 324.038,538.8614 353.7952,536.6769"/>
    <polygon points="357.9631,499.053 326.4186,538.6866 354.3646,533.3901"/>
    <polygon points="355.4395,502.2237 328.6542,538.2629 354.6525,530.6431"/>
    <polygon points="353.2967,505.1068 330.7341,537.6534 354.7155,528.3696"/>
    <polygon points="351.4917,507.7105 332.6526,536.9106 354.602,526.5085"/>
    <polygon points="334.4086,536.0785 354.3532,525.0047 349.9846,510.0465"/>
    <polygon points="336.0041,535.1926 354.0037,523.808 348.7385,512.1291"/>
    <polygon points="353.5825,522.8737 347.7198,513.9742 337.4441,534.2818"/>
    <polygon points="353.1134,522.1617 346.8977,515.5988 338.7352,533.3692"/>
    <polygon points="352.6162,521.6367 346.2447,517.0204 339.8854,532.4726"/>
    <polygon points="173.7759,643.3565 301.7063,631.8521 301.7063,491.3479"/>
    <polygon points="184.0103,642.4362 301.7063,620.6118 291.4719,503.5086"/>
    <polygon points="282.8749,514.6228 193.426,640.6902 300.8875,611.2435"/>
    <polygon points="275.719,524.7082 202.0229,638.3345 299.4465,603.5139"/>
    <polygon points="209.8168,635.5488 297.5483,597.2094 269.8233,533.7983"/>
    <polygon points="265.0228,541.9384 216.8353,632.4816 295.3303,592.1365"/>
    <polygon points="292.9057,588.1207 261.1678,549.1818 223.1149,629.254"/>
    <polygon points="290.3667,585.0056 258.1236,555.5876 228.6982,625.9634"/>
    <polygon points="287.7872,582.6521 255.7696,561.2177 233.6317,622.6868"/>
    <polygon points="285.2258,580.9374 253.9985,566.1352 237.9641,619.484"/>
    <polygon points="241.7451,616.4003 282.7276,579.7532 252.7158,570.4031"/>
    <polygon points="280.3267,579.0052 251.8381,574.0828 245.0236,613.4685"/>
    <polygon points="251.293,577.2337 247.8479,610.7114 278.0476,578.6114"/>
    <polygon points="275.9072,578.5012 251.0174,579.9119 250.2639,608.1434"/>
    <polygon points="252.3153,605.772 273.916,578.614 250.9571,582.1704"/>
    <polygon points="254.0434,603.5994 272.0793,578.8986 251.0657,584.0585"/>
    <polygon points="255.4863,601.6234 270.3982,579.3113 251.3039,585.6218"/>
    <polygon points="256.6792,599.8384 268.8707,579.8162 251.6385,586.902"/>
    <polygon points="257.6545,598.2366 267.4921,580.3831 252.0418,587.9369"/>
    <polygon points="252.4908,588.7609 258.4416,596.8083 266.2561,580.9874"/>
    <polygon points="265.1549,581.6092 252.9669,589.4047 259.0667,595.5426"/>
    <polygon points="216.4154,530.3958 210.3273,545.4263 222.5153,538.7258"/>
    <polygon points="217.0406,529.0445 209.2261,545.9357 222.9914,539.5677"/>
    <polygon points="223.4404,540.614 217.8276,527.5355 207.99,546.3985"/>
    <polygon points="223.8436,541.8968 218.8029,525.8611 206.6115,546.7899"/>
    <polygon points="205.0839,547.0802 224.1782,543.4517 219.9959,524.016"/>
    <polygon points="224.4164,545.3173 221.4388,521.9971 203.4028,547.2335"/>
    <polygon points="224.5251,547.5358 223.1668,519.8049 201.5661,547.2072"/>
    <polygon points="225.2183,517.4444 199.5749,546.9511 224.4648,550.1524"/>
    <polygon points="197.4346,546.4064 224.1892,553.2156 227.6343,514.926"/>
    <polygon points="223.6441,556.7764 230.4585,512.2669 195.1555,545.5046"/>
    <polygon points="233.7371,509.493 192.7545,544.1669 222.7664,560.8879"/>
    <polygon points="237.518,506.64 190.2563,542.3027 221.4836,565.6052"/>
    <polygon points="241.8505,503.7557 187.6949,539.8088 219.7126,570.9833"/>
    <polygon points="185.1155,536.568 217.3586,577.0773 246.784,500.9025"/>
    <polygon points="214.3144,583.9398 252.3672,498.1594 182.5764,532.4488"/>
    <polygon points="210.4594,591.6193 258.6468,495.6251 180.1518,527.3035"/>
    <polygon points="205.6588,600.1583 265.6654,493.4213 177.9338,520.9683"/>
    <polygon points="176.0356,513.2621 199.7632,609.5898 273.4593,491.696"/>
    <polygon points="282.0562,490.6273 174.5946,503.9862 192.6072,619.9343"/>
    <polygon points="184.0103,631.1958 291.4719,490.4276 173.7759,492.9245"/>
    <polygon points="56.1716,628.7549 173.7759,630.2754 163.5494,491.6548"/>
    <polygon points="65.58,628.8766 172.9578,619.1858 154.9592,502.6229"/>
    <polygon points="74.1702,628.1013 171.5179,609.8608 147.8088,512.7231"/>
    <polygon points="81.958,626.6421 169.6212,602.0898 141.9178,521.9534"/>
    <polygon points="88.9711,624.6779 167.4049,595.6788 137.121,530.3285"/>
    <polygon points="133.269,537.8765 95.2458,622.358 164.9822,590.4508"/>
    <polygon points="130.2271,544.635 100.8247,619.8054 162.4451,586.2449"/>
    <polygon points="159.8677,582.9161 127.8749,550.6486 105.7543,617.1205"/>
    <polygon points="110.0834,614.3842 157.3083,580.3347 126.1053,555.9664"/>
    <polygon points="124.8235,560.6398 113.8614,611.6602 154.812,578.3852"/>
    <polygon points="123.9466,564.7214 117.1374,608.9982 152.4129,576.9656"/>
    <polygon points="150.1356,575.986 123.4018,568.2636 119.9595,606.4356"/>
    <polygon points="123.1264,571.3173 122.3736,603.9996 147.9969,575.3682"/>
    <polygon points="123.0662,573.9319 124.4234,601.7092 146.0073,575.0442"/>
    <polygon points="126.1501,599.5759 144.172,574.9552 123.1748,576.1541"/>
    <polygon points="142.4922,575.0511 123.4128,578.0278 127.5919,597.6063"/>
    <polygon points="128.7839,595.8019 140.9659,575.2892 123.7471,579.5941"/>
    <polygon points="139.5884,575.6336 124.1501,580.8908 129.7585,594.1608"/>
    <polygon points="130.5449,592.6786 138.3533,576.0542 124.5988,581.9523"/>
    <polygon points="125.0744,582.8104 131.1695,591.3487 137.2529,576.5261"/>
    <polygon points="88.5515,528.0734 82.4681,541.3826 94.6466,533.5875"/>
    <polygon points="81.3677,542.0095 95.1223,534.1724 89.1762,526.8616"/>
    <polygon points="95.571,534.9273 89.9626,525.4908 80.1327,542.6254"/>
    <polygon points="95.9739,535.8819 90.9371,523.9498 78.7552,543.2117"/>
    <polygon points="77.2288,543.7459 96.3082,537.0692 92.1292,522.2284"/>
    <polygon points="75.549,544.1998 96.5463,538.5258 93.5709,520.3179"/>
    <polygon points="95.2976,518.2117 73.7138,544.5396 96.6548,540.2922"/>
    <polygon points="97.3475,515.9062 71.7241,544.7246 96.5946,542.4128"/>
    <polygon points="69.5854,544.7062 96.3192,544.9354 99.7616,513.4019"/>
    <polygon points="67.3081,544.4274 95.7745,547.9121 102.5836,510.704"/>
    <polygon points="94.8975,551.398 105.8597,507.8242 64.909,543.8213"/>
    <polygon points="62.4128,542.81 93.6158,555.4515 109.6377,504.782"/>
    <polygon points="91.8461,560.1338 113.9667,501.6062 59.8534,541.3036"/>
    <polygon points="89.4939,565.5074 118.8964,498.3372 57.2759,539.1988"/>
    <polygon points="86.4521,571.6359 124.4753,495.0293 54.7389,536.3783"/>
    <polygon points="52.3162,532.7084 82.6001,578.5823 130.75,491.7529"/>
    <polygon points="137.763,488.5976 50.0999,528.0389 77.8033,586.407"/>
    <polygon points="71.9122,595.1663 145.5509,485.6755 48.2032,522.2017"/>
    <polygon points="46.7633,515.0098 64.7618,604.9091 154.1411,483.1247"/>
    <polygon points="56.1716,615.6739 163.5494,481.1132 45.9452,506.2564"/>
    <polygon points="45.9452,627.4852 173.7759,479.8435 45.9452,495.7148"/>
    <polygon points="94.4266,447.4381 107.9575,459.3916 110.8831,441.5711"/>
    <polygon points="95.5091,448.3944 108.1915,457.9659 109.5666,442.0405"/>
    <polygon points="96.5237,449.1601 108.3015,456.6919 108.442,442.5488"/>
    <polygon points="107.4885,443.0777 97.4659,449.7626 108.3128,455.5605"/>
    <polygon points="108.2468,454.5618 106.6867,443.6125 98.3336,450.2265"/>
    <polygon points="112.4135,441.1633 93.2837,446.2608 107.57,460.9766"/>
    <polygon points="106.9952,462.7273 114.1806,440.8445 92.0914,444.829"/>
    <polygon points="116.2081,440.648 90.8651,443.1056 106.194,464.6472"/>
    <polygon points="89.6253,441.0507 105.1222,466.7372 118.5196,440.6129"/>
    <polygon points="88.3989,438.6209 103.7295,468.9937 121.1388,440.7861"/>
    <polygon points="87.2197,435.7698 101.9592,471.4087 124.0883,441.2224"/>
    <polygon points="127.389,441.9853 86.1303,432.4482 99.7479,473.9672"/>
    <polygon points="85.1829,428.6049 97.0252,476.6471 131.0591,443.1488"/>
    <polygon points="93.7132,479.4166 135.1128,444.7977 84.4411,424.1865"/>
    <polygon points="83.9815,419.139 89.7266,482.2329 139.559,447.0289"/>
    <polygon points="84.9725,485.0399 144.3994,449.9524 83.8954,413.4084"/>
    <polygon points="79.3504,487.7658 149.6262,453.6924 84.2906,406.9426"/>
    <polygon points="85.2938,399.6923 72.753,490.3203 155.2203,458.3881"/>
    <polygon points="161.148,464.1945 87.0528,391.6141 65.0665,492.5921"/>
    <polygon points="56.1716,494.4451 167.3575,471.2834 89.7381,382.6723"/>
    <polygon points="173.7759,479.8435 93.5461,372.8425 45.9452,495.7148"/>
    <polygon points="163.852,326.645 180.6263,349.4517 210.2672,326.794"/>
    <polygon points="206.554,326.782 165.194,328.4696 182.9975,347.6391"/>
    <polygon points="203.2452,326.917 166.6183,330.0031 184.8821,345.9706"/>
    <polygon points="168.0794,331.2805 186.3511,344.4463 200.315,327.1639"/>
    <polygon points="187.4682,343.0637 197.7362,327.4933 169.5411,332.3338"/>
    <polygon points="188.2897,341.8181 195.4806,327.8805 170.9753,333.1922"/>
    <polygon points="193.5201,328.3054 172.3604,333.8822 188.8649,340.703"/>
    <polygon points="189.2373,339.7112 191.8274,328.7516 173.6808,334.4279"/>
    <polygon points="174.9253,334.8506 189.4445,338.8345 190.3756,329.2057"/>
    <polygon points="176.0868,335.1693 189.519,338.0642 189.1396,329.6573"/>
    <polygon points="214.4079,326.9941 162.6488,324.492 177.6888,351.4046"/>
    <polygon points="218.9952,327.431 161.6534,321.9705 174.0969,353.4892"/>
    <polygon points="169.7538,355.6917 224.0427,328.1608 160.949,319.0382"/>
    <polygon points="164.5535,357.9911 229.5564,329.2486 160.6355,315.651"/>
    <polygon points="160.8315,311.7635 158.3814,360.3582 235.5325,330.769"/>
    <polygon points="161.6765,307.3295 151.1142,362.754 241.9547,332.8072"/>
    <polygon points="248.7914,335.4597 163.3336,302.3036 142.6205,365.1274"/>
    <polygon points="255.9913,338.8352 165.9919,296.6418 132.7622,367.4137"/>
    <polygon points="121.3954,369.5318 263.4801,343.0553 169.8699,290.3036"/>
    <polygon points="271.1552,348.2555 175.2175,283.2533 108.3728,371.3819"/>
    <polygon points="93.5461,372.8425 278.88,354.5853 182.3193,275.463"/>
    <polygon points="249.2296,292.2617 263.6784,280.9084 248.5667,273.6059"/>
    <polygon points="250.3855,291.3534 262.4694,280.3242 248.6198,275.0984"/>
    <polygon points="261.3615,279.9062 248.761,276.3988 251.3522,290.4711"/>
    <polygon points="252.153,289.6259 260.3534,279.6256 248.9683,277.5245"/>
    <polygon points="252.809,288.8259 259.4426,279.4575 249.2231,278.4927"/>
    <polygon points="247.8594,293.1808 264.9871,281.6915 248.6282,271.9037"/>
    <polygon points="248.8352,269.9744 246.2479,294.0913 266.3916,282.7104"/>
    <polygon points="244.3665,294.9682 267.8845,284.0068 249.2238,267.801"/>
    <polygon points="242.1849,295.7804 269.4539,285.6276 249.8359,265.368"/>
    <polygon points="271.083,287.6246 250.7197,262.6618 239.6721,296.4896"/>
    <polygon points="272.7484,290.0553 251.9305,259.6716 236.7958,297.0491"/>
    <polygon points="253.531,256.3906 233.5242,297.4027 274.4195,292.9827"/>
    <polygon points="229.8258,297.4834 276.0566,296.4753 255.5924,252.8173"/>
    <polygon points="225.6706,297.2118 277.6099,300.6074 258.1942,248.9569"/>
    <polygon points="261.4258,244.8232 221.0318,296.4947 279.0172,305.4582"/>
    <polygon points="265.3857,240.4406 215.8865,295.2236 280.2025,311.1118"/>
    <polygon points="210.2181,293.2729 281.0738,317.6567 270.1829,235.8464"/>
    <polygon points="275.9363,231.0941 204.0178,290.498 281.5205,325.1838"/>
    <polygon points="197.288,286.7339 281.4114,333.7863 282.7753,226.2559"/>
    <polygon points="190.0442,281.7927 280.5916,343.5567 290.8389,221.4266"/>
    <polygon points="298.5638,227.7564 291.7623,352.3138 428.7382,317.4345"/>
    <polygon points="302.7204,349.5234 418.3242,310.2602 298.0196,237.721"/>
    <polygon points="298.3957,246.6652 311.9687,346.3824 408.6999,304.4571"/>
    <polygon points="399.8755,299.8337 299.4815,254.6426 319.7072,343.0284"/>
    <polygon points="326.1206,339.5728 391.844,296.2184 301.0996,261.7134"/>
    <polygon points="384.5845,293.458 303.1013,267.9422 331.3785,336.1044"/>
    <polygon points="305.3635,273.3951 335.635,332.6927 378.0658,291.4168"/>
    <polygon points="339.0294,329.3907 372.2496,289.975 307.7852,278.139"/>
    <polygon points="310.2847,282.2391 341.6871,326.2374 367.0925,289.0281"/>
    <polygon points="362.5478,288.485 312.7969,285.759 343.7195,323.2606"/>
    <polygon points="315.2707,288.7591 345.2258,320.4786 358.5678,288.2669"/>
    <polygon points="355.104,288.3063 317.6671,291.2967 346.2931,317.9017"/>
    <polygon points="346.998,315.5341 352.1091,288.5455 319.9572,293.425"/>
    <polygon points="322.1204,295.1938 347.4069,313.375 349.5369,288.9359"/>
    <polygon points="324.1434,296.6483 347.5773,311.4198 347.3436,289.4365"/>
    <polygon points="326.0181,297.83 347.5586,309.6612 345.4876,290.0135"/>
    <polygon points="343.93,290.6388 327.7413,298.7765 347.3929,308.0894"/>
    <polygon points="347.1159,306.6933 342.6349,291.2898 329.3134,299.5215"/>
    <polygon points="330.7376,300.0953 346.7574,305.461 341.5692,291.9483"/>
    <polygon points="346.3424,304.38 340.7027,292.6001 332.0192,300.5245"/>
    <polygon points="419.9541,394.0604 381.5895,349.6324 352.579,385.0138"/>
    <polygon points="379.2686,352.4629 357.969,385.7375 416.885,390.5062"/>
    <polygon points="377.5647,355.1248 362.6823,386.119 413.8756,387.4627"/>
    <polygon points="366.7777,386.2265 410.9708,384.8757 376.3741,357.6044"/>
    <polygon points="408.203,382.694 375.6064,359.8942 370.3132,386.1184"/>
    <polygon points="373.3444,385.8444 405.5953,380.87 375.1829,361.9921"/>
    <polygon points="403.1623,379.3598 375.0358,363.9003 375.9244,385.4465"/>
    <polygon points="400.9122,378.123 375.1069,365.624 378.1035,384.9596"/>
    <polygon points="398.8478,377.1231 375.3466,367.1708 379.9282,384.4127"/>
    <polygon points="375.7132,368.5502 381.4417,383.8295 396.9677,376.3269"/>
    <polygon points="376.1714,369.7725 382.6838,383.2293 395.2673,375.7048"/>
    <polygon points="393.7396,375.2302 376.6924,370.8491 383.6905,382.6273"/>
    <polygon points="384.4944,382.0356 392.3758,374.8797 377.2523,371.7913"/>
    <polygon points="423.0245,398.1826 384.6448,346.6553 346.4533,383.8686"/>
    <polygon points="339.5344,382.2109 426.0208,402.9321 388.5674,343.5635"/>
    <polygon points="393.5065,340.4007 331.768,379.9363 428.8481,408.3696"/>
    <polygon points="431.3889,414.5562 399.6284,337.2246 323.1053,376.9258"/>
    <polygon points="407.1173,334.1097 313.5058,373.0454 433.4995,421.5515"/>
    <polygon points="302.9406,368.1439 435.0059,429.4125 416.1761,331.1502"/>
    <polygon points="435.6997,438.1907 427.0266,328.463 291.3963,362.0529"/>
    <polygon points="435.3337,447.9297 439.9089,326.1916 278.88,354.5853"/>
    <polygon points="492.8383,398.8143 486.5309,387.575 477.3887,395.68"/>
    <polygon points="492.3337,397.9151 485.7995,388.2234 478.6246,395.9308"/>
    <polygon points="476.0045,395.3174 493.3072,399.8502 487.4462,386.9018"/>
    <polygon points="488.5751,386.2133 474.4641,394.8201 493.7187,401.036"/>
    <polygon points="472.7613,394.1623 494.0464,402.385 489.9502,385.522"/>
    <polygon points="470.892,393.3147 494.2584,403.9103 491.6074,384.8444"/>
    <polygon points="494.3169,405.6241 493.5859,384.2009 468.855,392.2443"/>
    <polygon points="494.1768,407.5378 495.9279,383.6172 466.6531,390.9144"/>
    <polygon points="464.2938,389.2843 493.7853,409.6607 498.6787,383.1244"/>
    <polygon points="461.7906,387.309 493.0809,411.9998 501.8864,382.7605"/>
    <polygon points="505.6014,382.571 459.1643,384.9394 491.9922,414.5589"/>
    <polygon points="490.4371,417.337 509.8758,382.61 456.445,382.1223"/>
    <polygon points="453.6731,378.8 488.3218,420.3279 514.763,382.9413"/>
    <polygon points="450.902,374.9115 485.5397,423.5182 520.3161,383.6396"/>
    <polygon points="448.2004,370.392 481.9703,426.8858 526.587,384.7915"/>
    <polygon points="477.4786,430.3978 533.6246,386.4974 445.6545,365.1741"/>
    <polygon points="443.3711,359.1885 471.9139,434.0087 541.4728,388.8721"/>
    <polygon points="550.1677,392.0466 441.4808,352.3651 465.1092,437.6576"/>
    <polygon points="440.1417,344.6346 456.8809,441.2653 559.7352,396.1694"/>
    <polygon points="447.0282,444.7312 570.1868,401.4075 439.5428,335.9306"/>
    <polygon points="441.9406,457.0234 523.0076,549.3079 569.8207,411.1466"/>
    <polygon points="448.426,464.4061 526.7527,538.2549 559.5903,414.8167"/>
    <polygon points="454.6921,470.314 529.3797,528.3799 550.6972,418.7839"/>
    <polygon points="460.6671,474.9593 531.0851,519.6122 543.0168,422.9063"/>
    <polygon points="466.3006,478.5315 532.0396,511.8757 536.4288,427.0705"/>
    <polygon points="471.5597,481.1991 532.3908,505.0913 530.8185,431.1874"/>
    <polygon points="526.0778,435.1883 476.4262,483.1104 532.265,499.179"/>
    <polygon points="522.1057,439.0221 480.8933,484.3959 531.77,494.0598"/>
    <polygon points="484.9634,485.169 530.9969,489.6567 518.8087,442.652"/>
    <polygon points="516.1011,446.0534 488.6461,485.528 530.0218,485.8964"/>
    <polygon points="513.9047,449.2113 491.9562,485.5575 528.9081,482.7089"/>
    <polygon points="527.7079,480.0291 512.1488,452.119 494.9123,485.3296"/>
    <polygon points="510.7699,454.7759 497.536,484.9056 526.4631,477.7963"/>
    <polygon points="525.2077,475.9547 509.7112,457.1862 499.8501,484.3368"/>
    <polygon points="523.968,474.4532 508.9223,459.3583 501.8787,483.6663"/>
    <polygon points="522.7643,473.2456 508.3588,461.303 503.6459,482.9292"/>
    <polygon points="521.6119,472.2902 507.9818,463.033 505.1754,482.1545"/>
    <polygon points="506.4903,481.3654 520.5215,471.5496 507.7573,464.5628"/>
    <polygon points="519.5003,470.9907 507.6559,465.907 507.6128,480.5801"/>
    <polygon points="518.5528,470.584 507.6524,467.0808 508.5638,479.813"/>
    <polygon points="435.3337,447.9297 278.88,354.5853 301.7063,491.3479 435.3337,447.9297 301.7063,631.8521 435.3337,675.2703 435.3337,447.9297 301.7063,491.3479 301.7063,631.8521"/>
    <polygon points="312.3965,487.8744 422.8174,440.4622 280.7061,365.5263"/>
    <polygon points="283.2413,375.3142 321.2302,484.0815 411.4485,434.4673"/>
    <polygon points="328.4476,480.1123 401.1919,429.735 286.2804,384.0155"/>
    <polygon points="391.999,426.0775 289.6538,391.7033 334.2672,476.0822"/>
    <polygon points="383.8114,423.3276 293.2229,398.4536 338.8857,472.0818"/>
    <polygon points="376.5643,421.3376 296.8759,404.3438 342.4798,468.1814"/>
    <polygon points="300.5242,409.4509 345.2065,464.4339 370.1892,419.9781"/>
    <polygon points="304.0988,413.8495 347.2051,460.8775 364.6161,419.136"/>
    <polygon points="359.7747,418.713 307.5473,417.6117 348.598,457.5382"/>
    <polygon points="349.4922,454.4321 355.5965,418.6249 310.8314,420.8058"/>
    <polygon points="313.9242,423.4959 349.9805,451.5676 352.0153,418.7994"/>
    <polygon points="350.1433,448.9461 348.968,419.1751 316.8087,425.7417"/>
    <polygon points="346.3952,419.7004 319.4755,427.598 350.0493,446.5644"/>
    <polygon points="321.9214,429.1154 349.7569,444.4153 344.2417,420.3322"/>
    <polygon points="324.1482,430.3394 349.3157,442.4887 342.456,421.0349"/>
    <polygon points="348.7669,440.7724 340.9914,421.7793 326.1616,431.3113"/>
    <polygon points="327.9701,432.0682 348.1449,439.2529 339.805,422.5418"/>
    <polygon points="329.584,432.6429 347.4777,437.916 338.8582,423.3039"/>
    <polygon points="338.1163,424.0511 331.0155,433.0648 346.7881,436.7471"/>
    <polygon points="346.0944,435.7314 337.5482,424.7722 332.2773,433.3594"/>
    <polygon points="297.5275,471.1428 263.5548,373.8986 193.2799,480.7353"/>
    <polygon points="257.9328,382.4455 201.6197,479.9679 294.8097,463.3633"/>
    <polygon points="209.0749,478.6395 291.8595,456.8899 253.4277,390.2473"/>
    <polygon points="249.8795,397.3187 215.6977,476.8996 288.785,451.5584"/>
    <polygon points="247.145,403.6852 221.5447,474.8723 285.6726,447.2193"/>
    <polygon points="245.0969,409.3801 226.6749,472.66 282.5903,443.7365"/>
    <polygon points="279.5909,440.988 243.6232,414.4425 231.1481,470.3462"/>
    <polygon points="242.6252,418.9148 235.0235,467.9975 276.7134,438.8644"/>
    <polygon points="273.9864,437.2684 242.017,422.8414 238.3587,465.6668"/>
    <polygon points="271.4288,436.1143 241.7244,426.2675 241.209,463.395"/>
    <polygon points="269.0525,435.3265 241.6831,429.2377 243.6265,461.2125"/>
    <polygon points="245.6606,459.1416 266.863,434.8394 241.8386,431.7956"/>
    <polygon points="242.1444,433.9833 247.3568,457.1974 264.861,434.5959"/>
    <polygon points="248.7571,455.3893 263.0437,434.5469 242.5614,435.8404"/>
    <polygon points="243.057,437.4044 249.9,453.722 261.4051,434.6504"/>
    <polygon points="243.6045,438.7098 250.8205,452.1962 259.9372,434.8707"/>
    <polygon points="251.5498,450.8102 258.6306,435.1778 244.1818,439.7887"/>
    <polygon points="252.1163,449.5596 257.4747,435.5467 244.7712,440.6704"/>
    <polygon points="252.5449,448.4386 256.4584,435.9566 245.3588,441.3815"/>
    <polygon points="220.498,366.0632 125.7886,402.6146 199.9154,438.5934"/>
    <polygon points="131.7187,405.4929 201.562,432.791 212.9213,368.9874"/>
    <polygon points="202.4708,427.6867 206.4251,371.9078 137.3062,407.6768"/>
    <polygon points="202.7871,423.2244 200.8955,374.7693 142.5194,409.2776"/>
    <polygon points="202.6358,419.348 196.2254,377.53 147.3408,410.3933"/>
    <polygon points="151.7644,411.1097 202.123,416.0025 192.3147,380.1591"/>
    <polygon points="201.3383,413.1351 189.0706,382.6351 155.7931,411.5011"/>
    <polygon points="200.3569,410.6951 186.4084,384.9444 159.4367,411.6318"/>
    <polygon points="184.2507,387.0794 162.7103,411.5569 199.241,408.635"/>
    <polygon points="198.0418,406.9106 182.5275,389.0376 165.6327,411.3232"/>
    <polygon points="196.8006,405.4807 181.1759,390.8204 168.2255,410.9701"/>
    <polygon points="170.5115,410.531 195.5507,404.3079 180.1399,392.4324"/>
    <polygon points="194.3178,403.3578 179.3696,393.8803 172.5146,410.0331"/>
    <polygon points="178.8212,395.1725 174.2589,409.4991 193.122,402.5996"/>
    <polygon points="191.9779,402.0055 178.4562,396.3186 175.7679,408.9471"/>
    <polygon points="178.2412,397.3289 177.0647,408.3918 190.8962,401.5505"/>
    <polygon points="229.2748,363.2065 119.5648,398.916 197.3624,445.1488"/>
    <polygon points="239.3755,360.5065 113.1174,394.2557 193.7091,452.509"/>
    <polygon points="188.7337,460.7207 250.9262,358.0744 106.5421,388.4762"/>
    <polygon points="99.9645,381.4026 182.1842,469.8228 264.0533,356.0459"/>
    <polygon points="184.0103,480.7638 299.8802,480.4069 270.4717,364.606"/>
    <polygon points="278.88,354.5853 173.7759,479.8435 301.7063,491.3479 278.88,354.5853 93.5461,372.8425 173.7759,479.8435"/>
    <polygon points="300.2754,216.7278 182.3193,275.463 278.88,354.5853 300.2754,216.7278 278.88,354.5853 439.9089,326.1916"/>
    <polygon points="381.3368,231.8528 379.5654,257.6155 410.7658,258.0206"/>
    <polygon points="408.4115,255.9272 381.1951,233.9138 382.0615,257.648"/>
    <polygon points="406.2342,254.1661 381.2644,235.8125 384.1695,257.5103"/>
    <polygon points="404.2366,252.6978 381.4968,237.5484 385.9346,257.2427"/>
    <polygon points="381.8518,239.1239 387.3988,256.8792 402.4174,251.4859"/>
    <polygon points="388.6003,256.4477 400.7722,250.4969 382.2956,240.5443"/>
    <polygon points="382.8,241.8166 389.574,255.9716 399.294,249.7007"/>
    <polygon points="383.3419,242.949 390.3516,255.47 397.9745,249.07"/>
    <polygon points="390.9615,254.958 396.8039,248.5803 383.9026,243.9507"/>
    <polygon points="413.2893,260.489 381.7458,229.6343 376.6329,257.3657"/>
    <polygon points="373.2125,256.8429 415.9677,263.3777 382.4878,227.2683"/>
    <polygon points="383.6389,224.7714 369.2502,255.9827 418.7789,266.7348"/>
    <polygon points="421.6912,270.6102 385.2866,222.168 364.6901,254.7108"/>
    <polygon points="387.5311,219.492 359.4752,252.9417 424.6617,275.0552"/>
    <polygon points="427.6335,280.1219 390.4862,216.7888 353.5484,250.5782"/>
    <polygon points="346.854,247.5101 430.5338,285.8614 394.2802,214.1174"/>
    <polygon points="339.3395,243.6133 433.2708,292.323 399.0577,211.5526"/>
    <polygon points="435.7309,299.5522 404.9794,209.1877 330.9576,238.7491"/>
    <polygon points="321.6692,232.763 437.775,307.5882 412.2238,207.1376"/>
    <polygon points="311.4461,225.4849 439.2349,316.4618 420.9871,205.5422"/>
    <polygon points="439.9089,326.1916 431.4837,204.5696 300.2754,216.7278"/>
    <polygon points="484.051,261.4892 478.2543,248.4781 467.3112,261.424"/>
    <polygon points="483.5873,260.4484 477.3789,249.5138 468.6504,261.4292"/>
    <polygon points="483.0906,259.5736 476.6806,250.467 469.8453,261.3508"/>
    <polygon points="470.9049,261.2086 482.5778,258.8451 476.1338,251.3377"/>
    <polygon points="479.3356,247.3622 465.8198,261.3115 484.4611,262.7177"/>
    <polygon points="464.1701,261.0642 484.7921,264.1566 480.6543,246.1707"/>
    <polygon points="462.3576,260.6497 485.0136,265.83 482.2454,244.9116"/>
    <polygon points="460.381,260.0311 485.0889,267.7633 484.1466,243.5969"/>
    <polygon points="484.975,269.9825 486.3991,242.2431 458.2424,259.1658"/>
    <polygon points="455.9486,258.0051 484.6209,272.5138 489.047,240.8724"/>
    <polygon points="492.137,239.514 453.5122,256.494 483.9674,275.3834"/>
    <polygon points="495.7182,238.2048 450.9528,254.5703 482.9455,278.6163"/>
    <polygon points="448.2986,252.1646 481.4763,282.2359 499.8417,236.9909"/>
    <polygon points="504.5594,235.9293 445.5881,249.1995 479.4691,286.2625"/>
    <polygon points="442.8722,245.5897 476.8209,290.7124 509.9235,235.0893"/>
    <polygon points="440.2162,241.2414 473.4153,295.5957 515.985,234.5543"/>
    <polygon points="437.7027,236.0524 469.1216,300.9149 522.7922,234.4241"/>
    <polygon points="530.3886,234.8164 435.4339,229.9123 463.7941,306.6626"/>
    <polygon points="538.8106,235.8697 433.5351,222.7031 457.2709,312.8185"/>
    <polygon points="548.0847,237.7454 432.1578,214.2993 449.374,319.3466"/>
    <polygon points="548.7587,247.4752 451.2374,332.7321 579.652,394.5626"/>
    <polygon points="577.1805,382.7956 540.957,254.2957 461.5105,337.6785"/>
    <polygon points="470.7641,341.2879 574.2826,372.5156 534.6013,260.9663"/>
    <polygon points="479.0456,343.7861 571.1081,363.5917 529.4943,267.3921"/>
    <polygon points="525.4584,273.5036 486.4106,345.3705 567.779,355.8957"/>
    <polygon points="522.3346,279.2529 492.9201,346.2126 564.3934,349.3044"/>
    <polygon points="519.9814,284.6097 498.6379,346.4599 561.0287,343.7002"/>
    <polygon points="503.6292,346.2391 557.7449,338.973 518.274,289.5577"/>
    <polygon points="517.1024,294.0922 507.9585,345.6578 554.5872,335.0198"/>
    <polygon points="551.5884,331.7456 516.3708,298.2175 511.6888,344.8068"/>
    <polygon points="514.8807,343.7619 548.7711,329.0633 515.9963,301.9446"/>
    <polygon points="546.149,326.8938 515.907,305.29 517.592,342.586"/>
    <polygon points="519.8765,341.3306 543.7297,325.1655 516.0419,308.2737"/>
    <polygon points="521.7848,340.0374 541.5146,323.8142 516.3486,310.9182"/>
    <polygon points="539.5014,322.7825 516.7835,313.2478 523.3632,338.7396"/>
    <polygon points="537.684,322.0197 517.3099,315.2871 524.6542,337.463"/>
    <polygon points="536.054,321.4811 517.8975,317.0612 525.6966,336.2275"/>
    <polygon points="526.5252,335.0478 534.6015,321.1275 518.5214,318.5945"/>
    <polygon points="533.3151,320.9249 519.1617,319.9108 527.1713,333.9342"/>
    <polygon points="527.6628,332.8935 532.1828,320.8438 519.8024,321.0326"/>
    <polygon points="599.9271,314.9026 597.1418,327.064 606.0494,326.6515"/>
    <polygon points="596.3232,327.003 606.5545,327.7646 600.2405,313.8503"/>
    <polygon points="600.6623,312.7223 595.389,326.8231 607.0669,329.0726"/>
    <polygon points="607.5759,330.5985 601.213,311.5247 594.3293,326.4948"/>
    <polygon points="608.0681,332.3665 601.9155,310.2673 593.1346,325.9842"/>
    <polygon points="608.5266,334.4015 602.7954,308.9643 591.7962,325.2523"/>
    <polygon points="608.9305,336.729 603.8814,307.6347 590.3063,324.2543"/>
    <polygon points="605.2051,306.3039 588.6586,322.9394 609.2545,339.3747"/>
    <polygon points="586.8491,321.2504 609.4678,342.3634 606.8013,305.0042"/>
    <polygon points="608.7078,303.7765 584.8765,319.1227 609.5339,345.7188"/>
    <polygon points="609.4094,349.462 610.9656,302.6714 582.7432,316.4845"/>
    <polygon points="609.0434,353.6108 613.6186,301.751 580.4562,313.2562"/>
    <polygon points="616.7134,301.0902 578.0284,309.35 608.3765,358.1778"/>
    <polygon points="607.3397,363.169 620.299,300.779 575.4796,304.67"/>
    <polygon points="572.8383,299.1125 605.8539,368.5816 624.426,300.9239"/>
    <polygon points="603.8285,374.4017 629.1462,301.6507 570.1435,292.5656"/>
    <polygon points="601.1605,380.6013 634.5115,303.1064 567.4464,284.9103"/>
    <polygon points="597.7333,387.1352 640.5722,305.4616 564.8127,276.0212"/>
    <polygon points="562.3254,265.7676 593.4166,393.9371 647.3763,308.9132"/>
    <polygon points="560.0873,254.0157 588.0644,400.9154 654.9666,313.6869"/>
    <polygon points="581.5153,407.9481 663.379,320.0397 558.2239,240.6302"/>
    <polygon points="666.7825,382.0348 649.1448,383.1995 661.7143,394.8266"/>
    <polygon points="665.3715,382.128 650.1504,384.1297 662.1198,393.8032"/>
    <polygon points="664.1537,382.2881 651.1079,384.9036 662.3799,392.8692"/>
    <polygon points="662.5218,392.0228 663.1101,382.4974 652.0097,385.5408"/>
    <polygon points="661.1323,395.9394 668.4068,382.0299 648.1024,382.0917"/>
    <polygon points="647.0384,380.7832 660.3382,397.1395 670.2649,382.1383"/>
    <polygon points="672.3773,382.3895 645.973,379.2494 659.2913,398.4221"/>
    <polygon points="657.9459,399.779 674.7638,382.8178 644.9319,377.4642"/>
    <polygon points="677.4435,383.4628 643.9476,375.4004 656.2504,401.1978"/>
    <polygon points="643.0607,373.0299 654.1475,402.661 680.4333,384.37"/>
    <polygon points="642.3204,370.3242 651.5737,404.1454 683.7474,385.5913"/>
    <polygon points="641.7867,367.255 648.4586,405.6201 687.3962,387.1858"/>
    <polygon points="641.5311,363.7949 644.726,407.0462 691.3845,389.2198"/>
    <polygon points="695.7102,391.7677 641.6388,359.9184 640.2925,408.3748"/>
    <polygon points="642.2101,355.603 635.0691,409.5454 700.3624,394.9125"/>
    <polygon points="705.3189,398.7457 643.3622,350.8307 628.9604,410.4845"/>
    <polygon points="621.8662,411.1034 710.544,403.368 645.2314,345.5896"/>
    <polygon points="715.9847,408.889 647.9748,339.876 613.682,411.2959"/>
    <polygon points="651.7726,333.6968 604.3005,410.9366 721.5684,415.4275"/>
    <polygon points="727.1978,423.1105 656.83,327.0724 593.6138,409.878"/>
    <polygon points="720.6487,430.1432 585.9893,420.2402 645.0646,551.2378"/>
    <polygon points="651.1113,541.5503 709.8759,429.351 590.7153,430.72"/>
    <polygon points="595.5469,439.5864 655.8125,532.5743 700.3431,429.4605"/>
    <polygon points="659.3749,524.3252 691.9594,430.2705 600.3682,447.0255"/>
    <polygon points="661.9817,516.8008 684.6321,431.6109 605.0888,453.2094"/>
    <polygon points="678.2686,433.3388 609.6402,458.2968 663.7937,509.9857"/>
    <polygon points="613.9725,462.4319 664.9517,503.8539 672.7783,435.3354"/>
    <polygon points="665.5778,498.3724 668.0738,437.5032 618.0508,465.7456"/>
    <polygon points="664.072,439.7626 621.853,468.3558 665.7775,493.5029"/>
    <polygon points="625.3669,470.3676 665.641,489.2037 660.6945,442.05"/>
    <polygon points="665.2454,485.4314 657.8683,444.3154 628.5889,471.8744"/>
    <polygon points="655.5259,446.5201 631.5214,472.959 664.6552,482.1421"/>
    <polygon points="663.9249,479.2923 653.6056,448.6352 634.1721,473.6936"/>
    <polygon points="636.5523,474.1415 663.0993,476.8398 652.0509,450.6399"/>
    <polygon points="650.811,452.52 638.6761,474.3574 662.2154,474.7438"/>
    <polygon points="661.3031,472.9659 649.8402,454.267 640.5592,474.3883"/>
    <polygon points="660.386,471.47 649.0977,455.8767 642.2188,474.2745"/>
    <polygon points="659.483,470.2225 648.5474,457.3486 643.6721,474.0501"/>
    <polygon points="644.937,473.7439 658.6082,469.1926 648.1574,458.6847"/>
    <polygon points="646.0307,473.3798 657.7721,468.352 647.8998,459.8894"/>
    <polygon points="564.8071,473.913 564.2745,547.9805 607.7937,509.2546"/>
    <polygon points="604.3548,506.4273 564.7645,479.8384 567.756,544.8824"/>
    <polygon points="570.684,541.806 601.1876,504.3002 565.0038,485.0419"/>
    <polygon points="565.4582,489.583 573.1242,538.8055 598.2928,502.7595"/>
    <polygon points="575.1377,535.9219 595.6661,501.7054 566.0715,493.5208"/>
    <polygon points="566.7968,496.9129 576.78,533.1845 593.2985,501.0506"/>
    <polygon points="591.1783,500.7196 567.5954,499.8146 578.1014,530.6138"/>
    <polygon points="579.1476,528.2223 589.2918,500.6472 568.4359,502.2786"/>
    <polygon points="569.2928,504.3541 579.9592,526.0163 587.6233,500.7777"/>
    <polygon points="586.1569,501.0638 570.1461,506.087 580.5723,523.9972"/>
    <polygon points="581.019,522.1625 584.876,501.4657 570.9802,507.5199"/>
    <polygon points="581.3276,520.5068 583.7643,501.95 571.7833,508.6912"/>
    <polygon points="582.8058,502.4893 572.5469,509.6365 581.5225,519.0222"/>
    <polygon points="581.9851,503.0611 573.265,510.3874 581.6252,517.6996"/>
    <polygon points="560.1682,551.03 611.4966,512.9109 565.2104,467.2072"/>
    <polygon points="555.3614,553.9421 615.447,517.5409 566.0668,459.665"/>
    <polygon points="619.6177,523.3067 567.4836,451.2353 549.7739,556.606"/>
    <polygon points="623.9684,530.3878 569.5847,441.8744 543.3221,558.8859"/>
    <polygon points="628.4429,538.9824 572.512,431.549 535.9204,560.6166"/>
    <polygon points="632.966,549.3079 576.4276,420.2402 527.4816,561.6"/>
    <polygon points="637.44,561.6 581.5153,407.9481 517.92,561.6"/>
    <polygon points="714.7414,604.7717 704.5069,598.6075 707.899,610.9476"/>
    <polygon points="704.2706,597.4926 707.2248,611.4296 715.6519,605.4046"/>
    <polygon points="704.085,596.2411 706.4045,611.8843 716.6577,606.2015"/>
    <polygon points="705.417,612.2925 717.761,607.189 703.9692,594.8453"/>
    <polygon points="718.9623,608.3968 703.9457,593.2987 704.2392,612.6313"/>
    <polygon points="702.8461,612.8725 720.2598,609.8577 704.0413,591.5967"/>
    <polygon points="721.6487,611.6073 704.2874,589.7371 701.2111,612.9825"/>
    <polygon points="704.7206,587.721 699.3058,612.9215 723.1208,613.6843"/>
    <polygon points="697.1009,612.6425 724.6632,616.1305 705.3832,585.5539"/>
    <polygon points="694.5655,612.0904 726.2579,618.9899 706.3238,583.2464"/>
    <polygon points="707.5982,580.8155 691.6685,611.2018 727.8805,622.3094"/>
    <polygon points="688.379,609.9031 729.4988,626.1376 709.2695,578.2861"/>
    <polygon points="684.6665,608.11 731.0719,630.5241 711.4089,575.6928"/>
    <polygon points="714.0963,573.0811 680.5029,605.7266 732.548,635.5192"/>
    <polygon points="717.421,570.5104 675.8628,602.6444 733.8634,641.1721"/>
    <polygon points="721.4814,568.0555 670.7257,598.7413 734.9401,647.53"/>
    <polygon points="665.0772,593.8808 735.6839,654.6362 726.3861,565.8099"/>
    <polygon points="658.9116,587.9116 735.9822,662.5273 732.2535,563.8879"/>
    <polygon points="735.7014,671.2315 739.2117,562.429 652.2341,580.6663"/>
    <polygon points="747.3984,561.6 645.0646,571.9622 734.6843,680.7646"/>
    <polygon points="756.96,561.6 637.44,561.6 732.7472,691.1268"/>
    <polygon points="659.9971,645.4414 637.3744,652.419 654.331,670.1184"/>
    <polygon points="654.7843,668.1442 658.1873,645.9996 638.7309,653.8349"/>
    <polygon points="655.0566,666.3727 656.6307,646.6264 640.0152,654.9797"/>
    <polygon points="655.3015,647.2947 641.2185,655.8911 655.1825,664.793"/>
    <polygon points="642.3356,656.6033 655.192,663.3931 654.1749,647.9824"/>
    <polygon points="643.3641,657.1464 655.1107,662.1603 653.2277,648.6721"/>
    <polygon points="653.6566,672.304 662.0874,644.985 635.9586,650.6898"/>
    <polygon points="652.7148,674.7068 664.4862,644.6705 634.5015,648.6014"/>
    <polygon points="651.4534,677.3295 667.2217,644.546 633.0274,646.1033"/>
    <polygon points="631.5678,643.141 649.8126,680.1696 670.3221,644.6681"/>
    <polygon points="630.1628,639.656 647.7256,683.2188 673.8142,645.1039"/>
    <polygon points="677.723,645.9316 628.8624,635.5859 645.1171,686.4612"/>
    <polygon points="682.0704,647.2417 627.7283,630.8655 641.9037,689.8716"/>
    <polygon points="686.8734,649.1387 626.8358,625.4265 637.9934,693.4136"/>
    <polygon points="692.1428,651.7421 626.275,619.1995 633.2847,697.0372"/>
    <polygon points="627.6676,700.6763 697.881,655.1879 626.1539,612.1146"/>
    <polygon points="626.6,604.1032 621.0231,704.2455 704.0794,659.6301"/>
    <polygon points="613.2238,707.6372 710.7156,665.2414 627.7632,595.1002"/>
    <polygon points="629.8179,585.0465 604.1345,710.7174 717.7501,672.2148"/>
    <polygon points="725.1227,680.7646 632.966,573.8922 593.6138,713.322"/>
    <polygon points="588.0644,722.2846 668.9285,794.1976 720.6487,693.0568"/>
    <polygon points="594.5335,728.0377 673.0661,786.1064 710.0419,695.395"/>
    <polygon points="676.0242,778.8495 700.8013,698.0065 600.8161,732.6832"/>
    <polygon points="678.0064,772.382 692.8024,700.7806 606.8328,736.3765"/>
    <polygon points="612.5266,739.2569 679.19,766.6539 685.9249,703.6282"/>
    <polygon points="617.8597,741.4487 679.7288,761.6119 680.053,706.4786"/>
    <polygon points="679.7548,757.2012 675.0776,709.2762 622.8093,743.0617"/>
    <polygon points="627.3649,744.1929 679.3806,753.3672 670.8961,711.979"/>
    <polygon points="667.4136,714.5561 631.5261,744.9268 678.7018,750.0562"/>
    <polygon points="635.3002,745.3372 677.7988,747.2161 664.5426,716.9858"/>
    <polygon points="638.7001,745.4875 676.7383,744.7977 662.2032,719.2539"/>
    <polygon points="660.3229,721.3526 641.7431,745.4323 675.5754,742.7542"/>
    <polygon points="658.8366,723.2789 644.4497,745.2181 674.3553,741.042"/>
    <polygon points="646.8422,744.884 673.1138,739.621 657.6856,725.0341"/>
    <polygon points="671.8795,738.454 656.8181,726.6221 648.9439,744.463"/>
    <polygon points="656.1882,728.0493 650.7787,743.9822 670.6746,737.5075"/>
    <polygon points="669.5157,736.7508 655.7554,729.324 652.3704,743.4642"/>
    <polygon points="668.4149,736.1567 655.4846,730.4552 653.742,742.9272"/>
    <polygon points="655.3452,731.4529 654.9158,742.3856 667.3804,735.7006"/>
    <polygon points="655.913,741.8508 666.4177,735.3608 655.3108,732.3276"/>
    <polygon points="732.7472,691.1268 581.5153,715.252 732.7472,691.1268 637.44,561.6 581.5153,715.252 663.379,803.1603"/>
    <polygon points="602.1461,792.357 596.0312,804.1139 604.941,804.5111"/>
    <polygon points="605.1318,805.6559 602.7466,791.3463 595.2399,803.9799"/>
    <polygon points="605.2758,806.9937 603.4752,790.2705 594.3672,803.7178"/>
    <polygon points="605.3563,808.5465 604.3503,789.1377 593.4116,803.2978"/>
    <polygon points="592.3732,802.6858 605.3532,810.3366 605.3918,787.9596"/>
    <polygon points="605.243,812.3874 606.6212,786.7524 591.2541,801.8422"/>
    <polygon points="590.059,800.7222 604.9979,814.7222 608.0614,785.5377"/>
    <polygon points="609.7367,784.3431 588.7958,799.2751 604.5858,817.3638"/>
    <polygon points="603.9696,820.3342 611.6724,783.2039 587.4763,797.4438"/>
    <polygon points="603.1066,823.6534 613.8945,782.1638 586.1171,795.1648"/>
    <polygon points="584.7405,792.3671 601.9481,827.3384 616.4297,781.2766"/>
    <polygon points="600.4388,831.4019 619.304,780.6074 583.3755,788.9727"/>
    <polygon points="598.5167,835.8513 622.5427,780.2344 582.0588,784.8964"/>
    <polygon points="580.8368,780.045 596.1122,840.6861 626.1692,780.2508"/>
    <polygon points="579.7663,774.3188 593.1476,845.8965 630.2043,780.7667"/>
    <polygon points="634.6641,781.9107 578.9166,767.6109 589.5375,851.4604"/>
    <polygon points="585.1878,857.3411 639.5591,783.8326 578.3713,759.8082"/>
    <polygon points="578.23,750.793 579.9961,863.4833 644.8921,786.7056"/>
    <polygon points="578.6107,740.4437 573.8519,869.8099 650.6557,790.7284"/>
    <polygon points="566.6364,876.217 656.83,796.1276 579.652,728.6374"/>
    <polygon points="663.379,803.1603 581.5153,715.252 558.2239,882.5698"/>
    <polygon points="520.2813,784.0306 517.6048,813.1902 541.762,797.6094"/>
    <polygon points="540.0435,796.5231 520.0672,786.3633 519.5374,811.9437"/>
    <polygon points="520.0248,788.4098 521.1779,810.7101 538.4454,795.7103"/>
    <polygon points="520.1171,790.1938 522.5593,809.5101 536.9717,795.1262"/>
    <polygon points="523.7123,808.3594 535.6234,794.7316 520.3124,791.7391"/>
    <polygon points="524.6652,807.2692 534.3985,794.4922 520.5844,793.0687"/>
    <polygon points="525.4438,806.247 533.2934,794.3784 520.9109,794.2048"/>
    <polygon points="520.7106,781.3878 515.345,814.4224 543.5925,799.0199"/>
    <polygon points="545.5218,800.8119 521.4053,778.4123 512.721,815.6059"/>
    <polygon points="547.5304,803.0492 522.4236,775.0832 509.694,816.6978"/>
    <polygon points="523.8323,771.3821 506.2247,817.6452 549.5911,805.8028"/>
    <polygon points="551.668,809.1513 525.707,767.295 502.2731,818.3838"/>
    <polygon points="553.7144,813.1807 528.1337,762.8132 497.8,818.8362"/>
    <polygon points="531.209,757.9352 492.7677,818.9103 555.6714,817.9847"/>
    <polygon points="535.0409,752.669 487.1418,818.4969 557.4654,823.6643"/>
    <polygon points="559.0059,830.3278 539.7494,747.0342 480.8928,817.4681"/>
    <polygon points="545.4669,741.0655 473.9979,815.6749 560.1832,838.0897"/>
    <polygon points="466.4442,812.9449 560.8654,847.0701 552.3385,734.8151"/>
    <polygon points="560.5217,728.3574 458.2311,809.0798 560.8952,857.393"/>
    <polygon points="449.374,803.8533 560.0873,869.1843 570.1868,721.7925"/>
    <polygon points="439.2349,806.7382 441.623,915.7456 548.7587,875.7248"/>
    <polygon points="439.4259,815.4588 450.1938,912.544 539.9968,870.2059"/>
    <polygon points="440.2873,823.2256 457.378,909.1569 531.9512,865.8262"/>
    <polygon points="441.6546,830.1001 463.3439,905.6904 524.618,862.4181"/>
    <polygon points="468.2458,902.2286 517.981,859.8326 443.3897,836.1473"/>
    <polygon points="512.0137,857.9379 445.3782,841.4338 472.2246,898.837"/>
    <polygon points="447.5259,846.0261 475.4078,895.5651 506.6828,856.6175"/>
    <polygon points="501.9503,855.7702 449.7565,849.9892 477.9098,892.4492"/>
    <polygon points="497.7748,855.3077 452.0088,853.386 479.833,889.5149"/>
    <polygon points="481.2684,886.7783 494.1135,855.154 454.2347,856.2763"/>
    <polygon points="456.3974,858.7165 482.296,884.2484 490.9232,855.2438"/>
    <polygon points="488.1611,855.5216 458.4693,860.759 482.9862,881.928"/>
    <polygon points="460.4306,862.4526 483.4002,879.8155 485.7858,855.9406"/>
    <polygon points="483.7574,856.4616 462.2682,863.8416 483.591,877.9055"/>
    <polygon points="482.0382,857.0519 463.974,864.9667 483.6043,876.19"/>
    <polygon points="480.5931,857.6851 465.5444,865.8646 483.479,874.6589"/>
    <polygon points="466.9792,866.5681 483.2481,873.301 479.3892,858.3395"/>
    <polygon points="478.3964,858.9977 468.2807,867.1068 482.9394,872.1041"/>
    <polygon points="482.576,871.0556 477.5872,859.6465 469.4534,867.5065"/>
    <polygon points="470.5032,867.7905 482.1769,870.1429 476.9365,860.2753"/>
    <polygon points="439.9089,797.0084 558.2239,882.5698 581.5153,715.252 439.9089,797.0084 431.4837,918.6304 558.2239,882.5698"/>
    <polygon points="464.1706,730.6374 494.8654,742.2773 497.7219,714.616"/>
    <polygon points="466.6262,731.5686 495.0939,740.0643 495.0378,715.8977"/>
    <polygon points="492.7649,717.1514 468.9036,732.2483 495.0894,738.131"/>
    <polygon points="470.9984,732.7189 494.9034,736.4526 490.856,718.3591"/>
    <polygon points="489.2673,719.5079 472.9109,733.0176 494.5796,735.0052"/>
    <polygon points="487.9588,720.5887 474.6444,733.1766 494.1547,733.7654"/>
    <polygon points="486.8937,721.5957 476.2052,733.2237 493.659,732.7112"/>
    <polygon points="486.0386,722.5259 477.6015,733.1827 493.1178,731.822"/>
    <polygon points="478.8428,733.0738 492.5514,731.0783 485.3636,723.3785"/>
    <polygon points="494.3434,744.7944 500.8676,713.3299 461.5468,729.4064"/>
    <polygon points="493.4578,747.6401 504.528,712.0698 458.772,727.8209"/>
    <polygon points="508.759,710.8742 455.8715,725.8194 492.1273,750.8371"/>
    <polygon points="490.2585,754.4063 513.618,709.7907 452.8814,723.3336"/>
    <polygon points="449.8497,720.2873 487.7451,758.3653 519.163,708.878"/>
    <polygon points="525.452,708.2068 446.8396,716.597 484.4662,762.7269"/>
    <polygon points="480.2859,767.4978 532.5408,707.8621 443.9312,712.1708"/>
    <polygon points="441.2251,706.9095 475.0514,772.6763 540.4813,707.9449"/>
    <polygon points="549.3192,708.5744 438.8452,700.7059 468.5934,778.2504"/>
    <polygon points="559.0911,709.8899 436.9428,693.446 460.724,784.1948"/>
    <polygon points="435.6997,685.0093 451.2374,790.4679 569.8207,712.0534"/>
    <polygon points="581.5153,715.252 435.3337,675.2703 278.88,768.6147 439.9089,797.0084 435.3337,675.2703 439.9089,797.0084"/>
    <polygon points="422.8174,682.7378 291.7623,770.8862 439.5428,787.2694"/>
    <polygon points="412.333,689.7897 303.5848,772.1968 438.2048,778.9069"/>
    <polygon points="314.3544,772.7336 436.1351,771.7775 403.6332,696.3823"/>
    <polygon points="396.4908,702.4904 324.0968,772.6572 433.5349,765.7458"/>
    <polygon points="332.8519,772.1042 430.5714,760.6854 390.6993,708.1037"/>
    <polygon points="386.0715,713.2238 340.6694,771.1907 427.3816,756.4789"/>
    <polygon points="347.6064,770.0138 424.0768,753.0185 382.4394,717.8611"/>
    <polygon points="420.7458,750.2059 379.6527,722.0333 353.724,768.6542"/>
    <polygon points="417.4584,747.9521 377.5784,725.763 359.0858,767.1783"/>
    <polygon points="376.099,729.0762 363.7556,765.6402 414.268,746.1769"/>
    <polygon points="367.7966,764.0832 411.2144,744.8089 375.1115,732.0013"/>
    <polygon points="371.27,762.5412 408.3262,743.7843 374.5263,734.5679"/>
    <polygon points="374.2658,736.8058 374.2345,761.0406 405.6222,743.047"/>
    <polygon points="403.1137,742.5477 374.2633,738.7446 376.7455,759.6012"/>
    <polygon points="400.8057,742.2435 374.4619,740.4131 378.855,758.2369"/>
    <polygon points="398.6982,742.097 374.8134,741.839 380.611,756.9574"/>
    <polygon points="382.058,755.7686 396.7874,742.0764 375.2772,743.0485"/>
    <polygon points="375.8196,744.0661 383.2364,754.6732 395.0666,742.1541"/>
    <polygon points="393.5268,742.3071 376.413,744.9147 384.1828,753.6717"/>
    <polygon points="384.9303,752.7625 392.1577,742.5157 377.0346,745.6152"/>
    <polygon points="331.189,696.3616 345.0081,693.9771 339.7229,685.3984"/>
    <polygon points="340.5724,684.4333 329.9538,696.4968 345.3938,694.807"/>
    <polygon points="341.615,683.379 328.5826,696.5573 345.7224,695.8007"/>
    <polygon points="345.9696,696.9802 342.8797,682.2363 327.0707,696.5205"/>
    <polygon points="346.1062,698.3691 344.3984,681.0082 325.4154,696.3598"/>
    <polygon points="346.2054,679.7007 323.6169,696.0439 346.0976,699.9924"/>
    <polygon points="321.679,695.5367 345.9028,701.8766 348.3382,678.3237"/>
    <polygon points="345.4738,704.0493 350.8363,676.8913 319.6099,694.7965"/>
    <polygon points="317.4234,693.7754 344.7548,706.5386 353.7418,675.4231"/>
    <polygon points="343.6815,709.3727 357.0984,673.9452 315.1401,692.4191"/>
    <polygon points="342.1798,712.5798 360.9514,672.4912 312.7889,690.666"/>
    <polygon points="340.1652,716.1865 365.3465,671.1038 310.4083,688.4468"/>
    <polygon points="370.3289,669.8359 308.0488,685.6843 337.5423,720.217"/>
    <polygon points="334.2032,724.6921 375.9423,668.7528 305.7745,682.2922"/>
    <polygon points="330.0272,729.6277 382.2272,667.9333 303.6656,678.1762"/>
    <polygon points="301.8209,673.2321 324.8801,735.0325 389.2191,667.4725"/>
    <polygon points="318.6135,740.9063 396.9459,667.4834 300.3606,667.3474"/>
    <polygon points="311.0646,747.2373 405.4256,668.0993 299.4298,660.4004"/>
    <polygon points="299.2015,652.2614 302.0561,753.9992 414.6624,669.4765"/>
    <polygon points="424.6435,671.7968 299.8802,642.7931 291.3963,761.1472"/>
    <polygon points="301.7063,631.8521 278.88,768.6147 435.3337,675.2703"/>
    <polygon points="250.3703,687.7909 257.5468,680.7224 246.4451,675.31"/>
    <polygon points="258.5365,681.2918 246.1655,674.1755 249.6602,688.356"/>
    <polygon points="245.937,672.8945 248.793,688.9069 259.6321,682.0219"/>
    <polygon points="245.7798,671.4571 247.7458,689.4257 260.8366,682.9406"/>
    <polygon points="246.4931,689.8906 262.1513,684.0785 245.7177,669.8542"/>
    <polygon points="263.575,685.4698 245.7795,668.0784 245.0077,690.275"/>
    <polygon points="245.9985,666.1247 243.2603,690.5466 265.1033,687.152"/>
    <polygon points="246.4141,663.9906 241.2196,690.6666 266.7285,689.1661"/>
    <polygon points="238.8528,690.5892 268.4378,691.5564 247.0716,661.6777"/>
    <polygon points="248.0234,659.1922 236.1258,690.2604 270.213,694.3707"/>
    <polygon points="249.3294,656.5466 233.0038,689.617 272.0289,697.6597"/>
    <polygon points="229.4517,688.5857 273.8525,701.477 251.058,653.7606"/>
    <polygon points="253.286,650.863 225.4353,687.082 275.6409,705.8782"/>
    <polygon points="220.9218,685.0091 277.3401,710.9204 256.1003,647.8939"/>
    <polygon points="278.8829,716.6608 259.5975,644.9058 215.8817,682.2568"/>
    <polygon points="263.8852,641.9671 210.29,678.7004 280.187,723.1558"/>
    <polygon points="204.128,674.1996 281.1527,730.4595 269.0814,639.1642"/>
    <polygon points="275.3158,636.6048 197.3861,668.5977 281.6603,738.6207"/>
    <polygon points="190.066,661.7209 281.5673,747.6816 282.7288,634.4208"/>
    <polygon points="291.4719,632.7725 182.1842,653.3771 280.7061,757.6737"/>
    <polygon points="278.88,768.6147 301.7063,631.8521 173.7759,643.3565 93.5461,750.3575 278.88,768.6147 173.7759,643.3565"/>
    <polygon points="108.3728,751.8181 270.4717,758.5941 167.3575,651.9166"/>
    <polygon points="162.6387,659.9087 121.3408,752.3602 262.2225,750.0599"/>
    <polygon points="159.3349,667.3048 132.6113,752.1762 254.2558,742.8478"/>
    <polygon points="157.197,674.0945 142.3429,751.4299 246.6622,736.8043"/>
    <polygon points="156.0087,680.2814 150.6884,750.2598 239.5049,731.7875"/>
    <polygon points="232.8252,727.667 155.583,685.8796 157.7937,748.782"/>
    <polygon points="163.7962,747.0928 226.6459,724.324 155.7599,690.9118"/>
    <polygon points="220.975,721.6511 156.4028,695.4063 168.8242,745.2714"/>
    <polygon points="215.8092,719.5515 157.3965,699.3955 172.9963,743.3817"/>
    <polygon points="211.1362,717.939 158.6445,702.9144 176.4213,741.4753"/>
    <polygon points="179.1985,739.5924 206.9369,716.7371 160.0666,705.9993"/>
    <polygon points="203.1872,715.878 161.5972,708.6867 181.4176,737.764"/>
    <polygon points="199.86,715.3027 163.1828,711.0129 183.1592,736.0131"/>
    <polygon points="164.7809,713.0129 184.4952,734.3563 196.9259,714.9595"/>
    <polygon points="185.4897,732.8045 194.3543,714.8038 166.3581,714.7204"/>
    <polygon points="186.1988,731.3644 192.1146,714.7971 167.8886,716.1671"/>
    <polygon points="169.3534,717.3829 186.6721,730.0391 190.1765,714.9067"/>
    <polygon points="188.5106,715.1048 170.7389,718.3954 186.9524,728.8285"/>
    <polygon points="172.036,719.23 187.0771,727.7306 187.0889,715.368"/>
    <polygon points="173.2393,719.9101 187.078,726.7416 185.8847,715.677"/>
    <polygon points="150.5268,789.0242 206.8926,805.686 197.326,771.9991"/>
    <polygon points="193.5821,773.3611 155.0361,790.3572 206.1273,802.991"/>
    <polygon points="159.1234,791.3679 205.1237,800.6207 190.4984,774.7208"/>
    <polygon points="203.9537,798.5486 187.9884,776.0526 162.8034,792.1081"/>
    <polygon points="202.6764,796.749 185.9736,777.337 166.0954,792.6234"/>
    <polygon points="184.3834,778.5599 169.0219,792.9534 201.3402,795.196"/>
    <polygon points="171.6074,793.1328 199.9837,793.8651 183.1544,779.7114"/>
    <polygon points="173.8775,793.1914 198.6373,792.7328 182.2307,780.7851"/>
    <polygon points="197.3248,791.777 181.5624,781.7776 175.8582,793.1547"/>
    <polygon points="177.5756,793.0445 196.0638,790.977 181.1061,782.6877"/>
    <polygon points="194.8672,790.3139 180.8236,783.5163 179.0546,792.8791"/>
    <polygon points="180.3196,792.6739 193.7437,789.7701 180.6821,784.2653"/>
    <polygon points="201.8251,770.6677 145.5871,787.3106 207.3333,808.7311"/>
    <polygon points="140.2167,785.1506 207.3464,812.1504 207.1823,769.4083"/>
    <polygon points="213.509,768.2723 134.426,782.471 206.8105,815.9659"/>
    <polygon points="205.5833,820.1957 220.9238,767.3229 128.2384,779.1906"/>
    <polygon points="203.499,824.8531 229.5525,766.6362 121.694,775.22"/>
    <polygon points="239.5264,766.3036 114.8529,770.4613 200.3662,829.9443"/>
    <polygon points="195.9649,835.467 250.9809,766.4336 107.7997,764.8086"/>
    <polygon points="190.0442,841.4073 264.0533,767.1541 100.648,758.1479"/>
    <polygon points="93.5461,750.3575 182.3193,847.7371 278.88,768.6147"/>
    <polygon points="94.3916,679.7991 114.2809,679.5461 104.5947,661.8539"/>
    <polygon points="95.9828,679.7789 113.506,678.1308 103.7784,663.2896"/>
    <polygon points="103.1548,664.6087 97.3846,679.647 112.7278,676.9435"/>
    <polygon points="111.962,675.9567 102.6932,665.8118 98.6121,679.4308"/>
    <polygon points="111.2204,675.1451 102.3667,666.9013 99.6801,679.1528"/>
    <polygon points="110.5121,674.4856 102.1517,667.8814 100.6033,678.8322"/>
    <polygon points="92.5968,679.6756 115.0325,681.2194 105.638,660.3042"/>
    <polygon points="106.9469,658.6463 90.5847,679.3707 115.7356,683.1822"/>
    <polygon points="116.3591,685.4685 108.5646,656.8903 88.3434,678.8404"/>
    <polygon points="110.5386,655.0516 85.8633,678.0341 116.8652,688.1135"/>
    <polygon points="83.1377,676.8933 117.2082,691.1536 112.9213,653.1524"/>
    <polygon points="115.7698,651.222 80.1641,675.3513 117.3333,694.6258"/>
    <polygon points="119.1458,649.2994 76.9457,673.3325 117.1756,698.5673"/>
    <polygon points="116.6591,703.0137 123.1157,647.434 73.4924,670.7516"/>
    <polygon points="69.8226,667.5127 115.6947,707.9985 127.7498,645.688"/>
    <polygon points="114.1793,713.5516 133.1224,644.1383 65.9655,663.5093"/>
    <polygon points="139.3102,642.8788 61.9631,658.6234 111.994,719.697"/>
    <polygon points="57.8726,652.7253 109.0029,726.4514 146.3917,642.0225"/>
    <polygon points="53.7701,645.6736 105.0513,733.8206 154.4457,641.7051"/>
    <polygon points="163.5494,642.0868 49.7532,637.315 99.9645,741.7974"/>
    <polygon points="45.9452,627.4852 93.5461,750.3575 173.7759,643.3565"/>
    <polygon points="301.7063,491.3479 173.7759,479.8435 45.9452,627.4852 173.7759,643.3565 173.7759,479.8435 173.7759,643.3565"/>
    <polygon points="300.2754,906.4722 439.9089,797.0084 278.88,768.6147 182.3193,847.7371 300.2754,906.4722 278.88,768.6147"/>
    <polygon points="298.5638,895.4436 271.1552,774.9445 191.7558,852.4358"/>
    <polygon points="264.8032,781.1438 200.3005,855.8765 296.3711,885.8036"/>
    <polygon points="207.9861,858.2707 293.8456,877.4309 259.643,787.1224"/>
    <polygon points="291.1094,870.2062 255.5104,792.8143 214.8549,859.8035"/>
    <polygon points="220.9552,860.6357 288.2615,864.0148 252.258,798.1734"/>
    <polygon points="226.3397,860.906 285.3812,858.7476 249.7538,803.1704"/>
    <polygon points="247.8806,807.7892 231.063,860.7333 282.531,854.3014"/>
    <polygon points="246.5352,812.0248 235.1805,860.2188 279.759,850.5804"/>
    <polygon points="238.7468,859.4477 277.1011,847.496 245.6268,815.8803"/>
    <polygon points="274.5832,844.9667 245.0764,819.3657 241.8151,858.4916"/>
    <polygon points="272.2226,842.9186 244.8155,822.4958 244.4366,857.4096"/>
    <polygon points="246.6594,856.2503 270.0301,841.2848 244.7852,825.2889"/>
    <polygon points="268.0105,840.0051 244.9352,827.7658 248.5291,855.053"/>
    <polygon points="266.1645,839.0259 245.2227,829.9488 250.0876,853.8492"/>
    <polygon points="251.3738,852.6634 264.4891,838.2998 245.6119,831.8608"/>
    <polygon points="252.423,851.5143 262.9789,837.7847 246.0728,833.525"/>
    <polygon points="253.2675,850.4159 261.6264,837.4439 246.5808,834.9642"/>
    <polygon points="253.9362,849.3782 260.4228,837.2455 247.1158,836.2003"/>
    <polygon points="259.3582,837.1619 247.6614,837.2545 254.4551,848.4075"/>
    <polygon points="254.8474,847.5079 258.4225,837.1693 248.2049,838.1468"/>
    <polygon points="386.7753,794.3223 293.0406,809.5599 339.2484,868.2133"/>
    <polygon points="296.7372,814.2521 343.0505,862.3019 379.2765,795.5413"/>
    <polygon points="300.4423,818.0961 345.9486,856.9611 372.6734,797.0382"/>
    <polygon points="304.0828,821.2053 348.0866,852.1672 366.8949,798.7228"/>
    <polygon points="307.6031,823.6822 349.5912,847.8917 361.8699,800.5214"/>
    <polygon points="310.9622,825.619 350.5736,844.102 357.5286,802.3743"/>
    <polygon points="353.8032,804.2338 314.131,827.0977 351.1299,840.7638"/>
    <polygon points="317.091,828.191 351.3438,837.8414 350.6295,806.0629"/>
    <polygon points="347.9464,807.8332 319.8312,828.963 351.2866,835.2992"/>
    <polygon points="322.3476,829.4699 351.0194,833.1019 345.6972,809.5236"/>
    <polygon points="350.5937,831.2156 343.8292,811.1193 324.6414,829.7604"/>
    <polygon points="350.0525,829.6079 342.2942,812.6106 326.7176,829.8769"/>
    <polygon points="349.4318,828.2481 341.0481,813.9919 328.5843,829.8554"/>
    <polygon points="340.051,815.2609 330.2521,829.7268 348.7611,827.1076"/>
    <polygon points="331.7329,829.5173 348.0643,826.1599 339.2671,816.4182"/>
    <polygon points="347.3605,825.3806 338.6643,817.4661 333.0394,829.2487"/>
    <polygon points="395.2387,793.4899 289.4459,803.8945 334.3796,874.7109"/>
    <polygon points="286.0706,797.1201 328.262,881.8011 404.7316,793.1742"/>
    <polygon points="415.3118,793.5295 283.06,789.089 320.6925,889.4769"/>
    <polygon points="427.0266,794.7369 280.5916,779.6433 311.4461,897.7151"/>
    <polygon points="431.4837,918.6304 439.9089,797.0084 300.2754,906.4722"/>
    <polygon points="428.7382,805.7656 310.7721,907.4449 432.1578,908.9007"/>
    <polygon points="320.4829,907.5613 431.8842,900.6499 419.3009,813.8999"/>
    <polygon points="329.395,907.0084 430.8775,893.7099 411.3954,821.3928"/>
    <polygon points="429.319,887.9245 404.8354,828.2421 337.5136,905.9445"/>
    <polygon points="344.8581,904.5029 427.3603,883.1499 399.4497,834.4582"/>
    <polygon points="425.1274,879.2546 395.0823,840.0618 351.4582,902.7947"/>
    <polygon points="357.3518,900.9115 422.7238,876.1191 391.5924,845.0804"/>
    <polygon points="362.5815,898.9281 420.2333,873.636 388.8532,849.5469"/>
    <polygon points="417.7229,871.7089 386.7514,853.4974 367.1937,896.9047"/>
    <polygon points="415.2452,870.252 385.1868,856.97 371.236,894.889"/>
    <polygon points="384.0707,860.0035 374.7567,892.9181 412.8405,869.1894"/>
    <polygon points="383.3256,862.6367 377.8034,891.0198 410.5389,868.4546"/>
    <polygon points="382.8838,864.9074 380.4223,889.2146 408.3619,867.9891"/>
    <polygon points="406.3236,867.7426 382.6869,866.8519 382.6574,887.5165"/>
    <polygon points="384.5508,885.9346 404.4327,867.6713 382.6846,868.5051"/>
    <polygon points="386.1413,884.4736 402.6928,867.738 382.8339,869.8995"/>
    <polygon points="387.4654,883.1348 401.1041,867.911 383.0984,871.0654"/>
    <polygon points="388.5565,881.9168 399.6637,868.1633 383.4478,872.0309"/>
    <polygon points="383.8565,872.8218 389.4451,880.8165 398.3664,868.4727"/>
    <polygon points="384.3036,873.4614 390.1588,879.829 397.2056,868.8207"/>
    <polygon points="756.96,561.6 732.7472,432.0732 637.44,561.6"/>
    <polygon points="725.1227,442.4353 647.0016,561.6 755.023,551.2378"/>
    <polygon points="718.873,451.9685 655.6433,560.7711 752.631,542.5336"/>
    <polygon points="663.4023,559.312 749.9303,535.2884 713.8146,460.6727"/>
    <polygon points="709.7816,468.5638 670.3246,557.3901 747.0411,529.3192"/>
    <polygon points="706.6251,475.67 676.4618,555.1445 744.0603,524.4587"/>
    <polygon points="704.212,482.0279 681.8698,552.6896 741.0655,520.5557"/>
    <polygon points="702.4246,487.6808 686.6054,550.1189 738.1172,517.4734"/>
    <polygon points="735.2618,515.09 701.1591,492.6759 690.7264,547.5073"/>
    <polygon points="732.5336,513.2969 700.3245,497.0624 694.2892,544.9139"/>
    <polygon points="697.3488,542.3845 729.9568,511.9981 699.8417,500.8905"/>
    <polygon points="699.9574,539.9536 727.5476,511.1095 699.6422,504.21"/>
    <polygon points="702.1646,537.6461 725.3152,510.5576 699.6674,507.0695"/>
    <polygon points="704.0167,535.479 723.2634,510.2785 699.8672,509.5157"/>
    <polygon points="700.1992,511.5927 705.5564,533.463 721.3917,510.2175"/>
    <polygon points="706.8232,531.6033 719.6963,510.3275 700.6278,513.3424"/>
    <polygon points="707.8531,529.9012 718.1708,510.5687 701.1234,514.8032"/>
    <polygon points="716.807,510.9075 701.6617,516.011 708.6785,528.3547"/>
    <polygon points="709.3287,526.9589 715.5954,511.3158 702.2231,516.9985"/>
    <polygon points="702.7916,517.7954 709.8301,525.7075 714.5256,511.7704"/>
    <polygon points="713.5868,512.2524 703.3546,518.4283 710.2058,524.5925"/>
    <polygon points="581.5153,407.9481 732.7472,432.0732 581.5153,407.9481 637.44,561.6 732.7472,432.0732 663.379,320.0397"/>
    <polygon points="581.5153,407.9481 439.9089,326.1916 435.3337,447.9297 581.5153,407.9481 435.3337,447.9297 517.92,561.6"/>
    <polygon points="558.2239,240.6302 439.9089,326.1916 581.5153,407.9481 558.2239,240.6302 431.4837,204.5696 439.9089,326.1916"/>
  </g>
  <g fill="none" id="layer2" inkscape:groupmode="layer" inkscape:label="2" stroke="#000000" stroke-width="0.7559" style="display:inline">
    <polygon points="796.8,0.0 796.8,1123.2 0.0,1123.2 0.0,0.0"/>
  </g>
</svg>
