<svg height="1123.1999999999998px" viewBox="0 0 796.8000000000001 1123.1999999999998" width="796.8000000000001px" xmlns="http://www.w3.org/2000/svg" xmlns:inkscape="http://www.inkscape.org/namespaces/inkscape">
<g fill="none" id="1" stroke="black" stroke-width="0.4mm">
<path d="M0,0 L132.8,0 L132.8,140.4 L0,140.4 z"/>
<path d="M5.312,0 L132.8,5.616 L127.488,140.4 L0,134.784 z"/>
<path d="M11.6864,0.2808 L132.5344,12.3552 L121.1136,140.1192 L0.2656,128.0448 z"/>
<path d="M18.93728,1.005264 L131.84915,20.02104 L113.86272,139.39473 L0.950848,120.37896 z"/>
<path d="M26.84111,2.3363683 L130.5901,28.3772 L105.958885,138.06363 L2.2098982,112.022804 z"/>
<path d="M35.14103,4.419635 L128.6196,37.152115 L97.658966,135.98036 L4.180395,103.24789 z"/>
<path d="M43.554104,7.3655577 L125.833145,46.046658 L89.245895,133.03444 L6.966852,94.35335 z"/>
<path d="M51.782005,11.233667 L122.17442,54.745434 L81.01799,129.16634 L10.625577,85.654564 z"/>
<path d="M59.525173,16.019962 L117.64722,62.931732 L73.274826,124.380035 L15.152784,77.46827 z"/>
<path d="M66.49982,21.649374 L112.32253,70.30553 L66.300186,118.750626 L20.47747,70.09447 z"/>
<path d="M72.45677,27.974674 L106.33962,76.60339 L60.34323,112.42532 L26.460377,63.796608 z"/>
<path d="M77.20037,34.782696 L99.90013,81.61846 L55.599632,105.6173 L32.89987,58.781536 z"/>
<path d="M80.60533,41.80806 L93.25505,85.21829 L52.194668,98.59194 L39.544945,55.18171 z"/>
<path d="M132.8,0 L265.6,0 L265.6,140.4 L132.8,140.4 z"/>
<path d="M138.112,0 L265.6,5.616 L260.288,140.4 L132.8,134.784 z"/>
<path d="M144.4864,0.2808 L265.3344,12.3552 L253.9136,140.1192 L133.0656,128.0448 z"/>
<path d="M151.73727,1.005264 L264.64914,20.02104 L246.66272,139.39473 L133.75085,120.37896 z"/>
<path d="M159.64111,2.3363683 L263.3901,28.3772 L238.7589,138.06363 L135.0099,112.022804 z"/>
<path d="M167.94102,4.419635 L261.41962,37.152115 L230.45897,135.98036 L136.9804,103.24789 z"/>
<path d="M176.3541,7.3655577 L258.63315,46.046658 L222.0459,133.03444 L139.76685,94.35335 z"/>
<path d="M184.582,11.233667 L254.97443,54.745434 L213.818,129.16634 L143.42558,85.654564 z"/>
<path d="M192.32516,16.019962 L250.44722,62.931732 L206.07483,124.380035 L147.95279,77.46827 z"/>
<path d="M199.29982,21.649374 L245.12253,70.30553 L199.10019,118.750626 L153.27747,70.09447 z"/>
<path d="M205.25677,27.974674 L239.13962,76.60339 L193.14323,112.42532 L159.26038,63.796608 z"/>
<path d="M210.00037,34.782696 L232.70013,81.61846 L188.39963,105.6173 L165.69987,58.781536 z"/>
<path d="M213.40533,41.80806 L226.05505,85.21829 L184.99466,98.59194 L172.34494,55.18171 z"/>
<path d="M265.6,0 L398.4,0 L398.4,140.4 L265.6,140.4 z"/>
<path d="M393.088,0 L398.4,134.784 L270.912,140.4 L265.6,5.616 z"/>
<path d="M398.1344,128.0448 L277.2864,140.1192 L265.8656,12.3552 L386.7136,0.2808 z"/>
<path d="M284.5373,139.39473 L266.55084,20.02104 L379.4627,1.005264 L397.44916,120.37896 z"/>
<path d="M267.8099,28.3772 L371.5589,2.3363683 L396.1901,112.022804 L292.4411,138.06363 z"/>
<path d="M363.25897,4.419635 L394.2196,103.24789 L300.74103,135.98036 L269.7804,37.152115 z"/>
<path d="M391.43314,94.35335 L309.1541,133.03444 L272.56686,46.046658 L354.8459,7.3655577 z"/>
<path d="M317.38202,129.16634 L276.2256,54.745434 L346.61798,11.233667 L387.7744,85.654564 z"/>
<path d="M280.75278,62.931732 L338.87482,16.019962 L383.24722,77.46827 L325.12518,124.380035 z"/>
<path d="M331.90018,21.649374 L377.92252,70.09447 L332.09982,118.750626 L286.07748,70.30553 z"/>
<path d="M371.93964,63.796608 L338.05676,112.42532 L292.06036,76.60339 L325.94324,27.974674 z"/>
<path d="M342.80038,105.6173 L298.49988,81.61846 L321.19962,34.782696 L365.50012,58.781536 z"/>
<path d="M305.14496,85.21829 L317.79468,41.80806 L358.85504,55.18171 L346.20532,98.59194 z"/>
<path d="M398.4,0 L531.2,0 L531.2,140.4 L398.4,140.4 z"/>
<path d="M403.712,0 L531.2,5.616 L525.888,140.4 L398.4,134.784 z"/>
<path d="M410.0864,0.2808 L530.9344,12.3552 L519.5136,140.1192 L398.6656,128.0448 z"/>
<path d="M417.33728,1.005264 L530.24915,20.02104 L512.2627,139.39473 L399.35086,120.37896 z"/>
<path d="M425.24112,2.3363683 L528.9901,28.3772 L504.3589,138.06363 L400.6099,112.022804 z"/>
<path d="M433.54102,4.419635 L527.0196,37.152115 L496.05896,135.98036 L402.58038,103.24789 z"/>
<path d="M441.9541,7.3655577 L524.23315,46.046658 L487.6459,133.03444 L405.36685,94.35335 z"/>
<path d="M450.182,11.233667 L520.5744,54.745434 L479.418,129.16634 L409.02557,85.654564 z"/>
<path d="M457.92517,16.019962 L516.04724,62.931732 L471.67484,124.380035 L413.5528,77.46827 z"/>
<path d="M464.8998,21.649374 L510.72253,70.30553 L464.7002,118.750626 L418.87747,70.09447 z"/>
<path d="M470.85678,27.974674 L504.73962,76.60339 L458.74323,112.42532 L424.86038,63.796608 z"/>
<path d="M475.60037,34.782696 L498.30014,81.61846 L453.99963,105.6173 L431.29987,58.781536 z"/>
<path d="M479.00534,41.80806 L491.65506,85.21829 L450.59467,98.59194 L437.94495,55.18171 z"/>
<path d="M531.2,0 L664,0 L664,140.4 L531.2,140.4 z"/>
<path d="M658.688,0 L664,134.784 L536.512,140.4 L531.2,5.616 z"/>
<path d="M663.7344,128.0448 L542.8864,140.1192 L531.4656,12.3552 L652.3136,0.2808 z"/>
<path d="M550.13727,139.39473 L532.1508,20.02104 L645.06274,1.005264 L663.04913,120.37896 z"/>
<path d="M533.4099,28.3772 L637.1589,2.3363683 L661.7901,112.022804 L558.04114,138.06363 z"/>
<path d="M628.85895,4.419635 L659.8196,103.24789 L566.341,135.98036 L535.3804,37.152115 z"/>
<path d="M657.03314,94.35335 L574.7541,133.03444 L538.1669,46.046658 L620.4459,7.3655577 z"/>
<path d="M582.982,129.16634 L541.82556,54.745434 L612.218,11.233667 L653.37445,85.654564 z"/>
<path d="M546.3528,62.931732 L604.47485,16.019962 L648.8472,77.46827 L590.72516,124.380035 z"/>
<path d="M597.5002,21.649374 L643.5225,70.09447 L597.6998,118.750626 L551.6775,70.30553 z"/>
<path d="M637.5396,63.796608 L603.6568,112.42532 L557.6604,76.60339 L591.5432,27.974674 z"/>
<path d="M608.4004,105.6173 L564.09985,81.61846 L586.7996,34.782696 L631.10016,58.781536 z"/>
<path d="M570.74493,85.21829 L583.39465,41.80806 L624.4551,55.18171 L611.80536,98.59194 z"/>
<path d="M664,0 L796.8,0 L796.8,140.4 L664,140.4 z"/>
<path d="M669.312,0 L796.8,5.616 L791.488,140.4 L664,134.784 z"/>
<path d="M675.6864,0.2808 L796.5344,12.3552 L785.1136,140.1192 L664.2656,128.0448 z"/>
<path d="M682.93726,1.005264 L795.8492,20.02104 L777.86273,139.39473 L664.95087,120.37896 z"/>
<path d="M690.8411,2.3363683 L794.5901,28.3772 L769.95886,138.06363 L666.2099,112.022804 z"/>
<path d="M699.14105,4.419635 L792.6196,37.152115 L761.659,135.98036 L668.1804,103.24789 z"/>
<path d="M707.5541,7.3655577 L789.8331,46.046658 L753.2459,133.03444 L670.96686,94.35335 z"/>
<path d="M715.782,11.233667 L786.17444,54.745434 L745.018,129.16634 L674.62555,85.654564 z"/>
<path d="M723.52515,16.019962 L781.6472,62.931732 L737.27484,124.380035 L679.1528,77.46827 z"/>
<path d="M730.4998,21.649374 L776.3225,70.30553 L730.3002,118.750626 L684.4775,70.09447 z"/>
<path d="M736.4568,27.974674 L770.3396,76.60339 L724.3432,112.42532 L690.4604,63.796608 z"/>
<path d="M741.2004,34.782696 L763.90015,81.61846 L719.5996,105.6173 L696.89984,58.781536 z"/>
<path d="M744.60535,41.80806 L757.25507,85.21829 L716.19464,98.59194 L703.5449,55.18171 z"/>
<path d="M0,140.4 L132.8,140.4 L132.8,280.8 L0,280.8 z"/>
<path d="M5.312,140.4 L132.8,146.016 L127.488,280.8 L0,275.184 z"/>
<path d="M11.6864,140.6808 L132.5344,152.7552 L121.1136,280.5192 L0.2656,268.4448 z"/>
<path d="M18.93728,141.40526 L131.84915,160.42104 L113.86272,279.79474 L0.950848,260.77896 z"/>
<path d="M26.84111,142.73637 L130.5901,168.77719 L105.958885,278.46362 L2.2098982,252.4228 z"/>
<path d="M35.14103,144.81964 L128.6196,177.55211 L97.658966,276.38037 L4.180395,243.64789 z"/>
<path d="M43.554104,147.76556 L125.833145,186.44666 L89.245895,273.43445 L6.966852,234.75334 z"/>
<path d="M51.782005,151.63367 L122.17442,195.14543 L81.01799,269.56635 L10.625577,226.05457 z"/>
<path d="M59.525173,156.41997 L117.64722,203.33173 L73.274826,264.78003 L15.152784,217.86827 z"/>
<path d="M66.49982,162.04938 L112.32253,210.70554 L66.300186,259.15063 L20.47747,210.49448 z"/>
<path d="M72.45677,168.37468 L106.33962,217.00339 L60.34323,252.82533 L26.460377,204.19661 z"/>
<path d="M77.20037,175.1827 L99.90013,222.01846 L55.599632,246.0173 L32.89987,199.18153 z"/>
<path d="M80.60533,182.20805 L93.25505,225.61829 L52.194668,238.99194 L39.544945,195.58171 z"/>
<path d="M132.8,140.4 L265.6,140.4 L265.6,280.8 L132.8,280.8 z"/>
<path d="M138.112,140.4 L265.6,146.016 L260.288,280.8 L132.8,275.184 z"/>
<path d="M144.4864,140.6808 L265.3344,152.7552 L253.9136,280.5192 L133.0656,268.4448 z"/>
<path d="M151.73727,141.40526 L264.64914,160.42104 L246.66272,279.79474 L133.75085,260.77896 z"/>
<path d="M159.64111,142.73637 L263.3901,168.77719 L238.7589,278.46362 L135.0099,252.4228 z"/>
<path d="M167.94102,144.81964 L261.41962,177.55211 L230.45897,276.38037 L136.9804,243.64789 z"/>
<path d="M176.3541,147.76556 L258.63315,186.44666 L222.0459,273.43445 L139.76685,234.75334 z"/>
<path d="M184.582,151.63367 L254.97443,195.14543 L213.818,269.56635 L143.42558,226.05457 z"/>
<path d="M192.32516,156.41997 L250.44722,203.33173 L206.07483,264.78003 L147.95279,217.86827 z"/>
<path d="M199.29982,162.04938 L245.12253,210.70554 L199.10019,259.15063 L153.27747,210.49448 z"/>
<path d="M205.25677,168.37468 L239.13962,217.00339 L193.14323,252.82533 L159.26038,204.19661 z"/>
<path d="M210.00037,175.1827 L232.70013,222.01846 L188.39963,246.0173 L165.69987,199.18153 z"/>
<path d="M213.40533,182.20805 L226.05505,225.61829 L184.99466,238.99194 L172.34494,195.58171 z"/>
<path d="M265.6,140.4 L398.4,140.4 L398.4,280.8 L265.6,280.8 z"/>
<path d="M270.912,140.4 L398.4,146.016 L393.088,280.8 L265.6,275.184 z"/>
<path d="M277.2864,140.6808 L398.1344,152.7552 L386.7136,280.5192 L265.8656,268.4448 z"/>
<path d="M284.5373,141.40526 L397.44916,160.42104 L379.4627,279.79474 L266.55084,260.77896 z"/>
<path d="M292.4411,142.73637 L396.1901,168.77719 L371.5589,278.46362 L267.8099,252.4228 z"/>
<path d="M300.74103,144.81964 L394.2196,177.55211 L363.25897,276.38037 L269.7804,243.64789 z"/>
<path d="M309.1541,147.76556 L391.43314,186.44666 L354.8459,273.43445 L272.56686,234.75334 z"/>
<path d="M317.38202,151.63367 L387.7744,195.14543 L346.61798,269.56635 L276.2256,226.05457 z"/>
<path d="M325.12518,156.41997 L383.24722,203.33173 L338.87482,264.78003 L280.75278,217.86827 z"/>
<path d="M332.09982,162.04938 L377.92252,210.70554 L331.90018,259.15063 L286.07748,210.49448 z"/>
<path d="M338.05676,168.37468 L371.93964,217.00339 L325.94324,252.82533 L292.06036,204.19661 z"/>
<path d="M342.80038,175.1827 L365.50012,222.01846 L321.19962,246.0173 L298.49988,199.18153 z"/>
<path d="M346.20532,182.20805 L358.85504,225.61829 L317.79468,238.99194 L305.14496,195.58171 z"/>
<path d="M398.4,140.4 L531.2,140.4 L531.2,280.8 L398.4,280.8 z"/>
<path d="M403.712,140.4 L531.2,146.016 L525.888,280.8 L398.4,275.184 z"/>
<path d="M410.0864,140.6808 L530.9344,152.7552 L519.5136,280.5192 L398.6656,268.4448 z"/>
<path d="M417.33728,141.40526 L530.24915,160.42104 L512.2627,279.79474 L399.35086,260.77896 z"/>
<path d="M425.24112,142.73637 L528.9901,168.77719 L504.3589,278.46362 L400.6099,252.4228 z"/>
<path d="M433.54102,144.81964 L527.0196,177.55211 L496.05896,276.38037 L402.58038,243.64789 z"/>
<path d="M441.9541,147.76556 L524.23315,186.44666 L487.6459,273.43445 L405.36685,234.75334 z"/>
<path d="M450.182,151.63367 L520.5744,195.14543 L479.418,269.56635 L409.02557,226.05457 z"/>
<path d="M457.92517,156.41997 L516.04724,203.33173 L471.67484,264.78003 L413.5528,217.86827 z"/>
<path d="M464.8998,162.04938 L510.72253,210.70554 L464.7002,259.15063 L418.87747,210.49448 z"/>
<path d="M470.85678,168.37468 L504.73962,217.00339 L458.74323,252.82533 L424.86038,204.19661 z"/>
<path d="M475.60037,175.1827 L498.30014,222.01846 L453.99963,246.0173 L431.29987,199.18153 z"/>
<path d="M479.00534,182.20805 L491.65506,225.61829 L450.59467,238.99194 L437.94495,195.58171 z"/>
<path d="M531.2,140.4 L664,140.4 L664,280.8 L531.2,280.8 z"/>
<path d="M658.688,140.4 L664,275.184 L536.512,280.8 L531.2,146.016 z"/>
<path d="M663.7344,268.4448 L542.8864,280.5192 L531.4656,152.7552 L652.3136,140.6808 z"/>
<path d="M550.13727,279.79474 L532.1508,160.42104 L645.06274,141.40526 L663.04913,260.77896 z"/>
<path d="M533.4099,168.77719 L637.1589,142.73637 L661.7901,252.4228 L558.04114,278.46362 z"/>
<path d="M628.85895,144.81964 L659.8196,243.64789 L566.341,276.38037 L535.3804,177.55211 z"/>
<path d="M657.03314,234.75334 L574.7541,273.43445 L538.1669,186.44666 L620.4459,147.76556 z"/>
<path d="M582.982,269.56635 L541.82556,195.14543 L612.218,151.63367 L653.37445,226.05457 z"/>
<path d="M546.3528,203.33173 L604.47485,156.41997 L648.8472,217.86827 L590.72516,264.78003 z"/>
<path d="M597.5002,162.04938 L643.5225,210.49448 L597.6998,259.15063 L551.6775,210.70554 z"/>
<path d="M637.5396,204.19661 L603.6568,252.82533 L557.6604,217.00339 L591.5432,168.37468 z"/>
<path d="M608.4004,246.0173 L564.09985,222.01846 L586.7996,175.1827 L631.10016,199.18153 z"/>
<path d="M570.74493,225.61829 L583.39465,182.20805 L624.4551,195.58171 L611.80536,238.99194 z"/>
<path d="M664,140.4 L796.8,140.4 L796.8,280.8 L664,280.8 z"/>
<path d="M791.488,140.4 L796.8,275.184 L669.312,280.8 L664,146.016 z"/>
<path d="M796.5344,268.4448 L675.6864,280.5192 L664.2656,152.7552 L785.1136,140.6808 z"/>
<path d="M682.93726,279.79474 L664.95087,160.42104 L777.86273,141.40526 L795.8492,260.77896 z"/>
<path d="M666.2099,168.77719 L769.95886,142.73637 L794.5901,252.4228 L690.8411,278.46362 z"/>
<path d="M761.659,144.81964 L792.6196,243.64789 L699.14105,276.38037 L668.1804,177.55211 z"/>
<path d="M789.8331,234.75334 L707.5541,273.43445 L670.96686,186.44666 L753.2459,147.76556 z"/>
<path d="M715.782,269.56635 L674.62555,195.14543 L745.018,151.63367 L786.17444,226.05457 z"/>
<path d="M679.1528,203.33173 L737.27484,156.41997 L781.6472,217.86827 L723.52515,264.78003 z"/>
<path d="M730.3002,162.04938 L776.3225,210.49448 L730.4998,259.15063 L684.4775,210.70554 z"/>
<path d="M770.3396,204.19661 L736.4568,252.82533 L690.4604,217.00339 L724.3432,168.37468 z"/>
<path d="M741.2004,246.0173 L696.89984,222.01846 L719.5996,175.1827 L763.90015,199.18153 z"/>
<path d="M703.5449,225.61829 L716.19464,182.20805 L757.25507,195.58171 L744.60535,238.99194 z"/>
<path d="M0,280.8 L132.8,280.8 L132.8,421.2 L0,421.2 z"/>
<path d="M5.312,280.8 L132.8,286.416 L127.488,421.2 L0,415.584 z"/>
<path d="M11.6864,281.0808 L132.5344,293.1552 L121.1136,420.9192 L0.2656,408.8448 z"/>
<path d="M18.93728,281.80527 L131.84915,300.82104 L113.86272,420.19473 L0.950848,401.17896 z"/>
<path d="M26.84111,283.13638 L130.5901,309.1772 L105.958885,418.86362 L2.2098982,392.8228 z"/>
<path d="M35.14103,285.21964 L128.6196,317.95212 L97.658966,416.78036 L4.180395,384.04788 z"/>
<path d="M43.554104,288.16556 L125.833145,326.84665 L89.245895,413.83444 L6.966852,375.15335 z"/>
<path d="M51.782005,292.03366 L122.17442,335.54544 L81.01799,409.96634 L10.625577,366.45456 z"/>
<path d="M59.525173,296.81998 L117.64722,343.73172 L73.274826,405.18002 L15.152784,358.26828 z"/>
<path d="M66.49982,302.44937 L112.32253,351.10553 L66.300186,399.55063 L20.47747,350.89447 z"/>
<path d="M72.45677,308.7747 L106.33962,357.40338 L60.34323,393.2253 L26.460377,344.59662 z"/>
<path d="M77.20037,315.5827 L99.90013,362.41846 L55.599632,386.4173 L32.89987,339.58154 z"/>
<path d="M80.60533,322.60806 L93.25505,366.01828 L52.194668,379.39194 L39.544945,335.98172 z"/>
<path d="M132.8,280.8 L265.6,280.8 L265.6,421.2 L132.8,421.2 z"/>
<path d="M260.288,280.8 L265.6,415.584 L138.112,421.2 L132.8,286.416 z"/>
<path d="M265.3344,408.8448 L144.4864,420.9192 L133.0656,293.1552 L253.9136,281.0808 z"/>
<path d="M151.73727,420.19473 L133.75085,300.82104 L246.66272,281.80527 L264.64914,401.17896 z"/>
<path d="M135.0099,309.1772 L238.7589,283.13638 L263.3901,392.8228 L159.64111,418.86362 z"/>
<path d="M230.45897,285.21964 L261.41962,384.04788 L167.94102,416.78036 L136.9804,317.95212 z"/>
<path d="M258.63315,375.15335 L176.3541,413.83444 L139.76685,326.84665 L222.0459,288.16556 z"/>
<path d="M184.582,409.96634 L143.42558,335.54544 L213.818,292.03366 L254.97443,366.45456 z"/>
<path d="M147.95279,343.73172 L206.07483,296.81998 L250.44722,358.26828 L192.32516,405.18002 z"/>
<path d="M199.10019,302.44937 L245.12253,350.89447 L199.29982,399.55063 L153.27747,351.10553 z"/>
<path d="M239.13962,344.59662 L205.25677,393.2253 L159.26038,357.40338 L193.14323,308.7747 z"/>
<path d="M210.00037,386.4173 L165.69987,362.41846 L188.39963,315.5827 L232.70013,339.58154 z"/>
<path d="M172.34494,366.01828 L184.99466,322.60806 L226.05505,335.98172 L213.40533,379.39194 z"/>
<path d="M265.6,280.8 L398.4,280.8 L398.4,421.2 L265.6,421.2 z"/>
<path d="M393.088,280.8 L398.4,415.584 L270.912,421.2 L265.6,286.416 z"/>
<path d="M398.1344,408.8448 L277.2864,420.9192 L265.8656,293.1552 L386.7136,281.0808 z"/>
<path d="M284.5373,420.19473 L266.55084,300.82104 L379.4627,281.80527 L397.44916,401.17896 z"/>
<path d="M267.8099,309.1772 L371.5589,283.13638 L396.1901,392.8228 L292.4411,418.86362 z"/>
<path d="M363.25897,285.21964 L394.2196,384.04788 L300.74103,416.78036 L269.7804,317.95212 z"/>
<path d="M391.43314,375.15335 L309.1541,413.83444 L272.56686,326.84665 L354.8459,288.16556 z"/>
<path d="M317.38202,409.96634 L276.2256,335.54544 L346.61798,292.03366 L387.7744,366.45456 z"/>
<path d="M280.75278,343.73172 L338.87482,296.81998 L383.24722,358.26828 L325.12518,405.18002 z"/>
<path d="M331.90018,302.44937 L377.92252,350.89447 L332.09982,399.55063 L286.07748,351.10553 z"/>
<path d="M371.93964,344.59662 L338.05676,393.2253 L292.06036,357.40338 L325.94324,308.7747 z"/>
<path d="M342.80038,386.4173 L298.49988,362.41846 L321.19962,315.5827 L365.50012,339.58154 z"/>
<path d="M305.14496,366.01828 L317.79468,322.60806 L358.85504,335.98172 L346.20532,379.39194 z"/>
<path d="M398.4,280.8 L531.2,280.8 L531.2,421.2 L398.4,421.2 z"/>
<path d="M403.712,280.8 L531.2,286.416 L525.888,421.2 L398.4,415.584 z"/>
<path d="M410.0864,281.0808 L530.9344,293.1552 L519.5136,420.9192 L398.6656,408.8448 z"/>
<path d="M417.33728,281.80527 L530.24915,300.82104 L512.2627,420.19473 L399.35086,401.17896 z"/>
<path d="M425.24112,283.13638 L528.9901,309.1772 L504.3589,418.86362 L400.6099,392.8228 z"/>
<path d="M433.54102,285.21964 L527.0196,317.95212 L496.05896,416.78036 L402.58038,384.04788 z"/>
<path d="M441.9541,288.16556 L524.23315,326.84665 L487.6459,413.83444 L405.36685,375.15335 z"/>
<path d="M450.182,292.03366 L520.5744,335.54544 L479.418,409.96634 L409.02557,366.45456 z"/>
<path d="M457.92517,296.81998 L516.04724,343.73172 L471.67484,405.18002 L413.5528,358.26828 z"/>
<path d="M464.8998,302.44937 L510.72253,351.10553 L464.7002,399.55063 L418.87747,350.89447 z"/>
<path d="M470.85678,308.7747 L504.73962,357.40338 L458.74323,393.2253 L424.86038,344.59662 z"/>
<path d="M475.60037,315.5827 L498.30014,362.41846 L453.99963,386.4173 L431.29987,339.58154 z"/>
<path d="M479.00534,322.60806 L491.65506,366.01828 L450.59467,379.39194 L437.94495,335.98172 z"/>
<path d="M531.2,280.8 L664,280.8 L664,421.2 L531.2,421.2 z"/>
<path d="M536.512,280.8 L664,286.416 L658.688,421.2 L531.2,415.584 z"/>
<path d="M542.8864,281.0808 L663.7344,293.1552 L652.3136,420.9192 L531.4656,408.8448 z"/>
<path d="M550.13727,281.80527 L663.04913,300.82104 L645.06274,420.19473 L532.1508,401.17896 z"/>
<path d="M558.04114,283.13638 L661.7901,309.1772 L637.1589,418.86362 L533.4099,392.8228 z"/>
<path d="M566.341,285.21964 L659.8196,317.95212 L628.85895,416.78036 L535.3804,384.04788 z"/>
<path d="M574.7541,288.16556 L657.03314,326.84665 L620.4459,413.83444 L538.1669,375.15335 z"/>
<path d="M582.982,292.03366 L653.37445,335.54544 L612.218,409.96634 L541.82556,366.45456 z"/>
<path d="M590.72516,296.81998 L648.8472,343.73172 L604.47485,405.18002 L546.3528,358.26828 z"/>
<path d="M597.6998,302.44937 L643.5225,351.10553 L597.5002,399.55063 L551.6775,350.89447 z"/>
<path d="M603.6568,308.7747 L637.5396,357.40338 L591.5432,393.2253 L557.6604,344.59662 z"/>
<path d="M608.4004,315.5827 L631.10016,362.41846 L586.7996,386.4173 L564.09985,339.58154 z"/>
<path d="M611.80536,322.60806 L624.4551,366.01828 L583.39465,379.39194 L570.74493,335.98172 z"/>
<path d="M664,280.8 L796.8,280.8 L796.8,421.2 L664,421.2 z"/>
<path d="M669.312,280.8 L796.8,286.416 L791.488,421.2 L664,415.584 z"/>
<path d="M675.6864,281.0808 L796.5344,293.1552 L785.1136,420.9192 L664.2656,408.8448 z"/>
<path d="M682.93726,281.80527 L795.8492,300.82104 L777.86273,420.19473 L664.95087,401.17896 z"/>
<path d="M690.8411,283.13638 L794.5901,309.1772 L769.95886,418.86362 L666.2099,392.8228 z"/>
<path d="M699.14105,285.21964 L792.6196,317.95212 L761.659,416.78036 L668.1804,384.04788 z"/>
<path d="M707.5541,288.16556 L789.8331,326.84665 L753.2459,413.83444 L670.96686,375.15335 z"/>
<path d="M715.782,292.03366 L786.17444,335.54544 L745.018,409.96634 L674.62555,366.45456 z"/>
<path d="M723.52515,296.81998 L781.6472,343.73172 L737.27484,405.18002 L679.1528,358.26828 z"/>
<path d="M730.4998,302.44937 L776.3225,351.10553 L730.3002,399.55063 L684.4775,350.89447 z"/>
<path d="M736.4568,308.7747 L770.3396,357.40338 L724.3432,393.2253 L690.4604,344.59662 z"/>
<path d="M741.2004,315.5827 L763.90015,362.41846 L719.5996,386.4173 L696.89984,339.58154 z"/>
<path d="M744.60535,322.60806 L757.25507,366.01828 L716.19464,379.39194 L703.5449,335.98172 z"/>
<path d="M0,421.2 L132.8,421.2 L132.8,561.6 L0,561.6 z"/>
<path d="M127.488,421.2 L132.8,555.984 L5.312,561.6 L0,426.816 z"/>
<path d="M132.5344,549.2448 L11.6864,561.3192 L0.2656,433.5552 L121.1136,421.4808 z"/>
<path d="M18.93728,560.5947 L0.950848,441.22104 L113.86272,422.20526 L131.84915,541.579 z"/>
<path d="M2.2098982,449.5772 L105.958885,423.53638 L130.5901,533.2228 L26.84111,559.2636 z"/>
<path d="M97.658966,425.61963 L128.6196,524.4479 L35.14103,557.18036 L4.180395,458.3521 z"/>
<path d="M125.833145,515.55334 L43.554104,554.23444 L6.966852,467.24664 L89.245895,428.56555 z"/>
<path d="M51.782005,550.36633 L10.625577,475.94543 L81.01799,432.43365 L122.17442,506.85455 z"/>
<path d="M15.152784,484.13174 L73.274826,437.21997 L117.64722,498.66827 L59.525173,545.58 z"/>
<path d="M66.300186,442.84937 L112.32253,491.29446 L66.49982,539.9506 L20.47747,491.50552 z"/>
<path d="M106.33962,484.9966 L72.45677,533.6253 L26.460377,497.8034 L60.34323,449.17468 z"/>
<path d="M77.20037,526.8173 L32.89987,502.81845 L55.599632,455.9827 L99.90013,479.98154 z"/>
<path d="M39.544945,506.4183 L52.194668,463.00806 L93.25505,476.3817 L80.60533,519.79193 z"/>
<path d="M132.8,421.2 L265.6,421.2 L265.6,561.6 L132.8,561.6 z"/>
<path d="M260.288,421.2 L265.6,555.984 L138.112,561.6 L132.8,426.816 z"/>
<path d="M265.3344,549.2448 L144.4864,561.3192 L133.0656,433.5552 L253.9136,421.4808 z"/>
<path d="M151.73727,560.5947 L133.75085,441.22104 L246.66272,422.20526 L264.64914,541.579 z"/>
<path d="M135.0099,449.5772 L238.7589,423.53638 L263.3901,533.2228 L159.64111,559.2636 z"/>
<path d="M230.45897,425.61963 L261.41962,524.4479 L167.94102,557.18036 L136.9804,458.3521 z"/>
<path d="M258.63315,515.55334 L176.3541,554.23444 L139.76685,467.24664 L222.0459,428.56555 z"/>
<path d="M184.582,550.36633 L143.42558,475.94543 L213.818,432.43365 L254.97443,506.85455 z"/>
<path d="M147.95279,484.13174 L206.07483,437.21997 L250.44722,498.66827 L192.32516,545.58 z"/>
<path d="M199.10019,442.84937 L245.12253,491.29446 L199.29982,539.9506 L153.27747,491.50552 z"/>
<path d="M239.13962,484.9966 L205.25677,533.6253 L159.26038,497.8034 L193.14323,449.17468 z"/>
<path d="M210.00037,526.8173 L165.69987,502.81845 L188.39963,455.9827 L232.70013,479.98154 z"/>
<path d="M172.34494,506.4183 L184.99466,463.00806 L226.05505,476.3817 L213.40533,519.79193 z"/>
<path d="M265.6,421.2 L398.4,421.2 L398.4,561.6 L265.6,561.6 z"/>
<path d="M393.088,421.2 L398.4,555.984 L270.912,561.6 L265.6,426.816 z"/>
<path d="M398.1344,549.2448 L277.2864,561.3192 L265.8656,433.5552 L386.7136,421.4808 z"/>
<path d="M284.5373,560.5947 L266.55084,441.22104 L379.4627,422.20526 L397.44916,541.579 z"/>
<path d="M267.8099,449.5772 L371.5589,423.53638 L396.1901,533.2228 L292.4411,559.2636 z"/>
<path d="M363.25897,425.61963 L394.2196,524.4479 L300.74103,557.18036 L269.7804,458.3521 z"/>
<path d="M391.43314,515.55334 L309.1541,554.23444 L272.56686,467.24664 L354.8459,428.56555 z"/>
<path d="M317.38202,550.36633 L276.2256,475.94543 L346.61798,432.43365 L387.7744,506.85455 z"/>
<path d="M280.75278,484.13174 L338.87482,437.21997 L383.24722,498.66827 L325.12518,545.58 z"/>
<path d="M331.90018,442.84937 L377.92252,491.29446 L332.09982,539.9506 L286.07748,491.50552 z"/>
<path d="M371.93964,484.9966 L338.05676,533.6253 L292.06036,497.8034 L325.94324,449.17468 z"/>
<path d="M342.80038,526.8173 L298.49988,502.81845 L321.19962,455.9827 L365.50012,479.98154 z"/>
<path d="M305.14496,506.4183 L317.79468,463.00806 L358.85504,476.3817 L346.20532,519.79193 z"/>
<path d="M398.4,421.2 L531.2,421.2 L531.2,561.6 L398.4,561.6 z"/>
<path d="M525.888,421.2 L531.2,555.984 L403.712,561.6 L398.4,426.816 z"/>
<path d="M530.9344,549.2448 L410.0864,561.3192 L398.6656,433.5552 L519.5136,421.4808 z"/>
<path d="M417.33728,560.5947 L399.35086,441.22104 L512.2627,422.20526 L530.24915,541.579 z"/>
<path d="M400.6099,449.5772 L504.3589,423.53638 L528.9901,533.2228 L425.24112,559.2636 z"/>
<path d="M496.05896,425.61963 L527.0196,524.4479 L433.54102,557.18036 L402.58038,458.3521 z"/>
<path d="M524.23315,515.55334 L441.9541,554.23444 L405.36685,467.24664 L487.6459,428.56555 z"/>
<path d="M450.182,550.36633 L409.02557,475.94543 L479.418,432.43365 L520.5744,506.85455 z"/>
<path d="M413.5528,484.13174 L471.67484,437.21997 L516.04724,498.66827 L457.92517,545.58 z"/>
<path d="M464.7002,442.84937 L510.72253,491.29446 L464.8998,539.9506 L418.87747,491.50552 z"/>
<path d="M504.73962,484.9966 L470.85678,533.6253 L424.86038,497.8034 L458.74323,449.17468 z"/>
<path d="M475.60037,526.8173 L431.29987,502.81845 L453.99963,455.9827 L498.30014,479.98154 z"/>
<path d="M437.94495,506.4183 L450.59467,463.00806 L491.65506,476.3817 L479.00534,519.79193 z"/>
<path d="M531.2,421.2 L664,421.2 L664,561.6 L531.2,561.6 z"/>
<path d="M536.512,421.2 L664,426.816 L658.688,561.6 L531.2,555.984 z"/>
<path d="M542.8864,421.4808 L663.7344,433.5552 L652.3136,561.3192 L531.4656,549.2448 z"/>
<path d="M550.13727,422.20526 L663.04913,441.22104 L645.06274,560.5947 L532.1508,541.579 z"/>
<path d="M558.04114,423.53638 L661.7901,449.5772 L637.1589,559.2636 L533.4099,533.2228 z"/>
<path d="M566.341,425.61963 L659.8196,458.3521 L628.85895,557.18036 L535.3804,524.4479 z"/>
<path d="M574.7541,428.56555 L657.03314,467.24664 L620.4459,554.23444 L538.1669,515.55334 z"/>
<path d="M582.982,432.43365 L653.37445,475.94543 L612.218,550.36633 L541.82556,506.85455 z"/>
<path d="M590.72516,437.21997 L648.8472,484.13174 L604.47485,545.58 L546.3528,498.66827 z"/>
<path d="M597.6998,442.84937 L643.5225,491.50552 L597.5002,539.9506 L551.6775,491.29446 z"/>
<path d="M603.6568,449.17468 L637.5396,497.8034 L591.5432,533.6253 L557.6604,484.9966 z"/>
<path d="M608.4004,455.9827 L631.10016,502.81845 L586.7996,526.8173 L564.09985,479.98154 z"/>
<path d="M611.80536,463.00806 L624.4551,506.4183 L583.39465,519.79193 L570.74493,476.3817 z"/>
<path d="M664,421.2 L796.8,421.2 L796.8,561.6 L664,561.6 z"/>
<path d="M669.312,421.2 L796.8,426.816 L791.488,561.6 L664,555.984 z"/>
<path d="M675.6864,421.4808 L796.5344,433.5552 L785.1136,561.3192 L664.2656,549.2448 z"/>
<path d="M682.93726,422.20526 L795.8492,441.22104 L777.86273,560.5947 L664.95087,541.579 z"/>
<path d="M690.8411,423.53638 L794.5901,449.5772 L769.95886,559.2636 L666.2099,533.2228 z"/>
<path d="M699.14105,425.61963 L792.6196,458.3521 L761.659,557.18036 L668.1804,524.4479 z"/>
<path d="M707.5541,428.56555 L789.8331,467.24664 L753.2459,554.23444 L670.96686,515.55334 z"/>
<path d="M715.782,432.43365 L786.17444,475.94543 L745.018,550.36633 L674.62555,506.85455 z"/>
<path d="M723.52515,437.21997 L781.6472,484.13174 L737.27484,545.58 L679.1528,498.66827 z"/>
<path d="M730.4998,442.84937 L776.3225,491.50552 L730.3002,539.9506 L684.4775,491.29446 z"/>
<path d="M736.4568,449.17468 L770.3396,497.8034 L724.3432,533.6253 L690.4604,484.9966 z"/>
<path d="M741.2004,455.9827 L763.90015,502.81845 L719.5996,526.8173 L696.89984,479.98154 z"/>
<path d="M744.60535,463.00806 L757.25507,506.4183 L716.19464,519.79193 L703.5449,476.3817 z"/>
<path d="M0,561.6 L132.8,561.6 L132.8,702 L0,702 z"/>
<path d="M127.488,561.6 L132.8,696.384 L5.312,702 L0,567.216 z"/>
<path d="M132.5344,689.6448 L11.6864,701.7192 L0.2656,573.9552 L121.1136,561.8808 z"/>
<path d="M18.93728,700.99475 L0.950848,581.62103 L113.86272,562.6053 L131.84915,681.97894 z"/>
<path d="M2.2098982,589.9772 L105.958885,563.93634 L130.5901,673.6228 L26.84111,699.66364 z"/>
<path d="M97.658966,566.01965 L128.6196,664.8479 L35.14103,697.5804 L4.180395,598.75214 z"/>
<path d="M125.833145,655.95337 L43.554104,694.63446 L6.966852,607.64667 L89.245895,568.9656 z"/>
<path d="M51.782005,690.76636 L10.625577,616.34546 L81.01799,572.8337 L122.17442,647.2546 z"/>
<path d="M15.152784,624.53174 L73.274826,577.61993 L117.64722,639.06824 L59.525173,685.98004 z"/>
<path d="M66.300186,583.2494 L112.32253,631.69446 L66.49982,680.35065 L20.47747,631.9055 z"/>
<path d="M106.33962,625.3966 L72.45677,674.0253 L26.460377,638.20337 L60.34323,589.57465 z"/>
<path d="M77.20037,667.2173 L32.89987,643.21844 L55.599632,596.3827 L99.90013,620.38153 z"/>
<path d="M39.544945,646.8183 L52.194668,603.4081 L93.25505,616.78174 L80.60533,660.19196 z"/>
<path d="M132.8,561.6 L265.6,561.6 L265.6,702 L132.8,702 z"/>
<path d="M138.112,561.6 L265.6,567.216 L260.288,702 L132.8,696.384 z"/>
<path d="M144.4864,561.8808 L265.3344,573.9552 L253.9136,701.7192 L133.0656,689.6448 z"/>
<path d="M151.73727,562.6053 L264.64914,581.62103 L246.66272,700.99475 L133.75085,681.97894 z"/>
<path d="M159.64111,563.93634 L263.3901,589.9772 L238.7589,699.66364 L135.0099,673.6228 z"/>
<path d="M167.94102,566.01965 L261.41962,598.75214 L230.45897,697.5804 L136.9804,664.8479 z"/>
<path d="M176.3541,568.9656 L258.63315,607.64667 L222.0459,694.63446 L139.76685,655.95337 z"/>
<path d="M184.582,572.8337 L254.97443,616.34546 L213.818,690.76636 L143.42558,647.2546 z"/>
<path d="M192.32516,577.61993 L250.44722,624.53174 L206.07483,685.98004 L147.95279,639.06824 z"/>
<path d="M199.29982,583.2494 L245.12253,631.9055 L199.10019,680.35065 L153.27747,631.69446 z"/>
<path d="M205.25677,589.57465 L239.13962,638.20337 L193.14323,674.0253 L159.26038,625.3966 z"/>
<path d="M210.00037,596.3827 L232.70013,643.21844 L188.39963,667.2173 L165.69987,620.38153 z"/>
<path d="M213.40533,603.4081 L226.05505,646.8183 L184.99466,660.19196 L172.34494,616.78174 z"/>
<path d="M265.6,561.6 L398.4,561.6 L398.4,702 L265.6,702 z"/>
<path d="M270.912,561.6 L398.4,567.216 L393.088,702 L265.6,696.384 z"/>
<path d="M277.2864,561.8808 L398.1344,573.9552 L386.7136,701.7192 L265.8656,689.6448 z"/>
<path d="M284.5373,562.6053 L397.44916,581.62103 L379.4627,700.99475 L266.55084,681.97894 z"/>
<path d="M292.4411,563.93634 L396.1901,589.9772 L371.5589,699.66364 L267.8099,673.6228 z"/>
<path d="M300.74103,566.01965 L394.2196,598.75214 L363.25897,697.5804 L269.7804,664.8479 z"/>
<path d="M309.1541,568.9656 L391.43314,607.64667 L354.8459,694.63446 L272.56686,655.95337 z"/>
<path d="M317.38202,572.8337 L387.7744,616.34546 L346.61798,690.76636 L276.2256,647.2546 z"/>
<path d="M325.12518,577.61993 L383.24722,624.53174 L338.87482,685.98004 L280.75278,639.06824 z"/>
<path d="M332.09982,583.2494 L377.92252,631.9055 L331.90018,680.35065 L286.07748,631.69446 z"/>
<path d="M338.05676,589.57465 L371.93964,638.20337 L325.94324,674.0253 L292.06036,625.3966 z"/>
<path d="M342.80038,596.3827 L365.50012,643.21844 L321.19962,667.2173 L298.49988,620.38153 z"/>
<path d="M346.20532,603.4081 L358.85504,646.8183 L317.79468,660.19196 L305.14496,616.78174 z"/>
<path d="M398.4,561.6 L531.2,561.6 L531.2,702 L398.4,702 z"/>
<path d="M403.712,561.6 L531.2,567.216 L525.888,702 L398.4,696.384 z"/>
<path d="M410.0864,561.8808 L530.9344,573.9552 L519.5136,701.7192 L398.6656,689.6448 z"/>
<path d="M417.33728,562.6053 L530.24915,581.62103 L512.2627,700.99475 L399.35086,681.97894 z"/>
<path d="M425.24112,563.93634 L528.9901,589.9772 L504.3589,699.66364 L400.6099,673.6228 z"/>
<path d="M433.54102,566.01965 L527.0196,598.75214 L496.05896,697.5804 L402.58038,664.8479 z"/>
<path d="M441.9541,568.9656 L524.23315,607.64667 L487.6459,694.63446 L405.36685,655.95337 z"/>
<path d="M450.182,572.8337 L520.5744,616.34546 L479.418,690.76636 L409.02557,647.2546 z"/>
<path d="M457.92517,577.61993 L516.04724,624.53174 L471.67484,685.98004 L413.5528,639.06824 z"/>
<path d="M464.8998,583.2494 L510.72253,631.9055 L464.7002,680.35065 L418.87747,631.69446 z"/>
<path d="M470.85678,589.57465 L504.73962,638.20337 L458.74323,674.0253 L424.86038,625.3966 z"/>
<path d="M475.60037,596.3827 L498.30014,643.21844 L453.99963,667.2173 L431.29987,620.38153 z"/>
<path d="M479.00534,603.4081 L491.65506,646.8183 L450.59467,660.19196 L437.94495,616.78174 z"/>
<path d="M531.2,561.6 L664,561.6 L664,702 L531.2,702 z"/>
<path d="M658.688,561.6 L664,696.384 L536.512,702 L531.2,567.216 z"/>
<path d="M663.7344,689.6448 L542.8864,701.7192 L531.4656,573.9552 L652.3136,561.8808 z"/>
<path d="M550.13727,700.99475 L532.1508,581.62103 L645.06274,562.6053 L663.04913,681.97894 z"/>
<path d="M533.4099,589.9772 L637.1589,563.93634 L661.7901,673.6228 L558.04114,699.66364 z"/>
<path d="M628.85895,566.01965 L659.8196,664.8479 L566.341,697.5804 L535.3804,598.75214 z"/>
<path d="M657.03314,655.95337 L574.7541,694.63446 L538.1669,607.64667 L620.4459,568.9656 z"/>
<path d="M582.982,690.76636 L541.82556,616.34546 L612.218,572.8337 L653.37445,647.2546 z"/>
<path d="M546.3528,624.53174 L604.47485,577.61993 L648.8472,639.06824 L590.72516,685.98004 z"/>
<path d="M597.5002,583.2494 L643.5225,631.69446 L597.6998,680.35065 L551.6775,631.9055 z"/>
<path d="M637.5396,625.3966 L603.6568,674.0253 L557.6604,638.20337 L591.5432,589.57465 z"/>
<path d="M608.4004,667.2173 L564.09985,643.21844 L586.7996,596.3827 L631.10016,620.38153 z"/>
<path d="M570.74493,646.8183 L583.39465,603.4081 L624.4551,616.78174 L611.80536,660.19196 z"/>
<path d="M664,561.6 L796.8,561.6 L796.8,702 L664,702 z"/>
<path d="M669.312,561.6 L796.8,567.216 L791.488,702 L664,696.384 z"/>
<path d="M675.6864,561.8808 L796.5344,573.9552 L785.1136,701.7192 L664.2656,689.6448 z"/>
<path d="M682.93726,562.6053 L795.8492,581.62103 L777.86273,700.99475 L664.95087,681.97894 z"/>
<path d="M690.8411,563.93634 L794.5901,589.9772 L769.95886,699.66364 L666.2099,673.6228 z"/>
<path d="M699.14105,566.01965 L792.6196,598.75214 L761.659,697.5804 L668.1804,664.8479 z"/>
<path d="M707.5541,568.9656 L789.8331,607.64667 L753.2459,694.63446 L670.96686,655.95337 z"/>
<path d="M715.782,572.8337 L786.17444,616.34546 L745.018,690.76636 L674.62555,647.2546 z"/>
<path d="M723.52515,577.61993 L781.6472,624.53174 L737.27484,685.98004 L679.1528,639.06824 z"/>
<path d="M730.4998,583.2494 L776.3225,631.9055 L730.3002,680.35065 L684.4775,631.69446 z"/>
<path d="M736.4568,589.57465 L770.3396,638.20337 L724.3432,674.0253 L690.4604,625.3966 z"/>
<path d="M741.2004,596.3827 L763.90015,643.21844 L719.5996,667.2173 L696.89984,620.38153 z"/>
<path d="M744.60535,603.4081 L757.25507,646.8183 L716.19464,660.19196 L703.5449,616.78174 z"/>
<path d="M0,702 L132.8,702 L132.8,842.4 L0,842.4 z"/>
<path d="M127.488,702 L132.8,836.784 L5.312,842.4 L0,707.616 z"/>
<path d="M132.5344,830.0448 L11.6864,842.1192 L0.2656,714.3552 L121.1136,702.2808 z"/>
<path d="M18.93728,841.3947 L0.950848,722.02106 L113.86272,703.00525 L131.84915,822.37897 z"/>
<path d="M2.2098982,730.3772 L105.958885,704.33636 L130.5901,814.0228 L26.84111,840.06366 z"/>
<path d="M97.658966,706.4196 L128.6196,805.24786 L35.14103,837.98035 L4.180395,739.1521 z"/>
<path d="M125.833145,796.35333 L43.554104,835.0344 L6.966852,748.04663 L89.245895,709.36554 z"/>
<path d="M51.782005,831.1663 L10.625577,756.7454 L81.01799,713.23364 L122.17442,787.65454 z"/>
<path d="M15.152784,764.93176 L73.274826,718.01996 L117.64722,779.46826 L59.525173,826.38007 z"/>
<path d="M66.300186,723.64935 L112.32253,772.0945 L66.49982,820.7506 L20.47747,772.30554 z"/>
<path d="M106.33962,765.79663 L72.45677,814.42535 L26.460377,778.6034 L60.34323,729.9747 z"/>
<path d="M77.20037,807.6173 L32.89987,783.61847 L55.599632,736.7827 L99.90013,760.78156 z"/>
<path d="M39.544945,787.21826 L52.194668,743.80804 L93.25505,757.1817 L80.60533,800.5919 z"/>
<path d="M132.8,702 L265.6,702 L265.6,842.4 L132.8,842.4 z"/>
<path d="M138.112,702 L265.6,707.616 L260.288,842.4 L132.8,836.784 z"/>
<path d="M144.4864,702.2808 L265.3344,714.3552 L253.9136,842.1192 L133.0656,830.0448 z"/>
<path d="M151.73727,703.00525 L264.64914,722.02106 L246.66272,841.3947 L133.75085,822.37897 z"/>
<path d="M159.64111,704.33636 L263.3901,730.3772 L238.7589,840.06366 L135.0099,814.0228 z"/>
<path d="M167.94102,706.4196 L261.41962,739.1521 L230.45897,837.98035 L136.9804,805.24786 z"/>
<path d="M176.3541,709.36554 L258.63315,748.04663 L222.0459,835.0344 L139.76685,796.35333 z"/>
<path d="M184.582,713.23364 L254.97443,756.7454 L213.818,831.1663 L143.42558,787.65454 z"/>
<path d="M192.32516,718.01996 L250.44722,764.93176 L206.07483,826.38007 L147.95279,779.46826 z"/>
<path d="M199.29982,723.64935 L245.12253,772.30554 L199.10019,820.7506 L153.27747,772.0945 z"/>
<path d="M205.25677,729.9747 L239.13962,778.6034 L193.14323,814.42535 L159.26038,765.79663 z"/>
<path d="M210.00037,736.7827 L232.70013,783.61847 L188.39963,807.6173 L165.69987,760.78156 z"/>
<path d="M213.40533,743.80804 L226.05505,787.21826 L184.99466,800.5919 L172.34494,757.1817 z"/>
<path d="M265.6,702 L398.4,702 L398.4,842.4 L265.6,842.4 z"/>
<path d="M393.088,702 L398.4,836.784 L270.912,842.4 L265.6,707.616 z"/>
<path d="M398.1344,830.0448 L277.2864,842.1192 L265.8656,714.3552 L386.7136,702.2808 z"/>
<path d="M284.5373,841.3947 L266.55084,722.02106 L379.4627,703.00525 L397.44916,822.37897 z"/>
<path d="M267.8099,730.3772 L371.5589,704.33636 L396.1901,814.0228 L292.4411,840.06366 z"/>
<path d="M363.25897,706.4196 L394.2196,805.24786 L300.74103,837.98035 L269.7804,739.1521 z"/>
<path d="M391.43314,796.35333 L309.1541,835.0344 L272.56686,748.04663 L354.8459,709.36554 z"/>
<path d="M317.38202,831.1663 L276.2256,756.7454 L346.61798,713.23364 L387.7744,787.65454 z"/>
<path d="M280.75278,764.93176 L338.87482,718.01996 L383.24722,779.46826 L325.12518,826.38007 z"/>
<path d="M331.90018,723.64935 L377.92252,772.0945 L332.09982,820.7506 L286.07748,772.30554 z"/>
<path d="M371.93964,765.79663 L338.05676,814.42535 L292.06036,778.6034 L325.94324,729.9747 z"/>
<path d="M342.80038,807.6173 L298.49988,783.61847 L321.19962,736.7827 L365.50012,760.78156 z"/>
<path d="M305.14496,787.21826 L317.79468,743.80804 L358.85504,757.1817 L346.20532,800.5919 z"/>
<path d="M398.4,702 L531.2,702 L531.2,842.4 L398.4,842.4 z"/>
<path d="M525.888,702 L531.2,836.784 L403.712,842.4 L398.4,707.616 z"/>
<path d="M530.9344,830.0448 L410.0864,842.1192 L398.6656,714.3552 L519.5136,702.2808 z"/>
<path d="M417.33728,841.3947 L399.35086,722.02106 L512.2627,703.00525 L530.24915,822.37897 z"/>
<path d="M400.6099,730.3772 L504.3589,704.33636 L528.9901,814.0228 L425.24112,840.06366 z"/>
<path d="M496.05896,706.4196 L527.0196,805.24786 L433.54102,837.98035 L402.58038,739.1521 z"/>
<path d="M524.23315,796.35333 L441.9541,835.0344 L405.36685,748.04663 L487.6459,709.36554 z"/>
<path d="M450.182,831.1663 L409.02557,756.7454 L479.418,713.23364 L520.5744,787.65454 z"/>
<path d="M413.5528,764.93176 L471.67484,718.01996 L516.04724,779.46826 L457.92517,826.38007 z"/>
<path d="M464.7002,723.64935 L510.72253,772.0945 L464.8998,820.7506 L418.87747,772.30554 z"/>
<path d="M504.73962,765.79663 L470.85678,814.42535 L424.86038,778.6034 L458.74323,729.9747 z"/>
<path d="M475.60037,807.6173 L431.29987,783.61847 L453.99963,736.7827 L498.30014,760.78156 z"/>
<path d="M437.94495,787.21826 L450.59467,743.80804 L491.65506,757.1817 L479.00534,800.5919 z"/>
<path d="M531.2,702 L664,702 L664,842.4 L531.2,842.4 z"/>
<path d="M536.512,702 L664,707.616 L658.688,842.4 L531.2,836.784 z"/>
<path d="M542.8864,702.2808 L663.7344,714.3552 L652.3136,842.1192 L531.4656,830.0448 z"/>
<path d="M550.13727,703.00525 L663.04913,722.02106 L645.06274,841.3947 L532.1508,822.37897 z"/>
<path d="M558.04114,704.33636 L661.7901,730.3772 L637.1589,840.06366 L533.4099,814.0228 z"/>
<path d="M566.341,706.4196 L659.8196,739.1521 L628.85895,837.98035 L535.3804,805.24786 z"/>
<path d="M574.7541,709.36554 L657.03314,748.04663 L620.4459,835.0344 L538.1669,796.35333 z"/>
<path d="M582.982,713.23364 L653.37445,756.7454 L612.218,831.1663 L541.82556,787.65454 z"/>
<path d="M590.72516,718.01996 L648.8472,764.93176 L604.47485,826.38007 L546.3528,779.46826 z"/>
<path d="M597.6998,723.64935 L643.5225,772.30554 L597.5002,820.7506 L551.6775,772.0945 z"/>
<path d="M603.6568,729.9747 L637.5396,778.6034 L591.5432,814.42535 L557.6604,765.79663 z"/>
<path d="M608.4004,736.7827 L631.10016,783.61847 L586.7996,807.6173 L564.09985,760.78156 z"/>
<path d="M611.80536,743.80804 L624.4551,787.21826 L583.39465,800.5919 L570.74493,757.1817 z"/>
<path d="M664,702 L796.8,702 L796.8,842.4 L664,842.4 z"/>
<path d="M669.312,702 L796.8,707.616 L791.488,842.4 L664,836.784 z"/>
<path d="M675.6864,702.2808 L796.5344,714.3552 L785.1136,842.1192 L664.2656,830.0448 z"/>
<path d="M682.93726,703.00525 L795.8492,722.02106 L777.86273,841.3947 L664.95087,822.37897 z"/>
<path d="M690.8411,704.33636 L794.5901,730.3772 L769.95886,840.06366 L666.2099,814.0228 z"/>
<path d="M699.14105,706.4196 L792.6196,739.1521 L761.659,837.98035 L668.1804,805.24786 z"/>
<path d="M707.5541,709.36554 L789.8331,748.04663 L753.2459,835.0344 L670.96686,796.35333 z"/>
<path d="M715.782,713.23364 L786.17444,756.7454 L745.018,831.1663 L674.62555,787.65454 z"/>
<path d="M723.52515,718.01996 L781.6472,764.93176 L737.27484,826.38007 L679.1528,779.46826 z"/>
<path d="M730.4998,723.64935 L776.3225,772.30554 L730.3002,820.7506 L684.4775,772.0945 z"/>
<path d="M736.4568,729.9747 L770.3396,778.6034 L724.3432,814.42535 L690.4604,765.79663 z"/>
<path d="M741.2004,736.7827 L763.90015,783.61847 L719.5996,807.6173 L696.89984,760.78156 z"/>
<path d="M744.60535,743.80804 L757.25507,787.21826 L716.19464,800.5919 L703.5449,757.1817 z"/>
<path d="M0,842.4 L132.8,842.4 L132.8,982.8 L0,982.8 z"/>
<path d="M5.312,842.4 L132.8,848.016 L127.488,982.8 L0,977.184 z"/>
<path d="M11.6864,842.6808 L132.5344,854.7552 L121.1136,982.5192 L0.2656,970.4448 z"/>
<path d="M18.93728,843.4053 L131.84915,862.421 L113.86272,981.79474 L0.950848,962.77893 z"/>
<path d="M26.84111,844.7364 L130.5901,870.7772 L105.958885,980.4636 L2.2098982,954.4228 z"/>
<path d="M35.14103,846.81964 L128.6196,879.5521 L97.658966,978.3804 L4.180395,945.6479 z"/>
<path d="M43.554104,849.76556 L125.833145,888.44666 L89.245895,975.43445 L6.966852,936.75336 z"/>
<path d="M51.782005,853.63367 L122.17442,897.14545 L81.01799,971.56635 L10.625577,928.05457 z"/>
<path d="M59.525173,858.42 L117.64722,905.3317 L73.274826,966.78 L15.152784,919.8683 z"/>
<path d="M66.49982,864.0494 L112.32253,912.7055 L66.300186,961.15063 L20.47747,912.49445 z"/>
<path d="M72.45677,870.3747 L106.33962,919.0034 L60.34323,954.8253 L26.460377,906.1966 z"/>
<path d="M77.20037,877.1827 L99.90013,924.01843 L55.599632,948.01733 L32.89987,901.1815 z"/>
<path d="M80.60533,884.20807 L93.25505,927.6183 L52.194668,940.99194 L39.544945,897.5817 z"/>
<path d="M132.8,842.4 L265.6,842.4 L265.6,982.8 L132.8,982.8 z"/>
<path d="M138.112,842.4 L265.6,848.016 L260.288,982.8 L132.8,977.184 z"/>
<path d="M144.4864,842.6808 L265.3344,854.7552 L253.9136,982.5192 L133.0656,970.4448 z"/>
<path d="M151.73727,843.4053 L264.64914,862.421 L246.66272,981.79474 L133.75085,962.77893 z"/>
<path d="M159.64111,844.7364 L263.3901,870.7772 L238.7589,980.4636 L135.0099,954.4228 z"/>
<path d="M167.94102,846.81964 L261.41962,879.5521 L230.45897,978.3804 L136.9804,945.6479 z"/>
<path d="M176.3541,849.76556 L258.63315,888.44666 L222.0459,975.43445 L139.76685,936.75336 z"/>
<path d="M184.582,853.63367 L254.97443,897.14545 L213.818,971.56635 L143.42558,928.05457 z"/>
<path d="M192.32516,858.42 L250.44722,905.3317 L206.07483,966.78 L147.95279,919.8683 z"/>
<path d="M199.29982,864.0494 L245.12253,912.7055 L199.10019,961.15063 L153.27747,912.49445 z"/>
<path d="M205.25677,870.3747 L239.13962,919.0034 L193.14323,954.8253 L159.26038,906.1966 z"/>
<path d="M210.00037,877.1827 L232.70013,924.01843 L188.39963,948.01733 L165.69987,901.1815 z"/>
<path d="M213.40533,884.20807 L226.05505,927.6183 L184.99466,940.99194 L172.34494,897.5817 z"/>
<path d="M265.6,842.4 L398.4,842.4 L398.4,982.8 L265.6,982.8 z"/>
<path d="M270.912,842.4 L398.4,848.016 L393.088,982.8 L265.6,977.184 z"/>
<path d="M277.2864,842.6808 L398.1344,854.7552 L386.7136,982.5192 L265.8656,970.4448 z"/>
<path d="M284.5373,843.4053 L397.44916,862.421 L379.4627,981.79474 L266.55084,962.77893 z"/>
<path d="M292.4411,844.7364 L396.1901,870.7772 L371.5589,980.4636 L267.8099,954.4228 z"/>
<path d="M300.74103,846.81964 L394.2196,879.5521 L363.25897,978.3804 L269.7804,945.6479 z"/>
<path d="M309.1541,849.76556 L391.43314,888.44666 L354.8459,975.43445 L272.56686,936.75336 z"/>
<path d="M317.38202,853.63367 L387.7744,897.14545 L346.61798,971.56635 L276.2256,928.05457 z"/>
<path d="M325.12518,858.42 L383.24722,905.3317 L338.87482,966.78 L280.75278,919.8683 z"/>
<path d="M332.09982,864.0494 L377.92252,912.7055 L331.90018,961.15063 L286.07748,912.49445 z"/>
<path d="M338.05676,870.3747 L371.93964,919.0034 L325.94324,954.8253 L292.06036,906.1966 z"/>
<path d="M342.80038,877.1827 L365.50012,924.01843 L321.19962,948.01733 L298.49988,901.1815 z"/>
<path d="M346.20532,884.20807 L358.85504,927.6183 L317.79468,940.99194 L305.14496,897.5817 z"/>
<path d="M398.4,842.4 L531.2,842.4 L531.2,982.8 L398.4,982.8 z"/>
<path d="M403.712,842.4 L531.2,848.016 L525.888,982.8 L398.4,977.184 z"/>
<path d="M410.0864,842.6808 L530.9344,854.7552 L519.5136,982.5192 L398.6656,970.4448 z"/>
<path d="M417.33728,843.4053 L530.24915,862.421 L512.2627,981.79474 L399.35086,962.77893 z"/>
<path d="M425.24112,844.7364 L528.9901,870.7772 L504.3589,980.4636 L400.6099,954.4228 z"/>
<path d="M433.54102,846.81964 L527.0196,879.5521 L496.05896,978.3804 L402.58038,945.6479 z"/>
<path d="M441.9541,849.76556 L524.23315,888.44666 L487.6459,975.43445 L405.36685,936.75336 z"/>
<path d="M450.182,853.63367 L520.5744,897.14545 L479.418,971.56635 L409.02557,928.05457 z"/>
<path d="M457.92517,858.42 L516.04724,905.3317 L471.67484,966.78 L413.5528,919.8683 z"/>
<path d="M464.8998,864.0494 L510.72253,912.7055 L464.7002,961.15063 L418.87747,912.49445 z"/>
<path d="M470.85678,870.3747 L504.73962,919.0034 L458.74323,954.8253 L424.86038,906.1966 z"/>
<path d="M475.60037,877.1827 L498.30014,924.01843 L453.99963,948.01733 L431.29987,901.1815 z"/>
<path d="M479.00534,884.20807 L491.65506,927.6183 L450.59467,940.99194 L437.94495,897.5817 z"/>
<path d="M531.2,842.4 L664,842.4 L664,982.8 L531.2,982.8 z"/>
<path d="M536.512,842.4 L664,848.016 L658.688,982.8 L531.2,977.184 z"/>
<path d="M542.8864,842.6808 L663.7344,854.7552 L652.3136,982.5192 L531.4656,970.4448 z"/>
<path d="M550.13727,843.4053 L663.04913,862.421 L645.06274,981.79474 L532.1508,962.77893 z"/>
<path d="M558.04114,844.7364 L661.7901,870.7772 L637.1589,980.4636 L533.4099,954.4228 z"/>
<path d="M566.341,846.81964 L659.8196,879.5521 L628.85895,978.3804 L535.3804,945.6479 z"/>
<path d="M574.7541,849.76556 L657.03314,888.44666 L620.4459,975.43445 L538.1669,936.75336 z"/>
<path d="M582.982,853.63367 L653.37445,897.14545 L612.218,971.56635 L541.82556,928.05457 z"/>
<path d="M590.72516,858.42 L648.8472,905.3317 L604.47485,966.78 L546.3528,919.8683 z"/>
<path d="M597.6998,864.0494 L643.5225,912.7055 L597.5002,961.15063 L551.6775,912.49445 z"/>
<path d="M603.6568,870.3747 L637.5396,919.0034 L591.5432,954.8253 L557.6604,906.1966 z"/>
<path d="M608.4004,877.1827 L631.10016,924.01843 L586.7996,948.01733 L564.09985,901.1815 z"/>
<path d="M611.80536,884.20807 L624.4551,927.6183 L583.39465,940.99194 L570.74493,897.5817 z"/>
<path d="M664,842.4 L796.8,842.4 L796.8,982.8 L664,982.8 z"/>
<path d="M791.488,842.4 L796.8,977.184 L669.312,982.8 L664,848.016 z"/>
<path d="M796.5344,970.4448 L675.6864,982.5192 L664.2656,854.7552 L785.1136,842.6808 z"/>
<path d="M682.93726,981.79474 L664.95087,862.421 L777.86273,843.4053 L795.8492,962.77893 z"/>
<path d="M666.2099,870.7772 L769.95886,844.7364 L794.5901,954.4228 L690.8411,980.4636 z"/>
<path d="M761.659,846.81964 L792.6196,945.6479 L699.14105,978.3804 L668.1804,879.5521 z"/>
<path d="M789.8331,936.75336 L707.5541,975.43445 L670.96686,888.44666 L753.2459,849.76556 z"/>
<path d="M715.782,971.56635 L674.62555,897.14545 L745.018,853.63367 L786.17444,928.05457 z"/>
<path d="M679.1528,905.3317 L737.27484,858.42 L781.6472,919.8683 L723.52515,966.78 z"/>
<path d="M730.3002,864.0494 L776.3225,912.49445 L730.4998,961.15063 L684.4775,912.7055 z"/>
<path d="M770.3396,906.1966 L736.4568,954.8253 L690.4604,919.0034 L724.3432,870.3747 z"/>
<path d="M741.2004,948.01733 L696.89984,924.01843 L719.5996,877.1827 L763.90015,901.1815 z"/>
<path d="M703.5449,927.6183 L716.19464,884.20807 L757.25507,897.5817 L744.60535,940.99194 z"/>
<path d="M0,982.8 L132.8,982.8 L132.8,1123.2 L0,1123.2 z"/>
<path d="M127.488,982.8 L132.8,1117.584 L5.312,1123.2 L0,988.416 z"/>
<path d="M132.5344,1110.8448 L11.6864,1122.9192 L0.2656,995.1552 L121.1136,983.0808 z"/>
<path d="M18.93728,1122.1947 L0.950848,1002.82104 L113.86272,983.80524 L131.84915,1103.179 z"/>
<path d="M2.2098982,1011.1772 L105.958885,985.13635 L130.5901,1094.8228 L26.84111,1120.8636 z"/>
<path d="M97.658966,987.2196 L128.6196,1086.0479 L35.14103,1118.7804 L4.180395,1019.9521 z"/>
<path d="M125.833145,1077.1533 L43.554104,1115.8345 L6.966852,1028.8467 L89.245895,990.1655 z"/>
<path d="M51.782005,1111.9663 L10.625577,1037.5454 L81.01799,994.0337 L122.17442,1068.4546 z"/>
<path d="M15.152784,1045.7317 L73.274826,998.81995 L117.64722,1060.2683 L59.525173,1107.18 z"/>
<path d="M66.300186,1004.4494 L112.32253,1052.8944 L66.49982,1101.5507 L20.47747,1053.1056 z"/>
<path d="M106.33962,1046.5966 L72.45677,1095.2253 L26.460377,1059.4034 L60.34323,1010.77466 z"/>
<path d="M77.20037,1088.4174 L32.89987,1064.4185 L55.599632,1017.5827 L99.90013,1041.5815 z"/>
<path d="M39.544945,1068.0183 L52.194668,1024.608 L93.25505,1037.9817 L80.60533,1081.392 z"/>
<path d="M132.8,982.8 L265.6,982.8 L265.6,1123.2 L132.8,1123.2 z"/>
<path d="M260.288,982.8 L265.6,1117.584 L138.112,1123.2 L132.8,988.416 z"/>
<path d="M265.3344,1110.8448 L144.4864,1122.9192 L133.0656,995.1552 L253.9136,983.0808 z"/>
<path d="M151.73727,1122.1947 L133.75085,1002.82104 L246.66272,983.80524 L264.64914,1103.179 z"/>
<path d="M135.0099,1011.1772 L238.7589,985.13635 L263.3901,1094.8228 L159.64111,1120.8636 z"/>
<path d="M230.45897,987.2196 L261.41962,1086.0479 L167.94102,1118.7804 L136.9804,1019.9521 z"/>
<path d="M258.63315,1077.1533 L176.3541,1115.8345 L139.76685,1028.8467 L222.0459,990.1655 z"/>
<path d="M184.582,1111.9663 L143.42558,1037.5454 L213.818,994.0337 L254.97443,1068.4546 z"/>
<path d="M147.95279,1045.7317 L206.07483,998.81995 L250.44722,1060.2683 L192.32516,1107.18 z"/>
<path d="M199.10019,1004.4494 L245.12253,1052.8944 L199.29982,1101.5507 L153.27747,1053.1056 z"/>
<path d="M239.13962,1046.5966 L205.25677,1095.2253 L159.26038,1059.4034 L193.14323,1010.77466 z"/>
<path d="M210.00037,1088.4174 L165.69987,1064.4185 L188.39963,1017.5827 L232.70013,1041.5815 z"/>
<path d="M172.34494,1068.0183 L184.99466,1024.608 L226.05505,1037.9817 L213.40533,1081.392 z"/>
<path d="M265.6,982.8 L398.4,982.8 L398.4,1123.2 L265.6,1123.2 z"/>
<path d="M270.912,982.8 L398.4,988.416 L393.088,1123.2 L265.6,1117.584 z"/>
<path d="M277.2864,983.0808 L398.1344,995.1552 L386.7136,1122.9192 L265.8656,1110.8448 z"/>
<path d="M284.5373,983.80524 L397.44916,1002.82104 L379.4627,1122.1947 L266.55084,1103.179 z"/>
<path d="M292.4411,985.13635 L396.1901,1011.1772 L371.5589,1120.8636 L267.8099,1094.8228 z"/>
<path d="M300.74103,987.2196 L394.2196,1019.9521 L363.25897,1118.7804 L269.7804,1086.0479 z"/>
<path d="M309.1541,990.1655 L391.43314,1028.8467 L354.8459,1115.8345 L272.56686,1077.1533 z"/>
<path d="M317.38202,994.0337 L387.7744,1037.5454 L346.61798,1111.9663 L276.2256,1068.4546 z"/>
<path d="M325.12518,998.81995 L383.24722,1045.7317 L338.87482,1107.18 L280.75278,1060.2683 z"/>
<path d="M332.09982,1004.4494 L377.92252,1053.1056 L331.90018,1101.5507 L286.07748,1052.8944 z"/>
<path d="M338.05676,1010.77466 L371.93964,1059.4034 L325.94324,1095.2253 L292.06036,1046.5966 z"/>
<path d="M342.80038,1017.5827 L365.50012,1064.4185 L321.19962,1088.4174 L298.49988,1041.5815 z"/>
<path d="M346.20532,1024.608 L358.85504,1068.0183 L317.79468,1081.392 L305.14496,1037.9817 z"/>
<path d="M398.4,982.8 L531.2,982.8 L531.2,1123.2 L398.4,1123.2 z"/>
<path d="M403.712,982.8 L531.2,988.416 L525.888,1123.2 L398.4,1117.584 z"/>
<path d="M410.0864,983.0808 L530.9344,995.1552 L519.5136,1122.9192 L398.6656,1110.8448 z"/>
<path d="M417.33728,983.80524 L530.24915,1002.82104 L512.2627,1122.1947 L399.35086,1103.179 z"/>
<path d="M425.24112,985.13635 L528.9901,1011.1772 L504.3589,1120.8636 L400.6099,1094.8228 z"/>
<path d="M433.54102,987.2196 L527.0196,1019.9521 L496.05896,1118.7804 L402.58038,1086.0479 z"/>
<path d="M441.9541,990.1655 L524.23315,1028.8467 L487.6459,1115.8345 L405.36685,1077.1533 z"/>
<path d="M450.182,994.0337 L520.5744,1037.5454 L479.418,1111.9663 L409.02557,1068.4546 z"/>
<path d="M457.92517,998.81995 L516.04724,1045.7317 L471.67484,1107.18 L413.5528,1060.2683 z"/>
<path d="M464.8998,1004.4494 L510.72253,1053.1056 L464.7002,1101.5507 L418.87747,1052.8944 z"/>
<path d="M470.85678,1010.77466 L504.73962,1059.4034 L458.74323,1095.2253 L424.86038,1046.5966 z"/>
<path d="M475.60037,1017.5827 L498.30014,1064.4185 L453.99963,1088.4174 L431.29987,1041.5815 z"/>
<path d="M479.00534,1024.608 L491.65506,1068.0183 L450.59467,1081.392 L437.94495,1037.9817 z"/>
<path d="M531.2,982.8 L664,982.8 L664,1123.2 L531.2,1123.2 z"/>
<path d="M658.688,982.8 L664,1117.584 L536.512,1123.2 L531.2,988.416 z"/>
<path d="M663.7344,1110.8448 L542.8864,1122.9192 L531.4656,995.1552 L652.3136,983.0808 z"/>
<path d="M550.13727,1122.1947 L532.1508,1002.82104 L645.06274,983.80524 L663.04913,1103.179 z"/>
<path d="M533.4099,1011.1772 L637.1589,985.13635 L661.7901,1094.8228 L558.04114,1120.8636 z"/>
<path d="M628.85895,987.2196 L659.8196,1086.0479 L566.341,1118.7804 L535.3804,1019.9521 z"/>
<path d="M657.03314,1077.1533 L574.7541,1115.8345 L538.1669,1028.8467 L620.4459,990.1655 z"/>
<path d="M582.982,1111.9663 L541.82556,1037.5454 L612.218,994.0337 L653.37445,1068.4546 z"/>
<path d="M546.3528,1045.7317 L604.47485,998.81995 L648.8472,1060.2683 L590.72516,1107.18 z"/>
<path d="M597.5002,1004.4494 L643.5225,1052.8944 L597.6998,1101.5507 L551.6775,1053.1056 z"/>
<path d="M637.5396,1046.5966 L603.6568,1095.2253 L557.6604,1059.4034 L591.5432,1010.77466 z"/>
<path d="M608.4004,1088.4174 L564.09985,1064.4185 L586.7996,1017.5827 L631.10016,1041.5815 z"/>
<path d="M570.74493,1068.0183 L583.39465,1024.608 L624.4551,1037.9817 L611.80536,1081.392 z"/>
<path d="M664,982.8 L796.8,982.8 L796.8,1123.2 L664,1123.2 z"/>
<path d="M791.488,982.8 L796.8,1117.584 L669.312,1123.2 L664,988.416 z"/>
<path d="M796.5344,1110.8448 L675.6864,1122.9192 L664.2656,995.1552 L785.1136,983.0808 z"/>
<path d="M682.93726,1122.1947 L664.95087,1002.82104 L777.86273,983.80524 L795.8492,1103.179 z"/>
<path d="M666.2099,1011.1772 L769.95886,985.13635 L794.5901,1094.8228 L690.8411,1120.8636 z"/>
<path d="M761.659,987.2196 L792.6196,1086.0479 L699.14105,1118.7804 L668.1804,1019.9521 z"/>
<path d="M789.8331,1077.1533 L707.5541,1115.8345 L670.96686,1028.8467 L753.2459,990.1655 z"/>
<path d="M715.782,1111.9663 L674.62555,1037.5454 L745.018,994.0337 L786.17444,1068.4546 z"/>
<path d="M679.1528,1045.7317 L737.27484,998.81995 L781.6472,1060.2683 L723.52515,1107.18 z"/>
<path d="M730.3002,1004.4494 L776.3225,1052.8944 L730.4998,1101.5507 L684.4775,1053.1056 z"/>
<path d="M770.3396,1046.5966 L736.4568,1095.2253 L690.4604,1059.4034 L724.3432,1010.77466 z"/>
<path d="M741.2004,1088.4174 L696.89984,1064.4185 L719.5996,1017.5827 L763.90015,1041.5815 z"/>
<path d="M703.5449,1068.0183 L716.19464,1024.608 L757.25507,1037.9817 L744.60535,1081.392 z"/>
</g>
<g fill="none" id="2" stroke="black" stroke-width="0.2mm">
<rect height="1123.1999999999998" width="796.8000000000001" x="0" y="0"/>
</g>
</svg>