<svg height="1123.1999999999998px" viewBox="0 0 796.8000000000001 1123.1999999999998" width="796.8000000000001px" xmlns="http://www.w3.org/2000/svg" xmlns:inkscape="http://www.inkscape.org/namespaces/inkscape">
<g fill="none" id="1" stroke="black" stroke-width="0.3mm">
<path d="M517.92,561.6 L581.51526,715.25195 L637.44,561.6 z"/>
<path d="M523.0076,573.89215 L585.98926,702.9598 L627.8784,561.6 z"/>
<path d="M528.04614,584.2176 L589.3404,691.651 L619.4887,562.5834 z"/>
<path d="M532.9497,592.81226 L591.75226,681.3256 L612.17334,564.3141 z"/>
<path d="M537.6539,599.8933 L593.3859,671.96466 L605.83545,566.59393 z"/>
<path d="M542.1124,605.659 L594.3819,663.53503 L600.3809,569.25793 z"/>
<path d="M546.294,610.2891 L594.8618,655.99286 L595.7194,572.17 z"/>
<path d="M550.17944,613.9454 L594.9304,649.28705 L591.7654,575.21954 z"/>
<path d="M553.7595,616.7727 L594.67725,643.36163 L588.43854,578.31757 z"/>
<path d="M557.03296,618.89984 L594.1781,638.1581 L585.6642,581.394 z"/>
<path d="M560.0045,620.4405 L593.497,633.617 L583.3737,584.3945 z"/>
<path d="M562.68396,621.4946 L592.68713,629.6792 L581.50415,587.27814 z"/>
<path d="M565.0842,622.1494 L591.7925,626.2871 L579.99854,590.01544 z"/>
<path d="M567.2209,622.4804 L590.849,623.3854 L578.8054,592.5862 z"/>
<path d="M569.11115,622.5528 L589.8855,620.92145 L577.87866,594.9777 z"/>
<path d="M570.7731,622.4223 L588.925,618.84595 L577.17725,597.1837 z"/>
<path d="M572.2252,622.13617 L587.98517,617.113 L576.6649,599.2028 z"/>
<path d="M573.486,621.7343 L587.0795,615.6801 L576.30975,601.0375 z"/>
<path d="M574.5735,621.25 L586.21796,614.5087 L576.08386,602.69324 z"/>
<path d="M575.50507,620.7107 L585.4072,613.5635 L575.963,604.1778 z"/>
<path d="M576.29724,620.1389 L584.6517,612.8126 L575.9264,605.5004 z"/>
<path d="M517.92,561.6 L435.3337,675.27026 L581.51526,715.25195 z"/>
<path d="M511.3131,570.6936 L447.02823,678.4688 L576.4276,702.9598 z"/>
<path d="M506.17032,579.3156 L457.3802,680.4281 L571.2185,692.3785 z"/>
<path d="M502.2671,587.40466 L466.48724,681.3841 L566.01465,683.3335 z"/>
<path d="M499.40472,594.923 L474.44943,681.54004 L560.9148,675.6592 z"/>
<path d="M497.4083,601.85236 L481.36667,681.0696 L555.994,669.20026 z"/>
<path d="M496.12497,608.18976 L487.33685,680.12006 L551.3071,663.81244 z"/>
<path d="M495.4219,613.94415 L492.45447,678.8154 L546.8926,659.3626 z"/>
<path d="M495.1845,619.13385 L496.80954,677.2592 L542.7749,655.7291 z"/>
<path d="M495.3145,623.7839 L500.48676,675.5368 L538.9677,652.8015 z"/>
<path d="M495.7283,627.92413 L503.56525,673.71796 L535.47546,650.4801 z"/>
<path d="M496.35526,631.58765 L506.11804,671.85895 L532.29565,648.67566 z"/>
<path d="M497.1363,634.8093 L508.21225,670.0043 L529.4204,647.3086 z"/>
<path d="M498.02237,637.62494 L509.9089,668.18866 L526.8377,646.30865 z"/>
<path d="M498.97327,640.07 L511.2632,666.43823 L524.5325,645.61395 z"/>
<path d="M499.95648,642.1795 L512.32477,664.7723 L522.48773,645.1705 z"/>
<path d="M500.94595,643.98694 L513.1378,663.20416 L520.68524,644.93115 z"/>
<path d="M501.9213,645.5243 L513.7416,661.7423 L519.1061,644.85565 z"/>
<path d="M502.8669,646.8217 L514.1708,660.39136 L517.7313,644.9091 z"/>
<path d="M503.7712,647.9073 L514.4556,659.1528 L516.5422,645.06213 z"/>
<path d="M504.62598,648.80695 L514.6225,658.0255 L515.5205,645.28973 z"/>
<path d="M581.51526,715.25195 L732.74725,691.12683 L637.44,561.6 z"/>
<path d="M593.61383,713.32196 L725.1227,680.76465 L632.966,573.89215 z"/>
<path d="M604.1345,710.71735 L717.7501,672.21484 L629.8179,585.0465 z"/>
<path d="M613.22375,707.63715 L710.7156,665.2414 L627.7632,595.1002 z"/>
<path d="M621.02313,704.2455 L704.07935,659.6301 L626.60004,604.10315 z"/>
<path d="M627.6676,700.6763 L697.88104,655.1879 L626.1539,612.11456 z"/>
<path d="M633.28467,697.0372 L692.1428,651.74207 L626.27496,619.19946 z"/>
<path d="M637.99335,693.4136 L686.8734,649.1387 L626.83575,625.4265 z"/>
<path d="M641.90375,689.8716 L682.0704,647.2417 L627.72833,630.8655 z"/>
<path d="M645.11707,686.4612 L677.723,645.9316 L628.86237,635.58594 z"/>
<path d="M647.7256,683.2188 L673.8142,645.10394 L630.1628,639.656 z"/>
<path d="M649.8126,680.1696 L670.3221,644.6681 L631.5678,643.141 z"/>
<path d="M651.4534,677.3295 L667.22174,644.54596 L633.0274,646.1033 z"/>
<path d="M652.71484,674.70685 L664.4862,644.67053 L634.50146,648.6014 z"/>
<path d="M653.65656,672.30396 L662.0874,644.985 L635.95856,650.6898 z"/>
<path d="M654.33105,670.1184 L659.9971,645.4414 L637.3744,652.41895 z"/>
<path d="M654.7843,668.1442 L658.18726,645.9996 L638.7309,653.8349 z"/>
<path d="M655.0566,666.3727 L656.63074,646.6264 L640.0152,654.9797 z"/>
<path d="M655.1825,664.79297 L655.3015,647.2947 L641.2185,655.8911 z"/>
<path d="M655.192,663.3931 L654.17487,647.9824 L642.33563,656.6033 z"/>
<path d="M655.11066,662.1603 L653.2277,648.67206 L643.36414,657.1464 z"/>
<path d="M732.74725,691.12683 L756.96,561.6 L637.44,561.6 z"/>
<path d="M734.68427,680.76465 L747.3984,561.6 L645.0646,571.96216 z"/>
<path d="M735.7014,671.2315 L739.2117,562.42896 L652.23413,580.6663 z"/>
<path d="M735.98224,662.5273 L732.2535,563.88794 L658.91156,587.91156 z"/>
<path d="M735.6839,654.63617 L726.3861,565.8099 L665.0772,593.8808 z"/>
<path d="M734.9401,647.53 L721.48145,568.05554 L670.7257,598.7413 z"/>
<path d="M733.8634,641.17206 L717.42096,570.5104 L675.86285,602.64435 z"/>
<path d="M732.54803,635.51917 L714.0963,573.0811 L680.5029,605.72656 z"/>
<path d="M731.0719,630.5241 L711.4089,575.69275 L684.6665,608.11 z"/>
<path d="M729.49884,626.1376 L709.2695,578.28613 L688.37897,609.9031 z"/>
<path d="M727.8805,622.30945 L707.5982,580.8155 L691.6685,611.20184 z"/>
<path d="M726.2579,618.9899 L706.32385,583.2464 L694.5655,612.09045 z"/>
<path d="M724.66315,616.1305 L705.3832,585.5539 L697.1009,612.64246 z"/>
<path d="M723.1208,613.6843 L704.7206,587.721 L699.30585,612.92145 z"/>
<path d="M721.64874,611.6073 L704.2874,589.73706 L701.21106,612.9825 z"/>
<path d="M720.2598,609.85767 L704.0413,591.5967 L702.84607,612.8725 z"/>
<path d="M718.96234,608.3968 L703.9457,593.2987 L704.2392,612.6313 z"/>
<path d="M717.76105,607.18896 L703.9692,594.84534 L705.41705,612.29254 z"/>
<path d="M716.6577,606.2015 L704.085,596.2411 L706.40454,611.8843 z"/>
<path d="M715.65186,605.4046 L704.27057,597.49255 L707.2248,611.4296 z"/>
<path d="M714.7414,604.77167 L704.5069,598.60754 L707.899,610.94763 z"/>
<path d="M558.22394,882.56976 L663.379,803.16034 L581.51526,715.25195 z"/>
<path d="M566.63635,876.217 L656.82996,796.1276 L579.652,728.6374 z"/>
<path d="M573.85187,869.8099 L650.6557,790.7284 L578.6107,740.4437 z"/>
<path d="M579.99615,863.48334 L644.8921,786.7056 L578.23,750.793 z"/>
<path d="M585.1878,857.3411 L639.55914,783.83264 L578.3713,759.8082 z"/>
<path d="M589.53754,851.46045 L634.6641,781.9107 L578.9166,767.6109 z"/>
<path d="M593.14764,845.8965 L630.2043,780.7667 L579.7663,774.31885 z"/>
<path d="M596.1122,840.6861 L626.16925,780.25085 L580.8368,780.04504 z"/>
<path d="M598.5167,835.85126 L622.54266,780.23444 L582.05884,784.89636 z"/>
<path d="M600.43884,831.4019 L619.30396,780.60736 L583.3755,788.9727 z"/>
<path d="M601.94806,827.3384 L616.4297,781.2766 L584.74054,792.36707 z"/>
<path d="M603.10657,823.6534 L613.89453,782.1638 L586.1171,795.1648 z"/>
<path d="M603.9696,820.3342 L611.67236,783.2039 L587.47626,797.44385 z"/>
<path d="M604.5858,817.36383 L609.7367,784.3431 L588.7958,799.2751 z"/>
<path d="M604.99786,814.72217 L608.0614,785.53766 L590.05896,800.72217 z"/>
<path d="M605.243,812.3874 L606.6212,786.75244 L591.2541,801.84216 z"/>
<path d="M605.3532,810.3366 L605.39185,787.9596 L592.37317,802.6858 z"/>
<path d="M605.3563,808.54645 L604.35034,789.1377 L593.41156,803.29785 z"/>
<path d="M605.2758,806.9937 L603.4752,790.2705 L594.3672,803.7178 z"/>
<path d="M605.1318,805.6559 L602.7466,791.3463 L595.23987,803.97986 z"/>
<path d="M604.941,804.5111 L602.14606,792.357 L596.0312,804.1139 z"/>
<path d="M581.51526,715.25195 L663.379,803.16034 L732.74725,691.12683 z"/>
<path d="M588.0644,722.2846 L668.92847,794.19763 L720.6487,693.0568 z"/>
<path d="M594.5335,728.03766 L673.0661,786.1064 L710.04193,695.395 z"/>
<path d="M600.8161,732.68317 L676.0242,778.8495 L700.8013,698.0065 z"/>
<path d="M606.83276,736.37646 L678.00635,772.382 L692.8024,700.7806 z"/>
<path d="M612.5266,739.2569 L679.19,766.65393 L685.92487,703.62823 z"/>
<path d="M617.8597,741.44867 L679.7288,761.6119 L680.05304,706.4786 z"/>
<path d="M622.80927,743.0617 L679.75476,757.2012 L675.0776,709.2762 z"/>
<path d="M627.36487,744.1929 L679.38055,753.3672 L670.89606,711.979 z"/>
<path d="M631.5261,744.9268 L678.70184,750.05615 L667.4136,714.5561 z"/>
<path d="M635.3002,745.33716 L677.79877,747.2161 L664.5426,716.9858 z"/>
<path d="M638.7001,745.4875 L676.7383,744.7977 L662.2032,719.2539 z"/>
<path d="M641.7431,745.4323 L675.57544,742.7542 L660.32294,721.3526 z"/>
<path d="M644.4497,745.2181 L674.3553,741.04205 L658.83655,723.27893 z"/>
<path d="M646.84216,744.884 L673.1138,739.62103 L657.6856,725.03406 z"/>
<path d="M648.9439,744.46295 L671.8795,738.45404 L656.8181,726.6221 z"/>
<path d="M650.77875,743.98224 L670.6746,737.5075 L656.1882,728.0493 z"/>
<path d="M652.3704,743.46423 L669.5157,736.75085 L655.75543,729.324 z"/>
<path d="M653.742,742.9272 L668.41486,736.1567 L655.4846,730.4552 z"/>
<path d="M654.91583,742.38556 L667.38043,735.70056 L655.3452,731.45294 z"/>
<path d="M655.913,741.85077 L666.41766,735.3608 L655.31085,732.3276 z"/>
<path d="M435.3337,675.27026 L439.90887,797.0084 L581.51526,715.25195 z"/>
<path d="M435.69974,685.00934 L451.23737,790.4679 L569.82074,712.0534 z"/>
<path d="M436.94275,693.44604 L460.72403,784.19476 L559.09106,709.8899 z"/>
<path d="M438.84525,700.70593 L468.5934,778.25037 L549.3192,708.5744 z"/>
<path d="M441.2251,706.9095 L475.05145,772.6763 L540.48126,707.9449 z"/>
<path d="M443.9312,712.17084 L480.28586,767.4978 L532.5408,707.86206 z"/>
<path d="M446.83957,716.597 L484.46625,762.7269 L525.452,708.2068 z"/>
<path d="M449.8497,720.28735 L487.74512,758.3653 L519.163,708.878 z"/>
<path d="M452.88135,723.3336 L490.25854,754.4063 L513.618,709.7907 z"/>
<path d="M455.87152,725.8194 L492.1273,750.8371 L508.75903,710.87415 z"/>
<path d="M458.77197,727.82086 L493.45782,747.6401 L504.528,712.06976 z"/>
<path d="M461.54684,729.4064 L494.34344,744.79443 L500.86755,713.3299 z"/>
<path d="M464.17056,730.6374 L494.8654,742.2773 L497.7219,714.61597 z"/>
<path d="M466.62616,731.5686 L495.0939,740.06433 L495.03778,715.8977 z"/>
<path d="M468.90356,732.2483 L495.08942,738.13104 L492.76486,717.15137 z"/>
<path d="M470.99844,732.7189 L494.90344,736.45264 L490.85596,718.35913 z"/>
<path d="M472.91086,733.0176 L494.57965,735.0052 L489.26733,719.50793 z"/>
<path d="M474.64435,733.1766 L494.15466,733.7654 L487.95883,720.5887 z"/>
<path d="M476.20517,733.2237 L493.659,732.71124 L486.89368,721.5957 z"/>
<path d="M477.60147,733.1827 L493.11777,731.822 L486.0386,722.52594 z"/>
<path d="M478.84277,733.07385 L492.55142,731.0783 L485.36362,723.3785 z"/>
<path d="M732.74725,432.07318 L581.51526,407.94806 L637.44,561.6 z"/>
<path d="M720.6487,430.1432 L585.98926,420.2402 L645.0646,551.23785 z"/>
<path d="M709.8759,429.35095 L590.7153,430.72003 L651.1113,541.5503 z"/>
<path d="M700.3431,429.46048 L595.54694,439.58643 L655.8125,532.57434 z"/>
<path d="M691.9594,430.27054 L600.3682,447.02548 L659.37494,524.3252 z"/>
<path d="M684.6321,431.61093 L605.08875,453.20944 L661.9817,516.80084 z"/>
<path d="M678.2686,433.3388 L609.6402,458.29675 L663.7937,509.98566 z"/>
<path d="M672.7783,435.33545 L613.9725,462.4319 L664.9517,503.8539 z"/>
<path d="M668.07385,437.50317 L618.0508,465.74564 L665.5778,498.37244 z"/>
<path d="M664.072,439.76257 L621.85297,468.35577 L665.7775,493.5029 z"/>
<path d="M660.6945,442.05002 L625.36694,470.36755 L665.64105,489.20367 z"/>
<path d="M657.8683,444.31543 L628.58887,471.87445 L665.24536,485.43137 z"/>
<path d="M655.52594,446.52014 L631.52136,472.95898 L664.6552,482.1421 z"/>
<path d="M653.6056,448.63525 L634.17206,473.69363 L663.92487,479.29233 z"/>
<path d="M652.0509,450.63992 L636.5523,474.14154 L663.0993,476.83978 z"/>
<path d="M650.81104,452.52005 L638.6761,474.3574 L662.21545,474.74377 z"/>
<path d="M649.8402,454.26703 L640.5592,474.3883 L661.3031,472.96588 z"/>
<path d="M649.0977,455.87674 L642.21875,474.2745 L660.38605,471.46997 z"/>
<path d="M648.5474,457.34857 L643.6721,474.05014 L659.483,470.22253 z"/>
<path d="M648.1574,458.6847 L644.93695,473.74393 L658.60815,469.1926 z"/>
<path d="M647.8998,459.88943 L646.0307,473.37982 L657.7721,468.35196 z"/>
<path d="M637.44,561.6 L581.51526,407.94806 L517.92,561.6 z"/>
<path d="M632.966,549.30786 L576.4276,420.2402 L527.4816,561.6 z"/>
<path d="M628.44293,538.9824 L572.51196,431.54898 L535.92035,560.61664 z"/>
<path d="M623.96844,530.38776 L569.58466,441.8744 L543.32214,558.88586 z"/>
<path d="M619.61774,523.3067 L567.48364,451.23532 L549.77386,556.606 z"/>
<path d="M615.447,517.54095 L566.06683,459.66498 L555.3614,553.9421 z"/>
<path d="M611.49664,512.9109 L565.2104,467.20715 L560.1682,551.03 z"/>
<path d="M607.7937,509.2546 L564.80707,473.91296 L564.2745,547.98047 z"/>
<path d="M604.3548,506.42728 L564.76447,479.83838 L567.75604,544.8824 z"/>
<path d="M601.18756,504.30017 L565.0038,485.0419 L570.68396,541.80597 z"/>
<path d="M598.29285,502.7595 L565.4582,489.58304 L573.1242,538.80554 z"/>
<path d="M595.6661,501.70538 L566.0715,493.5208 L575.1377,535.9219 z"/>
<path d="M593.2985,501.05063 L566.79675,496.9129 L576.77997,533.1845 z"/>
<path d="M591.17834,500.7196 L567.5954,499.81464 L578.10144,530.61383 z"/>
<path d="M589.29175,500.6472 L568.4359,502.27856 L579.14764,528.2223 z"/>
<path d="M587.6233,500.7777 L569.29285,504.35406 L579.95917,526.0163 z"/>
<path d="M586.15686,501.0638 L570.1461,506.08704 L580.57227,523.9972 z"/>
<path d="M584.876,501.46567 L570.9802,507.51987 L581.01904,522.16254 z"/>
<path d="M583.76434,501.95 L571.7833,508.69125 L581.3276,520.5068 z"/>
<path d="M582.80585,502.48932 L572.5469,509.6365 L581.5225,519.0222 z"/>
<path d="M581.9851,503.0611 L573.26495,510.38736 L581.6252,517.6996 z"/>
<path d="M517.92,561.6 L435.3337,447.92972 L435.3337,675.27026 z"/>
<path d="M511.3131,552.50635 L435.3337,466.11697 L441.9406,666.17664 z"/>
<path d="M505.23474,545.5952 L435.86227,482.12173 L447.49042,657.083 z"/>
<path d="M499.68494,540.51733 L436.7925,496.11865 L452.10995,648.164 z"/>
<path d="M494.65356,536.96545 L438.0179,508.2823 L455.91595,639.55225 z"/>
<path d="M490.1227,534.6708 L439.44977,518.7839 L459.01495,631.34534 z"/>
<path d="M486.06888,533.39984 L441.01498,527.7888 L461.50357,623.6114 z"/>
<path d="M482.46457,532.951 L442.65405,535.4546 L463.4688,616.3945 z"/>
<path d="M479.27972,533.15125 L444.31924,541.9298 L464.98846,609.719 z"/>
<path d="M476.48288,533.8535 L445.97278,547.3529 L466.13177,603.59357 z"/>
<path d="M474.04208,534.9335 L447.5855,551.8522 L466.95987,598.01434 z"/>
<path d="M471.92554,536.287 L449.13544,555.54517 L467.52643,592.9679 z"/>
<path d="M470.10233,537.82764 L450.60672,558.53894 L467.87836,588.4334 z"/>
<path d="M468.5427,539.48456 L451.98846,560.93054 L468.05627,584.38495 z"/>
<path d="M467.21835,541.2002 L453.2739,562.8069 L468.09518,580.7929 z"/>
<path d="M466.10278,542.9288 L454.4596,564.2457 L468.02505,577.6255 z"/>
<path d="M465.17133,544.6341 L455.54483,565.31616 L467.87128,574.84973 z"/>
<path d="M464.4012,546.2887 L456.53094,566.0788 L467.65527,572.4325 z"/>
<path d="M463.7716,547.8719 L457.4209,566.5871 L467.39496,570.341 z"/>
<path d="M463.26355,549.3691 L458.2188,566.88745 L467.10507,568.54346 z"/>
<path d="M462.85995,550.77057 L458.92972,567.0199 L466.79776,567.0095 z"/>
<path d="M581.51526,407.94806 L435.3337,447.92972 L517.92,561.6 z"/>
<path d="M569.82074,411.14658 L441.9406,457.02335 L523.0076,549.30786 z"/>
<path d="M559.59033,414.8167 L448.42596,464.4061 L526.7527,538.25494 z"/>
<path d="M550.6972,418.78387 L454.6921,470.31403 L529.3797,528.3799 z"/>
<path d="M543.0168,422.90628 L460.6671,474.9593 L531.0851,519.6122 z"/>
<path d="M536.42883,427.07053 L466.30057,478.53152 L532.0396,511.87573 z"/>
<path d="M530.81854,431.1874 L471.5597,481.19907 L532.39075,505.0913 z"/>
<path d="M526.0778,435.18832 L476.42618,483.11044 L532.26495,499.17902 z"/>
<path d="M522.1057,439.0221 L480.89328,484.39594 L531.77,494.05975 z"/>
<path d="M518.8087,442.652 L484.9634,485.16904 L530.9969,489.65674 z"/>
<path d="M516.1011,446.05338 L488.6461,485.52805 L530.0218,485.89636 z"/>
<path d="M513.90466,449.21133 L491.95615,485.5575 L528.90814,482.70892 z"/>
<path d="M512.1488,452.11905 L494.9123,485.32962 L527.7079,480.0291 z"/>
<path d="M510.76987,454.77588 L497.53595,484.90558 L526.46313,477.7963 z"/>
<path d="M509.71115,457.18625 L499.85013,484.33685 L525.2077,475.95468 z"/>
<path d="M508.92227,459.3583 L501.87872,483.66626 L523.96796,474.45322 z"/>
<path d="M508.3588,461.30295 L503.64587,482.92923 L522.7643,473.2456 z"/>
<path d="M507.98175,463.03305 L505.17535,482.15454 L521.6119,472.2902 z"/>
<path d="M507.75726,464.56277 L506.49026,481.3654 L520.5215,471.54962 z"/>
<path d="M507.65588,465.90698 L507.61276,480.58014 L519.5003,470.99066 z"/>
<path d="M507.65244,467.08084 L508.56375,479.81296 L518.5528,470.58398 z"/>
<path d="M756.96,561.6 L732.74725,432.07318 L637.44,561.6 z"/>
<path d="M755.02295,551.23785 L725.1227,442.43533 L647.0016,561.6 z"/>
<path d="M752.631,542.5336 L718.873,451.9685 L655.6433,560.77106 z"/>
<path d="M749.9303,535.28845 L713.8146,460.6727 L663.40234,559.312 z"/>
<path d="M747.0411,529.31915 L709.7816,468.56384 L670.3246,557.39014 z"/>
<path d="M744.0603,524.45874 L706.62506,475.66995 L676.46185,555.1445 z"/>
<path d="M741.0655,520.55566 L704.212,482.02792 L681.86975,552.68964 z"/>
<path d="M738.1172,517.47345 L702.4246,487.68085 L686.6054,550.1189 z"/>
<path d="M735.2618,515.09 L701.15906,492.6759 L690.7264,547.50726 z"/>
<path d="M732.53357,513.2969 L700.32446,497.0624 L694.2892,544.9139 z"/>
<path d="M729.95685,511.99814 L699.8417,500.89053 L697.34875,542.3845 z"/>
<path d="M727.5476,511.10953 L699.6422,504.21005 L699.9574,539.9536 z"/>
<path d="M725.3152,510.55756 L699.6674,507.06952 L702.1646,537.64606 z"/>
<path d="M723.26337,510.27853 L699.8672,509.51566 L704.01666,535.479 z"/>
<path d="M721.39166,510.2175 L700.19916,511.5927 L705.5564,533.46295 z"/>
<path d="M719.6963,510.3275 L700.62775,513.34235 L706.82324,531.60333 z"/>
<path d="M718.1708,510.5687 L701.12335,514.8032 L707.8531,529.90125 z"/>
<path d="M716.807,510.90747 L701.66174,516.01105 L708.67847,528.3547 z"/>
<path d="M715.5954,511.31577 L702.2231,516.99854 L709.32874,526.95886 z"/>
<path d="M714.5256,511.7704 L702.79156,517.79535 L709.8301,525.70746 z"/>
<path d="M713.58685,512.2524 L703.3546,518.42834 L710.20575,524.59247 z"/>
<path d="M439.90887,797.0084 L558.22394,882.56976 L581.51526,715.25195 z"/>
<path d="M449.37405,803.85333 L560.0873,869.1843 L570.18677,721.7925 z"/>
<path d="M458.2311,809.07983 L560.8952,857.393 L560.5217,728.35736 z"/>
<path d="M466.44424,812.9449 L560.86536,847.0701 L552.3385,734.8151 z"/>
<path d="M473.99792,815.6749 L560.18317,838.0897 L545.4669,741.0655 z"/>
<path d="M480.89276,817.4681 L559.00586,830.3278 L539.74945,747.03424 z"/>
<path d="M487.1418,818.4969 L557.4654,823.6643 L535.0409,752.66895 z"/>
<path d="M492.7677,818.9103 L555.6714,817.9847 L531.209,757.9352 z"/>
<path d="M497.8,818.8362 L553.7144,813.1807 L528.13367,762.81323 z"/>
<path d="M502.27313,818.3838 L551.66797,809.1513 L525.707,767.29504 z"/>
<path d="M506.22473,817.6452 L549.59106,805.8028 L523.8323,771.38214 z"/>
<path d="M509.69403,816.6978 L547.5304,803.0492 L522.42365,775.0832 z"/>
<path d="M512.72095,815.6059 L545.52185,800.8119 L521.4053,778.41235 z"/>
<path d="M515.34503,814.42236 L543.5925,799.0199 L520.7106,781.3878 z"/>
<path d="M517.6048,813.1902 L541.76196,797.6094 L520.2813,784.0306 z"/>
<path d="M519.5374,811.9437 L540.0435,796.5231 L520.0672,786.36334 z"/>
<path d="M521.17786,810.7101 L538.4454,795.71027 L520.0248,788.4098 z"/>
<path d="M522.55927,809.5101 L536.97174,795.1262 L520.11707,790.19385 z"/>
<path d="M523.7123,808.3594 L535.62335,794.7316 L520.31244,791.73914 z"/>
<path d="M524.66516,807.26917 L534.3985,794.49225 L520.5844,793.0687 z"/>
<path d="M525.44385,806.247 L533.2934,794.37836 L520.9109,794.2048 z"/>
<path d="M435.3337,675.27026 L278.88,768.6147 L439.90887,797.0084 z"/>
<path d="M422.8174,682.73785 L291.7623,770.8862 L439.54285,787.2694 z"/>
<path d="M412.333,689.7897 L303.58475,772.19684 L438.2048,778.90686 z"/>
<path d="M403.63315,696.38226 L314.35437,772.73364 L436.13507,771.77747 z"/>
<path d="M396.49084,702.49036 L324.0968,772.65717 L433.5349,765.74585 z"/>
<path d="M390.6993,708.1037 L332.85187,772.10425 L430.57138,760.6854 z"/>
<path d="M386.07153,713.22375 L340.66943,771.19073 L427.38162,756.4789 z"/>
<path d="M382.43936,717.86115 L347.6064,770.0138 L424.0768,753.0185 z"/>
<path d="M379.6527,722.0333 L353.72403,768.6542 L420.74582,750.2059 z"/>
<path d="M377.57843,725.763 L359.0858,767.17834 L417.45837,747.9521 z"/>
<path d="M376.099,729.07623 L363.75558,765.6402 L414.26797,746.17694 z"/>
<path d="M375.11154,732.00134 L367.79657,764.0832 L411.21445,744.8089 z"/>
<path d="M374.52634,734.5679 L371.27002,762.5412 L408.32623,743.7843 z"/>
<path d="M374.26584,736.8058 L374.2345,761.04065 L405.62222,743.047 z"/>
<path d="M374.26334,738.74457 L376.7455,759.6012 L403.1137,742.54767 z"/>
<path d="M374.4619,740.4131 L378.85498,758.2369 L400.8057,742.24347 z"/>
<path d="M374.81335,741.839 L380.61102,756.9574 L398.69818,742.09705 z"/>
<path d="M375.27716,743.04846 L382.058,755.7686 L396.7874,742.07635 z"/>
<path d="M375.81964,744.0661 L383.23636,754.6732 L395.0666,742.1541 z"/>
<path d="M376.41296,744.9147 L384.18277,753.6717 L393.52682,742.30707 z"/>
<path d="M377.03455,745.61523 L384.9303,752.7625 L392.1577,742.5157 z"/>
<path d="M435.3337,447.92972 L301.7063,631.8521 L435.3337,675.27026 z"/>
<path d="M424.64352,462.64352 L312.39648,635.32556 L435.3337,657.083 z"/>
<path d="M415.66376,476.45807 L322.23148,637.06616 L434.4785,641.5279 z"/>
<path d="M408.18918,489.30673 L331.2112,637.4231 L432.97333,628.32227 z"/>
<path d="M402.03094,501.15604 L339.3522,636.695 L430.99057,617.20105 z"/>
<path d="M397.01663,511.99915 L346.68326,635.1355 L428.6738,607.9174 z"/>
<path d="M392.98996,521.85004 L353.2425,632.95807 L426.14124,600.24396 z"/>
<path d="M389.81018,530.7387 L359.0744,630.34094 L423.48914,593.9725 z"/>
<path d="M387.35132,538.70685 L364.22757,627.43146 L420.79483,588.91376 z"/>
<path d="M385.5014,545.8049 L368.75296,624.35004 L418.11932,584.8972 z"/>
<path d="M384.16153,552.08844 L372.70227,621.1938 L415.50992,581.76984 z"/>
<path d="M383.24478,557.6169 L376.1269,618.0399 L413.00204,579.3953 z"/>
<path d="M382.67535,562.45074 L379.0769,614.9483 L410.62146,577.653 z"/>
<path d="M382.38748,566.6505 L381.60046,611.9647 L408.38577,576.4368 z"/>
<path d="M382.32452,570.2757 L383.7433,609.1225 L406.3059,575.65393 z"/>
<path d="M382.43802,573.3834 L385.5483,606.445 L404.3874,575.2237 z"/>
<path d="M382.68686,576.0283 L387.05542,603.94727 L402.63144,575.0765 z"/>
<path d="M383.03632,578.26184 L388.3015,601.63763 L401.0359,575.1526 z"/>
<path d="M383.45755,580.1319 L389.32025,599.5188 L399.59592,575.40137 z"/>
<path d="M383.92657,581.68286 L390.1423,597.5894 L398.30484,575.7798 z"/>
<path d="M384.42383,582.9554 L390.79532,595.84467 L397.15457,576.252 z"/>
<path d="M435.3337,447.92972 L301.7063,491.3479 L301.7063,631.8521 z"/>
<path d="M424.64352,451.40317 L301.7063,502.58826 L312.39648,617.1383 z"/>
<path d="M414.80853,455.498 L302.5615,511.75226 L321.37625,603.8795 z"/>
<path d="M405.82877,459.99832 L304.06668,519.12244 L328.85083,592.009 z"/>
<path d="M397.6878,464.72824 L306.0494,524.95337 L335.00906,581.4481 z"/>
<path d="M390.35675,469.54626 L308.36618,529.47296 L340.02338,572.11053 z"/>
<path d="M383.7975,474.3404 L310.89877,532.8839 L344.05005,563.9054 z"/>
<path d="M377.9656,479.02386 L313.55087,535.36566 L347.22983,556.7402 z"/>
<path d="M372.8124,483.53122 L316.24518,537.0756 L349.6887,550.5229 z"/>
<path d="M368.28705,487.81476 L318.92065,538.1514 L351.5386,545.1636 z"/>
<path d="M364.33774,491.8417 L321.5301,538.7124 L352.87848,540.5756 z"/>
<path d="M360.91312,495.59137 L324.03796,538.86145 L353.7952,536.67694 z"/>
<path d="M357.9631,499.05295 L326.41855,538.68665 L354.36465,533.3901 z"/>
<path d="M355.43954,502.22366 L328.65424,538.26294 L354.65253,530.6431 z"/>
<path d="M353.29672,505.1068 L330.7341,537.6534 L354.71548,528.36957 z"/>
<path d="M351.4917,507.71054 L332.65262,536.91064 L354.602,526.50854 z"/>
<path d="M349.9846,510.04654 L334.40857,536.0785 L354.35315,525.0047 z"/>
<path d="M348.7385,512.1291 L336.00412,535.19257 L354.00366,523.80804 z"/>
<path d="M347.71976,513.9742 L337.4441,534.2818 L353.58246,522.8737 z"/>
<path d="M346.8977,515.59875 L338.73517,533.3692 L353.11343,522.16174 z"/>
<path d="M346.2447,517.0204 L339.8854,532.4726 L352.61618,521.6367 z"/>
<path d="M732.74725,432.07318 L663.379,320.0397 L581.51526,407.94806 z"/>
<path d="M727.1978,423.1105 L656.82996,327.07236 L593.61383,409.87805 z"/>
<path d="M721.56836,415.42746 L651.77264,333.6968 L604.30054,410.93665 z"/>
<path d="M715.9847,408.889 L647.97485,339.876 L613.68195,411.29593 z"/>
<path d="M710.54395,403.36795 L645.23145,345.5896 L621.8662,411.10336 z"/>
<path d="M705.3189,398.7457 L643.36224,350.8307 L628.9604,410.48453 z"/>
<path d="M700.36237,394.9125 L642.2101,355.603 L635.0691,409.54544 z"/>
<path d="M695.7102,391.76773 L641.6388,359.9184 L640.29254,408.3748 z"/>
<path d="M691.38446,389.2198 L641.5311,363.79492 L644.72595,407.04623 z"/>
<path d="M687.39624,387.1858 L641.7867,367.255 L648.4586,405.62012 z"/>
<path d="M683.74744,385.59134 L642.32043,370.32422 L651.57367,404.14536 z"/>
<path d="M680.4333,384.36996 L643.0607,373.0299 L654.1475,402.66104 z"/>
<path d="M677.4435,383.46277 L643.94763,375.4004 L656.2504,401.19775 z"/>
<path d="M674.7638,382.81778 L644.9319,377.4642 L657.94586,399.77896 z"/>
<path d="M672.37726,382.3895 L645.97296,379.2494 L659.2913,398.42206 z"/>
<path d="M670.2649,382.13828 L647.03845,380.7832 L660.3382,397.13947 z"/>
<path d="M668.4068,382.02988 L648.1024,382.0917 L661.1323,395.93936 z"/>
<path d="M666.7825,382.03482 L649.14484,383.1995 L661.7143,394.8266 z"/>
<path d="M665.37146,382.128 L650.1504,384.12967 L662.11975,393.80325 z"/>
<path d="M664.15375,382.28812 L651.1079,384.90356 L662.3799,392.86923 z"/>
<path d="M663.1101,382.49738 L652.0097,385.5408 L662.5218,392.02277 z"/>
<path d="M581.51526,407.94806 L439.90887,326.19156 L435.3337,447.92972 z"/>
<path d="M570.18677,401.40753 L439.54285,335.9306 L447.02823,444.7312 z"/>
<path d="M559.7352,396.16937 L440.1417,344.63464 L456.88092,441.2653 z"/>
<path d="M550.1677,392.0466 L441.4808,352.3651 L465.10925,437.65762 z"/>
<path d="M541.4728,388.87207 L443.3711,359.1885 L471.91394,434.00873 z"/>
<path d="M533.62463,386.4974 L445.6545,365.17413 L477.47864,430.3978 z"/>
<path d="M526.58704,384.79153 L448.20044,370.39203 L481.97034,426.88577 z"/>
<path d="M520.3161,383.63956 L450.90204,374.91153 L485.53967,423.51825 z"/>
<path d="M514.763,382.9413 L453.67307,378.80005 L488.32178,420.32794 z"/>
<path d="M509.8758,382.61002 L456.44495,382.12228 L490.43707,417.337 z"/>
<path d="M505.60135,382.571 L459.1643,384.93945 L491.9922,414.55887 z"/>
<path d="M501.88638,382.7605 L461.79056,387.30902 L493.0809,411.99982 z"/>
<path d="M498.6787,383.12436 L464.2938,389.28427 L493.78534,409.66068 z"/>
<path d="M495.92792,383.61716 L466.6531,390.9144 L494.17682,407.53778 z"/>
<path d="M493.58594,384.20093 L468.855,392.24426 L494.3169,405.6241 z"/>
<path d="M491.60745,384.8444 L470.89197,393.31467 L494.25842,403.91028 z"/>
<path d="M489.95023,385.52203 L472.76126,394.1623 L494.04636,402.385 z"/>
<path d="M488.5751,386.21326 L474.46408,394.82013 L493.71866,401.03595 z"/>
<path d="M487.44623,386.9018 L476.00446,395.31738 L493.30716,399.85016 z"/>
<path d="M486.53088,387.57504 L477.38867,395.68 L492.8383,398.81427 z"/>
<path d="M485.7995,388.22345 L478.62463,395.93076 L492.3337,397.91513 z"/>
<path d="M435.3337,447.92972 L278.88,354.5853 L301.7063,491.3479 z"/>
<path d="M422.8174,440.46216 L280.70612,365.5263 L312.39648,487.87445 z"/>
<path d="M411.44852,434.4673 L283.24133,375.31415 L321.23016,484.08148 z"/>
<path d="M401.19193,429.73505 L286.28043,384.01553 L328.44763,480.11234 z"/>
<path d="M391.99902,426.07748 L289.6538,391.70328 L334.26718,476.08215 z"/>
<path d="M383.8114,423.32755 L293.22287,398.45358 L338.8857,472.0818 z"/>
<path d="M376.56433,421.33765 L296.87592,404.34384 L342.47977,468.18143 z"/>
<path d="M370.18924,419.97812 L300.52423,409.45087 L345.20654,464.43393 z"/>
<path d="M364.61606,419.13596 L304.09882,413.8495 L347.20514,460.87747 z"/>
<path d="M359.77466,418.71304 L307.5473,417.61172 L348.59802,457.53815 z"/>
<path d="M355.59647,418.62494 L310.83136,420.80585 L349.49216,454.43213 z"/>
<path d="M352.01526,418.7994 L313.92422,423.49594 L349.9805,451.56757 z"/>
<path d="M348.968,419.17514 L316.80875,425.74167 L350.14328,448.9461 z"/>
<path d="M346.39523,419.70044 L319.4755,427.59802 L350.04926,446.56442 z"/>
<path d="M344.24167,420.33224 L321.9214,429.11536 L349.75693,444.4153 z"/>
<path d="M342.45605,421.0349 L324.14825,430.33936 L349.3157,442.48868 z"/>
<path d="M340.99142,421.77927 L326.16165,431.31128 L348.76694,440.77237 z"/>
<path d="M339.80502,422.5418 L327.97006,432.06818 L348.1449,439.25293 z"/>
<path d="M338.85825,423.30392 L329.58405,432.64294 L347.47772,437.91605 z"/>
<path d="M338.1163,424.05106 L331.01553,433.0648 L346.78815,436.74707 z"/>
<path d="M337.54825,424.77216 L332.27734,433.35938 L346.0944,435.73138 z"/>
<path d="M300.2754,906.4722 L431.48373,918.63043 L439.90887,797.0084 z"/>
<path d="M310.77206,907.4449 L432.15775,908.9007 L428.7382,805.76556 z"/>
<path d="M320.4829,907.56134 L431.8842,900.6499 L419.3009,813.8999 z"/>
<path d="M329.39502,907.0084 L430.87753,893.7099 L411.39545,821.3928 z"/>
<path d="M337.5136,905.9445 L429.31897,887.9245 L404.83542,828.24207 z"/>
<path d="M344.85806,904.5029 L427.36026,883.1499 L399.44968,834.45825 z"/>
<path d="M351.45822,902.7947 L425.12744,879.2546 L395.08234,840.0618 z"/>
<path d="M357.35178,900.9115 L422.72382,876.11914 L391.5924,845.08044 z"/>
<path d="M362.58154,898.9281 L420.2333,873.63605 L388.85318,849.54694 z"/>
<path d="M367.19366,896.9047 L417.7229,871.7089 L386.75143,853.49744 z"/>
<path d="M371.23602,894.88904 L415.24518,870.252 L385.1868,856.97003 z"/>
<path d="M374.75674,892.9181 L412.8405,869.18945 L384.07074,860.00354 z"/>
<path d="M377.80344,891.01984 L410.53894,868.4546 L383.32562,862.6367 z"/>
<path d="M380.42227,889.2146 L408.36188,867.98914 L382.88385,864.90735 z"/>
<path d="M382.65744,887.51654 L406.32364,867.7426 L382.68692,866.8519 z"/>
<path d="M384.55075,885.93463 L404.43268,867.6713 L382.68457,868.5051 z"/>
<path d="M386.1413,884.4736 L402.69284,867.73804 L382.83386,869.8995 z"/>
<path d="M387.46542,883.13477 L401.10413,867.91095 L383.09845,871.06537 z"/>
<path d="M388.55652,881.9168 L399.66367,868.1633 L383.4478,872.03094 z"/>
<path d="M389.4451,880.8165 L398.3664,868.4727 L383.8565,872.82184 z"/>
<path d="M390.15878,879.82904 L397.2056,868.8207 L384.3036,873.46136 z"/>
<path d="M439.90887,797.0084 L431.48373,918.63043 L558.22394,882.56976 z"/>
<path d="M439.23486,806.7382 L441.62296,915.7456 L548.7587,875.72485 z"/>
<path d="M439.4259,815.4588 L450.19382,912.54395 L539.9968,870.20593 z"/>
<path d="M440.28732,823.2256 L457.37805,909.15686 L531.9512,865.8262 z"/>
<path d="M441.6546,830.1001 L463.3439,905.6904 L524.61804,862.4181 z"/>
<path d="M443.38974,836.14734 L468.24585,902.22864 L517.98096,859.83264 z"/>
<path d="M445.37823,841.43384 L472.22464,898.837 L512.0137,857.93787 z"/>
<path d="M447.52594,846.02606 L475.40778,895.56506 L506.68283,856.6175 z"/>
<path d="M449.7565,849.9892 L477.9098,892.4492 L501.9503,855.7702 z"/>
<path d="M452.00876,853.386 L479.833,889.5149 L497.77478,855.30774 z"/>
<path d="M454.23468,856.2763 L481.26837,886.7783 L494.1135,855.154 z"/>
<path d="M456.39737,858.7165 L482.29596,884.2484 L490.9232,855.2438 z"/>
<path d="M458.46927,860.75903 L482.98615,881.92804 L488.16113,855.5216 z"/>
<path d="M460.43063,862.4526 L483.40015,879.8155 L485.78577,855.9406 z"/>
<path d="M462.2682,863.8416 L483.591,877.9055 L483.75735,856.46155 z"/>
<path d="M463.974,864.9667 L483.6043,876.19 L482.03824,857.05194 z"/>
<path d="M465.54443,865.86456 L483.47903,874.65894 L480.5931,857.6851 z"/>
<path d="M466.9792,866.5681 L483.24814,873.301 L479.3892,858.3395 z"/>
<path d="M468.2807,867.10675 L482.93942,872.1041 L478.3964,858.99774 z"/>
<path d="M469.4534,867.50653 L482.576,871.0556 L477.58716,859.6465 z"/>
<path d="M470.5032,867.79047 L482.17688,870.1429 L476.93646,860.27527 z"/>
<path d="M173.77588,643.3565 L278.88,768.6147 L301.7063,631.8521 z"/>
<path d="M182.1842,653.37714 L280.70612,757.6737 L291.47186,632.77246 z"/>
<path d="M190.06596,661.7209 L281.56735,747.6816 L282.72885,634.42084 z"/>
<path d="M197.38606,668.5977 L281.66028,738.6207 L275.31583,636.6048 z"/>
<path d="M204.128,674.1996 L281.1527,730.4595 L269.08142,639.16425 z"/>
<path d="M210.28998,678.7004 L280.187,723.1558 L263.88516,641.9671 z"/>
<path d="M215.88174,682.2568 L278.88287,716.66077 L259.59753,644.90576 z"/>
<path d="M220.92184,685.0091 L277.34006,710.92035 L256.10028,647.89386 z"/>
<path d="M225.43529,687.08203 L275.64087,705.87823 L253.28601,650.86304 z"/>
<path d="M229.45174,688.5857 L273.85248,701.477 L251.05795,653.76056 z"/>
<path d="M233.0038,689.617 L272.0289,697.65967 L249.32945,656.5466 z"/>
<path d="M236.12581,690.26044 L270.21295,694.37067 L248.0234,659.1922 z"/>
<path d="M238.85278,690.58923 L268.4378,691.5564 L247.0716,661.6777 z"/>
<path d="M241.21957,690.6666 L266.7285,689.1661 L246.4141,663.9906 z"/>
<path d="M243.2603,690.5466 L265.10333,687.15204 L245.99852,666.1247 z"/>
<path d="M245.00774,690.275 L263.57495,685.46985 L245.77946,668.0784 z"/>
<path d="M246.49312,689.8906 L262.1513,684.07855 L245.71773,669.8542 z"/>
<path d="M247.74577,689.42566 L260.83664,682.9406 L245.77975,671.4571 z"/>
<path d="M248.79305,688.90686 L259.63208,682.0219 L245.93704,672.89453 z"/>
<path d="M249.66017,688.356 L258.53647,681.29175 L246.16553,674.17554 z"/>
<path d="M250.37027,687.7909 L257.5468,680.7224 L246.4451,675.31 z"/>
<path d="M301.7063,631.8521 L278.88,768.6147 L435.3337,675.27026 z"/>
<path d="M299.8802,642.7931 L291.3963,761.14716 L424.64352,671.7968 z"/>
<path d="M299.20148,652.2614 L302.05606,753.99915 L414.66245,669.4765 z"/>
<path d="M299.42984,660.40045 L311.06458,747.2373 L405.42557,668.0993 z"/>
<path d="M300.36063,667.3474 L318.61346,740.9063 L396.94592,667.4834 z"/>
<path d="M301.82086,673.2321 L324.88007,735.0325 L389.2191,667.47253 z"/>
<path d="M303.6656,678.17615 L330.0272,729.6277 L382.22723,667.9333 z"/>
<path d="M305.7745,682.29224 L334.2032,724.6921 L375.9423,668.75275 z"/>
<path d="M308.0488,685.68427 L337.54233,720.217 L370.3289,669.8359 z"/>
<path d="M310.4083,688.44684 L340.16525,716.18646 L365.34647,671.10376 z"/>
<path d="M312.78885,690.666 L342.17975,712.57983 L360.95142,672.4912 z"/>
<path d="M315.1401,692.4191 L343.6815,709.37274 L357.09842,673.9452 z"/>
<path d="M317.42343,693.77545 L344.75482,706.5386 L353.74176,675.4231 z"/>
<path d="M319.60992,694.79645 L345.4738,704.0493 L350.83627,676.8913 z"/>
<path d="M321.67905,695.5367 L345.90277,701.87665 L348.33817,678.3237 z"/>
<path d="M323.61694,696.0439 L346.09763,699.99243 L346.20544,679.70074 z"/>
<path d="M325.4154,696.3598 L346.10623,698.3691 L344.39838,681.0082 z"/>
<path d="M327.07068,696.5205 L345.9696,696.9802 L342.87973,682.2363 z"/>
<path d="M328.58258,696.5573 L345.7224,695.8007 L341.615,683.379 z"/>
<path d="M329.95377,696.49677 L345.39383,694.807 L340.57242,684.4333 z"/>
<path d="M331.18896,696.3616 L345.00812,693.9771 L339.72293,685.3984 z"/>
<path d="M558.22394,240.63025 L439.90887,326.19156 L581.51526,407.94806 z"/>
<path d="M548.7587,247.47516 L451.23737,332.7321 L579.652,394.56262 z"/>
<path d="M540.95703,254.29572 L461.51053,337.67853 L577.1805,382.79562 z"/>
<path d="M534.6013,260.96634 L470.76413,341.28787 L574.2826,372.51563 z"/>
<path d="M529.4943,267.39206 L479.04562,343.7861 L571.1081,363.5917 z"/>
<path d="M525.45844,273.50357 L486.4106,345.37054 L567.779,355.89572 z"/>
<path d="M522.3346,279.25293 L492.92007,346.21255 L564.3934,349.30435 z"/>
<path d="M519.98145,284.6097 L498.63794,346.4599 L561.0287,343.70023 z"/>
<path d="M518.274,289.55774 L503.6292,346.23914 L557.7449,338.973 z"/>
<path d="M517.1024,294.09222 L507.95847,345.65784 L554.5872,335.01978 z"/>
<path d="M516.37085,298.2175 L511.68875,344.8068 L551.58844,331.74557 z"/>
<path d="M515.9963,301.94464 L514.88074,343.7619 L548.77106,329.06332 z"/>
<path d="M515.90704,305.29 L517.592,342.58603 L546.14905,326.89383 z"/>
<path d="M516.0419,308.27368 L519.8765,341.33063 L543.7297,325.16553 z"/>
<path d="M516.34863,310.91824 L521.7848,340.0374 L541.51465,323.81418 z"/>
<path d="M516.7835,313.24777 L523.36316,338.73956 L539.5014,322.7825 z"/>
<path d="M517.3099,315.28714 L524.65424,337.463 L537.68396,322.0197 z"/>
<path d="M517.89746,317.0612 L525.6966,336.22754 L536.054,321.4811 z"/>
<path d="M518.52136,318.5945 L526.5252,335.04782 L534.6015,321.12753 z"/>
<path d="M519.1617,319.91077 L527.1713,333.9342 L533.31506,320.9249 z"/>
<path d="M519.8024,321.03265 L527.6628,332.89346 L532.1828,320.84375 z"/>
<path d="M663.379,320.0397 L558.22394,240.63025 L581.51526,407.94806 z"/>
<path d="M654.9666,313.68692 L560.0873,254.01567 L588.0644,400.91537 z"/>
<path d="M647.3763,308.91324 L562.32544,265.76764 L593.41656,393.9371 z"/>
<path d="M640.5722,305.46158 L564.8127,276.0212 L597.73334,387.1352 z"/>
<path d="M634.5115,303.10635 L567.44635,284.91034 L601.16046,380.60132 z"/>
<path d="M629.14624,301.65067 L570.1435,292.5656 L603.8285,374.4017 z"/>
<path d="M624.426,300.92386 L572.8383,299.1125 L605.85394,368.58163 z"/>
<path d="M620.299,300.77896 L575.47955,304.67 L607.3397,363.169 z"/>
<path d="M616.71344,301.09024 L578.0284,309.34995 L608.37646,358.1778 z"/>
<path d="M613.61865,301.751 L580.4562,313.25616 L609.0434,353.6108 z"/>
<path d="M610.96564,302.67142 L582.74316,316.48453 L609.4094,349.462 z"/>
<path d="M608.7078,303.7765 L584.87646,319.12274 L609.53394,345.71878 z"/>
<path d="M606.80133,305.00418 L586.84906,321.25043 L609.46783,342.36337 z"/>
<path d="M605.20514,306.3039 L588.65857,322.93945 L609.2545,339.37466 z"/>
<path d="M603.8814,307.63474 L590.3063,324.25427 L608.93054,336.72897 z"/>
<path d="M602.7954,308.9643 L591.7962,325.25226 L608.5266,334.40146 z"/>
<path d="M601.91547,310.26733 L593.13464,325.9842 L608.0681,332.3665 z"/>
<path d="M601.213,311.5247 L594.3293,326.49478 L607.5759,330.59854 z"/>
<path d="M600.6623,312.7223 L595.38904,326.82306 L607.0669,329.07263 z"/>
<path d="M600.2405,313.85034 L596.32324,327.00305 L606.5545,327.76462 z"/>
<path d="M599.92706,314.90256 L597.1418,327.06396 L606.0494,326.65146 z"/>
<path d="M278.88,768.6147 L300.2754,906.4722 L439.90887,797.0084 z"/>
<path d="M280.59164,779.6433 L311.44608,897.7151 L427.02655,794.73694 z"/>
<path d="M283.06,789.08905 L320.6925,889.47687 L415.31177,793.5295 z"/>
<path d="M286.0706,797.12006 L328.26205,881.8011 L404.73163,793.1742 z"/>
<path d="M289.4459,803.89453 L334.3796,874.71094 L395.23874,793.48987 z"/>
<path d="M293.0406,809.5599 L339.24835,868.21326 L386.7753,794.32227 z"/>
<path d="M296.7372,814.25214 L343.0505,862.30194 L379.27652,795.54126 z"/>
<path d="M300.4423,818.0961 L345.94858,856.9611 L372.6734,797.03815 z"/>
<path d="M304.0828,821.2053 L348.08658,852.16724 L366.8949,798.7228 z"/>
<path d="M307.6031,823.68225 L349.59125,847.8917 L361.86993,800.52136 z"/>
<path d="M310.96216,825.619 L350.57355,844.10205 L357.5286,802.37427 z"/>
<path d="M314.13104,827.09766 L351.12994,840.76385 L353.80325,804.2338 z"/>
<path d="M317.09097,828.191 L351.3438,837.84143 L350.6295,806.0629 z"/>
<path d="M319.8312,828.963 L351.28665,835.2992 L347.9464,807.8332 z"/>
<path d="M322.34763,829.4699 L351.01944,833.10187 L345.6972,809.52356 z"/>
<path d="M324.6414,829.76044 L350.59366,831.21564 L343.82922,811.11926 z"/>
<path d="M326.71756,829.8769 L350.0525,829.6079 L342.2942,812.6106 z"/>
<path d="M328.58435,829.85535 L349.43185,828.2481 L341.04807,813.9919 z"/>
<path d="M330.25214,829.7268 L348.76114,827.1076 L340.05096,815.2609 z"/>
<path d="M331.73288,829.5173 L348.06433,826.1599 L339.26706,816.4182 z"/>
<path d="M333.0394,829.24866 L347.36053,825.38055 L338.66434,817.4661 z"/>
<path d="M301.7063,491.3479 L173.77588,643.3565 L301.7063,631.8521 z"/>
<path d="M291.47186,503.5086 L184.01031,642.43616 L301.7063,620.61176 z"/>
<path d="M282.87494,514.6228 L193.426,640.6902 L300.88754,611.2435 z"/>
<path d="M275.71902,524.7082 L202.02292,638.3345 L299.44653,603.51385 z"/>
<path d="M269.82333,533.7983 L209.8168,635.5488 L297.54834,597.2094 z"/>
<path d="M265.0228,541.93835 L216.83533,632.4816 L295.33032,592.13654 z"/>
<path d="M261.16782,549.1818 L223.11493,629.254 L292.90573,588.12067 z"/>
<path d="M258.12357,555.5876 L228.69818,625.9634 L290.3667,585.00555 z"/>
<path d="M255.76955,561.21765 L233.63167,622.68677 L287.78723,582.6521 z"/>
<path d="M253.99852,566.1352 L237.96411,619.48395 L285.22583,580.9374 z"/>
<path d="M252.71576,570.4031 L241.74506,616.40027 L282.72763,579.7532 z"/>
<path d="M251.8381,574.0828 L245.02365,613.4685 L280.3267,579.0052 z"/>
<path d="M251.29295,577.2337 L247.8479,610.7114 L278.0476,578.6114 z"/>
<path d="M251.01735,579.9119 L250.26387,608.14343 L275.90723,578.50116 z"/>
<path d="M250.95706,582.1704 L252.31534,605.77203 L273.91605,578.614 z"/>
<path d="M251.06573,584.05853 L254.0434,603.59937 L272.0793,578.89856 z"/>
<path d="M251.30394,585.6218 L255.48627,601.62335 L270.39822,579.31134 z"/>
<path d="M251.63853,586.902 L256.67923,599.8384 L268.8707,579.81616 z"/>
<path d="M252.0418,587.9369 L257.65454,598.2366 L267.49213,580.38306 z"/>
<path d="M252.49081,588.76086 L258.44156,596.8083 L266.2561,580.98737 z"/>
<path d="M252.96687,589.40466 L259.0667,595.5426 L265.15488,581.60925 z"/>
<path d="M278.88,768.6147 L182.31932,847.73706 L300.2754,906.4722 z"/>
<path d="M271.15515,774.9445 L191.75581,852.43585 L298.56375,895.4436 z"/>
<path d="M264.8032,781.1438 L200.30045,855.87646 L296.37106,885.80365 z"/>
<path d="M259.64297,787.12244 L207.9861,858.2707 L293.84564,877.4309 z"/>
<path d="M255.51042,792.8143 L214.85486,859.80347 L291.10944,870.20624 z"/>
<path d="M252.25798,798.1734 L220.95523,860.6357 L288.2615,864.01483 z"/>
<path d="M249.75377,803.1704 L226.33974,860.906 L285.38123,858.74756 z"/>
<path d="M247.88065,807.78925 L231.06305,860.73334 L282.53104,854.3014 z"/>
<path d="M246.53523,812.0248 L235.1805,860.2188 L279.759,850.5804 z"/>
<path d="M245.62685,815.8803 L238.74677,859.4477 L277.1011,847.496 z"/>
<path d="M245.07645,819.3657 L241.81511,858.4916 L274.58316,844.9667 z"/>
<path d="M244.81554,822.4958 L244.43655,857.4096 L272.22263,842.91864 z"/>
<path d="M244.78522,825.2889 L246.65944,856.2503 L270.03006,841.2848 z"/>
<path d="M244.93517,827.7658 L248.5291,855.05304 L268.01047,840.0051 z"/>
<path d="M245.22267,829.9488 L250.0876,853.84924 L266.16446,839.02594 z"/>
<path d="M245.61186,831.8608 L251.37375,852.6634 L264.4891,838.2998 z"/>
<path d="M246.07281,833.525 L252.42297,851.5143 L262.9789,837.78467 z"/>
<path d="M246.58083,834.9642 L253.26746,850.4159 L261.62643,837.4439 z"/>
<path d="M247.11577,836.2003 L253.93617,849.3782 L260.4228,837.24554 z"/>
<path d="M247.66139,837.2545 L254.45511,848.40753 L259.35822,837.1619 z"/>
<path d="M248.2049,838.1468 L254.84735,847.5079 L258.4225,837.1693 z"/>
<path d="M173.77588,479.8435 L173.77588,643.3565 L301.7063,491.3479 z"/>
<path d="M173.77588,492.92453 L184.01031,631.1958 L291.47186,490.42755 z"/>
<path d="M174.59464,503.98624 L192.60724,619.9343 L282.05618,490.62732 z"/>
<path d="M176.03564,513.2621 L199.76315,609.5898 L273.45926,491.696 z"/>
<path d="M177.93384,520.9683 L205.65884,600.15826 L265.66537,493.42133 z"/>
<path d="M180.15184,527.3035 L210.45937,591.6193 L258.64685,495.62506 z"/>
<path d="M182.57645,532.4488 L214.31436,583.93976 L252.36725,498.15936 z"/>
<path d="M185.11548,536.56805 L217.35858,577.07733 L246.78398,500.9025 z"/>
<path d="M187.69492,539.8088 L219.71262,570.98334 L241.8505,503.75574 z"/>
<path d="M190.25633,542.30273 L221.48364,565.60516 L237.51805,506.63998 z"/>
<path d="M192.75452,544.16693 L222.7664,560.88794 L233.73712,509.493 z"/>
<path d="M195.15547,545.50464 L223.64406,556.77637 L230.45851,512.2669 z"/>
<path d="M197.43456,546.4064 L224.18921,553.2156 L227.63426,514.92596 z"/>
<path d="M199.57494,546.9511 L224.46481,550.1524 L225.21829,517.4444 z"/>
<path d="M201.56613,547.2072 L224.5251,547.53577 L223.16682,519.80493 z"/>
<path d="M203.40285,547.2335 L224.41643,545.3173 L221.43877,521.9971 z"/>
<path d="M205.08392,547.0802 L224.17822,543.4517 L219.9959,524.016 z"/>
<path d="M206.61147,546.7899 L223.84363,541.89685 L218.80293,525.86115 z"/>
<path d="M207.99005,546.3985 L223.44038,540.61395 L217.82762,527.53546 z"/>
<path d="M209.22607,545.9357 L222.99136,539.5677 L217.0406,529.0445 z"/>
<path d="M210.3273,545.4263 L222.5153,538.7258 L216.41545,530.3958 z"/>
<path d="M300.2754,216.7278 L278.88,354.5853 L439.90887,326.19156 z"/>
<path d="M298.56375,227.7564 L291.7623,352.31378 L428.7382,317.43445 z"/>
<path d="M298.01965,237.721 L302.72037,349.52344 L418.32422,310.26022 z"/>
<path d="M298.39572,246.66519 L311.9687,346.3824 L408.69986,304.45706 z"/>
<path d="M299.48154,254.64256 L319.70718,343.02835 L399.87552,299.8337 z"/>
<path d="M301.0996,261.7134 L326.12064,339.57278 L391.84402,296.2184 z"/>
<path d="M303.1013,267.94217 L331.3785,336.10443 L384.58447,293.45804 z"/>
<path d="M305.36346,273.39514 L335.63498,332.69272 L378.0658,291.41675 z"/>
<path d="M307.7852,278.13895 L339.02945,329.39066 L372.2496,289.97504 z"/>
<path d="M310.28473,282.2391 L341.68707,326.2374 L367.09247,289.02814 z"/>
<path d="M312.7969,285.75897 L343.7195,323.26065 L362.54785,288.48502 z"/>
<path d="M315.27072,288.7591 L345.22577,320.4786 L358.56778,288.26694 z"/>
<path d="M317.6671,291.29666 L346.29312,317.90167 L355.104,288.3063 z"/>
<path d="M319.9572,293.42505 L346.998,315.53406 L352.10907,288.54553 z"/>
<path d="M322.12045,295.1938 L347.4069,313.37497 L349.5369,288.9359 z"/>
<path d="M324.14337,296.6483 L347.5773,311.41983 L347.3436,289.43652 z"/>
<path d="M326.0181,297.83 L347.5586,309.66116 L345.48758,290.01346 z"/>
<path d="M327.74133,298.7765 L347.3929,308.08936 L343.93002,290.6388 z"/>
<path d="M329.31345,299.5215 L347.11588,306.6933 L342.63492,291.2898 z"/>
<path d="M330.73764,300.09528 L346.75742,305.46103 L341.5692,291.94833 z"/>
<path d="M332.01923,300.52454 L346.34235,304.38 L340.70267,292.6001 z"/>
<path d="M439.90887,326.19156 L278.88,354.5853 L435.3337,447.92972 z"/>
<path d="M427.02655,328.46304 L291.3963,362.05286 L435.69974,438.19067 z"/>
<path d="M416.17612,331.15024 L302.94058,368.14386 L435.00586,429.41248 z"/>
<path d="M407.11728,334.10974 L313.5058,373.04535 L433.49948,421.55148 z"/>
<path d="M399.62836,337.22458 L323.1053,376.92584 L431.38892,414.55615 z"/>
<path d="M393.50653,340.40067 L331.76797,379.93628 L428.84808,408.36963 z"/>
<path d="M388.56744,343.56354 L339.5344,382.21094 L426.02075,402.9321 z"/>
<path d="M384.6448,346.6553 L346.4533,383.86862 L423.02448,398.18262 z"/>
<path d="M381.58948,349.6324 L352.57898,385.01376 L419.9541,394.06042 z"/>
<path d="M379.26865,352.4629 L357.969,385.7375 L416.88495,390.5062 z"/>
<path d="M377.56467,355.12485 L362.68228,386.119 L413.87564,387.46274 z"/>
<path d="M376.37408,357.6044 L366.77774,386.22647 L410.97076,384.8757 z"/>
<path d="M375.60635,359.89417 L370.31317,386.1184 L408.20303,382.694 z"/>
<path d="M375.18292,361.9921 L373.34436,385.84445 L405.59528,380.87 z"/>
<path d="M375.03583,363.9003 L375.92444,385.4465 L403.1623,379.35977 z"/>
<path d="M375.10693,365.624 L378.1035,384.95956 L400.91217,378.12302 z"/>
<path d="M375.34665,367.17084 L379.92816,384.41266 L398.84775,377.12308 z"/>
<path d="M375.71317,368.55017 L381.44174,383.82947 L396.96768,376.3269 z"/>
<path d="M376.17145,369.77252 L382.6838,383.22928 L395.2673,375.70477 z"/>
<path d="M376.69244,370.84906 L383.6905,382.62732 L393.73965,375.2302 z"/>
<path d="M377.2523,371.79132 L384.49442,382.03555 L392.37585,374.8797 z"/>
<path d="M278.88,354.5853 L173.77588,479.8435 L301.7063,491.3479 z"/>
<path d="M270.47168,364.60596 L184.01031,480.76385 L299.8802,480.4069 z"/>
<path d="M263.55475,373.8986 L193.27989,480.7353 L297.5275,471.14282 z"/>
<path d="M257.93277,382.44553 L201.6197,479.9679 L294.8097,463.36328 z"/>
<path d="M253.42773,390.2473 L209.0749,478.63953 L291.85953,456.88986 z"/>
<path d="M249.8795,397.3187 L215.69768,476.89957 L288.78497,451.55844 z"/>
<path d="M247.14496,403.68515 L221.54466,474.87228 L285.67255,447.21927 z"/>
<path d="M245.09694,409.38013 L226.6749,472.66003 L282.59033,443.73654 z"/>
<path d="M243.62317,414.4425 L231.14813,470.34616 L279.59088,440.98804 z"/>
<path d="M242.62517,418.9148 L235.02354,467.9975 L276.71344,438.86438 z"/>
<path d="M242.01703,422.84143 L238.35873,465.66684 L273.9864,437.26843 z"/>
<path d="M241.72437,426.26746 L241.20895,463.395 L271.42883,436.11426 z"/>
<path d="M241.68314,429.23767 L243.62654,461.21252 L269.0525,435.3265 z"/>
<path d="M241.83861,431.79565 L245.66061,459.14163 L266.86295,434.83942 z"/>
<path d="M242.14438,433.98334 L247.3568,457.19745 L264.861,434.59592 z"/>
<path d="M242.56137,435.84045 L248.75714,455.38934 L263.04367,434.5469 z"/>
<path d="M243.05702,437.40436 L249.90005,453.72195 L261.4051,434.6504 z"/>
<path d="M243.60448,438.70978 L250.82047,452.19623 L259.93723,434.8707 z"/>
<path d="M244.18175,439.7887 L251.5498,450.81018 L258.6306,435.17783 z"/>
<path d="M244.7712,440.6704 L252.11627,449.5596 L257.4747,435.5467 z"/>
<path d="M245.3588,441.38153 L252.54494,448.43857 L256.45844,435.9566 z"/>
<path d="M558.22394,240.63025 L431.48373,204.56955 L439.90887,326.19156 z"/>
<path d="M548.0847,237.74539 L432.15775,214.29932 L449.37405,319.34665 z"/>
<path d="M538.81055,235.8697 L433.53506,222.7031 L457.27094,312.81854 z"/>
<path d="M530.38855,234.81638 L435.43393,229.91234 L463.7941,306.66263 z"/>
<path d="M522.7922,234.42406 L437.70273,236.05237 L469.12164,300.91495 z"/>
<path d="M515.985,234.55432 L440.21625,241.24136 L473.41528,295.59567 z"/>
<path d="M509.9235,235.08928 L442.87216,245.5897 L476.82086,290.71237 z"/>
<path d="M504.5594,235.92932 L445.58807,249.19952 L479.4691,286.2625 z"/>
<path d="M499.8417,236.99094 L448.29855,252.16457 L481.4763,282.23587 z"/>
<path d="M495.71823,238.20482 L450.95276,254.57027 L482.94553,278.61627 z"/>
<path d="M492.137,239.51405 L453.5122,256.49396 L483.96735,275.38336 z"/>
<path d="M489.04703,240.87245 L455.9486,258.0051 L484.6209,272.5138 z"/>
<path d="M486.39914,242.24306 L458.2424,259.1658 L484.975,269.9825 z"/>
<path d="M484.1466,243.59688 L460.381,260.03113 L485.08893,267.76334 z"/>
<path d="M482.24536,244.91162 L462.35764,260.64972 L485.01355,265.83002 z"/>
<path d="M480.65433,246.17067 L464.1701,261.06415 L484.7921,264.15656 z"/>
<path d="M479.3356,247.36215 L465.81985,261.31152 L484.4611,262.71768 z"/>
<path d="M478.25433,248.4781 L467.31116,261.424 L484.05103,261.48923 z"/>
<path d="M477.37888,249.51376 L468.65036,261.42923 L483.5873,260.44836 z"/>
<path d="M476.6806,250.46701 L469.8453,261.35077 L483.09064,259.57358 z"/>
<path d="M476.1338,251.3377 L470.90494,261.2086 L482.57782,258.84506 z"/>
<path d="M93.54614,750.35754 L182.31932,847.73706 L278.88,768.6147 z"/>
<path d="M100.647995,758.1479 L190.04417,841.4073 L264.05328,767.1541 z"/>
<path d="M107.79969,764.80865 L195.9649,835.46704 L250.98087,766.43365 z"/>
<path d="M114.85291,770.4613 L200.36618,829.94434 L239.52637,766.30365 z"/>
<path d="M121.69397,775.22 L203.499,824.8531 L229.55249,766.6362 z"/>
<path d="M128.23837,779.1906 L205.58328,820.19574 L220.92381,767.32294 z"/>
<path d="M134.42596,782.471 L206.81052,815.96594 L213.50897,768.27234 z"/>
<path d="M140.21674,785.1506 L207.3464,812.15045 L207.18234,769.40826 z"/>
<path d="M145.5871,787.3106 L207.33327,808.7311 L201.82509,770.66766 z"/>
<path d="M150.5268,789.02423 L206.89262,805.686 L197.32605,771.9991 z"/>
<path d="M155.03606,790.3572 L206.12729,802.991 L193.5821,773.3611 z"/>
<path d="M159.12337,791.36786 L205.12367,800.62067 L190.49843,774.72076 z"/>
<path d="M162.80339,792.1081 L203.95366,798.54865 L187.98842,776.05255 z"/>
<path d="M166.09541,792.62335 L202.67644,796.74896 L185.97362,777.337 z"/>
<path d="M169.0219,792.95337 L201.34021,795.196 L184.38336,778.5599 z"/>
<path d="M171.60736,793.1328 L199.98367,793.8651 L183.15445,779.71136 z"/>
<path d="M173.87746,793.1914 L198.63733,792.7328 L182.23068,780.7851 z"/>
<path d="M175.85825,793.1547 L197.3248,791.777 L181.56242,781.7776 z"/>
<path d="M177.57558,793.0445 L196.06381,790.97705 L181.1061,782.68774 z"/>
<path d="M179.05463,792.8791 L194.86719,790.3139 L180.82364,783.5163 z"/>
<path d="M180.31964,792.6739 L193.7437,789.7701 L180.68213,784.2653 z"/>
<path d="M431.48373,204.56955 L300.2754,216.7278 L439.90887,326.19156 z"/>
<path d="M420.98706,205.5422 L311.44608,225.4849 L439.23486,316.4618 z"/>
<path d="M412.2238,207.13763 L321.6692,232.76305 L437.77502,307.58823 z"/>
<path d="M404.97943,209.18767 L330.95764,238.74907 L435.73093,299.5522 z"/>
<path d="M399.05768,211.55257 L339.3395,243.61331 L433.2708,292.32303 z"/>
<path d="M394.28024,214.11743 L346.854,247.51009 L430.53375,285.8614 z"/>
<path d="M390.48615,216.78885 L353.5484,250.57819 L427.63348,280.12186 z"/>
<path d="M387.53113,219.49199 L359.4752,252.94168 L424.66168,275.05524 z"/>
<path d="M385.28665,222.16797 L364.69012,254.71077 L421.69125,270.61017 z"/>
<path d="M383.63892,224.7714 L369.2502,255.98273 L418.77887,266.7348 z"/>
<path d="M382.48782,227.2683 L373.2125,256.8429 L415.96768,263.37772 z"/>
<path d="M381.7458,229.63426 L376.6329,257.36566 L413.28928,260.48895 z"/>
<path d="M381.33676,231.85278 L379.56543,257.61554 L410.7658,258.0206 z"/>
<path d="M381.19507,233.9138 L382.06146,257.64795 L408.4115,255.92717 z"/>
<path d="M381.26437,235.81253 L384.16946,257.51028 L406.23416,254.16609 z"/>
<path d="M381.49677,237.54836 L385.93463,257.24274 L404.2366,252.69781 z"/>
<path d="M381.8518,239.1239 L387.3988,256.87915 L402.4174,251.48586 z"/>
<path d="M382.29556,240.54433 L388.60028,256.4477 L400.77216,250.4969 z"/>
<path d="M382.79996,241.81659 L389.57404,255.97162 L399.29404,249.7007 z"/>
<path d="M383.34186,242.94899 L390.35162,255.46996 L397.9745,249.06996 z"/>
<path d="M383.90265,243.95067 L390.96146,254.95795 L396.8039,248.58029 z"/>
<path d="M278.88,354.5853 L93.54614,372.8425 L173.77588,479.8435 z"/>
<path d="M264.05328,356.04587 L99.96452,381.40256 L182.1842,469.82285 z"/>
<path d="M250.9262,358.0744 L106.5421,388.4762 L188.73373,460.7207 z"/>
<path d="M239.37546,360.50653 L113.11743,394.25574 L193.70912,452.50897 z"/>
<path d="M229.27483,363.20648 L119.564766,398.91602 L197.36244,445.1488 z"/>
<path d="M220.49802,366.06323 L125.788574,402.61462 L199.91542,438.5934 z"/>
<path d="M212.92126,368.98737 L131.71872,405.49292 L201.56203,432.791 z"/>
<path d="M206.42506,371.9078 L137.30618,407.6768 L202.47078,427.6867 z"/>
<path d="M200.89555,374.76932 L142.51936,409.27756 L202.78711,423.2244 z"/>
<path d="M196.22545,377.52997 L147.34077,410.3933 L202.63579,419.348 z"/>
<path d="M192.31468,380.15906 L151.76437,411.10968 L202.12296,416.00253 z"/>
<path d="M189.07065,382.6351 L155.79306,411.50113 L201.3383,413.13507 z"/>
<path d="M186.40845,384.94437 L159.43669,411.63184 L200.35689,410.69507 z"/>
<path d="M184.2507,387.07938 L162.7103,411.5569 L199.24101,408.635 z"/>
<path d="M182.52748,389.03757 L165.63275,411.32315 L198.0418,406.91055 z"/>
<path d="M181.1759,390.82043 L168.22548,410.97012 L196.80064,405.4807 z"/>
<path d="M180.13986,392.4324 L170.51149,410.53098 L195.55066,404.3079 z"/>
<path d="M179.3696,393.88028 L172.51463,410.03314 L194.3178,403.35785 z"/>
<path d="M178.8212,395.17252 L174.25888,409.4991 L193.12195,402.59964 z"/>
<path d="M178.4562,396.31863 L175.76793,408.94714 L191.97789,402.0055 z"/>
<path d="M178.24115,397.32892 L177.06473,408.3918 L190.89615,401.55054 z"/>
<path d="M45.945164,627.4852 L93.54614,750.35754 L173.77588,643.3565 z"/>
<path d="M49.753242,637.315 L99.96452,741.7974 L163.54942,642.0868 z"/>
<path d="M53.770145,645.6736 L105.051315,733.82056 L154.44572,641.7051 z"/>
<path d="M57.87264,652.72534 L109.00287,726.45135 L146.39168,642.0225 z"/>
<path d="M61.96306,658.6234 L111.99397,719.697 L139.31015,642.8788 z"/>
<path d="M65.96553,663.50934 L114.17927,713.5516 L133.12239,644.1383 z"/>
<path d="M69.82263,667.5127 L115.69472,707.99854 L127.74984,645.688 z"/>
<path d="M73.49239,670.7516 L116.65913,703.0137 L123.11566,647.434 z"/>
<path d="M76.94573,673.3325 L117.17565,698.5673 L119.1458,649.2994 z"/>
<path d="M80.16413,675.3513 L117.33326,694.62585 L115.7698,651.22205 z"/>
<path d="M83.13766,676.8933 L117.20818,691.15356 L112.92134,653.1524 z"/>
<path d="M85.863304,678.0341 L116.865234,688.11346 L110.53865,655.05164 z"/>
<path d="M88.34345,678.84045 L116.35911,685.4685 L108.56462,656.89026 z"/>
<path d="M90.58471,679.3707 L115.73555,683.18225 L106.94693,658.6463 z"/>
<path d="M92.59678,679.6756 L115.03246,681.21936 L105.63795,660.3042 z"/>
<path d="M94.39163,679.79913 L114.2809,679.54614 L104.59466,661.85394 z"/>
<path d="M95.98277,679.7789 L113.506,678.1308 L103.77841,663.28955 z"/>
<path d="M97.38463,679.64703 L112.72779,676.9435 L103.15476,664.6087 z"/>
<path d="M98.61208,679.4308 L111.96195,675.9567 L102.69315,665.81177 z"/>
<path d="M99.68007,679.15283 L111.22044,675.14514 L102.36667,666.9013 z"/>
<path d="M100.6033,678.8322 L110.512146,674.4856 L102.15174,667.8814 z"/>
<path d="M173.77588,643.3565 L93.54614,750.35754 L278.88,768.6147 z"/>
<path d="M167.3575,651.91656 L108.37285,751.8181 L270.47168,758.59406 z"/>
<path d="M162.63873,659.9087 L121.34076,752.36017 L262.22253,750.0599 z"/>
<path d="M159.33488,667.3048 L132.6113,752.17615 L254.25583,742.8478 z"/>
<path d="M157.197,674.09454 L142.34286,751.4299 L246.66216,736.8043 z"/>
<path d="M156.00867,680.2814 L150.6884,750.2598 L239.50494,731.78754 z"/>
<path d="M155.58305,685.87964 L157.79373,748.78204 L232.82524,727.66705 z"/>
<path d="M155.7599,690.9118 L163.79625,747.09283 L226.64586,724.32404 z"/>
<path d="M156.40282,695.4063 L168.82422,745.27136 L220.97499,721.65106 z"/>
<path d="M157.39653,699.3955 L172.99628,743.3817 L215.80922,719.5515 z"/>
<path d="M158.6445,702.9144 L176.42131,741.4753 L211.1362,717.939 z"/>
<path d="M160.06665,705.99927 L179.1985,739.5924 L206.93686,716.73706 z"/>
<path d="M161.5972,708.6867 L181.41757,737.764 L203.18724,715.87805 z"/>
<path d="M163.18283,711.0129 L183.15915,736.0131 L199.86005,715.30273 z"/>
<path d="M164.78093,713.01294 L184.49522,734.35626 L196.92587,714.95953 z"/>
<path d="M166.35808,714.7204 L185.48967,732.8045 L194.35428,714.80383 z"/>
<path d="M167.88861,716.1671 L186.19884,731.36444 L192.11458,714.7971 z"/>
<path d="M169.35342,717.38293 L186.6721,730.03906 L190.1765,714.90674 z"/>
<path d="M170.73892,718.3954 L186.95245,728.8285 L188.51065,715.1048 z"/>
<path d="M172.036,719.23004 L187.0771,727.7306 L187.08891,715.36804 z"/>
<path d="M173.23929,719.9101 L187.07805,726.7416 L185.88467,715.677 z"/>
<path d="M300.2754,216.7278 L182.31932,275.46295 L278.88,354.5853 z"/>
<path d="M290.8389,221.4266 L190.04417,281.79272 L280.59164,343.5567 z"/>
<path d="M282.77533,226.2559 L197.28798,286.73386 L281.4114,333.7863 z"/>
<path d="M275.93634,231.09413 L204.01785,290.49805 L281.52054,325.18384 z"/>
<path d="M270.18286,235.84645 L210.21806,293.27292 L281.0738,317.65668 z"/>
<path d="M265.38568,240.44057 L215.88652,295.2236 L280.2025,311.11185 z"/>
<path d="M261.42575,244.82321 L221.0318,296.49466 L279.01718,305.45816 z"/>
<path d="M258.19424,248.95692 L225.67064,297.21176 L277.60986,300.60736 z"/>
<path d="M255.59235,252.8173 L229.82578,297.4834 L276.0566,296.4753 z"/>
<path d="M253.53102,256.3906 L233.52423,297.40274 L274.41946,292.9827 z"/>
<path d="M251.93048,259.67157 L236.79585,297.04913 L272.74838,290.05533 z"/>
<path d="M250.71971,262.66177 L239.67206,296.48962 L271.08295,287.6246 z"/>
<path d="M249.83589,265.368 L242.18494,295.78043 L269.4539,285.6276 z"/>
<path d="M249.22382,267.801 L244.36646,294.9682 L267.88446,284.00684 z"/>
<path d="M248.83524,269.97437 L246.2479,294.0913 L266.3916,282.71036 z"/>
<path d="M248.62823,271.90372 L247.85939,293.18082 L264.9871,281.69147 z"/>
<path d="M248.56673,273.6059 L249.2296,292.2617 L263.67838,280.90845 z"/>
<path d="M248.61977,275.09836 L250.3855,291.35342 L262.46945,280.32425 z"/>
<path d="M248.76102,276.39877 L251.35222,290.47107 L261.36148,279.9062 z"/>
<path d="M248.96832,277.52454 L252.15297,289.6259 L260.35345,279.62558 z"/>
<path d="M249.22308,278.49265 L252.809,288.82587 L259.44263,279.45752 z"/>
<path d="M173.77588,479.8435 L45.945164,627.4852 L173.77588,643.3565 z"/>
<path d="M163.54942,491.65485 L56.171623,628.75494 L173.77588,630.27545 z"/>
<path d="M154.9592,502.62286 L65.57996,628.8766 L172.95776,619.1858 z"/>
<path d="M147.80885,512.72314 L74.17019,628.1013 L171.51787,609.8608 z"/>
<path d="M141.91777,521.9534 L81.958,626.6421 L169.62115,602.0898 z"/>
<path d="M137.12099,530.3285 L88.971054,624.67786 L167.40488,595.67883 z"/>
<path d="M133.26898,537.87646 L95.24576,622.358 L164.98216,590.4508 z"/>
<path d="M130.22713,544.63495 L100.82467,619.80536 L162.44511,586.2449 z"/>
<path d="M127.87493,550.6486 L105.75431,617.12054 L159.86768,582.9161 z"/>
<path d="M126.105286,555.9664 L110.083374,614.3842 L157.30826,580.33466 z"/>
<path d="M124.82353,560.6398 L113.86137,611.6602 L154.81201,578.3852 z"/>
<path d="M123.946556,564.72144 L117.13742,608.9982 L152.41293,576.9656 z"/>
<path d="M123.401825,568.26355 L119.959465,606.4356 L150.13564,575.986 z"/>
<path d="M123.126434,571.3173 L122.37356,603.99963 L147.99692,575.3682 z"/>
<path d="M123.06621,573.9319 L124.42342,601.70917 L146.00728,575.0442 z"/>
<path d="M123.17478,576.1541 L126.15013,599.5759 L144.172,574.9552 z"/>
<path d="M123.41281,578.02783 L127.59188,597.60626 L142.49222,575.0511 z"/>
<path d="M123.74714,579.5941 L128.7839,595.8019 L140.96587,575.28925 z"/>
<path d="M124.15008,580.89075 L129.75847,594.1608 L139.58836,575.6336 z"/>
<path d="M124.59875,581.95233 L130.54486,592.67865 L138.3533,576.0542 z"/>
<path d="M125.07444,582.8104 L131.16954,591.3487 L137.25294,576.52606 z"/>
<path d="M45.945164,495.71478 L45.945164,627.4852 L173.77588,479.8435 z"/>
<path d="M45.945164,506.2564 L56.171623,615.6739 L163.54942,481.11322 z"/>
<path d="M46.763283,515.0098 L64.76185,604.90906 L154.14108,483.12466 z"/>
<path d="M48.203167,522.2017 L71.912186,595.16626 L145.55086,485.67548 z"/>
<path d="M50.099888,528.0389 L77.803276,586.40704 L137.76305,488.59756 z"/>
<path d="M52.31616,532.7084 L82.60006,578.5823 L130.74998,491.75287 z"/>
<path d="M54.738873,536.3783 L86.45206,571.6359 L124.47528,495.02933 z"/>
<path d="M57.275925,539.19885 L89.49391,565.5074 L118.89637,498.33725 z"/>
<path d="M59.853367,541.3036 L91.84611,560.1338 L113.966736,501.60617 z"/>
<path d="M62.412785,542.81 L93.61576,555.45154 L109.637665,504.78195 z"/>
<path d="M64.90902,543.8213 L94.897514,551.398 L105.85967,507.8242 z"/>
<path d="M67.3081,544.4274 L95.77448,547.9121 L102.58362,510.70398 z"/>
<path d="M69.58541,544.70624 L96.319214,544.9354 L99.76158,513.40186 z"/>
<path d="M71.72411,544.72455 L96.594604,542.4128 L97.34749,515.9062 z"/>
<path d="M73.71375,544.5396 L96.65483,540.29224 L95.297615,518.2117 z"/>
<path d="M75.54904,544.1998 L96.54626,538.52576 L93.57091,520.3179 z"/>
<path d="M77.22882,543.7459 L96.30823,537.06915 L92.12916,522.22845 z"/>
<path d="M78.75517,543.21173 L95.9739,535.8819 L90.93713,523.9498 z"/>
<path d="M80.13267,542.62537 L95.57096,534.9273 L89.96258,525.4908 z"/>
<path d="M81.36774,542.0095 L95.12229,534.1724 L89.176186,526.8616 z"/>
<path d="M82.4681,541.38257 L94.6466,533.5875 L88.551506,528.0734 z"/>
<path d="M182.31932,275.46295 L93.54614,372.8425 L278.88,354.5853 z"/>
<path d="M175.21747,283.2533 L108.37285,371.3819 L271.15515,348.2555 z"/>
<path d="M169.8699,290.3036 L121.39544,369.5318 L263.48013,343.05533 z"/>
<path d="M165.99194,296.64185 L132.7622,367.41367 L255.99132,338.83517 z"/>
<path d="M163.33357,302.3036 L142.62054,365.1274 L248.79137,335.45972 z"/>
<path d="M161.67653,307.3295 L151.11421,362.754 L241.95474,332.80722 z"/>
<path d="M160.83154,311.76346 L158.38145,360.35825 L235.53249,330.769 z"/>
<path d="M160.63553,315.65103 L164.55353,357.99112 L229.55641,329.24857 z"/>
<path d="M160.94897,319.03824 L169.75375,355.6917 L224.04274,328.16077 z"/>
<path d="M161.65335,321.97052 L174.09688,353.48923 L218.99524,327.43097 z"/>
<path d="M162.64883,324.49203 L177.68875,351.40457 L214.40788,326.99414 z"/>
<path d="M163.85204,326.64502 L180.62628,349.45172 L210.26717,326.79395 z"/>
<path d="M165.19397,328.46957 L182.99754,347.6391 L206.55396,326.78204 z"/>
<path d="M166.61826,330.0031 L184.88206,345.97055 L203.24515,326.91705 z"/>
<path d="M168.07936,331.28052 L186.3511,344.44626 L200.315,327.16394 z"/>
<path d="M169.5411,332.33377 L187.46822,343.0637 L197.73615,327.49326 z"/>
<path d="M170.97527,333.19217 L188.28966,341.81805 L195.48055,327.8805 z"/>
<path d="M172.36041,333.88223 L188.86493,340.70303 L193.52013,328.30542 z"/>
<path d="M173.68079,334.42792 L189.23734,339.71124 L191.82735,328.7516 z"/>
<path d="M174.92531,334.85056 L189.44453,338.83447 L190.37563,329.2057 z"/>
<path d="M176.08684,335.16928 L189.51903,338.06415 L189.1396,329.6573 z"/>
<path d="M93.54614,372.8425 L45.945164,495.71478 L173.77588,479.8435 z"/>
<path d="M89.73807,382.67227 L56.171623,494.44507 L167.3575,471.28342 z"/>
<path d="M87.05275,391.6141 L65.06649,492.59213 L161.14795,464.19452 z"/>
<path d="M85.293846,399.69232 L72.753006,490.32034 L155.22032,458.3881 z"/>
<path d="M84.29058,406.94257 L79.350395,487.76575 L149.6262,453.69244 z"/>
<path d="M83.89537,413.40842 L84.97246,485.0399 L144.39935,449.95245 z"/>
<path d="M83.98154,419.13895 L89.72661,482.23288 L139.55904,447.02893 z"/>
<path d="M84.44114,424.18646 L93.7132,479.41656 L135.11284,444.79773 z"/>
<path d="M85.18291,428.60486 L97.02518,476.64706 L131.0591,443.14883 z"/>
<path d="M86.13029,432.44824 L99.74789,473.9672 L127.38901,441.98532 z"/>
<path d="M87.219696,435.76978 L101.95918,471.40866 L124.08831,441.22235 z"/>
<path d="M88.39886,438.62088 L103.72951,468.99374 L121.138824,440.78613 z"/>
<path d="M89.625305,441.0507 L105.12225,466.73715 L118.51962,440.6129 z"/>
<path d="M90.86506,443.10562 L106.194046,464.64722 L116.20808,440.64795 z"/>
<path d="M92.091385,444.82895 L106.99517,462.72726 L114.18063,440.84454 z"/>
<path d="M93.28368,446.2608 L107.57001,460.97665 L112.4135,441.1633 z"/>
<path d="M94.42659,447.43808 L107.95748,459.39157 L110.88311,441.5711 z"/>
<path d="M95.50906,448.39435 L108.191536,457.96594 L109.56659,442.04047 z"/>
<path d="M96.52366,449.1601 L108.30154,456.6919 L108.441986,442.54877 z"/>
<path d="M97.46589,449.76263 L108.312775,455.56046 L107.48852,443.07767 z"/>
<path d="M98.33364,450.22647 L108.24683,454.56183 L106.686714,443.6125 z"/>
</g>
<g fill="none" id="2" stroke="black" stroke-width="0.2mm">
<rect height="1123.1999999999998" width="796.8000000000001" x="0" y="0"/>
</g>
</svg>