<svg height="384px" viewBox="0 0 576 384" width="576px" xmlns="http://www.w3.org/2000/svg" xmlns:inkscape="http://www.inkscape.org/namespaces/inkscape">
<g fill="none" id="1" stroke="black" stroke-width="1px">
<circle cx="367.5295361733828" cy="214.1341470803321" r="5"/>
<circle cx="301.46410509437857" cy="314.9199847174394" r="4"/>
<circle cx="400.59449307367845" cy="145.66886623119308" r="3"/>
<circle cx="233.28226632669035" cy="120.7569018818596" r="9"/>
<circle cx="333.4212018739277" cy="75.93437210828013" r="4"/>
<circle cx="186.6225194268178" cy="236.2204208069712" r="7"/>
<circle cx="246.70434093903503" cy="294.750096835752" r="11"/>
<circle cx="163.80286780379492" cy="120.4837678273956" r="3"/>
<circle cx="196.68585959913554" cy="147.2463242090216" r="7"/>
<circle cx="239.78487214110697" cy="161.38775409257778" r="6"/>
<circle cx="307.0298367364164" cy="133.96090580713013" r="1"/>
<circle cx="219.18452873041326" cy="236.11970363868994" r="1"/>
<circle cx="364.29912462019774" cy="145.42997310547418" r="3"/>
<circle cx="384.42463987965385" cy="204.98483585970195" r="6"/>
<circle cx="289.1807459420881" cy="105.55641681439772" r="1"/>
<circle cx="211.57703107002837" cy="92.27724091124388" r="5"/>
<circle cx="357.55289764716144" cy="168.9933267864329" r="4"/>
<circle cx="263.5100047894012" cy="326.3198691310172" r="3"/>
<circle cx="211.967979441782" cy="134.19004922442164" r="5"/>
<circle cx="239.10303566415482" cy="256.1307655704886" r="7"/>
<circle cx="147.1004934160425" cy="247.05615597665025" r="1"/>
<circle cx="221.43497192299975" cy="86.74038491565747" r="5"/>
<circle cx="248.28441260093882" cy="197.89328474304156" r="1"/>
<circle cx="219.768221497318" cy="142.59841862903167" r="3"/>
<circle cx="410.78275906080114" cy="277.50958652322" r="5"/>
<circle cx="374.8816975951312" cy="89.72978972976705" r="3"/>
<circle cx="412.65275856823456" cy="157.4605024760309" r="1"/>
<circle cx="277.17541850823505" cy="165.97009607972944" r="4"/>
<circle cx="231.9503448297736" cy="327.45258376053164" r="1"/>
<circle cx="277.39660453807204" cy="274.087814908105" r="6"/>
<circle cx="137.60086848774753" cy="207.15709918278287" r="5"/>
<circle cx="263.46804594634773" cy="206.94520533066358" r="7"/>
<circle cx="150.37580430648808" cy="181.61962492812333" r="7"/>
<circle cx="432.9873776793862" cy="198.69210602519215" r="3"/>
<circle cx="243.7013072126773" cy="91.76232430134525" r="5"/>
<circle cx="172.53766971561254" cy="277.87122664309913" r="10"/>
<circle cx="233.82355154864484" cy="96.97623532573965" r="5"/>
<circle cx="306.4651918788998" cy="112.80550213762756" r="9"/>
<circle cx="184.5163481520438" cy="137.963241084518" r="3"/>
<circle cx="379.8851489297638" cy="95.96079625455441" r="3"/>
<circle cx="207.677586142653" cy="272.2046012192318" r="3"/>
<circle cx="326.0085023412023" cy="278.84960427328275" r="12"/>
<circle cx="342.977180002069" cy="144.62874796306053" r="7"/>
<circle cx="255.14816577160525" cy="219.23069554504912" r="6"/>
<circle cx="209.11780840166963" cy="309.43931718492865" r="3"/>
<circle cx="356.67212251611625" cy="207.05325973245445" r="6"/>
<circle cx="178.2396780357993" cy="296.21229448649933" r="8"/>
<circle cx="277.67494326937225" cy="249.65643828826842" r="5"/>
<circle cx="213.5048535190059" cy="234.03253923674202" r="4"/>
<circle cx="289.73625148126" cy="312.39404736964303" r="6"/>
<circle cx="207.6620545784026" cy="158.10347182443655" r="7"/>
<circle cx="369.4843355869255" cy="286.5634699503226" r="5"/>
<circle cx="308.7093430251994" cy="231.0839636275695" r="3"/>
<circle cx="171.84284105426548" cy="256.88994863344595" r="1"/>
<circle cx="206.95651239841328" cy="142.74793666009813" r="3"/>
<circle cx="243.11888095612935" cy="337.0909725728794" r="6"/>
<circle cx="217.0024453617541" cy="176.40817741798813" r="3"/>
<circle cx="221.66091049138385" cy="262.29498823405606" r="10"/>
<circle cx="317.55377424871267" cy="61.12499908848028" r="8"/>
<circle cx="335.69383933545544" cy="223.66294927267026" r="10"/>
<circle cx="379.2999301547487" cy="101.99477307105583" r="2"/>
<circle cx="265.7810237556286" cy="260.3926306965693" r="8"/>
<circle cx="303.62622069240183" cy="165.8234517541524" r="6"/>
<circle cx="298.7006930092308" cy="192.21488169366788" r="1"/>
<circle cx="420.93881681895255" cy="246.52433204477134" r="12"/>
<circle cx="390.8021822592251" cy="134.51163303424835" r="2"/>
<circle cx="427.7359441018775" cy="227.8097622662901" r="6"/>
<circle cx="387.52318591088965" cy="239.87435235674883" r="6"/>
<circle cx="290.1057535653673" cy="243.24322404024676" r="7"/>
<circle cx="145.70682027697396" cy="159.71265193596165" r="6"/>
<circle cx="301.02364365878515" cy="202.73294388277102" r="6"/>
<circle cx="356.67322294269013" cy="232.42919788213004" r="4"/>
<circle cx="371.69527994379223" cy="114.24007609599312" r="4"/>
<circle cx="168.13398869435775" cy="233.07576722595493" r="10"/>
<circle cx="292.772997795974" cy="113.32439681006692" r="3"/>
<circle cx="266.0512158067309" cy="55.791916545927165" r="9"/>
<circle cx="381.3420254508056" cy="310.85597404767407" r="3"/>
<circle cx="152.74006893459807" cy="255.8401327787648" r="5"/>
<circle cx="161.89338495081782" cy="164.93181283352385" r="10"/>
<circle cx="232.35465773188673" cy="323.4970071788995" r="1"/>
<circle cx="392.8057221275839" cy="83.7689059407116" r="8"/>
<circle cx="249.01343702196579" cy="202.18514521916646" r="2"/>
<circle cx="318.60514214970266" cy="221.39823382215008" r="6"/>
<circle cx="367.59941634854283" cy="164.23497674708307" r="2"/>
<circle cx="401.8380356276897" cy="212.203505144758" r="7"/>
<circle cx="337.5693321844723" cy="186.74331823885979" r="6"/>
<circle cx="294.7331452805303" cy="147.9278563851782" r="10"/>
<circle cx="168.91181029461484" cy="142.93232801912708" r="3"/>
<circle cx="319.3781013884551" cy="88.66453263949747" r="11"/>
<circle cx="270.58818331952546" cy="287.552767954506" r="8"/>
<circle cx="248.08052170776617" cy="192.6792941140227" r="3"/>
<circle cx="255.69285244454264" cy="148.32307191369344" r="1"/>
<circle cx="376.4890358585978" cy="110.48130918401866" r="1"/>
<circle cx="383.3925793911736" cy="225.70057092612416" r="7"/>
<circle cx="384.98038104377645" cy="253.14580182412033" r="6"/>
<circle cx="156.40914144203518" cy="121.97740408796176" r="3"/>
<circle cx="272.8969226812001" cy="136.92057839391524" r="6"/>
<circle cx="348.6305188660929" cy="114.08785674133027" r="4"/>
<circle cx="265.2768269506577" cy="143.60077393369707" r="3"/>
<circle cx="292.2918652829547" cy="278.0901709392081" r="3"/>
<circle cx="432.90567434765785" cy="180.30681875737292" r="6"/>
<circle cx="308.9282505114133" cy="238.7879998441907" r="3"/>
<circle cx="270.61983541319626" cy="335.82337576845" r="7"/>
<circle cx="286.91627387640284" cy="282.27813500411514" r="2"/>
<circle cx="174.46338524215645" cy="133.24589701774627" r="7"/>
<circle cx="251.68244024305963" cy="146.2096333761718" r="2"/>
<circle cx="192.70856928168064" cy="136.91995118333358" r="3"/>
<circle cx="325.69590094660936" cy="295.56524425113804" r="3"/>
<circle cx="339.5663896164733" cy="176.89030675325517" r="3"/>
<circle cx="284.0480815913046" cy="56.48967843569346" r="8"/>
<circle cx="220.61949398092995" cy="308.6392154024123" r="7"/>
<circle cx="254.56294068670212" cy="330.8338216050598" r="6"/>
<circle cx="402.42412973121975" cy="280.7244867854278" r="2"/>
<circle cx="374.3061013935929" cy="80.8276250536171" r="4"/>
<circle cx="415.3693665786463" cy="158.85008462472325" r="1"/>
<circle cx="364.01939944192867" cy="269.57390622838903" r="4"/>
<circle cx="328.3510686008703" cy="106.84581165290176" r="4"/>
<circle cx="375.5217859465311" cy="105.91018696919475" r="2"/>
<circle cx="337.3784456635819" cy="107.41646489303189" r="4"/>
<circle cx="326.4606144294467" cy="306.38409932338044" r="4"/>
<circle cx="186.01798742084486" cy="174.23327820815504" r="3"/>
<circle cx="397.76006939520374" cy="139.62141154641208" r="2"/>
<circle cx="172.19013967364407" cy="249.13504925542514" r="5"/>
<circle cx="349.83439857662205" cy="127.05944023437014" r="8"/>
<circle cx="258.6622626840596" cy="141.79293367752427" r="2"/>
<circle cx="174.24266638899715" cy="215.12160447949142" r="7"/>
<circle cx="149.17667619729474" cy="196.80556036386162" r="7"/>
<circle cx="243.49910109158088" cy="239.0076803886053" r="8"/>
<circle cx="404.5625784905742" cy="199.64879254189793" r="2"/>
<circle cx="383.12311146715933" cy="302.3335567780691" r="1"/>
<circle cx="319.9481060422542" cy="300.6033928678838" r="3"/>
<circle cx="378.6874854473216" cy="116.29488907917543" r="1"/>
<circle cx="261.60260142604005" cy="171.96228357802877" r="3"/>
<circle cx="252.26551789294777" cy="158.01817479291367" r="5"/>
<circle cx="284.27636017743555" cy="261.5909593549517" r="7"/>
<circle cx="217.76257486572072" cy="148.43512645301004" r="2"/>
<circle cx="140.20096916287505" cy="226.37623657052663" r="11"/>
<circle cx="319.3274582253428" cy="204.35662594366758" r="10"/>
<circle cx="349.8697235448434" cy="154.1560714906186" r="1"/>
<circle cx="345.9145601517545" cy="155.2179934141953" r="2"/>
<circle cx="367.45553154741" cy="238.5404038148537" r="7"/>
<circle cx="195.26026447974343" cy="266.7508142722139" r="9"/>
<circle cx="253.2932817555358" cy="80.13541560170322" r="5"/>
<circle cx="144.50887254349553" cy="244.0927747602618" r="1"/>
<circle cx="246.78091741585303" cy="103.72808553740153" r="6"/>
<circle cx="232.9682998467514" cy="225.77998647227318" r="6"/>
<circle cx="200.3455792961994" cy="317.5176007311669" r="7"/>
<circle cx="290.0589111884452" cy="164.39276097027624" r="6"/>
<circle cx="306.01731225219567" cy="216.08015209688858" r="6"/>
<circle cx="341.29299113237005" cy="100.11281583190316" r="3"/>
<circle cx="287.4985493636516" cy="125.23279338329479" r="9"/>
<circle cx="391.9691929265482" cy="163.21009542306012" r="6"/>
<circle cx="384.7941927916267" cy="169.79624228290635" r="2"/>
<circle cx="412.93570862800595" cy="172.9085082171816" r="3"/>
<circle cx="221.6729955219621" cy="154.94556409391834" r="4"/>
<circle cx="368.5185833424706" cy="276.98814932547725" r="3"/>
<circle cx="276.3889827794756" cy="305.0417069046074" r="8"/>
<circle cx="388.8997643128401" cy="129.6122014096971" r="2"/>
<circle cx="161.17505441674444" cy="258.7786939473558" r="2"/>
<circle cx="407.2735757335325" cy="175.54244058339125" r="2"/>
<circle cx="243.6434282673923" cy="267.93017166559156" r="4"/>
<circle cx="360.4103614230271" cy="151.15672404805747" r="2"/>
<circle cx="373.2114837338076" cy="199.87131492286235" r="5"/>
<circle cx="303.45713386422113" cy="240.044481578746" r="1"/>
<circle cx="296.7745934159285" cy="195.70692567607134" r="1"/>
<circle cx="402.422469071484" cy="194.36173143817908" r="2"/>
<circle cx="266.63020037613086" cy="163.35355128066445" r="5"/>
<circle cx="209.10264435530283" cy="200.4417654729217" r="8"/>
<circle cx="364.28819992049625" cy="168.00853030106006" r="1"/>
<circle cx="371.66296115064034" cy="160.5356380504912" r="2"/>
<circle cx="208.65269870102944" cy="112.00032460947632" r="3"/>
<circle cx="353.0552218089435" cy="322.84909034643243" r="11"/>
<circle cx="289.3410493687733" cy="108.69217843957136" r="1"/>
<circle cx="221.17973749989835" cy="212.66685994589307" r="8"/>
<circle cx="387.38708177591667" cy="192.86272335732218" r="5"/>
<circle cx="227.70357203668107" cy="234.0515981951519" r="2"/>
<circle cx="257.54509242385353" cy="247.61470592681852" r="6"/>
<circle cx="254.071670932941" cy="231.4000032580093" r="4"/>
<circle cx="193.59920458878622" cy="165.16818281835396" r="7"/>
<circle cx="322.85894823439804" cy="123.15852080686717" r="5"/>
<circle cx="432.6345198919364" cy="208.4453380640486" r="5"/>
<circle cx="263.7449258690346" cy="232.54561877390887" r="4"/>
<circle cx="220.18605794569635" cy="112.67027080516623" r="2"/>
<circle cx="214.79987870671002" cy="115.96207901127723" r="3"/>
<circle cx="379.7969353989236" cy="148.51328418729383" r="11"/>
<circle cx="340.3681474004103" cy="197.45365806141075" r="4"/>
<circle cx="212.76671488536664" cy="173.1403480922328" r="1"/>
<circle cx="355.90822748292936" cy="222.34062308075272" r="5"/>
<circle cx="315.96864838179374" cy="133.07957413677067" r="6"/>
<circle cx="378.7620160540077" cy="304.7022294669713" r="2"/>
<circle cx="422.6803682062948" cy="192.0441438074948" r="8"/>
<circle cx="303.5998094114704" cy="53.26379708734473" r="7"/>
<circle cx="252.2765262486343" cy="70.48691124091017" r="3"/>
<circle cx="369.1051336673968" cy="102.17244342244457" r="4"/>
<circle cx="341.198461952267" cy="67.60665702007556" r="6"/>
<circle cx="297.3275958802668" cy="328.17959371512086" r="8"/>
<circle cx="239.59773662045765" cy="49.92828566337448" r="6"/>
<circle cx="136.68103939540327" cy="196.23862398632997" r="4"/>
<circle cx="376.0761595610353" cy="122.13346055407989" r="4"/>
<circle cx="352.54714640196374" cy="251.62681770545942" r="11"/>
</g>
<g fill="none" id="2" stroke="black" stroke-width="1px">
<rect height="100" width="100" x="288" y="192"/>
</g>
</svg>