<svg height="576px" viewBox="0 0 384 576" width="384px" xmlns="http://www.w3.org/2000/svg" xmlns:inkscape="http://www.inkscape.org/namespaces/inkscape">
<g fill="none" id="1" stroke="black" stroke-width="0.2mm">
<path d="M8,0 L8,25.92"/>
<path d="M25,0 L25,25.92"/>
<path d="M26,0 L26,25.92"/>
<path d="M31,0 L31,25.92"/>
<path d="M35,0 L35,25.92"/>
<path d="M44,0 L44,25.92"/>
<path d="M46,0 L46,25.92"/>
<path d="M57,0 L57,25.92"/>
<path d="M67,0 L67,25.92"/>
<path d="M76,0 L76,25.92"/>
<path d="M91,0 L91,25.92"/>
<path d="M94,0 L94,25.92"/>
<path d="M99,0 L99,25.92"/>
<path d="M100,0 L100,25.92"/>
<path d="M101,0 L101,25.92"/>
<path d="M102,0 L102,25.92"/>
<path d="M105,0 L105,25.92"/>
<path d="M108,0 L108,25.92"/>
<path d="M113,0 L113,25.92"/>
<path d="M114,0 L114,25.92"/>
<path d="M115,0 L115,25.92"/>
<path d="M125,0 L125,25.92"/>
<path d="M126,0 L126,25.92"/>
<path d="M130,0 L130,25.92"/>
<path d="M131,0 L131,25.92"/>
<path d="M140,0 L140,25.92"/>
<path d="M144,0 L144,25.92"/>
<path d="M147,0 L147,25.92"/>
<path d="M148,0 L148,25.92"/>
<path d="M156,0 L156,25.92"/>
<path d="M157,0 L157,25.92"/>
<path d="M158,0 L158,25.92"/>
<path d="M159,0 L159,25.92"/>
<path d="M160,0 L160,25.92"/>
<path d="M161,0 L161,25.92"/>
<path d="M162,0 L162,25.92"/>
<path d="M163,0 L163,25.92"/>
<path d="M164,0 L164,25.92"/>
<path d="M165,0 L165,25.92"/>
<path d="M167,0 L167,25.92"/>
<path d="M170,0 L170,25.92"/>
<path d="M171,0 L171,25.92"/>
<path d="M172,0 L172,25.92"/>
<path d="M173,0 L173,25.92"/>
<path d="M174,0 L174,25.92"/>
<path d="M175,0 L175,25.92"/>
<path d="M176,0 L176,25.92"/>
<path d="M177,0 L177,25.92"/>
<path d="M178,0 L178,25.92"/>
<path d="M179,0 L179,25.92"/>
<path d="M180,0 L180,25.92"/>
<path d="M181,0 L181,25.92"/>
<path d="M182,0 L182,25.92"/>
<path d="M183,0 L183,25.92"/>
<path d="M184,0 L184,25.92"/>
<path d="M185,0 L185,25.92"/>
<path d="M186,0 L186,25.92"/>
<path d="M187,0 L187,25.92"/>
<path d="M188,0 L188,25.92"/>
<path d="M189,0 L189,25.92"/>
<path d="M190,0 L190,25.92"/>
<path d="M191,0 L191,25.92"/>
<path d="M192,0 L192,25.92"/>
<path d="M193,0 L193,25.92"/>
<path d="M194,0 L194,25.92"/>
<path d="M195,0 L195,25.92"/>
<path d="M196,0 L196,25.92"/>
<path d="M197,0 L197,25.92"/>
<path d="M198,0 L198,25.92"/>
<path d="M199,0 L199,25.92"/>
<path d="M200,0 L200,25.92"/>
<path d="M201,0 L201,25.92"/>
<path d="M202,0 L202,25.92"/>
<path d="M203,0 L203,25.92"/>
<path d="M204,0 L204,25.92"/>
<path d="M205,0 L205,25.92"/>
<path d="M206,0 L206,25.92"/>
<path d="M207,0 L207,25.92"/>
<path d="M208,0 L208,25.92"/>
<path d="M209,0 L209,25.92"/>
<path d="M210,0 L210,25.92"/>
<path d="M211,0 L211,25.92"/>
<path d="M212,0 L212,25.92"/>
<path d="M213,0 L213,25.92"/>
<path d="M214,0 L214,25.92"/>
<path d="M215,0 L215,25.92"/>
<path d="M216,0 L216,25.92"/>
<path d="M217,0 L217,25.92"/>
<path d="M218,0 L218,25.92"/>
<path d="M219,0 L219,25.92"/>
<path d="M221,0 L221,25.92"/>
<path d="M225,0 L225,25.92"/>
<path d="M226,0 L226,25.92"/>
<path d="M227,0 L227,25.92"/>
<path d="M229,0 L229,25.92"/>
<path d="M230,0 L230,25.92"/>
<path d="M232,0 L232,25.92"/>
<path d="M233,0 L233,25.92"/>
<path d="M235,0 L235,25.92"/>
<path d="M238,0 L238,25.92"/>
<path d="M243,0 L243,25.92"/>
<path d="M244,0 L244,25.92"/>
<path d="M246,0 L246,25.92"/>
<path d="M248,0 L248,25.92"/>
<path d="M249,0 L249,25.92"/>
<path d="M250,0 L250,25.92"/>
<path d="M257,0 L257,25.92"/>
<path d="M259,0 L259,25.92"/>
<path d="M260,0 L260,25.92"/>
<path d="M261,0 L261,25.92"/>
<path d="M263,0 L263,25.92"/>
<path d="M268,0 L268,25.92"/>
<path d="M272,0 L272,25.92"/>
<path d="M283,0 L283,25.92"/>
<path d="M286,0 L286,25.92"/>
<path d="M295,0 L295,25.92"/>
<path d="M297,0 L297,25.92"/>
<path d="M310,0 L310,25.92"/>
<path d="M313,0 L313,25.92"/>
<path d="M319,0 L319,25.92"/>
<path d="M325,0 L325,25.92"/>
<path d="M327,0 L327,25.92"/>
<path d="M354,0 L354,25.92"/>
<path d="M363,0 L363,25.92"/>
<path d="M365,0 L365,25.92"/>
<path d="M5,28.8 L5,54.72"/>
<path d="M7,28.8 L7,54.72"/>
<path d="M38,28.8 L38,54.72"/>
<path d="M64,28.8 L64,54.72"/>
<path d="M65,28.8 L65,54.72"/>
<path d="M67,28.8 L67,54.72"/>
<path d="M77,28.8 L77,54.72"/>
<path d="M80,28.8 L80,54.72"/>
<path d="M91,28.8 L91,54.72"/>
<path d="M99,28.8 L99,54.72"/>
<path d="M100,28.8 L100,54.72"/>
<path d="M101,28.8 L101,54.72"/>
<path d="M104,28.8 L104,54.72"/>
<path d="M106,28.8 L106,54.72"/>
<path d="M108,28.8 L108,54.72"/>
<path d="M113,28.8 L113,54.72"/>
<path d="M120,28.8 L120,54.72"/>
<path d="M123,28.8 L123,54.72"/>
<path d="M124,28.8 L124,54.72"/>
<path d="M125,28.8 L125,54.72"/>
<path d="M126,28.8 L126,54.72"/>
<path d="M127,28.8 L127,54.72"/>
<path d="M129,28.8 L129,54.72"/>
<path d="M135,28.8 L135,54.72"/>
<path d="M138,28.8 L138,54.72"/>
<path d="M139,28.8 L139,54.72"/>
<path d="M140,28.8 L140,54.72"/>
<path d="M141,28.8 L141,54.72"/>
<path d="M143,28.8 L143,54.72"/>
<path d="M145,28.8 L145,54.72"/>
<path d="M147,28.8 L147,54.72"/>
<path d="M148,28.8 L148,54.72"/>
<path d="M151,28.8 L151,54.72"/>
<path d="M152,28.8 L152,54.72"/>
<path d="M154,28.8 L154,54.72"/>
<path d="M155,28.8 L155,54.72"/>
<path d="M156,28.8 L156,54.72"/>
<path d="M157,28.8 L157,54.72"/>
<path d="M158,28.8 L158,54.72"/>
<path d="M159,28.8 L159,54.72"/>
<path d="M160,28.8 L160,54.72"/>
<path d="M161,28.8 L161,54.72"/>
<path d="M162,28.8 L162,54.72"/>
<path d="M163,28.8 L163,54.72"/>
<path d="M164,28.8 L164,54.72"/>
<path d="M165,28.8 L165,54.72"/>
<path d="M166,28.8 L166,54.72"/>
<path d="M167,28.8 L167,54.72"/>
<path d="M168,28.8 L168,54.72"/>
<path d="M169,28.8 L169,54.72"/>
<path d="M170,28.8 L170,54.72"/>
<path d="M171,28.8 L171,54.72"/>
<path d="M172,28.8 L172,54.72"/>
<path d="M173,28.8 L173,54.72"/>
<path d="M174,28.8 L174,54.72"/>
<path d="M175,28.8 L175,54.72"/>
<path d="M176,28.8 L176,54.72"/>
<path d="M177,28.8 L177,54.72"/>
<path d="M178,28.8 L178,54.72"/>
<path d="M179,28.8 L179,54.72"/>
<path d="M180,28.8 L180,54.72"/>
<path d="M181,28.8 L181,54.72"/>
<path d="M182,28.8 L182,54.72"/>
<path d="M183,28.8 L183,54.72"/>
<path d="M184,28.8 L184,54.72"/>
<path d="M185,28.8 L185,54.72"/>
<path d="M186,28.8 L186,54.72"/>
<path d="M187,28.8 L187,54.72"/>
<path d="M188,28.8 L188,54.72"/>
<path d="M189,28.8 L189,54.72"/>
<path d="M190,28.8 L190,54.72"/>
<path d="M191,28.8 L191,54.72"/>
<path d="M192,28.8 L192,54.72"/>
<path d="M193,28.8 L193,54.72"/>
<path d="M194,28.8 L194,54.72"/>
<path d="M195,28.8 L195,54.72"/>
<path d="M196,28.8 L196,54.72"/>
<path d="M197,28.8 L197,54.72"/>
<path d="M198,28.8 L198,54.72"/>
<path d="M200,28.8 L200,54.72"/>
<path d="M201,28.8 L201,54.72"/>
<path d="M202,28.8 L202,54.72"/>
<path d="M205,28.8 L205,54.72"/>
<path d="M206,28.8 L206,54.72"/>
<path d="M207,28.8 L207,54.72"/>
<path d="M208,28.8 L208,54.72"/>
<path d="M209,28.8 L209,54.72"/>
<path d="M210,28.8 L210,54.72"/>
<path d="M212,28.8 L212,54.72"/>
<path d="M213,28.8 L213,54.72"/>
<path d="M216,28.8 L216,54.72"/>
<path d="M219,28.8 L219,54.72"/>
<path d="M222,28.8 L222,54.72"/>
<path d="M226,28.8 L226,54.72"/>
<path d="M227,28.8 L227,54.72"/>
<path d="M228,28.8 L228,54.72"/>
<path d="M240,28.8 L240,54.72"/>
<path d="M245,28.8 L245,54.72"/>
<path d="M249,28.8 L249,54.72"/>
<path d="M256,28.8 L256,54.72"/>
<path d="M262,28.8 L262,54.72"/>
<path d="M267,28.8 L267,54.72"/>
<path d="M270,28.8 L270,54.72"/>
<path d="M272,28.8 L272,54.72"/>
<path d="M276,28.8 L276,54.72"/>
<path d="M283,28.8 L283,54.72"/>
<path d="M284,28.8 L284,54.72"/>
<path d="M285,28.8 L285,54.72"/>
<path d="M288,28.8 L288,54.72"/>
<path d="M311,28.8 L311,54.72"/>
<path d="M318,28.8 L318,54.72"/>
<path d="M332,28.8 L332,54.72"/>
<path d="M335,28.8 L335,54.72"/>
<path d="M352,28.8 L352,54.72"/>
<path d="M363,28.8 L363,54.72"/>
<path d="M366,28.8 L366,54.72"/>
<path d="M369,28.8 L369,54.72"/>
<path d="M379,28.8 L379,54.72"/>
<path d="M2,57.6 L2,83.52"/>
<path d="M8,57.6 L8,83.52"/>
<path d="M20,57.6 L20,83.52"/>
<path d="M35,57.6 L35,83.52"/>
<path d="M38,57.6 L38,83.52"/>
<path d="M64,57.6 L64,83.52"/>
<path d="M71,57.6 L71,83.52"/>
<path d="M73,57.6 L73,83.52"/>
<path d="M80,57.6 L80,83.52"/>
<path d="M81,57.6 L81,83.52"/>
<path d="M98,57.6 L98,83.52"/>
<path d="M100,57.6 L100,83.52"/>
<path d="M103,57.6 L103,83.52"/>
<path d="M104,57.6 L104,83.52"/>
<path d="M111,57.6 L111,83.52"/>
<path d="M113,57.6 L113,83.52"/>
<path d="M115,57.6 L115,83.52"/>
<path d="M116,57.6 L116,83.52"/>
<path d="M118,57.6 L118,83.52"/>
<path d="M120,57.6 L120,83.52"/>
<path d="M123,57.6 L123,83.52"/>
<path d="M125,57.6 L125,83.52"/>
<path d="M127,57.6 L127,83.52"/>
<path d="M129,57.6 L129,83.52"/>
<path d="M133,57.6 L133,83.52"/>
<path d="M135,57.6 L135,83.52"/>
<path d="M137,57.6 L137,83.52"/>
<path d="M138,57.6 L138,83.52"/>
<path d="M140,57.6 L140,83.52"/>
<path d="M141,57.6 L141,83.52"/>
<path d="M143,57.6 L143,83.52"/>
<path d="M144,57.6 L144,83.52"/>
<path d="M145,57.6 L145,83.52"/>
<path d="M146,57.6 L146,83.52"/>
<path d="M147,57.6 L147,83.52"/>
<path d="M148,57.6 L148,83.52"/>
<path d="M149,57.6 L149,83.52"/>
<path d="M150,57.6 L150,83.52"/>
<path d="M151,57.6 L151,83.52"/>
<path d="M152,57.6 L152,83.52"/>
<path d="M153,57.6 L153,83.52"/>
<path d="M154,57.6 L154,83.52"/>
<path d="M155,57.6 L155,83.52"/>
<path d="M156,57.6 L156,83.52"/>
<path d="M157,57.6 L157,83.52"/>
<path d="M158,57.6 L158,83.52"/>
<path d="M159,57.6 L159,83.52"/>
<path d="M160,57.6 L160,83.52"/>
<path d="M161,57.6 L161,83.52"/>
<path d="M162,57.6 L162,83.52"/>
<path d="M163,57.6 L163,83.52"/>
<path d="M164,57.6 L164,83.52"/>
<path d="M165,57.6 L165,83.52"/>
<path d="M166,57.6 L166,83.52"/>
<path d="M167,57.6 L167,83.52"/>
<path d="M168,57.6 L168,83.52"/>
<path d="M169,57.6 L169,83.52"/>
<path d="M170,57.6 L170,83.52"/>
<path d="M171,57.6 L171,83.52"/>
<path d="M172,57.6 L172,83.52"/>
<path d="M173,57.6 L173,83.52"/>
<path d="M174,57.6 L174,83.52"/>
<path d="M175,57.6 L175,83.52"/>
<path d="M176,57.6 L176,83.52"/>
<path d="M177,57.6 L177,83.52"/>
<path d="M178,57.6 L178,83.52"/>
<path d="M179,57.6 L179,83.52"/>
<path d="M180,57.6 L180,83.52"/>
<path d="M181,57.6 L181,83.52"/>
<path d="M182,57.6 L182,83.52"/>
<path d="M183,57.6 L183,83.52"/>
<path d="M184,57.6 L184,83.52"/>
<path d="M185,57.6 L185,83.52"/>
<path d="M186,57.6 L186,83.52"/>
<path d="M187,57.6 L187,83.52"/>
<path d="M189,57.6 L189,83.52"/>
<path d="M191,57.6 L191,83.52"/>
<path d="M193,57.6 L193,83.52"/>
<path d="M194,57.6 L194,83.52"/>
<path d="M195,57.6 L195,83.52"/>
<path d="M196,57.6 L196,83.52"/>
<path d="M202,57.6 L202,83.52"/>
<path d="M203,57.6 L203,83.52"/>
<path d="M204,57.6 L204,83.52"/>
<path d="M210,57.6 L210,83.52"/>
<path d="M213,57.6 L213,83.52"/>
<path d="M219,57.6 L219,83.52"/>
<path d="M221,57.6 L221,83.52"/>
<path d="M223,57.6 L223,83.52"/>
<path d="M224,57.6 L224,83.52"/>
<path d="M225,57.6 L225,83.52"/>
<path d="M226,57.6 L226,83.52"/>
<path d="M233,57.6 L233,83.52"/>
<path d="M234,57.6 L234,83.52"/>
<path d="M235,57.6 L235,83.52"/>
<path d="M236,57.6 L236,83.52"/>
<path d="M238,57.6 L238,83.52"/>
<path d="M241,57.6 L241,83.52"/>
<path d="M245,57.6 L245,83.52"/>
<path d="M262,57.6 L262,83.52"/>
<path d="M264,57.6 L264,83.52"/>
<path d="M268,57.6 L268,83.52"/>
<path d="M269,57.6 L269,83.52"/>
<path d="M273,57.6 L273,83.52"/>
<path d="M278,57.6 L278,83.52"/>
<path d="M283,57.6 L283,83.52"/>
<path d="M319,57.6 L319,83.52"/>
<path d="M322,57.6 L322,83.52"/>
<path d="M324,57.6 L324,83.52"/>
<path d="M341,57.6 L341,83.52"/>
<path d="M343,57.6 L343,83.52"/>
<path d="M367,57.6 L367,83.52"/>
<path d="M371,57.6 L371,83.52"/>
<path d="M11,86.4 L11,112.32"/>
<path d="M12,86.4 L12,112.32"/>
<path d="M33,86.4 L33,112.32"/>
<path d="M35,86.4 L35,112.32"/>
<path d="M46,86.4 L46,112.32"/>
<path d="M48,86.4 L48,112.32"/>
<path d="M59,86.4 L59,112.32"/>
<path d="M63,86.4 L63,112.32"/>
<path d="M81,86.4 L81,112.32"/>
<path d="M83,86.4 L83,112.32"/>
<path d="M85,86.4 L85,112.32"/>
<path d="M93,86.4 L93,112.32"/>
<path d="M98,86.4 L98,112.32"/>
<path d="M99,86.4 L99,112.32"/>
<path d="M102,86.4 L102,112.32"/>
<path d="M103,86.4 L103,112.32"/>
<path d="M106,86.4 L106,112.32"/>
<path d="M109,86.4 L109,112.32"/>
<path d="M111,86.4 L111,112.32"/>
<path d="M112,86.4 L112,112.32"/>
<path d="M113,86.4 L113,112.32"/>
<path d="M116,86.4 L116,112.32"/>
<path d="M117,86.4 L117,112.32"/>
<path d="M119,86.4 L119,112.32"/>
<path d="M123,86.4 L123,112.32"/>
<path d="M124,86.4 L124,112.32"/>
<path d="M126,86.4 L126,112.32"/>
<path d="M129,86.4 L129,112.32"/>
<path d="M134,86.4 L134,112.32"/>
<path d="M135,86.4 L135,112.32"/>
<path d="M136,86.4 L136,112.32"/>
<path d="M137,86.4 L137,112.32"/>
<path d="M138,86.4 L138,112.32"/>
<path d="M139,86.4 L139,112.32"/>
<path d="M140,86.4 L140,112.32"/>
<path d="M141,86.4 L141,112.32"/>
<path d="M142,86.4 L142,112.32"/>
<path d="M143,86.4 L143,112.32"/>
<path d="M144,86.4 L144,112.32"/>
<path d="M145,86.4 L145,112.32"/>
<path d="M146,86.4 L146,112.32"/>
<path d="M147,86.4 L147,112.32"/>
<path d="M148,86.4 L148,112.32"/>
<path d="M149,86.4 L149,112.32"/>
<path d="M150,86.4 L150,112.32"/>
<path d="M151,86.4 L151,112.32"/>
<path d="M152,86.4 L152,112.32"/>
<path d="M153,86.4 L153,112.32"/>
<path d="M154,86.4 L154,112.32"/>
<path d="M155,86.4 L155,112.32"/>
<path d="M156,86.4 L156,112.32"/>
<path d="M157,86.4 L157,112.32"/>
<path d="M158,86.4 L158,112.32"/>
<path d="M159,86.4 L159,112.32"/>
<path d="M160,86.4 L160,112.32"/>
<path d="M161,86.4 L161,112.32"/>
<path d="M162,86.4 L162,112.32"/>
<path d="M163,86.4 L163,112.32"/>
<path d="M164,86.4 L164,112.32"/>
<path d="M165,86.4 L165,112.32"/>
<path d="M166,86.4 L166,112.32"/>
<path d="M167,86.4 L167,112.32"/>
<path d="M168,86.4 L168,112.32"/>
<path d="M169,86.4 L169,112.32"/>
<path d="M170,86.4 L170,112.32"/>
<path d="M171,86.4 L171,112.32"/>
<path d="M172,86.4 L172,112.32"/>
<path d="M173,86.4 L173,112.32"/>
<path d="M174,86.4 L174,112.32"/>
<path d="M176,86.4 L176,112.32"/>
<path d="M178,86.4 L178,112.32"/>
<path d="M179,86.4 L179,112.32"/>
<path d="M180,86.4 L180,112.32"/>
<path d="M181,86.4 L181,112.32"/>
<path d="M183,86.4 L183,112.32"/>
<path d="M184,86.4 L184,112.32"/>
<path d="M189,86.4 L189,112.32"/>
<path d="M193,86.4 L193,112.32"/>
<path d="M195,86.4 L195,112.32"/>
<path d="M197,86.4 L197,112.32"/>
<path d="M199,86.4 L199,112.32"/>
<path d="M201,86.4 L201,112.32"/>
<path d="M203,86.4 L203,112.32"/>
<path d="M209,86.4 L209,112.32"/>
<path d="M212,86.4 L212,112.32"/>
<path d="M215,86.4 L215,112.32"/>
<path d="M221,86.4 L221,112.32"/>
<path d="M229,86.4 L229,112.32"/>
<path d="M230,86.4 L230,112.32"/>
<path d="M240,86.4 L240,112.32"/>
<path d="M244,86.4 L244,112.32"/>
<path d="M248,86.4 L248,112.32"/>
<path d="M253,86.4 L253,112.32"/>
<path d="M254,86.4 L254,112.32"/>
<path d="M255,86.4 L255,112.32"/>
<path d="M259,86.4 L259,112.32"/>
<path d="M265,86.4 L265,112.32"/>
<path d="M270,86.4 L270,112.32"/>
<path d="M283,86.4 L283,112.32"/>
<path d="M293,86.4 L293,112.32"/>
<path d="M294,86.4 L294,112.32"/>
<path d="M304,86.4 L304,112.32"/>
<path d="M309,86.4 L309,112.32"/>
<path d="M312,86.4 L312,112.32"/>
<path d="M318,86.4 L318,112.32"/>
<path d="M329,86.4 L329,112.32"/>
<path d="M343,86.4 L343,112.32"/>
<path d="M349,86.4 L349,112.32"/>
<path d="M381,86.4 L381,112.32"/>
<path d="M383,86.4 L383,112.32"/>
<path d="M6,115.2 L6,141.12"/>
<path d="M9,115.2 L9,141.12"/>
<path d="M28,115.2 L28,141.12"/>
<path d="M35,115.2 L35,141.12"/>
<path d="M47,115.2 L47,141.12"/>
<path d="M56,115.2 L56,141.12"/>
<path d="M60,115.2 L60,141.12"/>
<path d="M64,115.2 L64,141.12"/>
<path d="M71,115.2 L71,141.12"/>
<path d="M75,115.2 L75,141.12"/>
<path d="M79,115.2 L79,141.12"/>
<path d="M83,115.2 L83,141.12"/>
<path d="M85,115.2 L85,141.12"/>
<path d="M93,115.2 L93,141.12"/>
<path d="M95,115.2 L95,141.12"/>
<path d="M96,115.2 L96,141.12"/>
<path d="M100,115.2 L100,141.12"/>
<path d="M102,115.2 L102,141.12"/>
<path d="M103,115.2 L103,141.12"/>
<path d="M104,115.2 L104,141.12"/>
<path d="M105,115.2 L105,141.12"/>
<path d="M106,115.2 L106,141.12"/>
<path d="M107,115.2 L107,141.12"/>
<path d="M112,115.2 L112,141.12"/>
<path d="M117,115.2 L117,141.12"/>
<path d="M121,115.2 L121,141.12"/>
<path d="M123,115.2 L123,141.12"/>
<path d="M124,115.2 L124,141.12"/>
<path d="M128,115.2 L128,141.12"/>
<path d="M129,115.2 L129,141.12"/>
<path d="M130,115.2 L130,141.12"/>
<path d="M131,115.2 L131,141.12"/>
<path d="M133,115.2 L133,141.12"/>
<path d="M134,115.2 L134,141.12"/>
<path d="M135,115.2 L135,141.12"/>
<path d="M136,115.2 L136,141.12"/>
<path d="M137,115.2 L137,141.12"/>
<path d="M138,115.2 L138,141.12"/>
<path d="M139,115.2 L139,141.12"/>
<path d="M140,115.2 L140,141.12"/>
<path d="M141,115.2 L141,141.12"/>
<path d="M142,115.2 L142,141.12"/>
<path d="M143,115.2 L143,141.12"/>
<path d="M144,115.2 L144,141.12"/>
<path d="M145,115.2 L145,141.12"/>
<path d="M146,115.2 L146,141.12"/>
<path d="M147,115.2 L147,141.12"/>
<path d="M148,115.2 L148,141.12"/>
<path d="M149,115.2 L149,141.12"/>
<path d="M150,115.2 L150,141.12"/>
<path d="M151,115.2 L151,141.12"/>
<path d="M152,115.2 L152,141.12"/>
<path d="M153,115.2 L153,141.12"/>
<path d="M154,115.2 L154,141.12"/>
<path d="M155,115.2 L155,141.12"/>
<path d="M156,115.2 L156,141.12"/>
<path d="M157,115.2 L157,141.12"/>
<path d="M158,115.2 L158,141.12"/>
<path d="M159,115.2 L159,141.12"/>
<path d="M160,115.2 L160,141.12"/>
<path d="M161,115.2 L161,141.12"/>
<path d="M162,115.2 L162,141.12"/>
<path d="M163,115.2 L163,141.12"/>
<path d="M164,115.2 L164,141.12"/>
<path d="M165,115.2 L165,141.12"/>
<path d="M167,115.2 L167,141.12"/>
<path d="M169,115.2 L169,141.12"/>
<path d="M170,115.2 L170,141.12"/>
<path d="M171,115.2 L171,141.12"/>
<path d="M172,115.2 L172,141.12"/>
<path d="M174,115.2 L174,141.12"/>
<path d="M175,115.2 L175,141.12"/>
<path d="M176,115.2 L176,141.12"/>
<path d="M177,115.2 L177,141.12"/>
<path d="M178,115.2 L178,141.12"/>
<path d="M180,115.2 L180,141.12"/>
<path d="M181,115.2 L181,141.12"/>
<path d="M182,115.2 L182,141.12"/>
<path d="M183,115.2 L183,141.12"/>
<path d="M185,115.2 L185,141.12"/>
<path d="M187,115.2 L187,141.12"/>
<path d="M189,115.2 L189,141.12"/>
<path d="M190,115.2 L190,141.12"/>
<path d="M191,115.2 L191,141.12"/>
<path d="M192,115.2 L192,141.12"/>
<path d="M194,115.2 L194,141.12"/>
<path d="M195,115.2 L195,141.12"/>
<path d="M204,115.2 L204,141.12"/>
<path d="M205,115.2 L205,141.12"/>
<path d="M206,115.2 L206,141.12"/>
<path d="M209,115.2 L209,141.12"/>
<path d="M212,115.2 L212,141.12"/>
<path d="M219,115.2 L219,141.12"/>
<path d="M225,115.2 L225,141.12"/>
<path d="M230,115.2 L230,141.12"/>
<path d="M234,115.2 L234,141.12"/>
<path d="M240,115.2 L240,141.12"/>
<path d="M251,115.2 L251,141.12"/>
<path d="M254,115.2 L254,141.12"/>
<path d="M279,115.2 L279,141.12"/>
<path d="M280,115.2 L280,141.12"/>
<path d="M294,115.2 L294,141.12"/>
<path d="M302,115.2 L302,141.12"/>
<path d="M311,115.2 L311,141.12"/>
<path d="M314,115.2 L314,141.12"/>
<path d="M319,115.2 L319,141.12"/>
<path d="M324,115.2 L324,141.12"/>
<path d="M330,115.2 L330,141.12"/>
<path d="M342,115.2 L342,141.12"/>
<path d="M348,115.2 L348,141.12"/>
<path d="M366,115.2 L366,141.12"/>
<path d="M380,115.2 L380,141.12"/>
<path d="M6,144 L6,169.92"/>
<path d="M16,144 L16,169.92"/>
<path d="M35,144 L35,169.92"/>
<path d="M47,144 L47,169.92"/>
<path d="M51,144 L51,169.92"/>
<path d="M53,144 L53,169.92"/>
<path d="M54,144 L54,169.92"/>
<path d="M56,144 L56,169.92"/>
<path d="M57,144 L57,169.92"/>
<path d="M64,144 L64,169.92"/>
<path d="M76,144 L76,169.92"/>
<path d="M78,144 L78,169.92"/>
<path d="M84,144 L84,169.92"/>
<path d="M85,144 L85,169.92"/>
<path d="M93,144 L93,169.92"/>
<path d="M96,144 L96,169.92"/>
<path d="M101,144 L101,169.92"/>
<path d="M105,144 L105,169.92"/>
<path d="M106,144 L106,169.92"/>
<path d="M108,144 L108,169.92"/>
<path d="M109,144 L109,169.92"/>
<path d="M113,144 L113,169.92"/>
<path d="M114,144 L114,169.92"/>
<path d="M115,144 L115,169.92"/>
<path d="M117,144 L117,169.92"/>
<path d="M119,144 L119,169.92"/>
<path d="M120,144 L120,169.92"/>
<path d="M121,144 L121,169.92"/>
<path d="M122,144 L122,169.92"/>
<path d="M123,144 L123,169.92"/>
<path d="M124,144 L124,169.92"/>
<path d="M125,144 L125,169.92"/>
<path d="M126,144 L126,169.92"/>
<path d="M128,144 L128,169.92"/>
<path d="M129,144 L129,169.92"/>
<path d="M130,144 L130,169.92"/>
<path d="M131,144 L131,169.92"/>
<path d="M132,144 L132,169.92"/>
<path d="M133,144 L133,169.92"/>
<path d="M134,144 L134,169.92"/>
<path d="M135,144 L135,169.92"/>
<path d="M136,144 L136,169.92"/>
<path d="M137,144 L137,169.92"/>
<path d="M138,144 L138,169.92"/>
<path d="M139,144 L139,169.92"/>
<path d="M140,144 L140,169.92"/>
<path d="M141,144 L141,169.92"/>
<path d="M142,144 L142,169.92"/>
<path d="M143,144 L143,169.92"/>
<path d="M144,144 L144,169.92"/>
<path d="M145,144 L145,169.92"/>
<path d="M146,144 L146,169.92"/>
<path d="M147,144 L147,169.92"/>
<path d="M148,144 L148,169.92"/>
<path d="M149,144 L149,169.92"/>
<path d="M150,144 L150,169.92"/>
<path d="M151,144 L151,169.92"/>
<path d="M152,144 L152,169.92"/>
<path d="M153,144 L153,169.92"/>
<path d="M154,144 L154,169.92"/>
<path d="M155,144 L155,169.92"/>
<path d="M156,144 L156,169.92"/>
<path d="M157,144 L157,169.92"/>
<path d="M158,144 L158,169.92"/>
<path d="M159,144 L159,169.92"/>
<path d="M160,144 L160,169.92"/>
<path d="M161,144 L161,169.92"/>
<path d="M162,144 L162,169.92"/>
<path d="M164,144 L164,169.92"/>
<path d="M165,144 L165,169.92"/>
<path d="M166,144 L166,169.92"/>
<path d="M167,144 L167,169.92"/>
<path d="M168,144 L168,169.92"/>
<path d="M169,144 L169,169.92"/>
<path d="M170,144 L170,169.92"/>
<path d="M173,144 L173,169.92"/>
<path d="M174,144 L174,169.92"/>
<path d="M175,144 L175,169.92"/>
<path d="M177,144 L177,169.92"/>
<path d="M179,144 L179,169.92"/>
<path d="M181,144 L181,169.92"/>
<path d="M182,144 L182,169.92"/>
<path d="M183,144 L183,169.92"/>
<path d="M184,144 L184,169.92"/>
<path d="M186,144 L186,169.92"/>
<path d="M192,144 L192,169.92"/>
<path d="M193,144 L193,169.92"/>
<path d="M194,144 L194,169.92"/>
<path d="M198,144 L198,169.92"/>
<path d="M199,144 L199,169.92"/>
<path d="M210,144 L210,169.92"/>
<path d="M211,144 L211,169.92"/>
<path d="M215,144 L215,169.92"/>
<path d="M227,144 L227,169.92"/>
<path d="M229,144 L229,169.92"/>
<path d="M241,144 L241,169.92"/>
<path d="M242,144 L242,169.92"/>
<path d="M244,144 L244,169.92"/>
<path d="M257,144 L257,169.92"/>
<path d="M263,144 L263,169.92"/>
<path d="M265,144 L265,169.92"/>
<path d="M284,144 L284,169.92"/>
<path d="M285,144 L285,169.92"/>
<path d="M288,144 L288,169.92"/>
<path d="M293,144 L293,169.92"/>
<path d="M305,144 L305,169.92"/>
<path d="M307,144 L307,169.92"/>
<path d="M313,144 L313,169.92"/>
<path d="M320,144 L320,169.92"/>
<path d="M325,144 L325,169.92"/>
<path d="M328,144 L328,169.92"/>
<path d="M333,144 L333,169.92"/>
<path d="M354,144 L354,169.92"/>
<path d="M355,144 L355,169.92"/>
<path d="M366,144 L366,169.92"/>
<path d="M367,144 L367,169.92"/>
<path d="M374,144 L374,169.92"/>
<path d="M15,172.8 L15,198.72"/>
<path d="M19,172.8 L19,198.72"/>
<path d="M21,172.8 L21,198.72"/>
<path d="M33,172.8 L33,198.72"/>
<path d="M34,172.8 L34,198.72"/>
<path d="M36,172.8 L36,198.72"/>
<path d="M39,172.8 L39,198.72"/>
<path d="M43,172.8 L43,198.72"/>
<path d="M55,172.8 L55,198.72"/>
<path d="M67,172.8 L67,198.72"/>
<path d="M69,172.8 L69,198.72"/>
<path d="M71,172.8 L71,198.72"/>
<path d="M79,172.8 L79,198.72"/>
<path d="M82,172.8 L82,198.72"/>
<path d="M83,172.8 L83,198.72"/>
<path d="M86,172.8 L86,198.72"/>
<path d="M89,172.8 L89,198.72"/>
<path d="M90,172.8 L90,198.72"/>
<path d="M94,172.8 L94,198.72"/>
<path d="M97,172.8 L97,198.72"/>
<path d="M98,172.8 L98,198.72"/>
<path d="M99,172.8 L99,198.72"/>
<path d="M101,172.8 L101,198.72"/>
<path d="M104,172.8 L104,198.72"/>
<path d="M106,172.8 L106,198.72"/>
<path d="M111,172.8 L111,198.72"/>
<path d="M115,172.8 L115,198.72"/>
<path d="M118,172.8 L118,198.72"/>
<path d="M120,172.8 L120,198.72"/>
<path d="M122,172.8 L122,198.72"/>
<path d="M124,172.8 L124,198.72"/>
<path d="M125,172.8 L125,198.72"/>
<path d="M126,172.8 L126,198.72"/>
<path d="M127,172.8 L127,198.72"/>
<path d="M128,172.8 L128,198.72"/>
<path d="M129,172.8 L129,198.72"/>
<path d="M130,172.8 L130,198.72"/>
<path d="M131,172.8 L131,198.72"/>
<path d="M132,172.8 L132,198.72"/>
<path d="M133,172.8 L133,198.72"/>
<path d="M134,172.8 L134,198.72"/>
<path d="M135,172.8 L135,198.72"/>
<path d="M136,172.8 L136,198.72"/>
<path d="M137,172.8 L137,198.72"/>
<path d="M138,172.8 L138,198.72"/>
<path d="M139,172.8 L139,198.72"/>
<path d="M140,172.8 L140,198.72"/>
<path d="M141,172.8 L141,198.72"/>
<path d="M142,172.8 L142,198.72"/>
<path d="M143,172.8 L143,198.72"/>
<path d="M144,172.8 L144,198.72"/>
<path d="M145,172.8 L145,198.72"/>
<path d="M146,172.8 L146,198.72"/>
<path d="M147,172.8 L147,198.72"/>
<path d="M148,172.8 L148,198.72"/>
<path d="M149,172.8 L149,198.72"/>
<path d="M150,172.8 L150,198.72"/>
<path d="M151,172.8 L151,198.72"/>
<path d="M152,172.8 L152,198.72"/>
<path d="M153,172.8 L153,198.72"/>
<path d="M154,172.8 L154,198.72"/>
<path d="M155,172.8 L155,198.72"/>
<path d="M156,172.8 L156,198.72"/>
<path d="M157,172.8 L157,198.72"/>
<path d="M158,172.8 L158,198.72"/>
<path d="M159,172.8 L159,198.72"/>
<path d="M160,172.8 L160,198.72"/>
<path d="M161,172.8 L161,198.72"/>
<path d="M162,172.8 L162,198.72"/>
<path d="M163,172.8 L163,198.72"/>
<path d="M166,172.8 L166,198.72"/>
<path d="M167,172.8 L167,198.72"/>
<path d="M172,172.8 L172,198.72"/>
<path d="M173,172.8 L173,198.72"/>
<path d="M174,172.8 L174,198.72"/>
<path d="M177,172.8 L177,198.72"/>
<path d="M178,172.8 L178,198.72"/>
<path d="M183,172.8 L183,198.72"/>
<path d="M186,172.8 L186,198.72"/>
<path d="M195,172.8 L195,198.72"/>
<path d="M196,172.8 L196,198.72"/>
<path d="M199,172.8 L199,198.72"/>
<path d="M204,172.8 L204,198.72"/>
<path d="M208,172.8 L208,198.72"/>
<path d="M211,172.8 L211,198.72"/>
<path d="M212,172.8 L212,198.72"/>
<path d="M216,172.8 L216,198.72"/>
<path d="M217,172.8 L217,198.72"/>
<path d="M224,172.8 L224,198.72"/>
<path d="M242,172.8 L242,198.72"/>
<path d="M275,172.8 L275,198.72"/>
<path d="M284,172.8 L284,198.72"/>
<path d="M286,172.8 L286,198.72"/>
<path d="M290,172.8 L290,198.72"/>
<path d="M308,172.8 L308,198.72"/>
<path d="M332,172.8 L332,198.72"/>
<path d="M370,172.8 L370,198.72"/>
<path d="M378,172.8 L378,198.72"/>
<path d="M6,201.6 L6,227.52"/>
<path d="M9,201.6 L9,227.52"/>
<path d="M32,201.6 L32,227.52"/>
<path d="M34,201.6 L34,227.52"/>
<path d="M44,201.6 L44,227.52"/>
<path d="M45,201.6 L45,227.52"/>
<path d="M47,201.6 L47,227.52"/>
<path d="M57,201.6 L57,227.52"/>
<path d="M67,201.6 L67,227.52"/>
<path d="M74,201.6 L74,227.52"/>
<path d="M77,201.6 L77,227.52"/>
<path d="M79,201.6 L79,227.52"/>
<path d="M96,201.6 L96,227.52"/>
<path d="M97,201.6 L97,227.52"/>
<path d="M100,201.6 L100,227.52"/>
<path d="M101,201.6 L101,227.52"/>
<path d="M102,201.6 L102,227.52"/>
<path d="M106,201.6 L106,227.52"/>
<path d="M114,201.6 L114,227.52"/>
<path d="M120,201.6 L120,227.52"/>
<path d="M121,201.6 L121,227.52"/>
<path d="M122,201.6 L122,227.52"/>
<path d="M123,201.6 L123,227.52"/>
<path d="M124,201.6 L124,227.52"/>
<path d="M125,201.6 L125,227.52"/>
<path d="M126,201.6 L126,227.52"/>
<path d="M127,201.6 L127,227.52"/>
<path d="M128,201.6 L128,227.52"/>
<path d="M129,201.6 L129,227.52"/>
<path d="M131,201.6 L131,227.52"/>
<path d="M132,201.6 L132,227.52"/>
<path d="M133,201.6 L133,227.52"/>
<path d="M134,201.6 L134,227.52"/>
<path d="M135,201.6 L135,227.52"/>
<path d="M136,201.6 L136,227.52"/>
<path d="M137,201.6 L137,227.52"/>
<path d="M138,201.6 L138,227.52"/>
<path d="M139,201.6 L139,227.52"/>
<path d="M140,201.6 L140,227.52"/>
<path d="M141,201.6 L141,227.52"/>
<path d="M142,201.6 L142,227.52"/>
<path d="M143,201.6 L143,227.52"/>
<path d="M144,201.6 L144,227.52"/>
<path d="M145,201.6 L145,227.52"/>
<path d="M146,201.6 L146,227.52"/>
<path d="M147,201.6 L147,227.52"/>
<path d="M148,201.6 L148,227.52"/>
<path d="M149,201.6 L149,227.52"/>
<path d="M150,201.6 L150,227.52"/>
<path d="M151,201.6 L151,227.52"/>
<path d="M152,201.6 L152,227.52"/>
<path d="M153,201.6 L153,227.52"/>
<path d="M154,201.6 L154,227.52"/>
<path d="M155,201.6 L155,227.52"/>
<path d="M156,201.6 L156,227.52"/>
<path d="M157,201.6 L157,227.52"/>
<path d="M158,201.6 L158,227.52"/>
<path d="M159,201.6 L159,227.52"/>
<path d="M160,201.6 L160,227.52"/>
<path d="M161,201.6 L161,227.52"/>
<path d="M162,201.6 L162,227.52"/>
<path d="M163,201.6 L163,227.52"/>
<path d="M164,201.6 L164,227.52"/>
<path d="M165,201.6 L165,227.52"/>
<path d="M166,201.6 L166,227.52"/>
<path d="M167,201.6 L167,227.52"/>
<path d="M168,201.6 L168,227.52"/>
<path d="M169,201.6 L169,227.52"/>
<path d="M170,201.6 L170,227.52"/>
<path d="M172,201.6 L172,227.52"/>
<path d="M173,201.6 L173,227.52"/>
<path d="M177,201.6 L177,227.52"/>
<path d="M179,201.6 L179,227.52"/>
<path d="M182,201.6 L182,227.52"/>
<path d="M185,201.6 L185,227.52"/>
<path d="M186,201.6 L186,227.52"/>
<path d="M195,201.6 L195,227.52"/>
<path d="M202,201.6 L202,227.52"/>
<path d="M203,201.6 L203,227.52"/>
<path d="M206,201.6 L206,227.52"/>
<path d="M209,201.6 L209,227.52"/>
<path d="M216,201.6 L216,227.52"/>
<path d="M224,201.6 L224,227.52"/>
<path d="M225,201.6 L225,227.52"/>
<path d="M241,201.6 L241,227.52"/>
<path d="M243,201.6 L243,227.52"/>
<path d="M244,201.6 L244,227.52"/>
<path d="M255,201.6 L255,227.52"/>
<path d="M259,201.6 L259,227.52"/>
<path d="M264,201.6 L264,227.52"/>
<path d="M289,201.6 L289,227.52"/>
<path d="M312,201.6 L312,227.52"/>
<path d="M314,201.6 L314,227.52"/>
<path d="M316,201.6 L316,227.52"/>
<path d="M343,201.6 L343,227.52"/>
<path d="M372,201.6 L372,227.52"/>
<path d="M383,201.6 L383,227.52"/>
<path d="M15,230.4 L15,256.32"/>
<path d="M17,230.4 L17,256.32"/>
<path d="M21,230.4 L21,256.32"/>
<path d="M24,230.4 L24,256.32"/>
<path d="M27,230.4 L27,256.32"/>
<path d="M39,230.4 L39,256.32"/>
<path d="M40,230.4 L40,256.32"/>
<path d="M41,230.4 L41,256.32"/>
<path d="M43,230.4 L43,256.32"/>
<path d="M46,230.4 L46,256.32"/>
<path d="M54,230.4 L54,256.32"/>
<path d="M62,230.4 L62,256.32"/>
<path d="M63,230.4 L63,256.32"/>
<path d="M68,230.4 L68,256.32"/>
<path d="M72,230.4 L72,256.32"/>
<path d="M77,230.4 L77,256.32"/>
<path d="M91,230.4 L91,256.32"/>
<path d="M96,230.4 L96,256.32"/>
<path d="M100,230.4 L100,256.32"/>
<path d="M102,230.4 L102,256.32"/>
<path d="M114,230.4 L114,256.32"/>
<path d="M116,230.4 L116,256.32"/>
<path d="M117,230.4 L117,256.32"/>
<path d="M118,230.4 L118,256.32"/>
<path d="M119,230.4 L119,256.32"/>
<path d="M120,230.4 L120,256.32"/>
<path d="M122,230.4 L122,256.32"/>
<path d="M126,230.4 L126,256.32"/>
<path d="M129,230.4 L129,256.32"/>
<path d="M130,230.4 L130,256.32"/>
<path d="M131,230.4 L131,256.32"/>
<path d="M133,230.4 L133,256.32"/>
<path d="M134,230.4 L134,256.32"/>
<path d="M135,230.4 L135,256.32"/>
<path d="M137,230.4 L137,256.32"/>
<path d="M138,230.4 L138,256.32"/>
<path d="M139,230.4 L139,256.32"/>
<path d="M140,230.4 L140,256.32"/>
<path d="M141,230.4 L141,256.32"/>
<path d="M142,230.4 L142,256.32"/>
<path d="M143,230.4 L143,256.32"/>
<path d="M144,230.4 L144,256.32"/>
<path d="M145,230.4 L145,256.32"/>
<path d="M146,230.4 L146,256.32"/>
<path d="M147,230.4 L147,256.32"/>
<path d="M148,230.4 L148,256.32"/>
<path d="M149,230.4 L149,256.32"/>
<path d="M150,230.4 L150,256.32"/>
<path d="M151,230.4 L151,256.32"/>
<path d="M152,230.4 L152,256.32"/>
<path d="M153,230.4 L153,256.32"/>
<path d="M154,230.4 L154,256.32"/>
<path d="M155,230.4 L155,256.32"/>
<path d="M156,230.4 L156,256.32"/>
<path d="M157,230.4 L157,256.32"/>
<path d="M158,230.4 L158,256.32"/>
<path d="M159,230.4 L159,256.32"/>
<path d="M160,230.4 L160,256.32"/>
<path d="M161,230.4 L161,256.32"/>
<path d="M162,230.4 L162,256.32"/>
<path d="M163,230.4 L163,256.32"/>
<path d="M164,230.4 L164,256.32"/>
<path d="M165,230.4 L165,256.32"/>
<path d="M166,230.4 L166,256.32"/>
<path d="M167,230.4 L167,256.32"/>
<path d="M168,230.4 L168,256.32"/>
<path d="M169,230.4 L169,256.32"/>
<path d="M170,230.4 L170,256.32"/>
<path d="M171,230.4 L171,256.32"/>
<path d="M172,230.4 L172,256.32"/>
<path d="M173,230.4 L173,256.32"/>
<path d="M174,230.4 L174,256.32"/>
<path d="M175,230.4 L175,256.32"/>
<path d="M176,230.4 L176,256.32"/>
<path d="M177,230.4 L177,256.32"/>
<path d="M178,230.4 L178,256.32"/>
<path d="M180,230.4 L180,256.32"/>
<path d="M181,230.4 L181,256.32"/>
<path d="M182,230.4 L182,256.32"/>
<path d="M184,230.4 L184,256.32"/>
<path d="M186,230.4 L186,256.32"/>
<path d="M188,230.4 L188,256.32"/>
<path d="M191,230.4 L191,256.32"/>
<path d="M192,230.4 L192,256.32"/>
<path d="M193,230.4 L193,256.32"/>
<path d="M197,230.4 L197,256.32"/>
<path d="M199,230.4 L199,256.32"/>
<path d="M201,230.4 L201,256.32"/>
<path d="M205,230.4 L205,256.32"/>
<path d="M206,230.4 L206,256.32"/>
<path d="M211,230.4 L211,256.32"/>
<path d="M214,230.4 L214,256.32"/>
<path d="M223,230.4 L223,256.32"/>
<path d="M236,230.4 L236,256.32"/>
<path d="M237,230.4 L237,256.32"/>
<path d="M254,230.4 L254,256.32"/>
<path d="M270,230.4 L270,256.32"/>
<path d="M276,230.4 L276,256.32"/>
<path d="M293,230.4 L293,256.32"/>
<path d="M296,230.4 L296,256.32"/>
<path d="M306,230.4 L306,256.32"/>
<path d="M310,230.4 L310,256.32"/>
<path d="M314,230.4 L314,256.32"/>
<path d="M315,230.4 L315,256.32"/>
<path d="M316,230.4 L316,256.32"/>
<path d="M321,230.4 L321,256.32"/>
<path d="M330,230.4 L330,256.32"/>
<path d="M334,230.4 L334,256.32"/>
<path d="M339,230.4 L339,256.32"/>
<path d="M351,230.4 L351,256.32"/>
<path d="M360,230.4 L360,256.32"/>
<path d="M370,230.4 L370,256.32"/>
<path d="M375,230.4 L375,256.32"/>
<path d="M2,259.2 L2,285.12"/>
<path d="M5,259.2 L5,285.12"/>
<path d="M10,259.2 L10,285.12"/>
<path d="M13,259.2 L13,285.12"/>
<path d="M20,259.2 L20,285.12"/>
<path d="M39,259.2 L39,285.12"/>
<path d="M41,259.2 L41,285.12"/>
<path d="M47,259.2 L47,285.12"/>
<path d="M57,259.2 L57,285.12"/>
<path d="M66,259.2 L66,285.12"/>
<path d="M74,259.2 L74,285.12"/>
<path d="M77,259.2 L77,285.12"/>
<path d="M82,259.2 L82,285.12"/>
<path d="M87,259.2 L87,285.12"/>
<path d="M93,259.2 L93,285.12"/>
<path d="M114,259.2 L114,285.12"/>
<path d="M117,259.2 L117,285.12"/>
<path d="M120,259.2 L120,285.12"/>
<path d="M122,259.2 L122,285.12"/>
<path d="M125,259.2 L125,285.12"/>
<path d="M126,259.2 L126,285.12"/>
<path d="M128,259.2 L128,285.12"/>
<path d="M134,259.2 L134,285.12"/>
<path d="M135,259.2 L135,285.12"/>
<path d="M136,259.2 L136,285.12"/>
<path d="M137,259.2 L137,285.12"/>
<path d="M139,259.2 L139,285.12"/>
<path d="M140,259.2 L140,285.12"/>
<path d="M143,259.2 L143,285.12"/>
<path d="M145,259.2 L145,285.12"/>
<path d="M146,259.2 L146,285.12"/>
<path d="M147,259.2 L147,285.12"/>
<path d="M148,259.2 L148,285.12"/>
<path d="M149,259.2 L149,285.12"/>
<path d="M150,259.2 L150,285.12"/>
<path d="M151,259.2 L151,285.12"/>
<path d="M152,259.2 L152,285.12"/>
<path d="M153,259.2 L153,285.12"/>
<path d="M154,259.2 L154,285.12"/>
<path d="M155,259.2 L155,285.12"/>
<path d="M156,259.2 L156,285.12"/>
<path d="M157,259.2 L157,285.12"/>
<path d="M158,259.2 L158,285.12"/>
<path d="M159,259.2 L159,285.12"/>
<path d="M160,259.2 L160,285.12"/>
<path d="M161,259.2 L161,285.12"/>
<path d="M162,259.2 L162,285.12"/>
<path d="M163,259.2 L163,285.12"/>
<path d="M164,259.2 L164,285.12"/>
<path d="M165,259.2 L165,285.12"/>
<path d="M166,259.2 L166,285.12"/>
<path d="M167,259.2 L167,285.12"/>
<path d="M168,259.2 L168,285.12"/>
<path d="M169,259.2 L169,285.12"/>
<path d="M170,259.2 L170,285.12"/>
<path d="M171,259.2 L171,285.12"/>
<path d="M172,259.2 L172,285.12"/>
<path d="M173,259.2 L173,285.12"/>
<path d="M174,259.2 L174,285.12"/>
<path d="M175,259.2 L175,285.12"/>
<path d="M176,259.2 L176,285.12"/>
<path d="M177,259.2 L177,285.12"/>
<path d="M178,259.2 L178,285.12"/>
<path d="M179,259.2 L179,285.12"/>
<path d="M180,259.2 L180,285.12"/>
<path d="M181,259.2 L181,285.12"/>
<path d="M182,259.2 L182,285.12"/>
<path d="M183,259.2 L183,285.12"/>
<path d="M184,259.2 L184,285.12"/>
<path d="M185,259.2 L185,285.12"/>
<path d="M186,259.2 L186,285.12"/>
<path d="M187,259.2 L187,285.12"/>
<path d="M188,259.2 L188,285.12"/>
<path d="M189,259.2 L189,285.12"/>
<path d="M190,259.2 L190,285.12"/>
<path d="M191,259.2 L191,285.12"/>
<path d="M192,259.2 L192,285.12"/>
<path d="M193,259.2 L193,285.12"/>
<path d="M194,259.2 L194,285.12"/>
<path d="M196,259.2 L196,285.12"/>
<path d="M197,259.2 L197,285.12"/>
<path d="M199,259.2 L199,285.12"/>
<path d="M200,259.2 L200,285.12"/>
<path d="M201,259.2 L201,285.12"/>
<path d="M202,259.2 L202,285.12"/>
<path d="M203,259.2 L203,285.12"/>
<path d="M208,259.2 L208,285.12"/>
<path d="M209,259.2 L209,285.12"/>
<path d="M213,259.2 L213,285.12"/>
<path d="M214,259.2 L214,285.12"/>
<path d="M215,259.2 L215,285.12"/>
<path d="M216,259.2 L216,285.12"/>
<path d="M218,259.2 L218,285.12"/>
<path d="M221,259.2 L221,285.12"/>
<path d="M224,259.2 L224,285.12"/>
<path d="M229,259.2 L229,285.12"/>
<path d="M233,259.2 L233,285.12"/>
<path d="M238,259.2 L238,285.12"/>
<path d="M244,259.2 L244,285.12"/>
<path d="M248,259.2 L248,285.12"/>
<path d="M250,259.2 L250,285.12"/>
<path d="M251,259.2 L251,285.12"/>
<path d="M255,259.2 L255,285.12"/>
<path d="M261,259.2 L261,285.12"/>
<path d="M282,259.2 L282,285.12"/>
<path d="M289,259.2 L289,285.12"/>
<path d="M300,259.2 L300,285.12"/>
<path d="M308,259.2 L308,285.12"/>
<path d="M326,259.2 L326,285.12"/>
<path d="M331,259.2 L331,285.12"/>
<path d="M348,259.2 L348,285.12"/>
<path d="M357,259.2 L357,285.12"/>
<path d="M368,259.2 L368,285.12"/>
<path d="M381,259.2 L381,285.12"/>
<path d="M26,288 L26,313.92"/>
<path d="M32,288 L32,313.92"/>
<path d="M34,288 L34,313.92"/>
<path d="M35,288 L35,313.92"/>
<path d="M39,288 L39,313.92"/>
<path d="M50,288 L50,313.92"/>
<path d="M51,288 L51,313.92"/>
<path d="M61,288 L61,313.92"/>
<path d="M74,288 L74,313.92"/>
<path d="M75,288 L75,313.92"/>
<path d="M78,288 L78,313.92"/>
<path d="M104,288 L104,313.92"/>
<path d="M107,288 L107,313.92"/>
<path d="M114,288 L114,313.92"/>
<path d="M116,288 L116,313.92"/>
<path d="M118,288 L118,313.92"/>
<path d="M119,288 L119,313.92"/>
<path d="M124,288 L124,313.92"/>
<path d="M125,288 L125,313.92"/>
<path d="M130,288 L130,313.92"/>
<path d="M134,288 L134,313.92"/>
<path d="M136,288 L136,313.92"/>
<path d="M138,288 L138,313.92"/>
<path d="M144,288 L144,313.92"/>
<path d="M145,288 L145,313.92"/>
<path d="M147,288 L147,313.92"/>
<path d="M150,288 L150,313.92"/>
<path d="M152,288 L152,313.92"/>
<path d="M154,288 L154,313.92"/>
<path d="M157,288 L157,313.92"/>
<path d="M158,288 L158,313.92"/>
<path d="M159,288 L159,313.92"/>
<path d="M160,288 L160,313.92"/>
<path d="M161,288 L161,313.92"/>
<path d="M162,288 L162,313.92"/>
<path d="M163,288 L163,313.92"/>
<path d="M164,288 L164,313.92"/>
<path d="M165,288 L165,313.92"/>
<path d="M166,288 L166,313.92"/>
<path d="M167,288 L167,313.92"/>
<path d="M168,288 L168,313.92"/>
<path d="M169,288 L169,313.92"/>
<path d="M170,288 L170,313.92"/>
<path d="M171,288 L171,313.92"/>
<path d="M172,288 L172,313.92"/>
<path d="M173,288 L173,313.92"/>
<path d="M174,288 L174,313.92"/>
<path d="M175,288 L175,313.92"/>
<path d="M176,288 L176,313.92"/>
<path d="M177,288 L177,313.92"/>
<path d="M178,288 L178,313.92"/>
<path d="M179,288 L179,313.92"/>
<path d="M180,288 L180,313.92"/>
<path d="M181,288 L181,313.92"/>
<path d="M182,288 L182,313.92"/>
<path d="M183,288 L183,313.92"/>
<path d="M184,288 L184,313.92"/>
<path d="M185,288 L185,313.92"/>
<path d="M186,288 L186,313.92"/>
<path d="M187,288 L187,313.92"/>
<path d="M188,288 L188,313.92"/>
<path d="M189,288 L189,313.92"/>
<path d="M190,288 L190,313.92"/>
<path d="M191,288 L191,313.92"/>
<path d="M192,288 L192,313.92"/>
<path d="M193,288 L193,313.92"/>
<path d="M194,288 L194,313.92"/>
<path d="M195,288 L195,313.92"/>
<path d="M196,288 L196,313.92"/>
<path d="M197,288 L197,313.92"/>
<path d="M198,288 L198,313.92"/>
<path d="M199,288 L199,313.92"/>
<path d="M201,288 L201,313.92"/>
<path d="M202,288 L202,313.92"/>
<path d="M203,288 L203,313.92"/>
<path d="M204,288 L204,313.92"/>
<path d="M207,288 L207,313.92"/>
<path d="M208,288 L208,313.92"/>
<path d="M210,288 L210,313.92"/>
<path d="M211,288 L211,313.92"/>
<path d="M212,288 L212,313.92"/>
<path d="M217,288 L217,313.92"/>
<path d="M220,288 L220,313.92"/>
<path d="M222,288 L222,313.92"/>
<path d="M223,288 L223,313.92"/>
<path d="M229,288 L229,313.92"/>
<path d="M238,288 L238,313.92"/>
<path d="M239,288 L239,313.92"/>
<path d="M249,288 L249,313.92"/>
<path d="M257,288 L257,313.92"/>
<path d="M262,288 L262,313.92"/>
<path d="M266,288 L266,313.92"/>
<path d="M270,288 L270,313.92"/>
<path d="M272,288 L272,313.92"/>
<path d="M278,288 L278,313.92"/>
<path d="M287,288 L287,313.92"/>
<path d="M307,288 L307,313.92"/>
<path d="M312,288 L312,313.92"/>
<path d="M313,288 L313,313.92"/>
<path d="M332,288 L332,313.92"/>
<path d="M333,288 L333,313.92"/>
<path d="M351,288 L351,313.92"/>
<path d="M352,288 L352,313.92"/>
<path d="M355,288 L355,313.92"/>
<path d="M356,288 L356,313.92"/>
<path d="M363,288 L363,313.92"/>
<path d="M365,288 L365,313.92"/>
<path d="M17,316.8 L17,342.72"/>
<path d="M22,316.8 L22,342.72"/>
<path d="M27,316.8 L27,342.72"/>
<path d="M28,316.8 L28,342.72"/>
<path d="M31,316.8 L31,342.72"/>
<path d="M37,316.8 L37,342.72"/>
<path d="M43,316.8 L43,342.72"/>
<path d="M53,316.8 L53,342.72"/>
<path d="M57,316.8 L57,342.72"/>
<path d="M58,316.8 L58,342.72"/>
<path d="M67,316.8 L67,342.72"/>
<path d="M71,316.8 L71,342.72"/>
<path d="M79,316.8 L79,342.72"/>
<path d="M83,316.8 L83,342.72"/>
<path d="M93,316.8 L93,342.72"/>
<path d="M96,316.8 L96,342.72"/>
<path d="M102,316.8 L102,342.72"/>
<path d="M103,316.8 L103,342.72"/>
<path d="M105,316.8 L105,342.72"/>
<path d="M106,316.8 L106,342.72"/>
<path d="M107,316.8 L107,342.72"/>
<path d="M110,316.8 L110,342.72"/>
<path d="M111,316.8 L111,342.72"/>
<path d="M112,316.8 L112,342.72"/>
<path d="M120,316.8 L120,342.72"/>
<path d="M122,316.8 L122,342.72"/>
<path d="M137,316.8 L137,342.72"/>
<path d="M141,316.8 L141,342.72"/>
<path d="M142,316.8 L142,342.72"/>
<path d="M143,316.8 L143,342.72"/>
<path d="M145,316.8 L145,342.72"/>
<path d="M146,316.8 L146,342.72"/>
<path d="M147,316.8 L147,342.72"/>
<path d="M149,316.8 L149,342.72"/>
<path d="M156,316.8 L156,342.72"/>
<path d="M158,316.8 L158,342.72"/>
<path d="M160,316.8 L160,342.72"/>
<path d="M161,316.8 L161,342.72"/>
<path d="M163,316.8 L163,342.72"/>
<path d="M164,316.8 L164,342.72"/>
<path d="M166,316.8 L166,342.72"/>
<path d="M167,316.8 L167,342.72"/>
<path d="M168,316.8 L168,342.72"/>
<path d="M169,316.8 L169,342.72"/>
<path d="M170,316.8 L170,342.72"/>
<path d="M171,316.8 L171,342.72"/>
<path d="M172,316.8 L172,342.72"/>
<path d="M173,316.8 L173,342.72"/>
<path d="M174,316.8 L174,342.72"/>
<path d="M175,316.8 L175,342.72"/>
<path d="M176,316.8 L176,342.72"/>
<path d="M177,316.8 L177,342.72"/>
<path d="M178,316.8 L178,342.72"/>
<path d="M179,316.8 L179,342.72"/>
<path d="M180,316.8 L180,342.72"/>
<path d="M181,316.8 L181,342.72"/>
<path d="M182,316.8 L182,342.72"/>
<path d="M183,316.8 L183,342.72"/>
<path d="M184,316.8 L184,342.72"/>
<path d="M185,316.8 L185,342.72"/>
<path d="M186,316.8 L186,342.72"/>
<path d="M187,316.8 L187,342.72"/>
<path d="M188,316.8 L188,342.72"/>
<path d="M189,316.8 L189,342.72"/>
<path d="M190,316.8 L190,342.72"/>
<path d="M191,316.8 L191,342.72"/>
<path d="M192,316.8 L192,342.72"/>
<path d="M193,316.8 L193,342.72"/>
<path d="M194,316.8 L194,342.72"/>
<path d="M195,316.8 L195,342.72"/>
<path d="M196,316.8 L196,342.72"/>
<path d="M197,316.8 L197,342.72"/>
<path d="M198,316.8 L198,342.72"/>
<path d="M199,316.8 L199,342.72"/>
<path d="M200,316.8 L200,342.72"/>
<path d="M201,316.8 L201,342.72"/>
<path d="M202,316.8 L202,342.72"/>
<path d="M203,316.8 L203,342.72"/>
<path d="M204,316.8 L204,342.72"/>
<path d="M205,316.8 L205,342.72"/>
<path d="M206,316.8 L206,342.72"/>
<path d="M207,316.8 L207,342.72"/>
<path d="M208,316.8 L208,342.72"/>
<path d="M209,316.8 L209,342.72"/>
<path d="M210,316.8 L210,342.72"/>
<path d="M211,316.8 L211,342.72"/>
<path d="M212,316.8 L212,342.72"/>
<path d="M213,316.8 L213,342.72"/>
<path d="M214,316.8 L214,342.72"/>
<path d="M215,316.8 L215,342.72"/>
<path d="M217,316.8 L217,342.72"/>
<path d="M221,316.8 L221,342.72"/>
<path d="M222,316.8 L222,342.72"/>
<path d="M223,316.8 L223,342.72"/>
<path d="M228,316.8 L228,342.72"/>
<path d="M229,316.8 L229,342.72"/>
<path d="M231,316.8 L231,342.72"/>
<path d="M232,316.8 L232,342.72"/>
<path d="M233,316.8 L233,342.72"/>
<path d="M237,316.8 L237,342.72"/>
<path d="M238,316.8 L238,342.72"/>
<path d="M241,316.8 L241,342.72"/>
<path d="M242,316.8 L242,342.72"/>
<path d="M243,316.8 L243,342.72"/>
<path d="M245,316.8 L245,342.72"/>
<path d="M248,316.8 L248,342.72"/>
<path d="M249,316.8 L249,342.72"/>
<path d="M252,316.8 L252,342.72"/>
<path d="M254,316.8 L254,342.72"/>
<path d="M256,316.8 L256,342.72"/>
<path d="M257,316.8 L257,342.72"/>
<path d="M262,316.8 L262,342.72"/>
<path d="M267,316.8 L267,342.72"/>
<path d="M270,316.8 L270,342.72"/>
<path d="M288,316.8 L288,342.72"/>
<path d="M301,316.8 L301,342.72"/>
<path d="M308,316.8 L308,342.72"/>
<path d="M312,316.8 L312,342.72"/>
<path d="M315,316.8 L315,342.72"/>
<path d="M316,316.8 L316,342.72"/>
<path d="M324,316.8 L324,342.72"/>
<path d="M325,316.8 L325,342.72"/>
<path d="M328,316.8 L328,342.72"/>
<path d="M331,316.8 L331,342.72"/>
<path d="M334,316.8 L334,342.72"/>
<path d="M337,316.8 L337,342.72"/>
<path d="M348,316.8 L348,342.72"/>
<path d="M349,316.8 L349,342.72"/>
<path d="M350,316.8 L350,342.72"/>
<path d="M356,316.8 L356,342.72"/>
<path d="M377,316.8 L377,342.72"/>
<path d="M379,316.8 L379,342.72"/>
<path d="M8,345.6 L8,371.52"/>
<path d="M9,345.6 L9,371.52"/>
<path d="M29,345.6 L29,371.52"/>
<path d="M31,345.6 L31,371.52"/>
<path d="M45,345.6 L45,371.52"/>
<path d="M49,345.6 L49,371.52"/>
<path d="M61,345.6 L61,371.52"/>
<path d="M74,345.6 L74,371.52"/>
<path d="M83,345.6 L83,371.52"/>
<path d="M85,345.6 L85,371.52"/>
<path d="M89,345.6 L89,371.52"/>
<path d="M93,345.6 L93,371.52"/>
<path d="M107,345.6 L107,371.52"/>
<path d="M112,345.6 L112,371.52"/>
<path d="M113,345.6 L113,371.52"/>
<path d="M127,345.6 L127,371.52"/>
<path d="M128,345.6 L128,371.52"/>
<path d="M130,345.6 L130,371.52"/>
<path d="M133,345.6 L133,371.52"/>
<path d="M138,345.6 L138,371.52"/>
<path d="M140,345.6 L140,371.52"/>
<path d="M142,345.6 L142,371.52"/>
<path d="M144,345.6 L144,371.52"/>
<path d="M145,345.6 L145,371.52"/>
<path d="M147,345.6 L147,371.52"/>
<path d="M148,345.6 L148,371.52"/>
<path d="M152,345.6 L152,371.52"/>
<path d="M156,345.6 L156,371.52"/>
<path d="M158,345.6 L158,371.52"/>
<path d="M159,345.6 L159,371.52"/>
<path d="M160,345.6 L160,371.52"/>
<path d="M163,345.6 L163,371.52"/>
<path d="M165,345.6 L165,371.52"/>
<path d="M167,345.6 L167,371.52"/>
<path d="M168,345.6 L168,371.52"/>
<path d="M170,345.6 L170,371.52"/>
<path d="M172,345.6 L172,371.52"/>
<path d="M173,345.6 L173,371.52"/>
<path d="M176,345.6 L176,371.52"/>
<path d="M177,345.6 L177,371.52"/>
<path d="M179,345.6 L179,371.52"/>
<path d="M180,345.6 L180,371.52"/>
<path d="M181,345.6 L181,371.52"/>
<path d="M182,345.6 L182,371.52"/>
<path d="M183,345.6 L183,371.52"/>
<path d="M184,345.6 L184,371.52"/>
<path d="M185,345.6 L185,371.52"/>
<path d="M186,345.6 L186,371.52"/>
<path d="M187,345.6 L187,371.52"/>
<path d="M188,345.6 L188,371.52"/>
<path d="M189,345.6 L189,371.52"/>
<path d="M190,345.6 L190,371.52"/>
<path d="M191,345.6 L191,371.52"/>
<path d="M192,345.6 L192,371.52"/>
<path d="M193,345.6 L193,371.52"/>
<path d="M194,345.6 L194,371.52"/>
<path d="M195,345.6 L195,371.52"/>
<path d="M196,345.6 L196,371.52"/>
<path d="M197,345.6 L197,371.52"/>
<path d="M198,345.6 L198,371.52"/>
<path d="M199,345.6 L199,371.52"/>
<path d="M200,345.6 L200,371.52"/>
<path d="M201,345.6 L201,371.52"/>
<path d="M202,345.6 L202,371.52"/>
<path d="M203,345.6 L203,371.52"/>
<path d="M204,345.6 L204,371.52"/>
<path d="M205,345.6 L205,371.52"/>
<path d="M206,345.6 L206,371.52"/>
<path d="M207,345.6 L207,371.52"/>
<path d="M208,345.6 L208,371.52"/>
<path d="M209,345.6 L209,371.52"/>
<path d="M210,345.6 L210,371.52"/>
<path d="M211,345.6 L211,371.52"/>
<path d="M212,345.6 L212,371.52"/>
<path d="M213,345.6 L213,371.52"/>
<path d="M214,345.6 L214,371.52"/>
<path d="M215,345.6 L215,371.52"/>
<path d="M216,345.6 L216,371.52"/>
<path d="M217,345.6 L217,371.52"/>
<path d="M218,345.6 L218,371.52"/>
<path d="M219,345.6 L219,371.52"/>
<path d="M220,345.6 L220,371.52"/>
<path d="M221,345.6 L221,371.52"/>
<path d="M222,345.6 L222,371.52"/>
<path d="M223,345.6 L223,371.52"/>
<path d="M224,345.6 L224,371.52"/>
<path d="M225,345.6 L225,371.52"/>
<path d="M226,345.6 L226,371.52"/>
<path d="M227,345.6 L227,371.52"/>
<path d="M230,345.6 L230,371.52"/>
<path d="M231,345.6 L231,371.52"/>
<path d="M233,345.6 L233,371.52"/>
<path d="M239,345.6 L239,371.52"/>
<path d="M244,345.6 L244,371.52"/>
<path d="M246,345.6 L246,371.52"/>
<path d="M253,345.6 L253,371.52"/>
<path d="M254,345.6 L254,371.52"/>
<path d="M257,345.6 L257,371.52"/>
<path d="M260,345.6 L260,371.52"/>
<path d="M264,345.6 L264,371.52"/>
<path d="M267,345.6 L267,371.52"/>
<path d="M273,345.6 L273,371.52"/>
<path d="M274,345.6 L274,371.52"/>
<path d="M276,345.6 L276,371.52"/>
<path d="M291,345.6 L291,371.52"/>
<path d="M296,345.6 L296,371.52"/>
<path d="M302,345.6 L302,371.52"/>
<path d="M313,345.6 L313,371.52"/>
<path d="M320,345.6 L320,371.52"/>
<path d="M329,345.6 L329,371.52"/>
<path d="M330,345.6 L330,371.52"/>
<path d="M331,345.6 L331,371.52"/>
<path d="M332,345.6 L332,371.52"/>
<path d="M340,345.6 L340,371.52"/>
<path d="M348,345.6 L348,371.52"/>
<path d="M350,345.6 L350,371.52"/>
<path d="M353,345.6 L353,371.52"/>
<path d="M355,345.6 L355,371.52"/>
<path d="M360,345.6 L360,371.52"/>
<path d="M363,345.6 L363,371.52"/>
<path d="M368,345.6 L368,371.52"/>
<path d="M376,345.6 L376,371.52"/>
<path d="M378,345.6 L378,371.52"/>
<path d="M0,374.4 L0,400.32"/>
<path d="M10,374.4 L10,400.32"/>
<path d="M19,374.4 L19,400.32"/>
<path d="M30,374.4 L30,400.32"/>
<path d="M31,374.4 L31,400.32"/>
<path d="M42,374.4 L42,400.32"/>
<path d="M49,374.4 L49,400.32"/>
<path d="M50,374.4 L50,400.32"/>
<path d="M58,374.4 L58,400.32"/>
<path d="M66,374.4 L66,400.32"/>
<path d="M69,374.4 L69,400.32"/>
<path d="M78,374.4 L78,400.32"/>
<path d="M87,374.4 L87,400.32"/>
<path d="M110,374.4 L110,400.32"/>
<path d="M114,374.4 L114,400.32"/>
<path d="M117,374.4 L117,400.32"/>
<path d="M126,374.4 L126,400.32"/>
<path d="M140,374.4 L140,400.32"/>
<path d="M144,374.4 L144,400.32"/>
<path d="M146,374.4 L146,400.32"/>
<path d="M152,374.4 L152,400.32"/>
<path d="M153,374.4 L153,400.32"/>
<path d="M157,374.4 L157,400.32"/>
<path d="M158,374.4 L158,400.32"/>
<path d="M159,374.4 L159,400.32"/>
<path d="M160,374.4 L160,400.32"/>
<path d="M161,374.4 L161,400.32"/>
<path d="M164,374.4 L164,400.32"/>
<path d="M165,374.4 L165,400.32"/>
<path d="M166,374.4 L166,400.32"/>
<path d="M168,374.4 L168,400.32"/>
<path d="M169,374.4 L169,400.32"/>
<path d="M170,374.4 L170,400.32"/>
<path d="M172,374.4 L172,400.32"/>
<path d="M174,374.4 L174,400.32"/>
<path d="M175,374.4 L175,400.32"/>
<path d="M176,374.4 L176,400.32"/>
<path d="M178,374.4 L178,400.32"/>
<path d="M179,374.4 L179,400.32"/>
<path d="M180,374.4 L180,400.32"/>
<path d="M181,374.4 L181,400.32"/>
<path d="M182,374.4 L182,400.32"/>
<path d="M184,374.4 L184,400.32"/>
<path d="M185,374.4 L185,400.32"/>
<path d="M186,374.4 L186,400.32"/>
<path d="M187,374.4 L187,400.32"/>
<path d="M188,374.4 L188,400.32"/>
<path d="M189,374.4 L189,400.32"/>
<path d="M190,374.4 L190,400.32"/>
<path d="M191,374.4 L191,400.32"/>
<path d="M192,374.4 L192,400.32"/>
<path d="M193,374.4 L193,400.32"/>
<path d="M194,374.4 L194,400.32"/>
<path d="M195,374.4 L195,400.32"/>
<path d="M196,374.4 L196,400.32"/>
<path d="M197,374.4 L197,400.32"/>
<path d="M198,374.4 L198,400.32"/>
<path d="M199,374.4 L199,400.32"/>
<path d="M200,374.4 L200,400.32"/>
<path d="M201,374.4 L201,400.32"/>
<path d="M202,374.4 L202,400.32"/>
<path d="M203,374.4 L203,400.32"/>
<path d="M204,374.4 L204,400.32"/>
<path d="M205,374.4 L205,400.32"/>
<path d="M206,374.4 L206,400.32"/>
<path d="M207,374.4 L207,400.32"/>
<path d="M208,374.4 L208,400.32"/>
<path d="M209,374.4 L209,400.32"/>
<path d="M210,374.4 L210,400.32"/>
<path d="M211,374.4 L211,400.32"/>
<path d="M212,374.4 L212,400.32"/>
<path d="M213,374.4 L213,400.32"/>
<path d="M214,374.4 L214,400.32"/>
<path d="M215,374.4 L215,400.32"/>
<path d="M216,374.4 L216,400.32"/>
<path d="M217,374.4 L217,400.32"/>
<path d="M218,374.4 L218,400.32"/>
<path d="M219,374.4 L219,400.32"/>
<path d="M220,374.4 L220,400.32"/>
<path d="M221,374.4 L221,400.32"/>
<path d="M222,374.4 L222,400.32"/>
<path d="M223,374.4 L223,400.32"/>
<path d="M224,374.4 L224,400.32"/>
<path d="M225,374.4 L225,400.32"/>
<path d="M226,374.4 L226,400.32"/>
<path d="M227,374.4 L227,400.32"/>
<path d="M228,374.4 L228,400.32"/>
<path d="M229,374.4 L229,400.32"/>
<path d="M230,374.4 L230,400.32"/>
<path d="M231,374.4 L231,400.32"/>
<path d="M232,374.4 L232,400.32"/>
<path d="M234,374.4 L234,400.32"/>
<path d="M235,374.4 L235,400.32"/>
<path d="M236,374.4 L236,400.32"/>
<path d="M237,374.4 L237,400.32"/>
<path d="M238,374.4 L238,400.32"/>
<path d="M239,374.4 L239,400.32"/>
<path d="M240,374.4 L240,400.32"/>
<path d="M243,374.4 L243,400.32"/>
<path d="M244,374.4 L244,400.32"/>
<path d="M245,374.4 L245,400.32"/>
<path d="M246,374.4 L246,400.32"/>
<path d="M247,374.4 L247,400.32"/>
<path d="M249,374.4 L249,400.32"/>
<path d="M250,374.4 L250,400.32"/>
<path d="M254,374.4 L254,400.32"/>
<path d="M255,374.4 L255,400.32"/>
<path d="M259,374.4 L259,400.32"/>
<path d="M265,374.4 L265,400.32"/>
<path d="M268,374.4 L268,400.32"/>
<path d="M269,374.4 L269,400.32"/>
<path d="M273,374.4 L273,400.32"/>
<path d="M274,374.4 L274,400.32"/>
<path d="M276,374.4 L276,400.32"/>
<path d="M277,374.4 L277,400.32"/>
<path d="M280,374.4 L280,400.32"/>
<path d="M281,374.4 L281,400.32"/>
<path d="M282,374.4 L282,400.32"/>
<path d="M285,374.4 L285,400.32"/>
<path d="M289,374.4 L289,400.32"/>
<path d="M296,374.4 L296,400.32"/>
<path d="M300,374.4 L300,400.32"/>
<path d="M301,374.4 L301,400.32"/>
<path d="M303,374.4 L303,400.32"/>
<path d="M304,374.4 L304,400.32"/>
<path d="M305,374.4 L305,400.32"/>
<path d="M318,374.4 L318,400.32"/>
<path d="M324,374.4 L324,400.32"/>
<path d="M326,374.4 L326,400.32"/>
<path d="M333,374.4 L333,400.32"/>
<path d="M334,374.4 L334,400.32"/>
<path d="M337,374.4 L337,400.32"/>
<path d="M339,374.4 L339,400.32"/>
<path d="M341,374.4 L341,400.32"/>
<path d="M353,374.4 L353,400.32"/>
<path d="M354,374.4 L354,400.32"/>
<path d="M356,374.4 L356,400.32"/>
<path d="M359,374.4 L359,400.32"/>
<path d="M360,374.4 L360,400.32"/>
<path d="M378,374.4 L378,400.32"/>
<path d="M1,403.2 L1,429.12"/>
<path d="M6,403.2 L6,429.12"/>
<path d="M12,403.2 L12,429.12"/>
<path d="M16,403.2 L16,429.12"/>
<path d="M20,403.2 L20,429.12"/>
<path d="M26,403.2 L26,429.12"/>
<path d="M31,403.2 L31,429.12"/>
<path d="M46,403.2 L46,429.12"/>
<path d="M61,403.2 L61,429.12"/>
<path d="M64,403.2 L64,429.12"/>
<path d="M66,403.2 L66,429.12"/>
<path d="M74,403.2 L74,429.12"/>
<path d="M77,403.2 L77,429.12"/>
<path d="M78,403.2 L78,429.12"/>
<path d="M81,403.2 L81,429.12"/>
<path d="M101,403.2 L101,429.12"/>
<path d="M102,403.2 L102,429.12"/>
<path d="M116,403.2 L116,429.12"/>
<path d="M122,403.2 L122,429.12"/>
<path d="M124,403.2 L124,429.12"/>
<path d="M127,403.2 L127,429.12"/>
<path d="M130,403.2 L130,429.12"/>
<path d="M147,403.2 L147,429.12"/>
<path d="M148,403.2 L148,429.12"/>
<path d="M152,403.2 L152,429.12"/>
<path d="M154,403.2 L154,429.12"/>
<path d="M161,403.2 L161,429.12"/>
<path d="M162,403.2 L162,429.12"/>
<path d="M164,403.2 L164,429.12"/>
<path d="M165,403.2 L165,429.12"/>
<path d="M166,403.2 L166,429.12"/>
<path d="M167,403.2 L167,429.12"/>
<path d="M168,403.2 L168,429.12"/>
<path d="M169,403.2 L169,429.12"/>
<path d="M171,403.2 L171,429.12"/>
<path d="M174,403.2 L174,429.12"/>
<path d="M175,403.2 L175,429.12"/>
<path d="M176,403.2 L176,429.12"/>
<path d="M179,403.2 L179,429.12"/>
<path d="M180,403.2 L180,429.12"/>
<path d="M181,403.2 L181,429.12"/>
<path d="M182,403.2 L182,429.12"/>
<path d="M184,403.2 L184,429.12"/>
<path d="M185,403.2 L185,429.12"/>
<path d="M186,403.2 L186,429.12"/>
<path d="M187,403.2 L187,429.12"/>
<path d="M189,403.2 L189,429.12"/>
<path d="M190,403.2 L190,429.12"/>
<path d="M191,403.2 L191,429.12"/>
<path d="M192,403.2 L192,429.12"/>
<path d="M193,403.2 L193,429.12"/>
<path d="M194,403.2 L194,429.12"/>
<path d="M195,403.2 L195,429.12"/>
<path d="M196,403.2 L196,429.12"/>
<path d="M197,403.2 L197,429.12"/>
<path d="M198,403.2 L198,429.12"/>
<path d="M199,403.2 L199,429.12"/>
<path d="M200,403.2 L200,429.12"/>
<path d="M201,403.2 L201,429.12"/>
<path d="M202,403.2 L202,429.12"/>
<path d="M203,403.2 L203,429.12"/>
<path d="M204,403.2 L204,429.12"/>
<path d="M205,403.2 L205,429.12"/>
<path d="M206,403.2 L206,429.12"/>
<path d="M207,403.2 L207,429.12"/>
<path d="M208,403.2 L208,429.12"/>
<path d="M209,403.2 L209,429.12"/>
<path d="M210,403.2 L210,429.12"/>
<path d="M211,403.2 L211,429.12"/>
<path d="M212,403.2 L212,429.12"/>
<path d="M213,403.2 L213,429.12"/>
<path d="M214,403.2 L214,429.12"/>
<path d="M215,403.2 L215,429.12"/>
<path d="M216,403.2 L216,429.12"/>
<path d="M217,403.2 L217,429.12"/>
<path d="M218,403.2 L218,429.12"/>
<path d="M219,403.2 L219,429.12"/>
<path d="M220,403.2 L220,429.12"/>
<path d="M221,403.2 L221,429.12"/>
<path d="M222,403.2 L222,429.12"/>
<path d="M223,403.2 L223,429.12"/>
<path d="M224,403.2 L224,429.12"/>
<path d="M225,403.2 L225,429.12"/>
<path d="M226,403.2 L226,429.12"/>
<path d="M227,403.2 L227,429.12"/>
<path d="M228,403.2 L228,429.12"/>
<path d="M229,403.2 L229,429.12"/>
<path d="M230,403.2 L230,429.12"/>
<path d="M231,403.2 L231,429.12"/>
<path d="M232,403.2 L232,429.12"/>
<path d="M233,403.2 L233,429.12"/>
<path d="M234,403.2 L234,429.12"/>
<path d="M235,403.2 L235,429.12"/>
<path d="M236,403.2 L236,429.12"/>
<path d="M237,403.2 L237,429.12"/>
<path d="M238,403.2 L238,429.12"/>
<path d="M241,403.2 L241,429.12"/>
<path d="M244,403.2 L244,429.12"/>
<path d="M245,403.2 L245,429.12"/>
<path d="M247,403.2 L247,429.12"/>
<path d="M249,403.2 L249,429.12"/>
<path d="M251,403.2 L251,429.12"/>
<path d="M252,403.2 L252,429.12"/>
<path d="M254,403.2 L254,429.12"/>
<path d="M261,403.2 L261,429.12"/>
<path d="M263,403.2 L263,429.12"/>
<path d="M265,403.2 L265,429.12"/>
<path d="M277,403.2 L277,429.12"/>
<path d="M278,403.2 L278,429.12"/>
<path d="M279,403.2 L279,429.12"/>
<path d="M281,403.2 L281,429.12"/>
<path d="M284,403.2 L284,429.12"/>
<path d="M285,403.2 L285,429.12"/>
<path d="M288,403.2 L288,429.12"/>
<path d="M293,403.2 L293,429.12"/>
<path d="M298,403.2 L298,429.12"/>
<path d="M299,403.2 L299,429.12"/>
<path d="M305,403.2 L305,429.12"/>
<path d="M309,403.2 L309,429.12"/>
<path d="M310,403.2 L310,429.12"/>
<path d="M319,403.2 L319,429.12"/>
<path d="M327,403.2 L327,429.12"/>
<path d="M340,403.2 L340,429.12"/>
<path d="M341,403.2 L341,429.12"/>
<path d="M345,403.2 L345,429.12"/>
<path d="M352,403.2 L352,429.12"/>
<path d="M359,403.2 L359,429.12"/>
<path d="M365,403.2 L365,429.12"/>
<path d="M371,403.2 L371,429.12"/>
<path d="M377,403.2 L377,429.12"/>
<path d="M3,432 L3,457.92"/>
<path d="M6,432 L6,457.92"/>
<path d="M12,432 L12,457.92"/>
<path d="M27,432 L27,457.92"/>
<path d="M48,432 L48,457.92"/>
<path d="M59,432 L59,457.92"/>
<path d="M60,432 L60,457.92"/>
<path d="M69,432 L69,457.92"/>
<path d="M73,432 L73,457.92"/>
<path d="M74,432 L74,457.92"/>
<path d="M76,432 L76,457.92"/>
<path d="M82,432 L82,457.92"/>
<path d="M84,432 L84,457.92"/>
<path d="M87,432 L87,457.92"/>
<path d="M88,432 L88,457.92"/>
<path d="M89,432 L89,457.92"/>
<path d="M90,432 L90,457.92"/>
<path d="M91,432 L91,457.92"/>
<path d="M92,432 L92,457.92"/>
<path d="M93,432 L93,457.92"/>
<path d="M94,432 L94,457.92"/>
<path d="M95,432 L95,457.92"/>
<path d="M97,432 L97,457.92"/>
<path d="M105,432 L105,457.92"/>
<path d="M108,432 L108,457.92"/>
<path d="M112,432 L112,457.92"/>
<path d="M113,432 L113,457.92"/>
<path d="M119,432 L119,457.92"/>
<path d="M123,432 L123,457.92"/>
<path d="M126,432 L126,457.92"/>
<path d="M131,432 L131,457.92"/>
<path d="M135,432 L135,457.92"/>
<path d="M136,432 L136,457.92"/>
<path d="M139,432 L139,457.92"/>
<path d="M141,432 L141,457.92"/>
<path d="M142,432 L142,457.92"/>
<path d="M144,432 L144,457.92"/>
<path d="M146,432 L146,457.92"/>
<path d="M147,432 L147,457.92"/>
<path d="M154,432 L154,457.92"/>
<path d="M158,432 L158,457.92"/>
<path d="M160,432 L160,457.92"/>
<path d="M165,432 L165,457.92"/>
<path d="M167,432 L167,457.92"/>
<path d="M169,432 L169,457.92"/>
<path d="M173,432 L173,457.92"/>
<path d="M174,432 L174,457.92"/>
<path d="M177,432 L177,457.92"/>
<path d="M178,432 L178,457.92"/>
<path d="M179,432 L179,457.92"/>
<path d="M180,432 L180,457.92"/>
<path d="M182,432 L182,457.92"/>
<path d="M183,432 L183,457.92"/>
<path d="M185,432 L185,457.92"/>
<path d="M186,432 L186,457.92"/>
<path d="M188,432 L188,457.92"/>
<path d="M189,432 L189,457.92"/>
<path d="M190,432 L190,457.92"/>
<path d="M192,432 L192,457.92"/>
<path d="M193,432 L193,457.92"/>
<path d="M194,432 L194,457.92"/>
<path d="M195,432 L195,457.92"/>
<path d="M196,432 L196,457.92"/>
<path d="M197,432 L197,457.92"/>
<path d="M198,432 L198,457.92"/>
<path d="M199,432 L199,457.92"/>
<path d="M200,432 L200,457.92"/>
<path d="M201,432 L201,457.92"/>
<path d="M202,432 L202,457.92"/>
<path d="M203,432 L203,457.92"/>
<path d="M204,432 L204,457.92"/>
<path d="M205,432 L205,457.92"/>
<path d="M206,432 L206,457.92"/>
<path d="M207,432 L207,457.92"/>
<path d="M208,432 L208,457.92"/>
<path d="M209,432 L209,457.92"/>
<path d="M210,432 L210,457.92"/>
<path d="M211,432 L211,457.92"/>
<path d="M212,432 L212,457.92"/>
<path d="M213,432 L213,457.92"/>
<path d="M214,432 L214,457.92"/>
<path d="M215,432 L215,457.92"/>
<path d="M216,432 L216,457.92"/>
<path d="M217,432 L217,457.92"/>
<path d="M218,432 L218,457.92"/>
<path d="M219,432 L219,457.92"/>
<path d="M220,432 L220,457.92"/>
<path d="M221,432 L221,457.92"/>
<path d="M222,432 L222,457.92"/>
<path d="M223,432 L223,457.92"/>
<path d="M224,432 L224,457.92"/>
<path d="M225,432 L225,457.92"/>
<path d="M226,432 L226,457.92"/>
<path d="M227,432 L227,457.92"/>
<path d="M228,432 L228,457.92"/>
<path d="M229,432 L229,457.92"/>
<path d="M230,432 L230,457.92"/>
<path d="M231,432 L231,457.92"/>
<path d="M232,432 L232,457.92"/>
<path d="M233,432 L233,457.92"/>
<path d="M234,432 L234,457.92"/>
<path d="M235,432 L235,457.92"/>
<path d="M236,432 L236,457.92"/>
<path d="M237,432 L237,457.92"/>
<path d="M238,432 L238,457.92"/>
<path d="M239,432 L239,457.92"/>
<path d="M240,432 L240,457.92"/>
<path d="M241,432 L241,457.92"/>
<path d="M242,432 L242,457.92"/>
<path d="M243,432 L243,457.92"/>
<path d="M247,432 L247,457.92"/>
<path d="M249,432 L249,457.92"/>
<path d="M250,432 L250,457.92"/>
<path d="M253,432 L253,457.92"/>
<path d="M264,432 L264,457.92"/>
<path d="M268,432 L268,457.92"/>
<path d="M269,432 L269,457.92"/>
<path d="M277,432 L277,457.92"/>
<path d="M280,432 L280,457.92"/>
<path d="M286,432 L286,457.92"/>
<path d="M293,432 L293,457.92"/>
<path d="M295,432 L295,457.92"/>
<path d="M297,432 L297,457.92"/>
<path d="M301,432 L301,457.92"/>
<path d="M306,432 L306,457.92"/>
<path d="M311,432 L311,457.92"/>
<path d="M317,432 L317,457.92"/>
<path d="M319,432 L319,457.92"/>
<path d="M322,432 L322,457.92"/>
<path d="M323,432 L323,457.92"/>
<path d="M325,432 L325,457.92"/>
<path d="M326,432 L326,457.92"/>
<path d="M330,432 L330,457.92"/>
<path d="M337,432 L337,457.92"/>
<path d="M351,432 L351,457.92"/>
<path d="M359,432 L359,457.92"/>
<path d="M362,432 L362,457.92"/>
<path d="M365,432 L365,457.92"/>
<path d="M4,460.8 L4,486.72"/>
<path d="M14,460.8 L14,486.72"/>
<path d="M20,460.8 L20,486.72"/>
<path d="M32,460.8 L32,486.72"/>
<path d="M36,460.8 L36,486.72"/>
<path d="M51,460.8 L51,486.72"/>
<path d="M65,460.8 L65,486.72"/>
<path d="M68,460.8 L68,486.72"/>
<path d="M71,460.8 L71,486.72"/>
<path d="M74,460.8 L74,486.72"/>
<path d="M78,460.8 L78,486.72"/>
<path d="M81,460.8 L81,486.72"/>
<path d="M82,460.8 L82,486.72"/>
<path d="M83,460.8 L83,486.72"/>
<path d="M85,460.8 L85,486.72"/>
<path d="M87,460.8 L87,486.72"/>
<path d="M94,460.8 L94,486.72"/>
<path d="M95,460.8 L95,486.72"/>
<path d="M102,460.8 L102,486.72"/>
<path d="M103,460.8 L103,486.72"/>
<path d="M106,460.8 L106,486.72"/>
<path d="M112,460.8 L112,486.72"/>
<path d="M117,460.8 L117,486.72"/>
<path d="M126,460.8 L126,486.72"/>
<path d="M130,460.8 L130,486.72"/>
<path d="M131,460.8 L131,486.72"/>
<path d="M135,460.8 L135,486.72"/>
<path d="M136,460.8 L136,486.72"/>
<path d="M142,460.8 L142,486.72"/>
<path d="M144,460.8 L144,486.72"/>
<path d="M148,460.8 L148,486.72"/>
<path d="M150,460.8 L150,486.72"/>
<path d="M154,460.8 L154,486.72"/>
<path d="M156,460.8 L156,486.72"/>
<path d="M157,460.8 L157,486.72"/>
<path d="M160,460.8 L160,486.72"/>
<path d="M162,460.8 L162,486.72"/>
<path d="M163,460.8 L163,486.72"/>
<path d="M164,460.8 L164,486.72"/>
<path d="M165,460.8 L165,486.72"/>
<path d="M166,460.8 L166,486.72"/>
<path d="M167,460.8 L167,486.72"/>
<path d="M169,460.8 L169,486.72"/>
<path d="M173,460.8 L173,486.72"/>
<path d="M174,460.8 L174,486.72"/>
<path d="M178,460.8 L178,486.72"/>
<path d="M182,460.8 L182,486.72"/>
<path d="M183,460.8 L183,486.72"/>
<path d="M184,460.8 L184,486.72"/>
<path d="M185,460.8 L185,486.72"/>
<path d="M186,460.8 L186,486.72"/>
<path d="M187,460.8 L187,486.72"/>
<path d="M188,460.8 L188,486.72"/>
<path d="M189,460.8 L189,486.72"/>
<path d="M190,460.8 L190,486.72"/>
<path d="M191,460.8 L191,486.72"/>
<path d="M192,460.8 L192,486.72"/>
<path d="M193,460.8 L193,486.72"/>
<path d="M194,460.8 L194,486.72"/>
<path d="M195,460.8 L195,486.72"/>
<path d="M196,460.8 L196,486.72"/>
<path d="M197,460.8 L197,486.72"/>
<path d="M198,460.8 L198,486.72"/>
<path d="M199,460.8 L199,486.72"/>
<path d="M200,460.8 L200,486.72"/>
<path d="M201,460.8 L201,486.72"/>
<path d="M202,460.8 L202,486.72"/>
<path d="M203,460.8 L203,486.72"/>
<path d="M204,460.8 L204,486.72"/>
<path d="M205,460.8 L205,486.72"/>
<path d="M206,460.8 L206,486.72"/>
<path d="M207,460.8 L207,486.72"/>
<path d="M208,460.8 L208,486.72"/>
<path d="M209,460.8 L209,486.72"/>
<path d="M210,460.8 L210,486.72"/>
<path d="M211,460.8 L211,486.72"/>
<path d="M212,460.8 L212,486.72"/>
<path d="M213,460.8 L213,486.72"/>
<path d="M214,460.8 L214,486.72"/>
<path d="M215,460.8 L215,486.72"/>
<path d="M216,460.8 L216,486.72"/>
<path d="M217,460.8 L217,486.72"/>
<path d="M218,460.8 L218,486.72"/>
<path d="M219,460.8 L219,486.72"/>
<path d="M220,460.8 L220,486.72"/>
<path d="M221,460.8 L221,486.72"/>
<path d="M222,460.8 L222,486.72"/>
<path d="M223,460.8 L223,486.72"/>
<path d="M224,460.8 L224,486.72"/>
<path d="M225,460.8 L225,486.72"/>
<path d="M226,460.8 L226,486.72"/>
<path d="M227,460.8 L227,486.72"/>
<path d="M228,460.8 L228,486.72"/>
<path d="M229,460.8 L229,486.72"/>
<path d="M230,460.8 L230,486.72"/>
<path d="M231,460.8 L231,486.72"/>
<path d="M232,460.8 L232,486.72"/>
<path d="M233,460.8 L233,486.72"/>
<path d="M234,460.8 L234,486.72"/>
<path d="M235,460.8 L235,486.72"/>
<path d="M236,460.8 L236,486.72"/>
<path d="M237,460.8 L237,486.72"/>
<path d="M238,460.8 L238,486.72"/>
<path d="M240,460.8 L240,486.72"/>
<path d="M241,460.8 L241,486.72"/>
<path d="M242,460.8 L242,486.72"/>
<path d="M245,460.8 L245,486.72"/>
<path d="M247,460.8 L247,486.72"/>
<path d="M249,460.8 L249,486.72"/>
<path d="M251,460.8 L251,486.72"/>
<path d="M253,460.8 L253,486.72"/>
<path d="M254,460.8 L254,486.72"/>
<path d="M256,460.8 L256,486.72"/>
<path d="M259,460.8 L259,486.72"/>
<path d="M261,460.8 L261,486.72"/>
<path d="M265,460.8 L265,486.72"/>
<path d="M266,460.8 L266,486.72"/>
<path d="M268,460.8 L268,486.72"/>
<path d="M273,460.8 L273,486.72"/>
<path d="M279,460.8 L279,486.72"/>
<path d="M290,460.8 L290,486.72"/>
<path d="M295,460.8 L295,486.72"/>
<path d="M296,460.8 L296,486.72"/>
<path d="M297,460.8 L297,486.72"/>
<path d="M298,460.8 L298,486.72"/>
<path d="M299,460.8 L299,486.72"/>
<path d="M301,460.8 L301,486.72"/>
<path d="M307,460.8 L307,486.72"/>
<path d="M322,460.8 L322,486.72"/>
<path d="M337,460.8 L337,486.72"/>
<path d="M351,460.8 L351,486.72"/>
<path d="M352,460.8 L352,486.72"/>
<path d="M353,460.8 L353,486.72"/>
<path d="M355,460.8 L355,486.72"/>
<path d="M363,460.8 L363,486.72"/>
<path d="M378,460.8 L378,486.72"/>
<path d="M18,489.6 L18,515.52"/>
<path d="M19,489.6 L19,515.52"/>
<path d="M29,489.6 L29,515.52"/>
<path d="M36,489.6 L36,515.52"/>
<path d="M42,489.6 L42,515.52"/>
<path d="M43,489.6 L43,515.52"/>
<path d="M47,489.6 L47,515.52"/>
<path d="M52,489.6 L52,515.52"/>
<path d="M64,489.6 L64,515.52"/>
<path d="M66,489.6 L66,515.52"/>
<path d="M67,489.6 L67,515.52"/>
<path d="M77,489.6 L77,515.52"/>
<path d="M78,489.6 L78,515.52"/>
<path d="M82,489.6 L82,515.52"/>
<path d="M88,489.6 L88,515.52"/>
<path d="M97,489.6 L97,515.52"/>
<path d="M98,489.6 L98,515.52"/>
<path d="M107,489.6 L107,515.52"/>
<path d="M108,489.6 L108,515.52"/>
<path d="M112,489.6 L112,515.52"/>
<path d="M116,489.6 L116,515.52"/>
<path d="M117,489.6 L117,515.52"/>
<path d="M119,489.6 L119,515.52"/>
<path d="M124,489.6 L124,515.52"/>
<path d="M132,489.6 L132,515.52"/>
<path d="M133,489.6 L133,515.52"/>
<path d="M134,489.6 L134,515.52"/>
<path d="M141,489.6 L141,515.52"/>
<path d="M142,489.6 L142,515.52"/>
<path d="M145,489.6 L145,515.52"/>
<path d="M146,489.6 L146,515.52"/>
<path d="M150,489.6 L150,515.52"/>
<path d="M151,489.6 L151,515.52"/>
<path d="M156,489.6 L156,515.52"/>
<path d="M159,489.6 L159,515.52"/>
<path d="M161,489.6 L161,515.52"/>
<path d="M165,489.6 L165,515.52"/>
<path d="M168,489.6 L168,515.52"/>
<path d="M170,489.6 L170,515.52"/>
<path d="M171,489.6 L171,515.52"/>
<path d="M172,489.6 L172,515.52"/>
<path d="M177,489.6 L177,515.52"/>
<path d="M178,489.6 L178,515.52"/>
<path d="M179,489.6 L179,515.52"/>
<path d="M180,489.6 L180,515.52"/>
<path d="M181,489.6 L181,515.52"/>
<path d="M182,489.6 L182,515.52"/>
<path d="M183,489.6 L183,515.52"/>
<path d="M184,489.6 L184,515.52"/>
<path d="M185,489.6 L185,515.52"/>
<path d="M186,489.6 L186,515.52"/>
<path d="M187,489.6 L187,515.52"/>
<path d="M188,489.6 L188,515.52"/>
<path d="M189,489.6 L189,515.52"/>
<path d="M190,489.6 L190,515.52"/>
<path d="M191,489.6 L191,515.52"/>
<path d="M192,489.6 L192,515.52"/>
<path d="M193,489.6 L193,515.52"/>
<path d="M194,489.6 L194,515.52"/>
<path d="M195,489.6 L195,515.52"/>
<path d="M196,489.6 L196,515.52"/>
<path d="M197,489.6 L197,515.52"/>
<path d="M198,489.6 L198,515.52"/>
<path d="M199,489.6 L199,515.52"/>
<path d="M200,489.6 L200,515.52"/>
<path d="M201,489.6 L201,515.52"/>
<path d="M202,489.6 L202,515.52"/>
<path d="M203,489.6 L203,515.52"/>
<path d="M204,489.6 L204,515.52"/>
<path d="M205,489.6 L205,515.52"/>
<path d="M206,489.6 L206,515.52"/>
<path d="M207,489.6 L207,515.52"/>
<path d="M208,489.6 L208,515.52"/>
<path d="M209,489.6 L209,515.52"/>
<path d="M210,489.6 L210,515.52"/>
<path d="M211,489.6 L211,515.52"/>
<path d="M212,489.6 L212,515.52"/>
<path d="M213,489.6 L213,515.52"/>
<path d="M214,489.6 L214,515.52"/>
<path d="M215,489.6 L215,515.52"/>
<path d="M216,489.6 L216,515.52"/>
<path d="M217,489.6 L217,515.52"/>
<path d="M218,489.6 L218,515.52"/>
<path d="M219,489.6 L219,515.52"/>
<path d="M220,489.6 L220,515.52"/>
<path d="M221,489.6 L221,515.52"/>
<path d="M222,489.6 L222,515.52"/>
<path d="M223,489.6 L223,515.52"/>
<path d="M224,489.6 L224,515.52"/>
<path d="M225,489.6 L225,515.52"/>
<path d="M226,489.6 L226,515.52"/>
<path d="M227,489.6 L227,515.52"/>
<path d="M228,489.6 L228,515.52"/>
<path d="M229,489.6 L229,515.52"/>
<path d="M230,489.6 L230,515.52"/>
<path d="M231,489.6 L231,515.52"/>
<path d="M232,489.6 L232,515.52"/>
<path d="M234,489.6 L234,515.52"/>
<path d="M235,489.6 L235,515.52"/>
<path d="M237,489.6 L237,515.52"/>
<path d="M239,489.6 L239,515.52"/>
<path d="M241,489.6 L241,515.52"/>
<path d="M242,489.6 L242,515.52"/>
<path d="M243,489.6 L243,515.52"/>
<path d="M244,489.6 L244,515.52"/>
<path d="M246,489.6 L246,515.52"/>
<path d="M249,489.6 L249,515.52"/>
<path d="M253,489.6 L253,515.52"/>
<path d="M258,489.6 L258,515.52"/>
<path d="M261,489.6 L261,515.52"/>
<path d="M263,489.6 L263,515.52"/>
<path d="M264,489.6 L264,515.52"/>
<path d="M266,489.6 L266,515.52"/>
<path d="M271,489.6 L271,515.52"/>
<path d="M272,489.6 L272,515.52"/>
<path d="M277,489.6 L277,515.52"/>
<path d="M278,489.6 L278,515.52"/>
<path d="M280,489.6 L280,515.52"/>
<path d="M281,489.6 L281,515.52"/>
<path d="M282,489.6 L282,515.52"/>
<path d="M283,489.6 L283,515.52"/>
<path d="M285,489.6 L285,515.52"/>
<path d="M290,489.6 L290,515.52"/>
<path d="M296,489.6 L296,515.52"/>
<path d="M297,489.6 L297,515.52"/>
<path d="M301,489.6 L301,515.52"/>
<path d="M304,489.6 L304,515.52"/>
<path d="M318,489.6 L318,515.52"/>
<path d="M319,489.6 L319,515.52"/>
<path d="M325,489.6 L325,515.52"/>
<path d="M334,489.6 L334,515.52"/>
<path d="M338,489.6 L338,515.52"/>
<path d="M343,489.6 L343,515.52"/>
<path d="M345,489.6 L345,515.52"/>
<path d="M363,489.6 L363,515.52"/>
<path d="M364,489.6 L364,515.52"/>
<path d="M377,489.6 L377,515.52"/>
<path d="M0,518.4 L0,544.32"/>
<path d="M6,518.4 L6,544.32"/>
<path d="M8,518.4 L8,544.32"/>
<path d="M71,518.4 L71,544.32"/>
<path d="M73,518.4 L73,544.32"/>
<path d="M76,518.4 L76,544.32"/>
<path d="M83,518.4 L83,544.32"/>
<path d="M87,518.4 L87,544.32"/>
<path d="M97,518.4 L97,544.32"/>
<path d="M109,518.4 L109,544.32"/>
<path d="M111,518.4 L111,544.32"/>
<path d="M113,518.4 L113,544.32"/>
<path d="M114,518.4 L114,544.32"/>
<path d="M120,518.4 L120,544.32"/>
<path d="M124,518.4 L124,544.32"/>
<path d="M131,518.4 L131,544.32"/>
<path d="M134,518.4 L134,544.32"/>
<path d="M139,518.4 L139,544.32"/>
<path d="M141,518.4 L141,544.32"/>
<path d="M143,518.4 L143,544.32"/>
<path d="M144,518.4 L144,544.32"/>
<path d="M150,518.4 L150,544.32"/>
<path d="M152,518.4 L152,544.32"/>
<path d="M156,518.4 L156,544.32"/>
<path d="M159,518.4 L159,544.32"/>
<path d="M160,518.4 L160,544.32"/>
<path d="M161,518.4 L161,544.32"/>
<path d="M162,518.4 L162,544.32"/>
<path d="M163,518.4 L163,544.32"/>
<path d="M165,518.4 L165,544.32"/>
<path d="M166,518.4 L166,544.32"/>
<path d="M167,518.4 L167,544.32"/>
<path d="M168,518.4 L168,544.32"/>
<path d="M169,518.4 L169,544.32"/>
<path d="M171,518.4 L171,544.32"/>
<path d="M172,518.4 L172,544.32"/>
<path d="M173,518.4 L173,544.32"/>
<path d="M174,518.4 L174,544.32"/>
<path d="M175,518.4 L175,544.32"/>
<path d="M176,518.4 L176,544.32"/>
<path d="M177,518.4 L177,544.32"/>
<path d="M178,518.4 L178,544.32"/>
<path d="M179,518.4 L179,544.32"/>
<path d="M180,518.4 L180,544.32"/>
<path d="M181,518.4 L181,544.32"/>
<path d="M182,518.4 L182,544.32"/>
<path d="M183,518.4 L183,544.32"/>
<path d="M184,518.4 L184,544.32"/>
<path d="M185,518.4 L185,544.32"/>
<path d="M186,518.4 L186,544.32"/>
<path d="M187,518.4 L187,544.32"/>
<path d="M188,518.4 L188,544.32"/>
<path d="M189,518.4 L189,544.32"/>
<path d="M190,518.4 L190,544.32"/>
<path d="M191,518.4 L191,544.32"/>
<path d="M192,518.4 L192,544.32"/>
<path d="M193,518.4 L193,544.32"/>
<path d="M194,518.4 L194,544.32"/>
<path d="M195,518.4 L195,544.32"/>
<path d="M196,518.4 L196,544.32"/>
<path d="M197,518.4 L197,544.32"/>
<path d="M198,518.4 L198,544.32"/>
<path d="M199,518.4 L199,544.32"/>
<path d="M200,518.4 L200,544.32"/>
<path d="M201,518.4 L201,544.32"/>
<path d="M202,518.4 L202,544.32"/>
<path d="M203,518.4 L203,544.32"/>
<path d="M204,518.4 L204,544.32"/>
<path d="M205,518.4 L205,544.32"/>
<path d="M206,518.4 L206,544.32"/>
<path d="M207,518.4 L207,544.32"/>
<path d="M208,518.4 L208,544.32"/>
<path d="M209,518.4 L209,544.32"/>
<path d="M210,518.4 L210,544.32"/>
<path d="M211,518.4 L211,544.32"/>
<path d="M212,518.4 L212,544.32"/>
<path d="M213,518.4 L213,544.32"/>
<path d="M214,518.4 L214,544.32"/>
<path d="M215,518.4 L215,544.32"/>
<path d="M216,518.4 L216,544.32"/>
<path d="M217,518.4 L217,544.32"/>
<path d="M220,518.4 L220,544.32"/>
<path d="M221,518.4 L221,544.32"/>
<path d="M222,518.4 L222,544.32"/>
<path d="M223,518.4 L223,544.32"/>
<path d="M225,518.4 L225,544.32"/>
<path d="M227,518.4 L227,544.32"/>
<path d="M228,518.4 L228,544.32"/>
<path d="M231,518.4 L231,544.32"/>
<path d="M234,518.4 L234,544.32"/>
<path d="M235,518.4 L235,544.32"/>
<path d="M236,518.4 L236,544.32"/>
<path d="M238,518.4 L238,544.32"/>
<path d="M242,518.4 L242,544.32"/>
<path d="M243,518.4 L243,544.32"/>
<path d="M244,518.4 L244,544.32"/>
<path d="M245,518.4 L245,544.32"/>
<path d="M247,518.4 L247,544.32"/>
<path d="M248,518.4 L248,544.32"/>
<path d="M249,518.4 L249,544.32"/>
<path d="M250,518.4 L250,544.32"/>
<path d="M252,518.4 L252,544.32"/>
<path d="M254,518.4 L254,544.32"/>
<path d="M256,518.4 L256,544.32"/>
<path d="M259,518.4 L259,544.32"/>
<path d="M265,518.4 L265,544.32"/>
<path d="M266,518.4 L266,544.32"/>
<path d="M267,518.4 L267,544.32"/>
<path d="M268,518.4 L268,544.32"/>
<path d="M275,518.4 L275,544.32"/>
<path d="M276,518.4 L276,544.32"/>
<path d="M277,518.4 L277,544.32"/>
<path d="M279,518.4 L279,544.32"/>
<path d="M295,518.4 L295,544.32"/>
<path d="M321,518.4 L321,544.32"/>
<path d="M328,518.4 L328,544.32"/>
<path d="M329,518.4 L329,544.32"/>
<path d="M339,518.4 L339,544.32"/>
<path d="M349,518.4 L349,544.32"/>
<path d="M358,518.4 L358,544.32"/>
<path d="M367,518.4 L367,544.32"/>
<path d="M374,518.4 L374,544.32"/>
<path d="M1,547.2 L1,573.12"/>
<path d="M16,547.2 L16,573.12"/>
<path d="M24,547.2 L24,573.12"/>
<path d="M29,547.2 L29,573.12"/>
<path d="M32,547.2 L32,573.12"/>
<path d="M39,547.2 L39,573.12"/>
<path d="M50,547.2 L50,573.12"/>
<path d="M68,547.2 L68,573.12"/>
<path d="M74,547.2 L74,573.12"/>
<path d="M80,547.2 L80,573.12"/>
<path d="M87,547.2 L87,573.12"/>
<path d="M90,547.2 L90,573.12"/>
<path d="M92,547.2 L92,573.12"/>
<path d="M94,547.2 L94,573.12"/>
<path d="M100,547.2 L100,573.12"/>
<path d="M104,547.2 L104,573.12"/>
<path d="M105,547.2 L105,573.12"/>
<path d="M123,547.2 L123,573.12"/>
<path d="M124,547.2 L124,573.12"/>
<path d="M125,547.2 L125,573.12"/>
<path d="M126,547.2 L126,573.12"/>
<path d="M128,547.2 L128,573.12"/>
<path d="M130,547.2 L130,573.12"/>
<path d="M132,547.2 L132,573.12"/>
<path d="M135,547.2 L135,573.12"/>
<path d="M138,547.2 L138,573.12"/>
<path d="M141,547.2 L141,573.12"/>
<path d="M145,547.2 L145,573.12"/>
<path d="M148,547.2 L148,573.12"/>
<path d="M149,547.2 L149,573.12"/>
<path d="M150,547.2 L150,573.12"/>
<path d="M151,547.2 L151,573.12"/>
<path d="M152,547.2 L152,573.12"/>
<path d="M153,547.2 L153,573.12"/>
<path d="M154,547.2 L154,573.12"/>
<path d="M155,547.2 L155,573.12"/>
<path d="M156,547.2 L156,573.12"/>
<path d="M160,547.2 L160,573.12"/>
<path d="M161,547.2 L161,573.12"/>
<path d="M162,547.2 L162,573.12"/>
<path d="M163,547.2 L163,573.12"/>
<path d="M164,547.2 L164,573.12"/>
<path d="M165,547.2 L165,573.12"/>
<path d="M166,547.2 L166,573.12"/>
<path d="M167,547.2 L167,573.12"/>
<path d="M168,547.2 L168,573.12"/>
<path d="M169,547.2 L169,573.12"/>
<path d="M170,547.2 L170,573.12"/>
<path d="M171,547.2 L171,573.12"/>
<path d="M172,547.2 L172,573.12"/>
<path d="M173,547.2 L173,573.12"/>
<path d="M174,547.2 L174,573.12"/>
<path d="M175,547.2 L175,573.12"/>
<path d="M176,547.2 L176,573.12"/>
<path d="M177,547.2 L177,573.12"/>
<path d="M178,547.2 L178,573.12"/>
<path d="M179,547.2 L179,573.12"/>
<path d="M180,547.2 L180,573.12"/>
<path d="M181,547.2 L181,573.12"/>
<path d="M182,547.2 L182,573.12"/>
<path d="M183,547.2 L183,573.12"/>
<path d="M184,547.2 L184,573.12"/>
<path d="M185,547.2 L185,573.12"/>
<path d="M186,547.2 L186,573.12"/>
<path d="M187,547.2 L187,573.12"/>
<path d="M188,547.2 L188,573.12"/>
<path d="M189,547.2 L189,573.12"/>
<path d="M190,547.2 L190,573.12"/>
<path d="M191,547.2 L191,573.12"/>
<path d="M192,547.2 L192,573.12"/>
<path d="M193,547.2 L193,573.12"/>
<path d="M194,547.2 L194,573.12"/>
<path d="M195,547.2 L195,573.12"/>
<path d="M196,547.2 L196,573.12"/>
<path d="M197,547.2 L197,573.12"/>
<path d="M198,547.2 L198,573.12"/>
<path d="M199,547.2 L199,573.12"/>
<path d="M200,547.2 L200,573.12"/>
<path d="M201,547.2 L201,573.12"/>
<path d="M202,547.2 L202,573.12"/>
<path d="M203,547.2 L203,573.12"/>
<path d="M204,547.2 L204,573.12"/>
<path d="M205,547.2 L205,573.12"/>
<path d="M206,547.2 L206,573.12"/>
<path d="M207,547.2 L207,573.12"/>
<path d="M208,547.2 L208,573.12"/>
<path d="M210,547.2 L210,573.12"/>
<path d="M212,547.2 L212,573.12"/>
<path d="M213,547.2 L213,573.12"/>
<path d="M215,547.2 L215,573.12"/>
<path d="M217,547.2 L217,573.12"/>
<path d="M218,547.2 L218,573.12"/>
<path d="M220,547.2 L220,573.12"/>
<path d="M222,547.2 L222,573.12"/>
<path d="M224,547.2 L224,573.12"/>
<path d="M228,547.2 L228,573.12"/>
<path d="M233,547.2 L233,573.12"/>
<path d="M237,547.2 L237,573.12"/>
<path d="M238,547.2 L238,573.12"/>
<path d="M240,547.2 L240,573.12"/>
<path d="M243,547.2 L243,573.12"/>
<path d="M251,547.2 L251,573.12"/>
<path d="M264,547.2 L264,573.12"/>
<path d="M268,547.2 L268,573.12"/>
<path d="M282,547.2 L282,573.12"/>
<path d="M284,547.2 L284,573.12"/>
<path d="M298,547.2 L298,573.12"/>
<path d="M300,547.2 L300,573.12"/>
<path d="M301,547.2 L301,573.12"/>
<path d="M308,547.2 L308,573.12"/>
<path d="M312,547.2 L312,573.12"/>
<path d="M313,547.2 L313,573.12"/>
<path d="M316,547.2 L316,573.12"/>
<path d="M317,547.2 L317,573.12"/>
<path d="M318,547.2 L318,573.12"/>
<path d="M320,547.2 L320,573.12"/>
<path d="M322,547.2 L322,573.12"/>
<path d="M349,547.2 L349,573.12"/>
<path d="M366,547.2 L366,573.12"/>
<path d="M371,547.2 L371,573.12"/>
<path d="M374,547.2 L374,573.12"/>
<path d="M381,547.2 L381,573.12"/>
<path d="M382,547.2 L382,573.12"/>
</g>
</svg>