<svg height="576px" viewBox="0 0 384 576" width="384px" xmlns="http://www.w3.org/2000/svg" xmlns:inkscape="http://www.inkscape.org/namespaces/inkscape">
<g fill="none" id="1" stroke="black" stroke-width="1.5px">
<path d="M14,0 L14,13.68"/>
<path d="M22,0 L22,13.68"/>
<path d="M24,0 L24,13.68"/>
<path d="M28,0 L28,13.68"/>
<path d="M36,0 L36,13.68"/>
<path d="M60,0 L60,13.68"/>
<path d="M66,0 L66,13.68"/>
<path d="M68,0 L68,13.68"/>
<path d="M74,0 L74,13.68"/>
<path d="M86,0 L86,13.68"/>
<path d="M88,0 L88,13.68"/>
<path d="M98,0 L98,13.68"/>
<path d="M118,0 L118,13.68"/>
<path d="M122,0 L122,13.68"/>
<path d="M124,0 L124,13.68"/>
<path d="M138,0 L138,13.68"/>
<path d="M140,0 L140,13.68"/>
<path d="M144,0 L144,13.68"/>
<path d="M148,0 L148,13.68"/>
<path d="M152,0 L152,13.68"/>
<path d="M154,0 L154,13.68"/>
<path d="M162,0 L162,13.68"/>
<path d="M164,0 L164,13.68"/>
<path d="M166,0 L166,13.68"/>
<path d="M168,0 L168,13.68"/>
<path d="M172,0 L172,13.68"/>
<path d="M174,0 L174,13.68"/>
<path d="M176,0 L176,13.68"/>
<path d="M178,0 L178,13.68"/>
<path d="M180,0 L180,13.68"/>
<path d="M182,0 L182,13.68"/>
<path d="M184,0 L184,13.68"/>
<path d="M186,0 L186,13.68"/>
<path d="M188,0 L188,13.68"/>
<path d="M190,0 L190,13.68"/>
<path d="M192,0 L192,13.68"/>
<path d="M194,0 L194,13.68"/>
<path d="M196,0 L196,13.68"/>
<path d="M198,0 L198,13.68"/>
<path d="M200,0 L200,13.68"/>
<path d="M202,0 L202,13.68"/>
<path d="M204,0 L204,13.68"/>
<path d="M206,0 L206,13.68"/>
<path d="M208,0 L208,13.68"/>
<path d="M210,0 L210,13.68"/>
<path d="M212,0 L212,13.68"/>
<path d="M214,0 L214,13.68"/>
<path d="M218,0 L218,13.68"/>
<path d="M220,0 L220,13.68"/>
<path d="M224,0 L224,13.68"/>
<path d="M226,0 L226,13.68"/>
<path d="M228,0 L228,13.68"/>
<path d="M236,0 L236,13.68"/>
<path d="M238,0 L238,13.68"/>
<path d="M240,0 L240,13.68"/>
<path d="M242,0 L242,13.68"/>
<path d="M254,0 L254,13.68"/>
<path d="M262,0 L262,13.68"/>
<path d="M268,0 L268,13.68"/>
<path d="M270,0 L270,13.68"/>
<path d="M276,0 L276,13.68"/>
<path d="M278,0 L278,13.68"/>
<path d="M302,0 L302,13.68"/>
<path d="M304,0 L304,13.68"/>
<path d="M314,0 L314,13.68"/>
<path d="M336,0 L336,13.68"/>
<path d="M6,14.4 L6,28.08"/>
<path d="M18,14.4 L18,28.08"/>
<path d="M22,14.4 L22,28.08"/>
<path d="M26,14.4 L26,28.08"/>
<path d="M40,14.4 L40,28.08"/>
<path d="M62,14.4 L62,28.08"/>
<path d="M68,14.4 L68,28.08"/>
<path d="M80,14.4 L80,28.08"/>
<path d="M94,14.4 L94,28.08"/>
<path d="M96,14.4 L96,28.08"/>
<path d="M112,14.4 L112,28.08"/>
<path d="M114,14.4 L114,28.08"/>
<path d="M126,14.4 L126,28.08"/>
<path d="M136,14.4 L136,28.08"/>
<path d="M142,14.4 L142,28.08"/>
<path d="M148,14.4 L148,28.08"/>
<path d="M154,14.4 L154,28.08"/>
<path d="M156,14.4 L156,28.08"/>
<path d="M160,14.4 L160,28.08"/>
<path d="M162,14.4 L162,28.08"/>
<path d="M164,14.4 L164,28.08"/>
<path d="M166,14.4 L166,28.08"/>
<path d="M170,14.4 L170,28.08"/>
<path d="M172,14.4 L172,28.08"/>
<path d="M174,14.4 L174,28.08"/>
<path d="M176,14.4 L176,28.08"/>
<path d="M178,14.4 L178,28.08"/>
<path d="M180,14.4 L180,28.08"/>
<path d="M182,14.4 L182,28.08"/>
<path d="M184,14.4 L184,28.08"/>
<path d="M186,14.4 L186,28.08"/>
<path d="M188,14.4 L188,28.08"/>
<path d="M190,14.4 L190,28.08"/>
<path d="M192,14.4 L192,28.08"/>
<path d="M194,14.4 L194,28.08"/>
<path d="M196,14.4 L196,28.08"/>
<path d="M198,14.4 L198,28.08"/>
<path d="M200,14.4 L200,28.08"/>
<path d="M202,14.4 L202,28.08"/>
<path d="M204,14.4 L204,28.08"/>
<path d="M206,14.4 L206,28.08"/>
<path d="M208,14.4 L208,28.08"/>
<path d="M210,14.4 L210,28.08"/>
<path d="M212,14.4 L212,28.08"/>
<path d="M214,14.4 L214,28.08"/>
<path d="M216,14.4 L216,28.08"/>
<path d="M218,14.4 L218,28.08"/>
<path d="M220,14.4 L220,28.08"/>
<path d="M222,14.4 L222,28.08"/>
<path d="M224,14.4 L224,28.08"/>
<path d="M228,14.4 L228,28.08"/>
<path d="M234,14.4 L234,28.08"/>
<path d="M236,14.4 L236,28.08"/>
<path d="M242,14.4 L242,28.08"/>
<path d="M248,14.4 L248,28.08"/>
<path d="M254,14.4 L254,28.08"/>
<path d="M258,14.4 L258,28.08"/>
<path d="M260,14.4 L260,28.08"/>
<path d="M262,14.4 L262,28.08"/>
<path d="M268,14.4 L268,28.08"/>
<path d="M270,14.4 L270,28.08"/>
<path d="M284,14.4 L284,28.08"/>
<path d="M288,14.4 L288,28.08"/>
<path d="M296,14.4 L296,28.08"/>
<path d="M308,14.4 L308,28.08"/>
<path d="M312,14.4 L312,28.08"/>
<path d="M348,14.4 L348,28.08"/>
<path d="M350,14.4 L350,28.08"/>
<path d="M368,14.4 L368,28.08"/>
<path d="M6,28.8 L6,42.48"/>
<path d="M8,28.8 L8,42.48"/>
<path d="M14,28.8 L14,42.48"/>
<path d="M24,28.8 L24,42.48"/>
<path d="M42,28.8 L42,42.48"/>
<path d="M54,28.8 L54,42.48"/>
<path d="M58,28.8 L58,42.48"/>
<path d="M116,28.8 L116,42.48"/>
<path d="M140,28.8 L140,42.48"/>
<path d="M144,28.8 L144,42.48"/>
<path d="M156,28.8 L156,42.48"/>
<path d="M160,28.8 L160,42.48"/>
<path d="M162,28.8 L162,42.48"/>
<path d="M164,28.8 L164,42.48"/>
<path d="M166,28.8 L166,42.48"/>
<path d="M170,28.8 L170,42.48"/>
<path d="M172,28.8 L172,42.48"/>
<path d="M174,28.8 L174,42.48"/>
<path d="M176,28.8 L176,42.48"/>
<path d="M178,28.8 L178,42.48"/>
<path d="M180,28.8 L180,42.48"/>
<path d="M182,28.8 L182,42.48"/>
<path d="M184,28.8 L184,42.48"/>
<path d="M186,28.8 L186,42.48"/>
<path d="M188,28.8 L188,42.48"/>
<path d="M190,28.8 L190,42.48"/>
<path d="M192,28.8 L192,42.48"/>
<path d="M194,28.8 L194,42.48"/>
<path d="M196,28.8 L196,42.48"/>
<path d="M198,28.8 L198,42.48"/>
<path d="M200,28.8 L200,42.48"/>
<path d="M202,28.8 L202,42.48"/>
<path d="M204,28.8 L204,42.48"/>
<path d="M206,28.8 L206,42.48"/>
<path d="M208,28.8 L208,42.48"/>
<path d="M210,28.8 L210,42.48"/>
<path d="M212,28.8 L212,42.48"/>
<path d="M214,28.8 L214,42.48"/>
<path d="M216,28.8 L216,42.48"/>
<path d="M218,28.8 L218,42.48"/>
<path d="M220,28.8 L220,42.48"/>
<path d="M224,28.8 L224,42.48"/>
<path d="M226,28.8 L226,42.48"/>
<path d="M230,28.8 L230,42.48"/>
<path d="M232,28.8 L232,42.48"/>
<path d="M236,28.8 L236,42.48"/>
<path d="M238,28.8 L238,42.48"/>
<path d="M240,28.8 L240,42.48"/>
<path d="M244,28.8 L244,42.48"/>
<path d="M246,28.8 L246,42.48"/>
<path d="M250,28.8 L250,42.48"/>
<path d="M256,28.8 L256,42.48"/>
<path d="M284,28.8 L284,42.48"/>
<path d="M288,28.8 L288,42.48"/>
<path d="M308,28.8 L308,42.48"/>
<path d="M366,28.8 L366,42.48"/>
<path d="M32,43.2 L32,56.88"/>
<path d="M46,43.2 L46,56.88"/>
<path d="M62,43.2 L62,56.88"/>
<path d="M74,43.2 L74,56.88"/>
<path d="M98,43.2 L98,56.88"/>
<path d="M104,43.2 L104,56.88"/>
<path d="M108,43.2 L108,56.88"/>
<path d="M116,43.2 L116,56.88"/>
<path d="M132,43.2 L132,56.88"/>
<path d="M140,43.2 L140,56.88"/>
<path d="M142,43.2 L142,56.88"/>
<path d="M148,43.2 L148,56.88"/>
<path d="M152,43.2 L152,56.88"/>
<path d="M158,43.2 L158,56.88"/>
<path d="M166,43.2 L166,56.88"/>
<path d="M168,43.2 L168,56.88"/>
<path d="M172,43.2 L172,56.88"/>
<path d="M174,43.2 L174,56.88"/>
<path d="M176,43.2 L176,56.88"/>
<path d="M178,43.2 L178,56.88"/>
<path d="M182,43.2 L182,56.88"/>
<path d="M184,43.2 L184,56.88"/>
<path d="M186,43.2 L186,56.88"/>
<path d="M188,43.2 L188,56.88"/>
<path d="M190,43.2 L190,56.88"/>
<path d="M192,43.2 L192,56.88"/>
<path d="M194,43.2 L194,56.88"/>
<path d="M196,43.2 L196,56.88"/>
<path d="M198,43.2 L198,56.88"/>
<path d="M200,43.2 L200,56.88"/>
<path d="M202,43.2 L202,56.88"/>
<path d="M204,43.2 L204,56.88"/>
<path d="M206,43.2 L206,56.88"/>
<path d="M208,43.2 L208,56.88"/>
<path d="M210,43.2 L210,56.88"/>
<path d="M212,43.2 L212,56.88"/>
<path d="M214,43.2 L214,56.88"/>
<path d="M216,43.2 L216,56.88"/>
<path d="M218,43.2 L218,56.88"/>
<path d="M220,43.2 L220,56.88"/>
<path d="M222,43.2 L222,56.88"/>
<path d="M224,43.2 L224,56.88"/>
<path d="M226,43.2 L226,56.88"/>
<path d="M228,43.2 L228,56.88"/>
<path d="M230,43.2 L230,56.88"/>
<path d="M232,43.2 L232,56.88"/>
<path d="M234,43.2 L234,56.88"/>
<path d="M236,43.2 L236,56.88"/>
<path d="M238,43.2 L238,56.88"/>
<path d="M240,43.2 L240,56.88"/>
<path d="M242,43.2 L242,56.88"/>
<path d="M246,43.2 L246,56.88"/>
<path d="M256,43.2 L256,56.88"/>
<path d="M258,43.2 L258,56.88"/>
<path d="M266,43.2 L266,56.88"/>
<path d="M270,43.2 L270,56.88"/>
<path d="M272,43.2 L272,56.88"/>
<path d="M278,43.2 L278,56.88"/>
<path d="M282,43.2 L282,56.88"/>
<path d="M296,43.2 L296,56.88"/>
<path d="M300,43.2 L300,56.88"/>
<path d="M314,43.2 L314,56.88"/>
<path d="M322,43.2 L322,56.88"/>
<path d="M352,43.2 L352,56.88"/>
<path d="M358,43.2 L358,56.88"/>
<path d="M20,57.6 L20,71.28"/>
<path d="M62,57.6 L62,71.28"/>
<path d="M64,57.6 L64,71.28"/>
<path d="M76,57.6 L76,71.28"/>
<path d="M84,57.6 L84,71.28"/>
<path d="M98,57.6 L98,71.28"/>
<path d="M110,57.6 L110,71.28"/>
<path d="M122,57.6 L122,71.28"/>
<path d="M146,57.6 L146,71.28"/>
<path d="M150,57.6 L150,71.28"/>
<path d="M158,57.6 L158,71.28"/>
<path d="M162,57.6 L162,71.28"/>
<path d="M166,57.6 L166,71.28"/>
<path d="M176,57.6 L176,71.28"/>
<path d="M178,57.6 L178,71.28"/>
<path d="M184,57.6 L184,71.28"/>
<path d="M186,57.6 L186,71.28"/>
<path d="M188,57.6 L188,71.28"/>
<path d="M192,57.6 L192,71.28"/>
<path d="M194,57.6 L194,71.28"/>
<path d="M196,57.6 L196,71.28"/>
<path d="M198,57.6 L198,71.28"/>
<path d="M200,57.6 L200,71.28"/>
<path d="M202,57.6 L202,71.28"/>
<path d="M204,57.6 L204,71.28"/>
<path d="M206,57.6 L206,71.28"/>
<path d="M208,57.6 L208,71.28"/>
<path d="M210,57.6 L210,71.28"/>
<path d="M212,57.6 L212,71.28"/>
<path d="M214,57.6 L214,71.28"/>
<path d="M216,57.6 L216,71.28"/>
<path d="M218,57.6 L218,71.28"/>
<path d="M220,57.6 L220,71.28"/>
<path d="M222,57.6 L222,71.28"/>
<path d="M224,57.6 L224,71.28"/>
<path d="M226,57.6 L226,71.28"/>
<path d="M228,57.6 L228,71.28"/>
<path d="M230,57.6 L230,71.28"/>
<path d="M232,57.6 L232,71.28"/>
<path d="M234,57.6 L234,71.28"/>
<path d="M236,57.6 L236,71.28"/>
<path d="M238,57.6 L238,71.28"/>
<path d="M240,57.6 L240,71.28"/>
<path d="M242,57.6 L242,71.28"/>
<path d="M244,57.6 L244,71.28"/>
<path d="M246,57.6 L246,71.28"/>
<path d="M248,57.6 L248,71.28"/>
<path d="M250,57.6 L250,71.28"/>
<path d="M252,57.6 L252,71.28"/>
<path d="M254,57.6 L254,71.28"/>
<path d="M256,57.6 L256,71.28"/>
<path d="M258,57.6 L258,71.28"/>
<path d="M260,57.6 L260,71.28"/>
<path d="M268,57.6 L268,71.28"/>
<path d="M278,57.6 L278,71.28"/>
<path d="M280,57.6 L280,71.28"/>
<path d="M298,57.6 L298,71.28"/>
<path d="M310,57.6 L310,71.28"/>
<path d="M312,57.6 L312,71.28"/>
<path d="M322,57.6 L322,71.28"/>
<path d="M324,57.6 L324,71.28"/>
<path d="M350,57.6 L350,71.28"/>
<path d="M382,57.6 L382,71.28"/>
<path d="M46,72 L46,85.68"/>
<path d="M74,72 L74,85.68"/>
<path d="M86,72 L86,85.68"/>
<path d="M88,72 L88,85.68"/>
<path d="M92,72 L92,85.68"/>
<path d="M102,72 L102,85.68"/>
<path d="M104,72 L104,85.68"/>
<path d="M132,72 L132,85.68"/>
<path d="M144,72 L144,85.68"/>
<path d="M158,72 L158,85.68"/>
<path d="M162,72 L162,85.68"/>
<path d="M168,72 L168,85.68"/>
<path d="M176,72 L176,85.68"/>
<path d="M178,72 L178,85.68"/>
<path d="M182,72 L182,85.68"/>
<path d="M196,72 L196,85.68"/>
<path d="M198,72 L198,85.68"/>
<path d="M200,72 L200,85.68"/>
<path d="M202,72 L202,85.68"/>
<path d="M208,72 L208,85.68"/>
<path d="M212,72 L212,85.68"/>
<path d="M214,72 L214,85.68"/>
<path d="M216,72 L216,85.68"/>
<path d="M218,72 L218,85.68"/>
<path d="M220,72 L220,85.68"/>
<path d="M222,72 L222,85.68"/>
<path d="M224,72 L224,85.68"/>
<path d="M226,72 L226,85.68"/>
<path d="M228,72 L228,85.68"/>
<path d="M230,72 L230,85.68"/>
<path d="M232,72 L232,85.68"/>
<path d="M234,72 L234,85.68"/>
<path d="M236,72 L236,85.68"/>
<path d="M238,72 L238,85.68"/>
<path d="M240,72 L240,85.68"/>
<path d="M242,72 L242,85.68"/>
<path d="M244,72 L244,85.68"/>
<path d="M246,72 L246,85.68"/>
<path d="M248,72 L248,85.68"/>
<path d="M250,72 L250,85.68"/>
<path d="M252,72 L252,85.68"/>
<path d="M254,72 L254,85.68"/>
<path d="M256,72 L256,85.68"/>
<path d="M258,72 L258,85.68"/>
<path d="M260,72 L260,85.68"/>
<path d="M262,72 L262,85.68"/>
<path d="M266,72 L266,85.68"/>
<path d="M270,72 L270,85.68"/>
<path d="M272,72 L272,85.68"/>
<path d="M276,72 L276,85.68"/>
<path d="M278,72 L278,85.68"/>
<path d="M284,72 L284,85.68"/>
<path d="M286,72 L286,85.68"/>
<path d="M290,72 L290,85.68"/>
<path d="M296,72 L296,85.68"/>
<path d="M304,72 L304,85.68"/>
<path d="M308,72 L308,85.68"/>
<path d="M324,72 L324,85.68"/>
<path d="M334,72 L334,85.68"/>
<path d="M342,72 L342,85.68"/>
<path d="M354,72 L354,85.68"/>
<path d="M374,72 L374,85.68"/>
<path d="M376,72 L376,85.68"/>
<path d="M382,72 L382,85.68"/>
<path d="M20,86.4 L20,100.08"/>
<path d="M50,86.4 L50,100.08"/>
<path d="M66,86.4 L66,100.08"/>
<path d="M92,86.4 L92,100.08"/>
<path d="M98,86.4 L98,100.08"/>
<path d="M108,86.4 L108,100.08"/>
<path d="M130,86.4 L130,100.08"/>
<path d="M134,86.4 L134,100.08"/>
<path d="M138,86.4 L138,100.08"/>
<path d="M140,86.4 L140,100.08"/>
<path d="M148,86.4 L148,100.08"/>
<path d="M150,86.4 L150,100.08"/>
<path d="M156,86.4 L156,100.08"/>
<path d="M158,86.4 L158,100.08"/>
<path d="M166,86.4 L166,100.08"/>
<path d="M172,86.4 L172,100.08"/>
<path d="M190,86.4 L190,100.08"/>
<path d="M206,86.4 L206,100.08"/>
<path d="M210,86.4 L210,100.08"/>
<path d="M212,86.4 L212,100.08"/>
<path d="M216,86.4 L216,100.08"/>
<path d="M220,86.4 L220,100.08"/>
<path d="M222,86.4 L222,100.08"/>
<path d="M226,86.4 L226,100.08"/>
<path d="M228,86.4 L228,100.08"/>
<path d="M230,86.4 L230,100.08"/>
<path d="M232,86.4 L232,100.08"/>
<path d="M234,86.4 L234,100.08"/>
<path d="M236,86.4 L236,100.08"/>
<path d="M238,86.4 L238,100.08"/>
<path d="M240,86.4 L240,100.08"/>
<path d="M242,86.4 L242,100.08"/>
<path d="M244,86.4 L244,100.08"/>
<path d="M246,86.4 L246,100.08"/>
<path d="M248,86.4 L248,100.08"/>
<path d="M250,86.4 L250,100.08"/>
<path d="M252,86.4 L252,100.08"/>
<path d="M254,86.4 L254,100.08"/>
<path d="M256,86.4 L256,100.08"/>
<path d="M258,86.4 L258,100.08"/>
<path d="M260,86.4 L260,100.08"/>
<path d="M262,86.4 L262,100.08"/>
<path d="M264,86.4 L264,100.08"/>
<path d="M266,86.4 L266,100.08"/>
<path d="M268,86.4 L268,100.08"/>
<path d="M270,86.4 L270,100.08"/>
<path d="M272,86.4 L272,100.08"/>
<path d="M274,86.4 L274,100.08"/>
<path d="M276,86.4 L276,100.08"/>
<path d="M278,86.4 L278,100.08"/>
<path d="M280,86.4 L280,100.08"/>
<path d="M282,86.4 L282,100.08"/>
<path d="M284,86.4 L284,100.08"/>
<path d="M286,86.4 L286,100.08"/>
<path d="M288,86.4 L288,100.08"/>
<path d="M292,86.4 L292,100.08"/>
<path d="M294,86.4 L294,100.08"/>
<path d="M306,86.4 L306,100.08"/>
<path d="M308,86.4 L308,100.08"/>
<path d="M310,86.4 L310,100.08"/>
<path d="M314,86.4 L314,100.08"/>
<path d="M316,86.4 L316,100.08"/>
<path d="M324,86.4 L324,100.08"/>
<path d="M328,86.4 L328,100.08"/>
<path d="M330,86.4 L330,100.08"/>
<path d="M338,86.4 L338,100.08"/>
<path d="M342,86.4 L342,100.08"/>
<path d="M350,86.4 L350,100.08"/>
<path d="M354,86.4 L354,100.08"/>
<path d="M356,86.4 L356,100.08"/>
<path d="M366,86.4 L366,100.08"/>
<path d="M380,86.4 L380,100.08"/>
<path d="M6,100.8 L6,114.48"/>
<path d="M20,100.8 L20,114.48"/>
<path d="M34,100.8 L34,114.48"/>
<path d="M42,100.8 L42,114.48"/>
<path d="M46,100.8 L46,114.48"/>
<path d="M54,100.8 L54,114.48"/>
<path d="M76,100.8 L76,114.48"/>
<path d="M80,100.8 L80,114.48"/>
<path d="M90,100.8 L90,114.48"/>
<path d="M92,100.8 L92,114.48"/>
<path d="M106,100.8 L106,114.48"/>
<path d="M108,100.8 L108,114.48"/>
<path d="M122,100.8 L122,114.48"/>
<path d="M140,100.8 L140,114.48"/>
<path d="M142,100.8 L142,114.48"/>
<path d="M156,100.8 L156,114.48"/>
<path d="M160,100.8 L160,114.48"/>
<path d="M166,100.8 L166,114.48"/>
<path d="M168,100.8 L168,114.48"/>
<path d="M172,100.8 L172,114.48"/>
<path d="M174,100.8 L174,114.48"/>
<path d="M180,100.8 L180,114.48"/>
<path d="M184,100.8 L184,114.48"/>
<path d="M186,100.8 L186,114.48"/>
<path d="M204,100.8 L204,114.48"/>
<path d="M206,100.8 L206,114.48"/>
<path d="M210,100.8 L210,114.48"/>
<path d="M212,100.8 L212,114.48"/>
<path d="M214,100.8 L214,114.48"/>
<path d="M218,100.8 L218,114.48"/>
<path d="M220,100.8 L220,114.48"/>
<path d="M226,100.8 L226,114.48"/>
<path d="M228,100.8 L228,114.48"/>
<path d="M230,100.8 L230,114.48"/>
<path d="M232,100.8 L232,114.48"/>
<path d="M236,100.8 L236,114.48"/>
<path d="M238,100.8 L238,114.48"/>
<path d="M240,100.8 L240,114.48"/>
<path d="M242,100.8 L242,114.48"/>
<path d="M244,100.8 L244,114.48"/>
<path d="M246,100.8 L246,114.48"/>
<path d="M248,100.8 L248,114.48"/>
<path d="M250,100.8 L250,114.48"/>
<path d="M252,100.8 L252,114.48"/>
<path d="M254,100.8 L254,114.48"/>
<path d="M256,100.8 L256,114.48"/>
<path d="M258,100.8 L258,114.48"/>
<path d="M260,100.8 L260,114.48"/>
<path d="M262,100.8 L262,114.48"/>
<path d="M264,100.8 L264,114.48"/>
<path d="M266,100.8 L266,114.48"/>
<path d="M268,100.8 L268,114.48"/>
<path d="M270,100.8 L270,114.48"/>
<path d="M272,100.8 L272,114.48"/>
<path d="M274,100.8 L274,114.48"/>
<path d="M276,100.8 L276,114.48"/>
<path d="M278,100.8 L278,114.48"/>
<path d="M280,100.8 L280,114.48"/>
<path d="M282,100.8 L282,114.48"/>
<path d="M284,100.8 L284,114.48"/>
<path d="M286,100.8 L286,114.48"/>
<path d="M288,100.8 L288,114.48"/>
<path d="M290,100.8 L290,114.48"/>
<path d="M292,100.8 L292,114.48"/>
<path d="M294,100.8 L294,114.48"/>
<path d="M296,100.8 L296,114.48"/>
<path d="M298,100.8 L298,114.48"/>
<path d="M300,100.8 L300,114.48"/>
<path d="M304,100.8 L304,114.48"/>
<path d="M306,100.8 L306,114.48"/>
<path d="M310,100.8 L310,114.48"/>
<path d="M322,100.8 L322,114.48"/>
<path d="M324,100.8 L324,114.48"/>
<path d="M338,100.8 L338,114.48"/>
<path d="M342,100.8 L342,114.48"/>
<path d="M348,100.8 L348,114.48"/>
<path d="M358,100.8 L358,114.48"/>
<path d="M362,100.8 L362,114.48"/>
<path d="M370,100.8 L370,114.48"/>
<path d="M12,115.2 L12,128.88"/>
<path d="M18,115.2 L18,128.88"/>
<path d="M30,115.2 L30,128.88"/>
<path d="M34,115.2 L34,128.88"/>
<path d="M40,115.2 L40,128.88"/>
<path d="M80,115.2 L80,128.88"/>
<path d="M100,115.2 L100,128.88"/>
<path d="M104,115.2 L104,128.88"/>
<path d="M106,115.2 L106,128.88"/>
<path d="M114,115.2 L114,128.88"/>
<path d="M126,115.2 L126,128.88"/>
<path d="M128,115.2 L128,128.88"/>
<path d="M136,115.2 L136,128.88"/>
<path d="M146,115.2 L146,128.88"/>
<path d="M160,115.2 L160,128.88"/>
<path d="M166,115.2 L166,128.88"/>
<path d="M172,115.2 L172,128.88"/>
<path d="M196,115.2 L196,128.88"/>
<path d="M200,115.2 L200,128.88"/>
<path d="M202,115.2 L202,128.88"/>
<path d="M206,115.2 L206,128.88"/>
<path d="M208,115.2 L208,128.88"/>
<path d="M210,115.2 L210,128.88"/>
<path d="M212,115.2 L212,128.88"/>
<path d="M214,115.2 L214,128.88"/>
<path d="M218,115.2 L218,128.88"/>
<path d="M222,115.2 L222,128.88"/>
<path d="M224,115.2 L224,128.88"/>
<path d="M226,115.2 L226,128.88"/>
<path d="M228,115.2 L228,128.88"/>
<path d="M230,115.2 L230,128.88"/>
<path d="M232,115.2 L232,128.88"/>
<path d="M234,115.2 L234,128.88"/>
<path d="M236,115.2 L236,128.88"/>
<path d="M238,115.2 L238,128.88"/>
<path d="M240,115.2 L240,128.88"/>
<path d="M242,115.2 L242,128.88"/>
<path d="M244,115.2 L244,128.88"/>
<path d="M246,115.2 L246,128.88"/>
<path d="M248,115.2 L248,128.88"/>
<path d="M250,115.2 L250,128.88"/>
<path d="M252,115.2 L252,128.88"/>
<path d="M254,115.2 L254,128.88"/>
<path d="M256,115.2 L256,128.88"/>
<path d="M258,115.2 L258,128.88"/>
<path d="M260,115.2 L260,128.88"/>
<path d="M262,115.2 L262,128.88"/>
<path d="M264,115.2 L264,128.88"/>
<path d="M266,115.2 L266,128.88"/>
<path d="M268,115.2 L268,128.88"/>
<path d="M270,115.2 L270,128.88"/>
<path d="M272,115.2 L272,128.88"/>
<path d="M274,115.2 L274,128.88"/>
<path d="M276,115.2 L276,128.88"/>
<path d="M278,115.2 L278,128.88"/>
<path d="M280,115.2 L280,128.88"/>
<path d="M282,115.2 L282,128.88"/>
<path d="M284,115.2 L284,128.88"/>
<path d="M288,115.2 L288,128.88"/>
<path d="M290,115.2 L290,128.88"/>
<path d="M292,115.2 L292,128.88"/>
<path d="M298,115.2 L298,128.88"/>
<path d="M300,115.2 L300,128.88"/>
<path d="M302,115.2 L302,128.88"/>
<path d="M308,115.2 L308,128.88"/>
<path d="M310,115.2 L310,128.88"/>
<path d="M316,115.2 L316,128.88"/>
<path d="M318,115.2 L318,128.88"/>
<path d="M320,115.2 L320,128.88"/>
<path d="M326,115.2 L326,128.88"/>
<path d="M330,115.2 L330,128.88"/>
<path d="M332,115.2 L332,128.88"/>
<path d="M340,115.2 L340,128.88"/>
<path d="M348,115.2 L348,128.88"/>
<path d="M350,115.2 L350,128.88"/>
<path d="M358,115.2 L358,128.88"/>
<path d="M372,115.2 L372,128.88"/>
<path d="M374,115.2 L374,128.88"/>
<path d="M0,129.6 L0,143.28"/>
<path d="M10,129.6 L10,143.28"/>
<path d="M18,129.6 L18,143.28"/>
<path d="M24,129.6 L24,143.28"/>
<path d="M28,129.6 L28,143.28"/>
<path d="M36,129.6 L36,143.28"/>
<path d="M46,129.6 L46,143.28"/>
<path d="M52,129.6 L52,143.28"/>
<path d="M56,129.6 L56,143.28"/>
<path d="M76,129.6 L76,143.28"/>
<path d="M88,129.6 L88,143.28"/>
<path d="M98,129.6 L98,143.28"/>
<path d="M122,129.6 L122,143.28"/>
<path d="M128,129.6 L128,143.28"/>
<path d="M142,129.6 L142,143.28"/>
<path d="M146,129.6 L146,143.28"/>
<path d="M164,129.6 L164,143.28"/>
<path d="M172,129.6 L172,143.28"/>
<path d="M176,129.6 L176,143.28"/>
<path d="M178,129.6 L178,143.28"/>
<path d="M182,129.6 L182,143.28"/>
<path d="M188,129.6 L188,143.28"/>
<path d="M192,129.6 L192,143.28"/>
<path d="M194,129.6 L194,143.28"/>
<path d="M198,129.6 L198,143.28"/>
<path d="M200,129.6 L200,143.28"/>
<path d="M202,129.6 L202,143.28"/>
<path d="M206,129.6 L206,143.28"/>
<path d="M208,129.6 L208,143.28"/>
<path d="M210,129.6 L210,143.28"/>
<path d="M212,129.6 L212,143.28"/>
<path d="M214,129.6 L214,143.28"/>
<path d="M216,129.6 L216,143.28"/>
<path d="M218,129.6 L218,143.28"/>
<path d="M220,129.6 L220,143.28"/>
<path d="M222,129.6 L222,143.28"/>
<path d="M224,129.6 L224,143.28"/>
<path d="M226,129.6 L226,143.28"/>
<path d="M228,129.6 L228,143.28"/>
<path d="M230,129.6 L230,143.28"/>
<path d="M232,129.6 L232,143.28"/>
<path d="M234,129.6 L234,143.28"/>
<path d="M236,129.6 L236,143.28"/>
<path d="M238,129.6 L238,143.28"/>
<path d="M240,129.6 L240,143.28"/>
<path d="M242,129.6 L242,143.28"/>
<path d="M244,129.6 L244,143.28"/>
<path d="M246,129.6 L246,143.28"/>
<path d="M248,129.6 L248,143.28"/>
<path d="M250,129.6 L250,143.28"/>
<path d="M252,129.6 L252,143.28"/>
<path d="M254,129.6 L254,143.28"/>
<path d="M256,129.6 L256,143.28"/>
<path d="M258,129.6 L258,143.28"/>
<path d="M260,129.6 L260,143.28"/>
<path d="M262,129.6 L262,143.28"/>
<path d="M264,129.6 L264,143.28"/>
<path d="M266,129.6 L266,143.28"/>
<path d="M268,129.6 L268,143.28"/>
<path d="M274,129.6 L274,143.28"/>
<path d="M276,129.6 L276,143.28"/>
<path d="M284,129.6 L284,143.28"/>
<path d="M288,129.6 L288,143.28"/>
<path d="M290,129.6 L290,143.28"/>
<path d="M292,129.6 L292,143.28"/>
<path d="M294,129.6 L294,143.28"/>
<path d="M300,129.6 L300,143.28"/>
<path d="M302,129.6 L302,143.28"/>
<path d="M304,129.6 L304,143.28"/>
<path d="M316,129.6 L316,143.28"/>
<path d="M322,129.6 L322,143.28"/>
<path d="M326,129.6 L326,143.28"/>
<path d="M336,129.6 L336,143.28"/>
<path d="M344,129.6 L344,143.28"/>
<path d="M356,129.6 L356,143.28"/>
<path d="M366,129.6 L366,143.28"/>
<path d="M370,129.6 L370,143.28"/>
<path d="M372,129.6 L372,143.28"/>
<path d="M376,129.6 L376,143.28"/>
<path d="M12,144 L12,157.68"/>
<path d="M14,144 L14,157.68"/>
<path d="M18,144 L18,157.68"/>
<path d="M22,144 L22,157.68"/>
<path d="M36,144 L36,157.68"/>
<path d="M48,144 L48,157.68"/>
<path d="M56,144 L56,157.68"/>
<path d="M62,144 L62,157.68"/>
<path d="M68,144 L68,157.68"/>
<path d="M76,144 L76,157.68"/>
<path d="M102,144 L102,157.68"/>
<path d="M116,144 L116,157.68"/>
<path d="M120,144 L120,157.68"/>
<path d="M126,144 L126,157.68"/>
<path d="M130,144 L130,157.68"/>
<path d="M140,144 L140,157.68"/>
<path d="M142,144 L142,157.68"/>
<path d="M144,144 L144,157.68"/>
<path d="M146,144 L146,157.68"/>
<path d="M148,144 L148,157.68"/>
<path d="M150,144 L150,157.68"/>
<path d="M154,144 L154,157.68"/>
<path d="M156,144 L156,157.68"/>
<path d="M164,144 L164,157.68"/>
<path d="M166,144 L166,157.68"/>
<path d="M168,144 L168,157.68"/>
<path d="M170,144 L170,157.68"/>
<path d="M174,144 L174,157.68"/>
<path d="M176,144 L176,157.68"/>
<path d="M178,144 L178,157.68"/>
<path d="M180,144 L180,157.68"/>
<path d="M182,144 L182,157.68"/>
<path d="M184,144 L184,157.68"/>
<path d="M186,144 L186,157.68"/>
<path d="M190,144 L190,157.68"/>
<path d="M192,144 L192,157.68"/>
<path d="M194,144 L194,157.68"/>
<path d="M196,144 L196,157.68"/>
<path d="M198,144 L198,157.68"/>
<path d="M200,144 L200,157.68"/>
<path d="M202,144 L202,157.68"/>
<path d="M204,144 L204,157.68"/>
<path d="M206,144 L206,157.68"/>
<path d="M208,144 L208,157.68"/>
<path d="M210,144 L210,157.68"/>
<path d="M212,144 L212,157.68"/>
<path d="M214,144 L214,157.68"/>
<path d="M216,144 L216,157.68"/>
<path d="M218,144 L218,157.68"/>
<path d="M220,144 L220,157.68"/>
<path d="M222,144 L222,157.68"/>
<path d="M224,144 L224,157.68"/>
<path d="M226,144 L226,157.68"/>
<path d="M228,144 L228,157.68"/>
<path d="M230,144 L230,157.68"/>
<path d="M232,144 L232,157.68"/>
<path d="M234,144 L234,157.68"/>
<path d="M236,144 L236,157.68"/>
<path d="M238,144 L238,157.68"/>
<path d="M240,144 L240,157.68"/>
<path d="M242,144 L242,157.68"/>
<path d="M244,144 L244,157.68"/>
<path d="M248,144 L248,157.68"/>
<path d="M252,144 L252,157.68"/>
<path d="M254,144 L254,157.68"/>
<path d="M266,144 L266,157.68"/>
<path d="M280,144 L280,157.68"/>
<path d="M282,144 L282,157.68"/>
<path d="M292,144 L292,157.68"/>
<path d="M300,144 L300,157.68"/>
<path d="M302,144 L302,157.68"/>
<path d="M306,144 L306,157.68"/>
<path d="M310,144 L310,157.68"/>
<path d="M356,144 L356,157.68"/>
<path d="M380,144 L380,157.68"/>
<path d="M2,158.4 L2,172.08"/>
<path d="M80,158.4 L80,172.08"/>
<path d="M88,158.4 L88,172.08"/>
<path d="M90,158.4 L90,172.08"/>
<path d="M98,158.4 L98,172.08"/>
<path d="M128,158.4 L128,172.08"/>
<path d="M134,158.4 L134,172.08"/>
<path d="M138,158.4 L138,172.08"/>
<path d="M142,158.4 L142,172.08"/>
<path d="M144,158.4 L144,172.08"/>
<path d="M148,158.4 L148,172.08"/>
<path d="M162,158.4 L162,172.08"/>
<path d="M166,158.4 L166,172.08"/>
<path d="M168,158.4 L168,172.08"/>
<path d="M172,158.4 L172,172.08"/>
<path d="M174,158.4 L174,172.08"/>
<path d="M176,158.4 L176,172.08"/>
<path d="M178,158.4 L178,172.08"/>
<path d="M180,158.4 L180,172.08"/>
<path d="M182,158.4 L182,172.08"/>
<path d="M184,158.4 L184,172.08"/>
<path d="M186,158.4 L186,172.08"/>
<path d="M188,158.4 L188,172.08"/>
<path d="M190,158.4 L190,172.08"/>
<path d="M192,158.4 L192,172.08"/>
<path d="M194,158.4 L194,172.08"/>
<path d="M196,158.4 L196,172.08"/>
<path d="M198,158.4 L198,172.08"/>
<path d="M200,158.4 L200,172.08"/>
<path d="M202,158.4 L202,172.08"/>
<path d="M204,158.4 L204,172.08"/>
<path d="M206,158.4 L206,172.08"/>
<path d="M208,158.4 L208,172.08"/>
<path d="M210,158.4 L210,172.08"/>
<path d="M212,158.4 L212,172.08"/>
<path d="M214,158.4 L214,172.08"/>
<path d="M216,158.4 L216,172.08"/>
<path d="M218,158.4 L218,172.08"/>
<path d="M220,158.4 L220,172.08"/>
<path d="M222,158.4 L222,172.08"/>
<path d="M224,158.4 L224,172.08"/>
<path d="M226,158.4 L226,172.08"/>
<path d="M228,158.4 L228,172.08"/>
<path d="M232,158.4 L232,172.08"/>
<path d="M234,158.4 L234,172.08"/>
<path d="M236,158.4 L236,172.08"/>
<path d="M242,158.4 L242,172.08"/>
<path d="M244,158.4 L244,172.08"/>
<path d="M252,158.4 L252,172.08"/>
<path d="M260,158.4 L260,172.08"/>
<path d="M266,158.4 L266,172.08"/>
<path d="M282,158.4 L282,172.08"/>
<path d="M310,158.4 L310,172.08"/>
<path d="M330,158.4 L330,172.08"/>
<path d="M338,158.4 L338,172.08"/>
<path d="M360,158.4 L360,172.08"/>
<path d="M366,158.4 L366,172.08"/>
<path d="M10,172.8 L10,186.48"/>
<path d="M20,172.8 L20,186.48"/>
<path d="M36,172.8 L36,186.48"/>
<path d="M72,172.8 L72,186.48"/>
<path d="M78,172.8 L78,186.48"/>
<path d="M94,172.8 L94,186.48"/>
<path d="M98,172.8 L98,186.48"/>
<path d="M100,172.8 L100,186.48"/>
<path d="M102,172.8 L102,186.48"/>
<path d="M104,172.8 L104,186.48"/>
<path d="M120,172.8 L120,186.48"/>
<path d="M124,172.8 L124,186.48"/>
<path d="M126,172.8 L126,186.48"/>
<path d="M136,172.8 L136,186.48"/>
<path d="M146,172.8 L146,186.48"/>
<path d="M148,172.8 L148,186.48"/>
<path d="M152,172.8 L152,186.48"/>
<path d="M154,172.8 L154,186.48"/>
<path d="M158,172.8 L158,186.48"/>
<path d="M160,172.8 L160,186.48"/>
<path d="M162,172.8 L162,186.48"/>
<path d="M166,172.8 L166,186.48"/>
<path d="M168,172.8 L168,186.48"/>
<path d="M172,172.8 L172,186.48"/>
<path d="M174,172.8 L174,186.48"/>
<path d="M176,172.8 L176,186.48"/>
<path d="M178,172.8 L178,186.48"/>
<path d="M180,172.8 L180,186.48"/>
<path d="M182,172.8 L182,186.48"/>
<path d="M184,172.8 L184,186.48"/>
<path d="M186,172.8 L186,186.48"/>
<path d="M188,172.8 L188,186.48"/>
<path d="M190,172.8 L190,186.48"/>
<path d="M192,172.8 L192,186.48"/>
<path d="M194,172.8 L194,186.48"/>
<path d="M196,172.8 L196,186.48"/>
<path d="M198,172.8 L198,186.48"/>
<path d="M200,172.8 L200,186.48"/>
<path d="M202,172.8 L202,186.48"/>
<path d="M204,172.8 L204,186.48"/>
<path d="M206,172.8 L206,186.48"/>
<path d="M208,172.8 L208,186.48"/>
<path d="M210,172.8 L210,186.48"/>
<path d="M212,172.8 L212,186.48"/>
<path d="M214,172.8 L214,186.48"/>
<path d="M216,172.8 L216,186.48"/>
<path d="M218,172.8 L218,186.48"/>
<path d="M220,172.8 L220,186.48"/>
<path d="M224,172.8 L224,186.48"/>
<path d="M228,172.8 L228,186.48"/>
<path d="M232,172.8 L232,186.48"/>
<path d="M234,172.8 L234,186.48"/>
<path d="M242,172.8 L242,186.48"/>
<path d="M246,172.8 L246,186.48"/>
<path d="M250,172.8 L250,186.48"/>
<path d="M254,172.8 L254,186.48"/>
<path d="M272,172.8 L272,186.48"/>
<path d="M274,172.8 L274,186.48"/>
<path d="M282,172.8 L282,186.48"/>
<path d="M284,172.8 L284,186.48"/>
<path d="M288,172.8 L288,186.48"/>
<path d="M290,172.8 L290,186.48"/>
<path d="M312,172.8 L312,186.48"/>
<path d="M314,172.8 L314,186.48"/>
<path d="M318,172.8 L318,186.48"/>
<path d="M322,172.8 L322,186.48"/>
<path d="M326,172.8 L326,186.48"/>
<path d="M330,172.8 L330,186.48"/>
<path d="M346,172.8 L346,186.48"/>
<path d="M350,172.8 L350,186.48"/>
<path d="M358,172.8 L358,186.48"/>
<path d="M6,187.2 L6,200.88"/>
<path d="M12,187.2 L12,200.88"/>
<path d="M28,187.2 L28,200.88"/>
<path d="M44,187.2 L44,200.88"/>
<path d="M52,187.2 L52,200.88"/>
<path d="M94,187.2 L94,200.88"/>
<path d="M104,187.2 L104,200.88"/>
<path d="M108,187.2 L108,200.88"/>
<path d="M120,187.2 L120,200.88"/>
<path d="M124,187.2 L124,200.88"/>
<path d="M126,187.2 L126,200.88"/>
<path d="M130,187.2 L130,200.88"/>
<path d="M132,187.2 L132,200.88"/>
<path d="M140,187.2 L140,200.88"/>
<path d="M146,187.2 L146,200.88"/>
<path d="M156,187.2 L156,200.88"/>
<path d="M160,187.2 L160,200.88"/>
<path d="M162,187.2 L162,200.88"/>
<path d="M164,187.2 L164,200.88"/>
<path d="M166,187.2 L166,200.88"/>
<path d="M168,187.2 L168,200.88"/>
<path d="M170,187.2 L170,200.88"/>
<path d="M172,187.2 L172,200.88"/>
<path d="M174,187.2 L174,200.88"/>
<path d="M176,187.2 L176,200.88"/>
<path d="M178,187.2 L178,200.88"/>
<path d="M180,187.2 L180,200.88"/>
<path d="M182,187.2 L182,200.88"/>
<path d="M184,187.2 L184,200.88"/>
<path d="M186,187.2 L186,200.88"/>
<path d="M188,187.2 L188,200.88"/>
<path d="M190,187.2 L190,200.88"/>
<path d="M192,187.2 L192,200.88"/>
<path d="M194,187.2 L194,200.88"/>
<path d="M196,187.2 L196,200.88"/>
<path d="M198,187.2 L198,200.88"/>
<path d="M200,187.2 L200,200.88"/>
<path d="M202,187.2 L202,200.88"/>
<path d="M204,187.2 L204,200.88"/>
<path d="M206,187.2 L206,200.88"/>
<path d="M208,187.2 L208,200.88"/>
<path d="M210,187.2 L210,200.88"/>
<path d="M212,187.2 L212,200.88"/>
<path d="M216,187.2 L216,200.88"/>
<path d="M218,187.2 L218,200.88"/>
<path d="M224,187.2 L224,200.88"/>
<path d="M228,187.2 L228,200.88"/>
<path d="M230,187.2 L230,200.88"/>
<path d="M244,187.2 L244,200.88"/>
<path d="M248,187.2 L248,200.88"/>
<path d="M252,187.2 L252,200.88"/>
<path d="M256,187.2 L256,200.88"/>
<path d="M272,187.2 L272,200.88"/>
<path d="M276,187.2 L276,200.88"/>
<path d="M282,187.2 L282,200.88"/>
<path d="M288,187.2 L288,200.88"/>
<path d="M298,187.2 L298,200.88"/>
<path d="M304,187.2 L304,200.88"/>
<path d="M314,187.2 L314,200.88"/>
<path d="M348,187.2 L348,200.88"/>
<path d="M374,187.2 L374,200.88"/>
<path d="M376,187.2 L376,200.88"/>
<path d="M382,187.2 L382,200.88"/>
<path d="M4,201.6 L4,215.28"/>
<path d="M12,201.6 L12,215.28"/>
<path d="M24,201.6 L24,215.28"/>
<path d="M82,201.6 L82,215.28"/>
<path d="M104,201.6 L104,215.28"/>
<path d="M106,201.6 L106,215.28"/>
<path d="M110,201.6 L110,215.28"/>
<path d="M120,201.6 L120,215.28"/>
<path d="M124,201.6 L124,215.28"/>
<path d="M134,201.6 L134,215.28"/>
<path d="M146,201.6 L146,215.28"/>
<path d="M148,201.6 L148,215.28"/>
<path d="M150,201.6 L150,215.28"/>
<path d="M152,201.6 L152,215.28"/>
<path d="M154,201.6 L154,215.28"/>
<path d="M156,201.6 L156,215.28"/>
<path d="M162,201.6 L162,215.28"/>
<path d="M164,201.6 L164,215.28"/>
<path d="M168,201.6 L168,215.28"/>
<path d="M172,201.6 L172,215.28"/>
<path d="M174,201.6 L174,215.28"/>
<path d="M176,201.6 L176,215.28"/>
<path d="M178,201.6 L178,215.28"/>
<path d="M180,201.6 L180,215.28"/>
<path d="M182,201.6 L182,215.28"/>
<path d="M184,201.6 L184,215.28"/>
<path d="M186,201.6 L186,215.28"/>
<path d="M188,201.6 L188,215.28"/>
<path d="M190,201.6 L190,215.28"/>
<path d="M192,201.6 L192,215.28"/>
<path d="M194,201.6 L194,215.28"/>
<path d="M196,201.6 L196,215.28"/>
<path d="M198,201.6 L198,215.28"/>
<path d="M200,201.6 L200,215.28"/>
<path d="M202,201.6 L202,215.28"/>
<path d="M204,201.6 L204,215.28"/>
<path d="M206,201.6 L206,215.28"/>
<path d="M208,201.6 L208,215.28"/>
<path d="M210,201.6 L210,215.28"/>
<path d="M212,201.6 L212,215.28"/>
<path d="M214,201.6 L214,215.28"/>
<path d="M216,201.6 L216,215.28"/>
<path d="M218,201.6 L218,215.28"/>
<path d="M220,201.6 L220,215.28"/>
<path d="M224,201.6 L224,215.28"/>
<path d="M226,201.6 L226,215.28"/>
<path d="M228,201.6 L228,215.28"/>
<path d="M230,201.6 L230,215.28"/>
<path d="M234,201.6 L234,215.28"/>
<path d="M236,201.6 L236,215.28"/>
<path d="M240,201.6 L240,215.28"/>
<path d="M246,201.6 L246,215.28"/>
<path d="M248,201.6 L248,215.28"/>
<path d="M256,201.6 L256,215.28"/>
<path d="M258,201.6 L258,215.28"/>
<path d="M260,201.6 L260,215.28"/>
<path d="M274,201.6 L274,215.28"/>
<path d="M280,201.6 L280,215.28"/>
<path d="M282,201.6 L282,215.28"/>
<path d="M288,201.6 L288,215.28"/>
<path d="M298,201.6 L298,215.28"/>
<path d="M308,201.6 L308,215.28"/>
<path d="M322,201.6 L322,215.28"/>
<path d="M328,201.6 L328,215.28"/>
<path d="M350,201.6 L350,215.28"/>
<path d="M358,201.6 L358,215.28"/>
<path d="M2,216 L2,229.68"/>
<path d="M14,216 L14,229.68"/>
<path d="M34,216 L34,229.68"/>
<path d="M42,216 L42,229.68"/>
<path d="M50,216 L50,229.68"/>
<path d="M54,216 L54,229.68"/>
<path d="M62,216 L62,229.68"/>
<path d="M72,216 L72,229.68"/>
<path d="M80,216 L80,229.68"/>
<path d="M82,216 L82,229.68"/>
<path d="M104,216 L104,229.68"/>
<path d="M114,216 L114,229.68"/>
<path d="M116,216 L116,229.68"/>
<path d="M122,216 L122,229.68"/>
<path d="M126,216 L126,229.68"/>
<path d="M128,216 L128,229.68"/>
<path d="M138,216 L138,229.68"/>
<path d="M142,216 L142,229.68"/>
<path d="M144,216 L144,229.68"/>
<path d="M150,216 L150,229.68"/>
<path d="M152,216 L152,229.68"/>
<path d="M160,216 L160,229.68"/>
<path d="M162,216 L162,229.68"/>
<path d="M166,216 L166,229.68"/>
<path d="M168,216 L168,229.68"/>
<path d="M176,216 L176,229.68"/>
<path d="M180,216 L180,229.68"/>
<path d="M182,216 L182,229.68"/>
<path d="M184,216 L184,229.68"/>
<path d="M186,216 L186,229.68"/>
<path d="M188,216 L188,229.68"/>
<path d="M190,216 L190,229.68"/>
<path d="M192,216 L192,229.68"/>
<path d="M194,216 L194,229.68"/>
<path d="M196,216 L196,229.68"/>
<path d="M198,216 L198,229.68"/>
<path d="M200,216 L200,229.68"/>
<path d="M202,216 L202,229.68"/>
<path d="M204,216 L204,229.68"/>
<path d="M206,216 L206,229.68"/>
<path d="M208,216 L208,229.68"/>
<path d="M210,216 L210,229.68"/>
<path d="M212,216 L212,229.68"/>
<path d="M214,216 L214,229.68"/>
<path d="M216,216 L216,229.68"/>
<path d="M218,216 L218,229.68"/>
<path d="M220,216 L220,229.68"/>
<path d="M222,216 L222,229.68"/>
<path d="M224,216 L224,229.68"/>
<path d="M226,216 L226,229.68"/>
<path d="M228,216 L228,229.68"/>
<path d="M230,216 L230,229.68"/>
<path d="M232,216 L232,229.68"/>
<path d="M234,216 L234,229.68"/>
<path d="M236,216 L236,229.68"/>
<path d="M238,216 L238,229.68"/>
<path d="M242,216 L242,229.68"/>
<path d="M244,216 L244,229.68"/>
<path d="M246,216 L246,229.68"/>
<path d="M250,216 L250,229.68"/>
<path d="M252,216 L252,229.68"/>
<path d="M256,216 L256,229.68"/>
<path d="M258,216 L258,229.68"/>
<path d="M260,216 L260,229.68"/>
<path d="M264,216 L264,229.68"/>
<path d="M270,216 L270,229.68"/>
<path d="M280,216 L280,229.68"/>
<path d="M294,216 L294,229.68"/>
<path d="M300,216 L300,229.68"/>
<path d="M306,216 L306,229.68"/>
<path d="M310,216 L310,229.68"/>
<path d="M316,216 L316,229.68"/>
<path d="M320,216 L320,229.68"/>
<path d="M322,216 L322,229.68"/>
<path d="M352,216 L352,229.68"/>
<path d="M356,216 L356,229.68"/>
<path d="M358,216 L358,229.68"/>
<path d="M362,216 L362,229.68"/>
<path d="M364,216 L364,229.68"/>
<path d="M72,230.4 L72,244.08"/>
<path d="M80,230.4 L80,244.08"/>
<path d="M90,230.4 L90,244.08"/>
<path d="M124,230.4 L124,244.08"/>
<path d="M128,230.4 L128,244.08"/>
<path d="M134,230.4 L134,244.08"/>
<path d="M138,230.4 L138,244.08"/>
<path d="M140,230.4 L140,244.08"/>
<path d="M142,230.4 L142,244.08"/>
<path d="M144,230.4 L144,244.08"/>
<path d="M146,230.4 L146,244.08"/>
<path d="M154,230.4 L154,244.08"/>
<path d="M158,230.4 L158,244.08"/>
<path d="M172,230.4 L172,244.08"/>
<path d="M174,230.4 L174,244.08"/>
<path d="M180,230.4 L180,244.08"/>
<path d="M182,230.4 L182,244.08"/>
<path d="M184,230.4 L184,244.08"/>
<path d="M188,230.4 L188,244.08"/>
<path d="M190,230.4 L190,244.08"/>
<path d="M192,230.4 L192,244.08"/>
<path d="M194,230.4 L194,244.08"/>
<path d="M196,230.4 L196,244.08"/>
<path d="M198,230.4 L198,244.08"/>
<path d="M200,230.4 L200,244.08"/>
<path d="M202,230.4 L202,244.08"/>
<path d="M204,230.4 L204,244.08"/>
<path d="M206,230.4 L206,244.08"/>
<path d="M208,230.4 L208,244.08"/>
<path d="M210,230.4 L210,244.08"/>
<path d="M212,230.4 L212,244.08"/>
<path d="M214,230.4 L214,244.08"/>
<path d="M216,230.4 L216,244.08"/>
<path d="M218,230.4 L218,244.08"/>
<path d="M220,230.4 L220,244.08"/>
<path d="M222,230.4 L222,244.08"/>
<path d="M224,230.4 L224,244.08"/>
<path d="M226,230.4 L226,244.08"/>
<path d="M228,230.4 L228,244.08"/>
<path d="M230,230.4 L230,244.08"/>
<path d="M232,230.4 L232,244.08"/>
<path d="M234,230.4 L234,244.08"/>
<path d="M236,230.4 L236,244.08"/>
<path d="M238,230.4 L238,244.08"/>
<path d="M240,230.4 L240,244.08"/>
<path d="M242,230.4 L242,244.08"/>
<path d="M244,230.4 L244,244.08"/>
<path d="M246,230.4 L246,244.08"/>
<path d="M250,230.4 L250,244.08"/>
<path d="M252,230.4 L252,244.08"/>
<path d="M254,230.4 L254,244.08"/>
<path d="M256,230.4 L256,244.08"/>
<path d="M258,230.4 L258,244.08"/>
<path d="M260,230.4 L260,244.08"/>
<path d="M264,230.4 L264,244.08"/>
<path d="M266,230.4 L266,244.08"/>
<path d="M276,230.4 L276,244.08"/>
<path d="M280,230.4 L280,244.08"/>
<path d="M286,230.4 L286,244.08"/>
<path d="M306,230.4 L306,244.08"/>
<path d="M312,230.4 L312,244.08"/>
<path d="M314,230.4 L314,244.08"/>
<path d="M316,230.4 L316,244.08"/>
<path d="M320,230.4 L320,244.08"/>
<path d="M322,230.4 L322,244.08"/>
<path d="M328,230.4 L328,244.08"/>
<path d="M334,230.4 L334,244.08"/>
<path d="M336,230.4 L336,244.08"/>
<path d="M344,230.4 L344,244.08"/>
<path d="M346,230.4 L346,244.08"/>
<path d="M358,230.4 L358,244.08"/>
<path d="M362,230.4 L362,244.08"/>
<path d="M370,230.4 L370,244.08"/>
<path d="M24,244.8 L24,258.48"/>
<path d="M46,244.8 L46,258.48"/>
<path d="M68,244.8 L68,258.48"/>
<path d="M70,244.8 L70,258.48"/>
<path d="M78,244.8 L78,258.48"/>
<path d="M84,244.8 L84,258.48"/>
<path d="M94,244.8 L94,258.48"/>
<path d="M98,244.8 L98,258.48"/>
<path d="M102,244.8 L102,258.48"/>
<path d="M104,244.8 L104,258.48"/>
<path d="M110,244.8 L110,258.48"/>
<path d="M124,244.8 L124,258.48"/>
<path d="M132,244.8 L132,258.48"/>
<path d="M136,244.8 L136,258.48"/>
<path d="M140,244.8 L140,258.48"/>
<path d="M142,244.8 L142,258.48"/>
<path d="M150,244.8 L150,258.48"/>
<path d="M156,244.8 L156,258.48"/>
<path d="M166,244.8 L166,258.48"/>
<path d="M172,244.8 L172,258.48"/>
<path d="M174,244.8 L174,258.48"/>
<path d="M176,244.8 L176,258.48"/>
<path d="M184,244.8 L184,258.48"/>
<path d="M186,244.8 L186,258.48"/>
<path d="M188,244.8 L188,258.48"/>
<path d="M190,244.8 L190,258.48"/>
<path d="M192,244.8 L192,258.48"/>
<path d="M194,244.8 L194,258.48"/>
<path d="M196,244.8 L196,258.48"/>
<path d="M198,244.8 L198,258.48"/>
<path d="M200,244.8 L200,258.48"/>
<path d="M202,244.8 L202,258.48"/>
<path d="M204,244.8 L204,258.48"/>
<path d="M206,244.8 L206,258.48"/>
<path d="M208,244.8 L208,258.48"/>
<path d="M210,244.8 L210,258.48"/>
<path d="M212,244.8 L212,258.48"/>
<path d="M214,244.8 L214,258.48"/>
<path d="M216,244.8 L216,258.48"/>
<path d="M218,244.8 L218,258.48"/>
<path d="M220,244.8 L220,258.48"/>
<path d="M222,244.8 L222,258.48"/>
<path d="M224,244.8 L224,258.48"/>
<path d="M226,244.8 L226,258.48"/>
<path d="M228,244.8 L228,258.48"/>
<path d="M230,244.8 L230,258.48"/>
<path d="M232,244.8 L232,258.48"/>
<path d="M234,244.8 L234,258.48"/>
<path d="M236,244.8 L236,258.48"/>
<path d="M238,244.8 L238,258.48"/>
<path d="M240,244.8 L240,258.48"/>
<path d="M242,244.8 L242,258.48"/>
<path d="M244,244.8 L244,258.48"/>
<path d="M250,244.8 L250,258.48"/>
<path d="M258,244.8 L258,258.48"/>
<path d="M260,244.8 L260,258.48"/>
<path d="M266,244.8 L266,258.48"/>
<path d="M268,244.8 L268,258.48"/>
<path d="M270,244.8 L270,258.48"/>
<path d="M272,244.8 L272,258.48"/>
<path d="M274,244.8 L274,258.48"/>
<path d="M276,244.8 L276,258.48"/>
<path d="M278,244.8 L278,258.48"/>
<path d="M280,244.8 L280,258.48"/>
<path d="M284,244.8 L284,258.48"/>
<path d="M290,244.8 L290,258.48"/>
<path d="M292,244.8 L292,258.48"/>
<path d="M298,244.8 L298,258.48"/>
<path d="M302,244.8 L302,258.48"/>
<path d="M314,244.8 L314,258.48"/>
<path d="M318,244.8 L318,258.48"/>
<path d="M322,244.8 L322,258.48"/>
<path d="M342,244.8 L342,258.48"/>
<path d="M348,244.8 L348,258.48"/>
<path d="M368,244.8 L368,258.48"/>
<path d="M376,244.8 L376,258.48"/>
<path d="M378,244.8 L378,258.48"/>
<path d="M382,244.8 L382,258.48"/>
<path d="M0,259.2 L0,272.88"/>
<path d="M12,259.2 L12,272.88"/>
<path d="M20,259.2 L20,272.88"/>
<path d="M66,259.2 L66,272.88"/>
<path d="M70,259.2 L70,272.88"/>
<path d="M76,259.2 L76,272.88"/>
<path d="M92,259.2 L92,272.88"/>
<path d="M140,259.2 L140,272.88"/>
<path d="M142,259.2 L142,272.88"/>
<path d="M144,259.2 L144,272.88"/>
<path d="M146,259.2 L146,272.88"/>
<path d="M148,259.2 L148,272.88"/>
<path d="M150,259.2 L150,272.88"/>
<path d="M152,259.2 L152,272.88"/>
<path d="M154,259.2 L154,272.88"/>
<path d="M162,259.2 L162,272.88"/>
<path d="M164,259.2 L164,272.88"/>
<path d="M166,259.2 L166,272.88"/>
<path d="M168,259.2 L168,272.88"/>
<path d="M172,259.2 L172,272.88"/>
<path d="M174,259.2 L174,272.88"/>
<path d="M178,259.2 L178,272.88"/>
<path d="M182,259.2 L182,272.88"/>
<path d="M184,259.2 L184,272.88"/>
<path d="M186,259.2 L186,272.88"/>
<path d="M188,259.2 L188,272.88"/>
<path d="M190,259.2 L190,272.88"/>
<path d="M192,259.2 L192,272.88"/>
<path d="M194,259.2 L194,272.88"/>
<path d="M196,259.2 L196,272.88"/>
<path d="M198,259.2 L198,272.88"/>
<path d="M200,259.2 L200,272.88"/>
<path d="M202,259.2 L202,272.88"/>
<path d="M204,259.2 L204,272.88"/>
<path d="M206,259.2 L206,272.88"/>
<path d="M208,259.2 L208,272.88"/>
<path d="M210,259.2 L210,272.88"/>
<path d="M212,259.2 L212,272.88"/>
<path d="M214,259.2 L214,272.88"/>
<path d="M216,259.2 L216,272.88"/>
<path d="M218,259.2 L218,272.88"/>
<path d="M220,259.2 L220,272.88"/>
<path d="M222,259.2 L222,272.88"/>
<path d="M224,259.2 L224,272.88"/>
<path d="M226,259.2 L226,272.88"/>
<path d="M228,259.2 L228,272.88"/>
<path d="M230,259.2 L230,272.88"/>
<path d="M234,259.2 L234,272.88"/>
<path d="M238,259.2 L238,272.88"/>
<path d="M242,259.2 L242,272.88"/>
<path d="M244,259.2 L244,272.88"/>
<path d="M248,259.2 L248,272.88"/>
<path d="M254,259.2 L254,272.88"/>
<path d="M256,259.2 L256,272.88"/>
<path d="M274,259.2 L274,272.88"/>
<path d="M278,259.2 L278,272.88"/>
<path d="M280,259.2 L280,272.88"/>
<path d="M282,259.2 L282,272.88"/>
<path d="M284,259.2 L284,272.88"/>
<path d="M290,259.2 L290,272.88"/>
<path d="M294,259.2 L294,272.88"/>
<path d="M296,259.2 L296,272.88"/>
<path d="M300,259.2 L300,272.88"/>
<path d="M302,259.2 L302,272.88"/>
<path d="M312,259.2 L312,272.88"/>
<path d="M322,259.2 L322,272.88"/>
<path d="M340,259.2 L340,272.88"/>
<path d="M366,259.2 L366,272.88"/>
<path d="M44,273.6 L44,287.28"/>
<path d="M50,273.6 L50,287.28"/>
<path d="M52,273.6 L52,287.28"/>
<path d="M54,273.6 L54,287.28"/>
<path d="M76,273.6 L76,287.28"/>
<path d="M90,273.6 L90,287.28"/>
<path d="M92,273.6 L92,287.28"/>
<path d="M98,273.6 L98,287.28"/>
<path d="M116,273.6 L116,287.28"/>
<path d="M118,273.6 L118,287.28"/>
<path d="M130,273.6 L130,287.28"/>
<path d="M132,273.6 L132,287.28"/>
<path d="M138,273.6 L138,287.28"/>
<path d="M140,273.6 L140,287.28"/>
<path d="M144,273.6 L144,287.28"/>
<path d="M146,273.6 L146,287.28"/>
<path d="M148,273.6 L148,287.28"/>
<path d="M150,273.6 L150,287.28"/>
<path d="M154,273.6 L154,287.28"/>
<path d="M158,273.6 L158,287.28"/>
<path d="M160,273.6 L160,287.28"/>
<path d="M162,273.6 L162,287.28"/>
<path d="M164,273.6 L164,287.28"/>
<path d="M166,273.6 L166,287.28"/>
<path d="M168,273.6 L168,287.28"/>
<path d="M170,273.6 L170,287.28"/>
<path d="M172,273.6 L172,287.28"/>
<path d="M174,273.6 L174,287.28"/>
<path d="M176,273.6 L176,287.28"/>
<path d="M178,273.6 L178,287.28"/>
<path d="M180,273.6 L180,287.28"/>
<path d="M182,273.6 L182,287.28"/>
<path d="M184,273.6 L184,287.28"/>
<path d="M186,273.6 L186,287.28"/>
<path d="M188,273.6 L188,287.28"/>
<path d="M190,273.6 L190,287.28"/>
<path d="M192,273.6 L192,287.28"/>
<path d="M194,273.6 L194,287.28"/>
<path d="M196,273.6 L196,287.28"/>
<path d="M198,273.6 L198,287.28"/>
<path d="M200,273.6 L200,287.28"/>
<path d="M202,273.6 L202,287.28"/>
<path d="M204,273.6 L204,287.28"/>
<path d="M206,273.6 L206,287.28"/>
<path d="M208,273.6 L208,287.28"/>
<path d="M210,273.6 L210,287.28"/>
<path d="M212,273.6 L212,287.28"/>
<path d="M218,273.6 L218,287.28"/>
<path d="M220,273.6 L220,287.28"/>
<path d="M222,273.6 L222,287.28"/>
<path d="M228,273.6 L228,287.28"/>
<path d="M232,273.6 L232,287.28"/>
<path d="M240,273.6 L240,287.28"/>
<path d="M248,273.6 L248,287.28"/>
<path d="M256,273.6 L256,287.28"/>
<path d="M258,273.6 L258,287.28"/>
<path d="M262,273.6 L262,287.28"/>
<path d="M266,273.6 L266,287.28"/>
<path d="M276,273.6 L276,287.28"/>
<path d="M278,273.6 L278,287.28"/>
<path d="M282,273.6 L282,287.28"/>
<path d="M288,273.6 L288,287.28"/>
<path d="M294,273.6 L294,287.28"/>
<path d="M316,273.6 L316,287.28"/>
<path d="M322,273.6 L322,287.28"/>
<path d="M326,273.6 L326,287.28"/>
<path d="M330,273.6 L330,287.28"/>
<path d="M350,273.6 L350,287.28"/>
<path d="M356,273.6 L356,287.28"/>
<path d="M380,273.6 L380,287.28"/>
<path d="M382,273.6 L382,287.28"/>
<path d="M26,288 L26,301.68"/>
<path d="M32,288 L32,301.68"/>
<path d="M42,288 L42,301.68"/>
<path d="M64,288 L64,301.68"/>
<path d="M82,288 L82,301.68"/>
<path d="M90,288 L90,301.68"/>
<path d="M94,288 L94,301.68"/>
<path d="M110,288 L110,301.68"/>
<path d="M112,288 L112,301.68"/>
<path d="M118,288 L118,301.68"/>
<path d="M124,288 L124,301.68"/>
<path d="M130,288 L130,301.68"/>
<path d="M132,288 L132,301.68"/>
<path d="M144,288 L144,301.68"/>
<path d="M146,288 L146,301.68"/>
<path d="M148,288 L148,301.68"/>
<path d="M150,288 L150,301.68"/>
<path d="M152,288 L152,301.68"/>
<path d="M154,288 L154,301.68"/>
<path d="M156,288 L156,301.68"/>
<path d="M158,288 L158,301.68"/>
<path d="M160,288 L160,301.68"/>
<path d="M162,288 L162,301.68"/>
<path d="M164,288 L164,301.68"/>
<path d="M166,288 L166,301.68"/>
<path d="M168,288 L168,301.68"/>
<path d="M170,288 L170,301.68"/>
<path d="M172,288 L172,301.68"/>
<path d="M174,288 L174,301.68"/>
<path d="M176,288 L176,301.68"/>
<path d="M178,288 L178,301.68"/>
<path d="M180,288 L180,301.68"/>
<path d="M182,288 L182,301.68"/>
<path d="M184,288 L184,301.68"/>
<path d="M186,288 L186,301.68"/>
<path d="M188,288 L188,301.68"/>
<path d="M190,288 L190,301.68"/>
<path d="M192,288 L192,301.68"/>
<path d="M194,288 L194,301.68"/>
<path d="M196,288 L196,301.68"/>
<path d="M202,288 L202,301.68"/>
<path d="M206,288 L206,301.68"/>
<path d="M208,288 L208,301.68"/>
<path d="M216,288 L216,301.68"/>
<path d="M218,288 L218,301.68"/>
<path d="M220,288 L220,301.68"/>
<path d="M228,288 L228,301.68"/>
<path d="M230,288 L230,301.68"/>
<path d="M250,288 L250,301.68"/>
<path d="M278,288 L278,301.68"/>
<path d="M288,288 L288,301.68"/>
<path d="M290,288 L290,301.68"/>
<path d="M306,288 L306,301.68"/>
<path d="M334,288 L334,301.68"/>
<path d="M336,288 L336,301.68"/>
<path d="M340,288 L340,301.68"/>
<path d="M360,288 L360,301.68"/>
<path d="M370,288 L370,301.68"/>
<path d="M0,302.4 L0,316.08"/>
<path d="M48,302.4 L48,316.08"/>
<path d="M52,302.4 L52,316.08"/>
<path d="M68,302.4 L68,316.08"/>
<path d="M80,302.4 L80,316.08"/>
<path d="M102,302.4 L102,316.08"/>
<path d="M106,302.4 L106,316.08"/>
<path d="M120,302.4 L120,316.08"/>
<path d="M126,302.4 L126,316.08"/>
<path d="M128,302.4 L128,316.08"/>
<path d="M130,302.4 L130,316.08"/>
<path d="M134,302.4 L134,316.08"/>
<path d="M136,302.4 L136,316.08"/>
<path d="M138,302.4 L138,316.08"/>
<path d="M140,302.4 L140,316.08"/>
<path d="M142,302.4 L142,316.08"/>
<path d="M144,302.4 L144,316.08"/>
<path d="M146,302.4 L146,316.08"/>
<path d="M148,302.4 L148,316.08"/>
<path d="M150,302.4 L150,316.08"/>
<path d="M152,302.4 L152,316.08"/>
<path d="M154,302.4 L154,316.08"/>
<path d="M156,302.4 L156,316.08"/>
<path d="M158,302.4 L158,316.08"/>
<path d="M160,302.4 L160,316.08"/>
<path d="M162,302.4 L162,316.08"/>
<path d="M164,302.4 L164,316.08"/>
<path d="M166,302.4 L166,316.08"/>
<path d="M168,302.4 L168,316.08"/>
<path d="M170,302.4 L170,316.08"/>
<path d="M172,302.4 L172,316.08"/>
<path d="M174,302.4 L174,316.08"/>
<path d="M176,302.4 L176,316.08"/>
<path d="M178,302.4 L178,316.08"/>
<path d="M180,302.4 L180,316.08"/>
<path d="M182,302.4 L182,316.08"/>
<path d="M184,302.4 L184,316.08"/>
<path d="M192,302.4 L192,316.08"/>
<path d="M194,302.4 L194,316.08"/>
<path d="M200,302.4 L200,316.08"/>
<path d="M202,302.4 L202,316.08"/>
<path d="M204,302.4 L204,316.08"/>
<path d="M228,302.4 L228,316.08"/>
<path d="M238,302.4 L238,316.08"/>
<path d="M270,302.4 L270,316.08"/>
<path d="M304,302.4 L304,316.08"/>
<path d="M326,302.4 L326,316.08"/>
<path d="M344,302.4 L344,316.08"/>
<path d="M352,302.4 L352,316.08"/>
<path d="M366,302.4 L366,316.08"/>
<path d="M14,316.8 L14,330.48"/>
<path d="M18,316.8 L18,330.48"/>
<path d="M22,316.8 L22,330.48"/>
<path d="M50,316.8 L50,330.48"/>
<path d="M62,316.8 L62,330.48"/>
<path d="M66,316.8 L66,330.48"/>
<path d="M82,316.8 L82,330.48"/>
<path d="M86,316.8 L86,330.48"/>
<path d="M88,316.8 L88,330.48"/>
<path d="M100,316.8 L100,330.48"/>
<path d="M104,316.8 L104,330.48"/>
<path d="M106,316.8 L106,330.48"/>
<path d="M108,316.8 L108,330.48"/>
<path d="M112,316.8 L112,330.48"/>
<path d="M114,316.8 L114,330.48"/>
<path d="M120,316.8 L120,330.48"/>
<path d="M122,316.8 L122,330.48"/>
<path d="M124,316.8 L124,330.48"/>
<path d="M128,316.8 L128,330.48"/>
<path d="M134,316.8 L134,330.48"/>
<path d="M136,316.8 L136,330.48"/>
<path d="M138,316.8 L138,330.48"/>
<path d="M142,316.8 L142,330.48"/>
<path d="M148,316.8 L148,330.48"/>
<path d="M150,316.8 L150,330.48"/>
<path d="M152,316.8 L152,330.48"/>
<path d="M154,316.8 L154,330.48"/>
<path d="M156,316.8 L156,330.48"/>
<path d="M158,316.8 L158,330.48"/>
<path d="M160,316.8 L160,330.48"/>
<path d="M162,316.8 L162,330.48"/>
<path d="M164,316.8 L164,330.48"/>
<path d="M166,316.8 L166,330.48"/>
<path d="M168,316.8 L168,330.48"/>
<path d="M170,316.8 L170,330.48"/>
<path d="M172,316.8 L172,330.48"/>
<path d="M174,316.8 L174,330.48"/>
<path d="M176,316.8 L176,330.48"/>
<path d="M178,316.8 L178,330.48"/>
<path d="M180,316.8 L180,330.48"/>
<path d="M182,316.8 L182,330.48"/>
<path d="M184,316.8 L184,330.48"/>
<path d="M186,316.8 L186,330.48"/>
<path d="M188,316.8 L188,330.48"/>
<path d="M194,316.8 L194,330.48"/>
<path d="M198,316.8 L198,330.48"/>
<path d="M200,316.8 L200,330.48"/>
<path d="M202,316.8 L202,330.48"/>
<path d="M208,316.8 L208,330.48"/>
<path d="M210,316.8 L210,330.48"/>
<path d="M214,316.8 L214,330.48"/>
<path d="M234,316.8 L234,330.48"/>
<path d="M238,316.8 L238,330.48"/>
<path d="M240,316.8 L240,330.48"/>
<path d="M242,316.8 L242,330.48"/>
<path d="M246,316.8 L246,330.48"/>
<path d="M262,316.8 L262,330.48"/>
<path d="M270,316.8 L270,330.48"/>
<path d="M272,316.8 L272,330.48"/>
<path d="M276,316.8 L276,330.48"/>
<path d="M278,316.8 L278,330.48"/>
<path d="M282,316.8 L282,330.48"/>
<path d="M292,316.8 L292,330.48"/>
<path d="M298,316.8 L298,330.48"/>
<path d="M302,316.8 L302,330.48"/>
<path d="M306,316.8 L306,330.48"/>
<path d="M320,316.8 L320,330.48"/>
<path d="M338,316.8 L338,330.48"/>
<path d="M350,316.8 L350,330.48"/>
<path d="M0,331.2 L0,344.88"/>
<path d="M36,331.2 L36,344.88"/>
<path d="M60,331.2 L60,344.88"/>
<path d="M80,331.2 L80,344.88"/>
<path d="M98,331.2 L98,344.88"/>
<path d="M112,331.2 L112,344.88"/>
<path d="M124,331.2 L124,344.88"/>
<path d="M126,331.2 L126,344.88"/>
<path d="M130,331.2 L130,344.88"/>
<path d="M132,331.2 L132,344.88"/>
<path d="M148,331.2 L148,344.88"/>
<path d="M152,331.2 L152,344.88"/>
<path d="M154,331.2 L154,344.88"/>
<path d="M158,331.2 L158,344.88"/>
<path d="M162,331.2 L162,344.88"/>
<path d="M164,331.2 L164,344.88"/>
<path d="M166,331.2 L166,344.88"/>
<path d="M168,331.2 L168,344.88"/>
<path d="M170,331.2 L170,344.88"/>
<path d="M172,331.2 L172,344.88"/>
<path d="M174,331.2 L174,344.88"/>
<path d="M176,331.2 L176,344.88"/>
<path d="M178,331.2 L178,344.88"/>
<path d="M180,331.2 L180,344.88"/>
<path d="M182,331.2 L182,344.88"/>
<path d="M184,331.2 L184,344.88"/>
<path d="M186,331.2 L186,344.88"/>
<path d="M188,331.2 L188,344.88"/>
<path d="M190,331.2 L190,344.88"/>
<path d="M192,331.2 L192,344.88"/>
<path d="M194,331.2 L194,344.88"/>
<path d="M196,331.2 L196,344.88"/>
<path d="M198,331.2 L198,344.88"/>
<path d="M200,331.2 L200,344.88"/>
<path d="M202,331.2 L202,344.88"/>
<path d="M204,331.2 L204,344.88"/>
<path d="M206,331.2 L206,344.88"/>
<path d="M208,331.2 L208,344.88"/>
<path d="M210,331.2 L210,344.88"/>
<path d="M212,331.2 L212,344.88"/>
<path d="M224,331.2 L224,344.88"/>
<path d="M230,331.2 L230,344.88"/>
<path d="M232,331.2 L232,344.88"/>
<path d="M234,331.2 L234,344.88"/>
<path d="M236,331.2 L236,344.88"/>
<path d="M246,331.2 L246,344.88"/>
<path d="M250,331.2 L250,344.88"/>
<path d="M258,331.2 L258,344.88"/>
<path d="M262,331.2 L262,344.88"/>
<path d="M268,331.2 L268,344.88"/>
<path d="M274,331.2 L274,344.88"/>
<path d="M330,331.2 L330,344.88"/>
<path d="M366,331.2 L366,344.88"/>
<path d="M0,345.6 L0,359.28"/>
<path d="M12,345.6 L12,359.28"/>
<path d="M40,345.6 L40,359.28"/>
<path d="M52,345.6 L52,359.28"/>
<path d="M60,345.6 L60,359.28"/>
<path d="M62,345.6 L62,359.28"/>
<path d="M66,345.6 L66,359.28"/>
<path d="M76,345.6 L76,359.28"/>
<path d="M92,345.6 L92,359.28"/>
<path d="M106,345.6 L106,359.28"/>
<path d="M116,345.6 L116,359.28"/>
<path d="M128,345.6 L128,359.28"/>
<path d="M130,345.6 L130,359.28"/>
<path d="M136,345.6 L136,359.28"/>
<path d="M138,345.6 L138,359.28"/>
<path d="M142,345.6 L142,359.28"/>
<path d="M144,345.6 L144,359.28"/>
<path d="M146,345.6 L146,359.28"/>
<path d="M148,345.6 L148,359.28"/>
<path d="M152,345.6 L152,359.28"/>
<path d="M156,345.6 L156,359.28"/>
<path d="M160,345.6 L160,359.28"/>
<path d="M168,345.6 L168,359.28"/>
<path d="M170,345.6 L170,359.28"/>
<path d="M172,345.6 L172,359.28"/>
<path d="M174,345.6 L174,359.28"/>
<path d="M176,345.6 L176,359.28"/>
<path d="M178,345.6 L178,359.28"/>
<path d="M180,345.6 L180,359.28"/>
<path d="M182,345.6 L182,359.28"/>
<path d="M184,345.6 L184,359.28"/>
<path d="M186,345.6 L186,359.28"/>
<path d="M188,345.6 L188,359.28"/>
<path d="M190,345.6 L190,359.28"/>
<path d="M192,345.6 L192,359.28"/>
<path d="M194,345.6 L194,359.28"/>
<path d="M196,345.6 L196,359.28"/>
<path d="M198,345.6 L198,359.28"/>
<path d="M200,345.6 L200,359.28"/>
<path d="M202,345.6 L202,359.28"/>
<path d="M204,345.6 L204,359.28"/>
<path d="M206,345.6 L206,359.28"/>
<path d="M208,345.6 L208,359.28"/>
<path d="M210,345.6 L210,359.28"/>
<path d="M214,345.6 L214,359.28"/>
<path d="M218,345.6 L218,359.28"/>
<path d="M226,345.6 L226,359.28"/>
<path d="M228,345.6 L228,359.28"/>
<path d="M230,345.6 L230,359.28"/>
<path d="M232,345.6 L232,359.28"/>
<path d="M242,345.6 L242,359.28"/>
<path d="M244,345.6 L244,359.28"/>
<path d="M246,345.6 L246,359.28"/>
<path d="M248,345.6 L248,359.28"/>
<path d="M262,345.6 L262,359.28"/>
<path d="M270,345.6 L270,359.28"/>
<path d="M276,345.6 L276,359.28"/>
<path d="M280,345.6 L280,359.28"/>
<path d="M282,345.6 L282,359.28"/>
<path d="M284,345.6 L284,359.28"/>
<path d="M294,345.6 L294,359.28"/>
<path d="M300,345.6 L300,359.28"/>
<path d="M308,345.6 L308,359.28"/>
<path d="M324,345.6 L324,359.28"/>
<path d="M330,345.6 L330,359.28"/>
<path d="M352,345.6 L352,359.28"/>
<path d="M364,345.6 L364,359.28"/>
<path d="M370,345.6 L370,359.28"/>
<path d="M372,345.6 L372,359.28"/>
<path d="M2,360 L2,373.68"/>
<path d="M12,360 L12,373.68"/>
<path d="M44,360 L44,373.68"/>
<path d="M50,360 L50,373.68"/>
<path d="M54,360 L54,373.68"/>
<path d="M64,360 L64,373.68"/>
<path d="M82,360 L82,373.68"/>
<path d="M86,360 L86,373.68"/>
<path d="M88,360 L88,373.68"/>
<path d="M94,360 L94,373.68"/>
<path d="M120,360 L120,373.68"/>
<path d="M122,360 L122,373.68"/>
<path d="M126,360 L126,373.68"/>
<path d="M130,360 L130,373.68"/>
<path d="M136,360 L136,373.68"/>
<path d="M148,360 L148,373.68"/>
<path d="M156,360 L156,373.68"/>
<path d="M158,360 L158,373.68"/>
<path d="M160,360 L160,373.68"/>
<path d="M166,360 L166,373.68"/>
<path d="M168,360 L168,373.68"/>
<path d="M170,360 L170,373.68"/>
<path d="M172,360 L172,373.68"/>
<path d="M174,360 L174,373.68"/>
<path d="M176,360 L176,373.68"/>
<path d="M178,360 L178,373.68"/>
<path d="M180,360 L180,373.68"/>
<path d="M182,360 L182,373.68"/>
<path d="M184,360 L184,373.68"/>
<path d="M186,360 L186,373.68"/>
<path d="M188,360 L188,373.68"/>
<path d="M190,360 L190,373.68"/>
<path d="M192,360 L192,373.68"/>
<path d="M194,360 L194,373.68"/>
<path d="M196,360 L196,373.68"/>
<path d="M198,360 L198,373.68"/>
<path d="M200,360 L200,373.68"/>
<path d="M202,360 L202,373.68"/>
<path d="M204,360 L204,373.68"/>
<path d="M206,360 L206,373.68"/>
<path d="M208,360 L208,373.68"/>
<path d="M210,360 L210,373.68"/>
<path d="M212,360 L212,373.68"/>
<path d="M214,360 L214,373.68"/>
<path d="M216,360 L216,373.68"/>
<path d="M220,360 L220,373.68"/>
<path d="M222,360 L222,373.68"/>
<path d="M224,360 L224,373.68"/>
<path d="M226,360 L226,373.68"/>
<path d="M228,360 L228,373.68"/>
<path d="M232,360 L232,373.68"/>
<path d="M234,360 L234,373.68"/>
<path d="M242,360 L242,373.68"/>
<path d="M254,360 L254,373.68"/>
<path d="M260,360 L260,373.68"/>
<path d="M262,360 L262,373.68"/>
<path d="M284,360 L284,373.68"/>
<path d="M288,360 L288,373.68"/>
<path d="M296,360 L296,373.68"/>
<path d="M316,360 L316,373.68"/>
<path d="M318,360 L318,373.68"/>
<path d="M324,360 L324,373.68"/>
<path d="M326,360 L326,373.68"/>
<path d="M342,360 L342,373.68"/>
<path d="M358,360 L358,373.68"/>
<path d="M12,374.4 L12,388.08"/>
<path d="M14,374.4 L14,388.08"/>
<path d="M26,374.4 L26,388.08"/>
<path d="M62,374.4 L62,388.08"/>
<path d="M92,374.4 L92,388.08"/>
<path d="M100,374.4 L100,388.08"/>
<path d="M112,374.4 L112,388.08"/>
<path d="M114,374.4 L114,388.08"/>
<path d="M120,374.4 L120,388.08"/>
<path d="M128,374.4 L128,388.08"/>
<path d="M130,374.4 L130,388.08"/>
<path d="M140,374.4 L140,388.08"/>
<path d="M142,374.4 L142,388.08"/>
<path d="M146,374.4 L146,388.08"/>
<path d="M154,374.4 L154,388.08"/>
<path d="M160,374.4 L160,388.08"/>
<path d="M164,374.4 L164,388.08"/>
<path d="M166,374.4 L166,388.08"/>
<path d="M168,374.4 L168,388.08"/>
<path d="M172,374.4 L172,388.08"/>
<path d="M174,374.4 L174,388.08"/>
<path d="M176,374.4 L176,388.08"/>
<path d="M178,374.4 L178,388.08"/>
<path d="M180,374.4 L180,388.08"/>
<path d="M182,374.4 L182,388.08"/>
<path d="M184,374.4 L184,388.08"/>
<path d="M186,374.4 L186,388.08"/>
<path d="M188,374.4 L188,388.08"/>
<path d="M190,374.4 L190,388.08"/>
<path d="M192,374.4 L192,388.08"/>
<path d="M194,374.4 L194,388.08"/>
<path d="M196,374.4 L196,388.08"/>
<path d="M198,374.4 L198,388.08"/>
<path d="M200,374.4 L200,388.08"/>
<path d="M202,374.4 L202,388.08"/>
<path d="M204,374.4 L204,388.08"/>
<path d="M206,374.4 L206,388.08"/>
<path d="M208,374.4 L208,388.08"/>
<path d="M210,374.4 L210,388.08"/>
<path d="M212,374.4 L212,388.08"/>
<path d="M214,374.4 L214,388.08"/>
<path d="M216,374.4 L216,388.08"/>
<path d="M218,374.4 L218,388.08"/>
<path d="M222,374.4 L222,388.08"/>
<path d="M230,374.4 L230,388.08"/>
<path d="M234,374.4 L234,388.08"/>
<path d="M238,374.4 L238,388.08"/>
<path d="M244,374.4 L244,388.08"/>
<path d="M248,374.4 L248,388.08"/>
<path d="M254,374.4 L254,388.08"/>
<path d="M256,374.4 L256,388.08"/>
<path d="M266,374.4 L266,388.08"/>
<path d="M272,374.4 L272,388.08"/>
<path d="M284,374.4 L284,388.08"/>
<path d="M286,374.4 L286,388.08"/>
<path d="M292,374.4 L292,388.08"/>
<path d="M296,374.4 L296,388.08"/>
<path d="M316,374.4 L316,388.08"/>
<path d="M328,374.4 L328,388.08"/>
<path d="M380,374.4 L380,388.08"/>
<path d="M24,388.8 L24,402.48"/>
<path d="M28,388.8 L28,402.48"/>
<path d="M54,388.8 L54,402.48"/>
<path d="M76,388.8 L76,402.48"/>
<path d="M90,388.8 L90,402.48"/>
<path d="M98,388.8 L98,402.48"/>
<path d="M102,388.8 L102,402.48"/>
<path d="M122,388.8 L122,402.48"/>
<path d="M142,388.8 L142,402.48"/>
<path d="M150,388.8 L150,402.48"/>
<path d="M152,388.8 L152,402.48"/>
<path d="M154,388.8 L154,402.48"/>
<path d="M158,388.8 L158,402.48"/>
<path d="M160,388.8 L160,402.48"/>
<path d="M166,388.8 L166,402.48"/>
<path d="M168,388.8 L168,402.48"/>
<path d="M174,388.8 L174,402.48"/>
<path d="M176,388.8 L176,402.48"/>
<path d="M178,388.8 L178,402.48"/>
<path d="M180,388.8 L180,402.48"/>
<path d="M184,388.8 L184,402.48"/>
<path d="M186,388.8 L186,402.48"/>
<path d="M188,388.8 L188,402.48"/>
<path d="M190,388.8 L190,402.48"/>
<path d="M192,388.8 L192,402.48"/>
<path d="M194,388.8 L194,402.48"/>
<path d="M196,388.8 L196,402.48"/>
<path d="M198,388.8 L198,402.48"/>
<path d="M200,388.8 L200,402.48"/>
<path d="M202,388.8 L202,402.48"/>
<path d="M204,388.8 L204,402.48"/>
<path d="M206,388.8 L206,402.48"/>
<path d="M208,388.8 L208,402.48"/>
<path d="M210,388.8 L210,402.48"/>
<path d="M212,388.8 L212,402.48"/>
<path d="M214,388.8 L214,402.48"/>
<path d="M216,388.8 L216,402.48"/>
<path d="M218,388.8 L218,402.48"/>
<path d="M220,388.8 L220,402.48"/>
<path d="M222,388.8 L222,402.48"/>
<path d="M224,388.8 L224,402.48"/>
<path d="M226,388.8 L226,402.48"/>
<path d="M228,388.8 L228,402.48"/>
<path d="M230,388.8 L230,402.48"/>
<path d="M232,388.8 L232,402.48"/>
<path d="M236,388.8 L236,402.48"/>
<path d="M240,388.8 L240,402.48"/>
<path d="M252,388.8 L252,402.48"/>
<path d="M256,388.8 L256,402.48"/>
<path d="M258,388.8 L258,402.48"/>
<path d="M262,388.8 L262,402.48"/>
<path d="M268,388.8 L268,402.48"/>
<path d="M278,388.8 L278,402.48"/>
<path d="M286,388.8 L286,402.48"/>
<path d="M290,388.8 L290,402.48"/>
<path d="M322,388.8 L322,402.48"/>
<path d="M342,388.8 L342,402.48"/>
<path d="M360,388.8 L360,402.48"/>
<path d="M378,388.8 L378,402.48"/>
<path d="M382,388.8 L382,402.48"/>
<path d="M0,403.2 L0,416.88"/>
<path d="M6,403.2 L6,416.88"/>
<path d="M46,403.2 L46,416.88"/>
<path d="M60,403.2 L60,416.88"/>
<path d="M82,403.2 L82,416.88"/>
<path d="M114,403.2 L114,416.88"/>
<path d="M118,403.2 L118,416.88"/>
<path d="M120,403.2 L120,416.88"/>
<path d="M124,403.2 L124,416.88"/>
<path d="M136,403.2 L136,416.88"/>
<path d="M138,403.2 L138,416.88"/>
<path d="M142,403.2 L142,416.88"/>
<path d="M158,403.2 L158,416.88"/>
<path d="M162,403.2 L162,416.88"/>
<path d="M166,403.2 L166,416.88"/>
<path d="M168,403.2 L168,416.88"/>
<path d="M170,403.2 L170,416.88"/>
<path d="M172,403.2 L172,416.88"/>
<path d="M174,403.2 L174,416.88"/>
<path d="M182,403.2 L182,416.88"/>
<path d="M186,403.2 L186,416.88"/>
<path d="M188,403.2 L188,416.88"/>
<path d="M192,403.2 L192,416.88"/>
<path d="M194,403.2 L194,416.88"/>
<path d="M196,403.2 L196,416.88"/>
<path d="M198,403.2 L198,416.88"/>
<path d="M200,403.2 L200,416.88"/>
<path d="M202,403.2 L202,416.88"/>
<path d="M204,403.2 L204,416.88"/>
<path d="M206,403.2 L206,416.88"/>
<path d="M208,403.2 L208,416.88"/>
<path d="M210,403.2 L210,416.88"/>
<path d="M212,403.2 L212,416.88"/>
<path d="M214,403.2 L214,416.88"/>
<path d="M216,403.2 L216,416.88"/>
<path d="M218,403.2 L218,416.88"/>
<path d="M220,403.2 L220,416.88"/>
<path d="M222,403.2 L222,416.88"/>
<path d="M224,403.2 L224,416.88"/>
<path d="M226,403.2 L226,416.88"/>
<path d="M228,403.2 L228,416.88"/>
<path d="M230,403.2 L230,416.88"/>
<path d="M232,403.2 L232,416.88"/>
<path d="M234,403.2 L234,416.88"/>
<path d="M236,403.2 L236,416.88"/>
<path d="M238,403.2 L238,416.88"/>
<path d="M240,403.2 L240,416.88"/>
<path d="M242,403.2 L242,416.88"/>
<path d="M244,403.2 L244,416.88"/>
<path d="M246,403.2 L246,416.88"/>
<path d="M248,403.2 L248,416.88"/>
<path d="M250,403.2 L250,416.88"/>
<path d="M252,403.2 L252,416.88"/>
<path d="M254,403.2 L254,416.88"/>
<path d="M258,403.2 L258,416.88"/>
<path d="M260,403.2 L260,416.88"/>
<path d="M262,403.2 L262,416.88"/>
<path d="M264,403.2 L264,416.88"/>
<path d="M266,403.2 L266,416.88"/>
<path d="M268,403.2 L268,416.88"/>
<path d="M274,403.2 L274,416.88"/>
<path d="M276,403.2 L276,416.88"/>
<path d="M278,403.2 L278,416.88"/>
<path d="M282,403.2 L282,416.88"/>
<path d="M286,403.2 L286,416.88"/>
<path d="M288,403.2 L288,416.88"/>
<path d="M296,403.2 L296,416.88"/>
<path d="M312,403.2 L312,416.88"/>
<path d="M328,403.2 L328,416.88"/>
<path d="M346,403.2 L346,416.88"/>
<path d="M352,403.2 L352,416.88"/>
<path d="M356,403.2 L356,416.88"/>
<path d="M358,403.2 L358,416.88"/>
<path d="M368,403.2 L368,416.88"/>
<path d="M376,403.2 L376,416.88"/>
<path d="M382,403.2 L382,416.88"/>
<path d="M22,417.6 L22,431.28"/>
<path d="M40,417.6 L40,431.28"/>
<path d="M54,417.6 L54,431.28"/>
<path d="M62,417.6 L62,431.28"/>
<path d="M70,417.6 L70,431.28"/>
<path d="M72,417.6 L72,431.28"/>
<path d="M84,417.6 L84,431.28"/>
<path d="M96,417.6 L96,431.28"/>
<path d="M102,417.6 L102,431.28"/>
<path d="M106,417.6 L106,431.28"/>
<path d="M110,417.6 L110,431.28"/>
<path d="M126,417.6 L126,431.28"/>
<path d="M132,417.6 L132,431.28"/>
<path d="M142,417.6 L142,431.28"/>
<path d="M156,417.6 L156,431.28"/>
<path d="M158,417.6 L158,431.28"/>
<path d="M162,417.6 L162,431.28"/>
<path d="M176,417.6 L176,431.28"/>
<path d="M178,417.6 L178,431.28"/>
<path d="M180,417.6 L180,431.28"/>
<path d="M182,417.6 L182,431.28"/>
<path d="M184,417.6 L184,431.28"/>
<path d="M188,417.6 L188,431.28"/>
<path d="M192,417.6 L192,431.28"/>
<path d="M194,417.6 L194,431.28"/>
<path d="M198,417.6 L198,431.28"/>
<path d="M200,417.6 L200,431.28"/>
<path d="M202,417.6 L202,431.28"/>
<path d="M208,417.6 L208,431.28"/>
<path d="M212,417.6 L212,431.28"/>
<path d="M214,417.6 L214,431.28"/>
<path d="M216,417.6 L216,431.28"/>
<path d="M220,417.6 L220,431.28"/>
<path d="M222,417.6 L222,431.28"/>
<path d="M224,417.6 L224,431.28"/>
<path d="M226,417.6 L226,431.28"/>
<path d="M228,417.6 L228,431.28"/>
<path d="M230,417.6 L230,431.28"/>
<path d="M232,417.6 L232,431.28"/>
<path d="M234,417.6 L234,431.28"/>
<path d="M236,417.6 L236,431.28"/>
<path d="M238,417.6 L238,431.28"/>
<path d="M240,417.6 L240,431.28"/>
<path d="M242,417.6 L242,431.28"/>
<path d="M244,417.6 L244,431.28"/>
<path d="M246,417.6 L246,431.28"/>
<path d="M248,417.6 L248,431.28"/>
<path d="M250,417.6 L250,431.28"/>
<path d="M252,417.6 L252,431.28"/>
<path d="M254,417.6 L254,431.28"/>
<path d="M256,417.6 L256,431.28"/>
<path d="M258,417.6 L258,431.28"/>
<path d="M260,417.6 L260,431.28"/>
<path d="M262,417.6 L262,431.28"/>
<path d="M264,417.6 L264,431.28"/>
<path d="M266,417.6 L266,431.28"/>
<path d="M268,417.6 L268,431.28"/>
<path d="M270,417.6 L270,431.28"/>
<path d="M272,417.6 L272,431.28"/>
<path d="M274,417.6 L274,431.28"/>
<path d="M276,417.6 L276,431.28"/>
<path d="M280,417.6 L280,431.28"/>
<path d="M282,417.6 L282,431.28"/>
<path d="M284,417.6 L284,431.28"/>
<path d="M288,417.6 L288,431.28"/>
<path d="M294,417.6 L294,431.28"/>
<path d="M296,417.6 L296,431.28"/>
<path d="M298,417.6 L298,431.28"/>
<path d="M308,417.6 L308,431.28"/>
<path d="M314,417.6 L314,431.28"/>
<path d="M318,417.6 L318,431.28"/>
<path d="M328,417.6 L328,431.28"/>
<path d="M330,417.6 L330,431.28"/>
<path d="M334,417.6 L334,431.28"/>
<path d="M348,417.6 L348,431.28"/>
<path d="M354,417.6 L354,431.28"/>
<path d="M356,417.6 L356,431.28"/>
<path d="M372,417.6 L372,431.28"/>
<path d="M42,432 L42,445.68"/>
<path d="M48,432 L48,445.68"/>
<path d="M64,432 L64,445.68"/>
<path d="M80,432 L80,445.68"/>
<path d="M82,432 L82,445.68"/>
<path d="M86,432 L86,445.68"/>
<path d="M92,432 L92,445.68"/>
<path d="M98,432 L98,445.68"/>
<path d="M120,432 L120,445.68"/>
<path d="M124,432 L124,445.68"/>
<path d="M138,432 L138,445.68"/>
<path d="M148,432 L148,445.68"/>
<path d="M150,432 L150,445.68"/>
<path d="M158,432 L158,445.68"/>
<path d="M170,432 L170,445.68"/>
<path d="M174,432 L174,445.68"/>
<path d="M190,432 L190,445.68"/>
<path d="M196,432 L196,445.68"/>
<path d="M198,432 L198,445.68"/>
<path d="M206,432 L206,445.68"/>
<path d="M208,432 L208,445.68"/>
<path d="M212,432 L212,445.68"/>
<path d="M216,432 L216,445.68"/>
<path d="M218,432 L218,445.68"/>
<path d="M222,432 L222,445.68"/>
<path d="M224,432 L224,445.68"/>
<path d="M226,432 L226,445.68"/>
<path d="M228,432 L228,445.68"/>
<path d="M230,432 L230,445.68"/>
<path d="M232,432 L232,445.68"/>
<path d="M234,432 L234,445.68"/>
<path d="M236,432 L236,445.68"/>
<path d="M238,432 L238,445.68"/>
<path d="M240,432 L240,445.68"/>
<path d="M242,432 L242,445.68"/>
<path d="M244,432 L244,445.68"/>
<path d="M246,432 L246,445.68"/>
<path d="M248,432 L248,445.68"/>
<path d="M250,432 L250,445.68"/>
<path d="M252,432 L252,445.68"/>
<path d="M254,432 L254,445.68"/>
<path d="M256,432 L256,445.68"/>
<path d="M258,432 L258,445.68"/>
<path d="M260,432 L260,445.68"/>
<path d="M262,432 L262,445.68"/>
<path d="M264,432 L264,445.68"/>
<path d="M266,432 L266,445.68"/>
<path d="M268,432 L268,445.68"/>
<path d="M270,432 L270,445.68"/>
<path d="M272,432 L272,445.68"/>
<path d="M274,432 L274,445.68"/>
<path d="M276,432 L276,445.68"/>
<path d="M278,432 L278,445.68"/>
<path d="M280,432 L280,445.68"/>
<path d="M282,432 L282,445.68"/>
<path d="M284,432 L284,445.68"/>
<path d="M286,432 L286,445.68"/>
<path d="M288,432 L288,445.68"/>
<path d="M290,432 L290,445.68"/>
<path d="M292,432 L292,445.68"/>
<path d="M294,432 L294,445.68"/>
<path d="M296,432 L296,445.68"/>
<path d="M298,432 L298,445.68"/>
<path d="M300,432 L300,445.68"/>
<path d="M306,432 L306,445.68"/>
<path d="M310,432 L310,445.68"/>
<path d="M316,432 L316,445.68"/>
<path d="M318,432 L318,445.68"/>
<path d="M320,432 L320,445.68"/>
<path d="M324,432 L324,445.68"/>
<path d="M328,432 L328,445.68"/>
<path d="M330,432 L330,445.68"/>
<path d="M346,432 L346,445.68"/>
<path d="M364,432 L364,445.68"/>
<path d="M366,432 L366,445.68"/>
<path d="M368,432 L368,445.68"/>
<path d="M26,446.4 L26,460.08"/>
<path d="M32,446.4 L32,460.08"/>
<path d="M38,446.4 L38,460.08"/>
<path d="M64,446.4 L64,460.08"/>
<path d="M70,446.4 L70,460.08"/>
<path d="M96,446.4 L96,460.08"/>
<path d="M104,446.4 L104,460.08"/>
<path d="M122,446.4 L122,460.08"/>
<path d="M146,446.4 L146,460.08"/>
<path d="M148,446.4 L148,460.08"/>
<path d="M150,446.4 L150,460.08"/>
<path d="M172,446.4 L172,460.08"/>
<path d="M176,446.4 L176,460.08"/>
<path d="M184,446.4 L184,460.08"/>
<path d="M190,446.4 L190,460.08"/>
<path d="M192,446.4 L192,460.08"/>
<path d="M196,446.4 L196,460.08"/>
<path d="M198,446.4 L198,460.08"/>
<path d="M200,446.4 L200,460.08"/>
<path d="M202,446.4 L202,460.08"/>
<path d="M214,446.4 L214,460.08"/>
<path d="M216,446.4 L216,460.08"/>
<path d="M218,446.4 L218,460.08"/>
<path d="M224,446.4 L224,460.08"/>
<path d="M226,446.4 L226,460.08"/>
<path d="M228,446.4 L228,460.08"/>
<path d="M230,446.4 L230,460.08"/>
<path d="M234,446.4 L234,460.08"/>
<path d="M236,446.4 L236,460.08"/>
<path d="M238,446.4 L238,460.08"/>
<path d="M240,446.4 L240,460.08"/>
<path d="M242,446.4 L242,460.08"/>
<path d="M244,446.4 L244,460.08"/>
<path d="M246,446.4 L246,460.08"/>
<path d="M248,446.4 L248,460.08"/>
<path d="M250,446.4 L250,460.08"/>
<path d="M252,446.4 L252,460.08"/>
<path d="M254,446.4 L254,460.08"/>
<path d="M256,446.4 L256,460.08"/>
<path d="M258,446.4 L258,460.08"/>
<path d="M260,446.4 L260,460.08"/>
<path d="M262,446.4 L262,460.08"/>
<path d="M264,446.4 L264,460.08"/>
<path d="M266,446.4 L266,460.08"/>
<path d="M268,446.4 L268,460.08"/>
<path d="M270,446.4 L270,460.08"/>
<path d="M272,446.4 L272,460.08"/>
<path d="M274,446.4 L274,460.08"/>
<path d="M276,446.4 L276,460.08"/>
<path d="M278,446.4 L278,460.08"/>
<path d="M280,446.4 L280,460.08"/>
<path d="M282,446.4 L282,460.08"/>
<path d="M284,446.4 L284,460.08"/>
<path d="M286,446.4 L286,460.08"/>
<path d="M288,446.4 L288,460.08"/>
<path d="M290,446.4 L290,460.08"/>
<path d="M292,446.4 L292,460.08"/>
<path d="M294,446.4 L294,460.08"/>
<path d="M296,446.4 L296,460.08"/>
<path d="M298,446.4 L298,460.08"/>
<path d="M300,446.4 L300,460.08"/>
<path d="M302,446.4 L302,460.08"/>
<path d="M304,446.4 L304,460.08"/>
<path d="M306,446.4 L306,460.08"/>
<path d="M308,446.4 L308,460.08"/>
<path d="M310,446.4 L310,460.08"/>
<path d="M312,446.4 L312,460.08"/>
<path d="M314,446.4 L314,460.08"/>
<path d="M322,446.4 L322,460.08"/>
<path d="M326,446.4 L326,460.08"/>
<path d="M330,446.4 L330,460.08"/>
<path d="M334,446.4 L334,460.08"/>
<path d="M360,446.4 L360,460.08"/>
<path d="M372,446.4 L372,460.08"/>
<path d="M8,460.8 L8,474.48"/>
<path d="M24,460.8 L24,474.48"/>
<path d="M50,460.8 L50,474.48"/>
<path d="M56,460.8 L56,474.48"/>
<path d="M64,460.8 L64,474.48"/>
<path d="M80,460.8 L80,474.48"/>
<path d="M86,460.8 L86,474.48"/>
<path d="M88,460.8 L88,474.48"/>
<path d="M90,460.8 L90,474.48"/>
<path d="M92,460.8 L92,474.48"/>
<path d="M106,460.8 L106,474.48"/>
<path d="M114,460.8 L114,474.48"/>
<path d="M122,460.8 L122,474.48"/>
<path d="M130,460.8 L130,474.48"/>
<path d="M132,460.8 L132,474.48"/>
<path d="M136,460.8 L136,474.48"/>
<path d="M158,460.8 L158,474.48"/>
<path d="M164,460.8 L164,474.48"/>
<path d="M168,460.8 L168,474.48"/>
<path d="M188,460.8 L188,474.48"/>
<path d="M192,460.8 L192,474.48"/>
<path d="M198,460.8 L198,474.48"/>
<path d="M202,460.8 L202,474.48"/>
<path d="M204,460.8 L204,474.48"/>
<path d="M206,460.8 L206,474.48"/>
<path d="M208,460.8 L208,474.48"/>
<path d="M212,460.8 L212,474.48"/>
<path d="M214,460.8 L214,474.48"/>
<path d="M218,460.8 L218,474.48"/>
<path d="M220,460.8 L220,474.48"/>
<path d="M222,460.8 L222,474.48"/>
<path d="M224,460.8 L224,474.48"/>
<path d="M226,460.8 L226,474.48"/>
<path d="M228,460.8 L228,474.48"/>
<path d="M230,460.8 L230,474.48"/>
<path d="M232,460.8 L232,474.48"/>
<path d="M234,460.8 L234,474.48"/>
<path d="M236,460.8 L236,474.48"/>
<path d="M238,460.8 L238,474.48"/>
<path d="M240,460.8 L240,474.48"/>
<path d="M242,460.8 L242,474.48"/>
<path d="M244,460.8 L244,474.48"/>
<path d="M246,460.8 L246,474.48"/>
<path d="M248,460.8 L248,474.48"/>
<path d="M250,460.8 L250,474.48"/>
<path d="M252,460.8 L252,474.48"/>
<path d="M254,460.8 L254,474.48"/>
<path d="M256,460.8 L256,474.48"/>
<path d="M258,460.8 L258,474.48"/>
<path d="M260,460.8 L260,474.48"/>
<path d="M262,460.8 L262,474.48"/>
<path d="M264,460.8 L264,474.48"/>
<path d="M266,460.8 L266,474.48"/>
<path d="M268,460.8 L268,474.48"/>
<path d="M270,460.8 L270,474.48"/>
<path d="M272,460.8 L272,474.48"/>
<path d="M274,460.8 L274,474.48"/>
<path d="M276,460.8 L276,474.48"/>
<path d="M278,460.8 L278,474.48"/>
<path d="M282,460.8 L282,474.48"/>
<path d="M284,460.8 L284,474.48"/>
<path d="M286,460.8 L286,474.48"/>
<path d="M288,460.8 L288,474.48"/>
<path d="M290,460.8 L290,474.48"/>
<path d="M296,460.8 L296,474.48"/>
<path d="M306,460.8 L306,474.48"/>
<path d="M310,460.8 L310,474.48"/>
<path d="M312,460.8 L312,474.48"/>
<path d="M318,460.8 L318,474.48"/>
<path d="M328,460.8 L328,474.48"/>
<path d="M332,460.8 L332,474.48"/>
<path d="M336,460.8 L336,474.48"/>
<path d="M338,460.8 L338,474.48"/>
<path d="M344,460.8 L344,474.48"/>
<path d="M350,460.8 L350,474.48"/>
<path d="M352,460.8 L352,474.48"/>
<path d="M354,460.8 L354,474.48"/>
<path d="M358,460.8 L358,474.48"/>
<path d="M370,460.8 L370,474.48"/>
<path d="M4,475.2 L4,488.88"/>
<path d="M10,475.2 L10,488.88"/>
<path d="M14,475.2 L14,488.88"/>
<path d="M24,475.2 L24,488.88"/>
<path d="M46,475.2 L46,488.88"/>
<path d="M48,475.2 L48,488.88"/>
<path d="M62,475.2 L62,488.88"/>
<path d="M92,475.2 L92,488.88"/>
<path d="M98,475.2 L98,488.88"/>
<path d="M106,475.2 L106,488.88"/>
<path d="M112,475.2 L112,488.88"/>
<path d="M116,475.2 L116,488.88"/>
<path d="M128,475.2 L128,488.88"/>
<path d="M154,475.2 L154,488.88"/>
<path d="M166,475.2 L166,488.88"/>
<path d="M168,475.2 L168,488.88"/>
<path d="M172,475.2 L172,488.88"/>
<path d="M174,475.2 L174,488.88"/>
<path d="M178,475.2 L178,488.88"/>
<path d="M180,475.2 L180,488.88"/>
<path d="M186,475.2 L186,488.88"/>
<path d="M190,475.2 L190,488.88"/>
<path d="M192,475.2 L192,488.88"/>
<path d="M194,475.2 L194,488.88"/>
<path d="M198,475.2 L198,488.88"/>
<path d="M202,475.2 L202,488.88"/>
<path d="M204,475.2 L204,488.88"/>
<path d="M206,475.2 L206,488.88"/>
<path d="M208,475.2 L208,488.88"/>
<path d="M210,475.2 L210,488.88"/>
<path d="M212,475.2 L212,488.88"/>
<path d="M214,475.2 L214,488.88"/>
<path d="M216,475.2 L216,488.88"/>
<path d="M218,475.2 L218,488.88"/>
<path d="M220,475.2 L220,488.88"/>
<path d="M222,475.2 L222,488.88"/>
<path d="M224,475.2 L224,488.88"/>
<path d="M226,475.2 L226,488.88"/>
<path d="M228,475.2 L228,488.88"/>
<path d="M230,475.2 L230,488.88"/>
<path d="M232,475.2 L232,488.88"/>
<path d="M234,475.2 L234,488.88"/>
<path d="M236,475.2 L236,488.88"/>
<path d="M238,475.2 L238,488.88"/>
<path d="M240,475.2 L240,488.88"/>
<path d="M242,475.2 L242,488.88"/>
<path d="M244,475.2 L244,488.88"/>
<path d="M246,475.2 L246,488.88"/>
<path d="M248,475.2 L248,488.88"/>
<path d="M250,475.2 L250,488.88"/>
<path d="M252,475.2 L252,488.88"/>
<path d="M256,475.2 L256,488.88"/>
<path d="M258,475.2 L258,488.88"/>
<path d="M262,475.2 L262,488.88"/>
<path d="M264,475.2 L264,488.88"/>
<path d="M270,475.2 L270,488.88"/>
<path d="M274,475.2 L274,488.88"/>
<path d="M282,475.2 L282,488.88"/>
<path d="M294,475.2 L294,488.88"/>
<path d="M296,475.2 L296,488.88"/>
<path d="M298,475.2 L298,488.88"/>
<path d="M302,475.2 L302,488.88"/>
<path d="M306,475.2 L306,488.88"/>
<path d="M310,475.2 L310,488.88"/>
<path d="M316,475.2 L316,488.88"/>
<path d="M324,475.2 L324,488.88"/>
<path d="M330,475.2 L330,488.88"/>
<path d="M336,475.2 L336,488.88"/>
<path d="M18,489.6 L18,503.28"/>
<path d="M20,489.6 L20,503.28"/>
<path d="M48,489.6 L48,503.28"/>
<path d="M66,489.6 L66,503.28"/>
<path d="M84,489.6 L84,503.28"/>
<path d="M98,489.6 L98,503.28"/>
<path d="M100,489.6 L100,503.28"/>
<path d="M102,489.6 L102,503.28"/>
<path d="M106,489.6 L106,503.28"/>
<path d="M110,489.6 L110,503.28"/>
<path d="M120,489.6 L120,503.28"/>
<path d="M126,489.6 L126,503.28"/>
<path d="M134,489.6 L134,503.28"/>
<path d="M138,489.6 L138,503.28"/>
<path d="M142,489.6 L142,503.28"/>
<path d="M146,489.6 L146,503.28"/>
<path d="M154,489.6 L154,503.28"/>
<path d="M156,489.6 L156,503.28"/>
<path d="M164,489.6 L164,503.28"/>
<path d="M168,489.6 L168,503.28"/>
<path d="M170,489.6 L170,503.28"/>
<path d="M176,489.6 L176,503.28"/>
<path d="M184,489.6 L184,503.28"/>
<path d="M186,489.6 L186,503.28"/>
<path d="M188,489.6 L188,503.28"/>
<path d="M190,489.6 L190,503.28"/>
<path d="M192,489.6 L192,503.28"/>
<path d="M194,489.6 L194,503.28"/>
<path d="M196,489.6 L196,503.28"/>
<path d="M198,489.6 L198,503.28"/>
<path d="M200,489.6 L200,503.28"/>
<path d="M202,489.6 L202,503.28"/>
<path d="M204,489.6 L204,503.28"/>
<path d="M206,489.6 L206,503.28"/>
<path d="M208,489.6 L208,503.28"/>
<path d="M210,489.6 L210,503.28"/>
<path d="M212,489.6 L212,503.28"/>
<path d="M214,489.6 L214,503.28"/>
<path d="M216,489.6 L216,503.28"/>
<path d="M218,489.6 L218,503.28"/>
<path d="M220,489.6 L220,503.28"/>
<path d="M222,489.6 L222,503.28"/>
<path d="M224,489.6 L224,503.28"/>
<path d="M226,489.6 L226,503.28"/>
<path d="M228,489.6 L228,503.28"/>
<path d="M230,489.6 L230,503.28"/>
<path d="M232,489.6 L232,503.28"/>
<path d="M234,489.6 L234,503.28"/>
<path d="M238,489.6 L238,503.28"/>
<path d="M240,489.6 L240,503.28"/>
<path d="M242,489.6 L242,503.28"/>
<path d="M250,489.6 L250,503.28"/>
<path d="M252,489.6 L252,503.28"/>
<path d="M260,489.6 L260,503.28"/>
<path d="M266,489.6 L266,503.28"/>
<path d="M268,489.6 L268,503.28"/>
<path d="M274,489.6 L274,503.28"/>
<path d="M276,489.6 L276,503.28"/>
<path d="M278,489.6 L278,503.28"/>
<path d="M296,489.6 L296,503.28"/>
<path d="M306,489.6 L306,503.28"/>
<path d="M308,489.6 L308,503.28"/>
<path d="M334,489.6 L334,503.28"/>
<path d="M336,489.6 L336,503.28"/>
<path d="M342,489.6 L342,503.28"/>
<path d="M346,489.6 L346,503.28"/>
<path d="M354,489.6 L354,503.28"/>
<path d="M358,489.6 L358,503.28"/>
<path d="M372,489.6 L372,503.28"/>
<path d="M374,489.6 L374,503.28"/>
<path d="M12,504 L12,517.68"/>
<path d="M56,504 L56,517.68"/>
<path d="M60,504 L60,517.68"/>
<path d="M80,504 L80,517.68"/>
<path d="M86,504 L86,517.68"/>
<path d="M96,504 L96,517.68"/>
<path d="M100,504 L100,517.68"/>
<path d="M116,504 L116,517.68"/>
<path d="M118,504 L118,517.68"/>
<path d="M122,504 L122,517.68"/>
<path d="M140,504 L140,517.68"/>
<path d="M148,504 L148,517.68"/>
<path d="M150,504 L150,517.68"/>
<path d="M152,504 L152,517.68"/>
<path d="M156,504 L156,517.68"/>
<path d="M158,504 L158,517.68"/>
<path d="M164,504 L164,517.68"/>
<path d="M166,504 L166,517.68"/>
<path d="M168,504 L168,517.68"/>
<path d="M170,504 L170,517.68"/>
<path d="M172,504 L172,517.68"/>
<path d="M176,504 L176,517.68"/>
<path d="M178,504 L178,517.68"/>
<path d="M180,504 L180,517.68"/>
<path d="M182,504 L182,517.68"/>
<path d="M184,504 L184,517.68"/>
<path d="M186,504 L186,517.68"/>
<path d="M188,504 L188,517.68"/>
<path d="M190,504 L190,517.68"/>
<path d="M192,504 L192,517.68"/>
<path d="M194,504 L194,517.68"/>
<path d="M196,504 L196,517.68"/>
<path d="M198,504 L198,517.68"/>
<path d="M200,504 L200,517.68"/>
<path d="M202,504 L202,517.68"/>
<path d="M204,504 L204,517.68"/>
<path d="M206,504 L206,517.68"/>
<path d="M208,504 L208,517.68"/>
<path d="M210,504 L210,517.68"/>
<path d="M212,504 L212,517.68"/>
<path d="M214,504 L214,517.68"/>
<path d="M216,504 L216,517.68"/>
<path d="M218,504 L218,517.68"/>
<path d="M220,504 L220,517.68"/>
<path d="M222,504 L222,517.68"/>
<path d="M226,504 L226,517.68"/>
<path d="M228,504 L228,517.68"/>
<path d="M230,504 L230,517.68"/>
<path d="M232,504 L232,517.68"/>
<path d="M234,504 L234,517.68"/>
<path d="M236,504 L236,517.68"/>
<path d="M238,504 L238,517.68"/>
<path d="M240,504 L240,517.68"/>
<path d="M250,504 L250,517.68"/>
<path d="M252,504 L252,517.68"/>
<path d="M258,504 L258,517.68"/>
<path d="M264,504 L264,517.68"/>
<path d="M282,504 L282,517.68"/>
<path d="M284,504 L284,517.68"/>
<path d="M296,504 L296,517.68"/>
<path d="M304,504 L304,517.68"/>
<path d="M308,504 L308,517.68"/>
<path d="M312,504 L312,517.68"/>
<path d="M318,504 L318,517.68"/>
<path d="M320,504 L320,517.68"/>
<path d="M324,504 L324,517.68"/>
<path d="M346,504 L346,517.68"/>
<path d="M348,504 L348,517.68"/>
<path d="M360,504 L360,517.68"/>
<path d="M4,518.4 L4,532.08"/>
<path d="M14,518.4 L14,532.08"/>
<path d="M22,518.4 L22,532.08"/>
<path d="M26,518.4 L26,532.08"/>
<path d="M42,518.4 L42,532.08"/>
<path d="M58,518.4 L58,532.08"/>
<path d="M90,518.4 L90,532.08"/>
<path d="M152,518.4 L152,532.08"/>
<path d="M156,518.4 L156,532.08"/>
<path d="M160,518.4 L160,532.08"/>
<path d="M170,518.4 L170,532.08"/>
<path d="M172,518.4 L172,532.08"/>
<path d="M174,518.4 L174,532.08"/>
<path d="M176,518.4 L176,532.08"/>
<path d="M178,518.4 L178,532.08"/>
<path d="M180,518.4 L180,532.08"/>
<path d="M182,518.4 L182,532.08"/>
<path d="M184,518.4 L184,532.08"/>
<path d="M186,518.4 L186,532.08"/>
<path d="M188,518.4 L188,532.08"/>
<path d="M190,518.4 L190,532.08"/>
<path d="M192,518.4 L192,532.08"/>
<path d="M194,518.4 L194,532.08"/>
<path d="M196,518.4 L196,532.08"/>
<path d="M198,518.4 L198,532.08"/>
<path d="M200,518.4 L200,532.08"/>
<path d="M202,518.4 L202,532.08"/>
<path d="M204,518.4 L204,532.08"/>
<path d="M206,518.4 L206,532.08"/>
<path d="M208,518.4 L208,532.08"/>
<path d="M210,518.4 L210,532.08"/>
<path d="M212,518.4 L212,532.08"/>
<path d="M214,518.4 L214,532.08"/>
<path d="M216,518.4 L216,532.08"/>
<path d="M218,518.4 L218,532.08"/>
<path d="M220,518.4 L220,532.08"/>
<path d="M222,518.4 L222,532.08"/>
<path d="M228,518.4 L228,532.08"/>
<path d="M230,518.4 L230,532.08"/>
<path d="M236,518.4 L236,532.08"/>
<path d="M240,518.4 L240,532.08"/>
<path d="M252,518.4 L252,532.08"/>
<path d="M258,518.4 L258,532.08"/>
<path d="M260,518.4 L260,532.08"/>
<path d="M276,518.4 L276,532.08"/>
<path d="M278,518.4 L278,532.08"/>
<path d="M286,518.4 L286,532.08"/>
<path d="M296,518.4 L296,532.08"/>
<path d="M298,518.4 L298,532.08"/>
<path d="M314,518.4 L314,532.08"/>
<path d="M338,518.4 L338,532.08"/>
<path d="M344,518.4 L344,532.08"/>
<path d="M350,518.4 L350,532.08"/>
<path d="M352,518.4 L352,532.08"/>
<path d="M4,532.8 L4,546.48"/>
<path d="M6,532.8 L6,546.48"/>
<path d="M16,532.8 L16,546.48"/>
<path d="M32,532.8 L32,546.48"/>
<path d="M58,532.8 L58,546.48"/>
<path d="M62,532.8 L62,546.48"/>
<path d="M118,532.8 L118,546.48"/>
<path d="M122,532.8 L122,546.48"/>
<path d="M126,532.8 L126,546.48"/>
<path d="M128,532.8 L128,546.48"/>
<path d="M132,532.8 L132,546.48"/>
<path d="M144,532.8 L144,546.48"/>
<path d="M152,532.8 L152,546.48"/>
<path d="M162,532.8 L162,546.48"/>
<path d="M168,532.8 L168,546.48"/>
<path d="M172,532.8 L172,546.48"/>
<path d="M174,532.8 L174,546.48"/>
<path d="M176,532.8 L176,546.48"/>
<path d="M178,532.8 L178,546.48"/>
<path d="M180,532.8 L180,546.48"/>
<path d="M182,532.8 L182,546.48"/>
<path d="M184,532.8 L184,546.48"/>
<path d="M186,532.8 L186,546.48"/>
<path d="M188,532.8 L188,546.48"/>
<path d="M190,532.8 L190,546.48"/>
<path d="M192,532.8 L192,546.48"/>
<path d="M194,532.8 L194,546.48"/>
<path d="M196,532.8 L196,546.48"/>
<path d="M198,532.8 L198,546.48"/>
<path d="M200,532.8 L200,546.48"/>
<path d="M202,532.8 L202,546.48"/>
<path d="M204,532.8 L204,546.48"/>
<path d="M206,532.8 L206,546.48"/>
<path d="M208,532.8 L208,546.48"/>
<path d="M210,532.8 L210,546.48"/>
<path d="M216,532.8 L216,546.48"/>
<path d="M218,532.8 L218,546.48"/>
<path d="M220,532.8 L220,546.48"/>
<path d="M224,532.8 L224,546.48"/>
<path d="M226,532.8 L226,546.48"/>
<path d="M228,532.8 L228,546.48"/>
<path d="M232,532.8 L232,546.48"/>
<path d="M234,532.8 L234,546.48"/>
<path d="M238,532.8 L238,546.48"/>
<path d="M242,532.8 L242,546.48"/>
<path d="M244,532.8 L244,546.48"/>
<path d="M250,532.8 L250,546.48"/>
<path d="M254,532.8 L254,546.48"/>
<path d="M256,532.8 L256,546.48"/>
<path d="M258,532.8 L258,546.48"/>
<path d="M262,532.8 L262,546.48"/>
<path d="M264,532.8 L264,546.48"/>
<path d="M268,532.8 L268,546.48"/>
<path d="M270,532.8 L270,546.48"/>
<path d="M276,532.8 L276,546.48"/>
<path d="M282,532.8 L282,546.48"/>
<path d="M284,532.8 L284,546.48"/>
<path d="M316,532.8 L316,546.48"/>
<path d="M318,532.8 L318,546.48"/>
<path d="M324,532.8 L324,546.48"/>
<path d="M336,532.8 L336,546.48"/>
<path d="M354,532.8 L354,546.48"/>
<path d="M356,532.8 L356,546.48"/>
<path d="M364,532.8 L364,546.48"/>
<path d="M382,532.8 L382,546.48"/>
<path d="M4,547.2 L4,560.88"/>
<path d="M24,547.2 L24,560.88"/>
<path d="M56,547.2 L56,560.88"/>
<path d="M66,547.2 L66,560.88"/>
<path d="M70,547.2 L70,560.88"/>
<path d="M80,547.2 L80,560.88"/>
<path d="M82,547.2 L82,560.88"/>
<path d="M94,547.2 L94,560.88"/>
<path d="M98,547.2 L98,560.88"/>
<path d="M120,547.2 L120,560.88"/>
<path d="M126,547.2 L126,560.88"/>
<path d="M128,547.2 L128,560.88"/>
<path d="M130,547.2 L130,560.88"/>
<path d="M142,547.2 L142,560.88"/>
<path d="M152,547.2 L152,560.88"/>
<path d="M158,547.2 L158,560.88"/>
<path d="M162,547.2 L162,560.88"/>
<path d="M164,547.2 L164,560.88"/>
<path d="M166,547.2 L166,560.88"/>
<path d="M170,547.2 L170,560.88"/>
<path d="M174,547.2 L174,560.88"/>
<path d="M176,547.2 L176,560.88"/>
<path d="M178,547.2 L178,560.88"/>
<path d="M180,547.2 L180,560.88"/>
<path d="M182,547.2 L182,560.88"/>
<path d="M184,547.2 L184,560.88"/>
<path d="M186,547.2 L186,560.88"/>
<path d="M188,547.2 L188,560.88"/>
<path d="M190,547.2 L190,560.88"/>
<path d="M192,547.2 L192,560.88"/>
<path d="M194,547.2 L194,560.88"/>
<path d="M196,547.2 L196,560.88"/>
<path d="M198,547.2 L198,560.88"/>
<path d="M200,547.2 L200,560.88"/>
<path d="M202,547.2 L202,560.88"/>
<path d="M204,547.2 L204,560.88"/>
<path d="M206,547.2 L206,560.88"/>
<path d="M208,547.2 L208,560.88"/>
<path d="M210,547.2 L210,560.88"/>
<path d="M212,547.2 L212,560.88"/>
<path d="M214,547.2 L214,560.88"/>
<path d="M216,547.2 L216,560.88"/>
<path d="M218,547.2 L218,560.88"/>
<path d="M220,547.2 L220,560.88"/>
<path d="M226,547.2 L226,560.88"/>
<path d="M234,547.2 L234,560.88"/>
<path d="M236,547.2 L236,560.88"/>
<path d="M238,547.2 L238,560.88"/>
<path d="M246,547.2 L246,560.88"/>
<path d="M270,547.2 L270,560.88"/>
<path d="M274,547.2 L274,560.88"/>
<path d="M278,547.2 L278,560.88"/>
<path d="M288,547.2 L288,560.88"/>
<path d="M312,547.2 L312,560.88"/>
<path d="M332,547.2 L332,560.88"/>
<path d="M378,547.2 L378,560.88"/>
<path d="M14,561.6 L14,575.28"/>
<path d="M60,561.6 L60,575.28"/>
<path d="M64,561.6 L64,575.28"/>
<path d="M66,561.6 L66,575.28"/>
<path d="M72,561.6 L72,575.28"/>
<path d="M92,561.6 L92,575.28"/>
<path d="M98,561.6 L98,575.28"/>
<path d="M112,561.6 L112,575.28"/>
<path d="M124,561.6 L124,575.28"/>
<path d="M126,561.6 L126,575.28"/>
<path d="M128,561.6 L128,575.28"/>
<path d="M132,561.6 L132,575.28"/>
<path d="M140,561.6 L140,575.28"/>
<path d="M146,561.6 L146,575.28"/>
<path d="M148,561.6 L148,575.28"/>
<path d="M154,561.6 L154,575.28"/>
<path d="M156,561.6 L156,575.28"/>
<path d="M158,561.6 L158,575.28"/>
<path d="M162,561.6 L162,575.28"/>
<path d="M164,561.6 L164,575.28"/>
<path d="M168,561.6 L168,575.28"/>
<path d="M174,561.6 L174,575.28"/>
<path d="M176,561.6 L176,575.28"/>
<path d="M178,561.6 L178,575.28"/>
<path d="M180,561.6 L180,575.28"/>
<path d="M182,561.6 L182,575.28"/>
<path d="M184,561.6 L184,575.28"/>
<path d="M186,561.6 L186,575.28"/>
<path d="M188,561.6 L188,575.28"/>
<path d="M190,561.6 L190,575.28"/>
<path d="M192,561.6 L192,575.28"/>
<path d="M194,561.6 L194,575.28"/>
<path d="M196,561.6 L196,575.28"/>
<path d="M198,561.6 L198,575.28"/>
<path d="M200,561.6 L200,575.28"/>
<path d="M202,561.6 L202,575.28"/>
<path d="M204,561.6 L204,575.28"/>
<path d="M206,561.6 L206,575.28"/>
<path d="M208,561.6 L208,575.28"/>
<path d="M210,561.6 L210,575.28"/>
<path d="M212,561.6 L212,575.28"/>
<path d="M214,561.6 L214,575.28"/>
<path d="M216,561.6 L216,575.28"/>
<path d="M218,561.6 L218,575.28"/>
<path d="M220,561.6 L220,575.28"/>
<path d="M222,561.6 L222,575.28"/>
<path d="M224,561.6 L224,575.28"/>
<path d="M226,561.6 L226,575.28"/>
<path d="M228,561.6 L228,575.28"/>
<path d="M230,561.6 L230,575.28"/>
<path d="M234,561.6 L234,575.28"/>
<path d="M244,561.6 L244,575.28"/>
<path d="M248,561.6 L248,575.28"/>
<path d="M252,561.6 L252,575.28"/>
<path d="M262,561.6 L262,575.28"/>
<path d="M272,561.6 L272,575.28"/>
<path d="M278,561.6 L278,575.28"/>
<path d="M284,561.6 L284,575.28"/>
<path d="M316,561.6 L316,575.28"/>
<path d="M318,561.6 L318,575.28"/>
<path d="M326,561.6 L326,575.28"/>
<path d="M330,561.6 L330,575.28"/>
<path d="M370,561.6 L370,575.28"/>
<path d="M374,561.6 L374,575.28"/>
</g>
</svg>