<svg height="576px" viewBox="0 0 384 576" width="384px" xmlns="http://www.w3.org/2000/svg" xmlns:inkscape="http://www.inkscape.org/namespaces/inkscape">
<g fill="none" id="1" stroke="black" stroke-width="0.45mm">
<path d="M0,0 L0,600"/>
<path d="M4,0 L4,600"/>
<path d="M8,0 L8,600"/>
<path d="M12,0 L12,600"/>
<path d="M16,0 L16,600"/>
<path d="M20,0 L20,600"/>
<path d="M24,0 L24,600"/>
<path d="M28,0 L28,600"/>
<path d="M32,0 L32,600"/>
<path d="M36,0 L36,600"/>
<path d="M40,0 L40,600"/>
<path d="M44,0 L44,600"/>
<path d="M48,0 L48,600"/>
<path d="M52,0 L52,600"/>
<path d="M56,0 L56,600"/>
<path d="M60,0 L60,600"/>
<path d="M64,0 L64,600"/>
<path d="M68,0 L68,600"/>
<path d="M72,0 L72,600"/>
<path d="M76,0 L76,600"/>
<path d="M80,0 L80,600"/>
<path d="M84,0 L84,600"/>
<path d="M88,0 L88,600"/>
<path d="M92,0 L92,600"/>
<path d="M96,0 L96,600"/>
<path d="M100,0 L100,600"/>
<path d="M104,0 L104,600"/>
<path d="M108,0 L108,600"/>
<path d="M112,0 L112,600"/>
<path d="M116,0 L116,600"/>
<path d="M120,0 L120,600"/>
<path d="M124,0 L124,600"/>
<path d="M128,0 L128,600"/>
<path d="M132,0 L132,600"/>
<path d="M136,0 L136,600"/>
<path d="M140,0 L140,600"/>
<path d="M144,0 L144,600"/>
<path d="M148,0 L148,600"/>
<path d="M152,0 L152,600"/>
<path d="M156,0 L156,600"/>
<path d="M160,0 L160,600"/>
<path d="M164,0 L164,600"/>
<path d="M168,0 L168,600"/>
<path d="M172,0 L172,600"/>
<path d="M176,0 L176,600"/>
<path d="M180,0 L180,600"/>
<path d="M184,0 L184,600"/>
<path d="M188,0 L188,600"/>
<path d="M192,0 L192,600"/>
<path d="M196,0 L196,600"/>
<path d="M200,0 L200,600"/>
<path d="M204,0 L204,600"/>
<path d="M208,0 L208,600"/>
<path d="M212,0 L212,600"/>
<path d="M216,0 L216,600"/>
<path d="M220,0 L220,600"/>
<path d="M224,0 L224,600"/>
<path d="M228,0 L228,600"/>
<path d="M232,0 L232,600"/>
<path d="M236,0 L236,600"/>
<path d="M240,0 L240,600"/>
<path d="M244,0 L244,600"/>
<path d="M248,0 L248,600"/>
<path d="M252,0 L252,600"/>
<path d="M256,0 L256,600"/>
<path d="M260,0 L260,600"/>
<path d="M264,0 L264,600"/>
<path d="M268,0 L268,600"/>
<path d="M272,0 L272,600"/>
<path d="M276,0 L276,600"/>
<path d="M280,0 L280,600"/>
<path d="M284,0 L284,600"/>
<path d="M288,0 L288,600"/>
<path d="M292,0 L292,600"/>
<path d="M296,0 L296,600"/>
<path d="M300,0 L300,600"/>
<path d="M304,0 L304,600"/>
<path d="M308,0 L308,600"/>
<path d="M312,0 L312,600"/>
<path d="M316,0 L316,600"/>
<path d="M320,0 L320,600"/>
<path d="M324,0 L324,600"/>
<path d="M328,0 L328,600"/>
<path d="M332,0 L332,600"/>
<path d="M336,0 L336,600"/>
<path d="M340,0 L340,600"/>
<path d="M344,0 L344,600"/>
<path d="M348,0 L348,600"/>
<path d="M352,0 L352,600"/>
<path d="M356,0 L356,600"/>
<path d="M360,0 L360,600"/>
<path d="M364,0 L364,600"/>
<path d="M368,0 L368,600"/>
<path d="M372,0 L372,600"/>
<path d="M376,0 L376,600"/>
<path d="M380,0 L380,600"/>
<path d="M384,0 L384,600"/>
<path d="M388,0 L388,600"/>
<path d="M392,0 L392,600"/>
<path d="M396,0 L396,600"/>
<path d="M400,0 L400,600"/>
<path d="M404,0 L404,600"/>
<path d="M408,0 L408,600"/>
<path d="M412,0 L412,600"/>
<path d="M416,0 L416,600"/>
<path d="M420,0 L420,600"/>
<path d="M424,0 L424,600"/>
<path d="M428,0 L428,600"/>
<path d="M432,0 L432,600"/>
<path d="M436,0 L436,600"/>
<path d="M440,0 L440,600"/>
<path d="M444,0 L444,600"/>
<path d="M448,0 L448,600"/>
<path d="M452,0 L452,600"/>
<path d="M456,0 L456,600"/>
<path d="M460,0 L460,600"/>
<path d="M464,0 L464,600"/>
<path d="M468,0 L468,600"/>
<path d="M472,0 L472,600"/>
<path d="M476,0 L476,600"/>
<path d="M480,0 L480,600"/>
<path d="M484,0 L484,600"/>
<path d="M488,0 L488,600"/>
<path d="M492,0 L492,600"/>
<path d="M496,0 L496,600"/>
<path d="M500,0 L500,600"/>
<path d="M504,0 L504,600"/>
<path d="M508,0 L508,600"/>
<path d="M512,0 L512,600"/>
<path d="M516,0 L516,600"/>
<path d="M520,0 L520,600"/>
<path d="M524,0 L524,600"/>
<path d="M528,0 L528,600"/>
<path d="M532,0 L532,600"/>
<path d="M536,0 L536,600"/>
<path d="M540,0 L540,600"/>
<path d="M544,0 L544,600"/>
<path d="M548,0 L548,600"/>
<path d="M552,0 L552,600"/>
<path d="M556,0 L556,600"/>
<path d="M560,0 L560,600"/>
<path d="M564,0 L564,600"/>
<path d="M568,0 L568,600"/>
<path d="M572,0 L572,600"/>
<path d="M576,0 L576,600"/>
<path d="M580,0 L580,600"/>
<path d="M584,0 L584,600"/>
<path d="M588,0 L588,600"/>
<path d="M592,0 L592,600"/>
<path d="M596,0 L596,600"/>
<path d="M0,0 L0,600"/>
<path d="M4,0 L4,600"/>
<path d="M8,0 L8,600"/>
<path d="M12,0 L12,600"/>
<path d="M16,0 L16,600"/>
<path d="M20,0 L20,600"/>
<path d="M24,0 L24,600"/>
<path d="M28,0 L28,600"/>
<path d="M32,0 L32,600"/>
<path d="M36,0 L36,600"/>
<path d="M40,0 L40,600"/>
<path d="M44,0 L44,600"/>
<path d="M48,0 L48,600"/>
<path d="M52,0 L52,600"/>
<path d="M56,0 L56,600"/>
<path d="M60,0 L60,600"/>
<path d="M64,0 L64,600"/>
<path d="M68,0 L68,600"/>
<path d="M72,0 L72,600"/>
<path d="M76,0 L76,600"/>
<path d="M80,0 L80,600"/>
<path d="M84,0 L84,600"/>
<path d="M88,0 L88,600"/>
<path d="M92,0 L92,600"/>
<path d="M96,0 L96,600"/>
<path d="M100,0 L100,600"/>
<path d="M104,0 L104,600"/>
<path d="M108,0 L108,600"/>
<path d="M112,0 L112,600"/>
<path d="M116,0 L116,600"/>
<path d="M120,0 L120,600"/>
<path d="M124,0 L124,600"/>
<path d="M128,0 L128,600"/>
<path d="M132,0 L132,600"/>
<path d="M136,0 L136,600"/>
<path d="M140,0 L140,600"/>
<path d="M144,0 L144,600"/>
<path d="M148,0 L148,600"/>
<path d="M152,0 L152,600"/>
<path d="M156,0 L156,600"/>
<path d="M160,0 L160,600"/>
<path d="M164,0 L164,600"/>
<path d="M168,0 L168,600"/>
<path d="M172,0 L172,600"/>
<path d="M176,0 L176,600"/>
<path d="M180,0 L180,600"/>
<path d="M184,0 L184,600"/>
<path d="M188,0 L188,600"/>
<path d="M192,0 L192,600"/>
<path d="M196,0 L196,600"/>
<path d="M200,0 L200,600"/>
<path d="M204,0 L204,600"/>
<path d="M208,0 L208,600"/>
<path d="M212,0 L212,600"/>
<path d="M216,0 L216,600"/>
<path d="M220,0 L220,600"/>
<path d="M224,0 L224,600"/>
<path d="M228,0 L228,600"/>
<path d="M232,0 L232,600"/>
<path d="M236,0 L236,600"/>
<path d="M240,0 L240,600"/>
<path d="M244,0 L244,600"/>
<path d="M248,0 L248,600"/>
<path d="M252,0 L252,600"/>
<path d="M256,0 L256,600"/>
<path d="M260,0 L260,600"/>
<path d="M264,0 L264,600"/>
<path d="M268,0 L268,600"/>
<path d="M272,0 L272,600"/>
<path d="M276,0 L276,600"/>
<path d="M280,0 L280,600"/>
<path d="M284,0 L284,600"/>
<path d="M288,0 L288,600"/>
<path d="M292,0 L292,600"/>
<path d="M296,0 L296,600"/>
<path d="M300,0 L300,600"/>
<path d="M304,0 L304,600"/>
<path d="M308,0 L308,600"/>
<path d="M312,0 L312,600"/>
<path d="M316,0 L316,600"/>
<path d="M320,0 L320,600"/>
<path d="M324,0 L324,600"/>
<path d="M328,0 L328,600"/>
<path d="M332,0 L332,600"/>
<path d="M336,0 L336,600"/>
<path d="M340,0 L340,600"/>
<path d="M344,0 L344,600"/>
<path d="M348,0 L348,600"/>
<path d="M352,0 L352,600"/>
<path d="M356,0 L356,600"/>
<path d="M360,0 L360,600"/>
<path d="M364,0 L364,600"/>
<path d="M368,0 L368,600"/>
<path d="M372,0 L372,600"/>
<path d="M376,0 L376,600"/>
<path d="M380,0 L380,600"/>
<path d="M384,0 L384,600"/>
<path d="M388,0 L388,600"/>
<path d="M392,0 L392,600"/>
<path d="M396,0 L396,600"/>
<path d="M400,0 L400,600"/>
<path d="M404,0 L404,600"/>
<path d="M408,0 L408,600"/>
<path d="M412,0 L412,600"/>
<path d="M416,0 L416,600"/>
<path d="M420,0 L420,600"/>
<path d="M424,0 L424,600"/>
<path d="M428,0 L428,600"/>
<path d="M432,0 L432,600"/>
<path d="M436,0 L436,600"/>
<path d="M440,0 L440,600"/>
<path d="M444,0 L444,600"/>
<path d="M448,0 L448,600"/>
<path d="M452,0 L452,600"/>
<path d="M456,0 L456,600"/>
<path d="M460,0 L460,600"/>
<path d="M464,0 L464,600"/>
<path d="M468,0 L468,600"/>
<path d="M472,0 L472,600"/>
<path d="M476,0 L476,600"/>
<path d="M480,0 L480,600"/>
<path d="M484,0 L484,600"/>
<path d="M488,0 L488,600"/>
<path d="M492,0 L492,600"/>
<path d="M496,0 L496,600"/>
<path d="M500,0 L500,600"/>
<path d="M504,0 L504,600"/>
<path d="M508,0 L508,600"/>
<path d="M512,0 L512,600"/>
<path d="M516,0 L516,600"/>
<path d="M520,0 L520,600"/>
<path d="M524,0 L524,600"/>
<path d="M528,0 L528,600"/>
<path d="M532,0 L532,600"/>
<path d="M536,0 L536,600"/>
<path d="M540,0 L540,600"/>
<path d="M544,0 L544,600"/>
<path d="M548,0 L548,600"/>
<path d="M552,0 L552,600"/>
<path d="M556,0 L556,600"/>
<path d="M560,0 L560,600"/>
<path d="M564,0 L564,600"/>
<path d="M568,0 L568,600"/>
<path d="M572,0 L572,600"/>
<path d="M576,0 L576,600"/>
<path d="M580,0 L580,600"/>
<path d="M584,0 L584,600"/>
<path d="M588,0 L588,600"/>
<path d="M592,0 L592,600"/>
<path d="M596,0 L596,600"/>
</g>
</svg>