<svg height="1122.24px" viewBox="0 0 793.92 1122.24" width="793.92px" xmlns="http://www.w3.org/2000/svg" xmlns:inkscape="http://www.inkscape.org/namespaces/inkscape">
<g fill="none" id="layer1" inkscape:groupmode="layer" inkscape:label="1" stroke="black" stroke-width="0.45mm">
<path d="M411.93674,553.6379 L411.73877,572.73175 L432.2943,572.11884 z"/>
<path d="M432.2943,572.11884 L433.455,553.0809 L411.93674,553.6379 z"/>
<path d="M411.73877,572.73175 L425.19193,590.4377 L432.2943,572.11884 z"/>
<path d="M446.7813,594.6592 L455.81198,569.5103 L432.2943,572.11884 z"/>
<path d="M432.2943,572.11884 L455.81198,569.5103 L433.455,553.0809 z"/>
<path d="M440.72922,530.5322 L411.7773,529.13055 L433.455,553.0809 z"/>
<path d="M433.455,553.0809 L411.7773,529.13055 L411.93674,553.6379 z"/>
<path d="M411.93674,553.6379 L385.36575,574.5936 L411.73877,572.73175 z"/>
<path d="M411.7773,529.13055 L393.9369,539.2933 L411.93674,553.6379 z"/>
<path d="M472.45166,546.9182 L440.72922,530.5322 L433.455,553.0809 z"/>
<path d="M393.9369,539.2933 L385.36575,574.5936 L411.93674,553.6379 z"/>
<path d="M411.73877,572.73175 L407.61752,600.24316 L425.19193,590.4377 z"/>
<path d="M385.36575,574.5936 L407.61752,600.24316 L411.73877,572.73175 z"/>
<path d="M426.68018,613.6573 L446.7813,594.6592 L425.19193,590.4377 z"/>
<path d="M425.19193,590.4377 L446.7813,594.6592 L432.2943,572.11884 z"/>
<path d="M375.63477,520.7949 L374.04312,549.3095 L393.9369,539.2933 z"/>
<path d="M393.9369,539.2933 L374.04312,549.3095 L385.36575,574.5936 z"/>
<path d="M407.61752,600.24316 L426.68018,613.6573 L425.19193,590.4377 z"/>
<path d="M421.1169,508.83 L395.48334,518.3584 L411.7773,529.13055 z"/>
<path d="M411.7773,529.13055 L395.48334,518.3584 L393.9369,539.2933 z"/>
<path d="M484.72806,561.6615 L472.45166,546.9182 L455.81198,569.5103 z"/>
<path d="M455.81198,569.5103 L472.45166,546.9182 L433.455,553.0809 z"/>
<path d="M440.7591,506.50467 L421.1169,508.83 L440.72922,530.5322 z"/>
<path d="M440.72922,530.5322 L421.1169,508.83 L411.7773,529.13055 z"/>
<path d="M366.445,583.85144 L382.01135,602.1195 L385.36575,574.5936 z"/>
<path d="M385.36575,574.5936 L382.01135,602.1195 L407.61752,600.24316 z"/>
<path d="M407.61752,600.24316 L409.41818,622.5796 L426.68018,613.6573 z"/>
<path d="M472.45166,546.9182 L456.8727,519.4479 L440.72922,530.5322 z"/>
<path d="M374.04312,549.3095 L366.445,583.85144 L385.36575,574.5936 z"/>
<path d="M456.8727,519.4479 L440.7591,506.50467 L440.72922,530.5322 z"/>
<path d="M426.68018,613.6573 L446.68442,618.3438 L446.7813,594.6592 z"/>
<path d="M477.92514,597.89404 L484.72806,561.6615 L455.81198,569.5103 z"/>
<path d="M388.6871,621.28 L409.41818,622.5796 L407.61752,600.24316 z"/>
<path d="M426.68018,613.6573 L423.0464,636.0197 L446.68442,618.3438 z"/>
<path d="M380.4414,496.18585 L375.63477,520.7949 L395.48334,518.3584 z"/>
<path d="M395.48334,518.3584 L375.63477,520.7949 L393.9369,539.2933 z"/>
<path d="M374.04312,549.3095 L347.3938,559.14465 L366.445,583.85144 z"/>
<path d="M477.92514,597.89404 L455.81198,569.5103 L446.7813,594.6592 z"/>
<path d="M485.742,498.3999 L459.707,496.88367 L456.8727,519.4479 z"/>
<path d="M466.5069,617.38794 L477.92514,597.89404 L446.7813,594.6592 z"/>
<path d="M363.4209,613.7081 L388.6871,621.28 L382.01135,602.1195 z"/>
<path d="M382.01135,602.1195 L388.6871,621.28 L407.61752,600.24316 z"/>
<path d="M375.63477,520.7949 L359.00397,534.3817 L374.04312,549.3095 z"/>
<path d="M438.05173,485.27716 L404.1421,496.37915 L421.1169,508.83 z"/>
<path d="M421.1169,508.83 L404.1421,496.37915 L395.48334,518.3584 z"/>
<path d="M375.63477,520.7949 L345.0237,520.06964 L359.00397,534.3817 z"/>
<path d="M460.05182,635.41644 L466.5069,617.38794 L446.68442,618.3438 z"/>
<path d="M446.68442,618.3438 L466.5069,617.38794 L446.7813,594.6592 z"/>
<path d="M414.8999,657.2484 L423.0464,636.0197 L394.91293,655.34174 z"/>
<path d="M409.41818,622.5796 L423.0464,636.0197 L426.68018,613.6573 z"/>
<path d="M359.00397,534.3817 L347.3938,559.14465 L374.04312,549.3095 z"/>
<path d="M366.445,583.85144 L363.4209,613.7081 L382.01135,602.1195 z"/>
<path d="M487.1388,520.0786 L456.8727,519.4479 L472.45166,546.9182 z"/>
<path d="M456.8727,519.4479 L459.707,496.88367 L440.7591,506.50467 z"/>
<path d="M440.7591,506.50467 L438.05173,485.27716 L421.1169,508.83 z"/>
<path d="M340.98212,601.2575 L363.4209,613.7081 L366.445,583.85144 z"/>
<path d="M394.91293,655.34174 L423.0464,636.0197 L409.41818,622.5796 z"/>
<path d="M506.04114,539.6556 L487.1388,520.0786 L472.45166,546.9182 z"/>
<path d="M404.1421,496.37915 L380.4414,496.18585 L395.48334,518.3584 z"/>
<path d="M459.707,496.88367 L438.05173,485.27716 L440.7591,506.50467 z"/>
<path d="M404.1421,496.37915 L403.94626,467.5229 L380.4414,496.18585 z"/>
<path d="M446.65488,652.6869 L460.05182,635.41644 L446.68442,618.3438 z"/>
<path d="M510.7836,612.0249 L504.18048,593.28345 L477.92514,597.89404 z"/>
<path d="M345.0237,520.06964 L340.48642,540.64484 L359.00397,534.3817 z"/>
<path d="M359.00397,534.3817 L340.48642,540.64484 L347.3938,559.14465 z"/>
<path d="M347.3938,559.14465 L338.36697,580.1823 L366.445,583.85144 z"/>
<path d="M504.18048,593.28345 L484.72806,561.6615 L477.92514,597.89404 z"/>
<path d="M504.18048,593.28345 L506.1781,564.3436 L484.72806,561.6615 z"/>
<path d="M484.72806,561.6615 L506.04114,539.6556 L472.45166,546.9182 z"/>
<path d="M322.16772,566.5052 L338.36697,580.1823 L347.3938,559.14465 z"/>
<path d="M380.4414,496.18585 L361.36218,503.21 L375.63477,520.7949 z"/>
<path d="M506.1781,564.3436 L506.04114,539.6556 L484.72806,561.6615 z"/>
<path d="M484.5079,625.26794 L477.92514,597.89404 L466.5069,617.38794 z"/>
<path d="M361.36218,503.21 L345.0237,520.06964 L375.63477,520.7949 z"/>
<path d="M460.05182,635.41644 L484.5079,625.26794 L466.5069,617.38794 z"/>
<path d="M338.36697,580.1823 L340.98212,601.2575 L366.445,583.85144 z"/>
<path d="M333.24496,626.3931 L364.26938,633.2731 L363.4209,613.7081 z"/>
<path d="M363.4209,613.7081 L364.26938,633.2731 L388.6871,621.28 z"/>
<path d="M487.1388,520.0786 L485.742,498.3999 L456.8727,519.4479 z"/>
<path d="M455.09445,457.8334 L427.67303,468.03357 L438.05173,485.27716 z"/>
<path d="M514.6063,513.71136 L485.742,498.3999 L487.1388,520.0786 z"/>
<path d="M414.8999,657.2484 L446.65488,652.6869 L423.0464,636.0197 z"/>
<path d="M423.0464,636.0197 L446.65488,652.6869 L446.68442,618.3438 z"/>
<path d="M460.05182,635.41644 L486.34012,645.3863 L484.5079,625.26794 z"/>
<path d="M394.91293,655.34174 L409.41818,622.5796 L388.6871,621.28 z"/>
<path d="M471.72546,480.48514 L438.05173,485.27716 L459.707,496.88367 z"/>
<path d="M438.05173,485.27716 L427.67303,468.03357 L404.1421,496.37915 z"/>
<path d="M380.4414,496.18585 L344.4756,483.83472 L361.36218,503.21 z"/>
<path d="M376.42676,649.21814 L394.91293,655.34174 L388.6871,621.28 z"/>
<path d="M485.742,498.3999 L471.72546,480.48514 L459.707,496.88367 z"/>
<path d="M364.26938,633.2731 L376.42676,649.21814 L388.6871,621.28 z"/>
<path d="M427.67303,468.03357 L403.94626,467.5229 L404.1421,496.37915 z"/>
<path d="M314.7275,536.3614 L322.16772,566.5052 L340.48642,540.64484 z"/>
<path d="M340.48642,540.64484 L322.16772,566.5052 L347.3938,559.14465 z"/>
<path d="M338.36697,580.1823 L314.9697,594.8679 L340.98212,601.2575 z"/>
<path d="M437.73053,669.42395 L466.10226,654.4097 L446.65488,652.6869 z"/>
<path d="M446.65488,652.6869 L466.10226,654.4097 L460.05182,635.41644 z"/>
<path d="M503.98422,630.3896 L510.7836,612.0249 L484.5079,625.26794 z"/>
<path d="M484.5079,625.26794 L510.7836,612.0249 L477.92514,597.89404 z"/>
<path d="M504.18048,593.28345 L526.32666,589.05676 L506.1781,564.3436 z"/>
<path d="M535.63275,526.80396 L514.6063,513.71136 L506.04114,539.6556 z"/>
<path d="M466.10226,654.4097 L486.34012,645.3863 L460.05182,635.41644 z"/>
<path d="M532.3848,559.4658 L506.04114,539.6556 L506.1781,564.3436 z"/>
<path d="M506.04114,539.6556 L514.6063,513.71136 L487.1388,520.0786 z"/>
<path d="M485.742,498.3999 L495.91418,466.08316 L471.72546,480.48514 z"/>
<path d="M486.34012,645.3863 L503.98422,630.3896 L484.5079,625.26794 z"/>
<path d="M402.83502,673.8591 L437.73053,669.42395 L414.8999,657.2484 z"/>
<path d="M414.8999,657.2484 L437.73053,669.42395 L446.65488,652.6869 z"/>
<path d="M466.10226,654.4097 L481.79257,665.39935 L486.34012,645.3863 z"/>
<path d="M540.7733,576.76276 L526.32666,589.05676 L550.7215,596.4423 z"/>
<path d="M510.7836,612.0249 L526.32666,589.05676 L504.18048,593.28345 z"/>
<path d="M313.64554,622.6299 L333.24496,626.3931 L340.98212,601.2575 z"/>
<path d="M340.98212,601.2575 L333.24496,626.3931 L363.4209,613.7081 z"/>
<path d="M364.26938,633.2731 L350.30823,646.2788 L376.42676,649.21814 z"/>
<path d="M333.24496,626.3931 L350.30823,646.2788 L364.26938,633.2731 z"/>
<path d="M381.29004,669.6719 L402.83502,673.8591 L394.91293,655.34174 z"/>
<path d="M394.91293,655.34174 L402.83502,673.8591 L414.8999,657.2484 z"/>
<path d="M384.33432,434.32742 L373.92197,463.93045 L403.94626,467.5229 z"/>
<path d="M403.94626,467.5229 L373.92197,463.93045 L380.4414,496.18585 z"/>
<path d="M361.36218,503.21 L344.4756,483.83472 L345.0237,520.06964 z"/>
<path d="M320.60297,514.91724 L340.48642,540.64484 L345.0237,520.06964 z"/>
<path d="M320.60297,514.91724 L314.7275,536.3614 L340.48642,540.64484 z"/>
<path d="M322.16772,566.5052 L314.9697,594.8679 L338.36697,580.1823 z"/>
<path d="M481.9607,451.71786 L455.09445,457.8334 L471.72546,480.48514 z"/>
<path d="M471.72546,480.48514 L455.09445,457.8334 L438.05173,485.27716 z"/>
<path d="M427.67303,468.03357 L413.46005,445.2853 L403.94626,467.5229 z"/>
<path d="M526.32666,589.05676 L532.3848,559.4658 L506.1781,564.3436 z"/>
<path d="M373.92197,463.93045 L344.4756,483.83472 L380.4414,496.18585 z"/>
<path d="M294.2962,580.9439 L314.9697,594.8679 L322.16772,566.5052 z"/>
<path d="M344.4756,483.83472 L320.60297,514.91724 L345.0237,520.06964 z"/>
<path d="M381.29004,669.6719 L394.91293,655.34174 L376.42676,649.21814 z"/>
<path d="M359.5756,669.54047 L381.29004,669.6719 L376.42676,649.21814 z"/>
<path d="M455.09445,457.8334 L433.77817,449.73697 L427.67303,468.03357 z"/>
<path d="M539.52423,498.44098 L513.7554,490.01743 L514.6063,513.71136 z"/>
<path d="M514.6063,513.71136 L513.7554,490.01743 L485.742,498.3999 z"/>
<path d="M291.6369,531.6174 L303.50803,563.3561 L314.7275,536.3614 z"/>
<path d="M314.7275,536.3614 L303.50803,563.3561 L322.16772,566.5052 z"/>
<path d="M433.77817,449.73697 L413.46005,445.2853 L427.67303,468.03357 z"/>
<path d="M455.74368,688.544 L481.79257,665.39935 L466.10226,654.4097 z"/>
<path d="M513.3972,652.75684 L525.59894,630.7963 L503.98422,630.3896 z"/>
<path d="M455.74368,688.544 L466.10226,654.4097 L437.73053,669.42395 z"/>
<path d="M532.3848,559.4658 L535.63275,526.80396 L506.04114,539.6556 z"/>
<path d="M544.3224,623.21106 L526.32666,589.05676 L510.7836,612.0249 z"/>
<path d="M526.32666,589.05676 L540.7733,576.76276 L532.3848,559.4658 z"/>
<path d="M532.3848,559.4658 L551.37634,553.6267 L535.63275,526.80396 z"/>
<path d="M525.59894,630.7963 L510.7836,612.0249 L503.98422,630.3896 z"/>
<path d="M513.7554,490.01743 L495.91418,466.08316 L485.742,498.3999 z"/>
<path d="M455.09445,457.8334 L458.64948,437.08997 L433.77817,449.73697 z"/>
<path d="M330.02386,673.03723 L359.5756,669.54047 L350.30823,646.2788 z"/>
<path d="M350.30823,646.2788 L359.5756,669.54047 L376.42676,649.21814 z"/>
<path d="M388.13828,701.4796 L418.62003,695.1889 L402.83502,673.8591 z"/>
<path d="M314.9697,594.8679 L313.64554,622.6299 L340.98212,601.2575 z"/>
<path d="M333.24496,626.3931 L326.00488,650.63995 L350.30823,646.2788 z"/>
<path d="M282.8145,605.629 L313.64554,622.6299 L314.9697,594.8679 z"/>
<path d="M513.3972,652.75684 L503.98422,630.3896 L486.34012,645.3863 z"/>
<path d="M327.5659,461.6664 L325.1736,483.43265 L344.4756,483.83472 z"/>
<path d="M344.4756,483.83472 L325.1736,483.43265 L320.60297,514.91724 z"/>
<path d="M320.60297,514.91724 L291.6369,531.6174 L314.7275,536.3614 z"/>
<path d="M352.77557,451.39612 L344.4756,483.83472 L373.92197,463.93045 z"/>
<path d="M495.91418,466.08316 L481.9607,451.71786 L471.72546,480.48514 z"/>
<path d="M433.77817,449.73697 L425.07706,423.89362 L413.46005,445.2853 z"/>
<path d="M481.79257,665.39935 L513.3972,652.75684 L486.34012,645.3863 z"/>
<path d="M273.41995,554.6583 L294.2962,580.9439 L303.50803,563.3561 z"/>
<path d="M303.50803,563.3561 L294.2962,580.9439 L322.16772,566.5052 z"/>
<path d="M330.02386,673.03723 L326.00488,650.63995 L307.4497,661.4741 z"/>
<path d="M313.64554,622.6299 L326.00488,650.63995 L333.24496,626.3931 z"/>
<path d="M418.62003,695.1889 L437.73053,669.42395 L402.83502,673.8591 z"/>
<path d="M418.62003,695.1889 L455.74368,688.544 L437.73053,669.42395 z"/>
<path d="M481.79257,665.39935 L506.44608,674.59155 L513.3972,652.75684 z"/>
<path d="M565.91455,583.0413 L551.37634,553.6267 L540.7733,576.76276 z"/>
<path d="M540.7733,576.76276 L551.37634,553.6267 L532.3848,559.4658 z"/>
<path d="M384.33432,434.32742 L352.77557,451.39612 L373.92197,463.93045 z"/>
<path d="M481.9607,451.71786 L458.64948,437.08997 L455.09445,457.8334 z"/>
<path d="M413.46005,445.2853 L384.33432,434.32742 L403.94626,467.5229 z"/>
<path d="M388.13828,701.4796 L402.83502,673.8591 L381.29004,669.6719 z"/>
<path d="M544.3224,623.21106 L510.7836,612.0249 L525.59894,630.7963 z"/>
<path d="M544.3224,623.21106 L550.7215,596.4423 L526.32666,589.05676 z"/>
<path d="M298.1402,497.86505 L291.6369,531.6174 L320.60297,514.91724 z"/>
<path d="M399.41855,417.08426 L384.33432,434.32742 L413.46005,445.2853 z"/>
<path d="M535.63275,526.80396 L539.52423,498.44098 L514.6063,513.71136 z"/>
<path d="M513.7554,490.01743 L514.7162,458.384 L495.91418,466.08316 z"/>
<path d="M495.91418,466.08316 L514.7162,458.384 L481.9607,451.71786 z"/>
<path d="M561.78394,511.83627 L539.52423,498.44098 L535.63275,526.80396 z"/>
<path d="M484.33832,707.0877 L479.3977,685.43884 L455.74368,688.544 z"/>
<path d="M455.74368,688.544 L479.3977,685.43884 L481.79257,665.39935 z"/>
<path d="M552.1218,641.2839 L544.3224,623.21106 L525.59894,630.7963 z"/>
<path d="M535.81744,655.0915 L525.59894,630.7963 L513.3972,652.75684 z"/>
<path d="M337.03784,439.24756 L327.5659,461.6664 L352.77557,451.39612 z"/>
<path d="M352.77557,451.39612 L327.5659,461.6664 L344.4756,483.83472 z"/>
<path d="M325.1736,483.43265 L298.1402,497.86505 L320.60297,514.91724 z"/>
<path d="M458.64948,437.08997 L425.07706,423.89362 L433.77817,449.73697 z"/>
<path d="M305.04245,464.54416 L298.1402,497.86505 L325.1736,483.43265 z"/>
<path d="M479.3977,685.43884 L506.44608,674.59155 L481.79257,665.39935 z"/>
<path d="M536.8314,477.7114 L514.7162,458.384 L513.7554,490.01743 z"/>
<path d="M481.9607,451.71786 L491.0761,427.59937 L458.64948,437.08997 z"/>
<path d="M458.64948,437.08997 L443.9205,409.50687 L425.07706,423.89362 z"/>
<path d="M356.6233,692.7922 L381.29004,669.6719 L359.5756,669.54047 z"/>
<path d="M356.6233,692.7922 L388.13828,701.4796 L381.29004,669.6719 z"/>
<path d="M429.86975,711.42535 L452.32922,707.41895 L455.74368,688.544 z"/>
<path d="M293.44965,635.25256 L326.00488,650.63995 L313.64554,622.6299 z"/>
<path d="M326.00488,650.63995 L330.02386,673.03723 L350.30823,646.2788 z"/>
<path d="M556.6167,476.1708 L536.8314,477.7114 L539.52423,498.44098 z"/>
<path d="M539.52423,498.44098 L536.8314,477.7114 L513.7554,490.01743 z"/>
<path d="M330.02386,673.03723 L356.6233,692.7922 L359.5756,669.54047 z"/>
<path d="M265.09564,592.2423 L282.8145,605.629 L294.2962,580.9439 z"/>
<path d="M294.2962,580.9439 L282.8145,605.629 L314.9697,594.8679 z"/>
<path d="M567.2205,606.3851 L565.91455,583.0413 L550.7215,596.4423 z"/>
<path d="M550.7215,596.4423 L565.91455,583.0413 L540.7733,576.76276 z"/>
<path d="M569.7589,534.57043 L561.78394,511.83627 L535.63275,526.80396 z"/>
<path d="M527.4267,682.13806 L535.81744,655.0915 L513.3972,652.75684 z"/>
<path d="M544.3224,623.21106 L567.2205,606.3851 L550.7215,596.4423 z"/>
<path d="M282.8145,605.629 L293.44965,635.25256 L313.64554,622.6299 z"/>
<path d="M298.1402,497.86505 L283.44205,513.09344 L291.6369,531.6174 z"/>
<path d="M291.6369,531.6174 L273.41995,554.6583 L303.50803,563.3561 z"/>
<path d="M279.7969,486.06638 L283.44205,513.09344 L298.1402,497.86505 z"/>
<path d="M429.86975,711.42535 L455.74368,688.544 L418.62003,695.1889 z"/>
<path d="M479.3977,685.43884 L507.17755,701.90546 L506.44608,674.59155 z"/>
<path d="M425.07706,423.89362 L399.41855,417.08426 L413.46005,445.2853 z"/>
<path d="M360.6595,419.4034 L337.03784,439.24756 L352.77557,451.39612 z"/>
<path d="M410.30826,713.43475 L429.86975,711.42535 L418.62003,695.1889 z"/>
<path d="M272.2906,534.1965 L273.41995,554.6583 L291.6369,531.6174 z"/>
<path d="M569.7589,534.57043 L535.63275,526.80396 L551.37634,553.6267 z"/>
<path d="M565.91455,583.0413 L571.69336,561.1689 L551.37634,553.6267 z"/>
<path d="M360.6595,419.4034 L352.77557,451.39612 L384.33432,434.32742 z"/>
<path d="M327.5659,461.6664 L305.04245,464.54416 L325.1736,483.43265 z"/>
<path d="M374.08972,724.0281 L410.30826,713.43475 L388.13828,701.4796 z"/>
<path d="M388.13828,701.4796 L410.30826,713.43475 L418.62003,695.1889 z"/>
<path d="M293.44965,635.25256 L307.4497,661.4741 L326.00488,650.63995 z"/>
<path d="M330.02386,673.03723 L324.14932,694.7231 L356.6233,692.7922 z"/>
<path d="M571.69336,561.1689 L569.7589,534.57043 L551.37634,553.6267 z"/>
<path d="M571.56586,626.45636 L567.2205,606.3851 L544.3224,623.21106 z"/>
<path d="M592.04126,578.4221 L592.38556,559.02563 L571.69336,561.1689 z"/>
<path d="M535.81744,655.0915 L552.1218,641.2839 L525.59894,630.7963 z"/>
<path d="M283.44205,513.09344 L272.2906,534.1965 L291.6369,531.6174 z"/>
<path d="M514.73413,436.31235 L481.9607,451.71786 L514.7162,458.384 z"/>
<path d="M514.73413,436.31235 L491.0761,427.59937 L481.9607,451.71786 z"/>
<path d="M425.07706,423.89362 L410.4269,396.11557 L399.41855,417.08426 z"/>
<path d="M308.98938,432.1229 L305.04245,464.54416 L327.5659,461.6664 z"/>
<path d="M283.44205,513.09344 L266.21277,504.6109 L272.2906,534.1965 z"/>
<path d="M471.36252,402.32623 L443.9205,409.50687 L458.64948,437.08997 z"/>
<path d="M383.11066,403.20053 L384.33432,434.32742 L399.41855,417.08426 z"/>
<path d="M383.11066,403.20053 L360.6595,419.4034 L384.33432,434.32742 z"/>
<path d="M337.03784,439.24756 L308.98938,432.1229 L327.5659,461.6664 z"/>
<path d="M475.7255,727.2859 L484.33832,707.0877 L452.32922,707.41895 z"/>
<path d="M452.32922,707.41895 L484.33832,707.0877 L455.74368,688.544 z"/>
<path d="M506.44608,674.59155 L527.4267,682.13806 L513.3972,652.75684 z"/>
<path d="M535.81744,655.0915 L561.33185,658.90497 L552.1218,641.2839 z"/>
<path d="M475.7255,727.2859 L452.32922,707.41895 L455.6404,739.44366 z"/>
<path d="M533.79913,439.02377 L514.73413,436.31235 L514.7162,458.384 z"/>
<path d="M491.0761,427.59937 L471.36252,402.32623 L458.64948,437.08997 z"/>
<path d="M533.79913,439.02377 L514.7162,458.384 L549.74927,450.278 z"/>
<path d="M507.17755,701.90546 L527.4267,682.13806 L506.44608,674.59155 z"/>
<path d="M258.22818,569.37396 L294.2962,580.9439 L273.41995,554.6583 z"/>
<path d="M258.22818,569.37396 L265.09564,592.2423 L294.2962,580.9439 z"/>
<path d="M282.8145,605.629 L274.1072,639.9132 L293.44965,635.25256 z"/>
<path d="M293.44965,635.25256 L278.47195,658.6906 L307.4497,661.4741 z"/>
<path d="M573.4572,491.00143 L539.52423,498.44098 L561.78394,511.83627 z"/>
<path d="M573.4572,491.00143 L556.6167,476.1708 L539.52423,498.44098 z"/>
<path d="M305.04245,464.54416 L279.7969,486.06638 L298.1402,497.86505 z"/>
<path d="M552.1218,641.2839 L571.56586,626.45636 L544.3224,623.21106 z"/>
<path d="M592.04126,578.4221 L571.69336,561.1689 L565.91455,583.0413 z"/>
<path d="M578.981,644.77496 L571.56586,626.45636 L552.1218,641.2839 z"/>
<path d="M484.33832,707.0877 L507.17755,701.90546 L479.3977,685.43884 z"/>
<path d="M251.85696,544.9871 L258.22818,569.37396 L273.41995,554.6583 z"/>
<path d="M251.85696,544.9871 L273.41995,554.6583 L272.2906,534.1965 z"/>
<path d="M302.72852,693.262 L324.14932,694.7231 L330.02386,673.03723 z"/>
<path d="M356.6233,692.7922 L356.04016,714.0136 L388.13828,701.4796 z"/>
<path d="M302.72852,693.262 L330.02386,673.03723 L307.4497,661.4741 z"/>
<path d="M324.14932,694.7231 L356.04016,714.0136 L356.6233,692.7922 z"/>
<path d="M410.4269,396.11557 L383.11066,403.20053 L399.41855,417.08426 z"/>
<path d="M279.7969,486.06638 L266.21277,504.6109 L283.44205,513.09344 z"/>
<path d="M262.84784,612.6367 L282.8145,605.629 L265.09564,592.2423 z"/>
<path d="M262.84784,612.6367 L274.1072,639.9132 L282.8145,605.629 z"/>
<path d="M241.19682,597.86194 L262.84784,612.6367 L265.09564,592.2423 z"/>
<path d="M551.8676,693.8598 L546.8683,674.17773 L527.4267,682.13806 z"/>
<path d="M527.4267,682.13806 L546.8683,674.17773 L535.81744,655.0915 z"/>
<path d="M549.74927,450.278 L514.7162,458.384 L536.8314,477.7114 z"/>
<path d="M496.02078,404.04916 L471.36252,402.32623 L491.0761,427.59937 z"/>
<path d="M442.3701,388.61124 L410.4269,396.11557 L443.9205,409.50687 z"/>
<path d="M443.9205,409.50687 L410.4269,396.11557 L425.07706,423.89362 z"/>
<path d="M356.04016,714.0136 L374.08972,724.0281 L388.13828,701.4796 z"/>
<path d="M410.30826,713.43475 L430.70554,737.0985 L429.86975,711.42535 z"/>
<path d="M581.09204,508.48068 L561.78394,511.83627 L569.7589,534.57043 z"/>
<path d="M581.09204,508.48068 L573.4572,491.00143 L561.78394,511.83627 z"/>
<path d="M556.6167,476.1708 L549.74927,450.278 L536.8314,477.7114 z"/>
<path d="M581.09204,508.48068 L569.7589,534.57043 L595.138,521.8374 z"/>
<path d="M496.02078,404.04916 L491.0761,427.59937 L523.7382,415.145 z"/>
<path d="M592.38556,559.02563 L569.7589,534.57043 L571.69336,561.1689 z"/>
<path d="M546.8683,674.17773 L561.33185,658.90497 L535.81744,655.0915 z"/>
<path d="M592.04126,578.4221 L565.91455,583.0413 L567.2205,606.3851 z"/>
<path d="M568.5606,459.3154 L549.74927,450.278 L556.6167,476.1708 z"/>
<path d="M374.08972,724.0281 L407.10458,733.5004 L410.30826,713.43475 z"/>
<path d="M484.33832,707.0877 L515.253,729.7613 L507.17755,701.90546 z"/>
<path d="M251.91444,521.6162 L251.85696,544.9871 L272.2906,534.1965 z"/>
<path d="M233.80902,616.69586 L256.14722,630.5025 L262.84784,612.6367 z"/>
<path d="M589.78436,610.78015 L567.2205,606.3851 L571.56586,626.45636 z"/>
<path d="M589.78436,610.78015 L592.04126,578.4221 L567.2205,606.3851 z"/>
<path d="M278.47195,658.6906 L293.52734,676.51166 L307.4497,661.4741 z"/>
<path d="M324.14932,694.7231 L332.06836,723.8297 L356.04016,714.0136 z"/>
<path d="M257.73355,657.21655 L278.47195,658.6906 L274.1072,639.9132 z"/>
<path d="M274.1072,639.9132 L278.47195,658.6906 L293.44965,635.25256 z"/>
<path d="M430.70554,737.0985 L452.32922,707.41895 L429.86975,711.42535 z"/>
<path d="M507.17755,701.90546 L526.1176,706.0008 L527.4267,682.13806 z"/>
<path d="M322.28973,408.78427 L337.03784,439.24756 L360.6595,419.4034 z"/>
<path d="M322.28973,408.78427 L308.98938,432.1229 L337.03784,439.24756 z"/>
<path d="M305.04245,464.54416 L272.28378,463.4673 L279.7969,486.06638 z"/>
<path d="M279.7969,486.06638 L247.8462,489.6386 L266.21277,504.6109 z"/>
<path d="M407.10458,733.5004 L430.70554,737.0985 L410.30826,713.43475 z"/>
<path d="M578.981,644.77496 L589.78436,610.78015 L571.56586,626.45636 z"/>
<path d="M236.41216,506.20078 L251.91444,521.6162 L266.21277,504.6109 z"/>
<path d="M266.21277,504.6109 L251.91444,521.6162 L272.2906,534.1965 z"/>
<path d="M308.98938,432.1229 L292.69733,444.74442 L305.04245,464.54416 z"/>
<path d="M523.7382,415.145 L491.0761,427.59937 L514.73413,436.31235 z"/>
<path d="M471.36252,402.32623 L442.3701,388.61124 L443.9205,409.50687 z"/>
<path d="M523.7382,415.145 L514.73413,436.31235 L533.79913,439.02377 z"/>
<path d="M467.55203,381.04602 L442.3701,388.61124 L471.36252,402.32623 z"/>
<path d="M272.19653,705.56573 L302.72852,693.262 L293.52734,676.51166 z"/>
<path d="M293.52734,676.51166 L302.72852,693.262 L307.4497,661.4741 z"/>
<path d="M356.04016,714.0136 L364.89508,743.0973 L374.08972,724.0281 z"/>
<path d="M515.253,729.7613 L526.1176,706.0008 L507.17755,701.90546 z"/>
<path d="M579.3034,668.0074 L578.981,644.77496 L561.33185,658.90497 z"/>
<path d="M579.3034,668.0074 L561.33185,658.90497 L571.4962,685.8653 z"/>
<path d="M561.33185,658.90497 L578.981,644.77496 L552.1218,641.2839 z"/>
<path d="M372.2076,382.7154 L351.3051,400.46115 L383.11066,403.20053 z"/>
<path d="M383.11066,403.20053 L351.3051,400.46115 L360.6595,419.4034 z"/>
<path d="M393.8713,384.61884 L383.11066,403.20053 L410.4269,396.11557 z"/>
<path d="M606.2857,484.1924 L581.9911,473.65195 L573.4572,491.00143 z"/>
<path d="M581.9911,473.65195 L568.5606,459.3154 L556.6167,476.1708 z"/>
<path d="M598.8901,541.08167 L595.138,521.8374 L569.7589,534.57043 z"/>
<path d="M598.8901,541.08167 L569.7589,534.57043 L592.38556,559.02563 z"/>
<path d="M610.9339,575.37024 L592.38556,559.02563 L592.04126,578.4221 z"/>
<path d="M623.5918,541.1463 L598.8901,541.08167 L624.8049,560.7282 z"/>
<path d="M241.17624,577.61835 L265.09564,592.2423 L258.22818,569.37396 z"/>
<path d="M262.84784,612.6367 L256.14722,630.5025 L274.1072,639.9132 z"/>
<path d="M278.47195,658.6906 L268.40256,682.2475 L293.52734,676.51166 z"/>
<path d="M430.70554,737.0985 L455.6404,739.44366 L452.32922,707.41895 z"/>
<path d="M475.7255,727.2859 L489.68475,740.8363 L484.33832,707.0877 z"/>
<path d="M292.69733,444.74442 L272.28378,463.4673 L305.04245,464.54416 z"/>
<path d="M554.7969,429.9024 L523.7382,415.145 L533.79913,439.02377 z"/>
<path d="M581.9911,473.65195 L556.6167,476.1708 L573.4572,491.00143 z"/>
<path d="M549.74927,450.278 L554.7969,429.9024 L533.79913,439.02377 z"/>
<path d="M413.14066,366.65387 L393.8713,384.61884 L410.4269,396.11557 z"/>
<path d="M229.26993,555.83673 L258.22818,569.37396 L251.85696,544.9871 z"/>
<path d="M229.26993,555.83673 L241.17624,577.61835 L258.22818,569.37396 z"/>
<path d="M606.2857,484.1924 L573.4572,491.00143 L581.09204,508.48068 z"/>
<path d="M351.3051,400.46115 L322.28973,408.78427 L360.6595,419.4034 z"/>
<path d="M308.98938,432.1229 L298.39322,414.86047 L292.69733,444.74442 z"/>
<path d="M292.69733,444.74442 L268.28815,434.7186 L272.28378,463.4673 z"/>
<path d="M335.28308,384.8908 L322.28973,408.78427 L351.3051,400.46115 z"/>
<path d="M241.17624,577.61835 L241.19682,597.86194 L265.09564,592.2423 z"/>
<path d="M296.87323,715.3062 L332.06836,723.8297 L324.14932,694.7231 z"/>
<path d="M374.08972,724.0281 L383.42178,747.40076 L407.10458,733.5004 z"/>
<path d="M407.10458,733.5004 L416.3942,754.2844 L430.70554,737.0985 z"/>
<path d="M542.2882,720.1498 L551.8676,693.8598 L526.1176,706.0008 z"/>
<path d="M526.1176,706.0008 L551.8676,693.8598 L527.4267,682.13806 z"/>
<path d="M622.90826,609.06915 L605.6992,595.8675 L589.78436,610.78015 z"/>
<path d="M589.78436,610.78015 L605.6992,595.8675 L592.04126,578.4221 z"/>
<path d="M378.67963,353.3279 L372.2076,382.7154 L393.8713,384.61884 z"/>
<path d="M393.8713,384.61884 L372.2076,382.7154 L383.11066,403.20053 z"/>
<path d="M498.48834,371.36923 L467.55203,381.04602 L496.02078,404.04916 z"/>
<path d="M496.02078,404.04916 L467.55203,381.04602 L471.36252,402.32623 z"/>
<path d="M442.3701,388.61124 L413.14066,366.65387 L410.4269,396.11557 z"/>
<path d="M364.89508,743.0973 L383.42178,747.40076 L374.08972,724.0281 z"/>
<path d="M430.70554,737.0985 L436.4683,765.82446 L455.6404,739.44366 z"/>
<path d="M568.5606,459.3154 L554.7969,429.9024 L549.74927,450.278 z"/>
<path d="M523.7382,415.145 L526.8296,386.92365 L496.02078,404.04916 z"/>
<path d="M584.1149,441.72076 L554.7969,429.9024 L568.5606,459.3154 z"/>
<path d="M343.09015,745.5231 L364.89508,743.0973 L356.04016,714.0136 z"/>
<path d="M247.20349,470.6131 L247.8462,489.6386 L279.7969,486.06638 z"/>
<path d="M216.58955,529.2739 L229.26993,555.83673 L251.85696,544.9871 z"/>
<path d="M247.20349,470.6131 L279.7969,486.06638 L272.28378,463.4673 z"/>
<path d="M231.90152,658.8801 L257.73355,657.21655 L256.14722,630.5025 z"/>
<path d="M256.14722,630.5025 L257.73355,657.21655 L274.1072,639.9132 z"/>
<path d="M302.72852,693.262 L296.87323,715.3062 L324.14932,694.7231 z"/>
<path d="M571.4962,685.8653 L561.33185,658.90497 L546.8683,674.17773 z"/>
<path d="M578.981,644.77496 L609.22125,629.57556 L589.78436,610.78015 z"/>
<path d="M605.6992,595.8675 L610.9339,575.37024 L592.04126,578.4221 z"/>
<path d="M623.5918,541.1463 L611.50464,507.8572 L595.138,521.8374 z"/>
<path d="M595.138,521.8374 L611.50464,507.8572 L581.09204,508.48068 z"/>
<path d="M472.1246,749.1718 L475.7255,727.2859 L455.6404,739.44366 z"/>
<path d="M472.1246,749.1718 L489.68475,740.8363 L475.7255,727.2859 z"/>
<path d="M489.68475,740.8363 L515.253,729.7613 L484.33832,707.0877 z"/>
<path d="M551.8676,693.8598 L571.4962,685.8653 L546.8683,674.17773 z"/>
<path d="M383.42178,747.40076 L416.3942,754.2844 L407.10458,733.5004 z"/>
<path d="M465.81262,768.82056 L472.1246,749.1718 L455.6404,739.44366 z"/>
<path d="M542.4738,739.1015 L542.2882,720.1498 L515.253,729.7613 z"/>
<path d="M216.58955,529.2739 L251.85696,544.9871 L251.91444,521.6162 z"/>
<path d="M241.17624,577.61835 L223.0618,590.25 L241.19682,597.86194 z"/>
<path d="M241.19682,597.86194 L233.80902,616.69586 L262.84784,612.6367 z"/>
<path d="M316.15546,382.9047 L298.39322,414.86047 L322.28973,408.78427 z"/>
<path d="M322.28973,408.78427 L298.39322,414.86047 L308.98938,432.1229 z"/>
<path d="M561.9836,711.184 L571.4962,685.8653 L551.8676,693.8598 z"/>
<path d="M214.17873,486.80716 L236.41216,506.20078 L247.8462,489.6386 z"/>
<path d="M247.8462,489.6386 L236.41216,506.20078 L266.21277,504.6109 z"/>
<path d="M257.73355,657.21655 L268.40256,682.2475 L278.47195,658.6906 z"/>
<path d="M467.55203,381.04602 L442.0629,369.2582 L442.3701,388.61124 z"/>
<path d="M223.0618,590.25 L233.80902,616.69586 L241.19682,597.86194 z"/>
<path d="M240.86992,708.6982 L272.19653,705.56573 L268.40256,682.2475 z"/>
<path d="M272.19653,705.56573 L296.87323,715.3062 L302.72852,693.262 z"/>
<path d="M332.06836,723.8297 L343.09015,745.5231 L356.04016,714.0136 z"/>
<path d="M442.0629,369.2582 L413.14066,366.65387 L442.3701,388.61124 z"/>
<path d="M248.9373,451.0435 L247.20349,470.6131 L272.28378,463.4673 z"/>
<path d="M623.5918,541.1463 L595.138,521.8374 L598.8901,541.08167 z"/>
<path d="M599.60547,462.02588 L584.1149,441.72076 L568.5606,459.3154 z"/>
<path d="M501.1618,759.4711 L515.253,729.7613 L489.68475,740.8363 z"/>
<path d="M515.253,729.7613 L542.2882,720.1498 L526.1176,706.0008 z"/>
<path d="M356.13644,366.25504 L351.3051,400.46115 L372.2076,382.7154 z"/>
<path d="M356.13644,366.25504 L335.28308,384.8908 L351.3051,400.46115 z"/>
<path d="M377.66965,771.912 L397.78265,766.7237 L383.42178,747.40076 z"/>
<path d="M411.73758,786.5926 L436.4683,765.82446 L416.3942,754.2844 z"/>
<path d="M324.14984,749.0801 L343.09015,745.5231 L332.06836,723.8297 z"/>
<path d="M604.36646,663.45386 L578.981,644.77496 L579.3034,668.0074 z"/>
<path d="M604.36646,663.45386 L609.22125,629.57556 L578.981,644.77496 z"/>
<path d="M629.3057,585.6802 L624.8049,560.7282 L610.9339,575.37024 z"/>
<path d="M273.87018,414.20657 L268.28815,434.7186 L292.69733,444.74442 z"/>
<path d="M273.87018,414.20657 L292.69733,444.74442 L298.39322,414.86047 z"/>
<path d="M208.1891,570.4076 L241.17624,577.61835 L229.26993,555.83673 z"/>
<path d="M208.1891,570.4076 L223.0618,590.25 L241.17624,577.61835 z"/>
<path d="M611.50464,507.8572 L606.2857,484.1924 L581.09204,508.48068 z"/>
<path d="M293.02975,748.2088 L310.91663,732.8484 L296.87323,715.3062 z"/>
<path d="M296.87323,715.3062 L310.91663,732.8484 L332.06836,723.8297 z"/>
<path d="M599.60547,462.02588 L568.5606,459.3154 L581.9911,473.65195 z"/>
<path d="M554.7969,429.9024 L552.3765,406.07883 L523.7382,415.145 z"/>
<path d="M624.8049,560.7282 L592.38556,559.02563 L610.9339,575.37024 z"/>
<path d="M624.8049,560.7282 L598.8901,541.08167 L592.38556,559.02563 z"/>
<path d="M611.50464,507.8572 L626.7893,494.73856 L606.2857,484.1924 z"/>
<path d="M397.78265,766.7237 L416.3942,754.2844 L383.42178,747.40076 z"/>
<path d="M416.3942,754.2844 L436.4683,765.82446 L430.70554,737.0985 z"/>
<path d="M472.1246,749.1718 L501.1618,759.4711 L489.68475,740.8363 z"/>
<path d="M629.3057,585.6802 L610.9339,575.37024 L605.6992,595.8675 z"/>
<path d="M542.2882,720.1498 L561.9836,711.184 L551.8676,693.8598 z"/>
<path d="M601.67224,686.4708 L604.36646,663.45386 L579.3034,668.0074 z"/>
<path d="M573.2099,424.834 L552.3765,406.07883 L554.7969,429.9024 z"/>
<path d="M467.55203,381.04602 L457.25403,357.19464 L442.0629,369.2582 z"/>
<path d="M606.2857,484.1924 L599.60547,462.02588 L581.9911,473.65195 z"/>
<path d="M623.5943,473.95163 L599.60547,462.02588 L606.2857,484.1924 z"/>
<path d="M377.66965,771.912 L383.42178,747.40076 L364.89508,743.0973 z"/>
<path d="M577.27747,405.0659 L573.2099,424.834 L600.63745,408.23477 z"/>
<path d="M584.1149,441.72076 L573.2099,424.834 L554.7969,429.9024 z"/>
<path d="M552.3765,406.07883 L526.8296,386.92365 L523.7382,415.145 z"/>
<path d="M268.28815,434.7186 L248.9373,451.0435 L272.28378,463.4673 z"/>
<path d="M200.47707,503.83276 L216.58955,529.2739 L236.41216,506.20078 z"/>
<path d="M645.64545,631.37897 L622.90826,609.06915 L609.22125,629.57556 z"/>
<path d="M609.22125,629.57556 L622.90826,609.06915 L589.78436,610.78015 z"/>
<path d="M238.35628,681.1006 L268.40256,682.2475 L257.73355,657.21655 z"/>
<path d="M268.40256,682.2475 L272.19653,705.56573 L293.52734,676.51166 z"/>
<path d="M526.8296,386.92365 L498.48834,371.36923 L496.02078,404.04916 z"/>
<path d="M423.8164,341.60178 L403.03104,348.71628 L413.14066,366.65387 z"/>
<path d="M378.67963,353.3279 L356.13644,366.25504 L372.2076,382.7154 z"/>
<path d="M335.28308,384.8908 L316.15546,382.9047 L322.28973,408.78427 z"/>
<path d="M226.71269,472.52646 L247.8462,489.6386 L247.20349,470.6131 z"/>
<path d="M236.41216,506.20078 L216.58955,529.2739 L251.91444,521.6162 z"/>
<path d="M601.67224,686.4708 L579.3034,668.0074 L571.4962,685.8653 z"/>
<path d="M622.90826,609.06915 L629.3057,585.6802 L605.6992,595.8675 z"/>
<path d="M649.8623,534.4202 L635.33185,517.3298 L623.5918,541.1463 z"/>
<path d="M328.89404,365.8779 L316.15546,382.9047 L335.28308,384.8908 z"/>
<path d="M268.28815,434.7186 L240.50954,431.24088 L248.9373,451.0435 z"/>
<path d="M482.2811,361.05844 L457.25403,357.19464 L467.55203,381.04602 z"/>
<path d="M403.03104,348.71628 L378.67963,353.3279 L393.8713,384.61884 z"/>
<path d="M211.62181,617.58386 L225.96057,637.35297 L233.80902,616.69586 z"/>
<path d="M233.80902,616.69586 L225.96057,637.35297 L256.14722,630.5025 z"/>
<path d="M211.62181,617.58386 L233.80902,616.69586 L223.0618,590.25 z"/>
<path d="M306.26874,762.3363 L324.14984,749.0801 L310.91663,732.8484 z"/>
<path d="M310.91663,732.8484 L324.14984,749.0801 L332.06836,723.8297 z"/>
<path d="M357.6507,772.9296 L377.66965,771.912 L364.89508,743.0973 z"/>
<path d="M285.34903,395.06488 L273.87018,414.20657 L298.39322,414.86047 z"/>
<path d="M433.513,790.0331 L465.81262,768.82056 L436.4683,765.82446 z"/>
<path d="M436.4683,765.82446 L465.81262,768.82056 L455.6404,739.44366 z"/>
<path d="M542.2882,720.1498 L561.2276,736.7226 L561.9836,711.184 z"/>
<path d="M501.15237,351.24045 L482.2811,361.05844 L498.48834,371.36923 z"/>
<path d="M498.48834,371.36923 L482.2811,361.05844 L467.55203,381.04602 z"/>
<path d="M484.5494,771.9177 L501.1618,759.4711 L472.1246,749.1718 z"/>
<path d="M561.9836,711.184 L583.65155,700.6392 L571.4962,685.8653 z"/>
<path d="M586.53503,719.6654 L583.65155,700.6392 L561.9836,711.184 z"/>
<path d="M225.96057,637.35297 L231.90152,658.8801 L256.14722,630.5025 z"/>
<path d="M357.6507,772.9296 L364.89508,743.0973 L343.09015,745.5231 z"/>
<path d="M397.78265,766.7237 L411.73758,786.5926 L416.3942,754.2844 z"/>
<path d="M536.45215,758.659 L542.4738,739.1015 L515.253,729.7613 z"/>
<path d="M216.58955,529.2739 L208.69878,549.00055 L229.26993,555.83673 z"/>
<path d="M208.69878,549.00055 L208.1891,570.4076 L229.26993,555.83673 z"/>
<path d="M403.03104,348.71628 L393.8713,384.61884 L413.14066,366.65387 z"/>
<path d="M356.13644,366.25504 L328.89404,365.8779 L335.28308,384.8908 z"/>
<path d="M604.36646,663.45386 L619.4946,646.34595 L609.22125,629.57556 z"/>
<path d="M643.536,606.4224 L643.39526,571.215 L629.3057,585.6802 z"/>
<path d="M631.6093,672.78723 L619.4946,646.34595 L604.36646,663.45386 z"/>
<path d="M228.19353,453.47504 L247.20349,470.6131 L248.9373,451.0435 z"/>
<path d="M228.19353,453.47504 L226.71269,472.52646 L247.20349,470.6131 z"/>
<path d="M216.58955,529.2739 L189.43405,544.30005 L208.69878,549.00055 z"/>
<path d="M423.8164,341.60178 L442.0629,369.2582 L457.25403,357.19464 z"/>
<path d="M423.8164,341.60178 L413.14066,366.65387 L442.0629,369.2582 z"/>
<path d="M635.33185,517.3298 L611.50464,507.8572 L623.5918,541.1463 z"/>
<path d="M635.33185,517.3298 L626.7893,494.73856 L611.50464,507.8572 z"/>
<path d="M599.60547,462.02588 L603.0175,431.25516 L584.1149,441.72076 z"/>
<path d="M316.15546,382.9047 L285.34903,395.06488 L298.39322,414.86047 z"/>
<path d="M240.50954,431.24088 L228.19353,453.47504 L248.9373,451.0435 z"/>
<path d="M298.1501,366.21494 L285.34903,395.06488 L316.15546,382.9047 z"/>
<path d="M192.35524,592.6078 L211.62181,617.58386 L223.0618,590.25 z"/>
<path d="M225.96057,637.35297 L205.6333,665.8182 L231.90152,658.8801 z"/>
<path d="M465.81262,768.82056 L484.5494,771.9177 L472.1246,749.1718 z"/>
<path d="M556.7567,756.3069 L561.2276,736.7226 L542.4738,739.1015 z"/>
<path d="M472.41086,793.2142 L484.5494,771.9177 L465.81262,768.82056 z"/>
<path d="M214.85365,687.7454 L238.35628,681.1006 L231.90152,658.8801 z"/>
<path d="M231.90152,658.8801 L238.35628,681.1006 L257.73355,657.21655 z"/>
<path d="M272.7115,735.28125 L293.02975,748.2088 L296.87323,715.3062 z"/>
<path d="M610.16345,703.5562 L601.67224,686.4708 L583.65155,700.6392 z"/>
<path d="M583.65155,700.6392 L601.67224,686.4708 L571.4962,685.8653 z"/>
<path d="M343.01047,346.4765 L328.89404,365.8779 L356.13644,366.25504 z"/>
<path d="M649.8623,534.4202 L623.5918,541.1463 L657.707,552.00104 z"/>
<path d="M333.02753,778.7752 L357.6507,772.9296 L343.09015,745.5231 z"/>
<path d="M377.66965,771.912 L411.73758,786.5926 L397.78265,766.7237 z"/>
<path d="M649.77954,477.25412 L623.5943,473.95163 L626.7893,494.73856 z"/>
<path d="M626.7893,494.73856 L623.5943,473.95163 L606.2857,484.1924 z"/>
<path d="M193.09543,464.41306 L214.17873,486.80716 L226.71269,472.52646 z"/>
<path d="M226.71269,472.52646 L214.17873,486.80716 L247.8462,489.6386 z"/>
<path d="M457.79633,337.60995 L423.8164,341.60178 L457.25403,357.19464 z"/>
<path d="M370.92123,329.5554 L343.01047,346.4765 L378.67963,353.3279 z"/>
<path d="M378.67963,353.3279 L343.01047,346.4765 L356.13644,366.25504 z"/>
<path d="M643.536,606.4224 L629.3057,585.6802 L622.90826,609.06915 z"/>
<path d="M629.3057,585.6802 L643.39526,571.215 L624.8049,560.7282 z"/>
<path d="M552.3765,406.07883 L563.27484,390.47964 L526.8296,386.92365 z"/>
<path d="M520.6034,349.73337 L501.15237,351.24045 L498.48834,371.36923 z"/>
<path d="M573.2099,424.834 L577.27747,405.0659 L552.3765,406.07883 z"/>
<path d="M603.0175,431.25516 L573.2099,424.834 L584.1149,441.72076 z"/>
<path d="M240.50954,431.24088 L268.28815,434.7186 L247.13123,408.61032 z"/>
<path d="M536.45215,758.659 L515.253,729.7613 L501.1618,759.4711 z"/>
<path d="M542.4738,739.1015 L561.2276,736.7226 L542.2882,720.1498 z"/>
<path d="M577.27747,405.0659 L563.27484,390.47964 L552.3765,406.07883 z"/>
<path d="M623.5943,473.95163 L617.2642,455.12976 L599.60547,462.02588 z"/>
<path d="M381.37613,804.93976 L411.73758,786.5926 L377.66965,771.912 z"/>
<path d="M247.13123,408.61032 L268.28815,434.7186 L273.87018,414.20657 z"/>
<path d="M617.2642,455.12976 L603.0175,431.25516 L599.60547,462.02588 z"/>
<path d="M572.52625,358.2296 L552.39435,368.5182 L563.27484,390.47964 z"/>
<path d="M272.7115,735.28125 L296.87323,715.3062 L272.19653,705.56573 z"/>
<path d="M324.14984,749.0801 L333.02753,778.7752 L343.09015,745.5231 z"/>
<path d="M645.64545,631.37897 L643.536,606.4224 L622.90826,609.06915 z"/>
<path d="M645.64545,631.37897 L609.22125,629.57556 L619.4946,646.34595 z"/>
<path d="M533.76996,364.16656 L498.48834,371.36923 L526.8296,386.92365 z"/>
<path d="M482.2811,361.05844 L457.79633,337.60995 L457.25403,357.19464 z"/>
<path d="M518.49854,786.25555 L536.45215,758.659 L501.1618,759.4711 z"/>
<path d="M411.73758,786.5926 L433.513,790.0331 L436.4683,765.82446 z"/>
<path d="M484.5494,771.9177 L495.00482,790.8323 L501.1618,759.4711 z"/>
<path d="M561.2276,736.7226 L586.53503,719.6654 L561.9836,711.184 z"/>
<path d="M643.8439,657.84204 L645.64545,631.37897 L619.4946,646.34595 z"/>
<path d="M579.3262,748.98755 L586.53503,719.6654 L561.2276,736.7226 z"/>
<path d="M245.41692,732.5557 L272.7115,735.28125 L272.19653,705.56573 z"/>
<path d="M179.51038,626.5579 L205.95229,636.1712 L211.62181,617.58386 z"/>
<path d="M211.62181,617.58386 L205.95229,636.1712 L225.96057,637.35297 z"/>
<path d="M238.35628,681.1006 L240.86992,708.6982 L268.40256,682.2475 z"/>
<path d="M192.35524,592.6078 L223.0618,590.25 L208.1891,570.4076 z"/>
<path d="M552.39435,368.5182 L533.76996,364.16656 L526.8296,386.92365 z"/>
<path d="M277.69705,373.5195 L263.943,398.00302 L285.34903,395.06488 z"/>
<path d="M285.34903,395.06488 L263.943,398.00302 L273.87018,414.20657 z"/>
<path d="M493.24664,333.14697 L457.79633,337.60995 L482.2811,361.05844 z"/>
<path d="M181.82028,489.15903 L200.47707,503.83276 L214.17873,486.80716 z"/>
<path d="M214.17873,486.80716 L200.47707,503.83276 L236.41216,506.20078 z"/>
<path d="M181.10768,565.51965 L192.35524,592.6078 L208.1891,570.4076 z"/>
<path d="M657.707,552.00104 L624.8049,560.7282 L643.39526,571.215 z"/>
<path d="M657.707,552.00104 L623.5918,541.1463 L624.8049,560.7282 z"/>
<path d="M635.33185,517.3298 L646.73584,496.59808 L626.7893,494.73856 z"/>
<path d="M623.5943,473.95163 L638.0035,460.87912 L617.2642,455.12976 z"/>
<path d="M276.58267,774.41675 L306.26874,762.3363 L293.02975,748.2088 z"/>
<path d="M293.02975,748.2088 L306.26874,762.3363 L310.91663,732.8484 z"/>
<path d="M357.6507,772.9296 L381.37613,804.93976 L377.66965,771.912 z"/>
<path d="M370.92123,329.5554 L378.67963,353.3279 L403.03104,348.71628 z"/>
<path d="M328.89404,365.8779 L298.1501,366.21494 L316.15546,382.9047 z"/>
<path d="M370.92123,329.5554 L403.03104,348.71628 L400.10233,319.12628 z"/>
<path d="M181.10768,565.51965 L208.1891,570.4076 L208.69878,549.00055 z"/>
<path d="M214.85365,687.7454 L240.86992,708.6982 L238.35628,681.1006 z"/>
<path d="M310.92514,342.39258 L298.1501,366.21494 L328.89404,365.8779 z"/>
<path d="M306.26874,762.3363 L333.02753,778.7752 L324.14984,749.0801 z"/>
<path d="M431.2447,809.51117 L451.18936,801.3048 L433.513,790.0331 z"/>
<path d="M181.67622,517.76904 L189.43405,544.30005 L216.58955,529.2739 z"/>
<path d="M240.50954,431.24088 L218.72488,430.74426 L228.19353,453.47504 z"/>
<path d="M228.19353,453.47504 L193.09543,464.41306 L226.71269,472.52646 z"/>
<path d="M263.943,398.00302 L247.13123,408.61032 L273.87018,414.20657 z"/>
<path d="M233.93689,394.0253 L247.13123,408.61032 L246.2877,378.63568 z"/>
<path d="M631.6093,672.78723 L604.36646,663.45386 L601.67224,686.4708 z"/>
<path d="M678.74054,569.7261 L657.707,552.00104 L643.39526,571.215 z"/>
<path d="M588.0556,374.71304 L563.27484,390.47964 L577.27747,405.0659 z"/>
<path d="M563.27484,390.47964 L552.39435,368.5182 L526.8296,386.92365 z"/>
<path d="M533.76996,364.16656 L520.6034,349.73337 L498.48834,371.36923 z"/>
<path d="M659.8752,517.821 L646.73584,496.59808 L635.33185,517.3298 z"/>
<path d="M618.773,417.8479 L600.63745,408.23477 L603.0175,431.25516 z"/>
<path d="M613.19525,722.2216 L610.16345,703.5562 L586.53503,719.6654 z"/>
<path d="M586.53503,719.6654 L610.16345,703.5562 L583.65155,700.6392 z"/>
<path d="M544.4389,339.7675 L520.6034,349.73337 L533.76996,364.16656 z"/>
<path d="M501.15237,351.24045 L493.24664,333.14697 L482.2811,361.05844 z"/>
<path d="M451.18936,801.3048 L472.41086,793.2142 L465.81262,768.82056 z"/>
<path d="M562.0352,778.716 L556.7567,756.3069 L536.45215,758.659 z"/>
<path d="M536.45215,758.659 L556.7567,756.3069 L542.4738,739.1015 z"/>
<path d="M673.42303,593.22424 L643.39526,571.215 L643.536,606.4224 z"/>
<path d="M649.8623,534.4202 L659.8752,517.821 L635.33185,517.3298 z"/>
<path d="M636.4511,694.2103 L631.6093,672.78723 L601.67224,686.4708 z"/>
<path d="M618.773,417.8479 L603.0175,431.25516 L617.2642,455.12976 z"/>
<path d="M603.0175,431.25516 L600.63745,408.23477 L573.2099,424.834 z"/>
<path d="M266.4194,354.0175 L277.69705,373.5195 L285.09628,340.13815 z"/>
<path d="M298.1501,366.21494 L277.69705,373.5195 L285.34903,395.06488 z"/>
<path d="M472.41086,793.2142 L495.00482,790.8323 L484.5494,771.9177 z"/>
<path d="M400.10233,319.12628 L403.03104,348.71628 L423.8164,341.60178 z"/>
<path d="M343.01047,346.4765 L310.92514,342.39258 L328.89404,365.8779 z"/>
<path d="M175.39133,652.21014 L205.6333,665.8182 L205.95229,636.1712 z"/>
<path d="M205.95229,636.1712 L205.6333,665.8182 L225.96057,637.35297 z"/>
<path d="M649.77954,477.25412 L638.0035,460.87912 L623.5943,473.95163 z"/>
<path d="M431.2447,809.51117 L433.513,790.0331 L411.73758,786.5926 z"/>
<path d="M433.513,790.0331 L451.18936,801.3048 L465.81262,768.82056 z"/>
<path d="M472.41086,793.2142 L485.29333,807.951 L495.00482,790.8323 z"/>
<path d="M189.43405,544.30005 L181.10768,565.51965 L208.69878,549.00055 z"/>
<path d="M192.35524,592.6078 L179.51038,626.5579 L211.62181,617.58386 z"/>
<path d="M169.51544,547.9959 L181.10768,565.51965 L189.43405,544.30005 z"/>
<path d="M508.24286,316.88068 L493.24664,333.14697 L520.6034,349.73337 z"/>
<path d="M520.6034,349.73337 L493.24664,333.14697 L501.15237,351.24045 z"/>
<path d="M429.95532,304.77985 L400.10233,319.12628 L423.8164,341.60178 z"/>
<path d="M631.6093,672.78723 L643.8439,657.84204 L619.4946,646.34595 z"/>
<path d="M670.8046,621.1201 L673.42303,593.22424 L643.536,606.4224 z"/>
<path d="M653.36926,678.24115 L643.8439,657.84204 L631.6093,672.78723 z"/>
<path d="M205.6333,665.8182 L214.85365,687.7454 L231.90152,658.8801 z"/>
<path d="M240.86992,708.6982 L245.41692,732.5557 L272.19653,705.56573 z"/>
<path d="M673.8536,536.3672 L659.8752,517.821 L649.8623,534.4202 z"/>
<path d="M646.73584,496.59808 L649.77954,477.25412 L626.7893,494.73856 z"/>
<path d="M228.53136,413.15497 L240.50954,431.24088 L247.13123,408.61032 z"/>
<path d="M228.53136,413.15497 L218.72488,430.74426 L240.50954,431.24088 z"/>
<path d="M200.47707,503.83276 L181.67622,517.76904 L216.58955,529.2739 z"/>
<path d="M506.66837,808.84094 L518.49854,786.25555 L495.00482,790.8323 z"/>
<path d="M495.00482,790.8323 L518.49854,786.25555 L501.1618,759.4711 z"/>
<path d="M581.114,770.6246 L579.3262,748.98755 L556.7567,756.3069 z"/>
<path d="M556.7567,756.3069 L579.3262,748.98755 L561.2276,736.7226 z"/>
<path d="M610.16345,703.5562 L636.4511,694.2103 L601.67224,686.4708 z"/>
<path d="M668.6684,498.6436 L649.77954,477.25412 L646.73584,496.59808 z"/>
<path d="M641.4943,442.18643 L618.773,417.8479 L617.2642,455.12976 z"/>
<path d="M181.82028,489.15903 L181.67622,517.76904 L200.47707,503.83276 z"/>
<path d="M221.51343,714.7665 L245.41692,732.5557 L240.86992,708.6982 z"/>
<path d="M272.7115,735.28125 L262.91476,757.888 L293.02975,748.2088 z"/>
<path d="M328.5683,807.00275 L348.855,803.4551 L333.02753,778.7752 z"/>
<path d="M233.93689,394.0253 L228.53136,413.15497 L247.13123,408.61032 z"/>
<path d="M641.4943,442.18643 L617.2642,455.12976 L638.0035,460.87912 z"/>
<path d="M600.63745,408.23477 L588.0556,374.71304 L577.27747,405.0659 z"/>
<path d="M348.855,803.4551 L357.6507,772.9296 L333.02753,778.7752 z"/>
<path d="M348.855,803.4551 L381.37613,804.93976 L357.6507,772.9296 z"/>
<path d="M446.74008,314.92557 L423.8164,341.60178 L457.79633,337.60995 z"/>
<path d="M410.49304,817.05615 L431.2447,809.51117 L411.73758,786.5926 z"/>
<path d="M451.18936,801.3048 L485.29333,807.951 L472.41086,793.2142 z"/>
<path d="M342.16727,325.89667 L310.92514,342.39258 L343.01047,346.4765 z"/>
<path d="M246.2877,378.63568 L247.13123,408.61032 L263.943,398.00302 z"/>
<path d="M342.16727,325.89667 L343.01047,346.4765 L370.92123,329.5554 z"/>
<path d="M606.8447,748.84485 L613.19525,722.2216 L586.53503,719.6654 z"/>
<path d="M198.20258,435.58884 L228.19353,453.47504 L218.72488,430.74426 z"/>
<path d="M198.20258,435.58884 L193.09543,464.41306 L228.19353,453.47504 z"/>
<path d="M475.59195,310.00888 L446.74008,314.92557 L457.79633,337.60995 z"/>
<path d="M160.1044,611.93384 L179.51038,626.5579 L192.35524,592.6078 z"/>
<path d="M195.40646,692.63824 L221.51343,714.7665 L214.85365,687.7454 z"/>
<path d="M161.82741,578.47626 L192.35524,592.6078 L181.10768,565.51965 z"/>
<path d="M355.59512,311.3157 L342.16727,325.89667 L370.92123,329.5554 z"/>
<path d="M663.76526,459.66956 L641.4943,442.18643 L638.0035,460.87912 z"/>
<path d="M663.76526,459.66956 L638.0035,460.87912 L649.77954,477.25412 z"/>
<path d="M308.23367,793.2526 L333.02753,778.7752 L306.26874,762.3363 z"/>
<path d="M381.37613,804.93976 L410.49304,817.05615 L411.73758,786.5926 z"/>
<path d="M214.85365,687.7454 L221.51343,714.7665 L240.86992,708.6982 z"/>
<path d="M195.40646,692.63824 L214.85365,687.7454 L205.6333,665.8182 z"/>
<path d="M193.09543,464.41306 L181.82028,489.15903 L214.17873,486.80716 z"/>
<path d="M181.67622,517.76904 L169.51544,547.9959 L189.43405,544.30005 z"/>
<path d="M244.58154,764.0703 L262.91476,757.888 L245.41692,732.5557 z"/>
<path d="M245.41692,732.5557 L262.91476,757.888 L272.7115,735.28125 z"/>
<path d="M614.46234,391.5122 L588.0556,374.71304 L600.63745,408.23477 z"/>
<path d="M552.39435,368.5182 L544.4389,339.7675 L533.76996,364.16656 z"/>
<path d="M614.46234,391.5122 L600.63745,408.23477 L618.773,417.8479 z"/>
<path d="M613.19525,722.2216 L636.4511,694.2103 L610.16345,703.5562 z"/>
<path d="M155.68411,518.81354 L169.51544,547.9959 L181.67622,517.76904 z"/>
<path d="M477.07867,828.1052 L485.29333,807.951 L451.18936,801.3048 z"/>
<path d="M518.49854,786.25555 L539.97046,789.63684 L536.45215,758.659 z"/>
<path d="M246.2877,378.63568 L263.943,398.00302 L277.69705,373.5195 z"/>
<path d="M207.44739,414.39294 L198.20258,435.58884 L218.72488,430.74426 z"/>
<path d="M670.8046,621.1201 L645.64545,631.37897 L661.93494,651.68567 z"/>
<path d="M670.8046,621.1201 L643.536,606.4224 L645.64545,631.37897 z"/>
<path d="M657.707,552.00104 L673.8536,536.3672 L649.8623,534.4202 z"/>
<path d="M689.32404,549.774 L673.8536,536.3672 L657.707,552.00104 z"/>
<path d="M659.8752,517.821 L668.6684,498.6436 L646.73584,496.59808 z"/>
<path d="M385.14194,824.84674 L410.49304,817.05615 L381.37613,804.93976 z"/>
<path d="M431.2447,809.51117 L443.65063,827.1759 L451.18936,801.3048 z"/>
<path d="M588.0556,374.71304 L572.52625,358.2296 L563.27484,390.47964 z"/>
<path d="M451.9269,292.07776 L429.95532,304.77985 L446.74008,314.92557 z"/>
<path d="M266.4194,354.0175 L246.2877,378.63568 L277.69705,373.5195 z"/>
<path d="M572.52625,358.2296 L544.4389,339.7675 L552.39435,368.5182 z"/>
<path d="M685.5836,518.4127 L668.6684,498.6436 L659.8752,517.821 z"/>
<path d="M526.02185,812.9933 L539.97046,789.63684 L518.49854,786.25555 z"/>
<path d="M579.3262,748.98755 L606.8447,748.84485 L586.53503,719.6654 z"/>
<path d="M661.93494,651.68567 L645.64545,631.37897 L643.8439,657.84204 z"/>
<path d="M653.36926,678.24115 L661.93494,651.68567 L643.8439,657.84204 z"/>
<path d="M288.46045,794.1399 L276.58267,774.41675 L253.1138,793.67017 z"/>
<path d="M262.91476,757.888 L276.58267,774.41675 L293.02975,748.2088 z"/>
<path d="M288.46045,794.1399 L308.23367,793.2526 L306.26874,762.3363 z"/>
<path d="M689.32404,549.774 L678.74054,569.7261 L704.19806,566.20996 z"/>
<path d="M673.42303,593.22424 L678.74054,569.7261 L643.39526,571.215 z"/>
<path d="M673.9208,476.69492 L649.77954,477.25412 L668.6684,498.6436 z"/>
<path d="M539.97046,789.63684 L562.0352,778.716 L536.45215,758.659 z"/>
<path d="M406.53812,297.34424 L380.34085,309.44446 L400.10233,319.12628 z"/>
<path d="M400.10233,319.12628 L380.34085,309.44446 L370.92123,329.5554 z"/>
<path d="M207.44739,414.39294 L228.53136,413.15497 L214.427,391.9744 z"/>
<path d="M207.44739,414.39294 L218.72488,430.74426 L228.53136,413.15497 z"/>
<path d="M193.09543,464.41306 L171.05132,469.2454 L181.82028,489.15903 z"/>
<path d="M636.18555,408.92957 L614.46234,391.5122 L618.773,417.8479 z"/>
<path d="M588.0556,374.71304 L606.66144,362.50143 L572.52625,358.2296 z"/>
<path d="M645.81116,713.9105 L636.4511,694.2103 L613.19525,722.2216 z"/>
<path d="M645.81116,713.9105 L653.36926,678.24115 L636.4511,694.2103 z"/>
<path d="M636.4511,694.2103 L653.36926,678.24115 L631.6093,672.78723 z"/>
<path d="M475.59195,310.00888 L457.79633,337.60995 L493.24664,333.14697 z"/>
<path d="M446.74008,314.92557 L429.95532,304.77985 L423.8164,341.60178 z"/>
<path d="M508.24286,316.88068 L475.59195,310.00888 L493.24664,333.14697 z"/>
<path d="M500.8799,840.16187 L506.66837,808.84094 L485.29333,807.951 z"/>
<path d="M485.29333,807.951 L506.66837,808.84094 L495.00482,790.8323 z"/>
<path d="M602.2193,770.86615 L581.114,770.6246 L586.0428,797.8365 z"/>
<path d="M141.57773,575.11615 L161.82741,578.47626 L169.51544,547.9959 z"/>
<path d="M169.51544,547.9959 L161.82741,578.47626 L181.10768,565.51965 z"/>
<path d="M380.34085,309.44446 L355.59512,311.3157 L370.92123,329.5554 z"/>
<path d="M303.1875,324.66318 L285.09628,340.13815 L310.92514,342.39258 z"/>
<path d="M285.09628,340.13815 L277.69705,373.5195 L298.1501,366.21494 z"/>
<path d="M361.76135,292.34906 L355.59512,311.3157 L380.34085,309.44446 z"/>
<path d="M285.09628,340.13815 L298.1501,366.21494 L310.92514,342.39258 z"/>
<path d="M214.427,391.9744 L228.53136,413.15497 L233.93689,394.0253 z"/>
<path d="M179.26074,679.9156 L195.40646,692.63824 L205.6333,665.8182 z"/>
<path d="M244.58154,764.0703 L276.58267,774.41675 L262.91476,757.888 z"/>
<path d="M175.39133,652.21014 L205.95229,636.1712 L179.51038,626.5579 z"/>
<path d="M298.7063,810.26886 L328.5683,807.00275 L308.23367,793.2526 z"/>
<path d="M308.23367,793.2526 L328.5683,807.00275 L333.02753,778.7752 z"/>
<path d="M364.38315,827.5475 L385.14194,824.84674 L381.37613,804.93976 z"/>
<path d="M214.427,391.9744 L233.93689,394.0253 L226.1433,364.41293 z"/>
<path d="M527.35645,313.7455 L508.24286,316.88068 L520.6034,349.73337 z"/>
<path d="M567.71765,804.1661 L562.0352,778.716 L539.97046,789.63684 z"/>
<path d="M562.0352,778.716 L581.114,770.6246 L556.7567,756.3069 z"/>
<path d="M303.1875,324.66318 L310.92514,342.39258 L329.15182,311.16122 z"/>
<path d="M157.65347,630.8731 L175.39133,652.21014 L179.51038,626.5579 z"/>
<path d="M602.2193,770.86615 L606.8447,748.84485 L579.3262,748.98755 z"/>
<path d="M673.9208,476.69492 L668.6684,498.6436 L688.5607,498.46396 z"/>
<path d="M673.9208,476.69492 L663.76526,459.66956 L649.77954,477.25412 z"/>
<path d="M641.4943,442.18643 L636.18555,408.92957 L618.773,417.8479 z"/>
<path d="M364.38315,827.5475 L381.37613,804.93976 L348.855,803.4551 z"/>
<path d="M410.49304,817.05615 L443.65063,827.1759 L431.2447,809.51117 z"/>
<path d="M655.4529,415.3936 L636.18555,408.92957 L641.4943,442.18643 z"/>
<path d="M417.52283,845.94476 L443.65063,827.1759 L410.49304,817.05615 z"/>
<path d="M161.82741,578.47626 L160.1044,611.93384 L192.35524,592.6078 z"/>
<path d="M423.178,280.29575 L406.53812,297.34424 L429.95532,304.77985 z"/>
<path d="M429.95532,304.77985 L406.53812,297.34424 L400.10233,319.12628 z"/>
<path d="M329.15182,311.16122 L342.16727,325.89667 L355.59512,311.3157 z"/>
<path d="M329.15182,311.16122 L310.92514,342.39258 L342.16727,325.89667 z"/>
<path d="M250.08101,335.5733 L246.14568,358.2769 L266.4194,354.0175 z"/>
<path d="M244.58154,764.0703 L245.41692,732.5557 L225.31381,746.23376 z"/>
<path d="M276.58267,774.41675 L288.46045,794.1399 L306.26874,762.3363 z"/>
<path d="M685.5836,518.4127 L659.8752,517.821 L673.8536,536.3672 z"/>
<path d="M672.53186,442.44028 L655.4529,415.3936 L641.4943,442.18643 z"/>
<path d="M689.32404,549.774 L685.5836,518.4127 L673.8536,536.3672 z"/>
<path d="M166.15372,443.0423 L171.05132,469.2454 L193.09543,464.41306 z"/>
<path d="M181.82028,489.15903 L162.80833,490.8109 L181.67622,517.76904 z"/>
<path d="M166.15372,443.0423 L193.09543,464.41306 L198.20258,435.58884 z"/>
<path d="M225.31381,746.23376 L245.41692,732.5557 L221.51343,714.7665 z"/>
<path d="M678.74054,569.7261 L689.32404,549.774 L657.707,552.00104 z"/>
<path d="M704.19806,566.20996 L678.74054,569.7261 L704.70807,597.03674 z"/>
<path d="M204.20514,734.5645 L225.31381,746.23376 L221.51343,714.7665 z"/>
<path d="M329.1804,285.3743 L329.15182,311.16122 L355.59512,311.3157 z"/>
<path d="M171.05132,469.2454 L162.80833,490.8109 L181.82028,489.15903 z"/>
<path d="M161.82741,578.47626 L134.77824,596.38556 L160.1044,611.93384 z"/>
<path d="M226.1433,364.41293 L233.93689,394.0253 L246.2877,378.63568 z"/>
<path d="M207.44739,414.39294 L184.80501,410.69574 L198.20258,435.58884 z"/>
<path d="M246.14568,358.2769 L246.2877,378.63568 L266.4194,354.0175 z"/>
<path d="M160.61423,673.501 L179.26074,679.9156 L175.39133,652.21014 z"/>
<path d="M175.39133,652.21014 L179.26074,679.9156 L205.6333,665.8182 z"/>
<path d="M186.99742,713.19165 L204.20514,734.5645 L221.51343,714.7665 z"/>
<path d="M661.93494,651.68567 L680.18286,640.1306 L670.8046,621.1201 z"/>
<path d="M670.8046,621.1201 L700.5967,618.2409 L673.42303,593.22424 z"/>
<path d="M693.02167,659.4762 L680.18286,640.1306 L661.93494,651.68567 z"/>
<path d="M673.5627,682.0873 L661.93494,651.68567 L653.36926,678.24115 z"/>
<path d="M162.80833,490.8109 L155.68411,518.81354 L181.67622,517.76904 z"/>
<path d="M250.08101,335.5733 L266.4194,354.0175 L263.20248,319.76166 z"/>
<path d="M634.11444,730.651 L645.81116,713.9105 L613.19525,722.2216 z"/>
<path d="M606.8447,748.84485 L634.11444,730.651 L613.19525,722.2216 z"/>
<path d="M631.7045,752.2434 L634.11444,730.651 L606.8447,748.84485 z"/>
<path d="M339.4235,826.6821 L348.855,803.4551 L328.5683,807.00275 z"/>
<path d="M339.4235,826.6821 L364.38315,827.5475 L348.855,803.4551 z"/>
<path d="M388.795,846.7143 L417.52283,845.94476 L410.49304,817.05615 z"/>
<path d="M155.68411,518.81354 L152.26196,540.12244 L169.51544,547.9959 z"/>
<path d="M443.65063,827.1759 L477.07867,828.1052 L451.18936,801.3048 z"/>
<path d="M506.66837,808.84094 L526.02185,812.9933 L518.49854,786.25555 z"/>
<path d="M450.1342,852.4909 L477.07867,828.1052 L443.65063,827.1759 z"/>
<path d="M522.8584,836.26166 L526.02185,812.9933 L506.66837,808.84094 z"/>
<path d="M581.114,770.6246 L602.2193,770.86615 L579.3262,748.98755 z"/>
<path d="M508.24286,316.88068 L498.60132,294.22174 L475.59195,310.00888 z"/>
<path d="M475.59195,310.00888 L451.9269,292.07776 L446.74008,314.92557 z"/>
<path d="M544.4389,339.7675 L527.35645,313.7455 L520.6034,349.73337 z"/>
<path d="M547.146,320.193 L527.35645,313.7455 L544.4389,339.7675 z"/>
<path d="M577.36865,338.52515 L544.4389,339.7675 L572.52625,358.2296 z"/>
<path d="M606.66144,362.50143 L588.0556,374.71304 L614.46234,391.5122 z"/>
<path d="M160.1044,611.93384 L157.65347,630.8731 L179.51038,626.5579 z"/>
<path d="M141.95422,619.2323 L157.65347,630.8731 L160.1044,611.93384 z"/>
<path d="M472.52292,282.82144 L451.9269,292.07776 L475.59195,310.00888 z"/>
<path d="M639.8136,376.30835 L606.66144,362.50143 L614.46234,391.5122 z"/>
<path d="M597.79675,338.44766 L577.36865,338.52515 L572.52625,358.2296 z"/>
<path d="M577.36865,338.52515 L547.146,320.193 L544.4389,339.7675 z"/>
<path d="M685.5836,518.4127 L688.5607,498.46396 L668.6684,498.6436 z"/>
<path d="M672.53186,442.44028 L641.4943,442.18643 L663.76526,459.66956 z"/>
<path d="M707.59576,508.50293 L688.5607,498.46396 L685.5836,518.4127 z"/>
<path d="M586.0428,797.8365 L581.114,770.6246 L562.0352,778.716 z"/>
<path d="M288.46045,794.1399 L298.7063,810.26886 L308.23367,793.2526 z"/>
<path d="M277.8254,810.54803 L298.7063,810.26886 L288.46045,794.1399 z"/>
<path d="M316.5112,824.35205 L339.4235,826.6821 L328.5683,807.00275 z"/>
<path d="M672.53186,442.44028 L663.76526,459.66956 L693.05225,459.15262 z"/>
<path d="M636.18555,408.92957 L639.8136,376.30835 L614.46234,391.5122 z"/>
<path d="M186.99742,713.19165 L221.51343,714.7665 L195.40646,692.63824 z"/>
<path d="M230.55873,779.4785 L253.1138,793.67017 L244.58154,764.0703 z"/>
<path d="M244.58154,764.0703 L253.1138,793.67017 L276.58267,774.41675 z"/>
<path d="M402.53403,269.7949 L384.02118,288.68372 L406.53812,297.34424 z"/>
<path d="M406.53812,297.34424 L384.02118,288.68372 L380.34085,309.44446 z"/>
<path d="M263.20248,319.76166 L285.09628,340.13815 L280.6006,300.09695 z"/>
<path d="M384.02118,288.68372 L361.76135,292.34906 L380.34085,309.44446 z"/>
<path d="M693.05225,459.15262 L663.76526,459.66956 L673.9208,476.69492 z"/>
<path d="M668.894,712.4703 L673.5627,682.0873 L653.36926,678.24115 z"/>
<path d="M668.894,712.4703 L653.36926,678.24115 L645.81116,713.9105 z"/>
<path d="M668.894,712.4703 L645.81116,713.9105 L653.8779,747.7818 z"/>
<path d="M179.26074,679.9156 L186.99742,713.19165 L195.40646,692.63824 z"/>
<path d="M160.25203,700.34045 L186.99742,713.19165 L179.26074,679.9156 z"/>
<path d="M213.50629,346.73303 L226.1433,364.41293 L246.14568,358.2769 z"/>
<path d="M246.14568,358.2769 L226.1433,364.41293 L246.2877,378.63568 z"/>
<path d="M195.12086,383.84412 L184.80501,410.69574 L207.44739,414.39294 z"/>
<path d="M266.4194,354.0175 L285.09628,340.13815 L263.20248,319.76166 z"/>
<path d="M520.276,289.1354 L508.24286,316.88068 L527.35645,313.7455 z"/>
<path d="M520.276,289.1354 L498.60132,294.22174 L508.24286,316.88068 z"/>
<path d="M451.9269,292.07776 L423.178,280.29575 L429.95532,304.77985 z"/>
<path d="M137.51585,640.7558 L156.00624,651.45593 L157.65347,630.8731 z"/>
<path d="M157.65347,630.8731 L156.00624,651.45593 L175.39133,652.21014 z"/>
<path d="M134.23526,547.0338 L141.57773,575.11615 L152.26196,540.12244 z"/>
<path d="M152.26196,540.12244 L141.57773,575.11615 L169.51544,547.9959 z"/>
<path d="M298.7063,810.26886 L316.5112,824.35205 L328.5683,807.00275 z"/>
<path d="M553.08264,820.1669 L567.71765,804.1661 L539.97046,789.63684 z"/>
<path d="M553.08264,820.1669 L539.97046,789.63684 L526.02185,812.9933 z"/>
<path d="M195.12086,383.84412 L207.44739,414.39294 L214.427,391.9744 z"/>
<path d="M138.24937,460.62967 L131.4523,491.90237 L162.80833,490.8109 z"/>
<path d="M165.7796,421.3059 L166.15372,443.0423 L198.20258,435.58884 z"/>
<path d="M137.68422,512.2871 L152.26196,540.12244 L155.68411,518.81354 z"/>
<path d="M137.68422,512.2871 L134.23526,547.0338 L152.26196,540.12244 z"/>
<path d="M629.0629,775.64777 L606.8447,748.84485 L602.2193,770.86615 z"/>
<path d="M629.0629,775.64777 L631.7045,752.2434 L606.8447,748.84485 z"/>
<path d="M700.5967,618.2409 L670.8046,621.1201 L680.18286,640.1306 z"/>
<path d="M704.70807,597.03674 L678.74054,569.7261 L673.42303,593.22424 z"/>
<path d="M689.32404,549.774 L705.09235,538.84814 L685.5836,518.4127 z"/>
<path d="M388.795,846.7143 L364.38315,827.5475 L364.68088,856.31366 z"/>
<path d="M388.795,846.7143 L385.14194,824.84674 L364.38315,827.5475 z"/>
<path d="M388.795,846.7143 L410.49304,817.05615 L385.14194,824.84674 z"/>
<path d="M477.07867,828.1052 L500.8799,840.16187 L485.29333,807.951 z"/>
<path d="M442.51328,273.53384 L423.178,280.29575 L451.9269,292.07776 z"/>
<path d="M349.1457,263.58844 L329.1804,285.3743 L361.76135,292.34906 z"/>
<path d="M156.00624,651.45593 L160.61423,673.501 L175.39133,652.21014 z"/>
<path d="M668.7841,400.18207 L650.0611,394.52283 L655.4529,415.3936 z"/>
<path d="M655.4529,415.3936 L650.0611,394.52283 L636.18555,408.92957 z"/>
<path d="M606.66144,362.50143 L597.79675,338.44766 L572.52625,358.2296 z"/>
<path d="M698.9851,659.2539 L700.5967,618.2409 L680.18286,640.1306 z"/>
<path d="M704.19806,566.20996 L705.09235,538.84814 L689.32404,549.774 z"/>
<path d="M688.5607,498.46396 L697.19415,481.31534 L673.9208,476.69492 z"/>
<path d="M700.5967,618.2409 L704.70807,597.03674 L673.42303,593.22424 z"/>
<path d="M710.6182,511.4414 L685.5836,518.4127 L705.09235,538.84814 z"/>
<path d="M498.60132,294.22174 L472.52292,282.82144 L475.59195,310.00888 z"/>
<path d="M299.4551,304.8518 L303.1875,324.66318 L329.15182,311.16122 z"/>
<path d="M204.90262,364.9446 L195.12086,383.84412 L214.427,391.9744 z"/>
<path d="M134.77824,596.38556 L141.95422,619.2323 L160.1044,611.93384 z"/>
<path d="M156.00624,651.45593 L142.33221,664.83844 L160.61423,673.501 z"/>
<path d="M347.98175,844.09485 L364.38315,827.5475 L339.4235,826.6821 z"/>
<path d="M230.55873,779.4785 L244.58154,764.0703 L225.31381,746.23376 z"/>
<path d="M298.7063,810.26886 L301.89603,841.9649 L316.5112,824.35205 z"/>
<path d="M564.8664,305.40402 L542.3402,298.36676 L547.146,320.193 z"/>
<path d="M547.146,320.193 L542.3402,298.36676 L527.35645,313.7455 z"/>
<path d="M623.77954,341.80676 L597.79675,338.44766 L606.66144,362.50143 z"/>
<path d="M329.1804,285.3743 L299.4551,304.8518 L329.15182,311.16122 z"/>
<path d="M253.1138,793.67017 L277.8254,810.54803 L288.46045,794.1399 z"/>
<path d="M567.71765,804.1661 L586.0428,797.8365 L562.0352,778.716 z"/>
<path d="M650.0611,394.52283 L639.8136,376.30835 L636.18555,408.92957 z"/>
<path d="M707.59576,508.50293 L697.19415,481.31534 L688.5607,498.46396 z"/>
<path d="M679.91516,416.94714 L668.7841,400.18207 L655.4529,415.3936 z"/>
<path d="M698.9851,659.2539 L693.02167,659.4762 L673.5627,682.0873 z"/>
<path d="M673.5627,682.0873 L693.02167,659.4762 L661.93494,651.68567 z"/>
<path d="M700.5967,618.2409 L710.6182,610.7986 L704.70807,597.03674 z"/>
<path d="M490.36694,862.07025 L500.8799,840.16187 L477.07867,828.1052 z"/>
<path d="M567.71765,804.1661 L583.62177,818.0379 L586.0428,797.8365 z"/>
<path d="M137.68422,512.2871 L155.68411,518.81354 L162.80833,490.8109 z"/>
<path d="M141.57773,575.11615 L134.77824,596.38556 L161.82741,578.47626 z"/>
<path d="M522.8584,836.26166 L553.08264,820.1669 L526.02185,812.9933 z"/>
<path d="M207.99944,768.7693 L230.55873,779.4785 L225.31381,746.23376 z"/>
<path d="M258.20444,820.36127 L284.00226,832.8901 L277.8254,810.54803 z"/>
<path d="M207.99944,768.7693 L225.31381,746.23376 L204.20514,734.5645 z"/>
<path d="M207.99944,768.7693 L204.20514,734.5645 L181.5133,746.16864 z"/>
<path d="M131.4523,491.90237 L137.68422,512.2871 L162.80833,490.8109 z"/>
<path d="M653.8779,747.7818 L645.81116,713.9105 L634.11444,730.651 z"/>
<path d="M120.10146,568.85144 L134.77824,596.38556 L141.57773,575.11615 z"/>
<path d="M204.90262,364.9446 L214.427,391.9744 L226.1433,364.41293 z"/>
<path d="M184.80501,410.69574 L165.7796,421.3059 L198.20258,435.58884 z"/>
<path d="M328.41397,842.67224 L339.4235,826.6821 L316.5112,824.35205 z"/>
<path d="M328.41397,842.67224 L347.98175,844.09485 L339.4235,826.6821 z"/>
<path d="M472.52292,282.82144 L442.51328,273.53384 L451.9269,292.07776 z"/>
<path d="M374.76718,260.16818 L361.76135,292.34906 L384.02118,288.68372 z"/>
<path d="M361.76135,292.34906 L329.1804,285.3743 L355.59512,311.3157 z"/>
<path d="M280.6006,300.09695 L285.09628,340.13815 L303.1875,324.66318 z"/>
<path d="M213.50629,346.73303 L204.90262,364.9446 L226.1433,364.41293 z"/>
<path d="M432.2111,872.2378 L450.1342,852.4909 L417.52283,845.94476 z"/>
<path d="M417.52283,845.94476 L450.1342,852.4909 L443.65063,827.1759 z"/>
<path d="M402.90024,860.41174 L417.52283,845.94476 L388.795,846.7143 z"/>
<path d="M697.19415,481.31534 L693.05225,459.15262 L673.9208,476.69492 z"/>
<path d="M650.0611,394.52283 L653.8779,374.45822 L639.8136,376.30835 z"/>
<path d="M714.528,561.12 L705.09235,538.84814 L704.19806,566.20996 z"/>
<path d="M710.6182,511.4414 L707.59576,508.50293 L685.5836,518.4127 z"/>
<path d="M697.19415,481.31534 L698.9851,462.98608 L693.05225,459.15262 z"/>
<path d="M579.93384,318.39352 L547.146,320.193 L577.36865,338.52515 z"/>
<path d="M498.60132,294.22174 L489.13477,273.3185 L472.52292,282.82144 z"/>
<path d="M472.52292,282.82144 L463.7565,262.44464 L442.51328,273.53384 z"/>
<path d="M541.1329,844.07513 L522.8584,836.26166 L495.0939,863.14514 z"/>
<path d="M500.8799,840.16187 L522.8584,836.26166 L506.66837,808.84094 z"/>
<path d="M542.3402,298.36676 L520.276,289.1354 L527.35645,313.7455 z"/>
<path d="M599.8936,319.62042 L579.93384,318.39352 L597.79675,338.44766 z"/>
<path d="M597.79675,338.44766 L579.93384,318.39352 L577.36865,338.52515 z"/>
<path d="M166.00246,389.5829 L165.7796,421.3059 L184.80501,410.69574 z"/>
<path d="M138.24937,460.62967 L162.80833,490.8109 L171.05132,469.2454 z"/>
<path d="M698.9851,659.2539 L710.6182,610.7986 L700.5967,618.2409 z"/>
<path d="M704.70807,597.03674 L714.528,561.12 L704.19806,566.20996 z"/>
<path d="M710.6182,610.7986 L714.528,561.12 L704.70807,597.03674 z"/>
<path d="M402.53403,269.7949 L406.53812,297.34424 L423.178,280.29575 z"/>
<path d="M299.4551,304.8518 L280.6006,300.09695 L303.1875,324.66318 z"/>
<path d="M679.91516,705.29285 L698.9851,659.2539 L673.5627,682.0873 z"/>
<path d="M693.02167,659.4762 L698.9851,659.2539 L680.18286,640.1306 z"/>
<path d="M714.528,561.12 L710.6182,511.4414 L705.09235,538.84814 z"/>
<path d="M707.59576,508.50293 L710.6182,511.4414 L697.19415,481.31534 z"/>
<path d="M213.50629,346.73303 L246.14568,358.2769 L225.11804,328.0157 z"/>
<path d="M195.12086,383.84412 L166.00246,389.5829 L184.80501,410.69574 z"/>
<path d="M421.91324,245.64487 L402.53403,269.7949 L423.178,280.29575 z"/>
<path d="M301.89603,841.9649 L328.41397,842.67224 L316.5112,824.35205 z"/>
<path d="M396.96,878.688 L402.90024,860.41174 L388.795,846.7143 z"/>
<path d="M141.95422,619.2323 L137.51585,640.7558 L157.65347,630.8731 z"/>
<path d="M160.61423,673.501 L160.25203,700.34045 L179.26074,679.9156 z"/>
<path d="M123.18823,614.5733 L137.51585,640.7558 L141.95422,619.2323 z"/>
<path d="M653.8779,747.7818 L679.91516,705.29285 L668.894,712.4703 z"/>
<path d="M668.894,712.4703 L679.91516,705.29285 L673.5627,682.0873 z"/>
<path d="M653.8779,747.7818 L634.11444,730.651 L631.7045,752.2434 z"/>
<path d="M583.62177,818.0379 L611.07324,789.0868 L586.0428,797.8365 z"/>
<path d="M586.0428,797.8365 L611.07324,789.0868 L602.2193,770.86615 z"/>
<path d="M710.6182,511.4414 L698.9851,462.98608 L697.19415,481.31534 z"/>
<path d="M679.91516,416.94714 L655.4529,415.3936 L672.53186,442.44028 z"/>
<path d="M579.93384,318.39352 L564.8664,305.40402 L547.146,320.193 z"/>
<path d="M542.3402,298.36676 L537.53235,277.12622 L520.276,289.1354 z"/>
<path d="M139.80948,696.50385 L160.25203,700.34045 L160.61423,673.501 z"/>
<path d="M679.91516,416.94714 L672.53186,442.44028 L693.05225,459.15262 z"/>
<path d="M639.8136,376.30835 L623.77954,341.80676 L606.66144,362.50143 z"/>
<path d="M181.5133,746.16864 L204.20514,734.5645 L186.99742,713.19165 z"/>
<path d="M258.20444,820.36127 L277.8254,810.54803 L253.1138,793.67017 z"/>
<path d="M277.8254,810.54803 L284.00226,832.8901 L298.7063,810.26886 z"/>
<path d="M629.0629,775.64777 L653.8779,747.7818 L631.7045,752.2434 z"/>
<path d="M698.9851,462.98608 L679.91516,416.94714 L693.05225,459.15262 z"/>
<path d="M621.51447,785.6745 L629.0629,775.64777 L602.2193,770.86615 z"/>
<path d="M137.51585,640.7558 L142.33221,664.83844 L156.00624,651.45593 z"/>
<path d="M506.96564,266.35684 L498.60132,294.22174 L520.276,289.1354 z"/>
<path d="M506.96564,266.35684 L489.13477,273.3185 L498.60132,294.22174 z"/>
<path d="M442.51328,273.53384 L421.91324,245.64487 L423.178,280.29575 z"/>
<path d="M364.68088,856.31366 L364.38315,827.5475 L347.98175,844.09485 z"/>
<path d="M446.63858,874.7782 L469.2587,857.9579 L450.1342,852.4909 z"/>
<path d="M450.1342,852.4909 L469.2587,857.9579 L477.07867,828.1052 z"/>
<path d="M366.34338,875.4326 L364.68088,856.31366 L347.28143,874.7782 z"/>
<path d="M304.09732,284.12335 L280.6006,300.09695 L299.4551,304.8518 z"/>
<path d="M225.11804,328.0157 L246.14568,358.2769 L250.08101,335.5733 z"/>
<path d="M583.62177,818.0379 L621.51447,785.6745 L611.07324,789.0868 z"/>
<path d="M611.07324,789.0868 L621.51447,785.6745 L602.2193,770.86615 z"/>
<path d="M629.0629,775.64777 L621.51447,785.6745 L653.8779,747.7818 z"/>
<path d="M583.62177,818.0379 L567.71765,804.1661 L553.08264,820.1669 z"/>
<path d="M138.24937,460.62967 L171.05132,469.2454 L166.15372,443.0423 z"/>
<path d="M111.657585,539.7101 L120.10146,568.85144 L134.23526,547.0338 z"/>
<path d="M134.23526,547.0338 L120.10146,568.85144 L141.57773,575.11615 z"/>
<path d="M679.91516,416.94714 L653.8779,374.45822 L668.7841,400.18207 z"/>
<path d="M668.7841,400.18207 L653.8779,374.45822 L650.0611,394.52283 z"/>
<path d="M579.93384,318.39352 L583.62177,304.2021 L564.8664,305.40402 z"/>
<path d="M653.8779,374.45822 L623.77954,341.80676 L639.8136,376.30835 z"/>
<path d="M145.85588,714.41113 L165.24203,718.5913 L160.25203,700.34045 z"/>
<path d="M160.25203,700.34045 L165.24203,718.5913 L186.99742,713.19165 z"/>
<path d="M225.11804,328.0157 L250.08101,335.5733 L244.00452,302.8986 z"/>
<path d="M204.90262,364.9446 L184.29541,365.75208 L195.12086,383.84412 z"/>
<path d="M139.33325,430.24054 L138.24937,460.62967 L166.15372,443.0423 z"/>
<path d="M139.33325,430.24054 L166.15372,443.0423 L165.7796,421.3059 z"/>
<path d="M118.981,519.9027 L134.23526,547.0338 L137.68422,512.2871 z"/>
<path d="M134.77824,596.38556 L123.18823,614.5733 L141.95422,619.2323 z"/>
<path d="M137.51585,640.7558 L117.16453,641.1713 L142.33221,664.83844 z"/>
<path d="M541.1329,844.07513 L583.62177,818.0379 L553.08264,820.1669 z"/>
<path d="M541.1329,844.07513 L553.08264,820.1669 L522.8584,836.26166 z"/>
<path d="M621.51447,336.56552 L599.8936,319.62042 L597.79675,338.44766 z"/>
<path d="M541.1329,278.16483 L537.53235,277.12622 L542.3402,298.36676 z"/>
<path d="M165.24203,718.5913 L181.5133,746.16864 L186.99742,713.19165 z"/>
<path d="M653.8779,374.45822 L621.51447,336.56552 L623.77954,341.80676 z"/>
<path d="M623.77954,341.80676 L621.51447,336.56552 L597.79675,338.44766 z"/>
<path d="M258.20444,820.36127 L253.1138,793.67017 L232.60953,809.0014 z"/>
<path d="M328.41397,842.67224 L347.28143,874.7782 L347.98175,844.09485 z"/>
<path d="M101.79846,585.87134 L123.18823,614.5733 L134.77824,596.38556 z"/>
<path d="M330.07355,265.78766 L304.09732,284.12335 L329.1804,285.3743 z"/>
<path d="M329.1804,285.3743 L304.09732,284.12335 L299.4551,304.8518 z"/>
<path d="M284.00226,832.8901 L301.89603,841.9649 L298.7063,810.26886 z"/>
<path d="M495.0939,259.09488 L463.7565,262.44464 L489.13477,273.3185 z"/>
<path d="M489.13477,273.3185 L463.7565,262.44464 L472.52292,282.82144 z"/>
<path d="M232.60953,809.0014 L253.1138,793.67017 L230.55873,779.4785 z"/>
<path d="M298.82608,863.14514 L317.52707,861.86743 L301.89603,841.9649 z"/>
<path d="M232.60953,809.0014 L230.55873,779.4785 L205.9768,796.4014 z"/>
<path d="M495.0939,863.14514 L522.8584,836.26166 L500.8799,840.16187 z"/>
<path d="M621.51447,336.56552 L583.62177,304.2021 L599.8936,319.62042 z"/>
<path d="M599.8936,319.62042 L583.62177,304.2021 L579.93384,318.39352 z"/>
<path d="M109.9567,502.45142 L137.68422,512.2871 L131.4523,491.90237 z"/>
<path d="M109.9567,502.45142 L118.981,519.9027 L137.68422,512.2871 z"/>
<path d="M469.2587,857.9579 L490.36694,862.07025 L477.07867,828.1052 z"/>
<path d="M446.63858,874.7782 L490.36694,862.07025 L469.2587,857.9579 z"/>
<path d="M244.00452,302.8986 L250.08101,335.5733 L263.20248,319.76166 z"/>
<path d="M188.63425,346.4653 L184.29541,365.75208 L204.90262,364.9446 z"/>
<path d="M244.00452,302.8986 L263.20248,319.76166 L257.3323,288.52774 z"/>
<path d="M396.96,243.552 L374.76718,260.16818 L402.53403,269.7949 z"/>
<path d="M402.53403,269.7949 L374.76718,260.16818 L384.02118,288.68372 z"/>
<path d="M374.76718,260.16818 L349.1457,263.58844 L361.76135,292.34906 z"/>
<path d="M446.63858,874.7782 L495.0939,863.14514 L490.36694,862.07025 z"/>
<path d="M490.36694,862.07025 L495.0939,863.14514 L500.8799,840.16187 z"/>
<path d="M541.1329,278.16483 L542.3402,298.36676 L564.8664,305.40402 z"/>
<path d="M188.63425,346.4653 L204.90262,364.9446 L213.50629,346.73303 z"/>
<path d="M537.53235,277.12622 L506.96564,266.35684 L520.276,289.1354 z"/>
<path d="M583.62177,304.2021 L541.1329,278.16483 L564.8664,305.40402 z"/>
<path d="M537.53235,277.12622 L495.0939,259.09488 L506.96564,266.35684 z"/>
<path d="M396.96,878.688 L432.2111,872.2378 L402.90024,860.41174 z"/>
<path d="M402.90024,860.41174 L432.2111,872.2378 L417.52283,845.94476 z"/>
<path d="M396.96,878.688 L388.795,846.7143 L366.34338,875.4326 z"/>
<path d="M184.29541,365.75208 L166.00246,389.5829 L195.12086,383.84412 z"/>
<path d="M205.9768,796.4014 L230.55873,779.4785 L207.99944,768.7693 z"/>
<path d="M298.82608,863.14514 L301.89603,841.9649 L284.00226,832.8901 z"/>
<path d="M91.67067,532.1158 L111.657585,539.7101 L118.981,519.9027 z"/>
<path d="M118.981,519.9027 L111.657585,539.7101 L134.23526,547.0338 z"/>
<path d="M100.82695,608.1547 L117.16453,641.1713 L123.18823,614.5733 z"/>
<path d="M347.28143,247.46179 L330.07355,265.78766 L349.1457,263.58844 z"/>
<path d="M349.1457,263.58844 L330.07355,265.78766 L329.1804,285.3743 z"/>
<path d="M257.3323,288.52774 L263.20248,319.76166 L280.6006,300.09695 z"/>
<path d="M126.11428,675.69977 L139.80948,696.50385 L142.33221,664.83844 z"/>
<path d="M142.33221,664.83844 L139.80948,696.50385 L160.61423,673.501 z"/>
<path d="M165.24203,718.5913 L160.58842,752.8277 L181.5133,746.16864 z"/>
<path d="M180.8647,770.799 L205.9768,796.4014 L207.99944,768.7693 z"/>
<path d="M140.01721,408.6832 L139.33325,430.24054 L165.7796,421.3059 z"/>
<path d="M113.35862,474.23758 L109.9567,502.45142 L131.4523,491.90237 z"/>
<path d="M432.2111,872.2378 L446.63858,874.7782 L450.1342,852.4909 z"/>
<path d="M541.1329,278.16483 L495.0939,259.09488 L537.53235,277.12622 z"/>
<path d="M506.96564,266.35684 L495.0939,259.09488 L489.13477,273.3185 z"/>
<path d="M463.7565,262.44464 L446.63858,247.46179 L442.51328,273.53384 z"/>
<path d="M123.18823,614.5733 L117.16453,641.1713 L137.51585,640.7558 z"/>
<path d="M101.79846,585.87134 L134.77824,596.38556 L120.10146,568.85144 z"/>
<path d="M145.85991,737.78485 L145.85588,714.41113 L114.00484,705.29285 z"/>
<path d="M139.80948,696.50385 L145.85588,714.41113 L160.25203,700.34045 z"/>
<path d="M275.42514,281.79907 L280.6006,300.09695 L304.09732,284.12335 z"/>
<path d="M206.03827,328.54327 L188.63425,346.4653 L213.50629,346.73303 z"/>
<path d="M298.82608,863.14514 L284.00226,832.8901 L252.78714,844.07513 z"/>
<path d="M301.89603,841.9649 L317.52707,861.86743 L328.41397,842.67224 z"/>
<path d="M432.2111,872.2378 L396.96,878.688 L446.63858,874.7782 z"/>
<path d="M117.16453,641.1713 L126.11428,675.69977 L142.33221,664.83844 z"/>
<path d="M366.34338,875.4326 L388.795,846.7143 L364.68088,856.31366 z"/>
<path d="M495.0939,259.09488 L446.63858,247.46179 L463.7565,262.44464 z"/>
<path d="M374.76718,260.16818 L347.28143,247.46179 L349.1457,263.58844 z"/>
<path d="M347.28143,874.7782 L364.68088,856.31366 L347.98175,844.09485 z"/>
<path d="M298.82608,259.09488 L275.42514,281.79907 L304.09732,284.12335 z"/>
<path d="M446.63858,247.46179 L421.91324,245.64487 L442.51328,273.53384 z"/>
<path d="M180.8647,770.799 L207.99944,768.7693 L181.5133,746.16864 z"/>
<path d="M252.78714,844.07513 L284.00226,832.8901 L258.20444,820.36127 z"/>
<path d="M113.35862,474.23758 L131.4523,491.90237 L138.24937,460.62967 z"/>
<path d="M160.58842,752.8277 L180.8647,770.799 L181.5133,746.16864 z"/>
<path d="M140.04208,374.45822 L139.0218,388.66226 L166.00246,389.5829 z"/>
<path d="M166.00246,389.5829 L140.01721,408.6832 L165.7796,421.3059 z"/>
<path d="M206.03827,328.54327 L213.50629,346.73303 L225.11804,328.0157 z"/>
<path d="M421.91324,245.64487 L402.12546,245.26894 L402.53403,269.7949 z"/>
<path d="M209.01808,308.81232 L206.03827,328.54327 L225.11804,328.0157 z"/>
<path d="M275.42514,281.79907 L257.3323,288.52774 L280.6006,300.09695 z"/>
<path d="M244.00452,302.8986 L225.65063,296.35107 L225.11804,328.0157 z"/>
<path d="M317.52707,861.86743 L347.28143,874.7782 L328.41397,842.67224 z"/>
<path d="M366.34338,875.4326 L347.28143,874.7782 L396.96,878.688 z"/>
<path d="M421.91324,245.64487 L396.96,243.552 L402.12546,245.26894 z"/>
<path d="M402.12546,245.26894 L396.96,243.552 L402.53403,269.7949 z"/>
<path d="M330.07355,265.78766 L304.66116,258.15454 L304.09732,284.12335 z"/>
<path d="M446.63858,247.46179 L396.96,243.552 L421.91324,245.64487 z"/>
<path d="M86.26615,564.9076 L120.10146,568.85144 L111.657585,539.7101 z"/>
<path d="M86.26615,564.9076 L101.79846,585.87134 L120.10146,568.85144 z"/>
<path d="M117.16453,641.1713 L109.10122,666.67957 L126.11428,675.69977 z"/>
<path d="M116.59791,442.18192 L138.24937,460.62967 L139.33325,430.24054 z"/>
<path d="M116.59791,442.18192 L113.35862,474.23758 L138.24937,460.62967 z"/>
<path d="M139.0218,388.66226 L140.01721,408.6832 L166.00246,389.5829 z"/>
<path d="M145.85991,737.78485 L165.24203,718.5913 L145.85588,714.41113 z"/>
<path d="M145.85991,737.78485 L160.58842,752.8277 L165.24203,718.5913 z"/>
<path d="M210.29822,818.0379 L232.60953,809.0014 L205.9768,796.4014 z"/>
<path d="M101.79846,585.87134 L100.82695,608.1547 L123.18823,614.5733 z"/>
<path d="M252.78714,844.07513 L258.20444,820.36127 L223.45805,826.72345 z"/>
<path d="M317.52707,861.86743 L298.82608,863.14514 L347.28143,874.7782 z"/>
<path d="M396.96,243.552 L347.28143,247.46179 L374.76718,260.16818 z"/>
<path d="M275.42514,281.79907 L252.78714,278.16483 L257.3323,288.52774 z"/>
<path d="M120.90106,699.5511 L145.85588,714.41113 L139.80948,696.50385 z"/>
<path d="M120.90106,699.5511 L139.80948,696.50385 L126.11428,675.69977 z"/>
<path d="M347.28143,247.46179 L304.66116,258.15454 L330.07355,265.78766 z"/>
<path d="M223.45805,826.72345 L232.60953,809.0014 L210.29822,818.0379 z"/>
<path d="M223.45805,826.72345 L258.20444,820.36127 L232.60953,809.0014 z"/>
<path d="M347.28143,247.46179 L298.82608,259.09488 L304.66116,258.15454 z"/>
<path d="M304.66116,258.15454 L298.82608,259.09488 L304.09732,284.12335 z"/>
<path d="M121.91327,415.83807 L116.59791,442.18192 L139.33325,430.24054 z"/>
<path d="M83.30179,511.4414 L91.67067,532.1158 L109.9567,502.45142 z"/>
<path d="M94.93488,659.2539 L109.10122,666.67957 L117.16453,641.1713 z"/>
<path d="M210.29822,818.0379 L205.9768,796.4014 L172.40552,785.6745 z"/>
<path d="M205.9768,796.4014 L180.8647,770.799 L172.40552,785.6745 z"/>
<path d="M107.92524,685.54944 L120.90106,699.5511 L126.11428,675.69977 z"/>
<path d="M172.40552,785.6745 L180.8647,770.799 L160.58842,752.8277 z"/>
<path d="M252.78714,278.16483 L244.00452,302.8986 L257.3323,288.52774 z"/>
<path d="M252.78714,278.16483 L225.65063,296.35107 L244.00452,302.8986 z"/>
<path d="M206.03827,328.54327 L172.40552,336.56552 L188.63425,346.4653 z"/>
<path d="M149.42499,364.23758 L166.00246,389.5829 L184.29541,365.75208 z"/>
<path d="M298.82608,259.09488 L252.78714,278.16483 L275.42514,281.79907 z"/>
<path d="M91.24428,495.9961 L109.9567,502.45142 L113.35862,474.23758 z"/>
<path d="M109.9567,502.45142 L91.67067,532.1158 L118.981,519.9027 z"/>
<path d="M101.79846,585.87134 L83.30179,610.7986 L100.82695,608.1547 z"/>
<path d="M225.65063,296.35107 L209.01808,308.81232 L225.11804,328.0157 z"/>
<path d="M140.01721,408.6832 L121.91327,415.83807 L139.33325,430.24054 z"/>
<path d="M172.40552,336.56552 L184.29541,365.75208 L188.63425,346.4653 z"/>
<path d="M140.04208,747.7818 L160.58842,752.8277 L145.85991,737.78485 z"/>
<path d="M140.04208,747.7818 L172.40552,785.6745 L160.58842,752.8277 z"/>
<path d="M139.0218,388.66226 L121.91327,415.83807 L140.01721,408.6832 z"/>
<path d="M94.93488,462.98608 L91.24428,495.9961 L113.35862,474.23758 z"/>
<path d="M225.65063,296.35107 L210.29822,304.2021 L209.01808,308.81232 z"/>
<path d="M209.01808,308.81232 L172.40552,336.56552 L206.03827,328.54327 z"/>
<path d="M252.78714,278.16483 L210.29822,304.2021 L225.65063,296.35107 z"/>
<path d="M91.67067,532.1158 L86.26615,564.9076 L111.657585,539.7101 z"/>
<path d="M94.93488,659.2539 L107.92524,685.54944 L109.10122,666.67957 z"/>
<path d="M114.00484,705.29285 L140.04208,747.7818 L145.85991,737.78485 z"/>
<path d="M109.10122,666.67957 L107.92524,685.54944 L126.11428,675.69977 z"/>
<path d="M120.90106,699.5511 L114.00484,705.29285 L145.85588,714.41113 z"/>
<path d="M90.99315,636.84174 L117.16453,641.1713 L100.82695,608.1547 z"/>
<path d="M210.29822,304.2021 L172.40552,336.56552 L209.01808,308.81232 z"/>
<path d="M94.93488,462.98608 L113.35862,474.23758 L116.59791,442.18192 z"/>
<path d="M91.67067,532.1158 L79.392,561.12 L86.26615,564.9076 z"/>
<path d="M172.40552,336.56552 L149.42499,364.23758 L184.29541,365.75208 z"/>
<path d="M139.0218,388.66226 L114.00484,416.94714 L121.91327,415.83807 z"/>
<path d="M83.30179,610.7986 L90.99315,636.84174 L100.82695,608.1547 z"/>
<path d="M94.93488,659.2539 L114.00484,705.29285 L107.92524,685.54944 z"/>
<path d="M107.92524,685.54944 L114.00484,705.29285 L120.90106,699.5511 z"/>
<path d="M172.40552,336.56552 L140.04208,374.45822 L149.42499,364.23758 z"/>
<path d="M149.42499,364.23758 L140.04208,374.45822 L166.00246,389.5829 z"/>
<path d="M90.99315,636.84174 L94.93488,659.2539 L117.16453,641.1713 z"/>
<path d="M140.04208,374.45822 L114.00484,416.94714 L139.0218,388.66226 z"/>
<path d="M121.91327,415.83807 L114.00484,416.94714 L116.59791,442.18192 z"/>
<path d="M86.26615,564.9076 L83.30179,610.7986 L101.79846,585.87134 z"/>
<path d="M90.99315,636.84174 L83.30179,610.7986 L94.93488,659.2539 z"/>
<path d="M114.00484,416.94714 L94.93488,462.98608 L116.59791,442.18192 z"/>
<path d="M83.30179,511.4414 L109.9567,502.45142 L91.24428,495.9961 z"/>
<path d="M83.30179,511.4414 L79.392,561.12 L91.67067,532.1158 z"/>
<path d="M86.26615,564.9076 L79.392,561.12 L83.30179,610.7986 z"/>
<path d="M94.93488,462.98608 L83.30179,511.4414 L91.24428,495.9961 z"/>
</g>
<g fill="none" id="layer2" inkscape:groupmode="layer" inkscape:label="2" stroke="rgba(218, 28, 31, 1.0)" stroke-width="0.45mm"/>
<g fill="none" id="layer3" inkscape:groupmode="layer" inkscape:label="3" stroke="black" stroke-width="0.5mm"/>
<g fill="none" id="layer4" inkscape:groupmode="layer" inkscape:label="4" stroke="black" stroke-width="0.5mm"/>
<g fill="none" id="layer5" inkscape:groupmode="layer" inkscape:label="5" stroke="black" stroke-width="0.5mm"/>
<g fill="none" id="layer6" inkscape:groupmode="layer" inkscape:label="6" stroke="black" stroke-width="0.5mm"/>
<g fill="none" id="layer7" inkscape:groupmode="layer" inkscape:label="7" stroke="black" stroke-width="0.5mm"/>
<g fill="none" id="layer8" inkscape:groupmode="layer" inkscape:label="8" stroke="black" stroke-width="0.5mm"/>
<g fill="none" id="layer9" inkscape:groupmode="layer" inkscape:label="9" stroke="black" stroke-width="0.5mm"/>
<g fill="none" id="layer10" inkscape:groupmode="layer" inkscape:label="10" stroke="black" stroke-width="0.5mm"/>
<g fill="none" id="layer11" inkscape:groupmode="layer" inkscape:label="11" stroke="black" stroke-width="0.5mm">
<rect height="1122.24" width="793.92" x="0" y="0"/>
</g>
</svg>