<svg height="1122.24px" viewBox="0 0 793.92 1122.24" width="793.92px" xmlns="http://www.w3.org/2000/svg" xmlns:inkscape="http://www.inkscape.org/namespaces/inkscape">
<g fill="none" id="layer1" inkscape:groupmode="layer" inkscape:label="1" stroke="black" stroke-width="0.45mm"/>
<g fill="none" id="layer2" inkscape:groupmode="layer" inkscape:label="2" stroke="rgba(0, 131, 187, 1.0)" stroke-width="1.2mm">
<path d="M393.86053,765.32904 L385.64316,805.3011 L358.52487,763.3098 L309.04437,722.2585 L344.43665,692.736 L361.52222,724.5141 z"/>
<path d="M508.59186,828.8159 L488.86218,801.4244 L470.27115,774.38763 L512.29736,781.93713 z"/>
<path d="M266.50027,710.44855 L210.13385,717.29736 L247.127,685.7415 L291.96457,692.82605 z"/>
<path d="M231.14453,566.93286 L198.7689,547.6231 L183.8638,505.65408 L222.66956,524.65424 z"/>
<path d="M527.56506,485.65182 L475.30566,505.57883 L443.76392,465.1418 L483.2171,467.8985 z"/>
<path d="M596.47253,576.3757 L548.5141,585.7581 L569.18274,541.8647 L624.1677,528.17303 z"/>
<path d="M351.11996,533.87634 L304.51877,516.34375 L328.65356,488.75464 L369.70718,499.64966 z"/>
<path d="M160.93564,716.1046 L122.47815,716.0704 L111.974976,701.23773 L131.87439,674.2416 L190.45871,674.5676 z"/>
<path d="M444.34464,590.19604 L417.73502,553.9533 L423.423,520.7638 L460.72095,544.16846 z"/>
<path d="M466.7711,618.8597 L444.34464,590.19604 L460.72095,544.16846 L483.04657,567.1529 z"/>
<path d="M504.0704,721.8294 L463.53256,738.5116 L460.0305,694.4455 L471.11908,661.039 L491.62323,691.8533 z"/>
<path d="M613.22784,469.5253 L573.38635,471.14597 L532.51117,440.49768 L590.8236,446.18726 z"/>
<path d="M194.79758,359.49097 L175.63493,333.3819 L183.98553,328.72687 L188.9972,321.11813 z"/>
<path d="M383.62894,540.999 L373.86075,570.27356 L351.11996,533.87634 L369.70718,499.64966 z"/>
<path d="M166.08145,480.02258 L168.73431,445.7779 L130.1706,471.67316 L142.1707,421.39102 L193.10507,403.19406 L199.58844,435.9096 z"/>
<path d="M636.7093,499.07446 L577.2589,509.2637 L527.56506,485.65182 L573.38635,471.14597 L613.22784,469.5253 z"/>
<path d="M573.38635,471.14597 L527.56506,485.65182 L483.2171,467.8985 L532.51117,440.49768 z"/>
<path d="M613.3737,363.06006 L565.0175,333.7286 L604.9228,321.11813 L618.2851,333.3819 z"/>
<path d="M424.1359,877.5231 L406.02847,878.5585 L387.8915,878.5585 L406.8117,866.8622 z"/>
<path d="M266.63907,492.46533 L222.96469,494.19827 L251.67204,462.15768 L302.5609,466.54068 z"/>
<path d="M576.2091,823.2635 L560.9513,833.06903 L545.1586,841.9876 L538.7443,813.355 L575.1075,795.90967 L590.8822,812.6028 z"/>
<path d="M424.1359,877.5231 L406.8117,866.8622 L387.8915,878.5585 L372.58795,858.14777 L428.67966,833.1103 z"/>
<path d="M644.04913,466.7224 L613.22784,469.5253 L590.8236,446.18726 L630.47284,420.9607 L665.94104,437.52618 z"/>
<path d="M328.65356,488.75464 L302.5609,466.54068 L319.77795,436.81 L346.2669,455.20477 z"/>
<path d="M513.12976,554.8343 L460.72095,544.16846 L475.30566,505.57883 L513.1585,519.5196 z"/>
<path d="M358.52487,763.3098 L337.85406,797.97675 L304.27985,757.2872 L309.04437,722.2585 z"/>
<path d="M351.76535,875.4556 L333.894,872.36285 L316.2284,868.2549 L330.57892,840.1985 z"/>
<path d="M194.79758,359.49097 L188.9972,321.11813 L203.03778,309.63718 L224.80928,320.35883 z"/>
<path d="M582.12115,723.20306 L552.5156,706.58575 L545.8808,674.2509 L593.19403,693.4505 L624.38763,692.65216 z"/>
<path d="M183.8638,505.65408 L166.08145,480.02258 L168.73431,445.7779 L200.48407,473.8039 z"/>
<path d="M254.02478,543.6536 L231.14453,566.93286 L222.66956,524.65424 L266.63907,492.46533 z"/>
<path d="M130.69019,608.4059 L97.23258,589.87976 L98.85044,559.3761 L148.52979,582.6733 z"/>
<path d="M463.53256,738.5116 L436.45636,717.1393 L423.6734,675.5526 L471.11908,661.039 L460.0305,694.4455 z"/>
<path d="M471.11908,661.039 L423.6734,675.5526 L378.67297,680.93365 L379.70346,646.4696 L411.50186,647.6688 L442.98077,645.01965 z"/>
<path d="M287.85904,563.70856 L253.62115,593.22144 L254.02478,543.6536 L304.51877,516.34375 z"/>
<path d="M714.0101,542.9904 L690.46423,574.03503 L686.71136,532.14856 L712.458,524.92 z"/>
<path d="M673.4811,717.2786 L664.1152,732.81024 L624.38763,692.65216 L638.38324,661.95575 L669.1544,678.0217 z"/>
<path d="M316.2284,868.2549 L298.82608,863.14514 L281.7439,857.0502 L265.03748,849.99 L291.4175,831.2778 L330.57892,840.1985 z"/>
<path d="M639.506,599.8486 L606.6515,606.9706 L567.0929,621.3348 L548.5141,585.7581 L596.47253,576.3757 z"/>
<path d="M369.70718,499.64966 L328.65356,488.75464 L346.2669,455.20477 L399.8567,476.63083 z"/>
<path d="M222.96469,494.19827 L183.8638,505.65408 L200.48407,473.8039 L251.67204,462.15768 z"/>
<path d="M215.83661,382.53305 L193.10507,403.19406 L163.24713,376.26578 L194.79758,359.49097 z"/>
<path d="M224.80928,320.35883 L203.03778,309.63718 L217.71089,298.97653 L232.96869,289.17096 z"/>
<path d="M618.2851,788.8581 L604.9228,801.1219 L590.8822,812.6028 L575.1075,795.90967 L551.72723,750.5657 L582.12115,723.20306 L602.0981,756.4973 z"/>
<path d="M130.1706,471.67316 L104.440605,437.50027 L111.974976,421.0023 L120.43891,404.96136 L142.1707,421.39102 z"/>
<path d="M198.1696,749.9502 L151.1174,762.1445 L140.04208,747.7818 L129.8048,732.81024 L120.43891,717.2786 L122.47815,716.0704 L111.974976,701.23773 L160.93564,716.1046 L210.13385,717.29736 z"/>
<path d="M259.40216,407.42792 L215.83661,382.53305 L194.79758,359.49097 L224.80928,320.35883 L249.8982,366.67087 z"/>
<path d="M434.56952,796.9704 L428.67966,833.1103 L385.64316,805.3011 L393.86053,765.32904 L428.94147,752.7749 z"/>
<path d="M706.275,489.19186 L709.87683,506.96762 L684.9307,488.30597 L701.66425,471.65076 z"/>
<path d="M111.974976,701.23773 L104.440605,684.73975 L100.33881,666.8511 L116.541016,636.45996 L131.87439,674.2416 z"/>
<path d="M198.7689,547.6231 L168.27919,532.4136 L148.52979,582.6733 L138.54605,539.7364 L146.33421,505.52878 L183.8638,505.65408 z"/>
<path d="M304.51877,516.34375 L254.02478,543.6536 L266.63907,492.46533 L302.5609,466.54068 L328.65356,488.75464 z"/>
<path d="M361.52222,724.5141 L344.43665,692.736 L301.4531,659.95197 L349.74362,659.50854 L378.67297,680.93365 z"/>
<path d="M97.23258,589.87976 L81.46199,597.32 L79.90992,579.2496 L79.392,561.12 L79.90992,542.9904 L98.85044,559.3761 z"/>
<path d="M222.66956,524.65424 L183.8638,505.65408 L222.96469,494.19827 L266.63907,492.46533 z"/>
<path d="M379.70346,646.4696 L336.21124,615.62646 L373.86075,570.27356 L390.46664,597.8633 z"/>
<path d="M302.5609,466.54068 L251.67204,462.15768 L237.86353,430.64865 L285.11606,433.76447 L319.77795,436.81 z"/>
<path d="M630.47284,420.9607 L590.8236,446.18726 L605.6258,394.58722 L560.6861,365.04782 L613.3737,363.06006 L618.2851,333.3819 L630.9254,346.3885 L642.8026,360.0955 L653.8779,374.45822 z"/>
<path d="M210.13385,717.29736 L160.93564,716.1046 L190.45871,674.5676 L247.127,685.7415 z"/>
<path d="M270.86096,774.7057 L236.10712,753.72296 L266.50027,710.44855 L265.88208,741.76996 L309.04437,722.2585 z"/>
<path d="M194.79758,359.49097 L163.24713,376.26578 L162.99458,346.3885 L175.63493,333.3819 L183.98553,328.72687 z"/>
<path d="M283.05783,348.70847 L249.8982,366.67087 L224.80928,320.35883 L232.96869,289.17096 L254.11337,306.3159 L307.9318,309.6164 z"/>
<path d="M681.945,701.23773 L673.4811,717.2786 L669.1544,678.0217 L689.4794,684.73975 z"/>
<path d="M567.0929,621.3348 L539.0943,641.9782 L511.59247,605.44775 L513.12976,554.8343 L548.5141,585.7581 z"/>
<path d="M714.0101,579.2496 L712.458,597.32 L690.46423,574.03503 L714.0101,542.9904 L714.528,561.12 z"/>
<path d="M678.5345,634.7641 L633.78186,631.207 L591.7154,662.97076 L606.6515,606.9706 L639.506,599.8486 z"/>
<path d="M330.57892,840.1985 L291.4175,831.2778 L253.51886,805.8607 L270.86096,774.7057 L304.66946,800.0557 z"/>
<path d="M436.45636,717.1393 L428.94147,752.7749 L403.35904,731.61786 L378.67297,680.93365 L423.6734,675.5526 z"/>
<path d="M475.30566,505.57883 L460.72095,544.16846 L423.423,520.7638 L399.8567,476.63083 L443.76392,465.1418 z"/>
<path d="M411.50186,647.6688 L379.70346,646.4696 L390.46664,597.8633 L425.11508,616.4337 z"/>
<path d="M190.45871,674.5676 L131.87439,674.2416 L116.541016,636.45996 L169.07777,634.6819 L220.94386,627.149 z"/>
<path d="M104.440605,684.73975 L100.33881,666.8511 L97.86037,667.83856 L92.25574,650.58923 L116.541016,636.45996 z"/>
<path d="M346.2669,455.20477 L319.77795,436.81 L295.47125,386.74448 L334.43356,379.36588 L350.60892,408.06604 z"/>
<path d="M428.67966,833.1103 L372.58795,858.14777 L364.25055,826.719 L330.57892,840.1985 L337.85406,797.97675 L358.52487,763.3098 L385.64316,805.3011 z"/>
<path d="M495.0939,259.09488 L472.19952,258.72943 L445.62054,273.93414 L460.02597,249.87714 L477.69162,253.9851 z"/>
<path d="M471.11908,661.039 L442.98077,645.01965 L411.50186,647.6688 L425.11508,616.4337 L444.34464,590.19604 L466.7711,618.8597 z"/>
<path d="M193.10507,403.19406 L142.1707,421.39102 L120.43891,404.96136 L129.8048,389.42978 L163.24713,376.26578 z"/>
<path d="M487.16522,415.6106 L461.23364,399.11337 L491.42764,383.40457 L522.5493,380.99323 z"/>
<path d="M396.88452,412.23297 L397.37598,443.1978 L399.8567,476.63083 L346.2669,455.20477 L350.60892,408.06604 L367.69012,367.9827 L422.058,361.59576 z"/>
<path d="M458.31992,818.9962 L428.67966,833.1103 L434.56952,796.9704 L470.27115,774.38763 L488.86218,801.4244 z"/>
<path d="M364.25055,826.719 L330.57892,840.1985 L304.66946,800.0557 L337.85406,797.97675 z"/>
<path d="M291.96457,692.82605 L247.127,685.7415 L190.45871,674.5676 L220.94386,627.149 L245.89992,654.1509 L264.72324,624.85004 L301.4531,659.95197 z"/>
<path d="M573.4148,411.04895 L532.51117,440.49768 L543.61584,404.08633 L560.6861,365.04782 z"/>
<path d="M298.2901,615.3172 L301.4531,659.95197 L264.72324,624.85004 L253.62115,593.22144 L287.85904,563.70856 L335.89792,569.4564 z"/>
<path d="M253.62115,593.22144 L220.94386,627.149 L181.1153,580.68427 L231.14453,566.93286 L254.02478,543.6536 z"/>
<path d="M169.07777,634.6819 L116.541016,636.45996 L92.25574,650.58923 L87.64498,633.0481 L84.04315,615.2724 L81.46199,597.32 L97.23258,589.87976 L130.69019,608.4059 z"/>
<path d="M337.85406,797.97675 L304.66946,800.0557 L270.86096,774.7057 L265.88208,741.76996 L309.04437,722.2585 L304.27985,757.2872 z"/>
<path d="M162.99458,775.8515 L158.70168,769.8372 L151.1174,762.1445 L198.1696,749.9502 z"/>
<path d="M477.69162,868.2549 L460.02597,872.36285 L442.15463,875.4556 L424.1359,877.5231 L452.18753,852.96155 z"/>
<path d="M690.46423,574.03503 L665.8051,555.32 L639.506,599.8486 L624.1677,528.17303 L636.7093,499.07446 L686.71136,532.14856 z"/>
<path d="M373.86075,570.27356 L335.89792,569.4564 L287.85904,563.70856 L304.51877,516.34375 L351.11996,533.87634 z"/>
<path d="M428.94147,752.7749 L393.86053,765.32904 L361.52222,724.5141 L378.67297,680.93365 L403.35904,731.61786 z"/>
<path d="M341.73267,293.2111 L301.2518,275.6234 L316.2284,253.9851 L333.894,249.87714 z"/>
<path d="M231.14453,566.93286 L181.1153,580.68427 L168.27919,532.4136 L198.7689,547.6231 z"/>
<path d="M237.86353,430.64865 L251.67204,462.15768 L200.48407,473.8039 L199.58844,435.9096 L168.73431,445.7779 L193.10507,403.19406 L215.83661,382.53305 z"/>
<path d="M236.10712,753.72296 L224.79599,784.3525 L198.1696,749.9502 L210.13385,717.29736 L266.50027,710.44855 z"/>
<path d="M163.24713,376.26578 L129.8048,389.42978 L140.04208,374.45822 L151.1174,360.0955 L162.99458,346.3885 z"/>
<path d="M665.8051,555.32 L638.04297,568.76166 L596.47253,576.3757 L624.1677,528.17303 z"/>
<path d="M577.2589,509.2637 L543.66254,523.85785 L513.1585,519.5196 L475.30566,505.57883 L527.56506,485.65182 z"/>
<path d="M319.77795,436.81 L285.11606,433.76447 L259.40216,407.42792 L295.47125,386.74448 z"/>
<path d="M591.7154,662.97076 L539.0943,641.9782 L567.0929,621.3348 L606.6515,606.9706 z"/>
<path d="M138.54605,539.7364 L148.52979,582.6733 L98.85044,559.3761 L79.90992,542.9904 L81.46199,524.92 L84.04315,506.96762 L93.032524,503.22922 z"/>
<path d="M569.18274,541.8647 L548.5141,585.7581 L513.12976,554.8343 L513.1585,519.5196 L543.66254,523.85785 L577.2589,509.2637 z"/>
<path d="M291.4175,831.2778 L265.03748,849.99 L248.7614,841.9876 L232.96869,833.06903 L253.51886,805.8607 z"/>
<path d="M307.9318,309.6164 L254.11337,306.3159 L232.96869,289.17096 L248.7614,280.2524 L265.03748,272.25 L301.2518,275.6234 z"/>
<path d="M349.74362,659.50854 L301.4531,659.95197 L298.2901,615.3172 L336.21124,615.62646 z"/>
<path d="M515.3095,751.0452 L470.27115,774.38763 L434.56952,796.9704 L428.94147,752.7749 L463.53256,738.5116 L436.45636,717.1393 L504.0704,721.8294 L552.5156,706.58575 z"/>
<path d="M445.62054,273.93414 L450.53098,317.43405 L412.66696,288.74423 L397.6051,259.07397 L424.1359,244.71692 L442.15463,246.78438 L460.02597,249.87714 z"/>
<path d="M387.8915,878.5585 L369.78412,877.5231 L351.76535,875.4556 L330.57892,840.1985 L372.58795,858.14777 z"/>
<path d="M684.9307,488.30597 L636.7093,499.07446 L613.22784,469.5253 L644.04913,466.7224 z"/>
<path d="M397.6051,259.07397 L412.66696,288.74423 L366.66867,269.89304 L369.78412,244.71692 L387.8915,243.6815 L406.02847,243.6815 L424.1359,244.71692 z"/>
<path d="M624.1677,528.17303 L569.18274,541.8647 L577.2589,509.2637 L636.7093,499.07446 z"/>
<path d="M512.17615,857.0502 L493.2511,855.1238 L495.0939,863.14514 L477.69162,868.2549 L452.18753,852.96155 L458.31992,818.9962 z"/>
<path d="M552.5156,706.58575 L504.0704,721.8294 L491.62323,691.8533 L545.8808,674.2509 z"/>
<path d="M334.43356,379.36588 L295.47125,386.74448 L259.40216,407.42792 L249.8982,366.67087 L283.05783,348.70847 L329.74762,332.0219 z"/>
<path d="M613.3737,363.06006 L565.0175,333.7286 L560.6861,365.04782 L533.3541,323.41266 L522.02545,284.03653 L557.32825,298.80664 z"/>
<path d="M487.34598,292.17462 L502.77246,328.42892 L450.53098,317.43405 L445.62054,273.93414 L472.19952,258.72943 z"/>
<path d="M709.87683,615.2724 L706.275,633.0481 L688.86224,605.7473 L639.506,599.8486 L690.46423,574.03503 L712.458,597.32 z"/>
<path d="M522.5493,380.99323 L502.77246,328.42892 L522.02545,284.03653 L533.3541,323.41266 z"/>
<path d="M545.1586,841.9876 L528.8825,849.99 L508.59186,828.8159 L512.29736,781.93713 L538.7443,813.355 z"/>
<path d="M450.53098,317.43405 L404.368,325.30078 L362.00717,337.6717 L329.74762,332.0219 L377.5124,309.0676 L341.73267,293.2111 L366.66867,269.89304 L412.66696,288.74423 z"/>
<path d="M461.23364,399.11337 L428.55914,401.07654 L437.6671,431.09348 L396.88452,412.23297 L422.058,361.59576 z"/>
<path d="M222.48505,818.4069 L203.03778,812.6028 L188.9972,801.1219 L175.63493,788.8581 L187.37213,781.4935 L224.79599,784.3525 z"/>
<path d="M712.458,524.92 L686.71136,532.14856 L636.7093,499.07446 L684.9307,488.30597 L709.87683,506.96762 z"/>
<path d="M528.8825,849.99 L512.17615,857.0502 L493.2511,855.1238 L458.31992,818.9962 L488.86218,801.4244 L508.59186,828.8159 z"/>
<path d="M301.2518,275.6234 L265.03748,272.25 L281.7439,265.1898 L298.82608,259.09488 L316.2284,253.9851 z"/>
<path d="M422.058,361.59576 L350.60892,408.06604 L367.69012,367.9827 L334.43356,379.36588 L329.74762,332.0219 L362.00717,337.6717 L404.368,325.30078 L450.53098,317.43405 z"/>
<path d="M604.9228,321.11813 L565.0175,333.7286 L576.2091,298.97653 L590.8822,309.63718 z"/>
<path d="M232.96869,833.06903 L217.71089,823.2635 L203.03778,812.6028 L222.48505,818.4069 L253.51886,805.8607 z"/>
<path d="M220.94386,627.149 L169.07777,634.6819 L130.69019,608.4059 L148.52979,582.6733 L168.27919,532.4136 L181.1153,580.68427 z"/>
<path d="M253.51886,805.8607 L222.48505,818.4069 L224.79599,784.3525 L236.10712,753.72296 L270.86096,774.7057 z"/>
<path d="M522.5493,380.99323 L491.42764,383.40457 L461.23364,399.11337 L422.058,361.59576 L478.77853,354.455 z"/>
<path d="M512.29736,781.93713 L470.27115,774.38763 L515.3095,751.0452 L552.5156,706.58575 L582.12115,723.20306 L551.72723,750.5657 z"/>
<path d="M696.05963,454.40146 L665.94104,437.52618 L681.945,421.0023 L689.4794,437.50027 z"/>
<path d="M245.89992,654.1509 L220.94386,627.149 L253.62115,593.22144 L264.72324,624.85004 z"/>
<path d="M565.0175,333.7286 L557.32825,298.80664 L545.1586,280.2524 L560.9513,289.17096 L576.2091,298.97653 z"/>
<path d="M224.79599,784.3525 L187.37213,781.4935 L175.63493,788.8581 L162.99458,775.8515 L198.1696,749.9502 z"/>
<path d="M639.506,599.8486 L596.47253,576.3757 L638.04297,568.76166 L665.8051,555.32 z"/>
<path d="M591.7154,662.97076 L545.8808,674.2509 L506.29425,661.42084 L539.0943,641.9782 z"/>
<path d="M443.76392,465.1418 L399.8567,476.63083 L397.37598,443.1978 L396.88452,412.23297 L437.6671,431.09348 z"/>
<path d="M557.32825,298.80664 L522.02545,284.03653 L512.17615,265.1898 L528.8825,272.25 L545.1586,280.2524 z"/>
<path d="M706.275,633.0481 L701.66425,650.58923 L678.5345,634.7641 L639.506,599.8486 L688.86224,605.7473 z"/>
<path d="M545.8808,674.2509 L491.62323,691.8533 L471.11908,661.039 L466.7711,618.8597 L506.29425,661.42084 z"/>
<path d="M624.38763,692.65216 L593.19403,693.4505 L545.8808,674.2509 L591.7154,662.97076 z"/>
<path d="M590.8236,446.18726 L532.51117,440.49768 L573.4148,411.04895 L560.6861,365.04782 L605.6258,394.58722 z"/>
<path d="M366.66867,269.89304 L341.73267,293.2111 L333.894,249.87714 L351.76535,246.78438 L369.78412,244.71692 z"/>
<path d="M543.61584,404.08633 L487.16522,415.6106 L522.5493,380.99323 L533.3541,323.41266 L560.6861,365.04782 z"/>
<path d="M378.67297,680.93365 L349.74362,659.50854 L336.21124,615.62646 L379.70346,646.4696 z"/>
<path d="M575.1075,795.90967 L538.7443,813.355 L512.29736,781.93713 L551.72723,750.5657 z"/>
<path d="M183.8638,505.65408 L146.33421,505.52878 L138.54605,539.7364 L84.04315,506.96762 L93.032524,503.22922 L87.64498,489.19186 L130.1706,471.67316 L166.08145,480.02258 z"/>
<path d="M336.21124,615.62646 L298.2901,615.3172 L335.89792,569.4564 L373.86075,570.27356 z"/>
<path d="M635.58545,744.7859 L630.9254,775.8515 L618.2851,788.8581 L602.0981,756.4973 L582.12115,723.20306 L624.38763,692.65216 z"/>
<path d="M522.5493,380.99323 L478.77853,354.455 L422.058,361.59576 L450.53098,317.43405 L502.77246,328.42892 z"/>
<path d="M309.04437,722.2585 L266.50027,710.44855 L291.96457,692.82605 L301.4531,659.95197 L344.43665,692.736 z"/>
<path d="M660.2422,401.42215 L665.94104,437.52618 L630.47284,420.9607 L653.8779,374.45822 L664.1152,389.42978 z"/>
<path d="M390.46664,597.8633 L373.86075,570.27356 L383.62894,540.999 L423.423,520.7638 L417.73502,553.9533 z"/>
<path d="M522.02545,284.03653 L502.77246,328.42892 L487.34598,292.17462 L472.19952,258.72943 L495.0939,259.09488 L512.17615,265.1898 z"/>
<path d="M285.11606,433.76447 L237.86353,430.64865 L215.83661,382.53305 L259.40216,407.42792 z"/>
<path d="M423.423,520.7638 L383.62894,540.999 L369.70718,499.64966 L399.8567,476.63083 z"/>
<path d="M511.59247,605.44775 L466.7711,618.8597 L460.72095,544.16846 L483.04657,567.1529 L513.12976,554.8343 z"/>
<path d="M130.1706,471.67316 L87.64498,489.19186 L92.25574,471.65076 L97.86037,454.40146 L104.440605,437.50027 z"/>
<path d="M452.18753,852.96155 L424.1359,877.5231 L428.67966,833.1103 L458.31992,818.9962 z"/>
<path d="M638.38324,661.95575 L669.1544,678.0217 L624.38763,692.65216 L591.7154,662.97076 L633.78186,631.207 L678.5345,634.7641 z"/>
<path d="M696.05963,667.83856 L689.4794,684.73975 L669.1544,678.0217 L678.5345,634.7641 L701.66425,650.58923 z"/>
<path d="M532.51117,440.49768 L483.2171,467.8985 L443.76392,465.1418 L437.6671,431.09348 L461.23364,399.11337 L487.16522,415.6106 L543.61584,404.08633 z"/>
<path d="M329.74762,332.0219 L283.05783,348.70847 L307.9318,309.6164 L301.2518,275.6234 L341.73267,293.2111 z"/>
<path d="M653.8779,747.7818 L642.8026,762.1445 L630.9254,775.8515 L635.58545,744.7859 L624.38763,692.65216 L664.1152,732.81024 z"/>
<path d="M701.66425,471.65076 L684.9307,488.30597 L644.04913,466.7224 L665.94104,437.52618 L696.05963,454.40146 z"/>
<path d="M539.0943,641.9782 L506.29425,661.42084 L466.7711,618.8597 L511.59247,605.44775 z"/>
<path d="M425.11508,616.4337 L390.46664,597.8633 L417.73502,553.9533 L444.34464,590.19604 z"/>
<path d="M681.945,421.0023 L665.94104,437.52618 L660.2422,401.42215 L664.1152,389.42978 L673.4811,404.96136 z"/>
</g>
<g fill="none" id="layer3" inkscape:groupmode="layer" inkscape:label="3" stroke="black" stroke-width="0.5mm"/>
<g fill="none" id="layer4" inkscape:groupmode="layer" inkscape:label="4" stroke="black" stroke-width="0.5mm"/>
<g fill="none" id="layer5" inkscape:groupmode="layer" inkscape:label="5" stroke="black" stroke-width="0.5mm"/>
<g fill="none" id="layer6" inkscape:groupmode="layer" inkscape:label="6" stroke="black" stroke-width="0.5mm"/>
<g fill="none" id="layer7" inkscape:groupmode="layer" inkscape:label="7" stroke="black" stroke-width="0.5mm"/>
<g fill="none" id="layer8" inkscape:groupmode="layer" inkscape:label="8" stroke="black" stroke-width="0.5mm"/>
<g fill="none" id="layer9" inkscape:groupmode="layer" inkscape:label="9" stroke="black" stroke-width="0.5mm"/>
<g fill="none" id="layer10" inkscape:groupmode="layer" inkscape:label="10" stroke="black" stroke-width="0.5mm"/>
<g fill="none" id="layer11" inkscape:groupmode="layer" inkscape:label="11" stroke="black" stroke-width="0.5mm">
<rect height="1122.24" width="793.92" x="0" y="0"/>
</g>
</svg>