<svg height="1122.24px" viewBox="0 0 793.92 1122.24" width="793.92px" xmlns="http://www.w3.org/2000/svg" xmlns:inkscape="http://www.inkscape.org/namespaces/inkscape">
<g fill="none" id="layer1" inkscape:groupmode="layer" inkscape:label="1" stroke="black" stroke-width="0.45mm">
<path d="M399.93872,576.5463 L350.19614,601.84033 L392.8287,618.0332 z"/>
<path d="M350.19614,601.84033 L337.98587,638.43353 L392.8287,618.0332 z"/>
<path d="M399.93872,576.5463 L332.7939,550.1537 L350.19614,601.84033 z"/>
<path d="M350.19614,601.84033 L309.5599,592.937 L337.98587,638.43353 z"/>
<path d="M332.7939,550.1537 L309.5599,592.937 L350.19614,601.84033 z"/>
<path d="M426.09073,663.3367 L446.56116,605.8021 L392.8287,618.0332 z"/>
<path d="M392.8287,618.0332 L446.56116,605.8021 L399.93872,576.5463 z"/>
<path d="M425.36484,507.01886 L370.48083,521.3801 L399.93872,576.5463 z"/>
<path d="M399.93872,576.5463 L370.48083,521.3801 L332.7939,550.1537 z"/>
<path d="M327.87024,706.9472 L358.74326,672.9207 L337.98587,638.43353 z"/>
<path d="M337.98587,638.43353 L358.74326,672.9207 L392.8287,618.0332 z"/>
<path d="M358.74326,672.9207 L426.09073,663.3367 L392.8287,618.0332 z"/>
<path d="M512.1081,574.99115 L464.79205,557.5651 L446.56116,605.8021 z"/>
<path d="M446.56116,605.8021 L464.79205,557.5651 L399.93872,576.5463 z"/>
<path d="M309.5599,592.937 L290.53232,637.4122 L337.98587,638.43353 z"/>
<path d="M464.79205,557.5651 L425.36484,507.01886 L399.93872,576.5463 z"/>
<path d="M374.75983,730.0456 L402.0538,696.1337 L358.74326,672.9207 z"/>
<path d="M358.74326,672.9207 L402.0538,696.1337 L426.09073,663.3367 z"/>
<path d="M454.1238,699.1662 L474.46814,634.5327 L426.09073,663.3367 z"/>
<path d="M426.09073,663.3367 L474.46814,634.5327 L446.56116,605.8021 z"/>
<path d="M251.30843,571.02124 L272.5742,604.0487 L309.5599,592.937 z"/>
<path d="M309.5599,592.937 L272.5742,604.0487 L290.53232,637.4122 z"/>
<path d="M303.4936,494.59756 L281.4769,536.5349 L332.7939,550.1537 z"/>
<path d="M332.7939,550.1537 L281.4769,536.5349 L309.5599,592.937 z"/>
<path d="M303.4936,494.59756 L332.7939,550.1537 L370.48083,521.3801 z"/>
<path d="M425.36484,507.01886 L367.37994,479.58884 L370.48083,521.3801 z"/>
<path d="M290.92398,695.1247 L337.98587,638.43353 L290.53232,637.4122 z"/>
<path d="M290.92398,695.1247 L327.87024,706.9472 L337.98587,638.43353 z"/>
<path d="M367.37994,479.58884 L303.4936,494.59756 L370.48083,521.3801 z"/>
<path d="M464.79205,557.5651 L474.68134,510.46472 L425.36484,507.01886 z"/>
<path d="M425.36484,507.01886 L417.74384,464.45844 L367.37994,479.58884 z"/>
<path d="M530.1163,532.6564 L474.68134,510.46472 L464.79205,557.5651 z"/>
<path d="M248.86108,508.76746 L251.30843,571.02124 L281.4769,536.5349 z"/>
<path d="M281.4769,536.5349 L251.30843,571.02124 L309.5599,592.937 z"/>
<path d="M244.49222,670.9401 L290.92398,695.1247 L290.53232,637.4122 z"/>
<path d="M423.06476,737.2597 L454.1238,699.1662 L402.0538,696.1337 z"/>
<path d="M402.0538,696.1337 L454.1238,699.1662 L426.09073,663.3367 z"/>
<path d="M230.48375,630.2273 L290.53232,637.4122 L272.5742,604.0487 z"/>
<path d="M474.68134,510.46472 L417.74384,464.45844 L425.36484,507.01886 z"/>
<path d="M367.37994,479.58884 L308.92108,435.67416 L303.4936,494.59756 z"/>
<path d="M512.07214,619.13446 L446.56116,605.8021 L474.46814,634.5327 z"/>
<path d="M512.07214,619.13446 L512.1081,574.99115 L446.56116,605.8021 z"/>
<path d="M338.05853,751.4994 L374.75983,730.0456 L327.87024,706.9472 z"/>
<path d="M327.87024,706.9472 L374.75983,730.0456 L358.74326,672.9207 z"/>
<path d="M510.15054,682.40125 L512.07214,619.13446 L474.46814,634.5327 z"/>
<path d="M374.75983,730.0456 L423.06476,737.2597 L402.0538,696.1337 z"/>
<path d="M251.30843,571.02124 L230.48375,630.2273 L272.5742,604.0487 z"/>
<path d="M417.74384,464.45844 L366.7656,440.88284 L367.37994,479.58884 z"/>
<path d="M230.48375,630.2273 L244.49222,670.9401 L290.53232,637.4122 z"/>
<path d="M270.3824,471.6041 L248.86108,508.76746 L303.4936,494.59756 z"/>
<path d="M303.4936,494.59756 L248.86108,508.76746 L281.4769,536.5349 z"/>
<path d="M251.30843,571.02124 L188.19092,605.1586 L230.48375,630.2273 z"/>
<path d="M454.1238,699.1662 L510.15054,682.40125 L474.46814,634.5327 z"/>
<path d="M497.9071,725.74646 L510.15054,682.40125 L454.1238,699.1662 z"/>
<path d="M300.32956,744.994 L327.87024,706.9472 L290.92398,695.1247 z"/>
<path d="M300.32956,744.994 L338.05853,751.4994 L327.87024,706.9472 z"/>
<path d="M374.75983,730.0456 L404.63333,776.0356 L423.06476,737.2597 z"/>
<path d="M308.92108,435.67416 L270.3824,471.6041 L303.4936,494.59756 z"/>
<path d="M550.2381,580.41394 L530.1163,532.6564 L512.1081,574.99115 z"/>
<path d="M512.1081,574.99115 L530.1163,532.6564 L464.79205,557.5651 z"/>
<path d="M447.202,424.4833 L399.59183,420.47534 L417.74384,464.45844 z"/>
<path d="M550.2381,580.41394 L512.1081,574.99115 L512.07214,619.13446 z"/>
<path d="M264.44974,732.2413 L300.32956,744.994 L290.92398,695.1247 z"/>
<path d="M366.7656,440.88284 L308.92108,435.67416 L367.37994,479.58884 z"/>
<path d="M582.13837,602.9224 L550.2381,580.41394 L512.07214,619.13446 z"/>
<path d="M417.74384,464.45844 L399.59183,420.47534 L366.7656,440.88284 z"/>
<path d="M330.27258,385.56998 L288.70187,399.79895 L308.92108,435.67416 z"/>
<path d="M479.61646,445.10486 L417.74384,464.45844 L474.68134,510.46472 z"/>
<path d="M490.21072,764.2457 L497.9071,725.74646 L423.06476,737.2597 z"/>
<path d="M423.06476,737.2597 L497.9071,725.74646 L454.1238,699.1662 z"/>
<path d="M510.15054,682.40125 L556.3026,657.78925 L512.07214,619.13446 z"/>
<path d="M229.23317,709.9372 L290.92398,695.1247 L244.49222,670.9401 z"/>
<path d="M229.23317,709.9372 L264.44974,732.2413 L290.92398,695.1247 z"/>
<path d="M536.29895,476.2137 L479.61646,445.10486 L474.68134,510.46472 z"/>
<path d="M185.25,503.2887 L203.95877,541.1733 L248.86108,508.76746 z"/>
<path d="M248.86108,508.76746 L203.95877,541.1733 L251.30843,571.02124 z"/>
<path d="M479.61646,445.10486 L447.202,424.4833 L417.74384,464.45844 z"/>
<path d="M378.1315,808.4567 L404.63333,776.0356 L338.05853,751.4994 z"/>
<path d="M338.05853,751.4994 L404.63333,776.0356 L374.75983,730.0456 z"/>
<path d="M200.67674,684.8027 L229.23317,709.9372 L244.49222,670.9401 z"/>
<path d="M200.67674,684.8027 L244.49222,670.9401 L230.48375,630.2273 z"/>
<path d="M203.95877,541.1733 L188.19092,605.1586 L251.30843,571.02124 z"/>
<path d="M538.6683,719.971 L556.3026,657.78925 L510.15054,682.40125 z"/>
<path d="M239.99901,409.02222 L227.05502,467.79715 L270.3824,471.6041 z"/>
<path d="M270.3824,471.6041 L227.05502,467.79715 L248.86108,508.76746 z"/>
<path d="M587.3929,514.52405 L536.29895,476.2137 L530.1163,532.6564 z"/>
<path d="M530.1163,532.6564 L536.29895,476.2137 L474.68134,510.46472 z"/>
<path d="M469.1331,368.66034 L398.23245,377.5863 L447.202,424.4833 z"/>
<path d="M175.86244,641.2883 L200.67674,684.8027 L230.48375,630.2273 z"/>
<path d="M286.93668,799.2804 L331.63855,790.9962 L300.32956,744.994 z"/>
<path d="M300.32956,744.994 L331.63855,790.9962 L338.05853,751.4994 z"/>
<path d="M286.93668,799.2804 L300.32956,744.994 L264.44974,732.2413 z"/>
<path d="M443.1665,788.6029 L490.21072,764.2457 L423.06476,737.2597 z"/>
<path d="M497.9071,725.74646 L538.6683,719.971 L510.15054,682.40125 z"/>
<path d="M443.1665,788.6029 L423.06476,737.2597 L404.63333,776.0356 z"/>
<path d="M528.1181,777.9271 L538.6683,719.971 L497.9071,725.74646 z"/>
<path d="M556.3026,657.78925 L582.13837,602.9224 L512.07214,619.13446 z"/>
<path d="M550.2381,580.41394 L592.2336,562.1712 L530.1163,532.6564 z"/>
<path d="M593.40137,674.074 L582.13837,602.9224 L556.3026,657.78925 z"/>
<path d="M378.1315,808.4567 L443.1665,788.6029 L404.63333,776.0356 z"/>
<path d="M145.67319,594.6976 L175.86244,641.2883 L188.19092,605.1586 z"/>
<path d="M188.19092,605.1586 L175.86244,641.2883 L230.48375,630.2273 z"/>
<path d="M227.05502,467.79715 L185.25,503.2887 L248.86108,508.76746 z"/>
<path d="M146.60132,547.11914 L145.67319,594.6976 L188.19092,605.1586 z"/>
<path d="M330.27258,385.56998 L308.92108,435.67416 L366.7656,440.88284 z"/>
<path d="M308.92108,435.67416 L288.70187,399.79895 L270.3824,471.6041 z"/>
<path d="M227.05502,467.79715 L194.91266,434.8765 L185.25,503.2887 z"/>
<path d="M330.27258,385.56998 L366.7656,440.88284 L399.59183,420.47534 z"/>
<path d="M398.23245,377.5863 L330.27258,385.56998 L399.59183,420.47534 z"/>
<path d="M331.63855,790.9962 L378.1315,808.4567 L338.05853,751.4994 z"/>
<path d="M582.13837,602.9224 L592.2336,562.1712 L550.2381,580.41394 z"/>
<path d="M484.94452,404.84732 L447.202,424.4833 L479.61646,445.10486 z"/>
<path d="M447.202,424.4833 L398.23245,377.5863 L399.59183,420.47534 z"/>
<path d="M523.84656,401.83316 L484.94452,404.84732 L479.61646,445.10486 z"/>
<path d="M239.1062,785.9729 L286.93668,799.2804 L264.44974,732.2413 z"/>
<path d="M331.63855,790.9962 L353.7438,838.087 L378.1315,808.4567 z"/>
<path d="M239.1062,785.9729 L264.44974,732.2413 L209.23058,762.74634 z"/>
<path d="M592.2336,562.1712 L587.3929,514.52405 L530.1163,532.6564 z"/>
<path d="M536.29895,476.2137 L550.17975,430.69952 L479.61646,445.10486 z"/>
<path d="M154.70148,676.0001 L190.99823,728.48425 L200.67674,684.8027 z"/>
<path d="M200.67674,684.8027 L190.99823,728.48425 L229.23317,709.9372 z"/>
<path d="M579.62366,715.106 L556.3026,657.78925 L538.6683,719.971 z"/>
<path d="M579.62366,715.106 L593.40137,674.074 L556.3026,657.78925 z"/>
<path d="M582.13837,602.9224 L650.8696,585.8079 L592.2336,562.1712 z"/>
<path d="M224.48224,361.4772 L239.99901,409.02222 L288.70187,399.79895 z"/>
<path d="M288.70187,399.79895 L239.99901,409.02222 L270.3824,471.6041 z"/>
<path d="M146.60132,547.11914 L188.19092,605.1586 L203.95877,541.1733 z"/>
<path d="M175.86244,641.2883 L154.70148,676.0001 L200.67674,684.8027 z"/>
<path d="M580.4306,754.4147 L579.62366,715.106 L538.6683,719.971 z"/>
<path d="M116.862526,502.69165 L146.60132,547.11914 L185.25,503.2887 z"/>
<path d="M185.25,503.2887 L146.60132,547.11914 L203.95877,541.1733 z"/>
<path d="M209.23058,762.74634 L264.44974,732.2413 L229.23317,709.9372 z"/>
<path d="M127.33978,647.23816 L154.70148,676.0001 L175.86244,641.2883 z"/>
<path d="M488.31085,837.69147 L528.1181,777.9271 L490.21072,764.2457 z"/>
<path d="M490.21072,764.2457 L528.1181,777.9271 L497.9071,725.74646 z"/>
<path d="M488.31085,837.69147 L490.21072,764.2457 L443.1665,788.6029 z"/>
<path d="M587.42847,439.4028 L550.17975,430.69952 L536.29895,476.2137 z"/>
<path d="M171.4341,762.3602 L209.23058,762.74634 L190.99823,728.48425 z"/>
<path d="M190.99823,728.48425 L209.23058,762.74634 L229.23317,709.9372 z"/>
<path d="M550.17975,430.69952 L523.84656,401.83316 L479.61646,445.10486 z"/>
<path d="M484.94452,404.84732 L469.1331,368.66034 L447.202,424.4833 z"/>
<path d="M239.99901,409.02222 L194.91266,434.8765 L227.05502,467.79715 z"/>
<path d="M523.84656,401.83316 L469.1331,368.66034 L484.94452,404.84732 z"/>
<path d="M398.23245,377.5863 L376.11993,332.21756 L330.27258,385.56998 z"/>
<path d="M293.7742,837.24005 L331.63855,790.9962 L286.93668,799.2804 z"/>
<path d="M293.7742,837.24005 L353.7438,838.087 L331.63855,790.9962 z"/>
<path d="M378.1315,808.4567 L440.56476,837.3128 L443.1665,788.6029 z"/>
<path d="M593.40137,674.074 L623.07477,630.7979 L582.13837,602.9224 z"/>
<path d="M637.19476,512.4982 L609.18945,483.32568 L587.3929,514.52405 z"/>
<path d="M633.10333,702.48035 L623.07477,630.7979 L593.40137,674.074 z"/>
<path d="M401.1843,851.0811 L440.56476,837.3128 L378.1315,808.4567 z"/>
<path d="M145.67319,594.6976 L127.33978,647.23816 L175.86244,641.2883 z"/>
<path d="M154.70148,676.0001 L152.39424,727.68005 L190.99823,728.48425 z"/>
<path d="M100.55264,597.7305 L127.33978,647.23816 L145.67319,594.6976 z"/>
<path d="M637.19476,512.4982 L587.3929,514.52405 L592.2336,562.1712 z"/>
<path d="M587.3929,514.52405 L609.18945,483.32568 L536.29895,476.2137 z"/>
<path d="M550.17975,430.69952 L571.5176,381.9014 L523.84656,401.83316 z"/>
<path d="M252.78714,844.07513 L293.7742,837.24005 L286.93668,799.2804 z"/>
<path d="M239.11223,829.1899 L286.93668,799.2804 L239.1062,785.9729 z"/>
<path d="M353.7438,838.087 L401.1843,851.0811 L378.1315,808.4567 z"/>
<path d="M347.28143,874.7782 L401.1843,851.0811 L353.7438,838.087 z"/>
<path d="M528.1181,777.9271 L580.4306,754.4147 L538.6683,719.971 z"/>
<path d="M579.62366,715.106 L633.10333,702.48035 L593.40137,674.074 z"/>
<path d="M586.9527,802.6943 L580.4306,754.4147 L528.1181,777.9271 z"/>
<path d="M609.18945,483.32568 L587.42847,439.4028 L536.29895,476.2137 z"/>
<path d="M499.12552,336.12778 L433.82367,322.38416 L469.1331,368.66034 z"/>
<path d="M121.777985,698.88367 L152.39424,727.68005 L154.70148,676.0001 z"/>
<path d="M210.29822,818.0379 L239.11223,829.1899 L239.1062,785.9729 z"/>
<path d="M433.82367,322.38416 L376.11993,332.21756 L398.23245,377.5863 z"/>
<path d="M330.27258,385.56998 L282.84445,340.619 L288.70187,399.79895 z"/>
<path d="M188.75555,395.67007 L194.91266,434.8765 L239.99901,409.02222 z"/>
<path d="M147.23045,415.8168 L153.39685,455.6445 L194.91266,434.8765 z"/>
<path d="M194.91266,434.8765 L153.39685,455.6445 L185.25,503.2887 z"/>
<path d="M98.440834,552.73016 L100.55264,597.7305 L145.67319,594.6976 z"/>
<path d="M152.39424,727.68005 L171.4341,762.3602 L190.99823,728.48425 z"/>
<path d="M446.63858,874.7782 L488.31085,837.69147 L440.56476,837.3128 z"/>
<path d="M440.56476,837.3128 L488.31085,837.69147 L443.1665,788.6029 z"/>
<path d="M342.5504,311.92612 L282.84445,340.619 L330.27258,385.56998 z"/>
<path d="M663.92377,542.15094 L637.19476,512.4982 L592.2336,562.1712 z"/>
<path d="M609.18945,483.32568 L627.6922,418.82562 L587.42847,439.4028 z"/>
<path d="M202.94086,810.8791 L239.1062,785.9729 L209.23058,762.74634 z"/>
<path d="M663.4664,635.18506 L650.8696,585.8079 L623.07477,630.7979 z"/>
<path d="M623.07477,630.7979 L650.8696,585.8079 L582.13837,602.9224 z"/>
<path d="M224.48224,361.4772 L188.75555,395.67007 L239.99901,409.02222 z"/>
<path d="M94.93488,462.98608 L116.862526,502.69165 L153.39685,455.6445 z"/>
<path d="M153.39685,455.6445 L116.862526,502.69165 L185.25,503.2887 z"/>
<path d="M114.00484,705.29285 L121.777985,698.88367 L94.93488,659.2539 z"/>
<path d="M127.33978,647.23816 L121.777985,698.88367 L154.70148,676.0001 z"/>
<path d="M140.04208,747.7818 L172.40552,785.6745 L171.4341,762.3602 z"/>
<path d="M98.440834,552.73016 L145.67319,594.6976 L146.60132,547.11914 z"/>
<path d="M469.1331,368.66034 L433.82367,322.38416 L398.23245,377.5863 z"/>
<path d="M376.11993,332.21756 L342.5504,311.92612 L330.27258,385.56998 z"/>
<path d="M499.12552,336.12778 L469.1331,368.66034 L523.84656,401.83316 z"/>
<path d="M615.1661,739.2462 L633.10333,702.48035 L579.62366,715.106 z"/>
<path d="M172.40552,785.6745 L209.23058,762.74634 L171.4341,762.3602 z"/>
<path d="M172.40552,785.6745 L202.94086,810.8791 L209.23058,762.74634 z"/>
<path d="M282.84445,340.619 L224.48224,361.4772 L288.70187,399.79895 z"/>
<path d="M619.3527,777.5084 L615.1661,739.2462 L580.4306,754.4147 z"/>
<path d="M580.4306,754.4147 L615.1661,739.2462 L579.62366,715.106 z"/>
<path d="M210.29822,818.0379 L252.78714,844.07513 L239.11223,829.1899 z"/>
<path d="M239.11223,829.1899 L252.78714,844.07513 L286.93668,799.2804 z"/>
<path d="M293.7742,837.24005 L298.82608,863.14514 L353.7438,838.087 z"/>
<path d="M202.94086,810.8791 L210.29822,818.0379 L239.1062,785.9729 z"/>
<path d="M252.78714,844.07513 L298.82608,863.14514 L293.7742,837.24005 z"/>
<path d="M140.04208,747.7818 L171.4341,762.3602 L152.39424,727.68005 z"/>
<path d="M202.94086,810.8791 L172.40552,785.6745 L210.29822,818.0379 z"/>
<path d="M116.862526,502.69165 L98.440834,552.73016 L146.60132,547.11914 z"/>
<path d="M298.82608,863.14514 L347.28143,874.7782 L353.7438,838.087 z"/>
<path d="M401.1843,851.0811 L446.63858,874.7782 L440.56476,837.3128 z"/>
<path d="M114.00484,705.29285 L140.04208,747.7818 L152.39424,727.68005 z"/>
<path d="M386.49365,286.52188 L342.5504,311.92612 L376.11993,332.21756 z"/>
<path d="M282.84445,340.619 L234.8774,301.00574 L224.48224,361.4772 z"/>
<path d="M537.35266,329.85742 L499.12552,336.12778 L523.84656,401.83316 z"/>
<path d="M347.28143,874.7782 L396.96,878.688 L401.1843,851.0811 z"/>
<path d="M94.93488,659.2539 L121.777985,698.88367 L127.33978,647.23816 z"/>
<path d="M121.777985,698.88367 L114.00484,705.29285 L152.39424,727.68005 z"/>
<path d="M541.1329,844.07513 L550.2816,822.3098 L488.31085,837.69147 z"/>
<path d="M488.31085,837.69147 L550.2816,822.3098 L528.1181,777.9271 z"/>
<path d="M587.42847,439.4028 L571.5176,381.9014 L550.17975,430.69952 z"/>
<path d="M627.6922,418.82562 L571.5176,381.9014 L587.42847,439.4028 z"/>
<path d="M633.10333,702.48035 L663.4664,635.18506 L623.07477,630.7979 z"/>
<path d="M650.8696,585.8079 L663.92377,542.15094 L592.2336,562.1712 z"/>
<path d="M396.96,878.688 L446.63858,874.7782 L401.1843,851.0811 z"/>
<path d="M83.30179,610.7986 L127.33978,647.23816 L100.55264,597.7305 z"/>
<path d="M83.30179,610.7986 L94.93488,659.2539 L127.33978,647.23816 z"/>
<path d="M695.94617,569.2013 L663.92377,542.15094 L650.8696,585.8079 z"/>
<path d="M658.751,451.79248 L627.6922,418.82562 L609.18945,483.32568 z"/>
<path d="M154.92853,372.2321 L147.23045,415.8168 L188.75555,395.67007 z"/>
<path d="M188.75555,395.67007 L147.23045,415.8168 L194.91266,434.8765 z"/>
<path d="M83.30179,511.4414 L79.392,561.12 L98.440834,552.73016 z"/>
<path d="M446.63858,874.7782 L495.0939,863.14514 L488.31085,837.69147 z"/>
<path d="M79.392,561.12 L83.30179,610.7986 L100.55264,597.7305 z"/>
<path d="M583.62177,818.0379 L586.9527,802.6943 L550.2816,822.3098 z"/>
<path d="M550.2816,822.3098 L586.9527,802.6943 L528.1181,777.9271 z"/>
<path d="M615.1661,739.2462 L656.06866,739.68555 L633.10333,702.48035 z"/>
<path d="M495.0939,863.14514 L541.1329,844.07513 L488.31085,837.69147 z"/>
<path d="M328.9958,262.9579 L300.60068,305.08704 L342.5504,311.92612 z"/>
<path d="M342.5504,311.92612 L300.60068,305.08704 L282.84445,340.619 z"/>
<path d="M172.40552,336.56552 L154.92853,372.2321 L188.75555,395.67007 z"/>
<path d="M83.30179,511.4414 L98.440834,552.73016 L116.862526,502.69165 z"/>
<path d="M98.440834,552.73016 L79.392,561.12 L100.55264,597.7305 z"/>
<path d="M586.9527,802.6943 L619.3527,777.5084 L580.4306,754.4147 z"/>
<path d="M633.10333,702.48035 L684.7036,681.9281 L663.4664,635.18506 z"/>
<path d="M621.51447,785.6745 L619.3527,777.5084 L586.9527,802.6943 z"/>
<path d="M541.1329,844.07513 L583.62177,818.0379 L550.2816,822.3098 z"/>
<path d="M670.7485,488.21088 L609.18945,483.32568 L637.19476,512.4982 z"/>
<path d="M94.93488,462.98608 L83.30179,511.4414 L116.862526,502.69165 z"/>
<path d="M427.68564,268.00928 L386.49365,286.52188 L433.82367,322.38416 z"/>
<path d="M433.82367,322.38416 L386.49365,286.52188 L376.11993,332.21756 z"/>
<path d="M571.5176,381.9014 L537.35266,329.85742 L523.84656,401.83316 z"/>
<path d="M499.12552,336.12778 L479.8424,290.8099 L433.82367,322.38416 z"/>
<path d="M576.9318,342.75238 L537.35266,329.85742 L571.5176,381.9014 z"/>
<path d="M583.62177,818.0379 L621.51447,785.6745 L586.9527,802.6943 z"/>
<path d="M653.8779,747.7818 L656.06866,739.68555 L615.1661,739.2462 z"/>
<path d="M114.00484,416.94714 L94.93488,462.98608 L153.39685,455.6445 z"/>
<path d="M663.92377,542.15094 L670.7485,488.21088 L637.19476,512.4982 z"/>
<path d="M698.8959,522.2459 L670.7485,488.21088 L663.92377,542.15094 z"/>
<path d="M172.40552,336.56552 L188.75555,395.67007 L224.48224,361.4772 z"/>
<path d="M147.23045,415.8168 L114.00484,416.94714 L153.39685,455.6445 z"/>
<path d="M653.8779,747.7818 L615.1661,739.2462 L619.3527,777.5084 z"/>
<path d="M670.7485,488.21088 L658.751,451.79248 L609.18945,483.32568 z"/>
<path d="M621.51447,785.6745 L653.8779,747.7818 L619.3527,777.5084 z"/>
<path d="M140.04208,374.45822 L114.00484,416.94714 L147.23045,415.8168 z"/>
<path d="M700.10596,608.2039 L650.8696,585.8079 L663.4664,635.18506 z"/>
<path d="M700.10596,608.2039 L695.94617,569.2013 L650.8696,585.8079 z"/>
<path d="M679.91516,705.29285 L633.10333,702.48035 L656.06866,739.68555 z"/>
<path d="M679.91516,705.29285 L684.7036,681.9281 L633.10333,702.48035 z"/>
<path d="M523.1918,280.63724 L479.8424,290.8099 L499.12552,336.12778 z"/>
<path d="M621.51447,336.56552 L576.9318,342.75238 L571.5176,381.9014 z"/>
<path d="M537.35266,329.85742 L523.1918,280.63724 L499.12552,336.12778 z"/>
<path d="M637.3771,379.4167 L571.5176,381.9014 L627.6922,418.82562 z"/>
<path d="M653.8779,747.7818 L679.91516,705.29285 L656.06866,739.68555 z"/>
<path d="M698.9851,659.2539 L700.10596,608.2039 L663.4664,635.18506 z"/>
<path d="M698.9851,659.2539 L663.4664,635.18506 L684.7036,681.9281 z"/>
<path d="M172.40552,336.56552 L140.04208,374.45822 L154.92853,372.2321 z"/>
<path d="M154.92853,372.2321 L140.04208,374.45822 L147.23045,415.8168 z"/>
<path d="M252.78714,278.16483 L234.8774,301.00574 L300.60068,305.08704 z"/>
<path d="M300.60068,305.08704 L234.8774,301.00574 L282.84445,340.619 z"/>
<path d="M679.91516,705.29285 L698.9851,659.2539 L684.7036,681.9281 z"/>
<path d="M210.29822,304.2021 L172.40552,336.56552 L224.48224,361.4772 z"/>
<path d="M670.7485,488.21088 L698.9851,462.98608 L658.751,451.79248 z"/>
<path d="M695.94617,569.2013 L698.8959,522.2459 L663.92377,542.15094 z"/>
<path d="M714.528,561.12 L698.8959,522.2459 L695.94617,569.2013 z"/>
<path d="M479.8424,290.8099 L427.68564,268.00928 L433.82367,322.38416 z"/>
<path d="M386.49365,286.52188 L328.9958,262.9579 L342.5504,311.92612 z"/>
<path d="M698.9851,659.2539 L710.6182,610.7986 L700.10596,608.2039 z"/>
<path d="M700.10596,608.2039 L710.6182,610.7986 L695.94617,569.2013 z"/>
<path d="M367.66635,249.43407 L328.9958,262.9579 L386.49365,286.52188 z"/>
<path d="M252.78714,278.16483 L210.29822,304.2021 L234.8774,301.00574 z"/>
<path d="M234.8774,301.00574 L210.29822,304.2021 L224.48224,361.4772 z"/>
<path d="M679.91516,416.94714 L627.6922,418.82562 L658.751,451.79248 z"/>
<path d="M679.91516,416.94714 L637.3771,379.4167 L627.6922,418.82562 z"/>
<path d="M710.6182,610.7986 L714.528,561.12 L695.94617,569.2013 z"/>
<path d="M285.0637,265.54282 L252.78714,278.16483 L300.60068,305.08704 z"/>
<path d="M298.82608,259.09488 L285.0637,265.54282 L300.60068,305.08704 z"/>
<path d="M714.528,561.12 L710.6182,511.4414 L698.8959,522.2459 z"/>
<path d="M698.8959,522.2459 L710.6182,511.4414 L670.7485,488.21088 z"/>
<path d="M347.28143,247.46179 L298.82608,259.09488 L328.9958,262.9579 z"/>
<path d="M328.9958,262.9579 L298.82608,259.09488 L300.60068,305.08704 z"/>
<path d="M285.0637,265.54282 L298.82608,259.09488 L252.78714,278.16483 z"/>
<path d="M396.96,243.552 L367.66635,249.43407 L386.49365,286.52188 z"/>
<path d="M541.1329,278.16483 L523.1918,280.63724 L537.35266,329.85742 z"/>
<path d="M479.8424,290.8099 L446.63858,247.46179 L427.68564,268.00928 z"/>
<path d="M427.68564,268.00928 L396.96,243.552 L386.49365,286.52188 z"/>
<path d="M567.32025,299.0999 L537.35266,329.85742 L576.9318,342.75238 z"/>
<path d="M710.6182,511.4414 L698.9851,462.98608 L670.7485,488.21088 z"/>
<path d="M367.66635,249.43407 L347.28143,247.46179 L328.9958,262.9579 z"/>
<path d="M698.9851,462.98608 L679.91516,416.94714 L658.751,451.79248 z"/>
<path d="M583.62177,304.2021 L567.32025,299.0999 L576.9318,342.75238 z"/>
<path d="M621.51447,336.56552 L571.5176,381.9014 L637.3771,379.4167 z"/>
<path d="M446.63858,247.46179 L396.96,243.552 L427.68564,268.00928 z"/>
<path d="M367.66635,249.43407 L396.96,243.552 L347.28143,247.46179 z"/>
<path d="M679.91516,416.94714 L653.8779,374.45822 L637.3771,379.4167 z"/>
<path d="M495.0939,259.09488 L446.63858,247.46179 L479.8424,290.8099 z"/>
<path d="M495.0939,259.09488 L479.8424,290.8099 L523.1918,280.63724 z"/>
<path d="M653.8779,374.45822 L621.51447,336.56552 L637.3771,379.4167 z"/>
<path d="M541.1329,278.16483 L495.0939,259.09488 L523.1918,280.63724 z"/>
<path d="M621.51447,336.56552 L583.62177,304.2021 L576.9318,342.75238 z"/>
<path d="M567.32025,299.0999 L541.1329,278.16483 L537.35266,329.85742 z"/>
<path d="M583.62177,304.2021 L541.1329,278.16483 L567.32025,299.0999 z"/>
</g>
<g fill="none" id="layer2" inkscape:groupmode="layer" inkscape:label="2" stroke="rgba(218, 28, 31, 1.0)" stroke-width="0.45mm"/>
<g fill="none" id="layer3" inkscape:groupmode="layer" inkscape:label="3" stroke="black" stroke-width="0.5mm"/>
<g fill="none" id="layer4" inkscape:groupmode="layer" inkscape:label="4" stroke="black" stroke-width="0.5mm"/>
<g fill="none" id="layer5" inkscape:groupmode="layer" inkscape:label="5" stroke="black" stroke-width="0.5mm"/>
<g fill="none" id="layer6" inkscape:groupmode="layer" inkscape:label="6" stroke="black" stroke-width="0.5mm"/>
<g fill="none" id="layer7" inkscape:groupmode="layer" inkscape:label="7" stroke="black" stroke-width="0.5mm"/>
<g fill="none" id="layer8" inkscape:groupmode="layer" inkscape:label="8" stroke="black" stroke-width="0.5mm"/>
<g fill="none" id="layer9" inkscape:groupmode="layer" inkscape:label="9" stroke="black" stroke-width="0.5mm"/>
<g fill="none" id="layer10" inkscape:groupmode="layer" inkscape:label="10" stroke="black" stroke-width="0.5mm"/>
<g fill="none" id="layer11" inkscape:groupmode="layer" inkscape:label="11" stroke="black" stroke-width="0.5mm">
<rect height="1122.24" width="793.92" x="0" y="0"/>
</g>
</svg>