<svg height="1123.1999999999998px" viewBox="0 0 796.8000000000001 1123.1999999999998" width="796.8000000000001px" xmlns="http://www.w3.org/2000/svg" xmlns:inkscape="http://www.inkscape.org/namespaces/inkscape">
<g fill="none" id="1" stroke="black" stroke-width="0.5mm">
<path d="M358.4,330.88202 L98.59238,780.882 L698.20764,780.882 L738.20764,711.6 L218.59238,711.6 L398.4,400.16406 L358.4,330.88202 z"/>
<path d="M218.59238,711.6 L738.20764,711.6 L438.4,192.31796 L358.4,192.31796 L618.20764,642.318 L258.59238,642.318 L218.59238,711.6 z"/>
<path d="M98.59238,780.882 L58.59238,711.6 L358.4,192.31796 L618.20764,642.318 L538.20764,642.318 L358.4,330.88202 L98.59238,780.882 z"/>
</g>
<g fill="none" id="2" stroke="black" stroke-width="0.2mm">
<path d="M330.97214,516.9525 L330.04855,513.9621 L318.88892,518.8732 z"/>
<path d="M317.58502,500.57053 L311.22055,519.8028 L318.88892,518.8732 z"/>
<path d="M311.22055,519.8028 L316.00424,528.5011 L318.88892,518.8732 z"/>
<path d="M318.88892,518.8732 L316.00424,528.5011 L330.97214,516.9525 z"/>
<path d="M330.04855,513.9621 L317.58502,500.57053 L318.88892,518.8732 z"/>
<path d="M330.04855,513.9621 L321.53204,499.22433 L317.58502,500.57053 z"/>
<path d="M300.08356,504.5927 L305.48608,524.11725 L311.22055,519.8028 z"/>
<path d="M311.22055,519.8028 L305.48608,524.11725 L316.00424,528.5011 z"/>
<path d="M314.70578,496.89297 L312.6357,498.85403 L317.58502,500.57053 z"/>
<path d="M317.58502,500.57053 L312.6357,498.85403 L311.22055,519.8028 z"/>
<path d="M321.53204,499.22433 L314.70578,496.89297 L317.58502,500.57053 z"/>
<path d="M314.70578,496.89297 L309.10046,498.25467 L312.6357,498.85403 z"/>
<path d="M312.6357,498.85403 L300.08356,504.5927 L311.22055,519.8028 z"/>
<path d="M337.72818,494.3759 L321.53204,499.22433 L330.04855,513.9621 z"/>
<path d="M337.72818,494.3759 L326.22226,491.7714 L321.53204,499.22433 z"/>
<path d="M321.53204,499.22433 L326.22226,491.7714 L314.70578,496.89297 z"/>
<path d="M314.70578,496.89297 L299.92963,491.11252 L309.10046,498.25467 z"/>
<path d="M305.48608,524.11725 L311.14365,539.36615 L316.00424,528.5011 z"/>
<path d="M316.00424,528.5011 L310.90332,548.797 L330.97214,516.9525 z"/>
<path d="M330.97214,516.9525 L337.72818,494.3759 L330.04855,513.9621 z"/>
<path d="M309.10046,498.25467 L300.08356,504.5927 L312.6357,498.85403 z"/>
<path d="M343.03973,485.02103 L338.4071,492.1278 L337.72818,494.3759 z"/>
<path d="M337.72818,494.3759 L338.4071,492.1278 L326.22226,491.7714 z"/>
<path d="M291.23068,517.1044 L296.8812,527.1829 L305.48608,524.11725 z"/>
<path d="M305.48608,524.11725 L296.56116,533.9661 L311.14365,539.36615 z"/>
<path d="M338.4071,492.1278 L324.99167,486.12457 L326.22226,491.7714 z"/>
<path d="M326.22226,491.7714 L324.99167,486.12457 L314.70578,496.89297 z"/>
<path d="M299.92963,491.11252 L294.89948,499.86868 L300.08356,504.5927 z"/>
<path d="M296.8812,527.1829 L296.56116,533.9661 L305.48608,524.11725 z"/>
<path d="M300.08356,504.5927 L291.23068,517.1044 L305.48608,524.11725 z"/>
<path d="M296.8812,527.1829 L282.6631,533.64636 L296.56116,533.9661 z"/>
<path d="M306.27032,550.6298 L310.90332,548.797 L311.14365,539.36615 z"/>
<path d="M311.14365,539.36615 L310.90332,548.797 L316.00424,528.5011 z"/>
<path d="M294.35388,499.3088 L294.89948,499.86868 L299.92963,491.11252 z"/>
<path d="M300.08356,504.5927 L294.89948,499.86868 L291.23068,517.1044 z"/>
<path d="M299.92963,491.11252 L300.08356,504.5927 L309.10046,498.25467 z"/>
<path d="M294.89948,499.86868 L294.35388,499.3088 L291.23068,517.1044 z"/>
<path d="M276.93506,532.9566 L268.7762,507.45087 L273.71967,533.69867 z"/>
<path d="M291.23068,517.1044 L289.05975,521.9053 L296.8812,527.1829 z"/>
<path d="M299.30597,486.94257 L299.92963,491.11252 L314.70578,496.89297 z"/>
<path d="M338.4071,492.1278 L343.03973,485.02103 L324.99167,486.12457 z"/>
<path d="M293.40088,544.06396 L306.27032,550.6298 L311.14365,539.36615 z"/>
<path d="M293.40088,544.06396 L311.14365,539.36615 L296.56116,533.9661 z"/>
<path d="M301.73276,473.69714 L299.30597,486.94257 L324.99167,486.12457 z"/>
<path d="M324.99167,486.12457 L299.30597,486.94257 L314.70578,496.89297 z"/>
<path d="M299.92963,491.11252 L286.97037,487.88898 L294.35388,499.3088 z"/>
<path d="M282.6631,533.64636 L293.40088,544.06396 L296.56116,533.9661 z"/>
<path d="M289.3963,558.8463 L308.4962,555.882 L306.27032,550.6298 z"/>
<path d="M306.27032,550.6298 L308.4962,555.882 L310.90332,548.797 z"/>
<path d="M310.90332,548.797 L308.4962,555.882 L330.97214,516.9525 z"/>
<path d="M276.93506,532.9566 L282.6631,533.64636 L289.05975,521.9053 z"/>
<path d="M289.05975,521.9053 L282.6631,533.64636 L296.8812,527.1829 z"/>
<path d="M343.03973,485.02103 L343.69055,475.02994 L324.99167,486.12457 z"/>
<path d="M299.30597,486.94257 L286.97037,487.88898 L299.92963,491.11252 z"/>
<path d="M294.35388,499.3088 L268.7762,507.45087 L291.23068,517.1044 z"/>
<path d="M289.95663,481.91196 L286.97037,487.88898 L299.30597,486.94257 z"/>
<path d="M282.6631,533.64636 L285.80008,545.81445 L293.40088,544.06396 z"/>
<path d="M293.40088,544.06396 L287.87943,549.94543 L306.27032,550.6298 z"/>
<path d="M319.2337,465.67502 L301.73276,473.69714 L324.99167,486.12457 z"/>
<path d="M285.80008,545.81445 L287.87943,549.94543 L293.40088,544.06396 z"/>
<path d="M343.69055,475.02994 L326.3699,467.0237 L324.99167,486.12457 z"/>
<path d="M301.73276,473.69714 L289.95663,481.91196 L299.30597,486.94257 z"/>
<path d="M345.88147,472.55542 L326.3699,467.0237 L343.69055,475.02994 z"/>
<path d="M268.7762,507.45087 L289.05975,521.9053 L291.23068,517.1044 z"/>
<path d="M282.6631,533.64636 L276.93506,532.9566 L285.80008,545.81445 z"/>
<path d="M280.77066,553.24066 L289.3963,558.8463 L287.87943,549.94543 z"/>
<path d="M319.2337,465.67502 L302.3027,470.60016 L301.73276,473.69714 z"/>
<path d="M301.73276,473.69714 L294.59814,464.40976 L289.95663,481.91196 z"/>
<path d="M326.3699,467.0237 L319.2337,465.67502 L324.99167,486.12457 z"/>
<path d="M319.2337,465.67502 L302.23627,469.6399 L302.3027,470.60016 z"/>
<path d="M302.3027,470.60016 L294.59814,464.40976 L301.73276,473.69714 z"/>
<path d="M279.32443,480.63947 L280.07394,487.673 L286.97037,487.88898 z"/>
<path d="M286.97037,487.88898 L280.07394,487.673 L294.35388,499.3088 z"/>
<path d="M279.32443,480.63947 L286.97037,487.88898 L289.95663,481.91196 z"/>
<path d="M268.7762,507.45087 L276.93506,532.9566 L289.05975,521.9053 z"/>
<path d="M276.93506,532.9566 L273.71967,533.69867 L285.80008,545.81445 z"/>
<path d="M280.39398,552.5903 L287.87943,549.94543 L285.80008,545.81445 z"/>
<path d="M287.87943,549.94543 L289.3963,558.8463 L306.27032,550.6298 z"/>
<path d="M289.3963,558.8463 L297.05096,566.7487 L308.4962,555.882 z"/>
<path d="M273.71967,533.69867 L280.39398,552.5903 L285.80008,545.81445 z"/>
<path d="M289.3963,558.8463 L288.16888,564.48645 L297.05096,566.7487 z"/>
<path d="M280.07394,487.673 L268.7762,507.45087 L294.35388,499.3088 z"/>
<path d="M280.39398,552.5903 L280.77066,553.24066 L287.87943,549.94543 z"/>
<path d="M283.64713,470.8701 L279.32443,480.63947 L289.95663,481.91196 z"/>
<path d="M280.07394,487.673 L271.7771,486.52634 L268.7762,507.45087 z"/>
<path d="M280.4772,561.14795 L288.16888,564.48645 L289.3963,558.8463 z"/>
<path d="M339.72272,454.31042 L331.08865,457.64975 L345.88147,472.55542 z"/>
<path d="M345.88147,472.55542 L331.08865,457.64975 L326.3699,467.0237 z"/>
<path d="M326.3699,467.0237 L331.08865,457.64975 L319.2337,465.67502 z"/>
<path d="M305.17328,455.94412 L294.59814,464.40976 L302.23627,469.6399 z"/>
<path d="M305.17328,455.94412 L302.23627,469.6399 L319.2337,465.67502 z"/>
<path d="M302.23627,469.6399 L294.59814,464.40976 L302.3027,470.60016 z"/>
<path d="M278.69965,470.07217 L273.4893,483.92786 L279.32443,480.63947 z"/>
<path d="M279.32443,480.63947 L273.4893,483.92786 L280.07394,487.673 z"/>
<path d="M273.4893,483.92786 L271.7771,486.52634 L280.07394,487.673 z"/>
<path d="M294.59814,464.40976 L283.64713,470.8701 L289.95663,481.91196 z"/>
<path d="M280.39398,552.5903 L280.4772,561.14795 L280.77066,553.24066 z"/>
<path d="M280.77066,553.24066 L280.4772,561.14795 L289.3963,558.8463 z"/>
<path d="M272.61392,570.1418 L280.4772,561.14795 L264.8141,568.59503 z"/>
<path d="M268.7762,507.45087 L262.0573,511.5692 L273.71967,533.69867 z"/>
<path d="M273.71967,533.69867 L253.97879,535.5806 L280.39398,552.5903 z"/>
<path d="M294.59814,464.40976 L283.4247,469.18756 L283.64713,470.8701 z"/>
<path d="M283.64713,470.8701 L278.69965,470.07217 L279.32443,480.63947 z"/>
<path d="M281.86765,464.87122 L283.21545,469.14032 L283.4247,469.18756 z"/>
<path d="M283.4247,469.18756 L283.21545,469.14032 L283.64713,470.8701 z"/>
<path d="M273.4893,483.92786 L278.69965,470.07217 L271.7771,486.52634 z"/>
<path d="M331.08865,457.64975 L305.17328,455.94412 L319.2337,465.67502 z"/>
<path d="M281.86765,464.87122 L278.69965,470.07217 L283.21545,469.14032 z"/>
<path d="M360.5915,450.5157 L339.72272,454.31042 L345.88147,472.55542 z"/>
<path d="M331.08865,457.64975 L333.19635,452.79074 L305.17328,455.94412 z"/>
<path d="M339.72272,454.31042 L333.19635,452.79074 L331.08865,457.64975 z"/>
<path d="M283.21545,469.14032 L278.69965,470.07217 L283.64713,470.8701 z"/>
<path d="M281.86765,464.87122 L283.4247,469.18756 L294.59814,464.40976 z"/>
<path d="M285.28775,459.00748 L281.86765,464.87122 L294.59814,464.40976 z"/>
<path d="M280.4772,561.14795 L283.77444,571.4567 L288.16888,564.48645 z"/>
<path d="M288.16888,564.48645 L291.70563,577.12164 L297.05096,566.7487 z"/>
<path d="M272.61392,570.1418 L283.77444,571.4567 L280.4772,561.14795 z"/>
<path d="M283.77444,571.4567 L291.70563,577.12164 L288.16888,564.48645 z"/>
<path d="M297.05096,566.7487 L291.70563,577.12164 L308.4962,555.882 z"/>
<path d="M300.87137,451.01965 L285.28775,459.00748 L294.59814,464.40976 z"/>
<path d="M315.8465,434.32196 L300.87137,451.01965 L305.17328,455.94412 z"/>
<path d="M305.17328,455.94412 L300.87137,451.01965 L294.59814,464.40976 z"/>
<path d="M247.7038,527.3122 L253.97879,535.5806 L262.0573,511.5692 z"/>
<path d="M262.0573,511.5692 L253.97879,535.5806 L273.71967,533.69867 z"/>
<path d="M264.8141,568.59503 L280.4772,561.14795 L280.39398,552.5903 z"/>
<path d="M283.77444,571.4567 L284.72507,589.24744 L291.70563,577.12164 z"/>
<path d="M335.8933,426.97543 L315.8465,434.32196 L333.19635,452.79074 z"/>
<path d="M300.87137,451.01965 L294.28137,446.13617 L285.28775,459.00748 z"/>
<path d="M251.38899,557.5376 L264.8141,568.59503 L280.39398,552.5903 z"/>
<path d="M251.38899,557.5376 L280.39398,552.5903 L253.97879,535.5806 z"/>
<path d="M272.61392,570.1418 L284.72507,589.24744 L283.77444,571.4567 z"/>
<path d="M315.8465,434.32196 L305.17328,455.94412 L333.19635,452.79074 z"/>
<path d="M283.63776,590.98267 L284.72507,589.24744 L275.71576,595.01056 z"/>
<path d="M335.8933,426.97543 L333.19635,452.79074 L339.72272,454.31042 z"/>
<path d="M240.87215,544.15106 L251.38899,557.5376 L253.97879,535.5806 z"/>
<path d="M264.0658,582.89075 L284.72507,589.24744 L272.61392,570.1418 z"/>
<path d="M260.3946,573.2254 L272.61392,570.1418 L264.8141,568.59503 z"/>
<path d="M255.33557,572.2638 L260.3946,573.2254 L264.8141,568.59503 z"/>
<path d="M275.71576,595.01056 L284.19223,592.45386 L283.63776,590.98267 z"/>
<path d="M283.63776,590.98267 L284.19223,592.45386 L284.72507,589.24744 z"/>
<path d="M368.5907,437.62943 L365.14954,438.91788 L360.5915,450.5157 z"/>
<path d="M354.0687,429.50485 L335.8933,426.97543 L339.72272,454.31042 z"/>
<path d="M247.7038,527.3122 L240.87215,544.15106 L253.97879,535.5806 z"/>
<path d="M251.38899,557.5376 L255.33557,572.2638 L264.8141,568.59503 z"/>
<path d="M247.63174,563.14294 L255.33557,572.2638 L251.38899,557.5376 z"/>
<path d="M260.3946,573.2254 L264.0658,582.89075 L272.61392,570.1418 z"/>
<path d="M255.33557,572.2638 L264.0658,582.89075 L260.3946,573.2254 z"/>
<path d="M238.24481,557.3514 L247.63174,563.14294 L251.38899,557.5376 z"/>
<path d="M255.33557,572.2638 L263.12564,587.3781 L264.0658,582.89075 z"/>
<path d="M354.0687,429.50485 L339.72272,454.31042 L360.5915,450.5157 z"/>
<path d="M354.0687,429.50485 L360.5915,450.5157 L365.14954,438.91788 z"/>
<path d="M264.0658,582.89075 L275.71576,595.01056 L284.72507,589.24744 z"/>
<path d="M360.4854,431.61252 L354.0687,429.50485 L365.14954,438.91788 z"/>
<path d="M363.5056,430.4816 L360.4854,431.61252 L365.14954,438.91788 z"/>
<path d="M368.5907,437.62943 L363.5056,430.4816 L365.14954,438.91788 z"/>
<path d="M236.7475,588.12274 L263.12564,587.3781 L255.33557,572.2638 z"/>
<path d="M264.0658,582.89075 L266.47183,592.343 L275.71576,595.01056 z"/>
<path d="M354.0687,429.50485 L339.87488,423.62872 L335.8933,426.97543 z"/>
<path d="M321.17795,414.96957 L311.90283,420.74728 L315.8465,434.32196 z"/>
<path d="M337.09326,420.48544 L339.87488,423.62872 L357.37787,415.68097 z"/>
<path d="M378.1581,420.79523 L363.5056,430.4816 L368.5907,437.62943 z"/>
<path d="M360.4854,431.61252 L363.5056,430.4816 L354.0687,429.50485 z"/>
<path d="M263.12564,587.3781 L266.47183,592.343 L264.0658,582.89075 z"/>
<path d="M240.87215,544.15106 L238.24481,557.3514 L251.38899,557.5376 z"/>
<path d="M247.63174,563.14294 L239.16429,565.2264 L255.33557,572.2638 z"/>
<path d="M263.12564,587.3781 L248.55519,602.8367 L266.47183,592.343 z"/>
<path d="M247.7038,527.3122 L234.54529,550.87787 L240.87215,544.15106 z"/>
<path d="M240.87215,544.15106 L234.54529,550.87787 L238.24481,557.3514 z"/>
<path d="M321.17795,414.96957 L315.8465,434.32196 L335.8933,426.97543 z"/>
<path d="M357.37787,415.68097 L339.87488,423.62872 L354.0687,429.50485 z"/>
<path d="M339.87488,423.62872 L337.09326,420.48544 L335.8933,426.97543 z"/>
<path d="M235.30328,561.81757 L239.16429,565.2264 L238.24481,557.3514 z"/>
<path d="M238.24481,557.3514 L239.16429,565.2264 L247.63174,563.14294 z"/>
<path d="M239.16429,565.2264 L236.7475,588.12274 L255.33557,572.2638 z"/>
<path d="M328.4013,412.89197 L321.17795,414.96957 L335.8933,426.97543 z"/>
<path d="M223.69011,580.5227 L236.7475,588.12274 L239.16429,565.2264 z"/>
<path d="M337.09326,420.48544 L328.4013,412.89197 L335.8933,426.97543 z"/>
<path d="M339.18536,401.43222 L328.4013,412.89197 L337.09326,420.48544 z"/>
<path d="M364.82034,414.95816 L357.37787,415.68097 L363.5056,430.4816 z"/>
<path d="M363.5056,430.4816 L357.37787,415.68097 L354.0687,429.50485 z"/>
<path d="M378.1581,420.79523 L364.82034,414.95816 L363.5056,430.4816 z"/>
<path d="M357.37787,415.68097 L339.18536,401.43222 L337.09326,420.48544 z"/>
<path d="M360.84454,406.29147 L360.23746,411.29346 L364.82034,414.95816 z"/>
<path d="M364.82034,414.95816 L360.23746,411.29346 L357.37787,415.68097 z"/>
<path d="M378.1581,420.79523 L373.16495,414.32916 L364.82034,414.95816 z"/>
<path d="M222.49806,569.82996 L239.16429,565.2264 L235.30328,561.81757 z"/>
<path d="M266.47183,592.343 L263.43652,623.1311 L275.71576,595.01056 z"/>
<path d="M332.84836,397.56033 L324.09106,403.5464 L328.4013,412.89197 z"/>
<path d="M328.4013,412.89197 L324.09106,403.5464 L321.17795,414.96957 z"/>
<path d="M321.17795,414.96957 L324.09106,403.5464 L311.90283,420.74728 z"/>
<path d="M381.75784,419.697 L373.16495,414.32916 L378.1581,420.79523 z"/>
<path d="M236.7475,588.12274 L248.55519,602.8367 L263.12564,587.3781 z"/>
<path d="M369.00006,402.36987 L364.82034,414.95816 L373.16495,414.32916 z"/>
<path d="M369.00006,402.36987 L360.84454,406.29147 L364.82034,414.95816 z"/>
<path d="M360.23746,411.29346 L360.84454,406.29147 L357.37787,415.68097 z"/>
<path d="M360.84454,406.29147 L339.18536,401.43222 L357.37787,415.68097 z"/>
<path d="M381.75784,419.697 L385.5384,415.9835 L373.16495,414.32916 z"/>
<path d="M229.1368,590.1863 L234.93822,595.3862 L236.7475,588.12274 z"/>
<path d="M236.7475,588.12274 L234.93822,595.3862 L248.55519,602.8367 z"/>
<path d="M222.49806,569.82996 L223.69011,580.5227 L239.16429,565.2264 z"/>
<path d="M333.86258,392.8315 L332.84836,397.56033 L339.18536,401.43222 z"/>
<path d="M339.18536,401.43222 L332.84836,397.56033 L328.4013,412.89197 z"/>
<path d="M223.69011,580.5227 L229.1368,590.1863 L236.7475,588.12274 z"/>
<path d="M249.1193,619.39276 L263.43652,623.1311 L248.55519,602.8367 z"/>
<path d="M248.55519,602.8367 L263.43652,623.1311 L266.47183,592.343 z"/>
<path d="M238.70847,607.2689 L248.55519,602.8367 L234.93822,595.3862 z"/>
<path d="M385.5384,415.9835 L369.00006,402.36987 L373.16495,414.32916 z"/>
<path d="M354.126,388.03656 L333.86258,392.8315 L339.18536,401.43222 z"/>
<path d="M239.73769,614.69653 L238.70847,607.2689 L225.32852,619.59424 z"/>
<path d="M221.79103,606.67004 L238.70847,607.2689 L234.93822,595.3862 z"/>
<path d="M354.126,388.03656 L339.18536,401.43222 L360.84454,406.29147 z"/>
<path d="M239.73769,614.69653 L249.1193,619.39276 L248.55519,602.8367 z"/>
<path d="M354.126,388.03656 L332.7954,390.16034 L333.86258,392.8315 z"/>
<path d="M333.86258,392.8315 L332.7954,390.16034 L332.84836,397.56033 z"/>
<path d="M249.1193,619.39276 L254.32019,625.22424 L263.43652,623.1311 z"/>
<path d="M238.70847,607.2689 L239.73769,614.69653 L248.55519,602.8367 z"/>
<path d="M249.1193,619.39276 L245.0178,621.2568 L254.32019,625.22424 z"/>
<path d="M221.79103,606.67004 L234.93822,595.3862 L229.1368,590.1863 z"/>
<path d="M239.73769,614.69653 L245.0178,621.2568 L249.1193,619.39276 z"/>
<path d="M256.6361,634.8582 L263.54428,633.741 L254.32019,625.22424 z"/>
<path d="M254.32019,625.22424 L263.54428,633.741 L263.43652,623.1311 z"/>
<path d="M350.70178,373.1578 L329.36603,385.11172 L332.7954,390.16034 z"/>
<path d="M363.77234,386.79883 L360.84454,406.29147 L369.00006,402.36987 z"/>
<path d="M363.77234,386.79883 L354.126,388.03656 L360.84454,406.29147 z"/>
<path d="M222.49806,569.82996 L210.78987,587.72253 L223.69011,580.5227 z"/>
<path d="M223.69011,580.5227 L210.78987,587.72253 L229.1368,590.1863 z"/>
<path d="M239.73769,614.69653 L240.92369,627.30707 L245.0178,621.2568 z"/>
<path d="M240.92369,627.30707 L254.32019,625.22424 L245.0178,621.2568 z"/>
<path d="M240.92369,627.30707 L256.6361,634.8582 L254.32019,625.22424 z"/>
<path d="M354.126,388.03656 L350.70178,373.1578 L332.7954,390.16034 z"/>
<path d="M210.78987,587.72253 L221.79103,606.67004 L229.1368,590.1863 z"/>
<path d="M385.5384,415.9835 L393.4,391.5038 L369.00006,402.36987 z"/>
<path d="M229.84964,625.1243 L240.92369,627.30707 L239.73769,614.69653 z"/>
<path d="M213.51042,612.5734 L220.12848,608.9556 L221.79103,606.67004 z"/>
<path d="M221.79103,606.67004 L225.32852,619.59424 L238.70847,607.2689 z"/>
<path d="M220.12848,608.9556 L225.32852,619.59424 L221.79103,606.67004 z"/>
<path d="M398.4,400.16406 L393.4,391.5038 L385.5384,415.9835 z"/>
<path d="M225.32852,619.59424 L229.84964,625.1243 L239.73769,614.69653 z"/>
<path d="M240.92369,627.30707 L240.31413,647.43616 L256.6361,634.8582 z"/>
<path d="M363.91867,374.59644 L356.91095,376.08093 L363.77234,386.79883 z"/>
<path d="M363.77234,386.79883 L356.91095,376.08093 L354.126,388.03656 z"/>
<path d="M225.32852,619.59424 L227.70784,625.9026 L229.84964,625.1243 z"/>
<path d="M235.43765,649.1732 L240.31413,647.43616 L240.92369,627.30707 z"/>
<path d="M219.06398,621.5346 L227.70784,625.9026 L225.32852,619.59424 z"/>
<path d="M354.69424,372.8787 L350.70178,373.1578 L356.91095,376.08093 z"/>
<path d="M356.91095,376.08093 L350.70178,373.1578 L354.126,388.03656 z"/>
<path d="M210.78987,587.72253 L213.51042,612.5734 L221.79103,606.67004 z"/>
<path d="M220.12848,608.9556 L219.06398,621.5346 L225.32852,619.59424 z"/>
<path d="M363.91867,374.59644 L354.69424,372.8787 L356.91095,376.08093 z"/>
<path d="M213.51042,612.5734 L219.06398,621.5346 L220.12848,608.9556 z"/>
<path d="M213.51042,612.5734 L212.6935,618.7615 L219.06398,621.5346 z"/>
<path d="M235.43765,649.1732 L229.84964,625.1243 L227.70784,625.9026 z"/>
<path d="M357.42194,363.88486 L350.70178,373.1578 L354.69424,372.8787 z"/>
<path d="M357.42194,363.88486 L354.69424,372.8787 L363.91867,374.59644 z"/>
<path d="M357.42194,363.88486 L346.73697,363.6107 L350.70178,373.1578 z"/>
<path d="M350.70178,373.1578 L346.73697,363.6107 L329.36603,385.11172 z"/>
<path d="M235.43765,649.1732 L227.70784,625.9026 L229.68088,651.05457 z"/>
<path d="M235.43765,649.1732 L240.92369,627.30707 L229.84964,625.1243 z"/>
<path d="M256.6361,634.8582 L242.1091,662.656 L263.54428,633.741 z"/>
<path d="M376.52576,363.67996 L357.42194,363.88486 L363.91867,374.59644 z"/>
<path d="M214.2498,635.02435 L227.70784,625.9026 L219.06398,621.5346 z"/>
<path d="M212.6935,618.7615 L214.2498,635.02435 L219.06398,621.5346 z"/>
<path d="M190.03107,627.1561 L214.2498,635.02435 L212.6935,618.7615 z"/>
<path d="M378.4,365.52304 L376.52576,363.67996 L363.91867,374.59644 z"/>
<path d="M357.42194,363.88486 L354.80685,353.78653 L346.73697,363.6107 z"/>
<path d="M214.2498,635.02435 L229.68088,651.05457 L227.70784,625.9026 z"/>
<path d="M229.68088,651.05457 L238.23724,658.20795 L235.43765,649.1732 z"/>
<path d="M235.43765,649.1732 L238.23724,658.20795 L240.31413,647.43616 z"/>
<path d="M240.31413,647.43616 L242.1091,662.656 L256.6361,634.8582 z"/>
<path d="M373.4,356.8628 L354.80685,353.78653 L357.42194,363.88486 z"/>
<path d="M240.88591,664.47437 L242.1091,662.656 L238.23724,658.20795 z"/>
<path d="M238.23724,658.20795 L242.1091,662.656 L240.31413,647.43616 z"/>
<path d="M378.4,365.52304 L373.4,356.8628 L376.52576,363.67996 z"/>
<path d="M376.52576,363.67996 L373.4,356.8628 L357.42194,363.88486 z"/>
<path d="M229.4523,659.68854 L238.23724,658.20795 L229.68088,651.05457 z"/>
<path d="M229.4523,659.68854 L240.88591,664.47437 L238.23724,658.20795 z"/>
<path d="M214.2498,635.02435 L215.27477,646.95386 L229.68088,651.05457 z"/>
<path d="M211.01598,648.11383 L215.27477,646.95386 L205.50058,644.0564 z"/>
<path d="M222.0768,657.41425 L229.4523,659.68854 L229.68088,651.05457 z"/>
<path d="M368.4,348.20255 L356.5064,347.72995 L354.80685,353.78653 z"/>
<path d="M354.80685,353.78653 L356.5064,347.72995 L346.73697,363.6107 z"/>
<path d="M205.50058,644.0564 L215.27477,646.95386 L214.2498,635.02435 z"/>
<path d="M215.27477,646.95386 L222.0768,657.41425 L229.68088,651.05457 z"/>
<path d="M213.75851,654.9864 L222.0768,657.41425 L215.27477,646.95386 z"/>
<path d="M237.56946,672.32855 L241.06833,672.67053 L240.88591,664.47437 z"/>
<path d="M195.41318,640.144 L205.50058,644.0564 L214.2498,635.02435 z"/>
<path d="M211.01598,648.11383 L213.75851,654.9864 L215.27477,646.95386 z"/>
<path d="M373.4,356.8628 L368.4,348.20255 L354.80685,353.78653 z"/>
<path d="M190.03107,627.1561 L195.41318,640.144 L214.2498,635.02435 z"/>
<path d="M237.56946,672.32855 L240.88591,664.47437 L229.4523,659.68854 z"/>
<path d="M240.88591,664.47437 L241.06833,672.67053 L242.1091,662.656 z"/>
<path d="M202.11018,666.14484 L213.75851,654.9864 L211.01598,648.11383 z"/>
<path d="M219.54745,671.30084 L237.56946,672.32855 L229.4523,659.68854 z"/>
<path d="M202.11018,666.14484 L211.01598,648.11383 L205.50058,644.0564 z"/>
<path d="M219.54745,671.30084 L229.4523,659.68854 L222.0768,657.41425 z"/>
<path d="M187.80583,627.6769 L195.41318,640.144 L190.03107,627.1561 z"/>
<path d="M182.82391,638.02246 L192.77469,644.7834 L195.41318,640.144 z"/>
<path d="M195.41318,640.144 L192.77469,644.7834 L205.50058,644.0564 z"/>
<path d="M212.25783,670.1523 L219.54745,671.30084 L222.0768,657.41425 z"/>
<path d="M187.80583,627.6769 L182.82391,638.02246 L195.41318,640.144 z"/>
<path d="M222.0768,657.41425 L213.75851,654.9864 L212.25783,670.1523 z"/>
<path d="M217.93271,674.09784 L219.54745,671.30084 L212.25783,670.1523 z"/>
<path d="M356.5064,347.72995 L358.4,330.88202 L346.73697,363.6107 z"/>
<path d="M212.25783,670.1523 L213.75851,654.9864 L205.14828,669.03534 z"/>
<path d="M219.54745,671.30084 L217.93271,674.09784 L237.56946,672.32855 z"/>
<path d="M202.11018,666.14484 L205.50058,644.0564 L189.8455,659.3908 z"/>
<path d="M189.8455,659.3908 L205.50058,644.0564 L192.77469,644.7834 z"/>
<path d="M202.51976,691.1008 L217.45517,690.16266 L217.93271,674.09784 z"/>
<path d="M202.11018,666.14484 L205.14828,669.03534 L213.75851,654.9864 z"/>
<path d="M346.6446,713.9749 L348.4962,711.6 L327.134,719.7381 z"/>
<path d="M182.82391,638.02246 L189.8455,659.3908 L192.77469,644.7834 z"/>
<path d="M184.20091,684.8274 L202.51976,691.1008 L205.14828,669.03534 z"/>
<path d="M286.70474,716.49335 L283.54428,711.6 L273.61478,722.5565 z"/>
<path d="M224.11382,693.9707 L241.06833,672.67053 L237.56946,672.32855 z"/>
<path d="M364.01352,725.4202 L354.5245,715.3111 L349.0823,730.3929 z"/>
<path d="M346.6446,713.9749 L354.5245,715.3111 L348.4962,711.6 z"/>
<path d="M303.6846,717.81616 L309.47574,718.0222 L306.72208,717.17377 z"/>
<path d="M306.72208,717.17377 L309.47574,718.0222 L348.4962,711.6 z"/>
<path d="M283.54428,711.6 L303.6846,717.81616 L306.72208,717.17377 z"/>
<path d="M313.8697,720.1927 L327.134,719.7381 L309.47574,718.0222 z"/>
<path d="M309.47574,718.0222 L327.134,719.7381 L348.4962,711.6 z"/>
<path d="M224.11382,693.9707 L237.56946,672.32855 L217.93271,674.09784 z"/>
<path d="M283.54428,711.6 L292.72415,718.0917 L303.6846,717.81616 z"/>
<path d="M312.55612,722.4038 L313.8697,720.1927 L309.47574,718.0222 z"/>
<path d="M315.60352,720.9882 L313.8697,720.1927 L312.55612,722.4038 z"/>
<path d="M286.70474,716.49335 L292.72415,718.0917 L283.54428,711.6 z"/>
<path d="M217.93271,674.09784 L212.25783,670.1523 L202.51976,691.1008 z"/>
<path d="M217.45517,690.16266 L224.11382,693.9707 L217.93271,674.09784 z"/>
<path d="M213.69557,698.02386 L217.45517,690.16266 L208.1252,695.2589 z"/>
<path d="M312.55612,722.4038 L309.47574,718.0222 L303.6846,717.81616 z"/>
<path d="M313.8697,720.1927 L315.60352,720.9882 L327.134,719.7381 z"/>
<path d="M308.21472,729.99774 L312.55612,722.4038 L303.6846,717.81616 z"/>
<path d="M315.60352,720.9882 L314.44257,730.91254 L327.134,719.7381 z"/>
<path d="M364.01352,725.4202 L372.05972,723.4887 L354.5245,715.3111 z"/>
<path d="M182.82391,638.02246 L179.4956,666.7586 L189.8455,659.3908 z"/>
<path d="M189.8455,659.3908 L179.4956,666.7586 L202.11018,666.14484 z"/>
<path d="M288.89603,733.739 L300.23944,728.03815 L292.72415,718.0917 z"/>
<path d="M292.72415,718.0917 L300.23944,728.03815 L303.6846,717.81616 z"/>
<path d="M217.50928,699.62305 L224.11382,693.9707 L217.45517,690.16266 z"/>
<path d="M354.5245,715.3111 L346.6446,713.9749 L349.0823,730.3929 z"/>
<path d="M354.5245,715.3111 L413.4481,711.6 L348.4962,711.6 z"/>
<path d="M260.15744,717.0777 L273.61478,722.5565 L283.54428,711.6 z"/>
<path d="M349.0823,730.3929 L346.6446,713.9749 L327.134,719.7381 z"/>
<path d="M213.69557,698.02386 L217.50928,699.62305 L217.45517,690.16266 z"/>
<path d="M314.44257,730.91254 L315.60352,720.9882 L312.55612,722.4038 z"/>
<path d="M202.51976,691.1008 L212.25783,670.1523 L205.14828,669.03534 z"/>
<path d="M288.89603,733.739 L292.72415,718.0917 L286.70474,716.49335 z"/>
<path d="M200.89291,692.21045 L202.51976,691.1008 L184.20091,684.8274 z"/>
<path d="M202.51976,691.1008 L208.1252,695.2589 L217.45517,690.16266 z"/>
<path d="M314.44257,730.91254 L308.21472,729.99774 L310.99927,743.9007 z"/>
<path d="M300.23944,728.03815 L308.21472,729.99774 L303.6846,717.81616 z"/>
<path d="M372.05972,723.4887 L413.4481,711.6 L354.5245,715.3111 z"/>
<path d="M308.21472,729.99774 L314.44257,730.91254 L312.55612,722.4038 z"/>
<path d="M184.20091,684.8274 L205.14828,669.03534 L202.11018,666.14484 z"/>
<path d="M202.51976,691.1008 L200.89291,692.21045 L208.1252,695.2589 z"/>
<path d="M212.93878,708.9918 L217.28752,703.90497 L213.69557,698.02386 z"/>
<path d="M364.01352,725.4202 L369.92343,729.0271 L372.05972,723.4887 z"/>
<path d="M372.05972,723.4887 L383.3422,727.51154 L413.4481,711.6 z"/>
<path d="M342.0144,737.5902 L349.0823,730.3929 L327.134,719.7381 z"/>
<path d="M218.59238,711.6 L217.28752,703.90497 L212.93878,708.9918 z"/>
<path d="M213.69557,698.02386 L217.28752,703.90497 L217.50928,699.62305 z"/>
<path d="M217.50928,699.62305 L217.28752,703.90497 L224.11382,693.9707 z"/>
<path d="M282.6022,737.0984 L288.89603,733.739 L273.61478,722.5565 z"/>
<path d="M360.2883,738.3141 L369.92343,729.0271 L364.01352,725.4202 z"/>
<path d="M369.92343,729.0271 L376.9088,727.89056 L372.05972,723.4887 z"/>
<path d="M420.0494,715.5433 L422.23837,712.16907 L413.4481,711.6 z"/>
<path d="M376.9088,727.89056 L383.3422,727.51154 L372.05972,723.4887 z"/>
<path d="M394.93723,734.04407 L390.02866,738.53735 L394.8346,735.0044 z"/>
<path d="M310.99927,743.9007 L324.72043,735.87506 L314.44257,730.91254 z"/>
<path d="M314.44257,730.91254 L324.72043,735.87506 L327.134,719.7381 z"/>
<path d="M349.0823,730.3929 L360.2883,738.3141 L364.01352,725.4202 z"/>
<path d="M369.92343,729.0271 L366.2522,741.4125 L376.9088,727.89056 z"/>
<path d="M297.91306,739.4959 L308.21472,729.99774 L300.23944,728.03815 z"/>
<path d="M179.4956,666.7586 L184.20091,684.8274 L202.11018,666.14484 z"/>
<path d="M212.93878,708.9918 L213.69557,698.02386 L208.1252,695.2589 z"/>
<path d="M179.4956,666.7586 L177.51,681.23627 L184.20091,684.8274 z"/>
<path d="M255.59752,729.1624 L273.61478,722.5565 L260.15744,717.0777 z"/>
<path d="M273.61478,722.5565 L288.89603,733.739 L286.70474,716.49335 z"/>
<path d="M406.6193,739.56024 L420.0494,715.5433 L413.4481,711.6 z"/>
<path d="M174.07635,676.3181 L177.51,681.23627 L179.4956,666.7586 z"/>
<path d="M208.1252,695.2589 L203.71246,714.88586 L212.93878,708.9918 z"/>
<path d="M331.6442,743.1773 L342.0144,737.5902 L324.72043,735.87506 z"/>
<path d="M324.72043,735.87506 L342.0144,737.5902 L327.134,719.7381 z"/>
<path d="M169.26889,691.0771 L173.85349,693.13885 L177.51,681.23627 z"/>
<path d="M434.1972,716.954 L428.2704,740.62036 L440.64474,730.7944 z"/>
<path d="M420.0494,715.5433 L424.48904,714.86584 L422.23837,712.16907 z"/>
<path d="M208.1252,695.2589 L200.89291,692.21045 L203.71246,714.88586 z"/>
<path d="M181.8739,693.07635 L200.89291,692.21045 L184.20091,684.8274 z"/>
<path d="M249.58377,731.512 L255.59752,729.1624 L260.15744,717.0777 z"/>
<path d="M249.58377,731.512 L260.15744,717.0777 L229.0382,715.84265 z"/>
<path d="M225.07014,719.70544 L229.0382,715.84265 L218.59238,711.6 z"/>
<path d="M276.23407,736.8135 L282.6022,737.0984 L273.61478,722.5565 z"/>
<path d="M288.89603,733.739 L297.91306,739.4959 L300.23944,728.03815 z"/>
<path d="M283.72186,744.6562 L297.91306,739.4959 L288.89603,733.739 z"/>
<path d="M360.83203,739.1249 L360.2883,738.3141 L356.46603,742.4836 z"/>
<path d="M356.46603,742.4836 L360.2883,738.3141 L349.0823,730.3929 z"/>
<path d="M434.1972,716.954 L424.48904,714.86584 L428.2704,740.62036 z"/>
<path d="M356.46603,742.4836 L349.0823,730.3929 L348.09924,744.7873 z"/>
<path d="M360.2883,738.3141 L366.2522,741.4125 L369.92343,729.0271 z"/>
<path d="M260.42535,735.91644 L276.23407,736.8135 L273.61478,722.5565 z"/>
<path d="M318.04898,753.9419 L310.99927,743.9007 L293.49307,752.3548 z"/>
<path d="M203.71246,714.88586 L218.59238,711.6 L212.93878,708.9918 z"/>
<path d="M221.35326,729.9141 L225.07014,719.70544 L218.59238,711.6 z"/>
<path d="M255.59752,729.1624 L260.42535,735.91644 L273.61478,722.5565 z"/>
<path d="M318.04898,753.9419 L331.6442,743.1773 L324.72043,735.87506 z"/>
<path d="M173.85349,693.13885 L181.8739,693.07635 L177.51,681.23627 z"/>
<path d="M177.51,681.23627 L181.8739,693.07635 L184.20091,684.8274 z"/>
<path d="M283.72186,744.6562 L288.89603,733.739 L282.6022,737.0984 z"/>
<path d="M297.91306,739.4959 L310.99927,743.9007 L308.21472,729.99774 z"/>
<path d="M237.29736,736.5702 L249.58377,731.512 L229.0382,715.84265 z"/>
<path d="M276.23407,736.8135 L283.72186,744.6562 L282.6022,737.0984 z"/>
<path d="M348.09924,744.7873 L349.0823,730.3929 L342.0144,737.5902 z"/>
<path d="M388.18713,738.20514 L383.3422,727.51154 L376.9088,727.89056 z"/>
<path d="M348.09924,744.7873 L342.0144,737.5902 L331.6442,743.1773 z"/>
<path d="M394.93723,734.04407 L413.4481,711.6 L383.3422,727.51154 z"/>
<path d="M424.48904,714.86584 L434.1972,716.954 L422.23837,712.16907 z"/>
<path d="M366.2522,741.4125 L360.2883,738.3141 L360.83203,739.1249 z"/>
<path d="M249.58377,731.512 L260.42535,735.91644 L255.59752,729.1624 z"/>
<path d="M356.46603,742.4836 L366.2522,741.4125 L360.83203,739.1249 z"/>
<path d="M351.4643,752.02313 L348.09924,744.7873 L331.6442,743.1773 z"/>
<path d="M356.46603,742.4836 L355.927,744.005 L366.2522,741.4125 z"/>
<path d="M388.18713,738.20514 L394.93723,734.04407 L383.3422,727.51154 z"/>
<path d="M394.93723,734.04407 L406.6193,739.56024 L413.4481,711.6 z"/>
<path d="M348.09924,744.7873 L355.927,744.005 L356.46603,742.4836 z"/>
<path d="M381.95322,748.3697 L388.18713,738.20514 L376.9088,727.89056 z"/>
<path d="M390.02866,738.53735 L388.18713,738.20514 L382.08554,748.3772 z"/>
<path d="M394.8346,735.0044 L406.6193,739.56024 L394.93723,734.04407 z"/>
<path d="M381.95322,748.3697 L376.9088,727.89056 L366.2522,741.4125 z"/>
<path d="M388.18713,738.20514 L390.02866,738.53735 L394.93723,734.04407 z"/>
<path d="M277.62903,754.31616 L283.72186,744.6562 L276.23407,736.8135 z"/>
<path d="M345.06808,765.2317 L351.4643,752.02313 L331.6442,743.1773 z"/>
<path d="M185.82619,716.8894 L203.71246,714.88586 L200.89291,692.21045 z"/>
<path d="M169.26889,691.0771 L177.51,681.23627 L174.07635,676.3181 z"/>
<path d="M202.33832,718.0555 L203.71246,714.88586 L185.82619,716.8894 z"/>
<path d="M232.35654,736.63477 L237.29736,736.5702 L229.0382,715.84265 z"/>
<path d="M249.58377,731.512 L252.16486,749.0608 L260.42535,735.91644 z"/>
<path d="M281.55728,757.4822 L293.49307,752.3548 L283.72186,744.6562 z"/>
<path d="M156.05862,685.7536 L169.26889,691.0771 L174.07635,676.3181 z"/>
<path d="M185.82619,716.8894 L200.89291,692.21045 L181.8739,693.07635 z"/>
<path d="M203.79364,725.0284 L202.33832,718.0555 L185.82619,716.8894 z"/>
<path d="M203.71246,714.88586 L203.79364,725.0284 L218.59238,711.6 z"/>
<path d="M232.35654,736.63477 L229.0382,715.84265 L225.07014,719.70544 z"/>
<path d="M348.09924,744.7873 L351.4643,752.02313 L355.927,744.005 z"/>
<path d="M355.927,744.005 L361.00223,763.51074 L366.2522,741.4125 z"/>
<path d="M318.04898,753.9419 L324.72043,735.87506 L310.99927,743.9007 z"/>
<path d="M203.79364,725.0284 L221.35326,729.9141 L218.59238,711.6 z"/>
<path d="M293.49307,752.3548 L297.91306,739.4959 L283.72186,744.6562 z"/>
<path d="M293.49307,752.3548 L310.99927,743.9007 L297.91306,739.4959 z"/>
<path d="M401.7866,750.0634 L394.8346,735.0044 L390.02866,738.53735 z"/>
<path d="M401.7866,750.0634 L406.6193,739.56024 L394.8346,735.0044 z"/>
<path d="M277.62903,754.31616 L276.23407,736.8135 L260.42535,735.91644 z"/>
<path d="M232.35654,736.63477 L238.66019,738.3984 L237.29736,736.5702 z"/>
<path d="M237.29736,736.5702 L238.66019,738.3984 L249.58377,731.512 z"/>
<path d="M221.35326,729.9141 L232.35654,736.63477 L225.07014,719.70544 z"/>
<path d="M369.95386,765.05664 L381.95322,748.3697 L366.2522,741.4125 z"/>
<path d="M396.37527,757.8812 L382.08554,748.3772 L382.5601,765.4683 z"/>
<path d="M381.95322,748.3697 L382.08554,748.3772 L388.18713,738.20514 z"/>
<path d="M185.82619,716.8894 L181.8739,693.07635 L175.36755,713.23834 z"/>
<path d="M202.33832,718.0555 L203.79364,725.0284 L203.71246,714.88586 z"/>
<path d="M225.89531,741.08527 L229.85442,741.37317 L232.35654,736.63477 z"/>
<path d="M181.8739,693.07635 L173.85349,693.13885 L175.36755,713.23834 z"/>
<path d="M252.16486,749.0608 L249.58377,731.512 L238.66019,738.3984 z"/>
<path d="M252.16486,749.0608 L277.62903,754.31616 L260.42535,735.91644 z"/>
<path d="M304.85672,776.3458 L318.92795,769.1608 L318.04898,753.9419 z"/>
<path d="M229.85442,741.37317 L238.66019,738.3984 L232.35654,736.63477 z"/>
<path d="M250.47835,752.2767 L252.16486,749.0608 L238.66019,738.3984 z"/>
<path d="M428.2704,740.62036 L420.0494,715.5433 L406.6193,739.56024 z"/>
<path d="M428.2704,740.62036 L424.48904,714.86584 L420.0494,715.5433 z"/>
<path d="M434.1972,716.954 L478.4,711.6 L422.23837,712.16907 z"/>
<path d="M175.36755,713.23834 L173.85349,693.13885 L167.73698,709.4709 z"/>
<path d="M225.89531,741.08527 L232.35654,736.63477 L221.35326,729.9141 z"/>
<path d="M225.89531,741.08527 L221.35326,729.9141 L215.12599,748.0822 z"/>
<path d="M283.5169,766.36755 L281.55728,757.4822 L279.35385,772.2826 z"/>
<path d="M277.62903,754.31616 L281.55728,757.4822 L283.72186,744.6562 z"/>
<path d="M329.76843,766.65515 L345.06808,765.2317 L331.6442,743.1773 z"/>
<path d="M203.22069,739.5685 L221.35326,729.9141 L203.79364,725.0284 z"/>
<path d="M239.84752,762.7254 L250.47835,752.2767 L238.66019,738.3984 z"/>
<path d="M382.08554,748.3772 L401.7866,750.0634 L390.02866,738.53735 z"/>
<path d="M396.37527,757.8812 L401.7866,750.0634 L382.08554,748.3772 z"/>
<path d="M361.00223,763.51074 L355.927,744.005 L351.4643,752.02313 z"/>
<path d="M415.0374,748.7226 L428.2704,740.62036 L406.6193,739.56024 z"/>
<path d="M162.39017,704.13696 L173.85349,693.13885 L169.26889,691.0771 z"/>
<path d="M185.82619,716.8894 L196.53621,734.3655 L203.79364,725.0284 z"/>
<path d="M252.16486,749.0608 L259.77942,769.8285 L277.62903,754.31616 z"/>
<path d="M239.84752,762.7254 L238.66019,738.3984 L229.85442,741.37317 z"/>
<path d="M283.5169,766.36755 L285.70834,761.42145 L281.55728,757.4822 z"/>
<path d="M281.55728,757.4822 L285.70834,761.42145 L293.49307,752.3548 z"/>
<path d="M156.05862,685.7536 L162.39017,704.13696 L169.26889,691.0771 z"/>
<path d="M465.91193,723.25616 L434.1972,716.954 L440.64474,730.7944 z"/>
<path d="M465.91193,723.25616 L478.4,711.6 L434.1972,716.954 z"/>
<path d="M162.39017,704.13696 L167.73698,709.4709 L173.85349,693.13885 z"/>
<path d="M175.36755,713.23834 L175.9738,719.4564 L185.82619,716.8894 z"/>
<path d="M401.7866,750.0634 L415.0374,748.7226 L406.6193,739.56024 z"/>
<path d="M458.40823,732.7329 L465.91193,723.25616 L440.64474,730.7944 z"/>
<path d="M329.76843,766.65515 L331.6442,743.1773 L318.04898,753.9419 z"/>
<path d="M401.7866,750.0634 L410.4744,764.68085 L415.0374,748.7226 z"/>
<path d="M345.06808,765.2317 L361.00223,763.51074 L351.4643,752.02313 z"/>
<path d="M318.92795,769.1608 L329.76843,766.65515 L318.04898,753.9419 z"/>
<path d="M329.76843,766.65515 L344.142,766.14594 L345.06808,765.2317 z"/>
<path d="M345.06808,765.2317 L344.142,766.14594 L361.00223,763.51074 z"/>
<path d="M458.40823,732.7329 L440.64474,730.7944 L448.14706,742.9948 z"/>
<path d="M382.5601,765.4683 L382.08554,748.3772 L381.95322,748.3697 z"/>
<path d="M164.49968,720.61725 L175.36755,713.23834 L167.73698,709.4709 z"/>
<path d="M164.49968,720.61725 L175.9738,719.4564 L175.36755,713.23834 z"/>
<path d="M225.89531,741.08527 L224.01782,757.7472 L229.85442,741.37317 z"/>
<path d="M371.52283,778.48834 L369.95386,765.05664 L361.00223,763.51074 z"/>
<path d="M361.00223,763.51074 L369.95386,765.05664 L366.2522,741.4125 z"/>
<path d="M304.85672,776.3458 L318.04898,753.9419 L293.49307,752.3548 z"/>
<path d="M329.76843,766.65515 L329.73434,777.027 L344.142,766.14594 z"/>
<path d="M381.9577,767.52625 L382.5601,765.4683 L369.95386,765.05664 z"/>
<path d="M184.82617,736.6131 L196.53621,734.3655 L185.82619,716.8894 z"/>
<path d="M279.35385,772.2826 L281.55728,757.4822 L277.62903,754.31616 z"/>
<path d="M285.70834,761.42145 L304.85672,776.3458 L293.49307,752.3548 z"/>
<path d="M279.35385,772.2826 L277.62903,754.31616 L259.77942,769.8285 z"/>
<path d="M175.9738,719.4564 L174.71579,726.53827 L185.82619,716.8894 z"/>
<path d="M162.39017,704.13696 L162.11487,710.496 L167.73698,709.4709 z"/>
<path d="M153.21904,716.61676 L162.11487,710.496 L162.39017,704.13696 z"/>
<path d="M190.97841,742.87036 L203.22069,739.5685 L196.53621,734.3655 z"/>
<path d="M196.53621,734.3655 L203.22069,739.5685 L203.79364,725.0284 z"/>
<path d="M448.14706,742.9948 L428.2704,740.62036 L441.39734,752.49506 z"/>
<path d="M448.14706,742.9948 L440.64474,730.7944 L428.2704,740.62036 z"/>
<path d="M475.71198,730.32574 L483.72705,714.84314 L478.4,711.6 z"/>
<path d="M475.71198,730.32574 L478.4,711.6 L465.91193,723.25616 z"/>
<path d="M381.9577,767.52625 L371.52283,778.48834 L385.3106,772.2725 z"/>
<path d="M369.95386,765.05664 L382.5601,765.4683 L381.95322,748.3697 z"/>
<path d="M451.18887,744.45233 L448.14706,742.9948 L441.39734,752.49506 z"/>
<path d="M216.43304,753.0404 L208.70047,756.5479 L210.06912,757.1156 z"/>
<path d="M203.22069,739.5685 L215.12599,748.0822 L221.35326,729.9141 z"/>
<path d="M371.52283,778.48834 L361.00223,763.51074 L344.142,766.14594 z"/>
<path d="M382.5601,765.4683 L394.91855,766.1816 L396.37527,757.8812 z"/>
<path d="M410.4744,764.68085 L401.7866,750.0634 L396.37527,757.8812 z"/>
<path d="M458.40823,732.7329 L475.71198,730.32574 L465.91193,723.25616 z"/>
<path d="M164.49968,720.61725 L174.71579,726.53827 L175.9738,719.4564 z"/>
<path d="M324.33008,776.21783 L325.09412,774.8694 L318.92795,769.1608 z"/>
<path d="M318.92795,769.1608 L325.09412,774.8694 L329.76843,766.65515 z"/>
<path d="M391.09604,769.92926 L394.91855,766.1816 L382.5601,765.4683 z"/>
<path d="M391.09604,769.92926 L382.5601,765.4683 L385.3106,772.2725 z"/>
<path d="M153.21904,716.61676 L164.49968,720.61725 L162.11487,710.496 z"/>
<path d="M162.11487,710.496 L164.49968,720.61725 L167.73698,709.4709 z"/>
<path d="M323.4481,780.882 L324.33008,776.21783 L318.92795,769.1608 z"/>
<path d="M325.09412,774.8694 L329.73434,777.027 L329.76843,766.65515 z"/>
<path d="M259.77942,769.8285 L252.16486,749.0608 L250.47835,752.2767 z"/>
<path d="M283.5169,766.36755 L304.85672,776.3458 L285.70834,761.42145 z"/>
<path d="M174.71579,726.53827 L178.58034,731.59595 L185.82619,716.8894 z"/>
<path d="M171.70839,735.51447 L178.58034,731.59595 L174.71579,726.53827 z"/>
<path d="M216.43304,753.0404 L215.12599,748.0822 L208.70047,756.5479 z"/>
<path d="M215.12599,748.0822 L216.43304,753.0404 L225.89531,741.08527 z"/>
<path d="M226.61197,760.8554 L239.84752,762.7254 L229.85442,741.37317 z"/>
<path d="M327.2281,778.5345 L325.09412,774.8694 L324.33008,776.21783 z"/>
<path d="M327.2281,778.5345 L329.73434,777.027 L325.09412,774.8694 z"/>
<path d="M279.35385,772.2826 L304.85672,776.3458 L283.5169,766.36755 z"/>
<path d="M432.02917,754.13403 L428.2704,740.62036 L415.0374,748.7226 z"/>
<path d="M448.14706,742.9948 L451.18887,744.45233 L458.40823,732.7329 z"/>
<path d="M410.4744,764.68085 L432.02917,754.13403 L415.0374,748.7226 z"/>
<path d="M243.43102,765.64166 L254.23343,767.6183 L250.47835,752.2767 z"/>
<path d="M178.58034,731.59595 L184.82617,736.6131 L185.82619,716.8894 z"/>
<path d="M190.97841,742.87036 L184.82617,736.6131 L179.994,740.3999 z"/>
<path d="M216.43304,753.0404 L224.01782,757.7472 L225.89531,741.08527 z"/>
<path d="M259.0062,775.0258 L259.77942,769.8285 L254.23343,767.6183 z"/>
<path d="M226.61197,760.8554 L224.01782,757.7472 L218.60738,765.1903 z"/>
<path d="M243.43102,765.64166 L250.47835,752.2767 L239.84752,762.7254 z"/>
<path d="M254.23343,767.6183 L259.77942,769.8285 L250.47835,752.2767 z"/>
<path d="M248.49619,780.882 L323.4481,780.882 L304.85672,776.3458 z"/>
<path d="M477.33746,733.73676 L475.71198,730.32574 L458.40823,732.7329 z"/>
<path d="M385.3106,772.2725 L382.5601,765.4683 L381.9577,767.52625 z"/>
<path d="M394.91855,766.1816 L410.4744,764.68085 L396.37527,757.8812 z"/>
<path d="M325.10297,778.774 L327.2281,778.5345 L324.33008,776.21783 z"/>
<path d="M329.73434,777.027 L331.13235,779.025 L344.142,766.14594 z"/>
<path d="M240.97357,770.47516 L243.43102,765.64166 L239.84752,762.7254 z"/>
<path d="M323.4481,780.882 L325.10297,778.774 L324.33008,776.21783 z"/>
<path d="M411.41287,771.53516 L410.4744,764.68085 L394.91855,766.1816 z"/>
<path d="M323.4481,780.882 L331.13235,779.025 L327.2281,778.5345 z"/>
<path d="M327.2281,778.5345 L331.13235,779.025 L329.73434,777.027 z"/>
<path d="M371.52283,778.48834 L381.9577,767.52625 L369.95386,765.05664 z"/>
<path d="M398.4,780.882 L411.41287,771.53516 L394.91855,766.1816 z"/>
<path d="M179.994,740.3999 L184.82617,736.6131 L178.58034,731.59595 z"/>
<path d="M184.82617,736.6131 L190.97841,742.87036 L196.53621,734.3655 z"/>
<path d="M475.71198,730.32574 L487.9689,722.8265 L483.72705,714.84314 z"/>
<path d="M483.72705,714.84314 L515.12103,717.19885 L478.4,711.6 z"/>
<path d="M444.74268,757.52576 L441.39734,752.49506 L432.02917,754.13403 z"/>
<path d="M432.02917,754.13403 L441.39734,752.49506 L428.2704,740.62036 z"/>
<path d="M463.068,746.22656 L477.33746,733.73676 L458.40823,732.7329 z"/>
<path d="M475.71198,730.32574 L477.33746,733.73676 L487.9689,722.8265 z"/>
<path d="M218.60738,765.1903 L224.01782,757.7472 L216.43304,753.0404 z"/>
<path d="M224.01782,757.7472 L226.61197,760.8554 L229.85442,741.37317 z"/>
<path d="M164.49968,720.61725 L165.21402,726.81964 L174.71579,726.53827 z"/>
<path d="M156.05862,685.7536 L153.21904,716.61676 L162.39017,704.13696 z"/>
<path d="M153.21904,716.61676 L165.21402,726.81964 L164.49968,720.61725 z"/>
<path d="M325.10297,778.774 L323.4481,780.882 L327.2281,778.5345 z"/>
<path d="M331.13235,779.025 L371.52283,778.48834 L344.142,766.14594 z"/>
<path d="M304.85672,776.3458 L323.4481,780.882 L318.92795,769.1608 z"/>
<path d="M248.49619,780.882 L304.85672,776.3458 L279.35385,772.2826 z"/>
<path d="M243.43102,765.64166 L246.49942,770.18243 L254.23343,767.6183 z"/>
<path d="M259.77942,769.8285 L259.0062,775.0258 L279.35385,772.2826 z"/>
<path d="M240.97357,770.47516 L246.49942,770.18243 L243.43102,765.64166 z"/>
<path d="M463.068,746.22656 L458.40823,732.7329 L451.18887,744.45233 z"/>
<path d="M323.4481,780.882 L371.52283,778.48834 L331.13235,779.025 z"/>
<path d="M415.93124,774.3873 L411.41287,771.53516 L398.4,780.882 z"/>
<path d="M208.70047,756.5479 L203.22069,739.5685 L190.97841,742.87036 z"/>
<path d="M208.70047,756.5479 L215.12599,748.0822 L203.22069,739.5685 z"/>
<path d="M226.61197,760.8554 L230.9326,766.56793 L239.84752,762.7254 z"/>
<path d="M202.71608,765.8877 L208.70047,756.5479 L192.3602,762.8433 z"/>
<path d="M171.70839,735.51447 L174.71579,726.53827 L165.21402,726.81964 z"/>
<path d="M175.18779,738.2773 L179.994,740.3999 L178.58034,731.59595 z"/>
<path d="M248.49619,780.882 L259.0062,775.0258 L246.49942,770.18243 z"/>
<path d="M246.49942,770.18243 L259.0062,775.0258 L254.23343,767.6183 z"/>
<path d="M218.60738,765.1903 L230.9326,766.56793 L226.61197,760.8554 z"/>
<path d="M218.60738,765.1903 L216.43304,753.0404 L210.06912,757.1156 z"/>
<path d="M167.17531,754.68427 L171.70839,735.51447 L147.00305,747.67377 z"/>
<path d="M230.9326,766.56793 L240.97357,770.47516 L239.84752,762.7254 z"/>
<path d="M171.70839,735.51447 L175.18779,738.2773 L178.58034,731.59595 z"/>
<path d="M217.0159,769.59717 L210.06912,757.1156 L202.71608,765.8877 z"/>
<path d="M444.74268,757.52576 L451.18887,744.45233 L441.39734,752.49506 z"/>
<path d="M463.72116,748.233 L463.068,746.22656 L451.18887,744.45233 z"/>
<path d="M444.74268,757.52576 L432.02917,754.13403 L442.9968,767.0208 z"/>
<path d="M422.0339,775.84814 L432.02917,754.13403 L410.4744,764.68085 z"/>
<path d="M394.91855,766.1816 L391.09604,769.92926 L398.4,780.882 z"/>
<path d="M462.74088,759.0782 L463.72116,748.233 L451.18887,744.45233 z"/>
<path d="M463.068,746.22656 L463.72116,748.233 L477.33746,733.73676 z"/>
<path d="M505.1315,738.3884 L499.04547,724.52625 L487.9689,722.8265 z"/>
<path d="M217.0159,769.59717 L218.60738,765.1903 L210.06912,757.1156 z"/>
<path d="M219.85962,779.0765 L248.49619,780.882 L240.97357,770.47516 z"/>
<path d="M240.97357,770.47516 L248.49619,780.882 L246.49942,770.18243 z"/>
<path d="M179.29562,744.4547 L190.97841,742.87036 L179.994,740.3999 z"/>
<path d="M167.17531,754.68427 L179.29562,744.4547 L175.18779,738.2773 z"/>
<path d="M175.18779,738.2773 L179.29562,744.4547 L179.994,740.3999 z"/>
<path d="M184.64307,756.41174 L179.29562,744.4547 L167.17531,754.68427 z"/>
<path d="M503.3632,728.42377 L499.04547,724.52625 L505.1315,738.3884 z"/>
<path d="M487.9689,722.8265 L499.04547,724.52625 L483.72705,714.84314 z"/>
<path d="M462.74088,759.0782 L465.9704,754.7339 L463.72116,748.233 z"/>
<path d="M411.41287,771.53516 L415.93124,774.3873 L410.4744,764.68085 z"/>
<path d="M398.4,780.882 L391.09604,769.92926 L385.3106,772.2725 z"/>
<path d="M371.52283,778.48834 L398.4,780.882 L385.3106,772.2725 z"/>
<path d="M323.4481,780.882 L398.4,780.882 L371.52283,778.48834 z"/>
<path d="M217.22266,771.45496 L217.0159,769.59717 L202.44351,773.551 z"/>
<path d="M218.60738,765.1903 L217.22266,771.45496 L230.9326,766.56793 z"/>
<path d="M398.4,780.882 L418.32098,775.2774 L415.93124,774.3873 z"/>
<path d="M415.93124,774.3873 L418.32098,775.2774 L410.4744,764.68085 z"/>
<path d="M219.85962,779.0765 L240.97357,770.47516 L230.9326,766.56793 z"/>
<path d="M259.0062,775.0258 L248.49619,780.882 L279.35385,772.2826 z"/>
<path d="M153.21904,716.61676 L137.23273,728.8237 L165.21402,726.81964 z"/>
<path d="M202.71608,765.8877 L210.06912,757.1156 L208.70047,756.5479 z"/>
<path d="M156.05862,685.7536 L139.75143,720.6711 L153.21904,716.61676 z"/>
<path d="M503.3632,728.42377 L515.12103,717.19885 L499.04547,724.52625 z"/>
<path d="M499.04547,724.52625 L515.12103,717.19885 L483.72705,714.84314 z"/>
<path d="M208.70047,756.5479 L190.97841,742.87036 L192.3602,762.8433 z"/>
<path d="M217.0159,769.59717 L217.22266,771.45496 L218.60738,765.1903 z"/>
<path d="M462.74088,759.0782 L451.18887,744.45233 L444.74268,757.52576 z"/>
<path d="M463.72116,748.233 L468.71512,756.2571 L477.33746,733.73676 z"/>
<path d="M422.75,776.52124 L422.0339,775.84814 L418.32098,775.2774 z"/>
<path d="M418.32098,775.2774 L422.0339,775.84814 L410.4744,764.68085 z"/>
<path d="M422.0339,775.84814 L442.9968,767.0208 L432.02917,754.13403 z"/>
<path d="M505.1315,738.3884 L487.9689,722.8265 L477.33746,733.73676 z"/>
<path d="M184.64307,756.41174 L190.97841,742.87036 L179.29562,744.4547 z"/>
<path d="M398.4,780.882 L422.75,776.52124 L418.32098,775.2774 z"/>
<path d="M422.0339,775.84814 L422.75,776.52124 L442.9968,767.0208 z"/>
<path d="M167.17531,754.68427 L175.18779,738.2773 L171.70839,735.51447 z"/>
<path d="M455.47507,767.7832 L444.74268,757.52576 L442.9968,767.0208 z"/>
<path d="M455.47507,767.7832 L462.74088,759.0782 L444.74268,757.52576 z"/>
<path d="M465.9704,754.7339 L468.71512,756.2571 L463.72116,748.233 z"/>
<path d="M462.74088,759.0782 L468.71512,756.2571 L465.9704,754.7339 z"/>
<path d="M202.44351,773.551 L192.3602,762.8433 L173.54428,780.882 z"/>
<path d="M184.64307,756.41174 L192.3602,762.8433 L190.97841,742.87036 z"/>
<path d="M202.44351,773.551 L219.85962,779.0765 L217.22266,771.45496 z"/>
<path d="M139.75143,720.6711 L137.38202,726.23627 L153.21904,716.61676 z"/>
<path d="M202.44351,773.551 L217.0159,769.59717 L202.71608,765.8877 z"/>
<path d="M217.22266,771.45496 L219.85962,779.0765 L230.9326,766.56793 z"/>
<path d="M505.1315,738.3884 L511.12125,729.45056 L503.3632,728.42377 z"/>
<path d="M503.3632,728.42377 L511.12125,729.45056 L515.12103,717.19885 z"/>
<path d="M462.74088,759.0782 L470.229,763.9491 L468.71512,756.2571 z"/>
<path d="M504.83875,741.9122 L505.1315,738.3884 L477.33746,733.73676 z"/>
<path d="M462.7715,779.4385 L455.47507,767.7832 L442.9968,767.0208 z"/>
<path d="M137.38202,726.23627 L137.23273,728.8237 L153.21904,716.61676 z"/>
<path d="M171.70839,735.51447 L165.21402,726.81964 L147.00305,747.67377 z"/>
<path d="M177.15869,766.3614 L192.3602,762.8433 L184.64307,756.41174 z"/>
<path d="M192.3602,762.8433 L202.44351,773.551 L202.71608,765.8877 z"/>
<path d="M177.15869,766.3614 L167.17531,754.68427 L172.28801,766.406 z"/>
<path d="M504.83875,741.9122 L477.33746,733.73676 L490.63824,757.7788 z"/>
<path d="M463.31674,768.75946 L462.74088,759.0782 L455.47507,767.7832 z"/>
<path d="M463.31674,768.75946 L470.229,763.9491 L462.74088,759.0782 z"/>
<path d="M462.7715,779.4385 L463.31674,768.75946 L455.47507,767.7832 z"/>
<path d="M520.68164,730.02734 L515.12103,717.19885 L511.12125,729.45056 z"/>
<path d="M520.68164,730.02734 L525.6957,722.58405 L515.12103,717.19885 z"/>
<path d="M515.12103,717.19885 L543.3519,711.6 L478.4,711.6 z"/>
<path d="M525.6957,722.58405 L531.1898,717.7015 L515.12103,717.19885 z"/>
<path d="M522.8267,734.0581 L520.68164,730.02734 L511.12125,729.45056 z"/>
<path d="M525.6957,722.58405 L532.4803,718.5575 L531.1898,717.7015 z"/>
<path d="M490.63824,757.7788 L477.33746,733.73676 L468.71512,756.2571 z"/>
<path d="M478.6973,762.5444 L468.71512,756.2571 L470.229,763.9491 z"/>
<path d="M521.2898,740.686 L511.12125,729.45056 L505.1315,738.3884 z"/>
<path d="M534.7183,730.63434 L532.4803,718.5575 L525.6957,722.58405 z"/>
<path d="M531.1898,717.7015 L543.3519,711.6 L515.12103,717.19885 z"/>
<path d="M475.54562,766.649 L478.6973,762.5444 L470.229,763.9491 z"/>
<path d="M504.83875,741.9122 L506.93655,742.92847 L505.1315,738.3884 z"/>
<path d="M147.00305,747.67377 L165.21402,726.81964 L137.23273,728.8237 z"/>
<path d="M167.17531,754.68427 L177.15869,766.3614 L184.64307,756.41174 z"/>
<path d="M202.44351,773.551 L173.54428,780.882 L219.85962,779.0765 z"/>
<path d="M502.03018,754.9828 L506.93655,742.92847 L504.83875,741.9122 z"/>
<path d="M135.01875,748.6874 L147.00305,747.67377 L137.23273,728.8237 z"/>
<path d="M463.31674,768.75946 L475.54562,766.649 L470.229,763.9491 z"/>
<path d="M478.6973,762.5444 L490.63824,757.7788 L468.71512,756.2571 z"/>
<path d="M473.3519,780.882 L475.54562,766.649 L463.31674,768.75946 z"/>
<path d="M159.17595,764.72424 L172.28801,766.406 L167.17531,754.68427 z"/>
<path d="M177.15869,766.3614 L173.54428,780.882 L192.3602,762.8433 z"/>
<path d="M475.54562,766.649 L490.63824,757.7788 L478.6973,762.5444 z"/>
<path d="M522.8267,734.0581 L511.12125,729.45056 L521.2898,740.686 z"/>
<path d="M527.6412,734.02246 L525.6957,722.58405 L520.68164,730.02734 z"/>
<path d="M534.7183,730.63434 L543.3519,711.6 L532.4803,718.5575 z"/>
<path d="M532.4803,718.5575 L543.3519,711.6 L531.1898,717.7015 z"/>
<path d="M527.6412,734.02246 L522.8267,734.0581 L521.2898,740.686 z"/>
<path d="M422.75,776.52124 L462.7715,779.4385 L442.9968,767.0208 z"/>
<path d="M499.19916,758.177 L502.03018,754.9828 L490.63824,757.7788 z"/>
<path d="M490.63824,757.7788 L502.03018,754.9828 L504.83875,741.9122 z"/>
<path d="M398.4,780.882 L462.7715,779.4385 L422.75,776.52124 z"/>
<path d="M499.19916,758.177 L490.63824,757.7788 L510.1362,774.0576 z"/>
<path d="M521.2898,740.686 L505.1315,738.3884 L506.93655,742.92847 z"/>
<path d="M522.8267,734.0581 L527.6412,734.02246 L520.68164,730.02734 z"/>
<path d="M128.5669,730.3894 L128.27687,739.8965 L137.23273,728.8237 z"/>
<path d="M148.46957,757.7291 L159.17595,764.72424 L167.17531,754.68427 z"/>
<path d="M473.3519,780.882 L490.63824,757.7788 L475.54562,766.649 z"/>
<path d="M517.97363,750.2758 L521.2898,740.686 L506.93655,742.92847 z"/>
<path d="M517.97363,750.2758 L506.93655,742.92847 L502.03018,754.9828 z"/>
<path d="M148.46957,757.7291 L167.17531,754.68427 L147.00305,747.67377 z"/>
<path d="M172.28801,766.406 L173.54428,780.882 L177.15869,766.3614 z"/>
<path d="M140.74533,754.9078 L148.46957,757.7291 L147.00305,747.67377 z"/>
<path d="M135.01875,748.6874 L139.37979,751.2294 L147.00305,747.67377 z"/>
<path d="M128.27687,739.8965 L135.01875,748.6874 L137.23273,728.8237 z"/>
<path d="M139.37979,751.2294 L140.74533,754.9078 L147.00305,747.67377 z"/>
<path d="M537.0216,732.6929 L527.6412,734.02246 L525.3347,754.5832 z"/>
<path d="M537.0216,732.6929 L534.7183,730.63434 L527.6412,734.02246 z"/>
<path d="M527.6412,734.02246 L534.7183,730.63434 L525.6957,722.58405 z"/>
<path d="M135.01875,748.6874 L140.74533,754.9078 L139.37979,751.2294 z"/>
<path d="M148.46957,757.7291 L156.6827,770.4273 L159.17595,764.72424 z"/>
<path d="M128.27687,739.8965 L127.23844,744.4579 L135.01875,748.6874 z"/>
<path d="M135.01875,748.6874 L125.56028,760.6848 L140.74533,754.9078 z"/>
<path d="M116.800705,749.8022 L127.23844,744.4579 L128.27687,739.8965 z"/>
<path d="M525.3347,754.5832 L527.6412,734.02246 L521.2898,740.686 z"/>
<path d="M534.7183,730.63434 L537.0216,732.6929 L543.3519,711.6 z"/>
<path d="M398.4,780.882 L473.3519,780.882 L462.7715,779.4385 z"/>
<path d="M462.7715,779.4385 L473.3519,780.882 L463.31674,768.75946 z"/>
<path d="M525.3347,754.5832 L517.97363,750.2758 L517.5009,769.5097 z"/>
<path d="M517.97363,750.2758 L502.03018,754.9828 L517.5009,769.5097 z"/>
<path d="M159.43567,779.29004 L156.6827,770.4273 L153.30548,777.5547 z"/>
<path d="M153.30548,777.5547 L156.6827,770.4273 L148.46957,757.7291 z"/>
<path d="M159.17595,764.72424 L156.6827,770.4273 L172.28801,766.406 z"/>
<path d="M159.43567,779.29004 L173.54428,780.882 L172.28801,766.406 z"/>
<path d="M219.85962,779.0765 L173.54428,780.882 L248.49619,780.882 z"/>
<path d="M153.30548,777.5547 L148.46957,757.7291 L130.61765,767.7273 z"/>
<path d="M156.6827,770.4273 L159.43567,779.29004 L172.28801,766.406 z"/>
<path d="M510.1362,774.0576 L502.03018,754.9828 L499.19916,758.177 z"/>
<path d="M517.97363,750.2758 L525.3347,754.5832 L521.2898,740.686 z"/>
<path d="M130.61765,767.7273 L148.46957,757.7291 L140.74533,754.9078 z"/>
<path d="M128.5669,730.3894 L116.800705,749.8022 L128.27687,739.8965 z"/>
<path d="M127.23844,744.4579 L125.56028,760.6848 L135.01875,748.6874 z"/>
<path d="M546.5337,753.37134 L549.2479,735.46906 L537.0216,732.6929 z"/>
<path d="M537.0216,732.6929 L549.2479,735.46906 L543.3519,711.6 z"/>
<path d="M116.800705,749.8022 L125.56028,760.6848 L127.23844,744.4579 z"/>
<path d="M554.4153,733.5286 L571.08997,713.9288 L543.3519,711.6 z"/>
<path d="M553.9646,746.94885 L554.4153,733.5286 L549.2479,735.46906 z"/>
<path d="M549.2479,735.46906 L554.4153,733.5286 L543.3519,711.6 z"/>
<path d="M473.3519,780.882 L510.1362,774.0576 L490.63824,757.7788 z"/>
<path d="M525.3347,754.5832 L546.5337,753.37134 L537.0216,732.6929 z"/>
<path d="M128.1759,772.4199 L130.61765,767.7273 L125.56028,760.6848 z"/>
<path d="M125.56028,760.6848 L130.61765,767.7273 L140.74533,754.9078 z"/>
<path d="M510.1362,774.0576 L517.5009,769.5097 L502.03018,754.9828 z"/>
<path d="M116.800705,749.8022 L114.853516,755.7898 L125.56028,760.6848 z"/>
<path d="M473.3519,780.882 L510.48053,775.4254 L510.1362,774.0576 z"/>
<path d="M510.1362,774.0576 L516.95575,777.9028 L517.5009,769.5097 z"/>
<path d="M121.04566,775.33777 L128.1759,772.4199 L125.56028,760.6848 z"/>
<path d="M130.61765,767.7273 L128.1759,772.4199 L153.30548,777.5547 z"/>
<path d="M153.30548,777.5547 L98.59238,780.882 L159.43567,779.29004 z"/>
<path d="M523.3024,774.2555 L526.6479,768.40466 L517.5009,769.5097 z"/>
<path d="M517.5009,769.5097 L526.6479,768.40466 L525.3347,754.5832 z"/>
<path d="M554.4153,733.5286 L578.7464,737.72723 L571.08997,713.9288 z"/>
<path d="M473.3519,780.882 L516.95575,777.9028 L510.48053,775.4254 z"/>
<path d="M510.48053,775.4254 L516.95575,777.9028 L510.1362,774.0576 z"/>
<path d="M545.1942,755.2021 L525.3347,754.5832 L538.29456,763.3495 z"/>
<path d="M545.1942,755.2021 L546.5337,753.37134 L525.3347,754.5832 z"/>
<path d="M538.29456,763.3495 L525.3347,754.5832 L526.6479,768.40466 z"/>
<path d="M555.5761,752.9677 L553.9646,746.94885 L546.5337,753.37134 z"/>
<path d="M546.5337,753.37134 L553.9646,746.94885 L549.2479,735.46906 z"/>
<path d="M516.95575,777.9028 L523.3024,774.2555 L517.5009,769.5097 z"/>
<path d="M536.6589,768.02826 L538.29456,763.3495 L526.6479,768.40466 z"/>
<path d="M552.90515,764.68195 L555.5761,752.9677 L546.5337,753.37134 z"/>
<path d="M531.61597,775.95593 L526.6479,768.40466 L523.3024,774.2555 z"/>
<path d="M531.61597,775.95593 L536.6589,768.02826 L526.6479,768.40466 z"/>
<path d="M552.90515,764.68195 L546.5337,753.37134 L545.1942,755.2021 z"/>
<path d="M114.853516,755.7898 L121.04566,775.33777 L125.56028,760.6848 z"/>
<path d="M128.1759,772.4199 L121.04566,775.33777 L153.30548,777.5547 z"/>
<path d="M159.43567,779.29004 L98.59238,780.882 L173.54428,780.882 z"/>
<path d="M546.6382,767.49695 L545.1942,755.2021 L538.29456,763.3495 z"/>
<path d="M553.9646,746.94885 L563.40436,748.15247 L554.4153,733.5286 z"/>
<path d="M516.95575,777.9028 L531.61597,775.95593 L523.3024,774.2555 z"/>
<path d="M544.28046,771.29944 L546.6382,767.49695 L538.29456,763.3495 z"/>
<path d="M560.9725,757.27435 L563.40436,748.15247 L555.5761,752.9677 z"/>
<path d="M555.5761,752.9677 L563.40436,748.15247 L553.9646,746.94885 z"/>
<path d="M578.7464,737.72723 L588.70905,719.5956 L571.08997,713.9288 z"/>
<path d="M544.28046,771.29944 L538.29456,763.3495 L536.6589,768.02826 z"/>
<path d="M563.40436,748.15247 L578.7464,737.72723 L554.4153,733.5286 z"/>
<path d="M541.32513,779.2887 L544.28046,771.29944 L536.6589,768.02826 z"/>
<path d="M587.4192,740.6961 L578.7464,737.72723 L588.6138,755.7871 z"/>
<path d="M552.90515,764.68195 L545.1942,755.2021 L546.6382,767.49695 z"/>
<path d="M545.915,771.7929 L552.90515,764.68195 L546.6382,767.49695 z"/>
<path d="M552.90515,764.68195 L560.9725,757.27435 L555.5761,752.9677 z"/>
<path d="M544.28046,771.29944 L545.915,771.7929 L546.6382,767.49695 z"/>
<path d="M552.90515,764.68195 L559.9806,765.71277 L560.9725,757.27435 z"/>
<path d="M541.32513,779.2887 L545.915,771.7929 L544.28046,771.29944 z"/>
<path d="M516.95575,777.9028 L541.32513,779.2887 L531.61597,775.95593 z"/>
<path d="M531.61597,775.95593 L541.32513,779.2887 L536.6589,768.02826 z"/>
<path d="M554.8532,779.77057 L559.9806,765.71277 L552.90515,764.68195 z"/>
<path d="M575.5384,761.2853 L578.7464,737.72723 L563.40436,748.15247 z"/>
<path d="M548.30383,780.882 L541.32513,779.2887 L516.95575,777.9028 z"/>
<path d="M551.6348,779.2501 L552.90515,764.68195 L545.915,771.7929 z"/>
<path d="M613.919,714.3048 L608.30383,711.6 L620.58405,729.39777 z"/>
<path d="M588.70905,719.5956 L608.30383,711.6 L571.08997,713.9288 z"/>
<path d="M587.4192,740.6961 L588.70905,719.5956 L578.7464,737.72723 z"/>
<path d="M575.5384,761.2853 L563.40436,748.15247 L560.9725,757.27435 z"/>
<path d="M541.32513,779.2887 L548.30383,780.882 L545.915,771.7929 z"/>
<path d="M559.9806,765.71277 L574.9227,761.84674 L560.9725,757.27435 z"/>
<path d="M473.3519,780.882 L548.30383,780.882 L516.95575,777.9028 z"/>
<path d="M548.30383,780.882 L551.6348,779.2501 L545.915,771.7929 z"/>
<path d="M116.800705,749.8022 L98.59238,780.882 L114.853516,755.7898 z"/>
<path d="M114.853516,755.7898 L98.59238,780.882 L121.04566,775.33777 z"/>
<path d="M121.04566,775.33777 L98.59238,780.882 L153.30548,777.5547 z"/>
<path d="M548.30383,780.882 L554.8532,779.77057 L551.6348,779.2501 z"/>
<path d="M551.6348,779.2501 L554.8532,779.77057 L552.90515,764.68195 z"/>
<path d="M579.0837,779.1262 L574.9227,761.84674 L559.9806,765.71277 z"/>
<path d="M620.58405,729.39777 L608.30383,711.6 L588.70905,719.5956 z"/>
<path d="M606.64026,746.89264 L588.70905,719.5956 L587.4192,740.6961 z"/>
<path d="M574.9227,761.84674 L575.5384,761.2853 L560.9725,757.27435 z"/>
<path d="M594.06805,760.4322 L575.5384,761.2853 L579.0837,779.1262 z"/>
<path d="M594.06805,760.4322 L588.6138,755.7871 L575.5384,761.2853 z"/>
<path d="M575.5384,761.2853 L588.6138,755.7871 L578.7464,737.72723 z"/>
<path d="M579.0837,779.1262 L575.5384,761.2853 L574.9227,761.84674 z"/>
<path d="M588.6138,755.7871 L606.64026,746.89264 L587.4192,740.6961 z"/>
<path d="M594.06805,760.4322 L606.64026,746.89264 L588.6138,755.7871 z"/>
<path d="M620.58405,729.39777 L622.4355,726.1867 L613.919,714.3048 z"/>
<path d="M613.919,714.3048 L631.09125,716.8223 L608.30383,711.6 z"/>
<path d="M606.64026,746.89264 L620.58405,729.39777 L588.70905,719.5956 z"/>
<path d="M622.69476,757.8075 L612.7567,744.9681 L606.64026,746.89264 z"/>
<path d="M554.8532,779.77057 L579.0837,779.1262 L559.9806,765.71277 z"/>
<path d="M548.30383,780.882 L579.0837,779.1262 L554.8532,779.77057 z"/>
<path d="M635.1424,718.0319 L622.4355,726.1867 L628.3293,735.3971 z"/>
<path d="M635.1424,718.0319 L631.09125,716.8223 L622.4355,726.1867 z"/>
<path d="M622.4355,726.1867 L631.09125,716.8223 L613.919,714.3048 z"/>
<path d="M598.12665,766.4906 L606.64026,746.89264 L594.06805,760.4322 z"/>
<path d="M606.64026,746.89264 L612.7567,744.9681 L620.58405,729.39777 z"/>
<path d="M628.3293,735.3971 L622.4355,726.1867 L620.58405,729.39777 z"/>
<path d="M631.09125,716.8223 L652.64435,714.7771 L608.30383,711.6 z"/>
<path d="M579.0837,779.1262 L598.12665,766.4906 L594.06805,760.4322 z"/>
<path d="M612.7567,744.9681 L628.3293,735.3971 L620.58405,729.39777 z"/>
<path d="M627.76514,744.1772 L628.3293,735.3971 L612.7567,744.9681 z"/>
<path d="M628.86194,747.8807 L627.76514,744.1772 L612.7567,744.9681 z"/>
<path d="M646.53796,732.85834 L647.9186,722.9881 L635.1424,718.0319 z"/>
<path d="M628.86194,747.8807 L632.28204,741.91077 L627.76514,744.1772 z"/>
<path d="M627.76514,744.1772 L632.28204,741.91077 L628.3293,735.3971 z"/>
<path d="M622.69476,757.8075 L628.86194,747.8807 L612.7567,744.9681 z"/>
<path d="M622.69476,757.8075 L606.64026,746.89264 L618.7598,767.7318 z"/>
<path d="M635.1424,718.0319 L628.3293,735.3971 L646.53796,732.85834 z"/>
<path d="M647.9186,722.9881 L652.64435,714.7771 L635.1424,718.0319 z"/>
<path d="M635.1424,718.0319 L652.64435,714.7771 L631.09125,716.8223 z"/>
<path d="M618.7598,767.7318 L606.64026,746.89264 L598.12665,766.4906 z"/>
<path d="M646.53796,732.85834 L628.3293,735.3971 L645.4233,736.60236 z"/>
<path d="M628.3293,735.3971 L632.28204,741.91077 L645.4233,736.60236 z"/>
<path d="M623.25574,780.882 L618.7598,767.7318 L598.12665,766.4906 z"/>
<path d="M645.4233,736.60236 L632.28204,741.91077 L652.5073,740.1805 z"/>
<path d="M632.28204,741.91077 L628.86194,747.8807 L652.5073,740.1805 z"/>
<path d="M647.9186,722.9881 L654.34247,729.20886 L652.64435,714.7771 z"/>
<path d="M652.5073,740.1805 L649.09955,730.5339 L646.53796,732.85834 z"/>
<path d="M646.53796,732.85834 L649.09955,730.5339 L647.9186,722.9881 z"/>
<path d="M649.78625,777.6598 L628.86194,747.8807 L622.69476,757.8075 z"/>
<path d="M623.25574,780.882 L622.98663,768.807 L618.7598,767.7318 z"/>
<path d="M618.7598,767.7318 L622.98663,768.807 L622.69476,757.8075 z"/>
<path d="M652.5073,740.1805 L646.53796,732.85834 L645.4233,736.60236 z"/>
<path d="M652.5073,740.1805 L654.34247,729.20886 L649.09955,730.5339 z"/>
<path d="M649.09955,730.5339 L654.34247,729.20886 L647.9186,722.9881 z"/>
<path d="M660.9422,744.97046 L664.8345,756.7379 L665.9254,754.0251 z"/>
<path d="M579.0837,779.1262 L623.25574,780.882 L598.12665,766.4906 z"/>
<path d="M660.9422,744.97046 L661.3395,743.70984 L652.5073,740.1805 z"/>
<path d="M548.30383,780.882 L623.25574,780.882 L579.0837,779.1262 z"/>
<path d="M668.8337,730.1684 L654.34247,729.20886 L661.3395,743.70984 z"/>
<path d="M668.8337,730.1684 L652.64435,714.7771 L654.34247,729.20886 z"/>
<path d="M668.8337,730.1684 L673.25574,711.6 L652.64435,714.7771 z"/>
<path d="M652.64435,714.7771 L673.25574,711.6 L608.30383,711.6 z"/>
<path d="M661.3395,743.70984 L654.34247,729.20886 L652.5073,740.1805 z"/>
<path d="M652.5073,740.1805 L628.86194,747.8807 L660.2282,762.84436 z"/>
<path d="M645.70483,779.6137 L622.69476,757.8075 L622.98663,768.807 z"/>
<path d="M661.3395,743.70984 L672.4195,738.4401 L668.8337,730.1684 z"/>
<path d="M684.598,725.93164 L676.5919,722.4166 L668.8337,730.1684 z"/>
<path d="M668.8337,730.1684 L676.5919,722.4166 L673.25574,711.6 z"/>
<path d="M672.58905,740.74316 L661.3395,743.70984 L660.9422,744.97046 z"/>
<path d="M672.58905,740.74316 L672.4195,738.4401 L661.3395,743.70984 z"/>
<path d="M665.9254,754.0251 L672.58905,740.74316 L660.9422,744.97046 z"/>
<path d="M672.4195,738.4401 L684.598,725.93164 L668.8337,730.1684 z"/>
<path d="M623.25574,780.882 L645.70483,779.6137 L622.98663,768.807 z"/>
<path d="M660.2282,762.84436 L660.9422,744.97046 L652.5073,740.1805 z"/>
<path d="M649.78625,777.6598 L660.2282,762.84436 L628.86194,747.8807 z"/>
<path d="M660.2282,762.84436 L664.8345,756.7379 L660.9422,744.97046 z"/>
<path d="M685.1355,742.23517 L672.4195,738.4401 L672.58905,740.74316 z"/>
<path d="M685.1355,742.23517 L672.58905,740.74316 L665.9254,754.0251 z"/>
<path d="M685.1355,742.23517 L684.598,725.93164 L672.4195,738.4401 z"/>
<path d="M676.5919,722.4166 L684.598,725.93164 L673.25574,711.6 z"/>
<path d="M645.70483,779.6137 L649.78625,777.6598 L622.69476,757.8075 z"/>
<path d="M660.2282,762.84436 L664.35126,769.59283 L664.8345,756.7379 z"/>
<path d="M649.78625,777.6598 L659.8692,770.804 L660.2282,762.84436 z"/>
<path d="M686.7901,765.62573 L685.1355,742.23517 L665.9254,754.0251 z"/>
<path d="M645.70483,779.6137 L656.14777,777.3007 L649.78625,777.6598 z"/>
<path d="M649.78625,777.6598 L656.14777,777.3007 L659.8692,770.804 z"/>
<path d="M665.15967,771.5525 L662.59064,769.8755 L659.8692,770.804 z"/>
<path d="M659.8692,770.804 L662.59064,769.8755 L660.2282,762.84436 z"/>
<path d="M696.99615,732.0865 L699.7522,712.7984 L684.598,725.93164 z"/>
<path d="M684.598,725.93164 L699.7522,712.7984 L673.25574,711.6 z"/>
<path d="M665.15967,771.5525 L664.35126,769.59283 L662.59064,769.8755 z"/>
<path d="M662.59064,769.8755 L664.35126,769.59283 L660.2282,762.84436 z"/>
<path d="M686.7901,765.62573 L665.9254,754.0251 L664.8345,756.7379 z"/>
<path d="M656.14777,777.3007 L665.15967,771.5525 L659.8692,770.804 z"/>
<path d="M664.35126,769.59283 L686.7901,765.62573 L664.8345,756.7379 z"/>
<path d="M696.99615,732.0865 L708.27106,742.9311 L711.6359,734.41925 z"/>
<path d="M685.1355,742.23517 L692.789,736.21814 L684.598,725.93164 z"/>
<path d="M708.6874,728.15436 L696.99615,732.0865 L711.6359,734.41925 z"/>
<path d="M692.789,736.21814 L696.99615,732.0865 L684.598,725.93164 z"/>
<path d="M692.9589,756.57196 L692.789,736.21814 L685.1355,742.23517 z"/>
<path d="M696.99615,732.0865 L708.6874,728.15436 L699.7522,712.7984 z"/>
<path d="M684.907,774.57513 L686.7901,765.62573 L665.15967,771.5525 z"/>
<path d="M665.15967,771.5525 L686.7901,765.62573 L664.35126,769.59283 z"/>
<path d="M686.7901,765.62573 L692.9589,756.57196 L685.1355,742.23517 z"/>
<path d="M696.92145,762.991 L695.74414,757.3015 L692.9589,756.57196 z"/>
<path d="M692.9589,756.57196 L705.0353,749.5253 L692.789,736.21814 z"/>
<path d="M656.14777,777.3007 L684.907,774.57513 L665.15967,771.5525 z"/>
<path d="M696.92145,762.991 L697.3847,758.0789 L695.74414,757.3015 z"/>
<path d="M688.8244,776.45465 L684.907,774.57513 L656.14777,777.3007 z"/>
<path d="M708.27106,742.9311 L692.789,736.21814 L705.0353,749.5253 z"/>
<path d="M708.27106,742.9311 L696.99615,732.0865 L692.789,736.21814 z"/>
<path d="M696.92145,762.991 L692.9589,756.57196 L686.7901,765.62573 z"/>
<path d="M705.0353,749.5253 L692.9589,756.57196 L695.74414,757.3015 z"/>
<path d="M707.42694,760.60205 L705.0353,749.5253 L697.3847,758.0789 z"/>
<path d="M697.3847,758.0789 L705.0353,749.5253 L695.74414,757.3015 z"/>
<path d="M692.3266,772.01575 L696.92145,762.991 L686.7901,765.62573 z"/>
<path d="M722.2061,724.10547 L728.20764,728.92053 L731.6501,721.2341 z"/>
<path d="M718.20764,746.241 L713.6639,736.0049 L708.27106,742.9311 z"/>
<path d="M708.27106,742.9311 L713.6639,736.0049 L711.6359,734.41925 z"/>
<path d="M711.6359,734.41925 L722.2061,724.10547 L708.6874,728.15436 z"/>
<path d="M708.6874,728.15436 L722.2061,724.10547 L699.7522,712.7984 z"/>
<path d="M684.907,774.57513 L692.3266,772.01575 L686.7901,765.62573 z"/>
<path d="M696.92145,762.991 L707.42694,760.60205 L697.3847,758.0789 z"/>
<path d="M698.20764,780.882 L688.8244,776.45465 L656.14777,777.3007 z"/>
<path d="M688.8244,776.45465 L692.3266,772.01575 L684.907,774.57513 z"/>
<path d="M714.34,751.2347 L708.27106,742.9311 L705.0353,749.5253 z"/>
<path d="M713.6639,736.0049 L722.2061,724.10547 L711.6359,734.41925 z"/>
<path d="M702.6314,769.5363 L696.92145,762.991 L692.3266,772.01575 z"/>
<path d="M731.6501,721.2341 L734.50165,713.4756 L722.2061,724.10547 z"/>
<path d="M722.2061,724.10547 L734.50165,713.4756 L699.7522,712.7984 z"/>
<path d="M713.20764,754.90125 L714.34,751.2347 L705.0353,749.5253 z"/>
<path d="M713.20764,754.90125 L705.0353,749.5253 L707.42694,760.60205 z"/>
<path d="M723.20764,737.58075 L722.2061,724.10547 L713.6639,736.0049 z"/>
<path d="M713.20764,754.90125 L718.20764,746.241 L714.34,751.2347 z"/>
<path d="M714.34,751.2347 L718.20764,746.241 L708.27106,742.9311 z"/>
<path d="M718.20764,746.241 L723.20764,737.58075 L713.6639,736.0049 z"/>
<path d="M718.20764,746.241 L728.20764,728.92053 L723.20764,737.58075 z"/>
<path d="M723.20764,737.58075 L728.20764,728.92053 L722.2061,724.10547 z"/>
<path d="M734.50165,713.4756 L738.20764,711.6 L699.7522,712.7984 z"/>
<path d="M623.25574,780.882 L698.20764,780.882 L645.70483,779.6137 z"/>
<path d="M645.70483,779.6137 L698.20764,780.882 L656.14777,777.3007 z"/>
<path d="M688.8244,776.45465 L698.20764,780.882 L692.3266,772.01575 z"/>
<path d="M488.3038,417.31796 L514.3852,420.508 L520.3293,389.96805 z"/>
<path d="M520.3293,389.96805 L504.39767,381.41916 L488.3038,417.31796 z"/>
<path d="M520.3293,389.96805 L514.4775,379.3143 L504.39767,381.41916 z"/>
<path d="M514.4775,379.3143 L495.54837,374.32678 L504.39767,381.41916 z"/>
<path d="M504.39767,381.41916 L495.54837,374.32678 L488.3038,417.31796 z"/>
<path d="M494.33966,340.22098 L472.6972,366.7284 L495.54837,374.32678 z"/>
<path d="M495.54837,374.32678 L472.6972,366.7284 L488.3038,417.31796 z"/>
<path d="M550.8279,387.04874 L546.3251,382.27652 L520.3293,389.96805 z"/>
<path d="M520.3293,389.96805 L546.3251,382.27652 L514.4775,379.3143 z"/>
<path d="M514.4775,379.3143 L527.42865,355.62604 L495.54837,374.32678 z"/>
<path d="M514.3852,420.508 L550.8279,387.04874 L520.3293,389.96805 z"/>
<path d="M524.3477,346.89462 L527.42865,355.62604 L546.3251,382.27652 z"/>
<path d="M546.3251,382.27652 L527.42865,355.62604 L514.4775,379.3143 z"/>
<path d="M488.3038,417.31796 L517.1655,455.9787 L514.3852,420.508 z"/>
<path d="M514.3852,420.508 L567.3844,416.1204 L550.8279,387.04874 z"/>
<path d="M550.8279,387.04874 L524.3477,346.89462 L546.3251,382.27652 z"/>
<path d="M527.42865,355.62604 L524.3477,346.89462 L495.54837,374.32678 z"/>
<path d="M524.3477,346.89462 L494.33966,340.22098 L495.54837,374.32678 z"/>
<path d="M460.91476,328.92172 L455.82785,361.06796 L472.6972,366.7284 z"/>
<path d="M472.6972,366.7284 L455.82785,361.06796 L488.3038,417.31796 z"/>
<path d="M563.8706,438.63934 L567.3844,416.1204 L514.3852,420.508 z"/>
<path d="M517.1655,455.9787 L563.8706,438.63934 L514.3852,420.508 z"/>
<path d="M517.1655,455.9787 L536.16547,480.47546 L563.8706,438.63934 z"/>
<path d="M550.8279,387.04874 L513.3519,322.1385 L524.3477,346.89462 z"/>
<path d="M524.3477,346.89462 L513.3519,322.1385 L494.33966,340.22098 z"/>
<path d="M494.33966,340.22098 L460.91476,328.92172 L472.6972,366.7284 z"/>
<path d="M473.34708,317.08514 L460.91476,328.92172 L494.33966,340.22098 z"/>
<path d="M536.16547,480.47546 L570.9878,465.0505 L563.8706,438.63934 z"/>
<path d="M490.73038,302.64365 L473.34708,317.08514 L494.33966,340.22098 z"/>
<path d="M566.62067,475.71872 L570.9878,465.0505 L536.16547,480.47546 z"/>
<path d="M532.9281,486.43146 L566.62067,475.71872 L536.16547,480.47546 z"/>
<path d="M566.62067,475.71872 L573.8725,473.1808 L570.9878,465.0505 z"/>
<path d="M473.34708,317.08514 L456.87885,313.85355 L460.91476,328.92172 z"/>
<path d="M460.91476,328.92172 L428.48615,311.68906 L455.82785,361.06796 z"/>
<path d="M455.25986,308.12213 L456.87885,313.85355 L473.34708,317.08514 z"/>
<path d="M513.3519,322.1385 L490.73038,302.64365 L494.33966,340.22098 z"/>
<path d="M468.59326,290.07767 L455.25986,308.12213 L473.34708,317.08514 z"/>
<path d="M456.87885,313.85355 L441.6017,311.19308 L460.91476,328.92172 z"/>
<path d="M455.25986,308.12213 L441.6017,311.19308 L456.87885,313.85355 z"/>
<path d="M490.73038,302.64365 L468.59326,290.07767 L473.34708,317.08514 z"/>
<path d="M455.25986,308.12213 L468.59326,290.07767 L441.6017,311.19308 z"/>
<path d="M423.3519,304.81796 L428.48615,311.68906 L441.6017,311.19308 z"/>
<path d="M441.6017,311.19308 L428.48615,311.68906 L460.91476,328.92172 z"/>
<path d="M468.59326,290.07767 L423.3519,304.81796 L441.6017,311.19308 z"/>
<path d="M532.9281,486.43146 L557.7523,524.6496 L566.62067,475.71872 z"/>
<path d="M566.62067,475.71872 L560.7687,526.2492 L573.8725,473.1808 z"/>
<path d="M557.7523,524.6496 L560.7687,526.2492 L566.62067,475.71872 z"/>
<path d="M560.7687,526.2492 L594.0945,539.7743 L573.8725,473.1808 z"/>
<path d="M475.87595,257.2282 L470.46124,259.13394 L468.59326,290.07767 z"/>
<path d="M438.33313,253.48216 L411.72565,268.59125 L423.3519,304.81796 z"/>
<path d="M475.87595,257.2282 L468.59326,290.07767 L490.73038,302.64365 z"/>
<path d="M513.3519,322.1385 L475.87595,257.2282 L490.73038,302.64365 z"/>
<path d="M438.33313,253.48216 L423.3519,304.81796 L468.59326,290.07767 z"/>
<path d="M438.33313,253.48216 L468.59326,290.07767 L470.46124,259.13394 z"/>
<path d="M464.7662,240.68161 L438.33313,253.48216 L470.46124,259.13394 z"/>
<path d="M561.2199,536.689 L594.0945,539.7743 L560.7687,526.2492 z"/>
<path d="M475.87595,257.2282 L464.7662,240.68161 L470.46124,259.13394 z"/>
<path d="M438.33313,253.48216 L421.38562,254.54213 L411.72565,268.59125 z"/>
<path d="M437.3634,230.15787 L421.38562,254.54213 L438.33313,253.48216 z"/>
<path d="M421.38562,254.54213 L415.5489,257.83923 L411.72565,268.59125 z"/>
<path d="M390.87595,248.56796 L401.70932,261.0718 L415.5489,257.83923 z"/>
<path d="M415.5489,257.83923 L401.70932,261.0718 L411.72565,268.59125 z"/>
<path d="M411.72565,268.59125 L401.70932,261.0718 L423.3519,304.81796 z"/>
<path d="M603.7305,555.2042 L605.0686,548.1675 L594.0945,539.7743 z"/>
<path d="M594.0945,539.7743 L605.0686,548.1675 L609.2394,541.1655 z"/>
<path d="M605.0686,548.1675 L607.57513,548.687 L609.2394,541.1655 z"/>
<path d="M588.42786,575.7624 L603.7305,555.2042 L594.0945,539.7743 z"/>
<path d="M605.0686,548.1675 L603.7305,555.2042 L607.57513,548.687 z"/>
<path d="M464.7662,240.68161 L437.3634,230.15787 L438.33313,253.48216 z"/>
<path d="M421.38562,254.54213 L390.87595,248.56796 L415.5489,257.83923 z"/>
<path d="M407.42276,205.65475 L390.87595,248.56796 L421.38562,254.54213 z"/>
<path d="M401.70932,261.0718 L390.87595,248.56796 L423.3519,304.81796 z"/>
<path d="M561.2199,536.689 L588.42786,575.7624 L594.0945,539.7743 z"/>
<path d="M588.42786,575.7624 L620.5754,588.3778 L603.7305,555.2042 z"/>
<path d="M588.1731,579.4309 L620.5754,588.3778 L588.42786,575.7624 z"/>
<path d="M603.7305,555.2042 L620.5754,588.3778 L607.57513,548.687 z"/>
<path d="M464.7662,240.68161 L441.75107,202.87752 L437.3634,230.15787 z"/>
<path d="M437.3634,230.15787 L407.42276,205.65475 L421.38562,254.54213 z"/>
<path d="M438.4,192.31796 L441.75107,202.87752 L464.7662,240.68161 z"/>
<path d="M441.75107,202.87752 L419.86322,201.73773 L437.3634,230.15787 z"/>
<path d="M419.86322,201.73773 L407.42276,205.65475 L437.3634,230.15787 z"/>
<path d="M607.57513,548.687 L652.81934,568.9335 L609.2394,541.1655 z"/>
<path d="M441.75107,202.87752 L428.4,192.31796 L419.86322,201.73773 z"/>
<path d="M419.86322,201.73773 L413.74335,198.52147 L407.42276,205.65475 z"/>
<path d="M475.87595,257.2282 L438.4,192.31796 L464.7662,240.68161 z"/>
<path d="M513.3519,322.1385 L438.4,192.31796 L475.87595,257.2282 z"/>
<path d="M418.4,192.31796 L413.74335,198.52147 L419.86322,201.73773 z"/>
<path d="M438.4,192.31796 L428.4,192.31796 L441.75107,202.87752 z"/>
<path d="M620.5754,588.3778 L652.81934,568.9335 L607.57513,548.687 z"/>
<path d="M438.4,192.31796 L418.4,192.31796 L428.4,192.31796 z"/>
<path d="M428.4,192.31796 L418.4,192.31796 L419.86322,201.73773 z"/>
<path d="M413.74335,198.52147 L408.4,192.31796 L407.42276,205.65475 z"/>
<path d="M438.4,192.31796 L408.4,192.31796 L418.4,192.31796 z"/>
<path d="M418.4,192.31796 L408.4,192.31796 L413.74335,198.52147 z"/>
<path d="M407.42276,205.65475 L378.4,192.31796 L390.87595,248.56796 z"/>
<path d="M438.4,192.31796 L398.4,192.31796 L408.4,192.31796 z"/>
<path d="M408.4,192.31796 L398.4,192.31796 L407.42276,205.65475 z"/>
<path d="M616.5657,632.34937 L643.6344,593.25336 L620.5754,588.3778 z"/>
<path d="M620.5754,588.3778 L643.6344,593.25336 L652.81934,568.9335 z"/>
<path d="M643.6344,593.25336 L651.9689,589.7627 L652.81934,568.9335 z"/>
<path d="M398.4,192.31796 L388.4,192.31796 L407.42276,205.65475 z"/>
<path d="M438.4,192.31796 L388.4,192.31796 L398.4,192.31796 z"/>
<path d="M651.9689,589.7627 L663.25574,581.7795 L652.81934,568.9335 z"/>
<path d="M482.10968,649.36694 L483.3519,642.318 L467.33002,655.3481 z"/>
<path d="M643.6344,593.25336 L674.3547,603.07 L651.9689,589.7627 z"/>
<path d="M388.4,192.31796 L378.4,192.31796 L407.42276,205.65475 z"/>
<path d="M438.4,192.31796 L378.4,192.31796 L388.4,192.31796 z"/>
<path d="M503.57922,664.48834 L527.44055,654.0406 L528.30383,642.318 z"/>
<path d="M527.44055,654.0406 L555.2272,646.45776 L528.30383,642.318 z"/>
<path d="M438.4,192.31796 L368.4,192.31796 L378.4,192.31796 z"/>
<path d="M378.4,192.31796 L368.4,192.31796 L390.87595,248.56796 z"/>
<path d="M503.57922,664.48834 L528.30383,642.318 L483.3519,642.318 z"/>
<path d="M576.77734,683.0067 L618.20764,642.318 L573.25574,642.318 z"/>
<path d="M438.4,192.31796 L358.4,192.31796 L368.4,192.31796 z"/>
<path d="M368.4,192.31796 L358.4,192.31796 L390.87595,248.56796 z"/>
<path d="M438.4,642.318 L467.33002,655.3481 L483.3519,642.318 z"/>
<path d="M482.10968,649.36694 L503.57922,664.48834 L483.3519,642.318 z"/>
<path d="M651.9689,589.7627 L674.3547,603.07 L663.25574,581.7795 z"/>
<path d="M478.0911,665.3847 L503.57922,664.48834 L482.10968,649.36694 z"/>
<path d="M527.44055,654.0406 L540.25037,678.2417 L555.2272,646.45776 z"/>
<path d="M636.1616,650.894 L674.3547,603.07 L643.6344,593.25336 z"/>
<path d="M465.90897,672.43774 L478.0911,665.3847 L467.33002,655.3481 z"/>
<path d="M467.33002,655.3481 L478.0911,665.3847 L482.10968,649.36694 z"/>
<path d="M348.4962,642.318 L303.54428,642.318 L326.33005,658.8263 z"/>
<path d="M433.79095,665.7987 L467.33002,655.3481 L438.4,642.318 z"/>
<path d="M576.77734,683.0067 L573.25574,642.318 L555.2272,646.45776 z"/>
<path d="M616.5657,632.34937 L636.1616,650.894 L643.6344,593.25336 z"/>
<path d="M393.4481,642.318 L407.1929,654.4773 L438.4,642.318 z"/>
<path d="M407.1929,654.4773 L433.79095,665.7987 L438.4,642.318 z"/>
<path d="M437.89297,673.38025 L465.90897,672.43774 L467.33002,655.3481 z"/>
<path d="M478.0911,665.3847 L504.60593,679.57654 L503.57922,664.48834 z"/>
<path d="M503.57922,664.48834 L504.60593,679.57654 L527.44055,654.0406 z"/>
<path d="M494.7437,705.406 L504.60593,679.57654 L473.0626,704.21027 z"/>
<path d="M504.60593,679.57654 L540.25037,678.2417 L527.44055,654.0406 z"/>
<path d="M433.79095,665.7987 L437.89297,673.38025 L467.33002,655.3481 z"/>
<path d="M473.0626,704.21027 L504.60593,679.57654 L478.0911,665.3847 z"/>
<path d="M412.67676,677.9677 L437.89297,673.38025 L433.79095,665.7987 z"/>
<path d="M395.26163,673.46173 L408.68713,665.7484 L407.1929,654.4773 z"/>
<path d="M407.1929,654.4773 L408.68713,665.7484 L433.79095,665.7987 z"/>
<path d="M618.20764,642.318 L636.1616,650.894 L616.5657,632.34937 z"/>
<path d="M636.6778,666.93604 L636.1616,650.894 L618.20764,642.318 z"/>
<path d="M385.4401,670.39014 L395.26163,673.46173 L407.1929,654.4773 z"/>
<path d="M567.1635,697.3659 L576.77734,683.0067 L540.25037,678.2417 z"/>
<path d="M540.25037,678.2417 L576.77734,683.0067 L555.2272,646.45776 z"/>
<path d="M395.26163,673.46173 L412.67676,677.9677 L408.68713,665.7484 z"/>
<path d="M408.68713,665.7484 L412.67676,677.9677 L433.79095,665.7987 z"/>
<path d="M473.0626,704.21027 L478.0911,665.3847 L465.90897,672.43774 z"/>
<path d="M550.8159,707.0373 L567.1635,697.3659 L540.25037,678.2417 z"/>
<path d="M385.4401,670.39014 L407.1929,654.4773 L393.4481,642.318 z"/>
<path d="M348.4962,642.318 L385.4401,670.39014 L393.4481,642.318 z"/>
<path d="M636.4572,667.7059 L636.6778,666.93604 L618.20764,642.318 z"/>
<path d="M636.1616,650.894 L668.3999,650.13635 L674.3547,603.07 z"/>
<path d="M576.77734,683.0067 L636.4572,667.7059 L618.20764,642.318 z"/>
<path d="M636.6778,666.93604 L668.3999,650.13635 L636.1616,650.894 z"/>
<path d="M636.4572,667.7059 L668.3999,650.13635 L636.6778,666.93604 z"/>
<path d="M668.3999,650.13635 L681.6977,645.2835 L674.3547,603.07 z"/>
<path d="M550.8159,707.0373 L540.25037,678.2417 L543.3519,711.6 z"/>
<path d="M630.6529,695.46075 L635.1734,690.4017 L636.4572,667.7059 z"/>
<path d="M473.0626,704.21027 L437.89297,673.38025 L413.4481,711.6 z"/>
<path d="M473.0626,704.21027 L465.90897,672.43774 L437.89297,673.38025 z"/>
<path d="M473.0626,704.21027 L413.4481,711.6 L478.4,711.6 z"/>
<path d="M437.89297,673.38025 L412.67676,677.9677 L413.4481,711.6 z"/>
<path d="M326.33005,658.8263 L336.89758,661.8397 L348.4962,642.318 z"/>
<path d="M348.4962,642.318 L336.89758,661.8397 L385.4401,670.39014 z"/>
<path d="M364.46457,701.7433 L413.4481,711.6 L395.26163,673.46173 z"/>
<path d="M543.3519,711.6 L540.25037,678.2417 L504.60593,679.57654 z"/>
<path d="M630.6529,695.46075 L636.4572,667.7059 L616.5553,701.9664 z"/>
<path d="M473.0626,704.21027 L478.4,711.6 L494.7437,705.406 z"/>
<path d="M494.7437,705.406 L543.3519,711.6 L504.60593,679.57654 z"/>
<path d="M413.4481,711.6 L412.67676,677.9677 L395.26163,673.46173 z"/>
<path d="M364.46457,701.7433 L395.26163,673.46173 L385.4401,670.39014 z"/>
<path d="M478.4,711.6 L543.3519,711.6 L494.7437,705.406 z"/>
<path d="M636.4572,667.7059 L576.77734,683.0067 L616.5553,701.9664 z"/>
<path d="M635.1734,690.4017 L668.3999,650.13635 L636.4572,667.7059 z"/>
<path d="M576.77734,683.0067 L608.30383,711.6 L616.5553,701.9664 z"/>
<path d="M274.11502,642.5595 L300.04413,647.5891 L303.54428,642.318 z"/>
<path d="M303.54428,642.318 L300.04413,647.5891 L326.33005,658.8263 z"/>
<path d="M576.77734,683.0067 L567.1635,697.3659 L608.30383,711.6 z"/>
<path d="M702.2992,689.4221 L681.6977,645.2835 L668.3999,650.13635 z"/>
<path d="M608.30383,711.6 L567.1635,697.3659 L550.8159,707.0373 z"/>
<path d="M364.46457,701.7433 L385.4401,670.39014 L336.89758,661.8397 z"/>
<path d="M364.46457,701.7433 L325.56543,703.83905 L348.4962,711.6 z"/>
<path d="M543.3519,711.6 L608.30383,711.6 L550.8159,707.0373 z"/>
<path d="M616.5553,701.9664 L608.30383,711.6 L630.6529,695.46075 z"/>
<path d="M702.2992,689.4221 L668.3999,650.13635 L673.25574,711.6 z"/>
<path d="M325.56543,703.83905 L336.89758,661.8397 L326.33005,658.8263 z"/>
<path d="M300.04413,647.5891 L296.4796,673.3631 L326.33005,658.8263 z"/>
<path d="M286.69873,673.9223 L296.4796,673.3631 L300.04413,647.5891 z"/>
<path d="M274.11502,642.5595 L286.69873,673.9223 L300.04413,647.5891 z"/>
<path d="M668.3999,650.13635 L635.1734,690.4017 L673.25574,711.6 z"/>
<path d="M325.56543,703.83905 L364.46457,701.7433 L336.89758,661.8397 z"/>
<path d="M364.46457,701.7433 L348.4962,711.6 L413.4481,711.6 z"/>
<path d="M296.4796,673.3631 L325.56543,703.83905 L326.33005,658.8263 z"/>
<path d="M673.25574,711.6 L635.1734,690.4017 L630.6529,695.46075 z"/>
<path d="M280.95215,689.37836 L325.56543,703.83905 L296.4796,673.3631 z"/>
<path d="M286.69873,673.9223 L280.95215,689.37836 L296.4796,673.3631 z"/>
<path d="M608.30383,711.6 L673.25574,711.6 L630.6529,695.46075 z"/>
<path d="M673.25574,711.6 L704.647,703.9395 L702.2992,689.4221 z"/>
<path d="M702.2992,689.4221 L704.647,703.9395 L714.19946,673.4337 z"/>
<path d="M254.72864,677.2046 L280.95215,689.37836 L286.69873,673.9223 z"/>
<path d="M325.56543,703.83905 L283.54428,711.6 L348.4962,711.6 z"/>
<path d="M238.71175,677.35187 L254.72864,677.2046 L254.2819,675.34375 z"/>
<path d="M254.2819,675.34375 L254.72864,677.2046 L286.69873,673.9223 z"/>
<path d="M248.16617,663.8458 L243.59238,668.2987 L254.2819,675.34375 z"/>
<path d="M233.59238,685.61926 L265.5336,696.797 L254.72864,677.2046 z"/>
<path d="M254.72864,677.2046 L265.5336,696.797 L280.95215,689.37836 z"/>
<path d="M280.95215,689.37836 L283.54428,711.6 L325.56543,703.83905 z"/>
<path d="M265.5336,696.797 L283.54428,711.6 L280.95215,689.37836 z"/>
<path d="M243.59238,668.2987 L238.71175,677.35187 L254.2819,675.34375 z"/>
<path d="M265.5336,696.797 L218.59238,711.6 L283.54428,711.6 z"/>
<path d="M238.59238,676.959 L238.71175,677.35187 L243.59238,668.2987 z"/>
<path d="M673.25574,711.6 L738.20764,711.6 L704.647,703.9395 z"/>
<path d="M704.647,703.9395 L738.20764,711.6 L714.19946,673.4337 z"/>
<path d="M238.59238,676.959 L233.59238,685.61926 L238.71175,677.35187 z"/>
<path d="M238.71175,677.35187 L233.59238,685.61926 L254.72864,677.2046 z"/>
<path d="M233.59238,685.61926 L228.59238,694.2795 L265.5336,696.797 z"/>
</g>
<g fill="none" id="3" stroke="black" stroke-width="0.2mm">
<rect height="1123.1999999999998" width="796.8000000000001" x="0" y="0"/>
</g>
</svg>