<svg height="576px" viewBox="0 0 384 576" width="384px" xmlns="http://www.w3.org/2000/svg" xmlns:inkscape="http://www.inkscape.org/namespaces/inkscape">
<g fill="none" id="1" stroke="black" stroke-width="0.5mm">
<path d="M167,171.30127 L28.435936,411.30127 L355.56406,411.30127 L380.56406,368 L103.435936,368 L192,214.60254 L167,171.30127 z"/>
<path d="M103.435936,368 L380.56406,368 L217,84.69873 L167,84.69873 L305.56406,324.69873 L128.43593,324.69873 L103.435936,368 z"/>
<path d="M28.435936,411.30127 L3.4359355,368 L167,84.69873 L305.56406,324.69873 L255.56407,324.69873 L167,171.30127 L28.435936,411.30127 z"/>
</g>
<g fill="none" id="2" stroke="black" stroke-width="0.2mm">
<path d="M168.08672,255.66808 L167.20091,248.85428 L163.55254,252.25827 z"/>
<path d="M163.55254,252.25827 L162.72577,259.5957 L168.08672,255.66808 z"/>
<path d="M155.71825,246.0425 L157.00914,251.88632 L163.55254,252.25827 z"/>
<path d="M163.55254,252.25827 L157.00914,251.88632 L162.72577,259.5957 z"/>
<path d="M167.20091,248.85428 L155.71825,246.0425 L163.55254,252.25827 z"/>
<path d="M169.93105,234.1211 L166.47319,238.33612 L167.20091,248.85428 z"/>
<path d="M167.20091,248.85428 L166.47319,238.33612 L155.71825,246.0425 z"/>
<path d="M161.27068,235.41878 L152.96997,241.42517 L155.71825,246.0425 z"/>
<path d="M155.71825,246.0425 L151.34425,243.85912 L157.00914,251.88632 z"/>
<path d="M152.96997,241.42517 L151.34425,243.85912 L155.71825,246.0425 z"/>
<path d="M166.47319,238.33612 L161.27068,235.41878 L155.71825,246.0425 z"/>
<path d="M170.85846,232.47672 L175.54402,229.0331 L173.43797,229.86195 z"/>
<path d="M166.47319,238.33612 L169.93105,234.1211 L161.27068,235.41878 z"/>
<path d="M170.85846,232.47672 L169.93105,234.1211 L175.54402,229.0331 z"/>
<path d="M169.93105,234.1211 L170.85846,232.47672 L161.27068,235.41878 z"/>
<path d="M151.34425,243.85912 L146.61949,256.73358 L157.00914,251.88632 z"/>
<path d="M157.00914,251.88632 L146.61949,256.73358 L162.72577,259.5957 z"/>
<path d="M146.61949,256.73358 L146.07607,261.73953 L162.72577,259.5957 z"/>
<path d="M152.96997,241.42517 L149.53915,236.97887 L151.34425,243.85912 z"/>
<path d="M151.34425,243.85912 L133.95522,253.61095 L146.61949,256.73358 z"/>
<path d="M161.27068,235.41878 L149.53915,236.97887 L152.96997,241.42517 z"/>
<path d="M158.85666,223.45349 L149.53915,236.97887 L161.27068,235.41878 z"/>
<path d="M175.54402,229.0331 L169.93105,234.1211 L167.20091,248.85428 z"/>
<path d="M170.85846,232.47672 L158.85666,223.45349 L161.27068,235.41878 z"/>
<path d="M146.07607,261.73953 L152.35406,270.77728 L162.72577,259.5957 z"/>
<path d="M162.72577,259.5957 L152.01636,280.84265 L168.08672,255.66808 z"/>
<path d="M168.08672,255.66808 L175.54402,229.0331 L167.20091,248.85428 z"/>
<path d="M173.43797,229.86195 L158.85666,223.45349 L170.85846,232.47672 z"/>
<path d="M133.95522,253.61095 L140.99422,266.34573 L146.07607,261.73953 z"/>
<path d="M146.07607,261.73953 L140.99422,266.34573 L152.35406,270.77728 z"/>
<path d="M133.95522,253.61095 L146.07607,261.73953 L146.61949,256.73358 z"/>
<path d="M163.60307,212.75084 L158.85666,223.45349 L173.43797,229.86195 z"/>
<path d="M192,214.60254 L179.1592,223.96927 L175.54402,229.0331 z"/>
<path d="M175.54402,229.0331 L179.1592,223.96927 L173.43797,229.86195 z"/>
<path d="M141.76553,272.3993 L152.01636,280.84265 L152.35406,270.77728 z"/>
<path d="M152.35406,270.77728 L152.01636,280.84265 L162.72577,259.5957 z"/>
<path d="M140.99422,266.34573 L141.76553,272.3993 L152.35406,270.77728 z"/>
<path d="M125.56763,243.7884 L133.95522,253.61095 L149.53915,236.97887 z"/>
<path d="M149.53915,236.97887 L133.95522,253.61095 L151.34425,243.85912 z"/>
<path d="M140.99422,266.34573 L137.46541,275.28824 L141.76553,272.3993 z"/>
<path d="M163.60307,212.75084 L155.99016,218.55173 L158.85666,223.45349 z"/>
<path d="M158.85666,223.45349 L155.99016,218.55173 L149.53915,236.97887 z"/>
<path d="M129.86684,274.3035 L137.46541,275.28824 L140.99422,266.34573 z"/>
<path d="M141.76553,272.3993 L137.46541,275.28824 L152.01636,280.84265 z"/>
<path d="M179.1592,223.96927 L163.60307,212.75084 L173.43797,229.86195 z"/>
<path d="M163.34999,201.15623 L163.20166,212.21286 L163.60307,212.75084 z"/>
<path d="M163.60307,212.75084 L163.20166,212.21286 L155.99016,218.55173 z"/>
<path d="M125.56763,243.7884 L126.1648,259.87173 L133.95522,253.61095 z"/>
<path d="M133.95522,253.61095 L126.1648,259.87173 L140.99422,266.34573 z"/>
<path d="M148.5938,212.56036 L149.53915,236.97887 L155.99016,218.55173 z"/>
<path d="M148.5938,212.56036 L125.56763,243.7884 L149.53915,236.97887 z"/>
<path d="M126.1648,259.87173 L129.86684,274.3035 L140.99422,266.34573 z"/>
<path d="M137.46541,275.28824 L147.71797,291.30127 L152.01636,280.84265 z"/>
<path d="M135.71477,291.11765 L147.71797,291.30127 L137.46541,275.28824 z"/>
<path d="M163.20166,212.21286 L148.5938,212.56036 L155.99016,218.55173 z"/>
<path d="M129.86684,274.3035 L131.85808,279.46307 L137.46541,275.28824 z"/>
<path d="M168.08672,255.66808 L192,214.60254 L175.54402,229.0331 z"/>
<path d="M179.1592,223.96927 L192,214.60254 L163.60307,212.75084 z"/>
<path d="M135.71477,291.11765 L143.82518,296.14117 L147.71797,291.30127 z"/>
<path d="M130.73055,287.01834 L135.71477,291.11765 L131.85808,279.46307 z"/>
<path d="M131.85808,279.46307 L135.71477,291.11765 L137.46541,275.28824 z"/>
<path d="M125.492836,281.01212 L131.85808,279.46307 L129.86684,274.3035 z"/>
<path d="M125.492836,281.01212 L130.73055,287.01834 L131.85808,279.46307 z"/>
<path d="M117.551926,265.5555 L125.492836,281.01212 L129.86684,274.3035 z"/>
<path d="M117.551926,265.5555 L129.86684,274.3035 L126.1648,259.87173 z"/>
<path d="M116.83205,265.24503 L117.551926,265.5555 L126.1648,259.87173 z"/>
<path d="M176.91463,193.09906 L163.34999,201.15623 L163.60307,212.75084 z"/>
<path d="M163.20166,212.21286 L163.34999,201.15623 L148.5938,212.56036 z"/>
<path d="M125.56763,243.7884 L116.83205,265.24503 L126.1648,259.87173 z"/>
<path d="M117.551926,265.5555 L115.02731,287.38297 L125.492836,281.01212 z"/>
<path d="M176.91463,193.09906 L162.96356,200.18906 L163.34999,201.15623 z"/>
<path d="M163.34999,201.15623 L162.96356,200.18906 L148.5938,212.56036 z"/>
<path d="M135.71477,291.11765 L135.32262,297.35794 L143.82518,296.14117 z"/>
<path d="M124.93035,299.11127 L135.32262,297.35794 L135.71477,291.11765 z"/>
<path d="M124.93035,299.11127 L135.71477,291.11765 L130.73055,287.01834 z"/>
<path d="M115.02731,287.38297 L123.48804,289.48712 L125.492836,281.01212 z"/>
<path d="M125.492836,281.01212 L123.48804,289.48712 L130.73055,287.01834 z"/>
<path d="M162.96356,200.18906 L154.59337,193.98604 L148.5938,212.56036 z"/>
<path d="M148.5938,212.56036 L154.59337,193.98604 L125.56763,243.7884 z"/>
<path d="M176.91463,193.09906 L154.59337,193.98604 L162.96356,200.18906 z"/>
<path d="M192,214.60254 L176.91463,193.09906 L163.60307,212.75084 z"/>
<path d="M192,214.60254 L179.5,192.9519 L176.91463,193.09906 z"/>
<path d="M176.91463,193.09906 L167,171.30127 L154.59337,193.98604 z"/>
<path d="M116.83205,265.24503 L115.02731,287.38297 L117.551926,265.5555 z"/>
<path d="M123.48804,289.48712 L124.93035,299.11127 L130.73055,287.01834 z"/>
<path d="M118.33229,299.5878 L124.93035,299.11127 L123.48804,289.48712 z"/>
<path d="M135.32262,297.35794 L124.37894,325.21503 L143.82518,296.14117 z"/>
<path d="M119.45226,301.9745 L124.318375,301.59314 L124.93035,299.11127 z"/>
<path d="M124.93035,299.11127 L124.318375,301.59314 L135.32262,297.35794 z"/>
<path d="M115.02731,287.38297 L118.33229,299.5878 L123.48804,289.48712 z"/>
<path d="M118.33229,299.5878 L119.45226,301.9745 L124.93035,299.11127 z"/>
<path d="M115.02731,287.38297 L117.014786,299.68933 L118.33229,299.5878 z"/>
<path d="M118.33229,299.5878 L117.014786,299.68933 L119.45226,301.9745 z"/>
<path d="M99.91666,294.7318 L101.05287,295.94684 L115.02731,287.38297 z"/>
<path d="M115.02731,287.38297 L101.05287,295.94684 L117.014786,299.68933 z"/>
<path d="M108.57088,311.25818 L122.521706,320.7532 L119.45226,301.9745 z"/>
<path d="M179.5,192.9519 L167,171.30127 L176.91463,193.09906 z"/>
<path d="M154.59337,193.98604 L167,171.30127 L125.56763,243.7884 z"/>
<path d="M108.57088,311.25818 L117.014786,299.68933 L101.86385,305.31992 z"/>
<path d="M108.57088,311.25818 L119.45226,301.9745 L117.014786,299.68933 z"/>
<path d="M119.45226,301.9745 L122.521706,320.7532 L124.318375,301.59314 z"/>
<path d="M124.318375,301.59314 L122.521706,320.7532 L135.32262,297.35794 z"/>
<path d="M117.014786,299.68933 L101.05287,295.94684 L101.86385,305.31992 z"/>
<path d="M108.46027,311.58502 L108.57088,311.25818 L106.24349,312.93832 z"/>
<path d="M101.86385,305.31992 L101.05287,295.94684 L98.32116,302.1681 z"/>
<path d="M108.57088,311.25818 L108.46027,311.58502 L122.521706,320.7532 z"/>
<path d="M98.32116,302.1681 L101.05287,295.94684 L99.91666,294.7318 z"/>
<path d="M108.35861,326.83392 L124.37894,325.21503 L122.521706,320.7532 z"/>
<path d="M122.521706,320.7532 L124.37894,325.21503 L135.32262,297.35794 z"/>
<path d="M101.86385,305.31992 L106.24349,312.93832 L108.57088,311.25818 z"/>
<path d="M94.151054,302.6652 L98.32116,302.1681 L99.91666,294.7318 z"/>
<path d="M99.10776,305.39554 L100.971794,306.33176 L101.86385,305.31992 z"/>
<path d="M108.46027,311.58502 L108.35861,326.83392 L122.521706,320.7532 z"/>
<path d="M100.971794,306.33176 L106.24349,312.93832 L101.86385,305.31992 z"/>
<path d="M98.32116,302.1681 L99.10776,305.39554 L101.86385,305.31992 z"/>
<path d="M100.971794,306.33176 L98.67672,306.6491 L106.24349,312.93832 z"/>
<path d="M94.151054,302.6652 L98.67672,306.6491 L99.10776,305.39554 z"/>
<path d="M99.10776,305.39554 L98.67672,306.6491 L100.971794,306.33176 z"/>
<path d="M98.32116,302.1681 L94.151054,302.6652 L99.10776,305.39554 z"/>
<path d="M94.151054,302.6652 L91.62173,302.87387 L98.67672,306.6491 z"/>
<path d="M99.94568,327.14862 L108.35861,326.83392 L106.24349,312.93832 z"/>
<path d="M99.94568,327.14862 L106.24349,312.93832 L94.23012,326.0663 z"/>
<path d="M106.24349,312.93832 L108.35861,326.83392 L108.46027,311.58502 z"/>
<path d="M108.35861,326.83392 L116.51756,334.52972 L124.37894,325.21503 z"/>
<path d="M94.23012,326.0663 L106.24349,312.93832 L98.67672,306.6491 z"/>
<path d="M108.35861,326.83392 L111.34583,339.30807 L116.51756,334.52972 z"/>
<path d="M99.94568,327.14862 L102.91695,330.59393 L108.35861,326.83392 z"/>
<path d="M102.91695,330.59393 L111.34583,339.30807 L108.35861,326.83392 z"/>
<path d="M99.94568,327.14862 L94.23012,326.0663 L102.91695,330.59393 z"/>
<path d="M102.91695,330.59393 L104.77478,342.46194 L111.34583,339.30807 z"/>
<path d="M86.404144,323.28668 L94.23012,326.0663 L98.67672,306.6491 z"/>
<path d="M91.62173,302.87387 L86.404144,323.28668 L98.67672,306.6491 z"/>
<path d="M89.06598,341.8594 L104.77478,342.46194 L102.91695,330.59393 z"/>
<path d="M89.06598,341.8594 L102.91695,330.59393 L94.23012,326.0663 z"/>
<path d="M104.77478,342.46194 L110.45408,347.60886 L111.34583,339.30807 z"/>
<path d="M111.34583,339.30807 L110.45408,347.60886 L116.51756,334.52972 z"/>
<path d="M86.404144,323.28668 L89.06598,341.8594 L94.23012,326.0663 z"/>
<path d="M104.77478,342.46194 L94.76906,355.62772 L110.45408,347.60886 z"/>
<path d="M191.04875,372.66858 L201.2587,370.13272 L181.85005,369.43372 z"/>
<path d="M179.04977,381.55093 L191.04875,372.66858 L181.85005,369.43372 z"/>
<path d="M191.31671,381.51205 L194.45888,374.5284 L191.04875,372.66858 z"/>
<path d="M191.04875,372.66858 L194.45888,374.5284 L201.2587,370.13272 z"/>
<path d="M179.04977,381.55093 L181.85005,369.43372 L167.8586,372.71613 z"/>
<path d="M194.45888,374.5284 L201.53044,373.5413 L201.2587,370.13272 z"/>
<path d="M89.06598,341.8594 L94.76906,355.62772 L104.77478,342.46194 z"/>
<path d="M75.20779,344.21017 L87.09177,351.3651 L89.06598,341.8594 z"/>
<path d="M89.06598,341.8594 L87.09177,351.3651 L94.76906,355.62772 z"/>
<path d="M203.42058,379.6319 L207.63326,374.84122 L201.53044,373.5413 z"/>
<path d="M201.53044,373.5413 L207.63326,374.84122 L201.2587,370.13272 z"/>
<path d="M168.52222,388.95993 L179.04977,381.55093 L167.8586,372.71613 z"/>
<path d="M194.45888,374.5284 L203.42058,379.6319 L201.53044,373.5413 z"/>
<path d="M73.993164,344.95413 L75.20779,344.21017 L86.404144,323.28668 z"/>
<path d="M86.404144,323.28668 L75.20779,344.21017 L89.06598,341.8594 z"/>
<path d="M207.63326,374.84122 L216.70967,372.37277 L201.2587,370.13272 z"/>
<path d="M94.76906,355.62772 L98.38741,363.34717 L110.45408,347.60886 z"/>
<path d="M138.64839,372.21616 L153.52121,387.9867 L167.8586,372.71613 z"/>
<path d="M89.907455,361.54175 L98.38741,363.34717 L94.76906,355.62772 z"/>
<path d="M89.907455,361.54175 L94.76906,355.62772 L87.09177,351.3651 z"/>
<path d="M132.49593,380.38892 L140.189,380.1657 L138.64839,372.21616 z"/>
<path d="M91.62173,302.87387 L73.993164,344.95413 L86.404144,323.28668 z"/>
<path d="M75.20779,344.21017 L73.993164,344.95413 L87.09177,351.3651 z"/>
<path d="M179.04977,381.55093 L191.31671,381.51205 L191.04875,372.66858 z"/>
<path d="M207.63326,374.84122 L210.18144,382.26672 L216.70967,372.37277 z"/>
<path d="M100.75893,373.97583 L103.435936,368 L98.38741,363.34717 z"/>
<path d="M98.38741,363.34717 L103.435936,368 L110.45408,347.60886 z"/>
<path d="M191.31671,381.51205 L203.42058,379.6319 L194.45888,374.5284 z"/>
<path d="M118.18228,380.04443 L132.49593,380.38892 L138.64839,372.21616 z"/>
<path d="M140.189,380.1657 L153.52121,387.9867 L138.64839,372.21616 z"/>
<path d="M132.49593,380.38892 L141.01619,382.48273 L140.189,380.1657 z"/>
<path d="M190.14534,390.5477 L193.7694,386.66525 L191.31671,381.51205 z"/>
<path d="M79.26319,361.25314 L89.907455,361.54175 L87.09177,351.3651 z"/>
<path d="M150.63127,389.8379 L153.52121,387.9867 L141.01619,382.48273 z"/>
<path d="M141.01619,382.48273 L153.52121,387.9867 L140.189,380.1657 z"/>
<path d="M200.6883,386.24356 L210.18144,382.26672 L203.42058,379.6319 z"/>
<path d="M153.52121,387.9867 L168.52222,388.95993 L167.8586,372.71613 z"/>
<path d="M134.40805,400.63416 L150.33089,393.63806 L141.01619,382.48273 z"/>
<path d="M110.575615,380.31998 L118.18228,380.04443 L103.435936,368 z"/>
<path d="M200.6883,386.24356 L203.42058,379.6319 L191.31671,381.51205 z"/>
<path d="M203.42058,379.6319 L210.18144,382.26672 L207.63326,374.84122 z"/>
<path d="M190.14534,390.5477 L191.31671,381.51205 L179.04977,381.55093 z"/>
<path d="M118.18228,380.04443 L122.732315,382.4943 L132.49593,380.38892 z"/>
<path d="M91.62173,302.87387 L69.83606,349.9903 L73.993164,344.95413 z"/>
<path d="M73.993164,344.95413 L79.26319,361.25314 L87.09177,351.3651 z"/>
<path d="M89.907455,361.54175 L100.75893,373.97583 L98.38741,363.34717 z"/>
<path d="M222.99321,379.29672 L242,368 L216.70967,372.37277 z"/>
<path d="M216.70967,372.37277 L242,368 L201.2587,370.13272 z"/>
<path d="M193.7694,386.66525 L200.6883,386.24356 L191.31671,381.51205 z"/>
<path d="M197.39839,387.86996 L200.6883,386.24356 L193.7694,386.66525 z"/>
<path d="M153.52121,387.9867 L155.8674,394.15494 L168.52222,388.95993 z"/>
<path d="M150.33089,393.63806 L150.63127,389.8379 L141.01619,382.48273 z"/>
<path d="M118.18228,380.04443 L122.10504,388.3442 L122.732315,382.4943 z"/>
<path d="M98.06963,380.77805 L100.75893,373.97583 L83.140816,372.50003 z"/>
<path d="M217.28825,382.10312 L216.70967,372.37277 L210.18144,382.26672 z"/>
<path d="M217.28825,382.10312 L222.99321,379.29672 L216.70967,372.37277 z"/>
<path d="M190.14534,390.5477 L197.39839,387.86996 L193.7694,386.66525 z"/>
<path d="M220.15997,382.97266 L217.28825,382.10312 L222.74695,396.03333 z"/>
<path d="M190.14534,390.5477 L179.04977,381.55093 L185.01776,393.15982 z"/>
<path d="M217.28825,382.10312 L210.18144,382.26672 L209.0291,395.78635 z"/>
<path d="M69.83606,349.9903 L79.26319,361.25314 L73.993164,344.95413 z"/>
<path d="M118.18228,380.04443 L110.575615,380.31998 L111.94246,387.48233 z"/>
<path d="M100.75893,373.97583 L110.575615,380.31998 L103.435936,368 z"/>
<path d="M150.33089,393.63806 L155.8674,394.15494 L150.63127,389.8379 z"/>
<path d="M185.01776,393.15982 L179.04977,381.55093 L168.52222,388.95993 z"/>
<path d="M204.58728,393.49686 L210.18144,382.26672 L200.6883,386.24356 z"/>
<path d="M204.58728,393.49686 L200.6883,386.24356 L202.69693,394.39276 z"/>
<path d="M217.28825,382.10312 L220.15997,382.97266 L222.99321,379.29672 z"/>
<path d="M246.60063,386.73856 L248.81128,370.38553 L242,368 z"/>
<path d="M182.63191,403.5737 L185.01776,393.15982 L168.52222,388.95993 z"/>
<path d="M190.14534,390.5477 L193.07245,395.5954 L197.39839,387.86996 z"/>
<path d="M141.01619,382.48273 L132.49593,380.38892 L125.54496,393.9378 z"/>
<path d="M150.63127,389.8379 L155.8674,394.15494 L153.52121,387.9867 z"/>
<path d="M122.10504,388.3442 L132.49593,380.38892 L122.732315,382.4943 z"/>
<path d="M104.64165,385.06015 L110.575615,380.31998 L100.75893,373.97583 z"/>
<path d="M111.94246,387.48233 L122.10504,388.3442 L118.18228,380.04443 z"/>
<path d="M227.44537,385.7105 L242,368 L222.99321,379.29672 z"/>
<path d="M246.60063,386.73856 L251.06065,370.06244 L248.81128,370.38553 z"/>
<path d="M248.81128,370.38553 L251.06065,370.06244 L242,368 z"/>
<path d="M69.83606,349.9903 L68.50785,358.56116 L79.26319,361.25314 z"/>
<path d="M83.140816,372.50003 L100.75893,373.97583 L89.907455,361.54175 z"/>
<path d="M185.01776,393.15982 L193.07245,395.5954 L190.14534,390.5477 z"/>
<path d="M220.15997,382.97266 L227.44537,385.7105 L222.99321,379.29672 z"/>
<path d="M182.63191,403.5737 L193.07245,395.5954 L185.01776,393.15982 z"/>
<path d="M83.140816,372.50003 L89.907455,361.54175 L79.26319,361.25314 z"/>
<path d="M104.64165,385.06015 L111.94246,387.48233 L110.575615,380.31998 z"/>
<path d="M134.40805,400.63416 L154.47421,398.8517 L150.33089,393.63806 z"/>
<path d="M202.69693,394.39276 L200.6883,386.24356 L197.39839,387.86996 z"/>
<path d="M222.74695,396.03333 L227.44537,385.7105 L220.15997,382.97266 z"/>
<path d="M193.07245,395.5954 L202.69693,394.39276 L197.39839,387.86996 z"/>
<path d="M204.58728,393.49686 L209.0291,395.78635 L210.18144,382.26672 z"/>
<path d="M72.55875,374.29773 L83.140816,372.50003 L79.26319,361.25314 z"/>
<path d="M109.10267,389.51666 L104.64165,385.06015 L90.29925,399.15323 z"/>
<path d="M98.06963,380.77805 L104.64165,385.06015 L100.75893,373.97583 z"/>
<path d="M150.33089,393.63806 L154.47421,398.8517 L155.8674,394.15494 z"/>
<path d="M155.8674,394.15494 L162.81834,406.26935 L168.52222,388.95993 z"/>
<path d="M125.54496,393.9378 L132.49593,380.38892 L122.10504,388.3442 z"/>
<path d="M109.10267,389.51666 L125.54496,393.9378 L111.94246,387.48233 z"/>
<path d="M111.94246,387.48233 L125.54496,393.9378 L122.10504,388.3442 z"/>
<path d="M69.83606,349.9903 L65.59775,359.8705 L68.50785,358.56116 z"/>
<path d="M68.50785,358.56116 L72.55875,374.29773 L79.26319,361.25314 z"/>
<path d="M90.29925,399.15323 L104.64165,385.06015 L98.06963,380.77805 z"/>
<path d="M104.64165,385.06015 L109.10267,389.51666 L111.94246,387.48233 z"/>
<path d="M201.39755,401.91208 L202.69693,394.39276 L193.07245,395.5954 z"/>
<path d="M201.39755,401.91208 L209.0291,395.78635 L202.69693,394.39276 z"/>
<path d="M202.69693,394.39276 L209.0291,395.78635 L204.58728,393.49686 z"/>
<path d="M126.07069,401.3084 L134.40805,400.63416 L125.54496,393.9378 z"/>
<path d="M125.54496,393.9378 L134.40805,400.63416 L141.01619,382.48273 z"/>
<path d="M162.81834,406.26935 L182.63191,403.5737 L168.52222,388.95993 z"/>
<path d="M162.81834,406.26935 L155.8674,394.15494 L154.47421,398.8517 z"/>
<path d="M182.63191,403.5737 L194.18427,403.15994 L193.07245,395.5954 z"/>
<path d="M194.18427,403.15994 L201.39755,401.91208 L193.07245,395.5954 z"/>
<path d="M209.0291,395.78635 L222.74695,396.03333 L217.28825,382.10312 z"/>
<path d="M156.94563,407.47632 L162.81834,406.26935 L154.47421,398.8517 z"/>
<path d="M182.63191,403.5737 L192.28133,406.19983 L194.18427,403.15994 z"/>
<path d="M201.39755,401.91208 L222.74695,396.03333 L209.0291,395.78635 z"/>
<path d="M246.60063,386.73856 L265.4968,371.4821 L251.06065,370.06244 z"/>
<path d="M65.59775,359.8705 L72.55875,374.29773 L68.50785,358.56116 z"/>
<path d="M83.140816,372.50003 L76.21703,384.433 L98.06963,380.77805 z"/>
<path d="M109.10267,389.51666 L126.07069,401.3084 L125.54496,393.9378 z"/>
<path d="M88.937904,403.5615 L126.07069,401.3084 L109.10267,389.51666 z"/>
<path d="M134.40805,400.63416 L156.94563,407.47632 L154.47421,398.8517 z"/>
<path d="M246.60063,386.73856 L242,368 L227.44537,385.7105 z"/>
<path d="M251.06065,370.06244 L265.4968,371.4821 L242,368 z"/>
<path d="M126.07069,401.3084 L156.94563,407.47632 L134.40805,400.63416 z"/>
<path d="M192,411.30127 L192.28133,406.19983 L182.63191,403.5737 z"/>
<path d="M192,411.30127 L182.63191,403.5737 L162.81834,406.26935 z"/>
<path d="M194.18427,403.15994 L192.28133,406.19983 L201.39755,401.91208 z"/>
<path d="M231.75554,398.2117 L231.99391,396.8022 L222.74695,396.03333 z"/>
<path d="M241.09135,391.84213 L246.60063,386.73856 L227.44537,385.7105 z"/>
<path d="M231.99391,396.8022 L227.44537,385.7105 L222.74695,396.03333 z"/>
<path d="M231.99391,396.8022 L241.09135,391.84213 L227.44537,385.7105 z"/>
<path d="M246.60063,386.73856 L268.87463,373.51483 L265.4968,371.4821 z"/>
<path d="M281.54276,388.06372 L268.87463,373.51483 L263.5941,402.3639 z"/>
<path d="M231.75554,398.2117 L222.74695,396.03333 L243.73747,406.83752 z"/>
<path d="M65.59775,359.8705 L60.432808,370.7385 L72.55875,374.29773 z"/>
<path d="M72.55875,374.29773 L76.21703,384.433 L83.140816,372.50003 z"/>
<path d="M49.837997,379.6056 L60.230083,370.37988 L65.59775,359.8705 z"/>
<path d="M49.837997,379.6056 L65.59775,359.8705 L69.83606,349.9903 z"/>
<path d="M60.230083,370.37988 L60.432808,370.7385 L65.59775,359.8705 z"/>
<path d="M243.73747,406.83752 L222.74695,396.03333 L201.39755,401.91208 z"/>
<path d="M231.99391,396.8022 L231.75554,398.2117 L241.09135,391.84213 z"/>
<path d="M241.09135,391.84213 L243.73747,406.83752 L246.60063,386.73856 z"/>
<path d="M71.78444,388.18704 L76.21703,384.433 L72.55875,374.29773 z"/>
<path d="M156.94563,407.47632 L192,411.30127 L162.81834,406.26935 z"/>
<path d="M192.28133,406.19983 L192,411.30127 L201.39755,401.91208 z"/>
<path d="M74.46117,401.5214 L90.29925,399.15323 L76.21703,384.433 z"/>
<path d="M76.21703,384.433 L90.29925,399.15323 L98.06963,380.77805 z"/>
<path d="M126.07069,401.3084 L73.67294,408.1693 L156.94563,407.47632 z"/>
<path d="M60.432808,370.7385 L71.78444,388.18704 L72.55875,374.29773 z"/>
<path d="M74.46117,401.5214 L88.937904,403.5615 L90.29925,399.15323 z"/>
<path d="M90.29925,399.15323 L88.937904,403.5615 L109.10267,389.51666 z"/>
<path d="M156.94563,407.47632 L73.67294,408.1693 L192,411.30127 z"/>
<path d="M192,411.30127 L243.73747,406.83752 L201.39755,401.91208 z"/>
<path d="M231.75554,398.2117 L243.73747,406.83752 L241.09135,391.84213 z"/>
<path d="M60.230083,370.37988 L49.837997,379.6056 L60.432808,370.7385 z"/>
<path d="M60.432808,370.7385 L49.837997,379.6056 L71.78444,388.18704 z"/>
<path d="M71.78444,388.18704 L74.46117,401.5214 L76.21703,384.433 z"/>
<path d="M91.62173,302.87387 L49.837997,379.6056 L69.83606,349.9903 z"/>
<path d="M38.35317,396.27792 L49.837997,379.6056 L91.62173,302.87387 z"/>
<path d="M60.424206,404.935 L74.46117,401.5214 L71.78444,388.18704 z"/>
<path d="M263.5941,402.3639 L268.87463,373.51483 L246.60063,386.73856 z"/>
<path d="M268.87463,373.51483 L305.59952,377.65494 L265.4968,371.4821 z"/>
<path d="M243.73747,406.83752 L263.5941,402.3639 L246.60063,386.73856 z"/>
<path d="M60.424206,404.935 L73.67294,408.1693 L74.46117,401.5214 z"/>
<path d="M74.46117,401.5214 L73.67294,408.1693 L88.937904,403.5615 z"/>
<path d="M88.937904,403.5615 L73.67294,408.1693 L126.07069,401.3084 z"/>
<path d="M291.07343,392.07813 L290.20465,386.68347 L281.54276,388.06372 z"/>
<path d="M281.54276,388.06372 L290.20465,386.68347 L268.87463,373.51483 z"/>
<path d="M291.07343,392.07813 L292.94348,385.5151 L290.20465,386.68347 z"/>
<path d="M290.20465,386.68347 L295.13232,383.58514 L268.87463,373.51483 z"/>
<path d="M292.94348,385.5151 L295.13232,383.58514 L290.20465,386.68347 z"/>
<path d="M243.73747,406.83752 L271.11908,405.02963 L263.5941,402.3639 z"/>
<path d="M263.5941,402.3639 L271.11908,405.02963 L281.54276,388.06372 z"/>
<path d="M297.13406,387.14966 L305.59952,377.65494 L295.13232,383.58514 z"/>
<path d="M281.19113,407.02985 L271.11908,405.02963 L243.73747,406.83752 z"/>
<path d="M49.837997,379.6056 L60.424206,404.935 L71.78444,388.18704 z"/>
<path d="M297.13406,387.14966 L295.13232,383.58514 L292.94348,385.5151 z"/>
<path d="M295.13232,383.58514 L305.59952,377.65494 L268.87463,373.51483 z"/>
<path d="M289.09268,396.407 L291.07343,392.07813 L281.54276,388.06372 z"/>
<path d="M291.07343,392.07813 L297.13406,387.14966 L292.94348,385.5151 z"/>
<path d="M271.11908,405.02963 L278.54987,403.24652 L281.54276,388.06372 z"/>
<path d="M291.07343,392.07813 L306.78146,393.3134 L297.13406,387.14966 z"/>
<path d="M278.54987,403.24652 L289.09268,396.407 L281.54276,388.06372 z"/>
<path d="M297.13406,387.14966 L312.6901,385.24472 L305.59952,377.65494 z"/>
<path d="M271.11908,405.02963 L281.19113,407.02985 L278.54987,403.24652 z"/>
<path d="M278.54987,403.24652 L285.92044,407.8048 L289.09268,396.407 z"/>
<path d="M289.09268,396.407 L293.6643,403.09027 L291.07343,392.07813 z"/>
<path d="M285.92044,407.8048 L281.19113,407.02985 L243.73747,406.83752 z"/>
<path d="M28.435936,411.30127 L38.35317,396.27792 L91.62173,302.87387 z"/>
<path d="M49.837997,379.6056 L38.35317,396.27792 L60.424206,404.935 z"/>
<path d="M192,411.30127 L285.92044,407.8048 L243.73747,406.83752 z"/>
<path d="M281.19113,407.02985 L285.92044,407.8048 L278.54987,403.24652 z"/>
<path d="M285.92044,407.8048 L293.6643,403.09027 L289.09268,396.407 z"/>
<path d="M306.78146,393.3134 L312.6901,385.24472 L297.13406,387.14966 z"/>
<path d="M306.716,397.7282 L306.78146,393.3134 L291.07343,392.07813 z"/>
<path d="M306.78146,393.3134 L313.4343,387.5691 L312.6901,385.24472 z"/>
<path d="M293.6643,403.09027 L306.716,397.7282 L291.07343,392.07813 z"/>
<path d="M306.78146,393.3134 L318.91806,392.73953 L313.4343,387.5691 z"/>
<path d="M285.92044,407.8048 L294.30954,406.64517 L293.6643,403.09027 z"/>
<path d="M299.5276,407.69186 L306.716,397.7282 L293.6643,403.09027 z"/>
<path d="M38.35317,396.27792 L35.481842,408.11197 L60.424206,404.935 z"/>
<path d="M60.424206,404.935 L35.481842,408.11197 L73.67294,408.1693 z"/>
<path d="M73.67294,408.1693 L28.435936,411.30127 L192,411.30127 z"/>
<path d="M285.92044,407.8048 L299.5276,407.69186 L294.30954,406.64517 z"/>
<path d="M294.30954,406.64517 L299.5276,407.69186 L293.6643,403.09027 z"/>
<path d="M355.56406,411.30127 L299.5276,407.69186 L285.92044,407.8048 z"/>
<path d="M320.33188,403.38315 L318.91806,392.73953 L306.716,397.7282 z"/>
<path d="M306.716,397.7282 L318.91806,392.73953 L306.78146,393.3134 z"/>
<path d="M313.4343,387.5691 L327.8779,385.04733 L312.6901,385.24472 z"/>
<path d="M312.6901,385.24472 L334.96313,374.17993 L305.59952,377.65494 z"/>
<path d="M327.8779,385.04733 L334.96313,374.17993 L312.6901,385.24472 z"/>
<path d="M318.91806,392.73953 L327.8779,385.04733 L313.4343,387.5691 z"/>
<path d="M327.8779,385.04733 L338.17212,373.90997 L334.96313,374.17993 z"/>
<path d="M334.96313,374.17993 L350.15384,368.67853 L305.59952,377.65494 z"/>
<path d="M38.35317,396.27792 L28.435936,411.30127 L35.481842,408.11197 z"/>
<path d="M35.481842,408.11197 L28.435936,411.30127 L73.67294,408.1693 z"/>
<path d="M318.91806,392.73953 L336.00943,401.1349 L327.8779,385.04733 z"/>
<path d="M353.00873,373.76468 L348.7783,369.65488 L349.4732,384.03607 z"/>
<path d="M299.5276,407.69186 L320.33188,403.38315 L306.716,397.7282 z"/>
<path d="M348.7783,369.65488 L338.17212,373.90997 L349.4732,384.03607 z"/>
<path d="M338.17212,373.90997 L348.7783,369.65488 L334.96313,374.17993 z"/>
<path d="M353.00873,373.76468 L350.15384,368.67853 L348.7783,369.65488 z"/>
<path d="M348.7783,369.65488 L350.15384,368.67853 L334.96313,374.17993 z"/>
<path d="M349.4732,384.03607 L338.17212,373.90997 L343.74106,393.47452 z"/>
<path d="M343.74106,393.47452 L338.17212,373.90997 L327.8779,385.04733 z"/>
<path d="M355.56406,411.30127 L336.00943,401.1349 L320.33188,403.38315 z"/>
<path d="M320.33188,403.38315 L336.00943,401.1349 L318.91806,392.73953 z"/>
<path d="M336.00943,401.1349 L343.74106,393.47452 L327.8779,385.04733 z"/>
<path d="M349.7993,399.1003 L351.07877,393.9885 L343.74106,393.47452 z"/>
<path d="M343.74106,393.47452 L351.07877,393.9885 L349.4732,384.03607 z"/>
<path d="M349.4732,384.03607 L362.58035,381.96024 L353.00873,373.76468 z"/>
<path d="M355.56406,411.30127 L349.7993,399.1003 L336.00943,401.1349 z"/>
<path d="M336.00943,401.1349 L349.7993,399.1003 L343.74106,393.47452 z"/>
<path d="M357.38715,396.558 L362.58035,381.96024 L351.07877,393.9885 z"/>
<path d="M351.07877,393.9885 L362.58035,381.96024 L349.4732,384.03607 z"/>
<path d="M353.00873,373.76468 L380.56406,368 L350.15384,368.67853 z"/>
<path d="M367.78104,383.27072 L363.73077,380.6301 L362.58035,381.96024 z"/>
<path d="M362.58035,381.96024 L363.73077,380.6301 L353.00873,373.76468 z"/>
<path d="M349.7993,399.1003 L357.38715,396.558 L351.07877,393.9885 z"/>
<path d="M368.06406,389.65063 L367.78104,383.27072 L362.58035,381.96024 z"/>
<path d="M363.73077,380.6301 L380.56406,368 L353.00873,373.76468 z"/>
<path d="M368.06406,389.65063 L372.7573,379.9458 L367.78104,383.27072 z"/>
<path d="M367.78104,383.27072 L372.7573,379.9458 L363.73077,380.6301 z"/>
<path d="M372.7573,379.9458 L380.56406,368 L363.73077,380.6301 z"/>
<path d="M357.38715,396.558 L368.06406,389.65063 L362.58035,381.96024 z"/>
<path d="M372.7573,379.9458 L368.06406,389.65063 L380.56406,368 z"/>
<path d="M349.7993,399.1003 L355.56406,411.30127 L357.38715,396.558 z"/>
<path d="M357.38715,396.558 L355.56406,411.30127 L368.06406,389.65063 z"/>
<path d="M368.06406,389.65063 L355.56406,411.30127 L380.56406,368 z"/>
<path d="M299.5276,407.69186 L355.56406,411.30127 L320.33188,403.38315 z"/>
<path d="M192,411.30127 L355.56406,411.30127 L285.92044,407.8048 z"/>
<path d="M247.27707,213.30235 L247.85841,213.01105 L236.28203,204.69873 z"/>
<path d="M247.85841,213.01105 L246.56894,193.41377 L236.28203,204.69873 z"/>
<path d="M247.85841,213.01105 L254.0137,197.38515 L246.56894,193.41377 z"/>
<path d="M247.85841,213.01105 L263.11697,196.95076 L254.0137,197.38515 z"/>
<path d="M254.0137,197.38515 L271.18454,190.06055 L246.56894,193.41377 z"/>
<path d="M247.27707,213.30235 L258.3646,227.96716 L247.85841,213.01105 z"/>
<path d="M247.85841,213.01105 L258.3646,227.96716 L263.11697,196.95076 z"/>
<path d="M236.28203,204.69873 L258.3646,227.96716 L247.27707,213.30235 z"/>
<path d="M285.31195,208.44493 L271.18454,190.06055 L263.11697,196.95076 z"/>
<path d="M263.11697,196.95076 L271.18454,190.06055 L254.0137,197.38515 z"/>
<path d="M271.18454,190.06055 L233.60739,174.57285 L246.56894,193.41377 z"/>
<path d="M246.56894,193.41377 L233.60739,174.57285 L236.28203,204.69873 z"/>
<path d="M258.3646,227.96716 L275.87802,224.79453 L263.11697,196.95076 z"/>
<path d="M286.2695,243.01485 L279.26523,226.12212 L275.87802,224.79453 z"/>
<path d="M275.87802,224.79453 L285.31195,208.44493 L263.11697,196.95076 z"/>
<path d="M279.26523,226.12212 L285.31195,208.44493 L275.87802,224.79453 z"/>
<path d="M258.3646,227.96716 L286.2695,243.01485 L275.87802,224.79453 z"/>
<path d="M279.26523,226.12212 L298.78204,226.34937 L285.31195,208.44493 z"/>
<path d="M286.2695,243.01485 L298.78204,226.34937 L279.26523,226.12212 z"/>
<path d="M289.68533,270.2866 L295.82224,249.01698 L286.2695,243.01485 z"/>
<path d="M286.2695,243.01485 L295.82224,249.01698 L298.78204,226.34937 z"/>
<path d="M214.59238,123.188965 L212.00043,144.12929 L232.75496,113.21799 z"/>
<path d="M233.60739,174.57285 L212.00043,144.12929 L236.28203,204.69873 z"/>
<path d="M258.3646,227.96716 L289.68533,270.2866 L286.2695,243.01485 z"/>
<path d="M304.60632,276.35513 L313.43887,252.95918 L295.82224,249.01698 z"/>
<path d="M295.82224,249.01698 L313.43887,252.95918 L298.78204,226.34937 z"/>
<path d="M232.75496,113.21799 L212.00043,144.12929 L233.60739,174.57285 z"/>
<path d="M289.68533,270.2866 L304.60632,276.35513 L295.82224,249.01698 z"/>
<path d="M304.60632,276.35513 L318.194,262.96964 L313.43887,252.95918 z"/>
<path d="M271.18454,190.06055 L232.75496,113.21799 L233.60739,174.57285 z"/>
<path d="M285.31195,208.44493 L232.75496,113.21799 L271.18454,190.06055 z"/>
<path d="M298.78204,226.34937 L232.75496,113.21799 L285.31195,208.44493 z"/>
<path d="M232.75496,113.21799 L226.50868,107.41041 L214.59238,123.188965 z"/>
<path d="M312.55804,302.17868 L315.94595,288.47192 L304.60632,276.35513 z"/>
<path d="M304.60632,276.35513 L315.94595,288.47192 L318.194,262.96964 z"/>
<path d="M315.94595,288.47192 L325.75784,287.79666 L318.194,262.96964 z"/>
<path d="M289.68533,270.2866 L312.55804,302.17868 L304.60632,276.35513 z"/>
<path d="M315.94595,288.47192 L325.80914,295.61917 L325.75784,287.79666 z"/>
<path d="M312.55804,302.17868 L325.80914,295.61917 L315.94595,288.47192 z"/>
<path d="M199.39746,333.02924 L217,324.69873 L152.36313,328.56302 z"/>
<path d="M312.55804,302.17868 L319.92264,311.74948 L325.80914,295.61917 z"/>
<path d="M214.59238,123.188965 L167,84.69873 L212.00043,144.12929 z"/>
<path d="M226.50868,107.41041 L217,84.69873 L214.59238,123.188965 z"/>
<path d="M232.75496,113.21799 L217,84.69873 L226.50868,107.41041 z"/>
<path d="M298.78204,226.34937 L217,84.69873 L232.75496,113.21799 z"/>
<path d="M305.56406,324.69873 L319.92264,311.74948 L312.55804,302.17868 z"/>
<path d="M277.73953,345.58298 L270.92673,334.41177 L242,368 z"/>
<path d="M217,84.69873 L192,84.69873 L214.59238,123.188965 z"/>
<path d="M188.92136,342.3421 L199.39746,333.02924 L169.32552,341.026 z"/>
<path d="M304.64792,326.10202 L305.56406,324.69873 L264.2844,328.58987 z"/>
<path d="M270.92673,334.41177 L304.64792,326.10202 L264.2844,328.58987 z"/>
<path d="M305.56406,324.69873 L313.42892,343.84146 L319.92264,311.74948 z"/>
<path d="M277.73953,345.58298 L275.528,339.58917 L270.92673,334.41177 z"/>
<path d="M270.92673,334.41177 L264.2844,328.58987 L242,368 z"/>
<path d="M270.92673,334.41177 L296.8411,334.90042 L304.64792,326.10202 z"/>
<path d="M275.528,339.58917 L296.8411,334.90042 L270.92673,334.41177 z"/>
<path d="M304.64792,326.10202 L313.42892,343.84146 L305.56406,324.69873 z"/>
<path d="M242,368 L264.2844,328.58987 L217,324.69873 z"/>
<path d="M275.528,339.58917 L293.87863,345.00912 L296.8411,334.90042 z"/>
<path d="M192,84.69873 L167,84.69873 L214.59238,123.188965 z"/>
<path d="M199.39746,333.02924 L242,368 L217,324.69873 z"/>
<path d="M277.73953,345.58298 L293.87863,345.00912 L275.528,339.58917 z"/>
<path d="M296.8411,334.90042 L313.42892,343.84146 L304.64792,326.10202 z"/>
<path d="M169.32552,341.026 L187.35341,346.77176 L188.92136,342.3421 z"/>
<path d="M188.92136,342.3421 L189.57956,357.98236 L199.39746,333.02924 z"/>
<path d="M152.36313,328.56302 L169.32552,341.026 L199.39746,333.02924 z"/>
<path d="M293.87863,345.00912 L313.42892,343.84146 L296.8411,334.90042 z"/>
<path d="M319.92264,311.74948 L339.01852,346.4053 L325.80914,295.61917 z"/>
<path d="M159.15868,345.5942 L168.9523,347.54395 L169.32552,341.026 z"/>
<path d="M169.32552,341.026 L168.9523,347.54395 L187.35341,346.77176 z"/>
<path d="M187.35341,346.77176 L189.57956,357.98236 L188.92136,342.3421 z"/>
<path d="M168.9523,347.54395 L189.57956,357.98236 L187.35341,346.77176 z"/>
<path d="M277.73953,345.58298 L286.63843,363.93835 L293.87863,345.00912 z"/>
<path d="M293.87863,345.00912 L286.63843,363.93835 L313.42892,343.84146 z"/>
<path d="M189.57956,357.98236 L242,368 L199.39746,333.02924 z"/>
<path d="M168.9523,347.54395 L157.74396,350.0104 L189.57956,357.98236 z"/>
<path d="M152.36313,328.56302 L151.58893,339.45135 L169.32552,341.026 z"/>
<path d="M130.52307,339.86417 L151.58893,339.45135 L152.36313,328.56302 z"/>
<path d="M151.58893,339.45135 L159.15868,345.5942 L169.32552,341.026 z"/>
<path d="M242,368 L286.63843,363.93835 L277.73953,345.58298 z"/>
<path d="M151.58893,339.45135 L157.74396,350.0104 L159.15868,345.5942 z"/>
<path d="M131.2993,360.17313 L157.74396,350.0104 L151.58893,339.45135 z"/>
<path d="M159.15868,345.5942 L157.74396,350.0104 L168.9523,347.54395 z"/>
<path d="M330.5161,352.54013 L339.01852,346.4053 L313.42892,343.84146 z"/>
<path d="M313.42892,343.84146 L339.01852,346.4053 L319.92264,311.74948 z"/>
<path d="M325.80914,295.61917 L380.56406,368 L325.75784,287.79666 z"/>
<path d="M286.63843,363.93835 L330.5161,352.54013 L313.42892,343.84146 z"/>
<path d="M128.43593,324.69873 L130.52307,339.86417 L152.36313,328.56302 z"/>
<path d="M286.63843,363.93835 L336.9724,357.0738 L330.5161,352.54013 z"/>
<path d="M330.5161,352.54013 L336.9724,357.0738 L339.01852,346.4053 z"/>
<path d="M128.43593,324.69873 L115.935936,346.34937 L130.52307,339.86417 z"/>
<path d="M130.52307,339.86417 L131.2993,360.17313 L151.58893,339.45135 z"/>
<path d="M157.74396,350.0104 L131.2993,360.17313 L189.57956,357.98236 z"/>
<path d="M189.57956,357.98236 L103.435936,368 L242,368 z"/>
<path d="M115.935936,346.34937 L131.2993,360.17313 L130.52307,339.86417 z"/>
<path d="M242,368 L380.56406,368 L286.63843,363.93835 z"/>
<path d="M286.63843,363.93835 L380.56406,368 L336.9724,357.0738 z"/>
<path d="M336.9724,357.0738 L380.56406,368 L339.01852,346.4053 z"/>
<path d="M339.01852,346.4053 L380.56406,368 L325.80914,295.61917 z"/>
<path d="M325.75784,287.79666 L380.56406,368 L318.194,262.96964 z"/>
<path d="M318.194,262.96964 L380.56406,368 L313.43887,252.95918 z"/>
<path d="M313.43887,252.95918 L380.56406,368 L298.78204,226.34937 z"/>
<path d="M298.78204,226.34937 L380.56406,368 L217,84.69873 z"/>
<path d="M115.935936,346.34937 L103.435936,368 L131.2993,360.17313 z"/>
<path d="M131.2993,360.17313 L103.435936,368 L189.57956,357.98236 z"/>
</g>
<g fill="none" id="3" stroke="black" stroke-width="0.2mm">
<rect height="576" width="384" x="0" y="0"/>
</g>
</svg>