<svg height="576px" viewBox="0 0 384 576" width="384px" xmlns="http://www.w3.org/2000/svg" xmlns:inkscape="http://www.inkscape.org/namespaces/inkscape">
<g fill="none" id="1" stroke="black" stroke-width="0.5mm">
<path d="M167,191.30127 L45.756443,401.30127 L338.24356,401.30127 L363.24356,358 L120.75645,358 L192,234.60254 z"/>
<path d="M120.75645,358 L363.24356,358 L217,104.69873 L167,104.69873 L288.24356,314.69873 L145.75644,314.69873 z"/>
<path d="M167,191.30127 L238.24356,314.69873 L288.24356,314.69873 L167,104.69873 L20.756443,358 L45.756443,401.30127 z"/>
</g>
<g fill="none" id="2" stroke="black" stroke-width="0.5mm">
<path d="M167,195.30127 L49.220547,399.30127 L337.08887,399.30127 L359.77945,360 L117.29234,360 L189.6906,234.60254 L167,195.30127"/>
<path d="M167,193.30127 L47.488495,400.30127 L337.6662,400.30127 L361.5115,359 L119.02439,359 L190.8453,234.60254 L167,193.30127"/>
<path d="M166.42265,196.30127 L167.57735,196.30127"/>
<path d="M165.8453,197.30127 L168.1547,197.30127"/>
<path d="M165.26794,198.30127 L168.73206,198.30127"/>
<path d="M164.6906,199.30127 L169.3094,199.30127"/>
<path d="M164.11325,200.30127 L169.88675,200.30127"/>
<path d="M163.5359,201.30127 L170.4641,201.30127"/>
<path d="M162.95854,202.30127 L171.04146,202.30127"/>
<path d="M162.3812,203.30127 L171.6188,203.30127"/>
<path d="M161.80385,204.30127 L172.19615,204.30127"/>
<path d="M161.2265,205.30127 L172.7735,205.30127"/>
<path d="M160.64915,206.30127 L173.35085,206.30127"/>
<path d="M160.0718,207.30127 L173.9282,207.30127"/>
<path d="M159.49445,208.30127 L174.50555,208.30127"/>
<path d="M158.9171,209.30127 L175.0829,209.30127"/>
<path d="M158.33975,210.30127 L175.66025,210.30127"/>
<path d="M157.76239,211.30127 L176.23761,211.30127"/>
<path d="M157.18504,212.30127 L176.81496,212.30127"/>
<path d="M156.6077,213.30127 L177.3923,213.30127"/>
<path d="M156.03035,214.30127 L177.96965,214.30127"/>
<path d="M155.45299,215.30127 L178.54701,215.30127"/>
<path d="M154.87564,216.30127 L179.12436,216.30127"/>
<path d="M154.2983,217.30127 L179.7017,217.30127"/>
<path d="M153.72095,218.30127 L180.27905,218.30127"/>
<path d="M153.1436,219.30127 L180.8564,219.30127"/>
<path d="M152.56624,220.30127 L181.43376,220.30127"/>
<path d="M151.98889,221.30127 L182.01111,221.30127"/>
<path d="M151.41154,222.30127 L182.58846,222.30127"/>
<path d="M150.8342,223.30127 L183.1658,223.30127"/>
<path d="M150.25684,224.30127 L183.74316,224.30127"/>
<path d="M149.67949,225.30127 L184.32051,225.30127"/>
<path d="M149.10214,226.30127 L184.89786,226.30127"/>
<path d="M148.5248,227.30127 L185.4752,227.30127"/>
<path d="M147.94745,228.30127 L186.05255,228.30127"/>
<path d="M147.37009,229.30127 L186.62991,229.30127"/>
<path d="M146.79274,230.30127 L187.20726,230.30127"/>
<path d="M146.2154,231.30127 L187.7846,231.30127"/>
<path d="M145.63805,232.30127 L188.36195,232.30127"/>
<path d="M145.06068,233.30127 L188.93932,233.30127"/>
<path d="M144.48334,234.30127 L189.51666,234.30127"/>
<path d="M143.90599,235.30127 L189.28719,235.30127"/>
<path d="M143.32864,236.30127 L188.70984,236.30127"/>
<path d="M142.75128,237.30127 L188.13249,237.30127"/>
<path d="M142.17393,238.30127 L187.55513,238.30127"/>
<path d="M141.59659,239.30127 L186.97778,239.30127"/>
<path d="M141.01924,240.30127 L186.40044,240.30127"/>
<path d="M140.4419,241.30127 L185.82309,241.30127"/>
<path d="M139.86453,242.30127 L185.24574,242.30127"/>
<path d="M139.28719,243.30127 L184.66838,243.30127"/>
<path d="M138.70984,244.30127 L184.09103,244.30127"/>
<path d="M138.13249,245.30127 L183.51369,245.30127"/>
<path d="M137.55513,246.30127 L182.93634,246.30127"/>
<path d="M136.97778,247.30127 L182.35898,247.30127"/>
<path d="M136.40044,248.30127 L181.78163,248.30127"/>
<path d="M135.82309,249.30127 L181.20428,249.30127"/>
<path d="M135.24574,250.30127 L180.62694,250.30127"/>
<path d="M134.66838,251.30127 L180.04958,251.30127"/>
<path d="M134.09103,252.30127 L179.47223,252.30127"/>
<path d="M133.51369,253.30127 L178.89488,253.30127"/>
<path d="M132.93634,254.30127 L178.31754,254.30127"/>
<path d="M132.35898,255.30127 L177.74019,255.30127"/>
<path d="M131.78163,256.30127 L177.16283,256.30127"/>
<path d="M131.20428,257.30127 L176.58548,257.30127"/>
<path d="M130.62694,258.30127 L176.00813,258.30127"/>
<path d="M130.04958,259.30127 L175.43079,259.30127"/>
<path d="M129.47223,260.30127 L174.85342,260.30127"/>
<path d="M128.89488,261.30127 L174.27608,261.30127"/>
<path d="M128.31754,262.30127 L173.69873,262.30127"/>
<path d="M127.74018,263.30127 L173.12138,263.30127"/>
<path d="M127.162834,264.30127 L172.54404,264.30127"/>
<path d="M126.58548,265.30127 L171.96667,265.30127"/>
<path d="M126.00813,266.30127 L171.38933,266.30127"/>
<path d="M125.43078,267.30127 L170.81198,267.30127"/>
<path d="M124.85343,268.30127 L170.23463,268.30127"/>
<path d="M124.27608,269.30127 L169.65727,269.30127"/>
<path d="M123.69873,270.30127 L169.07993,270.30127"/>
<path d="M123.121376,271.30127 L168.50258,271.30127"/>
<path d="M122.54403,272.30127 L167.92523,272.30127"/>
<path d="M121.96668,273.30127 L167.34787,273.30127"/>
<path d="M121.38933,274.30127 L166.77052,274.30127"/>
<path d="M120.81198,275.30127 L166.19318,275.30127"/>
<path d="M120.23463,276.30127 L165.61583,276.30127"/>
<path d="M119.65728,277.30127 L165.03848,277.30127"/>
<path d="M119.079926,278.30127 L164.46112,278.30127"/>
<path d="M118.50258,279.30127 L163.88377,279.30127"/>
<path d="M117.925224,280.30127 L163.30643,280.30127"/>
<path d="M117.34788,281.30127 L162.72908,281.30127"/>
<path d="M116.77052,282.30127 L162.15172,282.30127"/>
<path d="M116.19318,283.30127 L161.57437,283.30127"/>
<path d="M115.61583,284.30127 L160.99702,284.30127"/>
<path d="M115.038475,285.30127 L160.41968,285.30127"/>
<path d="M114.46113,286.30127 L159.84233,286.30127"/>
<path d="M113.88377,287.30127 L159.26497,287.30127"/>
<path d="M113.30643,288.30127 L158.68762,288.30127"/>
<path d="M112.72907,289.30127 L158.11028,289.30127"/>
<path d="M112.151726,290.30127 L157.53293,290.30127"/>
<path d="M111.57437,291.30127 L156.95557,291.30127"/>
<path d="M110.997025,292.30127 L156.37822,292.30127"/>
<path d="M110.41967,293.30127 L155.80087,293.30127"/>
<path d="M109.84232,294.30127 L155.22353,294.30127"/>
<path d="M109.26498,295.30127 L154.64616,295.30127"/>
<path d="M108.68762,296.30127 L154.06882,296.30127"/>
<path d="M108.110275,297.30127 L153.49147,297.30127"/>
<path d="M107.53292,298.30127 L152.91412,298.30127"/>
<path d="M106.955574,299.30127 L152.33678,299.30127"/>
<path d="M106.37822,300.30127 L151.75941,300.30127"/>
<path d="M105.80087,301.30127 L151.18207,301.30127"/>
<path d="M105.22352,302.30127 L150.60472,302.30127"/>
<path d="M104.64617,303.30127 L150.02737,303.30127"/>
<path d="M104.06882,304.30127 L149.45001,304.30127"/>
<path d="M103.49147,305.30127 L148.87267,305.30127"/>
<path d="M102.91412,306.30127 L148.29532,306.30127"/>
<path d="M102.33677,307.30127 L147.71797,307.30127"/>
<path d="M101.75942,308.30127 L147.14063,308.30127"/>
<path d="M101.18207,309.30127 L146.56326,309.30127"/>
<path d="M100.60472,310.30127 L145.98592,310.30127"/>
<path d="M100.02737,311.30127 L145.40857,311.30127"/>
<path d="M99.45002,312.30127 L144.83122,312.30127"/>
<path d="M98.872665,313.30127 L144.25386,313.30127"/>
<path d="M98.29532,314.30127 L143.67651,314.30127"/>
<path d="M97.717964,315.30127 L143.09917,315.30127"/>
<path d="M97.14062,316.30127 L142.52182,316.30127"/>
<path d="M96.56327,317.30127 L141.94446,317.30127"/>
<path d="M95.985916,318.30127 L141.36711,318.30127"/>
<path d="M95.40857,319.30127 L140.78976,319.30127"/>
<path d="M94.831215,320.30127 L140.21242,320.30127"/>
<path d="M94.25387,321.30127 L139.63507,321.30127"/>
<path d="M93.67651,322.30127 L139.05771,322.30127"/>
<path d="M93.09917,323.30127 L138.48036,323.30127"/>
<path d="M92.52181,324.30127 L137.90302,324.30127"/>
<path d="M91.944466,325.30127 L137.32567,325.30127"/>
<path d="M91.36711,326.30127 L136.7483,326.30127"/>
<path d="M90.789764,327.30127 L136.17096,327.30127"/>
<path d="M90.21242,328.30127 L135.59361,328.30127"/>
<path d="M89.63506,329.30127 L135.01627,329.30127"/>
<path d="M89.05772,330.30127 L134.43892,330.30127"/>
<path d="M88.48036,331.30127 L133.86156,331.30127"/>
<path d="M87.903015,332.30127 L133.28421,332.30127"/>
<path d="M87.32566,333.30127 L132.70686,333.30127"/>
<path d="M86.748314,334.30127 L132.12952,334.30127"/>
<path d="M86.17096,335.30127 L131.55215,335.30127"/>
<path d="M85.59361,336.30127 L130.97481,336.30127"/>
<path d="M85.01626,337.30127 L130.39746,337.30127"/>
<path d="M84.43891,338.30127 L129.82011,338.30127"/>
<path d="M83.861565,339.30127 L129.24275,339.30127"/>
<path d="M83.28421,340.30127 L128.6654,340.30127"/>
<path d="M82.70686,341.30127 L128.08806,341.30127"/>
<path d="M82.12951,342.30127 L127.51071,342.30127"/>
<path d="M81.55216,343.30127 L126.93336,343.30127"/>
<path d="M80.97481,344.30127 L126.35601,344.30127"/>
<path d="M80.39746,345.30127 L125.778656,345.30127"/>
<path d="M79.82011,346.30127 L125.20131,346.30127"/>
<path d="M79.24276,347.30127 L124.623955,347.30127"/>
<path d="M78.665405,348.30127 L124.04661,348.30127"/>
<path d="M78.08806,349.30127 L123.46925,349.30127"/>
<path d="M77.51071,350.30127 L122.89191,350.30127"/>
<path d="M76.93336,351.30127 L122.31455,351.30127"/>
<path d="M76.35601,352.30127 L121.737206,352.30127"/>
<path d="M75.778656,353.30127 L121.15986,353.30127"/>
<path d="M75.20131,354.30127 L120.582504,354.30127"/>
<path d="M74.623955,355.30127 L120.00516,355.30127"/>
<path d="M74.04661,356.30127 L119.4278,356.30127"/>
<path d="M73.46925,357.30127 L118.85046,357.30127"/>
<path d="M72.89191,358.30127 L118.2731,358.30127"/>
<path d="M72.31455,359.30127 L117.695755,359.30127"/>
<path d="M71.737206,360.30127 L359.60553,360.30127"/>
<path d="M71.15986,361.30127 L359.02817,361.30127"/>
<path d="M70.582504,362.30127 L358.4508,362.30127"/>
<path d="M70.00516,363.30127 L357.87347,363.30127"/>
<path d="M69.4278,364.30127 L357.2961,364.30127"/>
<path d="M68.85046,365.30127 L356.71875,365.30127"/>
<path d="M68.2731,366.30127 L356.14142,366.30127"/>
<path d="M67.695755,367.30127 L355.56406,367.30127"/>
<path d="M67.1184,368.30127 L354.98672,368.30127"/>
<path d="M66.54105,369.30127 L354.40936,369.30127"/>
<path d="M65.9637,370.30127 L353.832,370.30127"/>
<path d="M65.38635,371.30127 L353.25467,371.30127"/>
<path d="M64.809006,372.30127 L352.6773,372.30127"/>
<path d="M64.23165,373.30127 L352.09998,373.30127"/>
<path d="M63.6543,374.30127 L351.5226,374.30127"/>
<path d="M63.07695,375.30127 L350.94525,375.30127"/>
<path d="M62.4996,376.30127 L350.36792,376.30127"/>
<path d="M61.922253,377.30127 L349.79056,377.30127"/>
<path d="M61.344902,378.30127 L349.21323,378.30127"/>
<path d="M60.76755,379.30127 L348.63586,379.30127"/>
<path d="M60.1902,380.30127 L348.0585,380.30127"/>
<path d="M59.61285,381.30127 L347.48117,381.30127"/>
<path d="M59.0355,382.30127 L346.9038,382.30127"/>
<path d="M58.45815,383.30127 L346.32645,383.30127"/>
<path d="M57.8808,384.30127 L345.7491,384.30127"/>
<path d="M57.303448,385.30127 L345.17175,385.30127"/>
<path d="M56.726097,386.30127 L344.59442,386.30127"/>
<path d="M56.148746,387.30127 L344.01706,387.30127"/>
<path d="M55.5714,388.30127 L343.4397,388.30127"/>
<path d="M54.99405,389.30127 L342.86237,389.30127"/>
<path d="M54.4167,390.30127 L342.285,390.30127"/>
<path d="M53.839348,391.30127 L341.70767,391.30127"/>
<path d="M53.261997,392.30127 L341.1303,392.30127"/>
<path d="M52.684647,393.30127 L340.55295,393.30127"/>
<path d="M52.107296,394.30127 L339.97562,394.30127"/>
<path d="M51.529945,395.30127 L339.39825,395.30127"/>
<path d="M50.952595,396.30127 L338.8209,396.30127"/>
<path d="M50.375244,397.30127 L338.24356,397.30127"/>
<path d="M49.797894,398.30127 L337.6662,398.30127"/>
</g>
<g fill="none" id="3" stroke="black" stroke-width="0.2mm">
<rect height="576" width="384" x="0" y="0"/>
</g>
</svg>