<svg height="576px" viewBox="0 0 384 576" width="384px" xmlns="http://www.w3.org/2000/svg" xmlns:inkscape="http://www.inkscape.org/namespaces/inkscape">
<g fill="none" id="1" stroke="black" stroke-width="0.5mm">
<path d="M177,193.98076 L73.07695,373.98077 L310.92303,373.98077 L325.92303,348 L118.07695,348 L192,219.96152 L177,193.98076 z"/>
<path d="M118.07695,348 L325.92303,348 L207,142.01924 L177,142.01924 L280.92303,322.01923 L133.07695,322.01923 L118.07695,348 z"/>
<path d="M73.07695,373.98077 L58.07695,348 L177,142.01924 L280.92303,322.01923 L250.92305,322.01923 L177,193.98076 L73.07695,373.98077 z"/>
</g>
<g fill="none" id="2" stroke="black" stroke-width="0.2mm">
<path d="M176.98889,194 L177.01111,194"/>
<path d="M176.41154,195 L177.58846,195"/>
<path d="M175.8342,196 L178.1658,196"/>
<path d="M175.25684,197 L178.74316,197"/>
<path d="M174.67949,198 L179.32051,198"/>
<path d="M174.10214,199 L179.89786,199"/>
<path d="M173.5248,200 L180.4752,200"/>
<path d="M172.94745,201 L181.05255,201"/>
<path d="M172.37009,202 L181.62991,202"/>
<path d="M171.79274,203 L182.20726,203"/>
<path d="M171.2154,204 L182.7846,204"/>
<path d="M170.63805,205 L183.36195,205"/>
<path d="M170.06068,206 L183.93932,206"/>
<path d="M169.48334,207 L184.51666,207"/>
<path d="M168.90599,208 L185.09401,208"/>
<path d="M168.32864,209 L185.67136,209"/>
<path d="M167.75128,210 L186.24872,210"/>
<path d="M167.17393,211 L186.82607,211"/>
<path d="M166.59659,212 L187.40341,212"/>
<path d="M166.01924,213 L187.98076,213"/>
<path d="M165.4419,214 L188.5581,214"/>
<path d="M164.86453,215 L189.13547,215"/>
<path d="M164.28719,216 L189.71281,216"/>
<path d="M163.70984,217 L190.29016,217"/>
<path d="M163.13249,218 L190.86751,218"/>
<path d="M162.55513,219 L191.44487,219"/>
<path d="M161.97778,220 L191.97778,220"/>
<path d="M161.40044,221 L191.40044,221"/>
<path d="M160.82309,222 L190.82309,222"/>
<path d="M160.24574,223 L190.24574,223"/>
<path d="M159.66838,224 L189.66838,224"/>
<path d="M159.09103,225 L189.09103,225"/>
<path d="M158.51369,226 L188.51369,226"/>
<path d="M157.93634,227 L187.93634,227"/>
<path d="M157.35898,228 L187.35898,228"/>
<path d="M156.78163,229 L186.78163,229"/>
<path d="M156.20428,230 L186.20428,230"/>
<path d="M155.62694,231 L185.62694,231"/>
<path d="M155.04958,232 L185.04958,232"/>
<path d="M154.47223,233 L184.47223,233"/>
<path d="M153.89488,234 L183.89488,234"/>
<path d="M153.31754,235 L183.31754,235"/>
<path d="M152.74019,236 L182.74019,236"/>
<path d="M152.16283,237 L182.16283,237"/>
<path d="M151.58548,238 L181.58548,238"/>
<path d="M151.00813,239 L181.00813,239"/>
<path d="M150.43079,240 L180.43079,240"/>
<path d="M149.85342,241 L179.85342,241"/>
<path d="M149.27608,242 L179.27608,242"/>
<path d="M148.69873,243 L178.69873,243"/>
<path d="M148.12138,244 L178.12138,244"/>
<path d="M147.54404,245 L177.54404,245"/>
<path d="M146.96667,246 L176.96667,246"/>
<path d="M146.38933,247 L176.38933,247"/>
<path d="M145.81198,248 L175.81198,248"/>
<path d="M145.23463,249 L175.23463,249"/>
<path d="M144.65727,250 L174.65727,250"/>
<path d="M144.07993,251 L174.07993,251"/>
<path d="M143.50258,252 L173.50258,252"/>
<path d="M142.92523,253 L172.92523,253"/>
<path d="M142.34787,254 L172.34787,254"/>
<path d="M141.77052,255 L171.77052,255"/>
<path d="M141.19318,256 L171.19318,256"/>
<path d="M140.61583,257 L170.61583,257"/>
<path d="M140.03848,258 L170.03848,258"/>
<path d="M139.46112,259 L169.46112,259"/>
<path d="M138.88377,260 L168.88377,260"/>
<path d="M138.30643,261 L168.30643,261"/>
<path d="M137.72908,262 L167.72908,262"/>
<path d="M137.15172,263 L167.15172,263"/>
<path d="M136.57437,264 L166.57437,264"/>
<path d="M135.99702,265 L165.99702,265"/>
<path d="M135.41968,266 L165.41968,266"/>
<path d="M134.84233,267 L164.84233,267"/>
<path d="M134.26497,268 L164.26497,268"/>
<path d="M133.68762,269 L163.68762,269"/>
<path d="M133.11028,270 L163.11028,270"/>
<path d="M132.53293,271 L162.53293,271"/>
<path d="M131.95557,272 L161.95557,272"/>
<path d="M131.37822,273 L161.37822,273"/>
<path d="M130.80087,274 L160.80087,274"/>
<path d="M130.22353,275 L160.22353,275"/>
<path d="M129.64616,276 L159.64616,276"/>
<path d="M129.06882,277 L159.06882,277"/>
<path d="M128.49147,278 L158.49147,278"/>
<path d="M127.91412,279 L157.91412,279"/>
<path d="M127.33677,280 L157.33678,280"/>
<path d="M126.75942,281 L156.75941,281"/>
<path d="M126.18207,282 L156.18207,282"/>
<path d="M125.60472,283 L155.60472,283"/>
<path d="M125.02737,284 L155.02737,284"/>
<path d="M124.45002,285 L154.45001,285"/>
<path d="M123.872665,286 L153.87267,286"/>
<path d="M123.29532,287 L153.29532,287"/>
<path d="M122.717964,288 L152.71797,288"/>
<path d="M122.14062,289 L152.14063,289"/>
<path d="M121.56327,290 L151.56326,290"/>
<path d="M120.985916,291 L150.98592,291"/>
<path d="M120.40857,292 L150.40857,292"/>
<path d="M119.831215,293 L149.83122,293"/>
<path d="M119.25387,294 L149.25386,294"/>
<path d="M118.67651,295 L148.67651,295"/>
<path d="M118.09917,296 L148.09917,296"/>
<path d="M117.52181,297 L147.52182,297"/>
<path d="M116.944466,298 L146.94446,298"/>
<path d="M116.36711,299 L146.36711,299"/>
<path d="M115.789764,300 L145.78976,300"/>
<path d="M115.21242,301 L145.21242,301"/>
<path d="M114.63506,302 L144.63507,302"/>
<path d="M114.05772,303 L144.05771,303"/>
<path d="M113.48036,304 L143.48036,304"/>
<path d="M112.903015,305 L142.90302,305"/>
<path d="M112.32566,306 L142.32567,306"/>
<path d="M111.748314,307 L141.7483,307"/>
<path d="M111.17096,308 L141.17096,308"/>
<path d="M110.59361,309 L140.59361,309"/>
<path d="M110.01626,310 L140.01627,310"/>
<path d="M109.43891,311 L139.43892,311"/>
<path d="M108.861565,312 L138.86156,312"/>
<path d="M108.28421,313 L138.28421,313"/>
<path d="M107.70686,314 L137.70686,314"/>
<path d="M107.12951,315 L137.12952,315"/>
<path d="M106.55216,316 L136.55215,316"/>
<path d="M105.97481,317 L135.97481,317"/>
<path d="M105.39746,318 L135.39746,318"/>
<path d="M104.82011,319 L134.82011,319"/>
<path d="M104.24276,320 L134.24275,320"/>
<path d="M103.665405,321 L133.6654,321"/>
<path d="M103.08806,322 L133.08806,322"/>
<path d="M102.51071,323 L132.51071,323"/>
<path d="M101.93336,324 L131.93336,324"/>
<path d="M101.35601,325 L131.356,325"/>
<path d="M100.778656,326 L130.77866,326"/>
<path d="M100.20131,327 L130.20131,327"/>
<path d="M99.623955,328 L129.62396,328"/>
<path d="M99.04661,329 L129.0466,329"/>
<path d="M98.46925,330 L128.46925,330"/>
<path d="M97.89191,331 L127.89191,331"/>
<path d="M97.31455,332 L127.31455,332"/>
<path d="M96.737206,333 L126.737206,333"/>
<path d="M96.15986,334 L126.15986,334"/>
<path d="M95.582504,335 L125.582504,335"/>
<path d="M95.00516,336 L125.00516,336"/>
<path d="M94.4278,337 L124.4278,337"/>
<path d="M93.85046,338 L123.85046,338"/>
<path d="M93.2731,339 L123.2731,339"/>
<path d="M92.695755,340 L122.695755,340"/>
<path d="M92.1184,341 L122.1184,341"/>
<path d="M91.54105,342 L121.54105,342"/>
<path d="M90.9637,343 L120.9637,343"/>
<path d="M90.38635,344 L120.38635,344"/>
<path d="M89.809006,345 L119.809006,345"/>
<path d="M89.23165,346 L119.23165,346"/>
<path d="M88.654305,347 L118.654305,347"/>
<path d="M88.07695,348 L118.07695,348"/>
<path d="M87.4996,349 L325,349"/>
<path d="M86.92225,350 L324.76834,350"/>
<path d="M86.3449,351 L324.191,351"/>
<path d="M85.76755,352 L323.61365,352"/>
<path d="M85.1902,353 L323.0363,353"/>
<path d="M84.61285,354 L322.45895,354"/>
<path d="M84.0355,355 L321.8816,355"/>
<path d="M83.45815,356 L321.30426,356"/>
<path d="M82.8808,357 L320.7269,357"/>
<path d="M82.30345,358 L320.14954,358"/>
<path d="M81.7261,359 L319.5722,359"/>
<path d="M81.14875,360 L318.99484,360"/>
<path d="M80.571396,361 L318.41748,361"/>
<path d="M79.99405,362 L317.84015,362"/>
<path d="M79.416695,363 L317.2628,363"/>
<path d="M78.83935,364 L316.68546,364"/>
<path d="M78.26199,365 L316.1081,365"/>
<path d="M77.68465,366 L315.53073,366"/>
<path d="M77.1073,367 L314.9534,367"/>
<path d="M76.529945,368 L314.37604,368"/>
<path d="M75.9526,369 L313.7987,369"/>
<path d="M75.375244,370 L313.22134,370"/>
<path d="M74.7979,371 L312.64398,371"/>
<path d="M74.22054,372 L312.06665,372"/>
<path d="M73.643196,373 L311.4893,373"/>
<path d="M175.8564,144 L178.1436,144"/>
<path d="M174.12436,147 L179.87564,147"/>
<path d="M172.3923,150 L181.6077,150"/>
<path d="M170.66025,153 L183.33975,153"/>
<path d="M168.9282,156 L185.0718,156"/>
<path d="M167.19615,159 L186.80385,159"/>
<path d="M165.4641,162 L188.5359,162"/>
<path d="M163.73206,165 L190.26794,165"/>
<path d="M162,168 L192,168"/>
<path d="M160.26794,171 L193.73206,171"/>
<path d="M158.5359,174 L195.4641,174"/>
<path d="M156.80385,177 L197.19615,177"/>
<path d="M155.0718,180 L198.9282,180"/>
<path d="M153.33975,183 L200.66025,183"/>
<path d="M151.6077,186 L202.3923,186"/>
<path d="M149.87564,189 L204.12436,189"/>
<path d="M148.1436,192 L205.8564,192"/>
<path d="M146.41154,195 L176.41154,195"/>
<path d="M177.58846,195 L207.58846,195"/>
<path d="M144.67949,198 L174.67949,198"/>
<path d="M179.32051,198 L209.32051,198"/>
<path d="M142.94745,201 L172.94745,201"/>
<path d="M181.05255,201 L211.05255,201"/>
<path d="M141.2154,204 L171.2154,204"/>
<path d="M182.7846,204 L212.7846,204"/>
<path d="M139.48334,207 L169.48334,207"/>
<path d="M184.51666,207 L214.51666,207"/>
<path d="M137.75128,210 L167.75128,210"/>
<path d="M186.24872,210 L216.24872,210"/>
<path d="M136.01924,213 L166.01924,213"/>
<path d="M187.98076,213 L217.98076,213"/>
<path d="M134.28719,216 L164.28719,216"/>
<path d="M189.71281,216 L219.71281,216"/>
<path d="M132.55513,219 L162.55513,219"/>
<path d="M191.44487,219 L221.44487,219"/>
<path d="M130.82309,222 L160.82309,222"/>
<path d="M193.17691,222 L223.17691,222"/>
<path d="M129.09103,225 L159.09103,225"/>
<path d="M194.90897,225 L224.90897,225"/>
<path d="M127.358986,228 L157.35898,228"/>
<path d="M196.64102,228 L226.64102,228"/>
<path d="M125.62693,231 L155.62694,231"/>
<path d="M198.37306,231 L228.37306,231"/>
<path d="M123.89488,234 L153.89488,234"/>
<path d="M200.10512,234 L230.10512,234"/>
<path d="M122.162834,237 L152.16283,237"/>
<path d="M201.83717,237 L231.83717,237"/>
<path d="M120.43078,240 L150.43079,240"/>
<path d="M203.56921,240 L233.56921,240"/>
<path d="M118.69873,243 L148.69873,243"/>
<path d="M205.30127,243 L235.30127,243"/>
<path d="M116.96668,246 L146.96667,246"/>
<path d="M207.03333,246 L237.03333,246"/>
<path d="M115.23463,249 L145.23463,249"/>
<path d="M208.76537,249 L238.76537,249"/>
<path d="M113.50258,252 L143.50258,252"/>
<path d="M210.49742,252 L240.49742,252"/>
<path d="M111.77052,255 L141.77052,255"/>
<path d="M212.22948,255 L242.22948,255"/>
<path d="M110.038475,258 L140.03848,258"/>
<path d="M213.96152,258 L243.96152,258"/>
<path d="M108.30643,261 L138.30643,261"/>
<path d="M215.69357,261 L245.69357,261"/>
<path d="M106.57437,264 L136.57437,264"/>
<path d="M217.42563,264 L247.42563,264"/>
<path d="M104.84232,267 L134.84233,267"/>
<path d="M219.15767,267 L249.15767,267"/>
<path d="M103.110275,270 L133.11028,270"/>
<path d="M220.88972,270 L250.88972,270"/>
<path d="M101.37822,273 L131.37822,273"/>
<path d="M222.62178,273 L252.62178,273"/>
<path d="M99.64617,276 L129.64616,276"/>
<path d="M224.35384,276 L254.35384,276"/>
<path d="M97.91412,279 L127.91412,279"/>
<path d="M226.08588,279 L256.08588,279"/>
<path d="M96.18207,282 L126.18207,282"/>
<path d="M227.81793,282 L257.81793,282"/>
<path d="M94.45002,285 L124.45002,285"/>
<path d="M229.54999,285 L259.55,285"/>
<path d="M92.717964,288 L122.717964,288"/>
<path d="M231.28203,288 L261.28204,288"/>
<path d="M90.985916,291 L120.985916,291"/>
<path d="M233.01408,291 L263.01407,291"/>
<path d="M89.25387,294 L119.25387,294"/>
<path d="M234.74614,294 L264.74612,294"/>
<path d="M87.52181,297 L117.52181,297"/>
<path d="M236.47818,297 L266.47818,297"/>
<path d="M85.789764,300 L115.789764,300"/>
<path d="M238.21024,300 L268.21024,300"/>
<path d="M84.05772,303 L114.05772,303"/>
<path d="M239.94229,303 L269.9423,303"/>
<path d="M82.32566,306 L112.32566,306"/>
<path d="M241.67433,306 L271.67435,306"/>
<path d="M80.59361,309 L110.59361,309"/>
<path d="M243.40639,309 L273.4064,309"/>
<path d="M78.861565,312 L108.861565,312"/>
<path d="M245.13844,312 L275.13843,312"/>
<path d="M77.12951,315 L107.12951,315"/>
<path d="M246.87048,315 L276.87048,315"/>
<path d="M75.39746,318 L105.39746,318"/>
<path d="M248.60254,318 L278.60254,318"/>
<path d="M73.665405,321 L103.665405,321"/>
<path d="M250.3346,321 L280,321"/>
<path d="M71.93336,324 L101.93336,324"/>
<path d="M70.20131,327 L100.20131,327"/>
<path d="M68.46925,330 L98.46925,330"/>
<path d="M66.737206,333 L96.737206,333"/>
<path d="M65.00516,336 L95.00516,336"/>
<path d="M63.273106,339 L93.2731,339"/>
<path d="M61.541054,342 L91.54105,342"/>
<path d="M59.809002,345 L89.809006,345"/>
<path d="M58.07695,348 L88.07695,348"/>
<path d="M59.809002,351 L86.3449,351"/>
<path d="M61.541054,354 L84.61285,354"/>
<path d="M63.273106,357 L82.8808,357"/>
<path d="M65.00516,360 L81.14875,360"/>
<path d="M66.737206,363 L79.416695,363"/>
<path d="M68.46925,366 L77.68465,366"/>
<path d="M70.20131,369 L75.9526,369"/>
<path d="M71.93336,372 L74.22054,372"/>
</g>
<g fill="none" id="3" stroke="black" stroke-width="0.2mm">
<rect height="576" width="384" x="0" y="0"/>
</g>
</svg>