<svg height="576px" viewBox="0 0 384 576" width="384px" xmlns="http://www.w3.org/2000/svg" xmlns:inkscape="http://www.inkscape.org/namespaces/inkscape">
<g fill="none" id="1" stroke="black" stroke-width="2.0px">
<path d="M172.8,115.2 L182.4,124.8"/>
<path d="M220.8,124.8 L230.4,134.4"/>
<path d="M230.4,124.8 L240,134.4"/>
<path d="M249.6,124.8 L240,134.4"/>
<path d="M124.8,134.4 L115.2,144"/>
<path d="M124.8,134.4 L134.4,144"/>
<path d="M134.4,134.4 L144,144"/>
<path d="M201.6,134.4 L192,144"/>
<path d="M211.2,134.4 L201.6,144"/>
<path d="M211.2,134.4 L220.8,144"/>
<path d="M249.6,134.4 L240,144"/>
<path d="M268.8,134.4 L259.2,144"/>
<path d="M96,144 L105.6,153.6"/>
<path d="M115.2,144 L105.6,153.6"/>
<path d="M124.8,144 L115.2,153.6"/>
<path d="M134.4,144 L124.8,153.6"/>
<path d="M144,144 L134.4,153.6"/>
<path d="M153.6,144 L144,153.6"/>
<path d="M182.4,144 L192,153.6"/>
<path d="M192,144 L201.6,153.6"/>
<path d="M211.2,144 L201.6,153.6"/>
<path d="M220.8,144 L211.2,153.6"/>
<path d="M220.8,144 L230.4,153.6"/>
<path d="M230.4,144 L240,153.6"/>
<path d="M249.6,144 L240,153.6"/>
<path d="M259.2,144 L249.6,153.6"/>
<path d="M259.2,144 L268.8,153.6"/>
<path d="M278.4,144 L288,153.6"/>
<path d="M96,153.6 L86.4,163.2"/>
<path d="M105.6,153.6 L115.2,163.2"/>
<path d="M124.8,153.6 L115.2,163.2"/>
<path d="M134.4,153.6 L124.8,163.2"/>
<path d="M144,153.6 L134.4,163.2"/>
<path d="M144,153.6 L153.6,163.2"/>
<path d="M163.2,153.6 L153.6,163.2"/>
<path d="M163.2,153.6 L172.8,163.2"/>
<path d="M172.8,153.6 L182.4,163.2"/>
<path d="M192,153.6 L182.4,163.2"/>
<path d="M192,153.6 L201.6,163.2"/>
<path d="M220.8,153.6 L211.2,163.2"/>
<path d="M220.8,153.6 L230.4,163.2"/>
<path d="M240,153.6 L230.4,163.2"/>
<path d="M249.6,153.6 L240,163.2"/>
<path d="M268.8,153.6 L259.2,163.2"/>
<path d="M268.8,153.6 L278.4,163.2"/>
<path d="M278.4,153.6 L288,163.2"/>
<path d="M297.6,153.6 L288,163.2"/>
<path d="M76.8,163.2 L86.4,172.8"/>
<path d="M86.4,163.2 L96,172.8"/>
<path d="M105.6,163.2 L96,172.8"/>
<path d="M124.8,163.2 L115.2,172.8"/>
<path d="M124.8,163.2 L134.4,172.8"/>
<path d="M134.4,163.2 L144,172.8"/>
<path d="M153.6,163.2 L144,172.8"/>
<path d="M163.2,163.2 L153.6,172.8"/>
<path d="M163.2,163.2 L172.8,172.8"/>
<path d="M172.8,163.2 L182.4,172.8"/>
<path d="M182.4,163.2 L192,172.8"/>
<path d="M201.6,163.2 L192,172.8"/>
<path d="M201.6,163.2 L211.2,172.8"/>
<path d="M220.8,163.2 L211.2,172.8"/>
<path d="M230.4,163.2 L220.8,172.8"/>
<path d="M230.4,163.2 L240,172.8"/>
<path d="M249.6,163.2 L240,172.8"/>
<path d="M259.2,163.2 L249.6,172.8"/>
<path d="M259.2,163.2 L268.8,172.8"/>
<path d="M268.8,163.2 L278.4,172.8"/>
<path d="M288,163.2 L278.4,172.8"/>
<path d="M297.6,163.2 L288,172.8"/>
<path d="M307.2,163.2 L297.6,172.8"/>
<path d="M86.4,172.8 L76.8,182.4"/>
<path d="M105.6,172.8 L96,182.4"/>
<path d="M105.6,172.8 L115.2,182.4"/>
<path d="M115.2,172.8 L124.8,182.4"/>
<path d="M134.4,172.8 L124.8,182.4"/>
<path d="M134.4,172.8 L144,182.4"/>
<path d="M144,172.8 L153.6,182.4"/>
<path d="M153.6,172.8 L163.2,182.4"/>
<path d="M163.2,172.8 L172.8,182.4"/>
<path d="M172.8,172.8 L182.4,182.4"/>
<path d="M182.4,172.8 L192,182.4"/>
<path d="M192,172.8 L201.6,182.4"/>
<path d="M211.2,172.8 L201.6,182.4"/>
<path d="M220.8,172.8 L211.2,182.4"/>
<path d="M220.8,172.8 L230.4,182.4"/>
<path d="M240,172.8 L230.4,182.4"/>
<path d="M240,172.8 L249.6,182.4"/>
<path d="M259.2,172.8 L268.8,182.4"/>
<path d="M278.4,172.8 L268.8,182.4"/>
<path d="M278.4,172.8 L288,182.4"/>
<path d="M297.6,172.8 L307.2,182.4"/>
<path d="M316.8,172.8 L307.2,182.4"/>
<path d="M57.6,182.4 L67.2,192"/>
<path d="M67.2,182.4 L76.8,192"/>
<path d="M76.8,182.4 L86.4,192"/>
<path d="M105.6,182.4 L96,192"/>
<path d="M105.6,182.4 L115.2,192"/>
<path d="M115.2,182.4 L124.8,192"/>
<path d="M134.4,182.4 L124.8,192"/>
<path d="M144,182.4 L153.6,192"/>
<path d="M153.6,182.4 L163.2,192"/>
<path d="M163.2,182.4 L172.8,192"/>
<path d="M172.8,182.4 L182.4,192"/>
<path d="M201.6,182.4 L192,192"/>
<path d="M211.2,182.4 L220.8,192"/>
<path d="M240,182.4 L230.4,192"/>
<path d="M249.6,182.4 L259.2,192"/>
<path d="M268.8,182.4 L259.2,192"/>
<path d="M268.8,182.4 L278.4,192"/>
<path d="M316.8,182.4 L326.4,192"/>
<path d="M48,192 L57.6,201.6"/>
<path d="M67.2,192 L57.6,201.6"/>
<path d="M67.2,192 L76.8,201.6"/>
<path d="M76.8,192 L86.4,201.6"/>
<path d="M96,192 L86.4,201.6"/>
<path d="M96,192 L105.6,201.6"/>
<path d="M115.2,192 L105.6,201.6"/>
<path d="M124.8,192 L115.2,201.6"/>
<path d="M134.4,192 L124.8,201.6"/>
<path d="M144,192 L153.6,201.6"/>
<path d="M182.4,192 L172.8,201.6"/>
<path d="M192,192 L201.6,201.6"/>
<path d="M201.6,192 L211.2,201.6"/>
<path d="M220.8,192 L211.2,201.6"/>
<path d="M230.4,192 L220.8,201.6"/>
<path d="M230.4,192 L240,201.6"/>
<path d="M240,192 L249.6,201.6"/>
<path d="M259.2,192 L268.8,201.6"/>
<path d="M268.8,192 L278.4,201.6"/>
<path d="M326.4,192 L316.8,201.6"/>
<path d="M336,192 L326.4,201.6"/>
<path d="M57.6,201.6 L48,211.2"/>
<path d="M67.2,201.6 L76.8,211.2"/>
<path d="M86.4,201.6 L76.8,211.2"/>
<path d="M86.4,201.6 L96,211.2"/>
<path d="M105.6,201.6 L96,211.2"/>
<path d="M124.8,201.6 L115.2,211.2"/>
<path d="M134.4,201.6 L124.8,211.2"/>
<path d="M134.4,201.6 L144,211.2"/>
<path d="M211.2,201.6 L201.6,211.2"/>
<path d="M220.8,201.6 L211.2,211.2"/>
<path d="M220.8,201.6 L230.4,211.2"/>
<path d="M240,201.6 L249.6,211.2"/>
<path d="M249.6,201.6 L259.2,211.2"/>
<path d="M259.2,201.6 L268.8,211.2"/>
<path d="M268.8,201.6 L278.4,211.2"/>
<path d="M278.4,201.6 L288,211.2"/>
<path d="M297.6,201.6 L288,211.2"/>
<path d="M307.2,201.6 L316.8,211.2"/>
<path d="M316.8,201.6 L326.4,211.2"/>
<path d="M336,201.6 L326.4,211.2"/>
<path d="M48,211.2 L38.4,220.8"/>
<path d="M48,211.2 L57.6,220.8"/>
<path d="M115.2,211.2 L124.8,220.8"/>
<path d="M211.2,211.2 L220.8,220.8"/>
<path d="M240,211.2 L230.4,220.8"/>
<path d="M240,211.2 L249.6,220.8"/>
<path d="M259.2,211.2 L249.6,220.8"/>
<path d="M259.2,211.2 L268.8,220.8"/>
<path d="M268.8,211.2 L278.4,220.8"/>
<path d="M278.4,211.2 L288,220.8"/>
<path d="M297.6,211.2 L288,220.8"/>
<path d="M307.2,211.2 L297.6,220.8"/>
<path d="M316.8,211.2 L307.2,220.8"/>
<path d="M316.8,211.2 L326.4,220.8"/>
<path d="M326.4,211.2 L336,220.8"/>
<path d="M345.6,211.2 L336,220.8"/>
<path d="M220.8,220.8 L230.4,230.4"/>
<path d="M240,220.8 L230.4,230.4"/>
<path d="M249.6,220.8 L259.2,230.4"/>
<path d="M268.8,220.8 L259.2,230.4"/>
<path d="M278.4,220.8 L268.8,230.4"/>
<path d="M297.6,220.8 L288,230.4"/>
<path d="M307.2,220.8 L297.6,230.4"/>
<path d="M316.8,220.8 L307.2,230.4"/>
<path d="M326.4,220.8 L336,230.4"/>
<path d="M345.6,220.8 L336,230.4"/>
<path d="M28.8,230.4 L38.4,240"/>
<path d="M38.4,230.4 L48,240"/>
<path d="M57.6,230.4 L67.2,240"/>
<path d="M144,230.4 L153.6,240"/>
<path d="M163.2,230.4 L153.6,240"/>
<path d="M172.8,230.4 L163.2,240"/>
<path d="M192,230.4 L182.4,240"/>
<path d="M192,230.4 L201.6,240"/>
<path d="M230.4,230.4 L220.8,240"/>
<path d="M240,230.4 L230.4,240"/>
<path d="M240,230.4 L249.6,240"/>
<path d="M259.2,230.4 L249.6,240"/>
<path d="M268.8,230.4 L278.4,240"/>
<path d="M297.6,230.4 L307.2,240"/>
<path d="M316.8,230.4 L307.2,240"/>
<path d="M326.4,230.4 L316.8,240"/>
<path d="M326.4,230.4 L336,240"/>
<path d="M345.6,230.4 L336,240"/>
<path d="M345.6,230.4 L355.2,240"/>
<path d="M28.8,240 L38.4,249.6"/>
<path d="M48,240 L38.4,249.6"/>
<path d="M57.6,240 L48,249.6"/>
<path d="M67.2,240 L76.8,249.6"/>
<path d="M124.8,240 L134.4,249.6"/>
<path d="M153.6,240 L163.2,249.6"/>
<path d="M182.4,240 L172.8,249.6"/>
<path d="M192,240 L182.4,249.6"/>
<path d="M201.6,240 L192,249.6"/>
<path d="M211.2,240 L220.8,249.6"/>
<path d="M220.8,240 L230.4,249.6"/>
<path d="M240,240 L230.4,249.6"/>
<path d="M249.6,240 L259.2,249.6"/>
<path d="M259.2,240 L268.8,249.6"/>
<path d="M278.4,240 L268.8,249.6"/>
<path d="M307.2,240 L316.8,249.6"/>
<path d="M316.8,240 L326.4,249.6"/>
<path d="M336,240 L326.4,249.6"/>
<path d="M336,240 L345.6,249.6"/>
<path d="M345.6,240 L355.2,249.6"/>
<path d="M57.6,249.6 L48,259.2"/>
<path d="M57.6,249.6 L67.2,259.2"/>
<path d="M76.8,249.6 L86.4,259.2"/>
<path d="M86.4,249.6 L96,259.2"/>
<path d="M105.6,249.6 L115.2,259.2"/>
<path d="M115.2,249.6 L124.8,259.2"/>
<path d="M124.8,249.6 L134.4,259.2"/>
<path d="M144,249.6 L134.4,259.2"/>
<path d="M144,249.6 L153.6,259.2"/>
<path d="M163.2,249.6 L153.6,259.2"/>
<path d="M163.2,249.6 L172.8,259.2"/>
<path d="M172.8,249.6 L182.4,259.2"/>
<path d="M182.4,249.6 L192,259.2"/>
<path d="M192,249.6 L201.6,259.2"/>
<path d="M201.6,249.6 L211.2,259.2"/>
<path d="M211.2,249.6 L220.8,259.2"/>
<path d="M220.8,249.6 L230.4,259.2"/>
<path d="M230.4,249.6 L240,259.2"/>
<path d="M249.6,249.6 L240,259.2"/>
<path d="M259.2,249.6 L249.6,259.2"/>
<path d="M259.2,249.6 L268.8,259.2"/>
<path d="M278.4,249.6 L268.8,259.2"/>
<path d="M278.4,249.6 L288,259.2"/>
<path d="M326.4,249.6 L316.8,259.2"/>
<path d="M336,249.6 L326.4,259.2"/>
<path d="M336,249.6 L345.6,259.2"/>
<path d="M345.6,249.6 L355.2,259.2"/>
<path d="M38.4,259.2 L28.8,268.8"/>
<path d="M38.4,259.2 L48,268.8"/>
<path d="M48,259.2 L57.6,268.8"/>
<path d="M57.6,259.2 L67.2,268.8"/>
<path d="M67.2,259.2 L76.8,268.8"/>
<path d="M86.4,259.2 L76.8,268.8"/>
<path d="M86.4,259.2 L96,268.8"/>
<path d="M96,259.2 L105.6,268.8"/>
<path d="M105.6,259.2 L115.2,268.8"/>
<path d="M115.2,259.2 L124.8,268.8"/>
<path d="M134.4,259.2 L144,268.8"/>
<path d="M144,259.2 L153.6,268.8"/>
<path d="M153.6,259.2 L163.2,268.8"/>
<path d="M163.2,259.2 L172.8,268.8"/>
<path d="M182.4,259.2 L172.8,268.8"/>
<path d="M192,259.2 L201.6,268.8"/>
<path d="M201.6,259.2 L211.2,268.8"/>
<path d="M211.2,259.2 L220.8,268.8"/>
<path d="M220.8,259.2 L230.4,268.8"/>
<path d="M230.4,259.2 L240,268.8"/>
<path d="M240,259.2 L249.6,268.8"/>
<path d="M249.6,259.2 L259.2,268.8"/>
<path d="M259.2,259.2 L268.8,268.8"/>
<path d="M278.4,259.2 L268.8,268.8"/>
<path d="M288,259.2 L278.4,268.8"/>
<path d="M297.6,259.2 L288,268.8"/>
<path d="M345.6,259.2 L336,268.8"/>
<path d="M355.2,259.2 L345.6,268.8"/>
<path d="M28.8,268.8 L19.2,278.4"/>
<path d="M28.8,268.8 L38.4,278.4"/>
<path d="M38.4,268.8 L48,278.4"/>
<path d="M48,268.8 L57.6,278.4"/>
<path d="M67.2,268.8 L57.6,278.4"/>
<path d="M96,268.8 L86.4,278.4"/>
<path d="M105.6,268.8 L96,278.4"/>
<path d="M124.8,268.8 L134.4,278.4"/>
<path d="M144,268.8 L134.4,278.4"/>
<path d="M144,268.8 L153.6,278.4"/>
<path d="M163.2,268.8 L172.8,278.4"/>
<path d="M182.4,268.8 L172.8,278.4"/>
<path d="M182.4,268.8 L192,278.4"/>
<path d="M201.6,268.8 L192,278.4"/>
<path d="M201.6,268.8 L211.2,278.4"/>
<path d="M220.8,268.8 L211.2,278.4"/>
<path d="M220.8,268.8 L230.4,278.4"/>
<path d="M240,268.8 L230.4,278.4"/>
<path d="M240,268.8 L249.6,278.4"/>
<path d="M259.2,268.8 L249.6,278.4"/>
<path d="M268.8,268.8 L278.4,278.4"/>
<path d="M288,268.8 L278.4,278.4"/>
<path d="M288,268.8 L297.6,278.4"/>
<path d="M364.8,268.8 L355.2,278.4"/>
<path d="M28.8,278.4 L19.2,288"/>
<path d="M57.6,278.4 L48,288"/>
<path d="M67.2,278.4 L76.8,288"/>
<path d="M86.4,278.4 L76.8,288"/>
<path d="M86.4,278.4 L96,288"/>
<path d="M105.6,278.4 L96,288"/>
<path d="M105.6,278.4 L115.2,288"/>
<path d="M124.8,278.4 L115.2,288"/>
<path d="M124.8,278.4 L134.4,288"/>
<path d="M144,278.4 L134.4,288"/>
<path d="M153.6,278.4 L144,288"/>
<path d="M153.6,278.4 L163.2,288"/>
<path d="M163.2,278.4 L172.8,288"/>
<path d="M192,278.4 L182.4,288"/>
<path d="M192,278.4 L201.6,288"/>
<path d="M211.2,278.4 L220.8,288"/>
<path d="M220.8,278.4 L230.4,288"/>
<path d="M230.4,278.4 L240,288"/>
<path d="M240,278.4 L249.6,288"/>
<path d="M249.6,278.4 L259.2,288"/>
<path d="M268.8,278.4 L259.2,288"/>
<path d="M278.4,278.4 L288,288"/>
<path d="M307.2,278.4 L297.6,288"/>
<path d="M307.2,278.4 L316.8,288"/>
<path d="M326.4,278.4 L316.8,288"/>
<path d="M28.8,288 L19.2,297.6"/>
<path d="M28.8,288 L38.4,297.6"/>
<path d="M67.2,288 L57.6,297.6"/>
<path d="M67.2,288 L76.8,297.6"/>
<path d="M76.8,288 L86.4,297.6"/>
<path d="M86.4,288 L96,297.6"/>
<path d="M96,288 L105.6,297.6"/>
<path d="M115.2,288 L105.6,297.6"/>
<path d="M124.8,288 L115.2,297.6"/>
<path d="M134.4,288 L124.8,297.6"/>
<path d="M144,288 L134.4,297.6"/>
<path d="M192,288 L182.4,297.6"/>
<path d="M201.6,288 L192,297.6"/>
<path d="M201.6,288 L211.2,297.6"/>
<path d="M211.2,288 L220.8,297.6"/>
<path d="M230.4,288 L220.8,297.6"/>
<path d="M268.8,288 L278.4,297.6"/>
<path d="M278.4,288 L288,297.6"/>
<path d="M288,288 L297.6,297.6"/>
<path d="M297.6,288 L307.2,297.6"/>
<path d="M307.2,288 L316.8,297.6"/>
<path d="M326.4,288 L316.8,297.6"/>
<path d="M326.4,288 L336,297.6"/>
<path d="M345.6,288 L336,297.6"/>
<path d="M345.6,288 L355.2,297.6"/>
<path d="M355.2,288 L364.8,297.6"/>
<path d="M19.2,297.6 L28.8,307.2"/>
<path d="M38.4,297.6 L28.8,307.2"/>
<path d="M38.4,297.6 L48,307.2"/>
<path d="M48,297.6 L57.6,307.2"/>
<path d="M67.2,297.6 L57.6,307.2"/>
<path d="M67.2,297.6 L76.8,307.2"/>
<path d="M86.4,297.6 L96,307.2"/>
<path d="M105.6,297.6 L96,307.2"/>
<path d="M105.6,297.6 L115.2,307.2"/>
<path d="M115.2,297.6 L124.8,307.2"/>
<path d="M134.4,297.6 L124.8,307.2"/>
<path d="M134.4,297.6 L144,307.2"/>
<path d="M153.6,297.6 L144,307.2"/>
<path d="M182.4,297.6 L192,307.2"/>
<path d="M201.6,297.6 L192,307.2"/>
<path d="M201.6,297.6 L211.2,307.2"/>
<path d="M211.2,297.6 L220.8,307.2"/>
<path d="M220.8,297.6 L230.4,307.2"/>
<path d="M230.4,297.6 L240,307.2"/>
<path d="M249.6,297.6 L240,307.2"/>
<path d="M259.2,297.6 L268.8,307.2"/>
<path d="M278.4,297.6 L268.8,307.2"/>
<path d="M288,297.6 L278.4,307.2"/>
<path d="M307.2,297.6 L297.6,307.2"/>
<path d="M307.2,297.6 L316.8,307.2"/>
<path d="M326.4,297.6 L316.8,307.2"/>
<path d="M345.6,297.6 L336,307.2"/>
<path d="M355.2,297.6 L345.6,307.2"/>
<path d="M364.8,297.6 L355.2,307.2"/>
<path d="M38.4,307.2 L48,316.8"/>
<path d="M76.8,307.2 L67.2,316.8"/>
<path d="M76.8,307.2 L86.4,316.8"/>
<path d="M86.4,307.2 L96,316.8"/>
<path d="M96,307.2 L105.6,316.8"/>
<path d="M115.2,307.2 L105.6,316.8"/>
<path d="M115.2,307.2 L124.8,316.8"/>
<path d="M134.4,307.2 L144,316.8"/>
<path d="M144,307.2 L153.6,316.8"/>
<path d="M211.2,307.2 L201.6,316.8"/>
<path d="M211.2,307.2 L220.8,316.8"/>
<path d="M230.4,307.2 L240,316.8"/>
<path d="M249.6,307.2 L240,316.8"/>
<path d="M259.2,307.2 L249.6,316.8"/>
<path d="M268.8,307.2 L259.2,316.8"/>
<path d="M288,307.2 L297.6,316.8"/>
<path d="M307.2,307.2 L297.6,316.8"/>
<path d="M316.8,307.2 L307.2,316.8"/>
<path d="M316.8,307.2 L326.4,316.8"/>
<path d="M326.4,307.2 L336,316.8"/>
<path d="M355.2,307.2 L345.6,316.8"/>
<path d="M28.8,316.8 L38.4,326.4"/>
<path d="M48,316.8 L57.6,326.4"/>
<path d="M57.6,316.8 L67.2,326.4"/>
<path d="M76.8,316.8 L67.2,326.4"/>
<path d="M86.4,316.8 L76.8,326.4"/>
<path d="M96,316.8 L86.4,326.4"/>
<path d="M96,316.8 L105.6,326.4"/>
<path d="M105.6,316.8 L115.2,326.4"/>
<path d="M124.8,316.8 L115.2,326.4"/>
<path d="M124.8,316.8 L134.4,326.4"/>
<path d="M144,316.8 L153.6,326.4"/>
<path d="M153.6,316.8 L163.2,326.4"/>
<path d="M211.2,316.8 L220.8,326.4"/>
<path d="M230.4,316.8 L220.8,326.4"/>
<path d="M230.4,316.8 L240,326.4"/>
<path d="M249.6,316.8 L240,326.4"/>
<path d="M249.6,316.8 L259.2,326.4"/>
<path d="M297.6,316.8 L307.2,326.4"/>
<path d="M307.2,316.8 L316.8,326.4"/>
<path d="M336,316.8 L326.4,326.4"/>
<path d="M345.6,316.8 L336,326.4"/>
<path d="M355.2,316.8 L345.6,326.4"/>
<path d="M38.4,326.4 L28.8,336"/>
<path d="M57.6,326.4 L67.2,336"/>
<path d="M76.8,326.4 L86.4,336"/>
<path d="M96,326.4 L105.6,336"/>
<path d="M124.8,326.4 L115.2,336"/>
<path d="M124.8,326.4 L134.4,336"/>
<path d="M134.4,326.4 L144,336"/>
<path d="M144,326.4 L153.6,336"/>
<path d="M153.6,326.4 L163.2,336"/>
<path d="M220.8,326.4 L211.2,336"/>
<path d="M220.8,326.4 L230.4,336"/>
<path d="M230.4,326.4 L240,336"/>
<path d="M249.6,326.4 L240,336"/>
<path d="M249.6,326.4 L259.2,336"/>
<path d="M307.2,326.4 L297.6,336"/>
<path d="M316.8,326.4 L307.2,336"/>
<path d="M326.4,326.4 L316.8,336"/>
<path d="M326.4,326.4 L336,336"/>
<path d="M336,326.4 L345.6,336"/>
<path d="M38.4,336 L48,345.6"/>
<path d="M48,336 L57.6,345.6"/>
<path d="M67.2,336 L57.6,345.6"/>
<path d="M76.8,336 L67.2,345.6"/>
<path d="M76.8,336 L86.4,345.6"/>
<path d="M96,336 L86.4,345.6"/>
<path d="M105.6,336 L96,345.6"/>
<path d="M124.8,336 L115.2,345.6"/>
<path d="M124.8,336 L134.4,345.6"/>
<path d="M134.4,336 L144,345.6"/>
<path d="M144,336 L153.6,345.6"/>
<path d="M163.2,336 L153.6,345.6"/>
<path d="M192,336 L201.6,345.6"/>
<path d="M211.2,336 L201.6,345.6"/>
<path d="M220.8,336 L211.2,345.6"/>
<path d="M240,336 L230.4,345.6"/>
<path d="M249.6,336 L259.2,345.6"/>
<path d="M268.8,336 L259.2,345.6"/>
<path d="M278.4,336 L268.8,345.6"/>
<path d="M307.2,336 L316.8,345.6"/>
<path d="M316.8,336 L326.4,345.6"/>
<path d="M336,336 L326.4,345.6"/>
<path d="M336,336 L345.6,345.6"/>
<path d="M345.6,336 L355.2,345.6"/>
<path d="M57.6,345.6 L48,355.2"/>
<path d="M67.2,345.6 L57.6,355.2"/>
<path d="M67.2,345.6 L76.8,355.2"/>
<path d="M86.4,345.6 L76.8,355.2"/>
<path d="M96,345.6 L86.4,355.2"/>
<path d="M105.6,345.6 L96,355.2"/>
<path d="M115.2,345.6 L105.6,355.2"/>
<path d="M115.2,345.6 L124.8,355.2"/>
<path d="M134.4,345.6 L124.8,355.2"/>
<path d="M144,345.6 L153.6,355.2"/>
<path d="M201.6,345.6 L192,355.2"/>
<path d="M220.8,345.6 L211.2,355.2"/>
<path d="M230.4,345.6 L220.8,355.2"/>
<path d="M240,345.6 L230.4,355.2"/>
<path d="M249.6,345.6 L240,355.2"/>
<path d="M249.6,345.6 L259.2,355.2"/>
<path d="M259.2,345.6 L268.8,355.2"/>
<path d="M268.8,345.6 L278.4,355.2"/>
<path d="M288,345.6 L278.4,355.2"/>
<path d="M316.8,345.6 L326.4,355.2"/>
<path d="M336,345.6 L345.6,355.2"/>
<path d="M57.6,355.2 L67.2,364.8"/>
<path d="M67.2,355.2 L76.8,364.8"/>
<path d="M105.6,355.2 L96,364.8"/>
<path d="M124.8,355.2 L115.2,364.8"/>
<path d="M144,355.2 L134.4,364.8"/>
<path d="M182.4,355.2 L172.8,364.8"/>
<path d="M192,355.2 L182.4,364.8"/>
<path d="M201.6,355.2 L192,364.8"/>
<path d="M211.2,355.2 L201.6,364.8"/>
<path d="M220.8,355.2 L211.2,364.8"/>
<path d="M220.8,355.2 L230.4,364.8"/>
<path d="M240,355.2 L249.6,364.8"/>
<path d="M259.2,355.2 L249.6,364.8"/>
<path d="M278.4,355.2 L268.8,364.8"/>
<path d="M288,355.2 L278.4,364.8"/>
<path d="M316.8,355.2 L326.4,364.8"/>
<path d="M336,355.2 L326.4,364.8"/>
<path d="M345.6,355.2 L336,364.8"/>
<path d="M76.8,364.8 L86.4,374.4"/>
<path d="M96,364.8 L86.4,374.4"/>
<path d="M105.6,364.8 L96,374.4"/>
<path d="M115.2,364.8 L105.6,374.4"/>
<path d="M182.4,364.8 L172.8,374.4"/>
<path d="M182.4,364.8 L192,374.4"/>
<path d="M201.6,364.8 L192,374.4"/>
<path d="M211.2,364.8 L220.8,374.4"/>
<path d="M220.8,364.8 L230.4,374.4"/>
<path d="M230.4,364.8 L240,374.4"/>
<path d="M240,364.8 L249.6,374.4"/>
<path d="M249.6,364.8 L259.2,374.4"/>
<path d="M259.2,364.8 L268.8,374.4"/>
<path d="M278.4,364.8 L268.8,374.4"/>
<path d="M278.4,364.8 L288,374.4"/>
<path d="M326.4,364.8 L316.8,374.4"/>
<path d="M336,364.8 L326.4,374.4"/>
<path d="M57.6,374.4 L48,384"/>
<path d="M105.6,374.4 L96,384"/>
<path d="M105.6,374.4 L115.2,384"/>
<path d="M124.8,374.4 L115.2,384"/>
<path d="M182.4,374.4 L172.8,384"/>
<path d="M182.4,374.4 L192,384"/>
<path d="M201.6,374.4 L192,384"/>
<path d="M211.2,374.4 L201.6,384"/>
<path d="M220.8,374.4 L211.2,384"/>
<path d="M220.8,374.4 L230.4,384"/>
<path d="M240,374.4 L230.4,384"/>
<path d="M259.2,374.4 L249.6,384"/>
<path d="M268.8,374.4 L259.2,384"/>
<path d="M307.2,374.4 L316.8,384"/>
<path d="M316.8,374.4 L326.4,384"/>
<path d="M336,374.4 L326.4,384"/>
<path d="M57.6,384 L67.2,393.6"/>
<path d="M67.2,384 L76.8,393.6"/>
<path d="M86.4,384 L96,393.6"/>
<path d="M105.6,384 L96,393.6"/>
<path d="M105.6,384 L115.2,393.6"/>
<path d="M115.2,384 L124.8,393.6"/>
<path d="M124.8,384 L134.4,393.6"/>
<path d="M144,384 L134.4,393.6"/>
<path d="M172.8,384 L163.2,393.6"/>
<path d="M182.4,384 L172.8,393.6"/>
<path d="M182.4,384 L192,393.6"/>
<path d="M201.6,384 L192,393.6"/>
<path d="M211.2,384 L201.6,393.6"/>
<path d="M220.8,384 L211.2,393.6"/>
<path d="M220.8,384 L230.4,393.6"/>
<path d="M240,384 L230.4,393.6"/>
<path d="M249.6,384 L240,393.6"/>
<path d="M259.2,384 L249.6,393.6"/>
<path d="M259.2,384 L268.8,393.6"/>
<path d="M278.4,384 L268.8,393.6"/>
<path d="M307.2,384 L316.8,393.6"/>
<path d="M326.4,384 L316.8,393.6"/>
<path d="M76.8,393.6 L67.2,403.2"/>
<path d="M86.4,393.6 L76.8,403.2"/>
<path d="M86.4,393.6 L96,403.2"/>
<path d="M105.6,393.6 L115.2,403.2"/>
<path d="M115.2,393.6 L124.8,403.2"/>
<path d="M124.8,393.6 L134.4,403.2"/>
<path d="M134.4,393.6 L144,403.2"/>
<path d="M153.6,393.6 L144,403.2"/>
<path d="M153.6,393.6 L163.2,403.2"/>
<path d="M172.8,393.6 L163.2,403.2"/>
<path d="M182.4,393.6 L192,403.2"/>
<path d="M192,393.6 L201.6,403.2"/>
<path d="M211.2,393.6 L201.6,403.2"/>
<path d="M211.2,393.6 L220.8,403.2"/>
<path d="M220.8,393.6 L230.4,403.2"/>
<path d="M230.4,393.6 L240,403.2"/>
<path d="M249.6,393.6 L240,403.2"/>
<path d="M259.2,393.6 L249.6,403.2"/>
<path d="M268.8,393.6 L259.2,403.2"/>
<path d="M268.8,393.6 L278.4,403.2"/>
<path d="M278.4,393.6 L288,403.2"/>
<path d="M76.8,403.2 L86.4,412.8"/>
<path d="M96,403.2 L86.4,412.8"/>
<path d="M96,403.2 L105.6,412.8"/>
<path d="M115.2,403.2 L105.6,412.8"/>
<path d="M124.8,403.2 L115.2,412.8"/>
<path d="M124.8,403.2 L134.4,412.8"/>
<path d="M144,403.2 L134.4,412.8"/>
<path d="M153.6,403.2 L144,412.8"/>
<path d="M153.6,403.2 L163.2,412.8"/>
<path d="M172.8,403.2 L163.2,412.8"/>
<path d="M182.4,403.2 L172.8,412.8"/>
<path d="M192,403.2 L182.4,412.8"/>
<path d="M192,403.2 L201.6,412.8"/>
<path d="M230.4,403.2 L220.8,412.8"/>
<path d="M230.4,403.2 L240,412.8"/>
<path d="M240,403.2 L249.6,412.8"/>
<path d="M268.8,403.2 L259.2,412.8"/>
<path d="M278.4,403.2 L268.8,412.8"/>
<path d="M278.4,403.2 L288,412.8"/>
<path d="M86.4,412.8 L96,422.4"/>
<path d="M105.6,412.8 L96,422.4"/>
<path d="M115.2,412.8 L105.6,422.4"/>
<path d="M115.2,412.8 L124.8,422.4"/>
<path d="M144,412.8 L134.4,422.4"/>
<path d="M153.6,412.8 L144,422.4"/>
<path d="M163.2,412.8 L153.6,422.4"/>
<path d="M163.2,412.8 L172.8,422.4"/>
<path d="M172.8,412.8 L182.4,422.4"/>
<path d="M182.4,412.8 L192,422.4"/>
<path d="M192,412.8 L201.6,422.4"/>
<path d="M211.2,412.8 L201.6,422.4"/>
<path d="M220.8,412.8 L230.4,422.4"/>
<path d="M240,412.8 L230.4,422.4"/>
<path d="M240,412.8 L249.6,422.4"/>
<path d="M249.6,412.8 L259.2,422.4"/>
<path d="M278.4,412.8 L268.8,422.4"/>
<path d="M278.4,412.8 L288,422.4"/>
<path d="M297.6,412.8 L288,422.4"/>
<path d="M105.6,422.4 L96,432"/>
<path d="M105.6,422.4 L115.2,432"/>
<path d="M115.2,422.4 L124.8,432"/>
<path d="M134.4,422.4 L124.8,432"/>
<path d="M153.6,422.4 L144,432"/>
<path d="M163.2,422.4 L153.6,432"/>
<path d="M172.8,422.4 L182.4,432"/>
<path d="M201.6,422.4 L192,432"/>
<path d="M201.6,422.4 L211.2,432"/>
<path d="M220.8,422.4 L230.4,432"/>
<path d="M230.4,422.4 L240,432"/>
<path d="M240,422.4 L249.6,432"/>
<path d="M268.8,422.4 L259.2,432"/>
<path d="M268.8,422.4 L278.4,432"/>
<path d="M288,422.4 L278.4,432"/>
<path d="M134.4,432 L124.8,441.6"/>
<path d="M134.4,432 L144,441.6"/>
<path d="M163.2,432 L153.6,441.6"/>
<path d="M163.2,432 L172.8,441.6"/>
<path d="M192,432 L201.6,441.6"/>
<path d="M201.6,432 L211.2,441.6"/>
<path d="M211.2,432 L220.8,441.6"/>
<path d="M249.6,432 L259.2,441.6"/>
<path d="M268.8,432 L259.2,441.6"/>
<path d="M134.4,441.6 L144,451.2"/>
<path d="M144,441.6 L153.6,451.2"/>
<path d="M163.2,441.6 L153.6,451.2"/>
<path d="M163.2,441.6 L172.8,451.2"/>
<path d="M172.8,441.6 L182.4,451.2"/>
<path d="M192,441.6 L182.4,451.2"/>
<path d="M211.2,441.6 L201.6,451.2"/>
<path d="M220.8,441.6 L211.2,451.2"/>
<path d="M182.4,451.2 L172.8,460.8"/>
<path d="M192,451.2 L182.4,460.8"/>
<path d="M192,451.2 L201.6,460.8"/>
<path d="M201.6,451.2 L211.2,460.8"/>
<circle cx="192" cy="288" r="186.2784"/>
<circle cx="192" cy="288" r="185.33759999999998"/>
<circle cx="192" cy="288" r="184.39679999999998"/>
<circle cx="192" cy="288" r="183.456"/>
<circle cx="192" cy="288" r="182.5152"/>
<circle cx="192" cy="288" r="181.5744"/>
<circle cx="192" cy="288" r="180.6336"/>
</g>
</svg>