<svg height="576px" viewBox="0 0 384 576" width="384px" xmlns="http://www.w3.org/2000/svg" xmlns:inkscape="http://www.inkscape.org/namespaces/inkscape">
<g fill="none" id="1" stroke="black" stroke-width="2.0px">
<path d="M336,0 L326.4,9.6"/>
<path d="M336,0 L345.6,9.6"/>
<path d="M355.2,0 L345.6,9.6"/>
<path d="M355.2,0 L364.8,9.6"/>
<path d="M364.8,0 L374.4,9.6"/>
<path d="M374.4,0 L384,9.6"/>
<path d="M336,9.6 L345.6,19.2"/>
<path d="M355.2,9.6 L345.6,19.2"/>
<path d="M355.2,9.6 L364.8,19.2"/>
<path d="M364.8,9.6 L374.4,19.2"/>
<path d="M384,9.6 L374.4,19.2"/>
<path d="M297.6,19.2 L288,28.8"/>
<path d="M307.2,19.2 L297.6,28.8"/>
<path d="M307.2,19.2 L316.8,28.8"/>
<path d="M364.8,19.2 L355.2,28.8"/>
<path d="M364.8,19.2 L374.4,28.8"/>
<path d="M384,19.2 L374.4,28.8"/>
<path d="M288,28.8 L278.4,38.4"/>
<path d="M288,28.8 L297.6,38.4"/>
<path d="M307.2,28.8 L297.6,38.4"/>
<path d="M307.2,28.8 L316.8,38.4"/>
<path d="M316.8,28.8 L326.4,38.4"/>
<path d="M374.4,28.8 L384,38.4"/>
<path d="M268.8,38.4 L278.4,48"/>
<path d="M288,38.4 L297.6,48"/>
<path d="M307.2,38.4 L297.6,48"/>
<path d="M316.8,38.4 L307.2,48"/>
<path d="M316.8,38.4 L326.4,48"/>
<path d="M336,38.4 L326.4,48"/>
<path d="M384,38.4 L374.4,48"/>
<path d="M268.8,48 L259.2,57.6"/>
<path d="M278.4,48 L288,57.6"/>
<path d="M288,48 L297.6,57.6"/>
<path d="M316.8,48 L307.2,57.6"/>
<path d="M326.4,48 L316.8,57.6"/>
<path d="M326.4,48 L336,57.6"/>
<path d="M336,48 L345.6,57.6"/>
<path d="M345.6,48 L355.2,57.6"/>
<path d="M249.6,57.6 L259.2,67.2"/>
<path d="M268.8,57.6 L259.2,67.2"/>
<path d="M268.8,57.6 L278.4,67.2"/>
<path d="M288,57.6 L278.4,67.2"/>
<path d="M288,57.6 L297.6,67.2"/>
<path d="M297.6,57.6 L307.2,67.2"/>
<path d="M316.8,57.6 L307.2,67.2"/>
<path d="M326.4,57.6 L316.8,67.2"/>
<path d="M326.4,57.6 L336,67.2"/>
<path d="M345.6,57.6 L355.2,67.2"/>
<path d="M259.2,67.2 L249.6,76.8"/>
<path d="M268.8,67.2 L259.2,76.8"/>
<path d="M278.4,67.2 L268.8,76.8"/>
<path d="M278.4,67.2 L288,76.8"/>
<path d="M288,67.2 L297.6,76.8"/>
<path d="M307.2,67.2 L297.6,76.8"/>
<path d="M316.8,67.2 L307.2,76.8"/>
<path d="M326.4,67.2 L316.8,76.8"/>
<path d="M355.2,67.2 L345.6,76.8"/>
<path d="M364.8,67.2 L355.2,76.8"/>
<path d="M230.4,76.8 L240,86.4"/>
<path d="M249.6,76.8 L259.2,86.4"/>
<path d="M268.8,76.8 L259.2,86.4"/>
<path d="M268.8,76.8 L278.4,86.4"/>
<path d="M278.4,76.8 L288,86.4"/>
<path d="M288,76.8 L297.6,86.4"/>
<path d="M297.6,76.8 L307.2,86.4"/>
<path d="M307.2,76.8 L316.8,86.4"/>
<path d="M326.4,76.8 L316.8,86.4"/>
<path d="M326.4,76.8 L336,86.4"/>
<path d="M336,76.8 L345.6,86.4"/>
<path d="M355.2,76.8 L345.6,86.4"/>
<path d="M355.2,76.8 L364.8,86.4"/>
<path d="M220.8,86.4 L230.4,96"/>
<path d="M240,86.4 L230.4,96"/>
<path d="M240,86.4 L249.6,96"/>
<path d="M249.6,86.4 L259.2,96"/>
<path d="M259.2,86.4 L268.8,96"/>
<path d="M307.2,86.4 L297.6,96"/>
<path d="M316.8,86.4 L307.2,96"/>
<path d="M326.4,86.4 L316.8,96"/>
<path d="M326.4,86.4 L336,96"/>
<path d="M336,86.4 L345.6,96"/>
<path d="M355.2,86.4 L345.6,96"/>
<path d="M220.8,96 L211.2,105.6"/>
<path d="M249.6,96 L259.2,105.6"/>
<path d="M259.2,96 L268.8,105.6"/>
<path d="M268.8,96 L278.4,105.6"/>
<path d="M288,96 L278.4,105.6"/>
<path d="M297.6,96 L288,105.6"/>
<path d="M297.6,96 L307.2,105.6"/>
<path d="M307.2,96 L316.8,105.6"/>
<path d="M326.4,96 L316.8,105.6"/>
<path d="M336,96 L326.4,105.6"/>
<path d="M336,96 L345.6,105.6"/>
<path d="M355.2,96 L345.6,105.6"/>
<path d="M201.6,105.6 L211.2,115.2"/>
<path d="M249.6,105.6 L259.2,115.2"/>
<path d="M278.4,105.6 L268.8,115.2"/>
<path d="M288,105.6 L297.6,115.2"/>
<path d="M307.2,105.6 L297.6,115.2"/>
<path d="M307.2,105.6 L316.8,115.2"/>
<path d="M316.8,105.6 L326.4,115.2"/>
<path d="M326.4,105.6 L336,115.2"/>
<path d="M345.6,105.6 L336,115.2"/>
<path d="M201.6,115.2 L192,124.8"/>
<path d="M211.2,115.2 L220.8,124.8"/>
<path d="M259.2,115.2 L249.6,124.8"/>
<path d="M259.2,115.2 L268.8,124.8"/>
<path d="M288,115.2 L278.4,124.8"/>
<path d="M307.2,115.2 L297.6,124.8"/>
<path d="M307.2,115.2 L316.8,124.8"/>
<path d="M326.4,115.2 L316.8,124.8"/>
<path d="M374.4,115.2 L384,124.8"/>
<path d="M192,124.8 L182.4,134.4"/>
<path d="M192,124.8 L201.6,134.4"/>
<path d="M201.6,124.8 L211.2,134.4"/>
<path d="M211.2,124.8 L220.8,134.4"/>
<path d="M230.4,124.8 L220.8,134.4"/>
<path d="M230.4,124.8 L240,134.4"/>
<path d="M240,124.8 L249.6,134.4"/>
<path d="M259.2,124.8 L249.6,134.4"/>
<path d="M259.2,124.8 L268.8,134.4"/>
<path d="M288,124.8 L278.4,134.4"/>
<path d="M297.6,124.8 L288,134.4"/>
<path d="M297.6,124.8 L307.2,134.4"/>
<path d="M316.8,124.8 L307.2,134.4"/>
<path d="M172.8,134.4 L182.4,144"/>
<path d="M182.4,134.4 L192,144"/>
<path d="M192,134.4 L201.6,144"/>
<path d="M201.6,134.4 L211.2,144"/>
<path d="M211.2,134.4 L220.8,144"/>
<path d="M220.8,134.4 L230.4,144"/>
<path d="M240,134.4 L230.4,144"/>
<path d="M249.6,134.4 L240,144"/>
<path d="M259.2,134.4 L249.6,144"/>
<path d="M268.8,134.4 L259.2,144"/>
<path d="M278.4,134.4 L268.8,144"/>
<path d="M288,134.4 L297.6,144"/>
<path d="M316.8,134.4 L307.2,144"/>
<path d="M316.8,134.4 L326.4,144"/>
<path d="M326.4,134.4 L336,144"/>
<path d="M336,134.4 L345.6,144"/>
<path d="M364.8,134.4 L355.2,144"/>
<path d="M374.4,134.4 L364.8,144"/>
<path d="M384,134.4 L374.4,144"/>
<path d="M172.8,144 L163.2,153.6"/>
<path d="M172.8,144 L182.4,153.6"/>
<path d="M182.4,144 L192,153.6"/>
<path d="M201.6,144 L192,153.6"/>
<path d="M211.2,144 L201.6,153.6"/>
<path d="M220.8,144 L211.2,153.6"/>
<path d="M220.8,144 L230.4,153.6"/>
<path d="M240,144 L230.4,153.6"/>
<path d="M249.6,144 L240,153.6"/>
<path d="M249.6,144 L259.2,153.6"/>
<path d="M259.2,144 L268.8,153.6"/>
<path d="M268.8,144 L278.4,153.6"/>
<path d="M288,144 L278.4,153.6"/>
<path d="M288,144 L297.6,153.6"/>
<path d="M307.2,144 L297.6,153.6"/>
<path d="M307.2,144 L316.8,153.6"/>
<path d="M316.8,144 L326.4,153.6"/>
<path d="M336,144 L326.4,153.6"/>
<path d="M336,144 L345.6,153.6"/>
<path d="M355.2,144 L345.6,153.6"/>
<path d="M364.8,144 L355.2,153.6"/>
<path d="M364.8,144 L374.4,153.6"/>
<path d="M163.2,153.6 L153.6,163.2"/>
<path d="M163.2,153.6 L172.8,163.2"/>
<path d="M182.4,153.6 L192,163.2"/>
<path d="M201.6,153.6 L211.2,163.2"/>
<path d="M230.4,153.6 L220.8,163.2"/>
<path d="M249.6,153.6 L240,163.2"/>
<path d="M259.2,153.6 L249.6,163.2"/>
<path d="M268.8,153.6 L259.2,163.2"/>
<path d="M268.8,153.6 L278.4,163.2"/>
<path d="M278.4,153.6 L288,163.2"/>
<path d="M297.6,153.6 L288,163.2"/>
<path d="M297.6,153.6 L307.2,163.2"/>
<path d="M316.8,153.6 L307.2,163.2"/>
<path d="M316.8,153.6 L326.4,163.2"/>
<path d="M336,153.6 L326.4,163.2"/>
<path d="M355.2,153.6 L364.8,163.2"/>
<path d="M144,163.2 L153.6,172.8"/>
<path d="M153.6,163.2 L163.2,172.8"/>
<path d="M172.8,163.2 L163.2,172.8"/>
<path d="M172.8,163.2 L182.4,172.8"/>
<path d="M211.2,163.2 L220.8,172.8"/>
<path d="M230.4,163.2 L220.8,172.8"/>
<path d="M240,163.2 L230.4,172.8"/>
<path d="M240,163.2 L249.6,172.8"/>
<path d="M259.2,163.2 L249.6,172.8"/>
<path d="M278.4,163.2 L268.8,172.8"/>
<path d="M288,163.2 L278.4,172.8"/>
<path d="M297.6,163.2 L288,172.8"/>
<path d="M316.8,163.2 L326.4,172.8"/>
<path d="M336,163.2 L326.4,172.8"/>
<path d="M345.6,163.2 L336,172.8"/>
<path d="M355.2,163.2 L345.6,172.8"/>
<path d="M374.4,163.2 L364.8,172.8"/>
<path d="M144,172.8 L134.4,182.4"/>
<path d="M153.6,172.8 L144,182.4"/>
<path d="M153.6,172.8 L163.2,182.4"/>
<path d="M172.8,172.8 L163.2,182.4"/>
<path d="M172.8,172.8 L182.4,182.4"/>
<path d="M230.4,172.8 L220.8,182.4"/>
<path d="M230.4,172.8 L240,182.4"/>
<path d="M259.2,172.8 L249.6,182.4"/>
<path d="M268.8,172.8 L259.2,182.4"/>
<path d="M278.4,172.8 L268.8,182.4"/>
<path d="M278.4,172.8 L288,182.4"/>
<path d="M297.6,172.8 L288,182.4"/>
<path d="M307.2,172.8 L297.6,182.4"/>
<path d="M307.2,172.8 L316.8,182.4"/>
<path d="M326.4,172.8 L316.8,182.4"/>
<path d="M336,172.8 L326.4,182.4"/>
<path d="M345.6,172.8 L336,182.4"/>
<path d="M364.8,172.8 L374.4,182.4"/>
<path d="M384,172.8 L374.4,182.4"/>
<path d="M134.4,182.4 L124.8,192"/>
<path d="M144,182.4 L134.4,192"/>
<path d="M153.6,182.4 L144,192"/>
<path d="M153.6,182.4 L163.2,192"/>
<path d="M172.8,182.4 L163.2,192"/>
<path d="M182.4,182.4 L172.8,192"/>
<path d="M182.4,182.4 L192,192"/>
<path d="M192,182.4 L201.6,192"/>
<path d="M230.4,182.4 L240,192"/>
<path d="M249.6,182.4 L240,192"/>
<path d="M249.6,182.4 L259.2,192"/>
<path d="M259.2,182.4 L268.8,192"/>
<path d="M278.4,182.4 L268.8,192"/>
<path d="M278.4,182.4 L288,192"/>
<path d="M316.8,182.4 L326.4,192"/>
<path d="M326.4,182.4 L336,192"/>
<path d="M336,182.4 L345.6,192"/>
<path d="M345.6,182.4 L355.2,192"/>
<path d="M364.8,182.4 L374.4,192"/>
<path d="M374.4,182.4 L384,192"/>
<path d="M115.2,192 L124.8,201.6"/>
<path d="M124.8,192 L134.4,201.6"/>
<path d="M144,192 L134.4,201.6"/>
<path d="M153.6,192 L144,201.6"/>
<path d="M163.2,192 L153.6,201.6"/>
<path d="M172.8,192 L163.2,201.6"/>
<path d="M182.4,192 L172.8,201.6"/>
<path d="M192,192 L182.4,201.6"/>
<path d="M192,192 L201.6,201.6"/>
<path d="M201.6,192 L211.2,201.6"/>
<path d="M259.2,192 L249.6,201.6"/>
<path d="M259.2,192 L268.8,201.6"/>
<path d="M278.4,192 L268.8,201.6"/>
<path d="M278.4,192 L288,201.6"/>
<path d="M316.8,192 L326.4,201.6"/>
<path d="M336,192 L345.6,201.6"/>
<path d="M355.2,192 L364.8,201.6"/>
<path d="M364.8,192 L374.4,201.6"/>
<path d="M374.4,192 L384,201.6"/>
<path d="M115.2,201.6 L105.6,211.2"/>
<path d="M124.8,201.6 L134.4,211.2"/>
<path d="M144,201.6 L134.4,211.2"/>
<path d="M144,201.6 L153.6,211.2"/>
<path d="M153.6,201.6 L163.2,211.2"/>
<path d="M172.8,201.6 L163.2,211.2"/>
<path d="M172.8,201.6 L182.4,211.2"/>
<path d="M192,201.6 L182.4,211.2"/>
<path d="M211.2,201.6 L201.6,211.2"/>
<path d="M211.2,201.6 L220.8,211.2"/>
<path d="M230.4,201.6 L220.8,211.2"/>
<path d="M230.4,201.6 L240,211.2"/>
<path d="M249.6,201.6 L259.2,211.2"/>
<path d="M268.8,201.6 L278.4,211.2"/>
<path d="M307.2,201.6 L316.8,211.2"/>
<path d="M326.4,201.6 L316.8,211.2"/>
<path d="M336,201.6 L326.4,211.2"/>
<path d="M345.6,201.6 L336,211.2"/>
<path d="M355.2,201.6 L364.8,211.2"/>
<path d="M374.4,201.6 L364.8,211.2"/>
<path d="M374.4,201.6 L384,211.2"/>
<path d="M105.6,211.2 L96,220.8"/>
<path d="M115.2,211.2 L105.6,220.8"/>
<path d="M115.2,211.2 L124.8,220.8"/>
<path d="M153.6,211.2 L163.2,220.8"/>
<path d="M172.8,211.2 L163.2,220.8"/>
<path d="M172.8,211.2 L182.4,220.8"/>
<path d="M182.4,211.2 L192,220.8"/>
<path d="M211.2,211.2 L201.6,220.8"/>
<path d="M230.4,211.2 L220.8,220.8"/>
<path d="M230.4,211.2 L240,220.8"/>
<path d="M249.6,211.2 L240,220.8"/>
<path d="M259.2,211.2 L249.6,220.8"/>
<path d="M268.8,211.2 L259.2,220.8"/>
<path d="M316.8,211.2 L307.2,220.8"/>
<path d="M326.4,211.2 L316.8,220.8"/>
<path d="M336,211.2 L345.6,220.8"/>
<path d="M345.6,211.2 L355.2,220.8"/>
<path d="M355.2,211.2 L364.8,220.8"/>
<path d="M364.8,211.2 L374.4,220.8"/>
<path d="M384,211.2 L374.4,220.8"/>
<path d="M86.4,220.8 L96,230.4"/>
<path d="M163.2,220.8 L172.8,230.4"/>
<path d="M182.4,220.8 L172.8,230.4"/>
<path d="M192,220.8 L182.4,230.4"/>
<path d="M201.6,220.8 L192,230.4"/>
<path d="M201.6,220.8 L211.2,230.4"/>
<path d="M211.2,220.8 L220.8,230.4"/>
<path d="M230.4,220.8 L220.8,230.4"/>
<path d="M230.4,220.8 L240,230.4"/>
<path d="M249.6,220.8 L240,230.4"/>
<path d="M307.2,220.8 L316.8,230.4"/>
<path d="M326.4,220.8 L316.8,230.4"/>
<path d="M326.4,220.8 L336,230.4"/>
<path d="M345.6,220.8 L336,230.4"/>
<path d="M364.8,220.8 L374.4,230.4"/>
<path d="M384,220.8 L374.4,230.4"/>
<path d="M86.4,230.4 L76.8,240"/>
<path d="M86.4,230.4 L96,240"/>
<path d="M144,230.4 L134.4,240"/>
<path d="M153.6,230.4 L144,240"/>
<path d="M163.2,230.4 L153.6,240"/>
<path d="M172.8,230.4 L182.4,240"/>
<path d="M201.6,230.4 L192,240"/>
<path d="M201.6,230.4 L211.2,240"/>
<path d="M220.8,230.4 L211.2,240"/>
<path d="M230.4,230.4 L220.8,240"/>
<path d="M240,230.4 L249.6,240"/>
<path d="M307.2,230.4 L297.6,240"/>
<path d="M316.8,230.4 L307.2,240"/>
<path d="M316.8,230.4 L326.4,240"/>
<path d="M336,230.4 L326.4,240"/>
<path d="M345.6,230.4 L336,240"/>
<path d="M345.6,230.4 L355.2,240"/>
<path d="M364.8,230.4 L355.2,240"/>
<path d="M374.4,230.4 L364.8,240"/>
<path d="M374.4,230.4 L384,240"/>
<path d="M124.8,240 L134.4,249.6"/>
<path d="M144,240 L134.4,249.6"/>
<path d="M144,240 L153.6,249.6"/>
<path d="M153.6,240 L163.2,249.6"/>
<path d="M172.8,240 L163.2,249.6"/>
<path d="M172.8,240 L182.4,249.6"/>
<path d="M192,240 L182.4,249.6"/>
<path d="M192,240 L201.6,249.6"/>
<path d="M211.2,240 L201.6,249.6"/>
<path d="M220.8,240 L211.2,249.6"/>
<path d="M220.8,240 L230.4,249.6"/>
<path d="M240,240 L230.4,249.6"/>
<path d="M249.6,240 L240,249.6"/>
<path d="M268.8,240 L259.2,249.6"/>
<path d="M278.4,240 L268.8,249.6"/>
<path d="M288,240 L278.4,249.6"/>
<path d="M307.2,240 L297.6,249.6"/>
<path d="M307.2,240 L316.8,249.6"/>
<path d="M326.4,240 L316.8,249.6"/>
<path d="M326.4,240 L336,249.6"/>
<path d="M345.6,240 L355.2,249.6"/>
<path d="M364.8,240 L355.2,249.6"/>
<path d="M364.8,240 L374.4,249.6"/>
<path d="M374.4,240 L384,249.6"/>
<path d="M67.2,249.6 L57.6,259.2"/>
<path d="M67.2,249.6 L76.8,259.2"/>
<path d="M86.4,249.6 L76.8,259.2"/>
<path d="M124.8,249.6 L115.2,259.2"/>
<path d="M124.8,249.6 L134.4,259.2"/>
<path d="M134.4,249.6 L144,259.2"/>
<path d="M144,249.6 L153.6,259.2"/>
<path d="M153.6,249.6 L163.2,259.2"/>
<path d="M163.2,249.6 L172.8,259.2"/>
<path d="M172.8,249.6 L182.4,259.2"/>
<path d="M192,249.6 L182.4,259.2"/>
<path d="M201.6,249.6 L192,259.2"/>
<path d="M211.2,249.6 L201.6,259.2"/>
<path d="M211.2,249.6 L220.8,259.2"/>
<path d="M220.8,249.6 L230.4,259.2"/>
<path d="M240,249.6 L230.4,259.2"/>
<path d="M249.6,249.6 L240,259.2"/>
<path d="M259.2,249.6 L249.6,259.2"/>
<path d="M259.2,249.6 L268.8,259.2"/>
<path d="M278.4,249.6 L268.8,259.2"/>
<path d="M288,249.6 L278.4,259.2"/>
<path d="M316.8,249.6 L307.2,259.2"/>
<path d="M316.8,249.6 L326.4,259.2"/>
<path d="M345.6,249.6 L336,259.2"/>
<path d="M355.2,249.6 L345.6,259.2"/>
<path d="M364.8,249.6 L355.2,259.2"/>
<path d="M374.4,249.6 L364.8,259.2"/>
<path d="M57.6,259.2 L48,268.8"/>
<path d="M67.2,259.2 L57.6,268.8"/>
<path d="M76.8,259.2 L67.2,268.8"/>
<path d="M76.8,259.2 L86.4,268.8"/>
<path d="M105.6,259.2 L115.2,268.8"/>
<path d="M115.2,259.2 L124.8,268.8"/>
<path d="M134.4,259.2 L124.8,268.8"/>
<path d="M163.2,259.2 L153.6,268.8"/>
<path d="M163.2,259.2 L172.8,268.8"/>
<path d="M172.8,259.2 L182.4,268.8"/>
<path d="M182.4,259.2 L192,268.8"/>
<path d="M192,259.2 L201.6,268.8"/>
<path d="M211.2,259.2 L201.6,268.8"/>
<path d="M211.2,259.2 L220.8,268.8"/>
<path d="M220.8,259.2 L230.4,268.8"/>
<path d="M240,259.2 L230.4,268.8"/>
<path d="M240,259.2 L249.6,268.8"/>
<path d="M259.2,259.2 L249.6,268.8"/>
<path d="M268.8,259.2 L278.4,268.8"/>
<path d="M278.4,259.2 L288,268.8"/>
<path d="M288,259.2 L297.6,268.8"/>
<path d="M307.2,259.2 L297.6,268.8"/>
<path d="M316.8,259.2 L326.4,268.8"/>
<path d="M326.4,259.2 L336,268.8"/>
<path d="M345.6,259.2 L336,268.8"/>
<path d="M345.6,259.2 L355.2,268.8"/>
<path d="M364.8,259.2 L355.2,268.8"/>
<path d="M384,259.2 L374.4,268.8"/>
<path d="M48,268.8 L38.4,278.4"/>
<path d="M48,268.8 L57.6,278.4"/>
<path d="M67.2,268.8 L57.6,278.4"/>
<path d="M86.4,268.8 L76.8,278.4"/>
<path d="M96,268.8 L86.4,278.4"/>
<path d="M96,268.8 L105.6,278.4"/>
<path d="M105.6,268.8 L115.2,278.4"/>
<path d="M124.8,268.8 L115.2,278.4"/>
<path d="M134.4,268.8 L124.8,278.4"/>
<path d="M144,268.8 L134.4,278.4"/>
<path d="M153.6,268.8 L144,278.4"/>
<path d="M153.6,268.8 L163.2,278.4"/>
<path d="M163.2,268.8 L172.8,278.4"/>
<path d="M182.4,268.8 L192,278.4"/>
<path d="M192,268.8 L201.6,278.4"/>
<path d="M201.6,268.8 L211.2,278.4"/>
<path d="M220.8,268.8 L211.2,278.4"/>
<path d="M230.4,268.8 L220.8,278.4"/>
<path d="M230.4,268.8 L240,278.4"/>
<path d="M249.6,268.8 L240,278.4"/>
<path d="M259.2,268.8 L249.6,278.4"/>
<path d="M268.8,268.8 L278.4,278.4"/>
<path d="M297.6,268.8 L288,278.4"/>
<path d="M307.2,268.8 L297.6,278.4"/>
<path d="M316.8,268.8 L307.2,278.4"/>
<path d="M316.8,268.8 L326.4,278.4"/>
<path d="M336,268.8 L326.4,278.4"/>
<path d="M345.6,268.8 L336,278.4"/>
<path d="M355.2,268.8 L345.6,278.4"/>
<path d="M364.8,268.8 L355.2,278.4"/>
<path d="M364.8,268.8 L374.4,278.4"/>
<path d="M28.8,278.4 L38.4,288"/>
<path d="M38.4,278.4 L48,288"/>
<path d="M48,278.4 L57.6,288"/>
<path d="M67.2,278.4 L57.6,288"/>
<path d="M67.2,278.4 L76.8,288"/>
<path d="M86.4,278.4 L76.8,288"/>
<path d="M96,278.4 L86.4,288"/>
<path d="M105.6,278.4 L96,288"/>
<path d="M105.6,278.4 L115.2,288"/>
<path d="M124.8,278.4 L115.2,288"/>
<path d="M124.8,278.4 L134.4,288"/>
<path d="M134.4,278.4 L144,288"/>
<path d="M144,278.4 L153.6,288"/>
<path d="M153.6,278.4 L163.2,288"/>
<path d="M163.2,278.4 L172.8,288"/>
<path d="M172.8,278.4 L182.4,288"/>
<path d="M182.4,278.4 L192,288"/>
<path d="M201.6,278.4 L192,288"/>
<path d="M220.8,278.4 L211.2,288"/>
<path d="M220.8,278.4 L230.4,288"/>
<path d="M230.4,278.4 L240,288"/>
<path d="M249.6,278.4 L240,288"/>
<path d="M259.2,278.4 L249.6,288"/>
<path d="M259.2,278.4 L268.8,288"/>
<path d="M278.4,278.4 L268.8,288"/>
<path d="M316.8,278.4 L326.4,288"/>
<path d="M336,278.4 L326.4,288"/>
<path d="M336,278.4 L345.6,288"/>
<path d="M345.6,278.4 L355.2,288"/>
<path d="M355.2,278.4 L364.8,288"/>
<path d="M19.2,288 L28.8,297.6"/>
<path d="M38.4,288 L28.8,297.6"/>
<path d="M48,288 L38.4,297.6"/>
<path d="M48,288 L57.6,297.6"/>
<path d="M67.2,288 L57.6,297.6"/>
<path d="M76.8,288 L67.2,297.6"/>
<path d="M76.8,288 L86.4,297.6"/>
<path d="M86.4,288 L96,297.6"/>
<path d="M105.6,288 L96,297.6"/>
<path d="M105.6,288 L115.2,297.6"/>
<path d="M134.4,288 L144,297.6"/>
<path d="M153.6,288 L144,297.6"/>
<path d="M172.8,288 L163.2,297.6"/>
<path d="M192,288 L201.6,297.6"/>
<path d="M201.6,288 L211.2,297.6"/>
<path d="M211.2,288 L220.8,297.6"/>
<path d="M220.8,288 L230.4,297.6"/>
<path d="M240,288 L230.4,297.6"/>
<path d="M240,288 L249.6,297.6"/>
<path d="M249.6,288 L259.2,297.6"/>
<path d="M268.8,288 L259.2,297.6"/>
<path d="M268.8,288 L278.4,297.6"/>
<path d="M316.8,288 L326.4,297.6"/>
<path d="M326.4,288 L336,297.6"/>
<path d="M345.6,288 L336,297.6"/>
<path d="M19.2,297.6 L9.6,307.2"/>
<path d="M28.8,297.6 L19.2,307.2"/>
<path d="M38.4,297.6 L48,307.2"/>
<path d="M57.6,297.6 L48,307.2"/>
<path d="M57.6,297.6 L67.2,307.2"/>
<path d="M76.8,297.6 L67.2,307.2"/>
<path d="M86.4,297.6 L76.8,307.2"/>
<path d="M96,297.6 L86.4,307.2"/>
<path d="M105.6,297.6 L96,307.2"/>
<path d="M105.6,297.6 L115.2,307.2"/>
<path d="M115.2,297.6 L124.8,307.2"/>
<path d="M124.8,297.6 L134.4,307.2"/>
<path d="M134.4,297.6 L144,307.2"/>
<path d="M153.6,297.6 L144,307.2"/>
<path d="M153.6,297.6 L163.2,307.2"/>
<path d="M163.2,297.6 L172.8,307.2"/>
<path d="M172.8,297.6 L182.4,307.2"/>
<path d="M192,297.6 L182.4,307.2"/>
<path d="M201.6,297.6 L192,307.2"/>
<path d="M211.2,297.6 L201.6,307.2"/>
<path d="M220.8,297.6 L211.2,307.2"/>
<path d="M220.8,297.6 L230.4,307.2"/>
<path d="M240,297.6 L230.4,307.2"/>
<path d="M249.6,297.6 L240,307.2"/>
<path d="M259.2,297.6 L249.6,307.2"/>
<path d="M268.8,297.6 L278.4,307.2"/>
<path d="M288,297.6 L278.4,307.2"/>
<path d="M326.4,297.6 L316.8,307.2"/>
<path d="M326.4,297.6 L336,307.2"/>
<path d="M345.6,297.6 L336,307.2"/>
<path d="M9.6,307.2 L0,316.8"/>
<path d="M9.6,307.2 L19.2,316.8"/>
<path d="M19.2,307.2 L28.8,316.8"/>
<path d="M38.4,307.2 L28.8,316.8"/>
<path d="M38.4,307.2 L48,316.8"/>
<path d="M48,307.2 L57.6,316.8"/>
<path d="M57.6,307.2 L67.2,316.8"/>
<path d="M67.2,307.2 L76.8,316.8"/>
<path d="M96,307.2 L86.4,316.8"/>
<path d="M96,307.2 L105.6,316.8"/>
<path d="M115.2,307.2 L105.6,316.8"/>
<path d="M124.8,307.2 L115.2,316.8"/>
<path d="M134.4,307.2 L124.8,316.8"/>
<path d="M134.4,307.2 L144,316.8"/>
<path d="M153.6,307.2 L144,316.8"/>
<path d="M172.8,307.2 L182.4,316.8"/>
<path d="M201.6,307.2 L192,316.8"/>
<path d="M211.2,307.2 L201.6,316.8"/>
<path d="M220.8,307.2 L211.2,316.8"/>
<path d="M230.4,307.2 L220.8,316.8"/>
<path d="M230.4,307.2 L240,316.8"/>
<path d="M249.6,307.2 L240,316.8"/>
<path d="M259.2,307.2 L249.6,316.8"/>
<path d="M268.8,307.2 L259.2,316.8"/>
<path d="M278.4,307.2 L268.8,316.8"/>
<path d="M278.4,307.2 L288,316.8"/>
<path d="M297.6,307.2 L288,316.8"/>
<path d="M297.6,307.2 L307.2,316.8"/>
<path d="M307.2,307.2 L316.8,316.8"/>
<path d="M326.4,307.2 L316.8,316.8"/>
<path d="M326.4,307.2 L336,316.8"/>
<path d="M9.6,316.8 L0,326.4"/>
<path d="M19.2,316.8 L9.6,326.4"/>
<path d="M28.8,316.8 L19.2,326.4"/>
<path d="M38.4,316.8 L28.8,326.4"/>
<path d="M38.4,316.8 L48,326.4"/>
<path d="M48,316.8 L57.6,326.4"/>
<path d="M67.2,316.8 L57.6,326.4"/>
<path d="M86.4,316.8 L76.8,326.4"/>
<path d="M96,316.8 L86.4,326.4"/>
<path d="M96,316.8 L105.6,326.4"/>
<path d="M115.2,316.8 L105.6,326.4"/>
<path d="M124.8,316.8 L115.2,326.4"/>
<path d="M134.4,316.8 L124.8,326.4"/>
<path d="M134.4,316.8 L144,326.4"/>
<path d="M153.6,316.8 L144,326.4"/>
<path d="M163.2,316.8 L153.6,326.4"/>
<path d="M172.8,316.8 L163.2,326.4"/>
<path d="M182.4,316.8 L172.8,326.4"/>
<path d="M192,316.8 L182.4,326.4"/>
<path d="M201.6,316.8 L192,326.4"/>
<path d="M211.2,316.8 L201.6,326.4"/>
<path d="M220.8,316.8 L211.2,326.4"/>
<path d="M230.4,316.8 L220.8,326.4"/>
<path d="M240,316.8 L230.4,326.4"/>
<path d="M240,316.8 L249.6,326.4"/>
<path d="M259.2,316.8 L249.6,326.4"/>
<path d="M268.8,316.8 L259.2,326.4"/>
<path d="M278.4,316.8 L288,326.4"/>
<path d="M288,316.8 L297.6,326.4"/>
<path d="M297.6,316.8 L307.2,326.4"/>
<path d="M307.2,316.8 L316.8,326.4"/>
<path d="M326.4,316.8 L316.8,326.4"/>
<path d="M0,326.4 L9.6,336"/>
<path d="M19.2,326.4 L9.6,336"/>
<path d="M19.2,326.4 L28.8,336"/>
<path d="M28.8,326.4 L38.4,336"/>
<path d="M38.4,326.4 L48,336"/>
<path d="M57.6,326.4 L67.2,336"/>
<path d="M76.8,326.4 L67.2,336"/>
<path d="M86.4,326.4 L76.8,336"/>
<path d="M86.4,326.4 L96,336"/>
<path d="M105.6,326.4 L96,336"/>
<path d="M105.6,326.4 L115.2,336"/>
<path d="M124.8,326.4 L115.2,336"/>
<path d="M134.4,326.4 L124.8,336"/>
<path d="M134.4,326.4 L144,336"/>
<path d="M153.6,326.4 L144,336"/>
<path d="M163.2,326.4 L153.6,336"/>
<path d="M163.2,326.4 L172.8,336"/>
<path d="M172.8,326.4 L182.4,336"/>
<path d="M192,326.4 L182.4,336"/>
<path d="M192,326.4 L201.6,336"/>
<path d="M230.4,326.4 L220.8,336"/>
<path d="M240,326.4 L230.4,336"/>
<path d="M259.2,326.4 L249.6,336"/>
<path d="M268.8,326.4 L259.2,336"/>
<path d="M278.4,326.4 L268.8,336"/>
<path d="M288,326.4 L297.6,336"/>
<path d="M307.2,326.4 L297.6,336"/>
<path d="M316.8,326.4 L307.2,336"/>
<path d="M0,336 L9.6,345.6"/>
<path d="M19.2,336 L28.8,345.6"/>
<path d="M28.8,336 L38.4,345.6"/>
<path d="M57.6,336 L48,345.6"/>
<path d="M57.6,336 L67.2,345.6"/>
<path d="M76.8,336 L67.2,345.6"/>
<path d="M86.4,336 L76.8,345.6"/>
<path d="M105.6,336 L115.2,345.6"/>
<path d="M115.2,336 L124.8,345.6"/>
<path d="M124.8,336 L134.4,345.6"/>
<path d="M144,336 L134.4,345.6"/>
<path d="M153.6,336 L144,345.6"/>
<path d="M172.8,336 L163.2,345.6"/>
<path d="M172.8,336 L182.4,345.6"/>
<path d="M182.4,336 L192,345.6"/>
<path d="M192,336 L201.6,345.6"/>
<path d="M201.6,336 L211.2,345.6"/>
<path d="M211.2,336 L220.8,345.6"/>
<path d="M230.4,336 L240,345.6"/>
<path d="M249.6,336 L259.2,345.6"/>
<path d="M268.8,336 L259.2,345.6"/>
<path d="M268.8,336 L278.4,345.6"/>
<path d="M288,336 L278.4,345.6"/>
<path d="M297.6,336 L288,345.6"/>
<path d="M297.6,336 L307.2,345.6"/>
<path d="M0,345.6 L9.6,355.2"/>
<path d="M19.2,345.6 L9.6,355.2"/>
<path d="M28.8,345.6 L19.2,355.2"/>
<path d="M28.8,345.6 L38.4,355.2"/>
<path d="M67.2,345.6 L57.6,355.2"/>
<path d="M76.8,345.6 L67.2,355.2"/>
<path d="M76.8,345.6 L86.4,355.2"/>
<path d="M115.2,345.6 L124.8,355.2"/>
<path d="M134.4,345.6 L124.8,355.2"/>
<path d="M134.4,345.6 L144,355.2"/>
<path d="M153.6,345.6 L144,355.2"/>
<path d="M163.2,345.6 L153.6,355.2"/>
<path d="M163.2,345.6 L172.8,355.2"/>
<path d="M172.8,345.6 L182.4,355.2"/>
<path d="M192,345.6 L201.6,355.2"/>
<path d="M211.2,345.6 L201.6,355.2"/>
<path d="M211.2,345.6 L220.8,355.2"/>
<path d="M230.4,345.6 L220.8,355.2"/>
<path d="M240,345.6 L230.4,355.2"/>
<path d="M240,345.6 L249.6,355.2"/>
<path d="M249.6,345.6 L259.2,355.2"/>
<path d="M268.8,345.6 L259.2,355.2"/>
<path d="M278.4,345.6 L268.8,355.2"/>
<path d="M288,345.6 L278.4,355.2"/>
<path d="M288,345.6 L297.6,355.2"/>
<path d="M9.6,355.2 L19.2,364.8"/>
<path d="M28.8,355.2 L19.2,364.8"/>
<path d="M38.4,355.2 L28.8,364.8"/>
<path d="M48,355.2 L38.4,364.8"/>
<path d="M57.6,355.2 L48,364.8"/>
<path d="M67.2,355.2 L57.6,364.8"/>
<path d="M76.8,355.2 L67.2,364.8"/>
<path d="M134.4,355.2 L124.8,364.8"/>
<path d="M144,355.2 L134.4,364.8"/>
<path d="M153.6,355.2 L144,364.8"/>
<path d="M163.2,355.2 L153.6,364.8"/>
<path d="M163.2,355.2 L172.8,364.8"/>
<path d="M172.8,355.2 L182.4,364.8"/>
<path d="M192,355.2 L201.6,364.8"/>
<path d="M201.6,355.2 L211.2,364.8"/>
<path d="M220.8,355.2 L211.2,364.8"/>
<path d="M220.8,355.2 L230.4,364.8"/>
<path d="M240,355.2 L230.4,364.8"/>
<path d="M249.6,355.2 L240,364.8"/>
<path d="M249.6,355.2 L259.2,364.8"/>
<path d="M259.2,355.2 L268.8,364.8"/>
<path d="M9.6,364.8 L0,374.4"/>
<path d="M9.6,364.8 L19.2,374.4"/>
<path d="M19.2,364.8 L28.8,374.4"/>
<path d="M38.4,364.8 L48,374.4"/>
<path d="M48,364.8 L57.6,374.4"/>
<path d="M115.2,364.8 L124.8,374.4"/>
<path d="M134.4,364.8 L124.8,374.4"/>
<path d="M134.4,364.8 L144,374.4"/>
<path d="M153.6,364.8 L144,374.4"/>
<path d="M153.6,364.8 L163.2,374.4"/>
<path d="M220.8,364.8 L211.2,374.4"/>
<path d="M230.4,364.8 L220.8,374.4"/>
<path d="M230.4,364.8 L240,374.4"/>
<path d="M240,364.8 L249.6,374.4"/>
<path d="M249.6,364.8 L259.2,374.4"/>
<path d="M259.2,364.8 L268.8,374.4"/>
<path d="M19.2,374.4 L9.6,384"/>
<path d="M19.2,374.4 L28.8,384"/>
<path d="M38.4,374.4 L28.8,384"/>
<path d="M48,374.4 L38.4,384"/>
<path d="M48,374.4 L57.6,384"/>
<path d="M105.6,374.4 L115.2,384"/>
<path d="M124.8,374.4 L115.2,384"/>
<path d="M124.8,374.4 L134.4,384"/>
<path d="M134.4,374.4 L144,384"/>
<path d="M153.6,374.4 L144,384"/>
<path d="M220.8,374.4 L211.2,384"/>
<path d="M230.4,374.4 L220.8,384"/>
<path d="M230.4,374.4 L240,384"/>
<path d="M249.6,374.4 L240,384"/>
<path d="M249.6,374.4 L259.2,384"/>
<path d="M9.6,384 L0,393.6"/>
<path d="M9.6,384 L19.2,393.6"/>
<path d="M28.8,384 L19.2,393.6"/>
<path d="M38.4,384 L28.8,393.6"/>
<path d="M38.4,384 L48,393.6"/>
<path d="M57.6,384 L48,393.6"/>
<path d="M57.6,384 L67.2,393.6"/>
<path d="M76.8,384 L67.2,393.6"/>
<path d="M96,384 L86.4,393.6"/>
<path d="M105.6,384 L96,393.6"/>
<path d="M105.6,384 L115.2,393.6"/>
<path d="M124.8,384 L134.4,393.6"/>
<path d="M134.4,384 L144,393.6"/>
<path d="M201.6,384 L192,393.6"/>
<path d="M211.2,384 L201.6,393.6"/>
<path d="M220.8,384 L211.2,393.6"/>
<path d="M220.8,384 L230.4,393.6"/>
<path d="M230.4,384 L240,393.6"/>
<path d="M249.6,384 L240,393.6"/>
<path d="M259.2,384 L249.6,393.6"/>
<path d="M9.6,393.6 L0,403.2"/>
<path d="M19.2,393.6 L9.6,403.2"/>
<path d="M28.8,393.6 L19.2,403.2"/>
<path d="M28.8,393.6 L38.4,403.2"/>
<path d="M48,393.6 L38.4,403.2"/>
<path d="M48,393.6 L57.6,403.2"/>
<path d="M76.8,393.6 L67.2,403.2"/>
<path d="M86.4,393.6 L76.8,403.2"/>
<path d="M86.4,393.6 L96,403.2"/>
<path d="M96,393.6 L105.6,403.2"/>
<path d="M105.6,393.6 L115.2,403.2"/>
<path d="M134.4,393.6 L124.8,403.2"/>
<path d="M134.4,393.6 L144,403.2"/>
<path d="M144,393.6 L153.6,403.2"/>
<path d="M182.4,393.6 L192,403.2"/>
<path d="M211.2,393.6 L201.6,403.2"/>
<path d="M230.4,393.6 L240,403.2"/>
<path d="M249.6,393.6 L240,403.2"/>
<path d="M9.6,403.2 L0,412.8"/>
<path d="M19.2,403.2 L9.6,412.8"/>
<path d="M19.2,403.2 L28.8,412.8"/>
<path d="M28.8,403.2 L38.4,412.8"/>
<path d="M48,403.2 L38.4,412.8"/>
<path d="M57.6,403.2 L48,412.8"/>
<path d="M67.2,403.2 L57.6,412.8"/>
<path d="M76.8,403.2 L86.4,412.8"/>
<path d="M124.8,403.2 L134.4,412.8"/>
<path d="M144,403.2 L134.4,412.8"/>
<path d="M182.4,403.2 L172.8,412.8"/>
<path d="M192,403.2 L182.4,412.8"/>
<path d="M201.6,403.2 L192,412.8"/>
<path d="M211.2,403.2 L220.8,412.8"/>
<path d="M230.4,403.2 L220.8,412.8"/>
<path d="M240,403.2 L230.4,412.8"/>
<path d="M9.6,412.8 L0,422.4"/>
<path d="M9.6,412.8 L19.2,422.4"/>
<path d="M28.8,412.8 L19.2,422.4"/>
<path d="M28.8,412.8 L38.4,422.4"/>
<path d="M38.4,412.8 L48,422.4"/>
<path d="M48,412.8 L57.6,422.4"/>
<path d="M57.6,412.8 L67.2,422.4"/>
<path d="M76.8,412.8 L67.2,422.4"/>
<path d="M86.4,412.8 L76.8,422.4"/>
<path d="M86.4,412.8 L96,422.4"/>
<path d="M105.6,412.8 L96,422.4"/>
<path d="M115.2,412.8 L105.6,422.4"/>
<path d="M115.2,412.8 L124.8,422.4"/>
<path d="M134.4,412.8 L124.8,422.4"/>
<path d="M134.4,412.8 L144,422.4"/>
<path d="M144,412.8 L153.6,422.4"/>
<path d="M153.6,412.8 L163.2,422.4"/>
<path d="M163.2,412.8 L172.8,422.4"/>
<path d="M172.8,412.8 L182.4,422.4"/>
<path d="M192,412.8 L182.4,422.4"/>
<path d="M201.6,412.8 L192,422.4"/>
<path d="M211.2,412.8 L201.6,422.4"/>
<path d="M211.2,412.8 L220.8,422.4"/>
<path d="M220.8,412.8 L230.4,422.4"/>
<path d="M9.6,422.4 L0,432"/>
<path d="M9.6,422.4 L19.2,432"/>
<path d="M19.2,422.4 L28.8,432"/>
<path d="M38.4,422.4 L28.8,432"/>
<path d="M48,422.4 L57.6,432"/>
<path d="M57.6,422.4 L67.2,432"/>
<path d="M67.2,422.4 L76.8,432"/>
<path d="M86.4,422.4 L76.8,432"/>
<path d="M96,422.4 L86.4,432"/>
<path d="M96,422.4 L105.6,432"/>
<path d="M105.6,422.4 L115.2,432"/>
<path d="M124.8,422.4 L115.2,432"/>
<path d="M134.4,422.4 L124.8,432"/>
<path d="M134.4,422.4 L144,432"/>
<path d="M153.6,422.4 L144,432"/>
<path d="M163.2,422.4 L153.6,432"/>
<path d="M172.8,422.4 L163.2,432"/>
<path d="M182.4,422.4 L172.8,432"/>
<path d="M182.4,422.4 L192,432"/>
<path d="M192,422.4 L201.6,432"/>
<path d="M211.2,422.4 L201.6,432"/>
<path d="M220.8,422.4 L211.2,432"/>
<path d="M0,432 L9.6,441.6"/>
<path d="M28.8,432 L19.2,441.6"/>
<path d="M28.8,432 L38.4,441.6"/>
<path d="M48,432 L38.4,441.6"/>
<path d="M48,432 L57.6,441.6"/>
<path d="M57.6,432 L67.2,441.6"/>
<path d="M76.8,432 L67.2,441.6"/>
<path d="M86.4,432 L76.8,441.6"/>
<path d="M96,432 L105.6,441.6"/>
<path d="M115.2,432 L105.6,441.6"/>
<path d="M124.8,432 L134.4,441.6"/>
<path d="M144,432 L134.4,441.6"/>
<path d="M153.6,432 L163.2,441.6"/>
<path d="M163.2,432 L172.8,441.6"/>
<path d="M172.8,432 L182.4,441.6"/>
<path d="M192,432 L182.4,441.6"/>
<path d="M192,432 L201.6,441.6"/>
<path d="M211.2,432 L201.6,441.6"/>
<path d="M9.6,441.6 L19.2,451.2"/>
<path d="M19.2,441.6 L28.8,451.2"/>
<path d="M38.4,441.6 L28.8,451.2"/>
<path d="M57.6,441.6 L48,451.2"/>
<path d="M57.6,441.6 L67.2,451.2"/>
<path d="M76.8,441.6 L67.2,451.2"/>
<path d="M76.8,441.6 L86.4,451.2"/>
<path d="M96,441.6 L86.4,451.2"/>
<path d="M96,441.6 L105.6,451.2"/>
<path d="M115.2,441.6 L124.8,451.2"/>
<path d="M124.8,441.6 L134.4,451.2"/>
<path d="M134.4,441.6 L144,451.2"/>
<path d="M144,441.6 L153.6,451.2"/>
<path d="M163.2,441.6 L153.6,451.2"/>
<path d="M163.2,441.6 L172.8,451.2"/>
<path d="M172.8,441.6 L182.4,451.2"/>
<path d="M192,441.6 L182.4,451.2"/>
<path d="M201.6,441.6 L192,451.2"/>
<path d="M0,451.2 L9.6,460.8"/>
<path d="M19.2,451.2 L9.6,460.8"/>
<path d="M19.2,451.2 L28.8,460.8"/>
<path d="M28.8,451.2 L38.4,460.8"/>
<path d="M38.4,451.2 L48,460.8"/>
<path d="M57.6,451.2 L48,460.8"/>
<path d="M67.2,451.2 L57.6,460.8"/>
<path d="M76.8,451.2 L67.2,460.8"/>
<path d="M76.8,451.2 L86.4,460.8"/>
<path d="M96,451.2 L86.4,460.8"/>
<path d="M96,451.2 L105.6,460.8"/>
<path d="M105.6,451.2 L115.2,460.8"/>
<path d="M115.2,451.2 L124.8,460.8"/>
<path d="M124.8,451.2 L134.4,460.8"/>
<path d="M144,451.2 L134.4,460.8"/>
<path d="M144,451.2 L153.6,460.8"/>
<path d="M153.6,451.2 L163.2,460.8"/>
<path d="M163.2,451.2 L172.8,460.8"/>
<path d="M172.8,451.2 L182.4,460.8"/>
<path d="M182.4,451.2 L192,460.8"/>
<path d="M48,460.8 L57.6,470.4"/>
<path d="M57.6,460.8 L67.2,470.4"/>
<path d="M105.6,460.8 L96,470.4"/>
<path d="M115.2,460.8 L105.6,470.4"/>
<path d="M115.2,460.8 L124.8,470.4"/>
<path d="M124.8,460.8 L134.4,470.4"/>
<path d="M172.8,460.8 L182.4,470.4"/>
<path d="M86.4,470.4 L96,480"/>
<path d="M115.2,470.4 L105.6,480"/>
<path d="M124.8,470.4 L115.2,480"/>
<path d="M86.4,480 L76.8,489.6"/>
<path d="M96,480 L105.6,489.6"/>
<path d="M105.6,480 L115.2,489.6"/>
<path d="M9.6,489.6 L0,499.2"/>
<path d="M57.6,489.6 L67.2,499.2"/>
<path d="M67.2,489.6 L76.8,499.2"/>
<path d="M76.8,489.6 L86.4,499.2"/>
<path d="M86.4,489.6 L96,499.2"/>
<path d="M105.6,489.6 L115.2,499.2"/>
<path d="M115.2,489.6 L124.8,499.2"/>
<path d="M124.8,489.6 L134.4,499.2"/>
<path d="M134.4,489.6 L144,499.2"/>
<path d="M9.6,499.2 L0,508.8"/>
<path d="M48,499.2 L57.6,508.8"/>
<path d="M67.2,499.2 L57.6,508.8"/>
<path d="M76.8,499.2 L67.2,508.8"/>
<path d="M86.4,499.2 L76.8,508.8"/>
<path d="M105.6,499.2 L96,508.8"/>
<path d="M105.6,499.2 L115.2,508.8"/>
<path d="M124.8,499.2 L134.4,508.8"/>
<path d="M9.6,508.8 L0,518.4"/>
<path d="M9.6,508.8 L19.2,518.4"/>
<path d="M38.4,508.8 L28.8,518.4"/>
<path d="M38.4,508.8 L48,518.4"/>
<path d="M48,508.8 L57.6,518.4"/>
<path d="M57.6,508.8 L67.2,518.4"/>
<path d="M76.8,508.8 L67.2,518.4"/>
<path d="M76.8,508.8 L86.4,518.4"/>
<path d="M86.4,508.8 L96,518.4"/>
<path d="M96,508.8 L105.6,518.4"/>
<path d="M105.6,508.8 L115.2,518.4"/>
<path d="M115.2,508.8 L124.8,518.4"/>
<path d="M134.4,508.8 L124.8,518.4"/>
<path d="M0,518.4 L9.6,528"/>
<path d="M19.2,518.4 L9.6,528"/>
<path d="M28.8,518.4 L38.4,528"/>
<path d="M48,518.4 L38.4,528"/>
<path d="M48,518.4 L57.6,528"/>
<path d="M67.2,518.4 L57.6,528"/>
<path d="M67.2,518.4 L76.8,528"/>
<path d="M76.8,518.4 L86.4,528"/>
<path d="M96,518.4 L105.6,528"/>
<path d="M105.6,518.4 L115.2,528"/>
<path d="M115.2,518.4 L124.8,528"/>
<path d="M19.2,528 L9.6,537.6"/>
<path d="M28.8,528 L19.2,537.6"/>
<path d="M57.6,528 L48,537.6"/>
<path d="M57.6,528 L67.2,537.6"/>
<path d="M67.2,528 L76.8,537.6"/>
<path d="M86.4,528 L76.8,537.6"/>
<path d="M96,528 L86.4,537.6"/>
<path d="M105.6,528 L96,537.6"/>
<path d="M115.2,528 L105.6,537.6"/>
<path d="M9.6,537.6 L0,547.2"/>
<path d="M19.2,537.6 L9.6,547.2"/>
<path d="M19.2,537.6 L28.8,547.2"/>
<path d="M28.8,537.6 L38.4,547.2"/>
<path d="M38.4,537.6 L48,547.2"/>
<path d="M57.6,537.6 L48,547.2"/>
<path d="M67.2,537.6 L57.6,547.2"/>
<path d="M76.8,537.6 L67.2,547.2"/>
<path d="M86.4,537.6 L76.8,547.2"/>
<path d="M86.4,537.6 L96,547.2"/>
<path d="M105.6,537.6 L96,547.2"/>
<path d="M19.2,547.2 L9.6,556.8"/>
<path d="M28.8,547.2 L19.2,556.8"/>
<path d="M28.8,547.2 L38.4,556.8"/>
<path d="M38.4,547.2 L48,556.8"/>
<path d="M57.6,547.2 L48,556.8"/>
<path d="M67.2,547.2 L57.6,556.8"/>
<path d="M76.8,547.2 L67.2,556.8"/>
<path d="M86.4,547.2 L76.8,556.8"/>
<path d="M96,547.2 L86.4,556.8"/>
<path d="M9.6,556.8 L0,566.4"/>
<path d="M19.2,556.8 L9.6,566.4"/>
<path d="M28.8,556.8 L19.2,566.4"/>
<path d="M28.8,556.8 L38.4,566.4"/>
<path d="M38.4,556.8 L48,566.4"/>
<path d="M57.6,556.8 L67.2,566.4"/>
<path d="M67.2,556.8 L76.8,566.4"/>
<path d="M86.4,556.8 L76.8,566.4"/>
<path d="M0,566.4 L9.6,576"/>
<path d="M19.2,566.4 L9.6,576"/>
<path d="M28.8,566.4 L19.2,576"/>
<path d="M28.8,566.4 L38.4,576"/>
<path d="M48,566.4 L38.4,576"/>
<path d="M48,566.4 L57.6,576"/>
<path d="M67.2,566.4 L57.6,576"/>
<path d="M67.2,566.4 L76.8,576"/>
<circle cx="192" cy="288" r="186.2784"/>
<circle cx="192" cy="288" r="185.33759999999998"/>
<circle cx="192" cy="288" r="184.39679999999998"/>
<circle cx="192" cy="288" r="183.456"/>
<circle cx="192" cy="288" r="182.5152"/>
<circle cx="192" cy="288" r="181.5744"/>
<circle cx="192" cy="288" r="180.6336"/>
</g>
</svg>