<svg height="576px" viewBox="0 0 384 576" width="384px" xmlns="http://www.w3.org/2000/svg" xmlns:inkscape="http://www.inkscape.org/namespaces/inkscape">
<g fill="none" id="layer1" inkscape:groupmode="layer" inkscape:label="1" stroke="black" stroke-width="0.2mm">
<path d="M369.59357,335.92834 L356.92834,282.40643 L303.40643,295.07166 L304.02435,297.68283"/>
<path d="M368.76263,336.12497 L369.59357,335.92834"/>
<path d="M369.4385,339.06033 L357.0977,285.46274 L303.5001,297.80353 L304.0988,300.40378"/>
<path d="M368.5612,339.26233 L369.4385,339.06033"/>
<path d="M369.2174,342.19574 L357.21033,288.52237 L303.537,300.52945 L304.1158,303.11694"/>
<path d="M368.29303,342.40253 L369.2174,342.19574"/>
<path d="M368.9292,345.33478 L357.26782,291.58524 L303.51828,303.24658 L304.07654,305.81964"/>
<path d="M367.95715,345.54565 L368.9292,345.33478"/>
<path d="M368.57272,348.4776 L357.27173,294.65115 L303.44525,305.95218 L303.98212,308.50922"/>
<path d="M367.55267,348.69177 L368.57272,348.4776"/>
<path d="M368.14697,351.62442 L357.2235,297.7201 L303.31915,308.64355 L303.83377,311.183"/>
<path d="M367.0786,351.8409 L368.14697,351.62442"/>
<path d="M367.6508,354.77527 L357.12466,300.79193 L303.14133,311.31805 L303.6328,313.8386"/>
<path d="M366.53406,354.993 L367.6508,354.77527"/>
<path d="M367.0831,357.9301 L356.97662,303.86664 L302.91315,313.9731 L303.38055,316.47348"/>
<path d="M365.91797,358.14792 L367.0831,357.9301"/>
<path d="M366.4428,361.08893 L356.78076,306.94427 L302.63608,316.60632 L303.07846,319.0853"/>
<path d="M365.2295,361.30545 L366.4428,361.08893"/>
<path d="M365.7288,364.2515 L356.53833,310.02478 L302.3116,319.21527 L302.72797,321.6719"/>
<path d="M364.46765,364.46524 L365.7288,364.2515"/>
<path d="M364.94003,367.4175 L356.25055,313.10828 L301.9413,321.79776 L302.33066,324.2311"/>
<path d="M363.6315,367.6269 L364.94003,367.4175"/>
<path d="M364.07535,370.58658 L355.91852,316.1948 L301.52673,324.35165 L301.88803,326.76096"/>
<path d="M362.72015,370.78983 L364.07535,370.58658"/>
<path d="M363.13376,373.75818 L355.5432,319.28445 L301.06952,326.875 L301.4018,329.25958"/>
<path d="M361.73264,373.9534 L363.13376,373.75818"/>
<path d="M362.11414,376.93158 L355.12555,322.37738 L300.57138,329.36597 L300.8736,331.72534"/>
<path d="M360.6681,377.11682 L362.11414,376.93158"/>
<path d="M361.01547,380.106 L354.66626,325.4737 L300.03397,331.8229 L300.3052,334.15662"/>
<path d="M359.52563,380.27914 L361.01547,380.106"/>
<path d="M359.83673,383.28046 L354.166,328.57358 L299.4591,334.24432 L299.6983,336.55206"/>
<path d="M358.30438,383.43927 L359.83673,383.28046"/>
<path d="M358.57687,386.4538 L353.62515,331.67715 L298.8485,336.62888 L299.05475,338.91046"/>
<path d="M357.0035,386.596 L358.57687,386.4538"/>
<path d="M357.23495,389.6247 L353.0441,334.7846 L298.20398,338.97546 L298.37634,341.2308"/>
<path d="M355.62225,389.74792 L357.23495,389.6247"/>
<path d="M355.81006,392.7917 L352.42297,337.8961 L297.52737,341.28317 L297.6649,343.5122"/>
<path d="M354.15982,392.89352 L355.81006,392.7917"/>
<path d="M354.30124,395.95313 L351.76178,341.01178 L296.82043,343.55124 L296.92224,345.75406"/>
<path d="M352.61554,396.03104 L354.30124,395.95313"/>
<path d="M352.7077,399.10712 L351.06033,344.13177 L296.08502,345.77914 L296.15024,347.95587"/>
<path d="M350.9887,399.15863 L352.7077,399.10712"/>
<path d="M351.02866,402.25165 L350.31833,347.25623 L295.3229,347.96655 L295.35068,350.1174"/>
<path d="M349.2788,402.27423 L351.02866,402.25165"/>
<path d="M294.52536,352.23856 L294.53586,350.11337 L349.5352,350.38513"/>
<path d="M347.4853,405.37567 L349.26343,405.38446 L349.5352,350.38513"/>
<path d="M293.676,354.31952 L293.72562,352.21967 L348.71027,353.51855"/>
<path d="M345.60773,408.4606 L347.4114,408.5032 L348.71027,353.51855"/>
<path d="M292.8043,356.36053 L292.8938,354.28577 L347.84268,356.65637"/>
<path d="M343.64587,411.5265 L345.47208,411.60526 L347.84268,356.65637"/>
<path d="M291.91183,358.36218 L292.04205,356.31213 L346.93143,359.7985"/>
<path d="M341.5995,414.57065 L343.44507,414.68787 L346.93143,359.7985"/>
<path d="M291.00015,360.3251 L291.17184,358.29947 L345.9753,362.9446"/>
<path d="M339.4685,417.5903 L341.33017,417.7481 L345.9753,362.9446"/>
<path d="M290.07062,362.2502 L290.28458,360.24863 L344.97302,366.09442"/>
<path d="M337.253,420.58255 L339.12723,420.78287 L344.97302,366.09442"/>
<path d="M289.1246,364.1385 L289.3816,362.16068 L343.9231,369.24744"/>
<path d="M334.95316,423.54425 L336.83636,423.78894 L343.9231,369.24744"/>
<path d="M288.1632,365.99115 L288.464,364.03683 L342.82397,372.40298"/>
<path d="M332.56943,426.47235 L334.4578,426.76297 L342.82397,372.40298"/>
<path d="M287.18744,367.8095 L287.53278,365.87842 L341.6739,375.56033"/>
<path d="M330.10236,429.36353 L331.99197,429.70145 L341.6739,375.56033"/>
<path d="M286.19818,369.59494 L286.5888,367.68695 L340.47113,378.71848"/>
<path d="M327.55267,432.2145 L329.43958,432.6008 L340.47113,378.71848"/>
<path d="M285.19604,371.34903 L285.63272,369.46396 L339.2138,381.8763"/>
<path d="M324.9214,435.02188 L326.80145,435.45743 L339.2138,381.8763"/>
<path d="M284.18152,373.07336 L284.665,371.21115 L337.90005,385.0325"/>
<path d="M322.2096,437.7823 L324.0787,438.26755 L337.90005,385.0325"/>
<path d="M283.1549,374.76956 L283.6859,372.93027 L336.52792,388.1855"/>
<path d="M319.4187,440.49225 L321.2727,441.0275 L336.52792,388.1855"/>
<path d="M282.11627,376.43936 L282.6955,374.62305 L335.09552,391.33353"/>
<path d="M316.5503,443.1484 L318.38504,443.73352 L335.09552,391.33353"/>
<path d="M281.0655,378.0844 L281.69363,376.2913 L333.60092,394.4746"/>
<path d="M313.60623,445.74738 L315.4176,446.3819 L333.60092,394.4746"/>
<path d="M280.00217,379.70642 L280.6799,377.93674 L332.0423,397.60657"/>
<path d="M310.5885,448.2858 L312.37247,448.969 L332.0423,397.60657"/>
<path d="M278.92578,381.30698 L279.65372,379.56113 L330.4179,400.72702"/>
<path d="M307.49942,450.7605 L309.252,451.49124 L330.4179,400.72702"/>
<path d="M277.83554,382.88766 L278.61426,381.16608 L328.72614,403.83328"/>
<path d="M304.3415,453.1683 L306.05893,453.94513 L328.72614,403.83328"/>
<path d="M276.73044,384.44995 L277.56055,382.75314 L326.96542,406.92255"/>
<path d="M301.1174,455.5062 L302.79602,456.3274 L326.96542,406.92255"/>
<path d="M275.60934,385.99512 L276.4913,384.32376 L325.13443,409.99173"/>
<path d="M297.83008,457.77136 L299.46646,458.63486 L325.13443,409.99173"/>
<path d="M274.47086,387.52438 L275.4051,385.87915 L323.23206,413.0376"/>
<path d="M294.48264,459.96112 L296.0736,460.86456 L323.23206,413.0376"/>
<path d="M273.31342,389.03876 L274.30035,387.4204 L321.25735,416.05676"/>
<path d="M291.0784,462.073 L292.62103,463.01376 L321.25735,416.05676"/>
<path d="M272.13535,390.53903 L273.1753,388.94843 L319.20963,419.0456"/>
<path d="M287.62085,464.1047 L289.11246,465.07996 L319.20963,419.0456"/>
<path d="M270.9348,392.02582 L272.02798,390.46387 L317.08844,422.00043"/>
<path d="M284.1136,466.05426 L285.5519,467.06088 L317.08844,422.00043"/>
<path d="M269.7098,393.49948 L270.85638,391.96713 L314.89365,424.91736"/>
<path d="M280.56042,467.91983 L281.94342,468.95465 L314.89365,424.91736"/>
<path d="M268.4583,394.96017 L269.6584,393.45837 L312.6254,427.79254"/>
<path d="M276.96524,469.69998 L278.29126,470.75955 L312.6254,427.79254"/>
<path d="M267.17816,396.40775 L268.43173,394.9375 L310.28415,430.6219"/>
<path d="M273.332,471.3934 L274.59976,472.4743 L310.28415,430.6219"/>
<path d="M265.3869,398.37012 L267.1742,396.40414 L307.87064,433.4014"/>
<path d="M269.66483,472.99918 L270.87338,474.09787 L307.87064,433.4014"/>
<path d="M263.44403,400.37558 L265.88345,397.85757 L305.386,436.127"/>
<path d="M265.96777,474.51663 L267.11655,475.62955 L302.34216,439.2689"/>
<path d="M302.8166,438.7792 L305.386,436.127"/>
<path d="M262.245,475.94537 L263.3338,477.069 L299.1179,442.3933"/>
<path d="M261.4635,402.29477 L264.55722,399.29688 L302.83157,438.79465"/>
<path d="M300.17798,441.36606 L302.83157,438.79465"/>
<path d="M258.50064,477.2854 L259.52963,478.4162 L294.2161,446.85364"/>
<path d="M294.74124,446.3758 L295.83234,445.38297"/>
<path d="M259.44986,404.12704 L263.19327,400.7208 L300.20917,441.40033"/>
<path d="M297.47583,443.88748 L300.20917,441.40033"/>
<path d="M254.73888,478.53687 L255.70848,479.67148 L290.85715,449.63458"/>
<path d="M291.90503,448.7391 L292.49503,448.23492"/>
<path d="M257.40826,405.87173 L261.78937,402.1278 L297.52075,443.9401"/>
<path d="M294.7125,446.33994 L297.52075,443.9401"/>
<path d="M250.96375,479.7003 L251.87482,480.83548 L285.83484,453.58017"/>
<path d="M286.13977,453.33545 L287.4623,452.27402"/>
<path d="M289.01535,451.0276 L289.1162,450.94666"/>
<path d="M255.34442,407.52814 L260.34338,403.5161 L294.76877,446.41006"/>
<path d="M291.89063,448.72 L294.76877,446.41006"/>
<path d="M247.1793,480.77643 L248.03294,481.9091 L282.40945,456.00122"/>
<path d="M283.13937,455.45108 L284.04315,454.76996"/>
<path d="M253.26468,409.09552 L258.85333,404.88364 L291.95584,448.80655"/>
<path d="M289.01306,451.02438 L291.95584,448.80655"/>
<path d="M243.38951,481.76636 L244.18709,482.8936 L278.97928,458.27625"/>
<path d="M280.0974,457.48508 L280.6123,457.1208"/>
<path d="M251.17622,410.5732 L257.31726,406.2281 L289.08493,451.12595"/>
<path d="M286.08298,453.24997 L289.08493,451.12595"/>
<path d="M239.59819,482.67136 L240.34137,483.7905 L273.9762,461.45502"/>
<path d="M273.98074,461.452 L275.55856,460.40424"/>
<path d="M277.01743,459.43546 L277.18335,459.3253"/>
<path d="M249.08711,411.9605 L255.7335,407.54694 L286.1592,453.36478"/>
<path d="M283.1037,455.39383 L286.1592,453.36478"/>
<path d="M235.80911,483.49295 L236.49976,484.6016 L270.60266,463.35648"/>
<path d="M270.82507,463.21793 L272.16293,462.3845"/>
<path d="M247.00645,413.25668 L254.10042,408.83737 L283.1822,455.5198"/>
<path d="M280.07877,457.45316 L283.1822,455.5198"/>
<path d="M232.02585,484.2329 L232.66603,485.3289 L267.2811,465.1094"/>
<path d="M267.64444,464.8972 L268.80945,464.21667"/>
<path d="M244.94467,414.46103 L252.41663,410.0965 L280.15753,457.58798"/>
<path d="M277.01193,459.4254 L280.15753,457.58798"/>
<path d="M228.25189,484.8932 L228.84386,485.97467 L264.03168,466.71375"/>
<path d="M264.44272,466.48877 L265.51712,465.90067"/>
<path d="M242.91371,415.57272 L250.68091,411.32117 L277.0891,459.56644"/>
<path d="M273.90707,461.30823 L277.0891,459.56644"/>
<path d="M224.49054,485.47592 L225.03665,486.54132 L260.8771,468.1696"/>
<path d="M261.22375,467.99188 L262.30722,467.4365"/>
<path d="M240.9274,416.5909 L248.89226,412.50815 L273.98105,461.4525"/>
<path d="M270.76822,463.09943 L273.98105,461.4525"/>
<path d="M220.74495,485.9834 L221.2477,487.03146 L257.8433,469.477"/>
<path d="M257.99146,469.40594 L259.2039,468.82434"/>
<path d="M239.00194,417.51453 L247.04985,413.65405 L270.8375,463.24384"/>
<path d="M267.59952,464.79706 L270.8375,463.24384"/>
<path d="M217.01811,486.41806 L217.48004,487.4479 L256.2349,470.06424"/>
<path d="M237.15648,418.34232 L245.15312,414.7554 L267.66284,464.93817"/>
<path d="M264.40527,466.39938 L267.66284,464.93817"/>
<path d="M213.31285,486.78247 L213.73657,487.79343 L253.43274,471.15598"/>
<path d="M235.41388,419.07266 L243.20168,415.80865 L264.46152,466.5336"/>
<path d="M261.1897,467.90488 L264.46152,466.5336"/>
<path d="M209.63184,487.07922 L210.01996,488.07104 L250.836,472.09888"/>
<path d="M251.46669,471.85208 L251.99324,471.64603"/>
<path d="M233.80188,419.7035 L241.19531,416.81027 L261.238,468.02835"/>
<path d="M257.9572,469.3122 L261.238,468.02835"/>
<path d="M205.97754,487.31104 L206.33269,488.28375 L249.50938,472.51974"/>
<path d="M232.35448,420.23193 L239.13408,417.75668 L257.99692,469.4209"/>
<path d="M254.7122,470.62018 L257.99692,469.4209"/>
<path d="M202.35231,487.48065 L202.67706,488.4346 L247.304,473.24237"/>
<path d="M248.2026,472.93646 L248.29422,472.90527"/>
<path d="M231.11397,420.65424 L237.01817,418.6443 L254.74278,470.71"/>
<path d="M251.45901,471.82788 L254.74278,470.71"/>
<path d="M198.75833,487.5908 L199.05524,488.52667 L246.24623,473.555"/>
<path d="M230.13385,420.96518 L234.848,419.4696 L251.48015,471.8945"/>
<path d="M248.20203,472.9345 L251.48015,471.8945"/>
<path d="M195.19765,487.64426 L195.46918,488.56296 L244.57909,474.04776"/>
<path d="M229.48296,421.15756 L232.62413,420.22916 L248.21356,472.97354"/>
<path d="M244.94556,473.93945 L248.21356,472.97354"/>
<path d="M191.67215,487.64377 L191.92072,488.54654 L244.94745,473.94632"/>
<path d="M228.02379,421.55933 L230.34726,420.91962 L244.94745,473.94632"/>
<path d="M188.18365,487.59198 L188.41156,488.4803 L241.68619,474.81235"/>
<path d="M225.65338,422.1444 L228.01823,421.53772 L241.68619,474.81235"/>
<path d="M184.73383,487.4915 L184.94328,488.36713 L238.43405,475.57114"/>
<path d="M223.2326,422.6558 L225.63806,422.08035 L238.43405,475.57114"/>
<path d="M181.32425,487.34482 L181.51741,488.20978 L235.19518,476.22238"/>
<path d="M220.76257,423.09067 L223.20778,422.54462 L235.19518,476.22238"/>
<path d="M177.95645,487.15442 L178.13535,488.0109 L231.97353,476.7659"/>
<path d="M218.24454,423.44653 L220.72853,422.9277 L231.97353,476.7659"/>
<path d="M174.6319,486.92255 L174.79845,487.77295 L228.77295,477.20154"/>
<path d="M215.6798,423.72098 L218.20155,423.22705 L228.77295,477.20154"/>
<path d="M171.35196,486.65137 L171.50806,487.4983 L225.59706,477.5293"/>
<path d="M213.06972,423.91183 L215.62807,423.4403 L225.59706,477.5293"/>
<path d="M168.11804,486.34286 L168.26547,487.1891 L222.44931,477.7491"/>
<path d="M210.41571,424.01715 L213.00934,423.5653 L222.44931,477.7491"/>
<path d="M164.93149,485.99893 L165.072,486.84732 L219.33292,477.86105"/>
<path d="M207.71924,424.03528 L210.34665,423.60016 L219.33292,477.86105"/>
<path d="M161.79367,485.6212 L161.92896,486.4748 L216.2509,477.86514"/>
<path d="M204.98174,423.96472 L207.64125,423.5432 L216.2509,477.86514"/>
<path d="M158.70592,485.21112 L158.83769,486.0731 L213.20602,477.76138"/>
<path d="M202.20465,423.80426 L204.89435,423.39307 L213.20602,477.76138"/>
<path d="M155.66963,484.77005 L155.79959,485.64352 L210.2008,477.5498"/>
<path d="M199.38942,423.55295 L202.1071,423.1486 L210.2008,477.5498"/>
<path d="M152.68623,484.299 L152.8161,485.18726 L207.23749,477.2304"/>
<path d="M196.53746,423.21008 L199.28065,422.80902 L207.23749,477.2304"/>
<path d="M149.75716,483.79895 L149.88872,484.70517 L204.3181,476.8031"/>
<path d="M193.65012,422.77527 L196.41603,422.37372 L204.3181,476.8031"/>
<path d="M146.8839,483.2705 L147.01903,484.19794 L201.44432,476.2678"/>
<path d="M190.72873,422.24838 L193.5142,421.8425 L201.44432,476.2678"/>
<path d="M144.06801,482.71417 L144.20866,483.66592 L198.61761,475.62436"/>
<path d="M187.77455,421.62946 L190.57605,421.21542 L198.61761,475.62436"/>
<path d="M141.31105,482.1301 L141.45937,483.10928 L195.83911,474.87256"/>
<path d="M184.78882,420.91898 L187.60239,420.49283 L195.83911,474.87256"/>
<path d="M138.6147,481.51837 L138.7729,482.5279 L193.10966,474.01215"/>
<path d="M181.77267,420.11755 L184.59392,419.6754 L193.10966,474.01215"/>
<path d="M135.9806,480.87875 L136.15115,481.92133 L190.42981,473.04285"/>
<path d="M178.72723,419.22614 L181.5513,418.7642 L190.42981,473.04285"/>
<path d="M133.41052,480.2108 L133.596,481.28897 L187.79979,471.9643"/>
<path d="M175.65353,418.24588 L178.4751,417.7605 L187.79979,471.9643"/>
<path d="M130.90619,479.51382 L131.10942,480.62982 L185.21953,470.77612"/>
<path d="M172.55257,417.1783 L175.36583,416.66602 L185.21953,470.77612"/>
<path d="M128.4694,478.787 L128.69339,479.9427 L182.68866,469.47797"/>
<path d="M169.42531,416.0251 L172.22395,415.4827 L182.68866,469.47797"/>
<path d="M126.101974,478.02917 L126.349915,479.22604 L180.2065,468.0695"/>
<path d="M166.27267,414.7882 L169.04991,414.2129 L180.2065,468.0695"/>
<path d="M123.80571,477.23904 L124.080986,478.47815 L177.772,466.5503"/>
<path d="M163.09554,413.46988 L165.84413,412.85925 L177.772,466.5503"/>
<path d="M121.582405,476.41507 L121.888565,477.69693 L175.38391,464.9201"/>
<path d="M159.89478,412.07254 L162.60707,411.42474 L175.38391,464.9201"/>
<path d="M119.43383,475.55548 L119.77456,476.8801 L173.0406,463.17868"/>
<path d="M156.67126,410.5989 L159.33919,409.91263 L173.0406,463.17868"/>
<path d="M117.361725,474.65836 L117.74077,476.02505 L170.74016,461.32593"/>
<path d="M153.42587,409.05182 L156.04103,408.32654 L170.74016,461.32593"/>
<path d="M115.36775,473.72153 L115.78892,475.129 L168.48042,459.36182"/>
<path d="M150.15952,407.43445 L152.71324,406.6703 L168.48042,459.36182"/>
<path d="M113.4535,472.74268 L113.92055,474.1889 L166.25896,457.2865"/>
<path d="M146.87314,405.75012 L149.35657,404.9481 L166.25896,457.2865"/>
<path d="M111.62045,471.7193 L112.13705,473.2015 L164.07306,455.10037"/>
<path d="M143.5677,404.00232 L145.97192,403.16437 L164.07306,455.10037"/>
<path d="M109.86998,470.64868 L110.43958,472.16336 L161.91982,452.804"/>
<path d="M140.2443,402.19473 L142.56042,401.32376 L161.91982,452.804"/>
<path d="M108.20331,469.52805 L108.829094,471.0709 L159.79611,450.39813"/>
<path d="M136.90407,400.33127 L139.12334,399.4311 L159.79611,450.39813"/>
<path d="M106.621475,468.3544 L107.30625,469.92032 L157.69867,447.8839"/>
<path d="M133.54828,398.41592 L135.66225,397.4915 L157.69867,447.8839"/>
<path d="M105.12536,467.12466 L105.871414,468.70786 L155.62407,445.26276"/>
<path d="M130.1783,396.45285 L132.17896,395.5101 L155.62407,445.26276"/>
<path d="M103.7156,465.83563 L104.524635,467.42957 L153.56877,442.53635"/>
<path d="M126.79566,394.44638 L128.67557,393.49222 L153.56877,442.53635"/>
<path d="M102.39261,464.484 L103.2656,466.0815 L151.5292,439.70685"/>
<path d="M123.40206,392.4009 L125.154526,391.44324 L151.5292,439.70685"/>
<path d="M101.156555,463.0665 L102.09367,464.65982 L149.50177,436.77664"/>
<path d="M120.64382,389.94183 L121.618576,389.36853 L122.71297,391.22928"/>
<path d="M122.81414,391.4013 L149.50177,436.77664"/>
<path d="M100.0073,461.5797 L101.007805,463.16064 L147.48286,433.7486"/>
<path d="M123.992676,396.63086 L124.06472,396.74472"/>
<path d="M126.22324,400.1555 L126.50732,400.60434"/>
<path d="M128.44557,403.66705 L128.95035,404.46466"/>
<path d="M130.65596,407.1598 L131.39287,408.3242"/>
<path d="M132.8508,410.62793 L133.83409,412.18167"/>
<path d="M135.0265,414.06583 L136.27336,416.03604"/>
<path d="M137.17955,417.46796 L138.71017,419.88654"/>
<path d="M139.30644,420.8287 L141.14415,423.73254"/>
<path d="M141.40367,424.14264 L147.48286,433.7486"/>
<path d="M96.03502,455.74722 L100.00656,461.5802 L145.469,430.62595 L143.33943,427.49823"/>
<path d="M91.935814,450.1515 L99.08815,459.91498 L143.45677,427.41226 L141.1868,424.3136"/>
<path d="M87.72433,444.80917 L98.25036,458.16156 L141.443,424.11163 L139.03595,421.0583"/>
<path d="M83.4036,439.71805 L97.490616,456.31683 L139.42464,420.7284 L136.88562,417.73666"/>
<path d="M78.97929,434.87857 L96.80599,454.37805 L137.39902,417.2673 L134.73492,414.35324"/>
<path d="M74.45952,430.29312 L96.1932,452.34274 L135.36368,413.7335 L132.58322,410.9126"/>
<path d="M69.85484,425.96518 L95.64867,450.20883 L133.31662,410.13232 L130.43024,407.4194"/>
<path d="M65.17803,421.8988 L95.16851,447.9747 L131.25615,406.4695 L128.27597,403.87833"/>
<path d="M60.443916,418.09808 L94.748634,445.63925 L129.18106,402.75095 L126.12077,400.294"/>
<path d="M55.669113,414.56647 L94.384735,443.20184 L127.090614,398.98276 L123.96529,396.67117"/>
<path d="M50.87174,411.30655 L94.07238,440.66232 L124.984535,395.17123 L121.81047,393.01437"/>
<path d="M119.65755,389.3282 L122.86307,391.32266 L93.80702,438.02112 L47.10856,408.9651 L47.134697,408.92307"/>
<path d="M117.50803,385.617 L120.72696,387.44348 L93.58408,435.27927 L45.74828,408.13638 L45.851128,407.95514"/>
<path d="M115.36369,381.88516 L118.57751,383.54 L93.39901,432.4383 L44.500713,407.2598 L44.667526,406.93582"/>
<path d="M113.22653,378.13687 L116.4165,379.61853 L93.24731,429.50027 L43.36556,406.3311 L43.5832,405.86252"/>
<path d="M111.0988,374.37616 L114.24622,375.68524 L93.12461,426.4679 L42.34196,405.34628 L42.59712,404.7328"/>
<path d="M108.98294,370.60693 L112.069466,371.74603 L93.02675,423.34424 L41.42854,404.3015 L41.70796,403.5444"/>
<path d="M106.88159,366.83295 L109.88947,367.80667 L92.94976,420.13303 L40.623417,403.19333 L40.914104,402.29538"/>
<path d="M104.79757,363.05774 L107.7099,363.87262 L92.88998,416.83835 L39.924232,402.01843 L40.213676,400.98395"/>
<path d="M102.733864,359.2847 L105.5348,359.9489 L92.84403,413.46475 L39.3282,400.774 L39.604553,399.6086"/>
<path d="M100.69359,355.51703 L103.36856,356.04034 L92.80894,410.01712 L38.832146,399.45752 L39.084393,398.16812"/>
<path d="M98.68001,351.75772 L101.21588,352.15125 L92.78207,406.50076 L38.432545,398.06696 L38.650646,396.66144"/>
<path d="M96.69649,348.0096 L99.08168,348.28555 L92.761215,402.92117 L38.12559,396.6007 L38.300594,395.08792"/>
<path d="M94.7465,344.2753 L96.97109,344.44675 L92.74459,399.28412 L37.907227,395.05762 L38.031353,393.44714"/>
<path d="M92.83359,340.55713 L94.88936,340.63788 L92.73085,395.59552 L37.77322,393.43698 L37.839916,391.7389"/>
<path d="M92.813644,349.49344 L92.71906,391.86142 L37.719204,391.73862 L37.724247,389.4796"/>
<path d="M92.81391,349.3729 L92.822136,345.68982"/>
<path d="M92.82283,345.37607 L92.83054,341.92215"/>
<path d="M92.831764,341.37534 L92.83886,338.19675"/>
<path d="M92.8407,337.37253 L92.84184,336.86154 L92.61008,336.86102"/>
<path d="M37.528614,383.744 L37.740726,389.96277 L92.70876,388.08792 L92.57921,384.28958"/>
<path d="M92.056755,368.9723 L92.0614,369.10846"/>
<path d="M92.18759,372.808 L92.196205,373.06058"/>
<path d="M92.31841,376.64352 L92.3302,376.98914"/>
<path d="M92.44902,380.47275 L92.463295,380.89114"/>
<path d="M37.113834,377.80054 L37.83332,388.11017 L92.699875,384.28116 L92.4342,380.4743"/>
<path d="M36.469803,371.6575 L37.99253,386.18192 L92.69274,380.4472 L92.29432,376.64688"/>
<path d="M35.58723,365.3212 L38.213985,384.17963 L92.688095,376.59204 L92.16165,372.8125"/>
<path d="M34.457314,358.7956 L38.493412,382.10522 L92.68701,372.72153 L92.038475,368.97607"/>
<path d="M33.071316,352.0818 L38.8267,379.96106 L92.6909,368.84137 L91.927246,365.1422"/>
<path d="M31.420147,345.17758 L39.209908,377.74976 L92.70147,364.95706 L91.83053,361.3153"/>
<path d="M29.493858,338.0771 L39.639328,375.47427 L92.720665,361.07385 L91.75097,357.49945"/>
<path d="M27.281078,330.77023 L40.11148,373.13773 L92.75066,357.1967 L91.691246,353.69836"/>
<path d="M24.768402,323.24213 L40.623135,370.74356 L92.793816,353.33035 L91.65407,349.91562"/>
<path d="M91.64212,346.15442 L92.85263,349.47925 L41.171352,368.29535 L22.355255,316.61407 L22.384848,316.6033"/>
<path d="M91.65806,342.41772 L92.92969,345.64746 L41.753456,365.79675 L21.604181,314.6205 L21.78249,314.5503"/>
<path d="M91.70445,338.70822 L93.02766,341.83884 L42.367077,363.25156 L20.95434,312.59097 L21.274069,312.45584"/>
<path d="M91.7838,335.02844 L93.14924,338.05682 L43.01012,360.66364 L20.40328,310.52454 L20.857006,310.31995"/>
<path d="M91.89848,331.38055 L93.297104,334.3046 L43.680794,358.0369 L19.948503,308.4206 L20.528774,308.14304"/>
<path d="M92.05078,327.76654 L93.47392,330.58505 L44.377583,355.37515 L19.587482,306.2788 L20.286922,305.92566"/>
<path d="M92.24283,324.1882 L93.68229,326.90076 L45.099247,352.68228 L19.317707,304.09924 L20.12908,303.66867"/>
<path d="M92.47665,320.64713 L93.92471,323.25394 L45.84483,349.96207 L19.136694,301.88217 L20.052975,301.3732"/>
<path d="M92.754074,317.14465 L94.2036,319.6466 L46.613613,347.2182 L19.04201,299.6282 L20.056438,299.0405"/>
<path d="M93.07683,313.68198 L94.52122,316.08044 L47.405136,344.45428 L19.031298,297.3382 L20.137415,296.6721"/>
<path d="M93.446465,310.2601 L94.879715,312.55695 L48.21916,341.67383 L19.102283,295.01328 L20.293959,294.26965"/>
<path d="M93.86437,306.8799 L95.281075,309.07727 L49.055668,338.88016 L19.25279,292.65475 L20.524242,291.83502"/>
<path d="M94.33181,303.54208 L95.727135,305.64246 L49.91484,336.07654 L19.480751,290.26425 L20.82655,289.3702"/>
<path d="M94.84988,300.24713 L96.21954,302.2532 L50.797043,333.26605 L19.784203,287.84354 L21.199278,286.87738"/>
<path d="M95.41951,296.9955 L96.75981,298.91013 L51.702812,330.45163 L20.1613,285.39462 L21.640936,284.35883"/>
<path d="M96.04152,293.78745 L97.34926,295.61356 L52.632835,327.63608 L20.610315,282.91968 L22.150131,281.81696"/>
<path d="M96.71658,290.6231 L97.989044,292.36374 L53.58795,324.82208 L21.129627,280.421 L22.725567,279.2543"/>
<path d="M97.445244,287.50253 L98.68018,289.16074 L54.569107,322.01212 L21.717728,277.90103 L23.36604,276.67346"/>
<path d="M98.22792,284.42563 L99.42351,286.0044 L55.57737,319.20856 L22.373209,275.36243 L24.070423,274.07715"/>
<path d="M99.064926,281.39227 L100.21972,282.89456 L56.613903,316.4137 L23.094763,272.8079 L24.837666,271.46814"/>
<path d="M99.95646,278.40216 L101.069374,279.83087 L57.679955,313.62964 L23.881165,270.24023 L25.666777,268.8493"/>
<path d="M100.90265,275.45496 L101.9729,276.81287 L58.776836,310.85843 L24.731276,267.66238 L26.556822,266.22354"/>
<path d="M101.90351,272.5503 L102.930595,273.84006 L59.905926,308.10196 L25.644024,265.0773 L27.506912,263.5938"/>
<path d="M102.959,269.68762 L103.94265,270.9118 L61.068638,305.36203 L26.618395,262.48804 L28.516193,260.9631"/>
<path d="M104.06901,266.86646 L105.009155,268.02744 L62.26643,302.6404 L27.65343,259.8977 L29.583838,258.33447"/>
<path d="M105.23334,264.08618 L106.130104,265.1862 L63.500782,299.93875 L28.748215,257.30945 L30.70904,255.71092"/>
<path d="M106.45178,261.34616 L107.30541,262.38733 L64.77318,297.25864 L29.901857,254.72641 L31.891,253.09555"/>
<path d="M107.72406,258.64575 L108.53492,259.63 L66.085106,294.60162 L31.113503,252.1518 L33.128933,250.49141"/>
<path d="M109.049866,255.98425 L109.818405,256.91336 L67.43806,291.96912 L32.3823,249.58878 L34.422043,247.90157"/>
<path d="M110.42885,253.36095 L111.15558,254.23657 L68.83349,289.36264 L33.70742,247.04054 L35.76953,245.32906"/>
<path d="M111.860634,250.77516 L112.546104,251.59872 L70.27283,286.78354 L35.088028,244.51025 L37.17059,242.7769"/>
<path d="M113.34483,248.22615 L113.9896,248.99896 L71.75748,284.23315 L36.52329,242.00104 L38.624393,240.2481"/>
<path d="M114.88103,245.71321 L115.48564,246.43645 L73.28878,281.71286 L38.012367,239.51599 L40.130104,237.74557"/>
<path d="M116.468765,243.23567 L117.03376,243.91031 L74.868034,279.2239 L39.55442,237.0582 L41.686863,235.27228"/>
<path d="M118.1076,240.79288 L118.63347,241.41975 L76.49646,276.76764 L41.148582,234.63062 L43.293793,232.83104"/>
<path d="M119.797035,238.38416 L120.284225,238.964 L78.17521,274.3452 L42.79399,232.2362 L44.95001,230.42465"/>
<path d="M121.53658,236.00896 L121.98547,236.54231 L79.905365,271.95792 L44.48977,229.8778 L46.65459,228.05585"/>
<path d="M123.17103,234.63089 L81.687904,269.6069 L46.23502,227.55821 L48.406616,225.72726"/>
<path d="M123.18207,234.62158 L123.7366,234.15402 L123.706535,234.11838"/>
<path d="M120.3901,236.14684 L83.52372,267.29337 L48.02885,225.28012 L50.20516,223.44147"/>
<path d="M120.826126,235.77847 L122.72935,234.17053"/>
<path d="M117.658226,237.71286 L85.413605,265.01843 L49.87035,223.0461 L52.049263,221.20094"/>
<path d="M118.655754,236.86813 L119.99747,235.73193"/>
<path d="M114.978195,239.33011 L87.35823,262.7832 L51.758614,220.85866 L53.93798,219.00807"/>
<path d="M116.70175,237.86656 L117.31521,237.34566"/>
<path d="M112.353294,241.00047 L89.35817,260.5887 L53.692722,218.72015 L55.87037,216.86514"/>
<path d="M109.787254,242.7266 L91.413864,258.43604 L55.671776,216.63287 L57.845474,214.77434"/>
<path d="M107.2842,244.51173 L93.525635,256.3261 L57.69486,214.59894 L59.862354,212.73773"/>
<path d="M104.84858,246.35971 L95.69369,254.25987 L59.76108,212.62038 L61.92008,210.75728"/>
<path d="M100.19723,250.26035 L97.91807,252.23825 L61.869553,210.69905 L64.621895,208.31052"/>
<path d="M100.73589,249.79288 L102.4851,248.27489"/>
<path d="M102.48028,248.2694 L100.19871,250.26204 L64.0194,208.83672 L83.991615,191.39374"/>
<path d="M104.817505,246.32466 L102.535385,248.33205 L66.20976,207.03496 L100.09884,177.22556"/>
<path d="M109.6094,168.82518 L109.593544,168.80731 L68.439804,205.29524 L104.927734,246.44899 L107.20836,244.42693"/>
<path d="M111.76171,167.01753 L111.70336,166.9523 L70.708694,203.61887 L107.37526,244.61354 L109.652176,242.57701"/>
<path d="M113.9369,165.25821 L113.834946,165.14531 L73.015625,202.00699 L109.8773,242.82631 L112.14813,240.77565"/>
<path d="M116.13381,163.54817 L115.98708,163.38736 L75.35981,200.4606 L112.433044,241.08788 L114.695274,239.02354"/>
<path d="M118.35145,161.88838 L118.15866,161.67947 L77.74047,198.98055 L115.04154,239.39874 L117.29252,237.32137"/>
<path d="M120.58889,160.27982 L120.34869,160.02267 L80.15684,197.56752 L117.701675,237.75937 L119.93862,235.66975"/>
<path d="M122.84533,158.72342 L122.556305,158.418 L82.608154,196.22203 L120.41219,236.17018 L122.632225,234.0693"/>
<path d="M125.12009,157.22011 L124.78077,156.86646 L85.093666,194.94446 L123.17167,234.63156 L125.371826,232.5206"/>
<path d="M127.41257,155.77081 L127.02145,155.36906 L87.612625,193.735 L125.97855,233.14381 L128.1558,231.02419"/>
<path d="M129.72229,154.3764 L129.27785,153.92683 L90.16425,192.5937 L128.83112,231.70729 L130.98242,229.58057"/>
<path d="M133.8498,228.19028 L131.72752,230.32227 L92.74779,191.52046 L131.54959,152.54073 L132.04889,153.03773"/>
<path d="M136.75592,226.85378 L134.66574,228.98901 L95.36241,190.51503 L133.8364,151.21169 L134.39207,151.75563"/>
<path d="M139.69875,225.57158 L137.64366,227.7078 L98.00731,189.57698 L136.13814,149.94063 L136.75166,150.53085"/>
<path d="M142.67604,224.34415 L140.659,226.47888 L100.68162,188.70576 L138.45474,148.72838 L139.12756,149.3641"/>
<path d="M145.6855,223.17197 L143.70935,225.30257 L103.384415,187.9007 L140.78629,147.57576 L141.51979,148.25609"/>
<path d="M148.72475,222.05551 L146.79219,224.17911 L106.11475,187.16092 L143.13293,146.48347 L143.92839,147.20738"/>
<path d="M151.7913,220.99529 L149.9049,223.10884 L108.8716,186.48552 L145.49492,145.45221 L146.35352,146.21852"/>
<path d="M154.88261,219.99179 L153.04475,222.0921 L111.65388,185.87338 L147.87259,144.48251 L148.79538,145.29"/>
<path d="M157.99603,219.04555 L156.2089,221.12929 L114.46042,185.32335 L150.26636,143.57489 L151.25426,144.42216"/>
<path d="M161.12888,218.15709 L159.39441,220.22083 L117.28999,184.83414 L152.67668,142.72972 L153.73047,143.61537"/>
<path d="M164.27841,217.32698 L162.59834,219.36717 L120.14129,184.40436 L155.10411,141.94731 L156.2244,142.86984"/>
<path d="M167.44182,216.5558 L165.81761,218.56886 L123.0129,184.03255 L157.54922,141.22784 L158.73643,142.18573"/>
<path d="M170.61629,215.84415 L169.04913,217.82648 L125.90336,183.71721 L160.01263,140.57143 L161.267,141.5631"/>
<path d="M173.79892,215.19261 L172.28976,217.14063 L128.81108,183.45673 L162.49496,139.97806 L163.81656,141.00192"/>
<path d="M176.98685,214.60185 L175.53633,216.51198 L131.73442,183.24951 L164.9969,139.44759 L166.38557,140.50212"/>
<path d="M180.17715,214.07253 L178.78569,215.94127 L134.67166,183.09386 L167.51907,138.97983 L168.97447,140.06354"/>
<path d="M183.36694,213.60526 L182.03462,215.42928 L137.62097,182.98811 L170.06213,138.57448 L171.58374,139.68591"/>
<path d="M186.55327,213.20073 L185.27998,214.97676 L140.58052,182.93057 L172.62671,138.23111 L174.21379,139.36893"/>
<path d="M189.73326,212.85959 L188.51862,214.5846 L143.54836,182.91954 L175.21341,137.94928 L176.86502,139.11224"/>
<path d="M192.904,212.58249 L191.74742,214.2536 L146.5225,182.95332 L177.82278,137.72841 L179.53784,138.9154"/>
<path d="M196.06264,212.37006 L194.96332,213.98463 L149.50096,183.03024 L180.45534,137.56789 L182.23256,138.77795"/>
<path d="M199.20634,212.22292 L198.16328,213.77855 L152.48166,183.14868 L183.11154,137.46706 L184.94948,138.6994"/>
<path d="M202.33234,212.14162 L201.34436,213.6362 L155.46255,183.307 L185.79176,137.4252 L187.6888,138.67921"/>
<path d="M205.43784,212.1267 L204.5037,213.5584 L158.4416,183.5037 L188.4963,137.4416 L190.45071,138.71683"/>
<path d="M208.52019,212.17863 L207.63843,213.54588 L161.41676,183.7372 L191.22545,137.51553 L193.23532,138.81172"/>
<path d="M211.57672,212.2978 L210.74588,213.59938 L164.38602,184.00609 L193.9793,137.64622 L196.04263,138.96333"/>
<path d="M214.6049,212.48457 L213.82341,213.71954 L167.3474,184.30899 L196.75793,137.83298 L198.8726,139.17116"/>
<path d="M217.60225,212.73915 L216.86847,213.9069 L170.299,184.64458 L199.56133,138.0751 L201.72507,139.43471"/>
<path d="M220.56631,213.06169 L219.87866,214.16193 L173.23898,185.01161 L202.38931,138.37193 L204.59982,139.75352"/>
<path d="M223.49481,213.45222 L222.85162,214.48497 L176.16562,185.4089 L205.24168,138.72292 L207.4965,140.12721"/>
<path d="M226.38551,213.91068 L225.78516,214.87625 L179.07724,185.8354 L208.11809,139.12749 L210.41472,140.55544"/>
<path d="M229.23628,214.43684 L228.67719,215.33586 L181.97232,186.29012 L211.01807,139.58525 L213.3539,141.0379"/>
<path d="M232.04512,215.03038 L231.52571,215.86375 L184.84941,186.77211 L213.94106,140.09581 L216.31342,141.57442"/>
<path d="M234.81012,215.69084 L234.32889,216.45973 L187.70724,187.28058 L216.88638,140.65894 L219.29251,142.16487"/>
<path d="M237.5295,216.4176 L237.085,217.12344 L190.54463,187.81483 L219.85324,141.27446 L222.29033,142.8092"/>
<path d="M240.20163,217.20993 L239.79245,217.85439 L193.36057,188.37422 L222.84071,141.94234 L225.30585,143.50748"/>
<path d="M242.825,218.06693 L242.4498,218.65189 L196.15413,188.95827 L225.84775,142.6626 L228.33797,144.2598"/>
<path d="M245.39822,218.98758 L245.05574,219.51514 L198.92459,189.56656 L228.87317,143.43541 L231.38544,145.06639"/>
<path d="M247.92012,219.97073 L247.60909,220.44315 L201.67131,190.19879 L231.91568,144.26102 L234.4469,145.92752"/>
<path d="M250.38959,221.0151 L250.10883,221.43483 L204.39381,190.85481 L234.97383,145.13979 L237.52083,146.84355"/>
<path d="M252.80576,222.11931 L252.55412,222.48889 L207.09172,191.53456 L238.04605,146.07216 L240.60559,147.8149"/>
<path d="M255.16788,223.28181 L254.94424,223.60394 L209.76479,192.2381 L241.13063,147.05864 L243.69943,148.84203"/>
<path d="M257.4754,224.50105 L257.27866,224.7785 L212.41284,192.96564 L244.22571,148.09982 L246.80042,149.92546"/>
<path d="M259.72787,225.77533 L259.55698,226.01094 L215.03583,193.71748 L247.32928,149.19633 L249.9065,151.06572"/>
<path d="M261.92514,227.1029 L261.779,227.29956 L217.63376,194.49411 L250.43921,150.34886 L253.0155,152.26338"/>
<path d="M264.06708,228.48198 L263.94464,228.6426 L220.20668,195.29607 L253.55322,151.5581 L256.12512,153.51898"/>
<path d="M266.15387,229.91074 L266.05402,230.03824 L222.75471,196.12407 L256.66888,152.82477 L259.23294,154.83307"/>
<path d="M268.18573,231.38736 L268.1074,231.4846 L225.27797,196.97894 L259.78363,154.14952 L262.33636,156.20613"/>
<path d="M270.16315,232.91002 L270.1052,232.97986 L227.7766,197.86163 L262.8948,155.53304 L265.43274,157.63864"/>
<path d="M272.08667,234.4769 L272.048,234.52211 L230.25067,198.77322 L265.99957,156.97589 L268.51926,159.13097"/>
<path d="M273.95706,236.08627 L273.93652,236.10954 L232.70029,199.71484 L269.095,158.47864 L271.59308,160.68341"/>
<path d="M275.77518,237.73643 L275.77158,237.74037 L235.12547,200.68779 L272.17804,160.04169 L274.65118,162.29617"/>
<path d="M276.7902,238.69293 L237.52615,201.69339 L275.2456,161.66537 L277.6906,163.96936"/>
<path d="M280.70822,165.70293 L278.2945,163.3499 L239.90222,202.73306 L277.69675,239.57668"/>
<path d="M283.7009,167.49669 L281.32138,165.09534 L242.2534,203.8083 L278.7035,240.59267"/>
<path d="M286.66547,169.35034 L284.323,166.9016 L244.57938,204.92062 L279.78894,241.72734"/>
<path d="M289.59875,171.26343 L287.29596,168.76843 L246.87965,206.07156 L280.93484,242.96886"/>
<path d="M292.4976,173.2353 L290.2369,170.69542 L249.15363,207.26266 L282.12555,244.30664"/>
<path d="M295.35886,175.2652 L293.14252,172.68198 L251.40054,208.4955 L283.3477,245.73106"/>
<path d="M298.1794,177.35216 L296.00943,174.72734 L253.61954,209.77155 L284.5895,247.2332"/>
<path d="M300.95624,179.49509 L298.8344,176.83055 L255.8096,211.09229 L285.8408,248.8045"/>
<path d="M303.68637,181.69273 L301.6142,178.99052 L257.96957,212.4591 L287.0924,250.4367"/>
<path d="M306.36694,183.94371 L304.3457,181.20596 L260.09818,213.87332 L288.33627,252.12149"/>
<path d="M308.99518,186.24649 L307.02585,183.47543 L262.194,215.33614 L289.565,253.85046"/>
<path d="M311.56842,188.59943 L309.6518,185.79736 L264.25555,216.84863 L290.77182,255.61479"/>
<path d="M314.08417,191.00075 L312.2207,188.17001 L266.28122,218.41179 L291.9504,257.40518"/>
<path d="M316.54004,193.4486 L314.72998,190.59158 L268.26935,220.0264 L293.09485,259.21158"/>
<path d="M318.9338,195.94104 L317.1772,193.0601 L270.21817,221.69313 L294.1994,261.02307"/>
<path d="M321.26346,198.47606 L319.55997,195.57355 L272.12585,223.41248 L295.25845,262.82755"/>
<path d="M323.527,201.05162 L321.87625,198.12984 L273.99063,225.18475 L296.2664,264.61154"/>
<path d="M325.7228,203.66562 L324.12405,200.72682 L275.8106,227.01009 L297.21756,266.36"/>
<path d="M327.84927,206.31596 L326.3017,203.36232 L277.58398,228.88846 L298.10617,268.05594"/>
<path d="M329.90503,209.00052 L328.40756,206.03413 L279.3089,230.81964 L298.92615,269.68024"/>
<path d="M353.04828,255.20589 L353.19308,255.1328 L352.13495,253.03671"/>
<path d="M331.88885,211.71721 L330.44034,208.74008 L280.98364,232.80324 L299.67102,271.21118"/>
<path d="M354.35202,258.27045 L354.50348,258.19678 L352.43066,253.93652"/>
<path d="M333.7997,214.46397 L332.39877,211.47797 L282.6064,234.83864 L300.33398,272.6243"/>
<path d="M355.6003,261.345 L355.75946,261.27032 L352.69244,254.73315"/>
<path d="M335.63672,217.23877 L334.28198,214.24568 L284.17563,236.92508 L300.59766,273.2068"/>
<path d="M356.7934,264.42807 L356.96136,264.35202 L352.93262,255.45117"/>
<path d="M337.3992,220.03964 L336.08908,217.04114 L285.6897,239.06165 L300.57516,273.13068"/>
<path d="M357.9315,267.51834 L358.1096,267.44052 L353.1427,256.07254"/>
<path d="M339.08658,222.86469 L337.8195,219.86227 L287.14716,241.2472 L300.51068,272.9125"/>
<path d="M359.01474,270.61465 L359.2044,270.5346 L353.3189,256.5887"/>
<path d="M340.6985,225.71205 L339.47278,222.70715 L288.54666,243.48047 L300.40118,272.54205"/>
<path d="M360.04333,273.71597 L360.2461,273.63327 L353.46738,257.01517"/>
<path d="M342.2347,228.57999 L341.04865,225.5739 L289.88693,245.76003 L300.24374,272.00937"/>
<path d="M361.01733,276.82138 L361.23477,276.7356 L353.57245,257.3155"/>
<path d="M343.6951,231.46686 L342.54697,228.46072 L291.16687,248.08429 L300.03564,271.3053"/>
<path d="M361.93674,279.93015 L362.17053,279.84082 L353.64963,257.5306"/>
<path d="M345.07977,234.37105 L343.96786,231.36594 L292.3855,250.45154 L299.8714,270.68356"/>
<path d="M362.80148,283.04153 L363.05347,282.9483 L353.674,257.59863"/>
<path d="M346.38885,237.29114 L345.31146,234.28793 L293.54196,252.8599 L299.92987,270.6663"/>
<path d="M363.61148,286.155 L363.88342,286.05743 L353.55475,257.26614"/>
<path d="M347.62265,240.22571 L346.57816,237.22523 L294.63553,255.30739 L299.628,269.64868"/>
<path d="M364.3665,289.27014 L364.6603,289.16785 L353.25955,256.41818"/>
<path d="M348.78165,243.17352 L347.76837,240.17645 L295.66562,257.7919 L299.22568,268.32175"/>
<path d="M365.06628,292.38657 L365.38382,292.2792 L352.78244,255.00699"/>
<path d="M349.86636,246.13339 L348.88275,243.1403 L296.63184,260.31122 L299.17355,268.04562"/>
<path d="M365.71048,295.504 L366.05368,295.39124 L352.1202,252.99184"/>
<path d="M350.87744,249.10423 L349.92203,246.1156 L297.5338,262.86304 L298.82114,266.88995"/>
<path d="M366.29874,298.6223 L366.66946,298.50378 L351.2738,250.34415"/>
<path d="M367.23065,301.61682 L350.887,249.10126 L298.37143,265.44492 L299.18018,268.0436"/>
<path d="M366.8305,301.74136 L367.23065,301.61682"/>
<path d="M367.73672,304.73032 L351.77863,252.09631 L299.14462,268.05438 L299.93597,270.6645"/>
<path d="M367.30527,304.86115 L367.73672,304.73032"/>
<path d="M368.18698,307.84436 L352.59796,255.09985 L299.85345,270.68887 L300.62766,273.30835"/>
<path d="M367.7224,307.98166 L368.18698,307.84436"/>
<path d="M368.58072,310.95905 L353.34613,258.11108 L300.49817,273.3457 L301.25543,275.97256"/>
<path d="M368.08133,311.10303 L368.58072,310.95905"/>
<path d="M368.9172,314.0746 L354.02432,261.1293 L301.07904,276.02216 L301.81946,278.65433"/>
<path d="M368.3813,314.22534 L368.9172,314.0746"/>
<path d="M369.19556,317.19116 L354.63388,264.15384 L301.59656,278.71555 L302.3201,281.35092"/>
<path d="M368.62152,317.34875 L369.19556,317.19116"/>
<path d="M369.41495,320.30902 L355.1761,267.18414 L302.05118,281.423 L302.75784,284.05948"/>
<path d="M368.80124,320.4735 L369.41495,320.30902"/>
<path d="M369.5744,323.4285 L355.6524,270.2197 L302.44357,284.14172 L303.13315,286.77722"/>
<path d="M368.91965,323.59982 L369.5744,323.4285"/>
<path d="M369.673,326.54984 L356.06427,273.26004 L302.77448,286.8688 L303.44672,289.50125"/>
<path d="M368.9759,326.72787 L369.673,326.54984"/>
<path d="M369.70975,329.6734 L356.41318,276.30484 L303.04465,289.60144 L303.69922,292.22876"/>
<path d="M368.96906,329.85794 L369.70975,329.6734"/>
<path d="M369.68362,332.79944 L356.70068,279.35373 L303.25497,292.33667 L303.89148,294.95688"/>
<path d="M368.8983,332.9902 L369.68362,332.79944"/>
<path d="M369.59357,335.92834 L356.92834,282.40643 L303.40643,295.07166 L303.40643,295.07166"/>
<path d="M369.59357,335.92834 L369.59357,335.92834"/>
</g>
<g fill="none" id="layer2" inkscape:groupmode="layer" inkscape:label="2" stroke="black" stroke-width="0.5mm"/>
<g fill="none" id="layer3" inkscape:groupmode="layer" inkscape:label="3" stroke="black" stroke-width="0.5mm"/>
<g fill="none" id="layer4" inkscape:groupmode="layer" inkscape:label="4" stroke="black" stroke-width="0.5mm"/>
<g fill="none" id="layer5" inkscape:groupmode="layer" inkscape:label="5" stroke="black" stroke-width="0.5mm"/>
<g fill="none" id="layer6" inkscape:groupmode="layer" inkscape:label="6" stroke="black" stroke-width="0.5mm"/>
<g fill="none" id="layer7" inkscape:groupmode="layer" inkscape:label="7" stroke="black" stroke-width="0.5mm"/>
<g fill="none" id="layer8" inkscape:groupmode="layer" inkscape:label="8" stroke="black" stroke-width="0.5mm"/>
<g fill="none" id="layer9" inkscape:groupmode="layer" inkscape:label="9" stroke="black" stroke-width="0.5mm"/>
<g fill="none" id="layer10" inkscape:groupmode="layer" inkscape:label="10" stroke="black" stroke-width="0.5mm"/>
</svg>