<?xml version="1.0" encoding="utf-8" ?>
<svg xmlns="http://www.w3.org/2000/svg" xmlns:cc="http://creativecommons.org/ns" xmlns:dc="http://purl.org/dc/elements/1.1/" xmlns:ev="http://www.w3.org/2001/xml-events" xmlns:inkscape="http://www.inkscape.org/namespaces/inkscape" xmlns:rdf="http://www.w3.org/1999/02/22-rdf-syntax-ns" xmlns:sodipodi="http://sodipodi.sourceforge.net/DTD/sodipodi-0.dtd" xmlns:xlink="http://www.w3.org/1999/xlink" baseProfile="tiny" height="15.24cm" version="1.2" viewBox="0 0 384.0 576.0" width="10.16cm">
  <metadata>
    <rdf:RDF>
      <cc:Work>
        <dc:format>image/svg+xml</dc:format>
        <dc:source>vpype read samples/twisted_2.svg linemerge --tolerance 0.1mm linesort reloop linesimplify write samples/twisted_2_opt.svg
</dc:source>
        <dc:date>2024-04-03T09:14:44.620426</dc:date>
      </cc:Work>
    </rdf:RDF>
  </metadata>
  <defs/>
  <g fill="none" id="layer1" inkscape:groupmode="layer" inkscape:label="1" stroke="#000000" stroke-width="0.7559" style="display:inline">
    <polyline points="27.9668,16.175 24.5595,12.7513 0.0,37.193"/>
    <polyline points="0.0,37.6904 24.4405,62.2487 27.0036,59.6978"/>
    <polyline points="32.0289,59.7355 29.2895,62.2191 5.7809,36.2895 31.7105,12.7809 34.8707,16.2665"/>
    <polyline points="41.8723,16.3723 39.0324,12.8812 11.8812,34.9676 33.9676,62.1188 36.94,59.701"/>
    <polyline points="41.805,59.5821 38.5495,61.9314 18.0686,33.5495 46.4505,13.0686 48.9212,16.4924"/>
    <polyline points="55.9598,16.6205 53.8746,13.3419 24.3419,32.1254 43.1254,61.6581 46.7034,59.3824"/>
    <polyline points="51.7157,59.1218 47.7905,61.3219 30.6781,30.7905 61.2095,13.6781 62.9272,16.7427"/>
    <polyline points="69.7627,16.8392 68.3665,14.0347 37.0347,29.6335 52.6335,60.9653 56.9135,58.8344"/>
    <polyline points="62.3501,58.5603 57.7271,60.6417 43.3583,28.7271 75.2729,14.3583 76.4114,16.8871"/>
    <polyline points="82.8293,16.8678 81.8778,14.5968 49.5968,28.1222 63.1222,60.4032 68.0554,58.3363"/>
    <polyline points="74.0338,58.1876 68.8454,60.2879 55.7121,27.8455 88.1546,14.7121 88.9888,16.773"/>
    <polyline points="94.8835,16.6094 94.101,14.6895 61.6895,27.899 74.899,60.3105 80.2656,58.1234"/>
    <polyline points="86.7112,58.1372 81.2611,60.4596 67.5404,28.2611 99.7389,14.5404 100.531,16.3993"/>
    <polyline points="105.9731,16.1743 105.1129,14.2983 73.2983,28.8871 87.8871,60.7017 93.317,58.2118"/>
    <polyline points="100.0247,58.3247 94.7128,60.9917 79.0083,29.7128 110.2872,14.0083 111.2697,15.9651"/>
    <polyline points="116.4854,15.7901 115.3363,13.7142 84.7142,30.6637 101.6637,61.2858 106.7821,58.4527"/>
    <polyline points="113.5597,58.5724 108.6733,61.5531 90.4469,31.6733 120.3267,13.4469 121.6685,15.6466"/>
    <polyline points="126.8301,15.5175 125.2889,13.219 96.219,32.7111 115.7111,61.781 120.359,58.6645"/>
    <polyline points="127.2035,58.7208 122.795,61.9698 102.0302,33.795 130.205,13.0302 131.9457,15.392"/>
    <polyline points="136.9763,15.2709 135.0324,12.8812 107.8812,34.9677 129.9676,62.1188 134.1234,58.7383"/>
    <polyline points="141.1442,58.7144 137.2748,62.2184 113.7816,36.2748 139.7252,12.7816 141.885,15.1666"/>
    <polyline points="146.6479,15.1017 144.2509,12.7525 119.7525,37.7491 144.7491,62.2475 148.2801,58.6446"/>
    <polyline points="155.5314,58.5222 152.4004,62.1757 125.8243,39.4004 148.5996,12.8243 151.2614,15.1055"/>
    <polyline points="155.7447,15.2078 152.7896,13.031 132.031,41.2104 160.2104,61.969 162.8843,58.3392"/>
    <polyline points="170.3131,58.0891 168.133,61.5991 138.4008,43.133 156.867,13.4009 160.1386,15.4328"/>
    <polyline points="164.5011,15.7917 160.8992,13.9473 144.9473,45.1008 176.1008,61.0527 177.7822,57.769"/>
    <polyline points="179.2875,53.0578 172.3862,51.92 178.08,17.3862 184.5783,18.4576"/>
    <polyline points="178.0582,17.5188 173.5006,16.4402 165.4402,50.4994 199.4994,58.5598 199.9936,56.4718"/>
    <polyline points="199.2041,54.8244 192.7269,54.7225 193.2775,19.7269 213.1118,20.0389"/>
    <polyline points="202.6641,19.8745 187.9745,19.077 186.077,54.0255 192.7304,54.4943 190.5663,54.2692"/>
    <polyline points="192.668,56.9431 191.8559,59.4896 158.5104,48.8559 169.1441,15.5104 173.3995,16.8674"/>
    <polyline points="168.8993,16.2782 164.9655,14.6616 151.6616,47.0345 184.0345,60.3384 185.2491,57.3828"/>
    <polyline points="186.089,53.8036 179.2835,53.0957 182.9043,18.2835 193.3271,19.3676"/>
    <polyline points="226.3942,19.8815 198.7938,20.2086 199.2086,55.2062 205.497,55.1316"/>
    <polyline points="207.1864,55.9979 206.92,57.6138 179.9169,53.1616"/>
    <polyline points="195.3162,54.7633 214.0957,56.7165 214.2167,55.5534"/>
    <polyline points="213.7107,55.5259 221.0255,55.923 221.0521,55.4333"/>
    <polyline points="223.8767,55.3441 217.5609,55.5435 216.4565,20.5609 228.9319,20.1671 222.6454,20.362 223.362,55.3546 239.292,55.0284"/>
    <line x1="227.7226" x2="227.5066" y1="55.2653" y2="55.2698"/>
    <polyline points="217.5561,55.3919 211.62,55.5987 210.4013,20.6199 235.2691,19.7535 235.2658,19.9671 232.4871,20.0548"/>
    <polyline points="235.2647,20.0439 228.9315,20.0688 229.0688,55.0685 251.175,54.9818"/>
    <polyline points="262.9407,55.1616 234.7347,54.7306 235.2694,19.7347 241.5922,19.8313"/>
    <polyline points="240.2283,19.8104 241.5944,19.7673 241.6024,19.5329 235.6456,19.7404"/>
    <polyline points="239.4955,19.6063 204.507,20.5073 205.5073,55.493 211.6134,55.412 210.4845,55.3507"/>
    <polyline points="206.5906,77.174 201.7376,75.7251 191.7251,109.2624 225.2624,119.2749 225.8914,117.1681"/>
    <polyline points="232.6483,116.8817 232.1739,118.7573 198.2427,110.1739 206.8261,76.2427 211.8156,77.5048"/>
    <polyline points="217.1112,77.8579 211.968,76.7784 204.7784,111.032 239.032,118.2216 239.3714,116.6042"/>
    <polyline points="246.0223,116.3631 245.7924,117.7047 211.2954,111.7924 217.2076,77.2953 222.5292,78.2074"/>
    <polyline points="228.1149,78.5162 222.5941,77.7436 217.7436,112.4059 252.4059,117.2564 252.5554,116.1875"/>
    <polyline points="258.93,116.1025 258.8329,116.9269 224.0732,112.8329 228.1671,78.0731 233.8969,78.748"/>
    <polyline points="239.8832,78.8777 233.9503,78.2462 230.2462,113.0497 265.0496,116.7538 265.1168,116.1224"/>
    <polyline points="271.1036,116.2462 271.0496,116.7538 236.2462,113.0496 239.9504,78.2462 246.0618,78.8966"/>
    <polyline points="252.404,78.8133 246.1575,78.0808 242.0808,112.8425 276.8425,116.9192 276.8968,116.4562"/>
    <polyline points="282.5226,116.721 282.454,117.22 247.78,112.454 252.546,77.78 258.8679,78.649"/>
    <polyline points="265.4028,78.4314 259.0752,77.3897 253.3897,111.9248 287.9248,117.6103 288.0248,117.0026"/>
    <polyline points="293.4609,117.264 293.3094,118.0378 258.9622,111.3094 265.6906,76.9622 271.9536,78.1891"/>
    <polyline points="278.4649,77.9471 272.3277,76.5479 264.5479,110.6723 298.6723,118.4521 298.8949,117.4757"/>
    <polyline points="304.3893,117.6192 304.0822,118.8117 270.1883,110.0822 278.9178,76.1883 284.886,77.7254"/>
    <polyline points="291.1746,77.5395 285.3962,75.913 275.913,109.6038 309.6038,119.087 309.998,117.6868"/>
    <polyline points="315.7605,117.6789 315.2909,119.2595 281.7405,109.2909 291.7091,75.7405 297.2993,77.4015"/>
    <polyline points="303.2411,77.3216 297.8201,75.6808 287.6808,109.1799 321.1799,119.3192 321.7004,117.5997"/>
    <polyline points="327.8258,117.4534 327.2887,119.2607 293.7393,109.2886 303.7113,75.7393 308.9931,77.3092"/>
    <polyline points="314.57,77.3769 309.3831,75.9204 299.9204,109.6169 333.6169,119.0796 334.1307,117.2498"/>
    <polyline points="340.5882,117.0027 340.135,118.7804 306.2196,110.135 314.865,76.2196 320.0115,77.5315"/>
    <polyline points="325.3746,77.7668 320.2142,76.6197 312.6197,110.7858 346.7858,118.3803 347.1534,116.7266"/>
    <polyline points="353.7734,116.4384 353.4996,117.9086 319.0914,111.4996 325.5004,77.0914 330.7221,78.064"/>
    <polyline points="329.6638,57.0108 323.3337,58.4559 315.5442,24.3337 349.6663,16.5441 349.8548,17.3696"/>
    <polyline points="344.5606,17.7097 344.435,17.0472 310.0472,23.565 316.565,57.9528 322.9429,56.7439"/>
    <polyline points="316.2838,56.4692 309.8632,57.4565 304.5435,22.8632 339.1368,17.5435 339.2127,18.037"/>
    <polyline points="333.8397,18.3581 333.8029,18.0495 299.0495,22.1971 303.1971,56.9505 309.6666,56.1784"/>
    <polyline points="303.0674,55.8639 296.5434,56.4179 293.5821,21.5434 328.4654,18.6865"/>
    <polyline points="320.0234,19.2982 288.1436,20.9006 289.9006,55.8564 296.4677,55.5264 296.4885,55.7715 294.1127,55.6447"/>
    <polyline points="292.9275,55.7043 292.9079,56.0279 257.9721,53.9079 260.0921,18.9721 265.945,19.3273"/>
    <polyline points="271.6608,19.3966 265.9576,19.0922 264.0922,54.0424 276.7723,54.7192 270.3621,54.3379 271.662,19.3621 285.6611,19.8824"/>
    <polyline points="297.8361,20.0423 277.2313,19.7717 276.7717,54.7687 283.2892,54.8543 283.2928,55.0672 278.0017,54.7848"/>
    <polyline points="275.3943,55.5614 240.4138,54.3935 241.6065,19.4138 247.8671,19.5693 246.9838,19.5972"/>
    <line x1="245.385" x2="243.3313" y1="19.5427" y2="19.4727"/>
    <polyline points="254.0351,19.4599 247.8876,19.1552 246.1552,54.1123 281.1216,55.6579"/>
    <polyline points="286.4914,55.2379 289.8786,55.4187 289.8666,55.1812 283.2966,55.2916 282.7083,20.2966 308.9282,19.8559"/>
    <polyline points="286.9574,55.6668 286.9377,56.0014 251.9986,53.9377 254.0623,18.9986 260.069,19.3534"/>
    <polyline points="201.3962,76.8687 196.6866,75.2386 185.2386,108.3134 218.3134,119.7614 219.1168,117.4401"/>
    <polyline points="212.3117,117.6841 211.3024,120.2247 178.7753,107.3024 191.6976,74.7753 196.2245,76.5737"/>
    <polyline points="191.1022,76.2738 186.817,74.3245 172.3245,106.183 204.183,120.6755 205.4464,117.8983"/>
    <polyline points="198.488,118.0849 196.9044,121.1151 165.8849,104.9044 182.0956,73.8849 186.0717,75.9628"/>
    <polyline points="181.1747,75.6471 177.5742,73.4712 159.4712,103.4257 189.4258,121.5288 191.4108,118.2442"/>
    <polyline points="184.202,118.3718 181.7267,121.8851 153.1148,101.7267 173.2733,73.1149 176.4409,75.3465"/>
    <polyline points="171.8806,75.0916 169.1861,72.8597 146.8597,99.8139 173.8139,122.1403 176.8634,118.4587"/>
    <polyline points="169.4108,118.4932 165.7235,122.2477 140.7523,97.7235 165.2765,72.7523 167.4814,74.9177"/>
    <polyline points="163.2079,74.8585 161.4817,72.8307 134.8307,95.5183 157.5183,122.1693 161.8708,118.464"/>
    <polyline points="154.278,118.3629 149.28,121.8863 129.1137,93.28 157.72,73.1137 159.0062,74.9381"/>
    <polyline points="154.8103,75.1649 153.903,73.5939 123.5939,91.097 141.097,121.4061 146.6719,118.1866"/>
    <polyline points="139.0947,117.9389 133.0514,120.762 118.238,89.0514 149.9486,74.238 150.5518,75.5292"/>
    <polyline points="146.1686,76.0038 145.792,74.9928 112.9928,87.208 125.208,120.0072 131.5887,117.6309"/>
    <polyline points="124.1927,117.281 117.6075,119.2041 107.7959,85.6075 141.3925,75.7959 141.6125,76.5493"/>
    <polyline points="136.854,77.1213 136.7337,76.5867 102.5867,84.2663 110.2663,118.4133 116.9384,116.9128"/>
    <polyline points="109.8476,116.5519 103.1804,117.6853 97.3147,83.1804 131.8196,77.3147 131.8814,77.6779"/>
    <polyline points="126.6966,78.1856 126.6659,77.9425 91.9425,82.3341 96.3341,117.0575 102.9318,116.2231"/>
    <polyline points="96.1941,115.9508 89.7128,116.5595 86.4405,81.7128 121.3041,78.6206"/>
    <polyline points="115.7001,78.9652 80.7784,81.3135 83.3135,116.2216 89.6379,115.7623"/>
    <polyline points="83.2742,115.6805 77.1376,116.068 74.932,81.1376 109.8624,78.932 109.8794,79.2002"/>
    <polyline points="103.8434,79.312 103.8158,78.891 68.891,81.1842 71.1842,116.109 77.1156,115.7195"/>
    <polyline points="71.1692,115.8797 65.4471,116.3362 62.6638,81.4471 97.5529,78.6638 97.6036,79.2989"/>
    <polyline points="91.1812,79.1721 91.0877,78.277 56.277,81.9123 59.9123,116.723 65.4319,116.1466"/>
    <polyline points="59.8882,116.4924 54.5569,117.2282 49.7718,82.5569 84.4431,77.7718 84.6063,78.9539"/>
    <polyline points="77.9153,78.6727 77.6518,77.1966 43.1966,83.3482 49.3482,117.8034 54.5091,116.882"/>
    <polyline points="49.2546,117.279 44.2456,118.4003 36.5997,84.2456 70.7544,76.5997 71.1479,78.3578"/>
    <polyline points="64.3432,78.0349 63.796,76.0219 30.0219,85.204 39.204,118.9781 44.0783,117.653"/>
    <polyline points="38.9337,117.9837 34.1801,119.5082 23.4918,86.1801 56.8199,75.4918 57.5357,77.7238"/>
    <polyline points="50.7518,77.4379 49.8616,75.0247 17.0247,87.1384 29.1384,119.9753 33.7807,118.2627"/>
    <polyline points="28.5912,118.492 24.0574,120.3766 10.6234,88.0574 42.9426,74.6234 44.0071,77.1845"/>
    <polyline points="37.3057,76.9665 36.0685,74.2819 4.2819,88.9315 18.9315,120.7181 23.3525,118.6806"/>
    <polyline points="26.7859,138.137 20.1067,136.6884 12.6885,170.8933 46.8933,178.3116 47.0031,177.8051"/>
    <polyline points="51.8006,178.3266 51.5823,179.099 17.901,169.5824 27.4177,135.901 33.9637,137.7506"/>
    <polyline points="41.2025,137.3878 34.8953,135.1384 23.1384,168.1047 56.1047,179.8616 56.4876,178.7881"/>
    <polyline points="61.1216,179.1556 60.5111,180.55 28.45,166.5111 42.4889,134.45 48.4536,137.0618"/>
    <polyline points="55.6617,136.779 50.123,133.8763 33.8763,164.877 64.8769,181.1237 65.7762,179.4078"/>
    <polyline points="70.5307,179.541 69.2951,181.5607 39.4393,163.2951 57.7049,133.4393 62.7702,136.5382"/>
    <polyline points="69.7249,136.3331 65.1368,133.1389 45.1389,161.8632 73.8632,181.8611 75.4592,179.5687"/>
    <polyline points="80.6199,179.5165 78.6698,182.0449 50.9551,160.6698 72.3302,132.9551 76.4785,136.1545"/>
    <polyline points="82.9956,135.9946 79.217,132.8568 56.8568,159.783 83.783,182.1432 86.0486,179.415"/>
    <polyline points="91.7556,179.292 89.2419,182.1874 62.8126,159.2419 85.7581,132.8126 89.257,135.8503"/>
    <polyline points="95.2632,135.7245 91.9461,132.8001 68.8001,159.0539 95.0539,182.1999 97.7274,179.1674"/>
    <polyline points="103.9325,179.0509 101.1966,182.1905 74.8095,159.1966 97.8034,132.8095 101.0344,135.625"/>
    <polyline points="106.6043,135.5593 103.3752,132.8426 80.8426,159.6248 107.6248,182.1574 110.33,178.9419"/>
    <polyline points="116.8826,178.8296 114.284,182.0917 86.9083,160.284 108.716,132.9083 112.0065,135.5296"/>
    <polyline points="117.2561,135.5317 113.8683,133.0192 93.0192,161.1317 121.1317,181.9808 123.5694,178.6938"/>
    <polyline points="130.3879,178.519 128.1578,181.8065 99.1935,162.1578 118.8422,133.1935 122.3492,135.5726"/>
    <polyline points="127.2778,135.6699 123.6357,133.4561 105.4561,163.3643 135.3643,181.5439 137.3411,178.2918"/>
    <polyline points="144.4293,177.9986 142.7487,181.1634 111.8366,164.7487 128.2513,133.8366 132.039,135.848"/>
    <polyline points="136.6405,136.1347 132.7039,134.3671 118.3671,166.2961 150.2961,180.6329 151.647,177.6241"/>
    <polyline points="150.9644,173.7213 153.9752,174.2764 153.9756,174.0019 146.4518,173.3008 149.6992,138.4518 166.2299,139.9922"/>
    <polyline points="176.6248,140.0076 154.0259,139.9742 153.9742,174.9741 161.514,174.9853"/>
    <line x1="161.5769" x2="157.7907" y1="175.6778" y2="174.9798"/>
    <polyline points="158.9814,177.1528 157.9757,179.9223 125.0777,167.9757 137.0243,135.0777 141.1024,136.5586"/>
    <polyline points="145.4578,137.144 141.2583,135.9909 131.9909,169.7417 165.7417,179.0091 166.4117,176.5691"/>
    <line x1="164.6245" x2="169.3069" y1="176.2396" y2="177.1028"/>
    <polyline points="169.0743,175.836 161.6523,176.5092 158.4908,141.6523 186.981,139.0682"/>
    <polyline points="197.2464,137.1834 163.1273,143.4482 169.4482,177.8727 176.6327,176.5535"/>
    <polyline points="173.6824,177.0952 173.5373,177.8827 171.4697,177.5015"/>
    <polyline points="184.175,177.1436 177.3258,179.0474 167.9526,145.3258 201.6742,135.9526 201.8109,136.4446"/>
    <polyline points="206.101,135.9253 205.743,134.9705 172.9705,147.257 185.257,180.0295 191.6968,177.6152"/>
    <polyline points="199.2015,177.9781 193.2252,180.8244 178.1756,149.2252 209.7748,134.1756 210.4165,135.5231"/>
    <polyline points="214.7473,135.2239 213.7743,133.5598 183.5598,151.2257 201.2257,181.4402 206.6968,178.2414"/>
    <polyline points="214.1893,178.4134 209.2591,181.8827 189.1173,153.2591 217.7409,133.1173 219.0816,135.0226"/>
    <polyline points="223.4169,134.9226 221.6787,132.8474 194.8474,155.3213 217.3213,182.1526 221.6793,178.5024"/>
    <polyline points="229.1602,178.5138 225.3931,182.2485 200.7515,157.3931 225.6069,132.7515 227.7632,134.9265"/>
    <polyline points="232.1371,135.0323 229.5553,132.8278 206.8278,159.4447 233.4447,182.1722 236.6223,178.4508"/>
    <polyline points="244.0551,178.3164 241.4444,181.9324 213.0676,161.4444 233.5556,133.0676 236.555,135.2332"/>
    <polyline points="241.029,135.5191 237.6351,133.4562 219.4562,163.3649 249.3649,181.5438 251.4501,178.1131"/>
    <polyline points="258.8018,177.8435 257.1879,181.0244 225.9756,165.1878 241.8122,133.9756 245.5642,135.8793"/>
    <polyline points="250.1585,136.3047 246.0952,134.6079 232.6079,166.9048 264.9048,180.3921 266.1089,177.5089"/>
    <polyline points="267.1987,173.6704 260.0706,172.8296 264.1704,138.0705 276.7891,139.5589"/>
    <polyline points="266.0367,138.2907 259.534,137.0684 253.0684,171.466 260.076,172.7832"/>
    <polyline points="260.7478,172.9095 287.466,177.9316 287.81,176.1015"/>
    <polyline points="287.3893,176.0519 288.9928,176.241 288.9342,175.9035 281.7537,176.5933 278.4067,141.7537 308.59,138.854"/>
    <polyline points="317.7557,137.3112 283.2637,143.2525 289.2525,177.7363 296.315,176.5098"/>
    <line x1="294.8491" x2="294.2752" y1="176.7644" y2="176.8641"/>
    <polyline points="303.7629,177.0419 296.9042,178.8037 288.1963,144.9042 322.0958,136.1963 322.2105,136.6429"/>
    <polyline points="326.5764,136.0562 326.2881,135.2263 293.2263,146.7119 304.7119,179.7737 311.2747,177.4938"/>
    <polyline points="318.8507,177.8577 312.6743,180.6216 298.3784,148.6743 330.3257,134.3784 330.8533,135.5574"/>
    <polyline points="335.0345,135.1539 334.2067,133.6773 303.6773,150.7933 320.7933,181.3227 326.4945,178.1264"/>
    <polyline points="334.2088,178.2932 329.0717,181.8493 309.1507,153.0717 337.9283,133.1507 339.1115,134.8599"/>
    <polyline points="343.0816,134.696 341.4966,132.8319 314.8319,155.5034 337.5034,182.1681 341.993,178.3508"/>
    <polyline points="335.0308,196.7904 329.8824,194.6965 316.6965,227.1176 349.1176,240.3035 349.9692,238.2096"/>
    <polyline points="343.9692,238.2096 343.1176,240.3035 310.6965,227.1176 323.8824,194.6965 329.0308,196.7904"/>
    <polyline points="323.0308,196.7904 317.8824,194.6965 304.6965,227.1176 337.1176,240.3035 337.9692,238.2096"/>
    <polyline points="331.9692,238.2096 331.1176,240.3035 298.6965,227.1176 311.8824,194.6965 317.0308,196.7904"/>
    <polyline points="311.0308,196.7904 305.8824,194.6965 292.6965,227.1176 325.1176,240.3035 325.9692,238.2096"/>
    <polyline points="319.9694,238.2097 319.118,240.3034 286.6966,227.1179 299.882,194.6966 305.0307,196.7905"/>
    <polyline points="299.0271,196.7988 293.8648,194.7039 280.7039,227.1352 313.1352,240.2961 313.9801,238.2139"/>
    <polyline points="308.0321,238.2253 307.2133,240.2629 274.7371,227.2133 287.7867,194.7371 293.0011,196.8323"/>
    <polyline points="286.9154,196.9053 281.5957,194.8195 268.8195,227.4043 301.4043,240.1805 302.167,238.2352"/>
    <polyline points="296.4245,238.228 295.7512,240.0258 262.9742,227.7512 275.2488,194.9742 280.7302,197.0269"/>
    <polyline points="274.4146,197.2017 268.7224,195.2213 257.2212,228.2776 290.2776,239.7787 290.8326,238.1838"/>
    <polyline points="285.4016,238.0823 284.9823,239.4239 251.5761,228.9823 262.0177,195.5761 267.9534,197.4314"/>
    <polyline points="261.3491,197.7153 255.1616,196.0463 246.0463,229.8384 279.8384,238.9537 280.1215,237.9046"/>
    <polyline points="274.961,237.6381 274.7982,238.3724 240.6276,230.7982 248.2018,196.6276 254.6209,198.0505"/>
    <polyline points="247.8022,198.43 241.1995,197.3011 235.3011,231.8005 269.8005,237.6989 269.872,237.2805"/>
    <polyline points="264.7953,236.8432 230.0317,232.7802 234.2198,198.0317 240.9362,198.8412"/>
    <polyline points="234.0713,199.2641 227.3223,198.7708 224.7708,233.6777 257.0605,236.0379"/>
    <polyline points="247.0593,235.3068 219.4626,234.4456 220.5544,199.4626 227.2565,199.6718 227.0473,199.6653 227.2801,199.3489 223.0833,199.5416"/>
    <line x1="224.315" x2="220.816" y1="199.485" y2="199.4708"/>
    <polyline points="218.1956,200.0395 220.5395,199.9404 213.948,200.0522 214.0522,235.052 236.7307,234.9845"/>
    <polyline points="225.0506,235.0193 208.4934,235.4799 207.5201,200.4934 213.9485,200.2191 201.2764,200.7549 202.7549,235.7236 208.5726,235.4776"/>
    <polyline points="202.7459,235.5122 196.8211,235.7842 195.2158,200.8211 220.5538,199.4809 189.3354,200.6908 190.6908,235.6646 196.8047,235.4276 196.8189,235.7359 193.4672,235.557 193.6895,235.5689 193.6372,236.2641 158.7359,233.6372 161.3628,198.7359 166.9543,199.1568"/>
    <polyline points="161.3421,199.011 155.6456,198.4964 152.4964,233.3544 187.3544,236.5036 187.4183,235.796"/>
    <polyline points="188.5063,235.2922 190.6809,235.4082 184.3919,235.3833 183.6167,200.3919 214.9745,199.6972"/>
    <polyline points="201.0298,200.0061 178.0194,199.9806 177.9806,234.9806 184.385,235.0722 182.7689,234.9859"/>
    <polyline points="181.2971,235.9564 181.2346,236.603 146.397,233.2346 149.7654,198.397 155.6036,198.9615"/>
    <polyline points="149.7064,199.008 143.705,198.4469 140.4469,233.295 175.295,236.553 175.3436,236.0334"/>
    <polyline points="176.4087,234.6464 177.9809,234.7303 171.5252,234.512 172.488,199.5252 189.4984,199.9933"/>
    <polyline points="177.8232,199.672 166.9578,199.092 165.092,234.0422 171.5287,234.3859"/>
    <polyline points="169.5547,236.0164 169.5269,236.3584 134.6416,233.5269 137.4731,198.6416 143.64,199.1422"/>
    <polyline points="137.4156,199.3493 131.1031,198.9625 128.9625,233.8969 163.9052,235.9021"/>
    <polyline points="155.4145,235.5178 123.3754,234.3522 124.6478,199.3754 131.0634,199.6087 131.0777,199.3756 128.196,199.5044 128.2011,199.236 93.236,200.7989 94.7989,235.764 100.7869,235.4963"/>
    <polyline points="97.9223,235.6244 97.897,236.0375 89.8531,235.5446"/>
    <polyline points="91.5844,235.6507 91.5269,236.3584 56.6416,233.5269 59.4731,198.6416 65.0948,199.0979"/>
    <polyline points="59.4453,198.9836 53.705,198.4469 50.447,233.295 85.295,236.553 85.36,235.8578"/>
    <polyline points="84.6306,235.2246 88.6035,235.4681 88.5932,235.1653 82.264,235.2601 81.7399,200.264 109.7549,199.8445"/>
    <polyline points="111.7418,200.3914 105.4128,200.6076 106.6076,235.5872 119.2451,235.1555"/>
    <polyline points="106.6048,235.5045 100.7989,235.764 99.236,200.7989 118.1702,199.9526 118.1681,200.1677 111.7399,200.264 112.264,235.2601 131.9112,234.9658"/>
    <polyline points="143.2922,235.0768 117.8303,234.8286 118.1714,199.8303 124.6289,199.8932 124.6373,199.6635 120.4166,199.8522"/>
    <polyline points="122.3952,199.4955 87.4128,200.6076 88.6076,235.5872 94.7816,235.3763"/>
    <line x1="104.1118" x2="104.3529" y1="235.6159" y2="235.6051"/>
    <polyline points="103.7584,256.3202 103.0914,254.6854 70.6854,267.9086 83.9086,300.3146 89.6134,297.9868"/>
    <polyline points="96.2292,298.2291 90.8454,300.6862 76.3139,268.8454 108.1546,254.3139 109.0294,256.2307"/>
    <polyline points="114.4834,256.1899 113.4276,254.0553 82.0553,269.5724 97.5724,300.9447 102.6899,298.4135"/>
    <polyline points="109.0092,298.5525 104.1046,301.118 87.882,270.1046 118.8954,253.882 120.0989,256.1829"/>
    <polyline points="125.8619,256.2099 124.5409,253.7739 93.774,270.4591 110.4591,301.226 115.1885,298.6612"/>
    <polyline points="121.2081,298.7515 116.6315,301.2766 99.7235,270.6315 130.3685,253.7235 131.7794,256.2807"/>
    <polyline points="137.877,256.4033 136.4116,253.736 105.736,270.5884 122.5884,301.264 127.0331,298.8222"/>
    <polyline points="132.6269,298.8611 128.2865,301.1742 111.8258,270.2865 142.7135,253.8258 144.1831,256.5836"/>
    <polyline points="150.7183,256.8281 149.3097,254.0158 118.0158,269.6903 133.6903,300.9842 137.9605,298.8454"/>
    <polyline points="143.0209,298.7433 138.7845,300.6633 124.3367,268.7844 156.2155,254.3367 157.4891,257.1467"/>
    <line x1="159.0932" x2="152.3237" y1="261.0294" y2="262.6216"/>
    <polyline points="151.6574,262.7783 144.4581,264.4716 152.4716,298.5419 158.8782,297.035"/>
    <polyline points="152.3739,298.1261 148.1206,299.4775 137.5225,266.1206 170.8794,255.5225 171.6878,258.067"/>
    <polyline points="173.27,259.5541 174.357,259.395 174.3285,259.5987 166.751,259.2799 165.2799,294.2489 190.5088,295.3103"/>
    <polyline points="180.2405,294.8784 160.9605,295.9105 159.0895,260.9605 166.699,260.5164 166.3035,260.5743"/>
    <polyline points="164.4866,257.5536 163.4192,254.826 130.826,267.5808 143.5808,300.174 147.8154,298.5168"/>
    <polyline points="146.4638,316.4282 141.5706,313.4721 123.472,343.4294 153.4294,361.5279 154.7612,359.3235"/>
    <polyline points="149.5635,359.1924 148.4305,361.2585 117.7415,344.4305 134.5695,313.7415 139.7062,316.5581"/>
    <polyline points="132.9572,316.6818 127.6396,314.0327 112.0327,345.3604 143.3604,360.9673 144.3343,359.0124"/>
    <polyline points="139.0157,358.8029 138.1568,360.6853 106.3146,346.1568 120.8432,314.3147 126.2664,316.7891"/>
    <polyline points="119.6782,316.868 114.2262,314.5545 100.5545,346.7738 132.7738,360.4455 133.5617,358.5888"/>
    <polyline points="127.942,358.3952 127.1835,360.2756 94.7244,347.1835 107.8165,314.7244 113.2279,316.907"/>
    <polyline points="106.9396,316.8982 101.6254,314.8066 88.8066,347.3746 121.3746,360.1934 122.1425,358.2424"/>
    <polyline points="116.1574,358.1399 115.3394,360.2087 82.7913,347.3394 95.6606,314.7913 100.8273,316.8342"/>
    <polyline points="94.9068,316.6977 89.956,314.6656 76.6656,347.044 109.044,360.3344 109.9675,358.0847"/>
    <polyline points="103.5475,358.0783 102.4456,360.5754 70.4246,346.4456 84.5544,314.4246 89.2114,316.4795"/>
    <polyline points="83.7769,316.1865 79.4874,314.0842 64.0842,345.5125 95.5126,360.9158 96.8825,358.1206"/>
    <polyline points="89.9772,358.2028 88.2386,361.3137 57.6863,344.2386 74.7614,313.6863 78.6244,315.8452"/>
    <polyline points="73.748,315.4998 70.3486,313.2933 51.2933,342.6515 80.6514,361.7067 82.8582,358.3067"/>
    <polyline points="75.5714,358.4094 72.8169,362.0254 44.9745,340.8169 66.1831,312.9746 69.1089,315.2033"/>
    <polyline points="64.6364,315.005 62.1655,312.7873 38.7873,338.8345 64.8345,362.2127 68.1757,358.4901"/>
    <polyline points="60.7373,358.5354 56.8255,362.2395 32.7605,336.8255 58.1745,312.7605 60.2358,314.9373"/>
    <polyline points="55.8024,315.0067 54.0854,312.8867 26.8867,334.9146 48.9146,362.1133 53.3242,358.542"/>
    <polyline points="46.002,358.517 41.2108,361.8742 21.1258,333.2108 49.7892,313.1258 51.2377,315.193"/>
    <polyline points="46.4643,315.4556 45.2077,313.4184 15.4184,331.7923 33.7923,361.5816 38.8289,358.475"/>
    <polyline points="31.8513,358.4347 26.7,361.2962 9.7038,330.7 40.3,313.7038 41.4344,315.7458"/>
    <polyline points="36.1323,316.0189 35.0605,313.9344 3.9344,329.9395 19.9395,361.0656 25.0984,358.413"/>
    <polyline points="30.372,375.4761 27.6892,372.752 2.752,397.3108 27.3108,422.248 30.6233,418.9858"/>
    <polyline points="37.1938,418.9338 34.0208,422.2433 8.7567,398.0208 32.9792,372.7567 35.7748,375.4371"/>
    <polyline points="41.0605,375.3977 38.1491,372.7881 14.7882,398.8509 40.8509,422.2118 43.865,418.8492"/>
    <polyline points="50.6609,418.7291 47.845,422.1374 20.8626,399.845 43.155,372.8626 46.1977,375.3764"/>
    <polyline points="51.1719,375.3975 47.973,373.0039 27.0039,401.027 55.027,421.9961 57.5914,418.5691"/>
    <polyline points="64.6516,418.3627 62.3953,421.7598 33.2402,402.3953 52.6047,373.2402 55.9888,375.4879"/>
    <polyline points="60.6748,375.6726 57.0775,373.5991 39.5991,403.9225 69.9225,421.4009 71.8232,418.1032"/>
    <polyline points="79.0771,417.7856 77.5582,420.9001 46.0999,405.5582 61.4418,374.0999 65.2743,375.969"/>
    <polyline points="69.8445,376.3816 65.764,374.7467 52.7467,407.236 85.236,420.2533 86.3755,417.4091"/>
    <polyline points="87.0932,413.768 80.2311,413.031 83.969,378.2311 94.8056,379.3951"/>
    <polyline points="85.5431,378.4002 79.1733,377.3197 73.3197,411.8267 80.2345,412.9997"/>
    <polyline points="80.7428,413.0859 107.8267,417.6803 108.1075,416.0252"/>
    <polyline points="106.8433,415.2587 100.4215,415.4116 99.5884,380.4215 128.6184,379.7303"/>
    <polyline points="140.1336,379.2665 105.1703,380.871 106.871,415.8297 113.1423,415.5246"/>
    <polyline points="115.1158,415.9789 115.031,416.7689 102.0369,415.3732"/>
    <polyline points="100.9337,416.511 100.432,418.6013 66.3987,410.4319 74.568,376.3987 79.1432,377.497"/>
    <polyline points="74.4478,376.8998 70.1167,375.5246 59.5246,408.8833 92.8833,419.4754 93.6758,416.9796"/>
    <polyline points="91.9882,414.2938 93.8229,414.4909 87.0792,414.0279 88.9721,379.0791 104.6437,379.928"/>
    <polyline points="115.5623,380.0412 94.1824,379.8195 93.8195,414.8176 100.409,414.886 100.4165,415.1991 97.1903,414.8526"/>
    <polyline points="95.2942,436.0388 93.8738,433.5861 63.5861,451.1262 81.1262,481.4139 85.7919,478.7119"/>
    <polyline points="79.638,478.8442 75.1986,481.4331 57.5669,451.1986 87.8014,433.5669 89.3428,436.2101"/>
    <polyline points="83.0558,436.3344 81.2798,433.4356 51.4356,451.7202 69.7202,481.5644 73.8129,479.0569"/>
    <polyline points="68.3551,479.3362 64.7089,481.7806 45.2194,452.7089 74.2911,433.2194 76.4286,436.4078"/>
    <polyline points="69.4807,436.4443 66.8478,432.9787 38.9787,454.1522 60.1522,482.0213 63.2781,479.6463"/>
    <polyline points="58.5661,479.9336 56.0036,482.2035 32.7965,456.0036 58.9964,432.7965 62.2512,436.471"/>
    <polyline points="54.7915,436.5212 50.8176,432.7607 26.7607,458.1824 52.1824,482.2393 54.1725,480.1363"/>
    <polyline points="50.024,480.1968 48.5787,482.0565 20.9435,460.5787 42.4213,432.9435 47.1597,436.6261"/>
    <polyline points="39.4155,436.8111 33.9336,433.3854 15.3854,463.0664 45.0664,481.6146 46.0287,480.0747"/>
    <polyline points="42.0883,479.7535 41.5205,480.9131 10.0869,465.5205 25.4795,434.0869 31.617,437.0924"/>
    <polyline points="23.8197,437.4765 17.1648,435.0126 5.0126,467.8351 37.8352,479.9874 38.1106,479.2433"/>
    <polyline points="38.5331,498.2499 31.7911,496.895 24.895,531.2089 31.9802,532.6328"/>
    <line x1="32.9146" x2="39.3242" y1="532.8206" y2="534.1088"/>
    <polyline points="39.3436,533.6213 31.9714,532.7031 36.2969,497.9714 50.1086,499.6915"/>
    <polyline points="60.7462,500.1155 40.7108,499.317 39.317,534.2892 46.8296,534.5886"/>
    <line x1="46.8813" x2="40.4462" y1="535.6275" y2="534.3342"/>
    <polyline points="38.9473,537.592 38.1509,539.8396 5.1604,528.1509 16.8491,495.1604 21.6896,496.8755"/>
    <polyline points="26.8404,497.023 22.1191,495.5233 11.5233,528.8809 44.8809,539.4768 45.5942,537.231"/>
    <polyline points="47.7667,535.8055 59.2089,538.105 59.5149,536.5825"/>
    <polyline points="61.2055,536.3439 61.9057,536.4311 54.617,537.2736 49.7264,502.617 81.7718,498.0948"/>
    <polyline points="88.707,496.8892 88.6209,496.5157 54.5157,504.3791 62.3791,538.4843 69.2549,536.899"/>
    <polyline points="76.4721,537.4256 70.055,539.4434 59.5566,506.0549 92.945,495.5566 93.239,496.4915"/>
    <polyline points="98.0208,496.2703 97.4674,494.8471 64.8471,507.5326 77.5326,540.1528 83.4702,537.8438"/>
    <polyline points="90.2251,538.1685 84.7311,540.6432 70.3568,508.7311 102.2689,494.3568 103.0894,496.1783"/>
    <polyline points="108.4466,496.1705 107.3899,494.0426 76.0426,509.6101 91.6101,540.9574 96.7341,538.4128"/>
    <polyline points="103.0114,538.5883 98.1692,541.1381 81.8619,510.1692 112.8308,493.8619 114.0692,496.2137"/>
    <polyline points="119.924,496.2923 118.5657,493.7813 87.7813,510.4343 104.4343,541.2187 109.076,538.7078"/>
    <polyline points="114.9396,538.7816 110.4343,541.2187 93.7813,510.4343 124.5657,493.7813 125.9848,496.4046"/>
    <polyline points="132.2283,496.5367 130.815,493.857 99.857,510.1851 116.185,541.143 120.6271,538.8002"/>
    <polyline points="126.1893,538.7563 121.7332,540.9985 106.0016,509.7332 137.2668,494.0016 138.6115,496.674"/>
    <polyline points="145.0753,496.8036 143.8452,494.2007 112.2007,509.1548 127.1548,540.7993 131.6943,538.654"/>
    <polyline points="137.2152,538.509 132.5376,540.5689 118.4311,508.5376 150.4624,494.4311 151.5551,496.9123"/>
    <polyline points="157.9884,496.9862 157.0325,494.6607 124.6607,507.9675 137.9675,540.3393 142.8185,538.3452"/>
    <polyline points="148.5559,538.1907 143.5175,540.1462 130.8538,507.5175 163.4825,494.8538 164.3202,497.0123"/>
    <polyline points="170.5086,496.9819 169.7589,494.9777 136.9777,507.2411 149.2411,540.0223 154.4588,538.0704"/>
    <polyline points="160.5362,538.0015 155.1698,539.9898 143.0103,507.1698 175.8302,495.0103 176.5283,496.8946"/>
    <polyline points="182.3739,496.7605 181.6885,494.9457 148.9457,507.3115 161.3115,540.0543 166.7762,537.9904"/>
    <polyline points="173.1473,538.0338 167.6504,540.2043 154.7957,507.6504 187.3496,494.7957 188.062,496.5998"/>
    <polyline points="193.6312,496.4393 192.8525,494.5865 160.5865,508.1475 174.1475,540.4135 179.6027,538.1208"/>
    <polyline points="186.0843,538.238 180.7422,540.6473 166.3526,508.7422 198.2578,494.3526 199.1389,496.3061"/>
    <polyline points="204.6548,496.2222 203.6437,494.1295 172.1295,509.3563 187.3563,540.8705 192.5283,538.3715"/>
    <polyline points="198.8709,538.5085 193.902,541.0536 177.9464,509.902 209.098,493.9464 210.2518,496.1992"/>
    <polyline points="215.9936,496.2376 214.7063,493.8236 183.8236,510.2937 200.2937,541.1763 205.0572,538.6359"/>
    <polyline points="211.0519,538.7377 206.4631,541.2272 189.7728,510.4631 220.5369,493.7728 221.9224,496.3266"/>
    <polyline points="228.0519,496.4552 226.6229,493.7984 195.7984,510.3771 212.3771,541.2015 216.8428,538.7997"/>
    <polyline points="222.4313,538.8132 218.0355,541.0962 201.9038,510.0355 232.9645,493.9038 234.376,496.6216"/>
    <polyline points="240.8802,496.8247 239.5482,494.0964 208.0964,509.4518 223.4518,540.9036 227.831,538.7656"/>
    <polyline points="233.0709,538.6437 228.6569,540.6149 214.3851,508.6569 246.3431,494.3851 247.5394,497.0638"/>
    <polyline points="254.3187,497.3366 253.3006,494.7745 220.7745,507.6994 233.6994,540.2255 238.1954,538.439"/>
    <polyline points="243.2614,538.1517 238.6429,539.7401 227.2599,506.6429 260.3571,495.2599 261.1749,497.6377"/>
    <polyline points="268.0596,497.9565 267.4417,495.8229 233.8229,505.5583 243.5583,539.1771 248.3314,537.7949"/>
    <polyline points="253.4661,537.3935 248.5152,538.5688 240.4312,504.5152 274.4848,496.4312 274.923,498.2769"/>
    <polyline points="281.7185,498.5784 281.4265,497.0415 247.0415,503.5735 253.5735,537.9586 258.7156,536.9817"/>
    <polyline points="264.1133,536.5961 258.777,537.3931 253.6069,502.777 288.223,497.6069 288.407,498.8395"/>
    <polyline points="294.9614,499.0429 294.8496,498.0863 260.0863,502.1504 264.1504,536.9137 269.6725,536.2681"/>
    <polyline points="275.3859,536.0179 269.6985,536.5477 266.4523,501.6985 301.3015,498.4523 301.3693,499.1805"/>
    <polyline points="307.6354,499.2563 307.592,498.6971 272.6971,501.408 275.408,536.3029 281.2287,535.8507"/>
    <polyline points="287.1634,535.7576 281.2506,536.167 278.833,501.2506 313.7494,498.833 313.7807,499.2858"/>
    <polyline points="319.8398,499.2906 319.8134,498.8888 284.8888,501.1866 287.1866,536.1111 293.1479,535.7189"/>
    <polyline points="299.1471,535.7103 293.1726,536.0988 290.9012,501.1726 325.8274,498.9012 325.8527,499.2899"/>
    <polygon points="326.3438,501.8302 361.1698,498.3438 364.6562,533.1697 329.8302,536.6561"/>
    <polyline points="331.8528,499.2887 331.8277,498.9014 296.9014,501.1723 299.1723,536.0986 305.1489,535.71"/>
    <polyline points="311.1728,535.7097 305.1743,536.1003 302.8997,501.1743 337.8257,498.8997 337.85,499.2727"/>
    <polyline points="343.8224,499.2185 343.7997,498.8769 308.8769,501.2003 311.2003,536.1231 317.2562,535.7202"/>
    <polyline points="323.4385,535.7628 317.2906,536.2017 314.7982,501.2906 349.7094,498.7982 349.7311,499.1025"/>
    <polyline points="355.5345,498.908 355.5116,498.6286 320.6286,501.4884 323.4884,536.3714 329.7503,535.858"/>
    <polyline points="328.723,479.0406 324.9323,482.1152 302.8848,454.9323 330.0677,432.8848 332.3155,435.6562"/>
    <polyline points="337.8955,435.5045 335.6669,432.8463 308.8463,455.3331 331.3331,482.1537 335.1574,478.9473"/>
    <polyline points="341.8233,478.856 338.057,482.2066 314.7934,456.057 340.943,432.7934 343.2157,435.348"/>
    <polyline points="326.4898,435.7868 324.1626,432.8949 296.8949,454.8374 318.8374,482.1051 322.5203,479.1414"/>
    <polyline points="316.5411,479.2515 313.0261,482.1248 290.8752,455.0261 317.9739,432.8752 320.4392,435.8911"/>
    <polyline points="314.182,435.9748 311.5152,432.8334 284.8334,455.4848 307.4848,482.1666 310.7762,479.3724"/>
    <polyline points="305.2288,479.5092 302.2283,482.216 278.784,456.2283 304.7717,432.784 307.7216,436.0539"/>
    <polyline points="301.046,436.145 297.7103,432.7522 272.7522,457.2897 297.2897,482.2478 299.9222,479.6598"/>
    <polyline points="294.8864,479.8034 292.6922,482.22 266.78,458.6922 290.3078,432.78 294.1414,436.2609"/>
    <polyline points="287.0069,436.4154 282.5725,432.925 260.925,460.4275 288.4275,482.075 290.1385,479.9013"/>
    <polyline points="285.6669,479.9021 284.4452,481.7496 255.2504,462.4452 274.5548,433.2504 279.6596,436.6258"/>
    <polyline points="272.1347,436.9104 266.348,433.8072 249.8072,464.652 280.652,481.1928 281.4245,479.7523"/>
    <polyline points="277.3286,479.4106 276.9226,480.3848 244.6152,466.9226 258.0774,434.6152 264.4833,437.2844"/>
    <polyline points="256.7692,437.7548 249.8796,435.649 239.649,469.1204 273.1204,479.351 273.2696,478.8627"/>
    <polyline points="269.1283,478.1308 234.8373,471.1218 241.8782,436.8373 249.0653,438.3133"/>
    <polyline points="239.5306,438.7073 241.4102,438.543 241.4479,438.9327 234.1633,438.0762 230.0762,472.8367 260.7489,476.4432"/>
    <polyline points="251.6475,475.373 225.2521,474.2187 226.7813,439.2521 233.988,439.5673"/>
    <line x1="234.0326" x2="231.1228" y1="439.1877" y2="439.442"/>
    <polyline points="229.1205,438.9189 229.0489,438.2456 194.2456,441.9511 197.9511,476.7544 203.8227,476.1293"/>
    <polyline points="209.5599,476.114 203.8811,476.6977 200.3023,441.8811 234.1247,438.4045"/>
    <polyline points="223.2393,438.8641 223.1894,438.3599 188.3599,441.8106 191.8106,476.6401 197.875,476.0393"/>
    <polyline points="192.7989,476.5422 192.7432,476.9973 186.6145,476.2469"/>
    <polyline points="185.385,475.5104 178.8671,475.8261 177.1739,440.8671 209.5837,439.2973"/>
    <polyline points="217.5691,438.9167 217.5486,438.6601 182.6601,441.4514 185.4514,476.3399 191.7311,475.8375"/>
    <polyline points="181.9568,475.6765 185.4324,476.1021 185.1805,478.1238 159.5059,472.9272"/>
    <polyline points="158.017,472.6259 150.8762,471.1805 157.8195,436.8762 165.1131,438.3524"/>
    <polyline points="157.7903,437.0204 153.6028,435.7984 143.7984,469.3972 177.3972,479.2016 178.1282,476.6964"/>
    <polyline points="176.8402,475.0499 178.8414,475.295 178.8292,475.0421 172.069,475.0687 171.9313,440.069 195.5724,439.976"/>
    <polyline points="184.344,440.0201 166.9561,439.0935 165.0935,474.0439 172.0666,474.4654 171.3459,474.3771"/>
    <polyline points="170.6027,477.2189 169.4591,480.1565 136.8435,467.4591 149.5409,434.8435 153.4387,436.361"/>
    <polyline points="149.1529,435.8401 145.5509,434.0626 130.0626,465.4491 161.4491,480.9374 163.0632,477.6665"/>
    <polyline points="165.1164,473.6143 158.0027,472.7431 162.2568,438.0027 174.4078,439.4906"/>
    <polyline points="175.6734,416.7655 169.5124,417.9168 163.0832,383.5124 197.4876,377.0832 197.6406,377.9018"/>
    <polyline points="192.0656,378.0964 191.9537,377.4104 157.4104,383.0463 163.0463,417.5896 169.2617,416.5755"/>
    <polyline points="162.8518,416.3974 156.6233,417.2784 151.7216,382.6233 186.3767,377.7216 186.4595,378.3068"/>
    <polyline points="180.7949,378.5111 180.7312,377.9933 145.9933,382.2688 150.2688,417.0067 156.4768,416.2427"/>
    <polyline points="150.1595,416.1182 143.9932,416.7884 140.2116,381.9933 175.0068,378.2116 175.0589,378.6914"/>
    <polyline points="169.2536,378.8369 169.2083,378.3754 134.3754,381.7917 137.7917,416.6246 143.9102,416.0245"/>
    <polyline points="137.7259,415.9541 131.6452,416.5033 128.4967,381.6453 163.3548,378.4967 163.3953,378.9456"/>
    <polyline points="157.513,379.0243 157.4774,378.5997 122.5997,381.5226 125.5226,416.4003 131.59,415.8918"/>
    <polyline points="125.4736,415.8164 119.3829,416.2813 116.7187,381.3829 151.6171,378.7187 151.6454,379.0884"/>
    <polyline points="145.837,379.1599 145.8196,378.8944 110.8944,381.1804 113.1804,416.1056 119.3443,415.7755 118.7313,415.7423"/>
    <polyline points="116.6451,435.3495 114.8426,432.978 86.978,454.1574 108.1574,482.022 112.4905,478.7284"/>
    <polyline points="105.6239,478.6888 101.0561,481.8465 81.1535,453.0562 109.9439,433.1535 111.5517,435.4794"/>
    <polyline points="106.3376,435.6465 104.8708,433.3411 75.3411,452.1292 94.1292,481.6589 98.8501,478.6553"/>
    <polyline points="92.2179,478.655 87.4587,481.5 69.5,451.4586 99.5413,433.5 100.941,435.8413"/>
    <polyline points="121.6483,435.2479 119.6246,432.8426 92.8426,455.3754 115.3754,482.1574 119.4304,478.7457"/>
    <polyline points="126.4501,478.7224 122.7025,482.2359 98.7641,456.7025 124.2975,432.7641 126.5539,435.1709"/>
    <polyline points="131.3381,435.1289 128.8392,432.7601 104.7601,458.1608 130.1608,482.2399 133.5659,478.6478"/>
    <polyline points="140.7903,478.5135 137.7726,482.1442 110.8558,459.7726 133.2274,432.8558 135.9811,435.1446"/>
    <polyline points="140.48,435.2484 137.4562,433.0839 117.0839,461.5438 145.5438,481.9161 148.1248,478.3104"/>
    <polyline points="155.5577,478.0302 153.4527,481.5222 123.4778,463.4527 141.5473,433.4778 144.8554,435.472"/>
    <polyline points="182.0459,416.9536 175.9819,418.2307 168.7693,383.9819 203.0181,376.7693 203.2236,377.7453"/>
    <polyline points="208.8613,377.646 208.5956,376.4998 174.4998,384.4044 182.4044,418.5002 188.3346,417.1253"/>
    <polyline points="194.4956,417.2655 188.7239,418.696 180.304,384.7239 214.2761,376.304 214.6017,377.6176"/>
    <polyline points="220.487,377.6668 220.1132,376.2067 186.2067,384.8868 194.8868,418.7933 200.4923,417.3583"/>
    <polyline points="206.3028,417.3867 200.8518,418.7726 192.2274,384.8518 226.1482,376.2274 226.5462,377.7929"/>
    <polyline points="230.953,381.2268 224.2602,381.933 227.933,416.7398 236.328,415.8539"/>
    <polyline points="227.9193,416.61 222.753,417.3753 217.6247,382.753 252.247,377.6247 252.4446,378.959"/>
    <polyline points="250.6664,379.8592 244.2265,379.7764 243.7764,414.7735 270.0595,415.1115"/>
    <polyline points="273.6254,414.4932 267.2457,414.2117 268.7883,379.2457 280.2154,379.7498"/>
    <polyline points="268.7821,379.3856 262.9851,379.0675 261.0675,414.0149 280.1732,415.0633 280.1704,414.7819 279.0625,414.733"/>
    <polyline points="280.1702,414.7572 273.6227,414.6144 274.3856,379.6227 293.4795,380.039"/>
    <polyline points="304.5465,379.9293 279.8274,380.1743 280.1743,415.1726 286.8279,415.1067"/>
    <polyline points="287.7488,415.7791 290.05,415.901 290.0624,415.6676"/>
    <polyline points="290.6617,415.6388 293.5764,415.7987 293.5495,415.4997 286.8623,415.8218 285.1782,380.8623 315.202,379.416"/>
    <polyline points="325.3634,378.5327 290.5015,381.6394 293.6394,416.4985 300.2949,415.8994"/>
    <polyline points="307.049,416.2793 300.4622,417.1561 295.8439,382.4622 330.5378,377.8439 330.5751,378.124"/>
    <polyline points="335.7763,377.7328 335.6857,377.2203 301.2203,383.3143 307.3143,417.7797 313.8253,416.6284"/>
    <polyline points="320.6511,416.9498 314.2148,418.3807 306.6193,384.2148 340.7852,376.6193 340.9458,377.3417"/>
    <polyline points="346.0471,376.9397 345.798,376.023 312.023,385.202 321.202,418.977 327.5555,417.2503"/>
    <polyline points="334.5602,417.5338 328.3184,419.5787 317.4213,386.3184 350.6816,375.4213 351.044,376.5272"/>
    <polyline points="349.5913,358.6992 348.8772,360.4034 316.5966,346.8772 330.1228,314.5966 335.7509,316.9548"/>
    <polyline points="329.032,317.1996 323.1372,315.0253 311.0253,347.8628 343.8628,359.9747 344.3971,358.5262"/>
    <polyline points="339.2324,358.2668 338.8386,359.4986 305.5014,348.8386 316.1614,315.5014 322.2441,317.4465"/>
    <polyline points="315.4663,317.6754 309.296,315.9695 299.9695,349.704 333.704,359.0305 334.0022,357.9521"/>
    <polyline points="328.6299,357.6277 328.3875,358.6285 294.3715,350.3875 302.6125,316.3715 308.7723,317.8638"/>
    <polyline points="302.2189,317.9961 296.1392,316.6676 288.6676,350.8608 322.8608,358.3324 323.0772,357.342"/>
    <polyline points="317.3386,357.1257 317.1266,358.1596 282.8404,351.1266 289.8734,316.8404 295.8342,318.0632"/>
    <polyline points="289.6245,318.0542 283.814,316.8798 276.8798,351.186 311.186,358.1202 311.4149,356.9879"/>
    <polyline points="305.3109,356.9327 305.0424,358.2148 270.7852,351.0424 277.9576,316.7852 283.5946,317.9654"/>
    <polyline points="277.7446,317.8025 272.2941,316.5691 264.5691,350.7059 298.7059,358.4309 299.0392,356.9579"/>
    <polyline points="292.6209,357.0539 292.195,358.7447 258.2553,350.195 266.805,316.2553 272.0652,317.5804"/>
    <polyline points="266.5366,317.3212 261.4622,315.8761 251.8761,349.5378 285.5378,359.1239 286.0841,357.2054"/>
    <polyline points="279.4625,357.3938 278.7712,359.5332 245.4668,348.7712 256.2288,315.4668 261.128,317.0499"/>
    <polyline points="255.8012,316.7901 251.062,315.0601 239.0601,347.938 271.938,359.9399 272.7918,357.601"/>
    <polyline points="266.1064,357.8111 265.0822,360.3184 232.6815,347.0822 245.9178,314.6816 250.5147,316.5595"/>
    <polyline points="245.229,316.3677 240.7566,314.3472 226.3472,346.2434 258.2434,360.6528 259.4364,358.012"/>
    <polyline points="252.8036,358.1953 251.4512,360.9367 220.0633,345.4512 235.5488,314.0633 239.9123,316.2161"/>
    <polyline points="234.5444,316.0991 230.2797,313.8279 213.8279,344.7203 244.7203,361.1721 246.2201,358.3559"/>
    <polyline points="239.6862,358.4912 238.0491,361.3665 207.6335,344.0491 224.9509,313.6335 229.1193,316.0068"/>
    <polyline points="223.6445,315.928 219.5792,313.4699 201.4699,343.4208 231.4208,361.5301 233.1918,358.601"/>
    <polyline points="226.7193,358.6874 224.8094,361.6725 195.3275,342.8094 214.1906,313.3275 218.1382,315.8532"/>
    <polyline points="212.6225,315.7784 208.8104,313.1996 189.1996,342.1897 218.1896,361.8004 220.2497,358.7551"/>
    <polyline points="213.7728,358.8125 211.5545,361.9144 183.0856,341.5544 203.4455,313.0856 207.1131,315.7086"/>
    <polyline points="201.6041,315.6605 198.0641,312.9909 176.9909,340.9359 204.9359,362.0091 207.3012,358.8726"/>
    <polyline points="200.87,358.943 198.3951,362.0788 170.9212,340.3951 192.6049,312.9212 196.0602,315.6482"/>
    <polyline points="190.4306,315.6761 186.9999,312.8779 164.8779,340.0001 192.0001,362.1221 194.5261,359.0252"/>
    <polyline points="188.3156,359.1169 185.8102,362.1407 158.8593,339.8102 181.1898,312.8593 184.6658,315.7395"/>
    <polyline points="178.7291,315.8291 175.1349,312.8645 152.8645,339.8651 179.8651,362.1355 182.2761,359.2124"/>
    <polyline points="176.43,359.3022 174.1791,362.1033 146.8967,340.1791 168.8209,312.8967 172.6021,315.9353"/>
    <polyline points="166.2861,316.051 162.2602,312.9642 140.9642,340.7398 168.7398,362.0358 170.7814,359.3729"/>
    <polyline points="165.3136,359.4089 163.5095,361.9218 135.0782,341.5095 155.4905,313.0782 159.8004,316.1725"/>
    <polyline points="153.1784,316.2986 148.57,313.2472 129.2473,342.43 158.43,361.7528 159.9908,359.3955"/>
    <polyline points="169.7821,295.4382 156.7204,297.351 151.649,262.7204 159.1251,261.6256"/>
    <polyline points="159.4732,260.94 178.5284,256.4581 178.9761,258.3618"/>
    <line x1="180.2232" x2="182.0998" y1="258.5359" y2="258.2611"/>
    <polyline points="181.9758,258.7805 174.5866,257.7493 169.7493,292.4134 200.7017,296.7328"/>
    <polyline points="208.5125,298.3634 208.4598,298.5842 174.4158,290.4598 182.5402,256.4158 189.6063,258.1021"/>
    <polyline points="197.1984,257.5573 190.5574,255.3018 179.3018,288.4426 212.4426,299.6982 212.6978,298.9469"/>
    <polyline points="216.9432,299.3788 216.4059,300.5908 184.4092,286.4059 198.5941,254.4092 204.7416,257.1346"/>
    <polyline points="212.2319,256.8199 206.6194,253.727 189.727,284.3806 220.3806,301.273 221.258,299.681"/>
    <polyline points="225.6432,299.8726 224.388,301.7612 195.2388,282.388 214.612,253.2388 219.6697,256.6002"/>
    <polyline points="227.0582,256.465 222.5574,252.9268 200.9268,280.4425 228.4426,302.0732 230.0954,299.9706"/>
    <polyline points="234.6095,299.9856 232.5516,302.2264 206.7736,278.5515 230.4484,252.7736 234.4007,256.4034"/>
    <polyline points="241.6962,256.4048 238.2766,252.7634 212.7634,276.7234 236.7234,302.2365 239.1863,299.9236"/>
    <polyline points="243.8363,299.7895 240.9735,302.1194 218.8806,274.9735 246.0265,252.8806 248.938,256.4579"/>
    <polyline points="256.1118,256.55 253.674,253.1058 225.1058,273.326 245.326,301.8942 248.5799,299.5912"/>
    <polyline points="253.4455,299.3416 249.8129,301.5865 231.4136,271.8129 261.1871,253.4136 263.1969,256.6658"/>
    <polyline points="270.1674,256.7872 268.5296,253.7706 237.7706,270.4704 254.4704,301.2294 258.4658,299.0602"/>
    <polyline points="263.6728,298.7719 259.3347,300.863 244.137,269.3347 275.6653,254.137 276.994,256.8935"/>
    <polyline points="283.6472,256.9634 282.562,254.47 250.47,268.438 264.438,300.53 269.0937,298.5036"/>
    <polyline points="274.7473,298.2805 269.8055,300.271 256.729,267.8055 289.1945,254.729 290.1002,256.9775"/>
    <polyline points="296.3308,256.9225 295.5452,254.8816 262.8816,267.4548 275.4548,300.1184 280.6425,298.1215"/>
    <polyline points="286.7778,298.036 281.3949,300.0917 268.9083,267.3949 301.6051,254.9082 302.3248,256.7929"/>
    <polyline points="308.0763,256.5933 307.3724,254.8056 274.8056,267.6276 287.6276,300.1944 293.1433,298.0228"/>
    <polyline points="299.7235,298.0705 294.1484,300.4139 280.5861,268.1484 312.8516,254.5861 313.5874,256.3366"/>
    <polyline points="318.8656,256.0399 318.0508,254.2753 286.2753,268.9492 300.9492,300.7247 306.5026,298.1601"/>
    <polyline points="313.4676,298.2685 308.0236,301.0924 291.9076,270.0236 322.9764,253.9076 323.9181,255.7229"/>
    <polyline points="328.7621,255.432 327.6301,253.5225 297.5225,271.3699 315.3699,301.4775 320.586,298.3855"/>
    <polyline points="327.7916,298.5049 322.9394,301.8249 303.1751,272.9394 332.0606,253.1751 333.4642,255.2265"/>
    <polyline points="338.142,255.1452 336.384,252.9199 308.9199,274.616 330.616,302.0801 334.995,298.6208"/>
    <polyline points="342.0964,298.7362 338.2429,302.2168 314.7832,276.2429 340.7571,252.7832 342.9351,255.1946"/>
    <polygon points="370.2483,277.3482 345.6518,302.2483 320.7517,277.6518 345.3482,252.7517"/>
    <polygon points="337.0058,314.2546 368.7454,329.0058 353.9942,360.7454 322.2546,345.9942"/>
    <polygon points="335.5989,420.1819 368.1819,407.4011 355.4011,374.8181 322.8181,387.5989"/>
    <polygon points="320.7544,457.1069 345.1069,482.2456 370.2456,457.8931 345.8931,432.7544"/>
    <polyline points="284.316,415.5973 249.3395,414.3136 250.6864,379.3395 256.9285,379.5036 256.1718,379.5508"/>
    <polyline points="259.1679,379.2165 259.067,378.2602 244.6473,379.7818"/>
    <line x1="244.2259" x2="239.2825" y1="379.8263" y2="380.3479"/>
    <polyline points="239.2043,378.2578 238.8556,376.6643 204.6643,384.1443 212.1444,418.3357 217.3761,417.1912"/>
    <polyline points="222.6898,416.9488 217.5115,417.9162 211.0838,383.5115 245.4885,377.0838 245.7688,378.5843"/>
    <polyline points="244.2206,380.2407 237.6244,380.3838 238.3839,415.3756 257.81,414.954"/>
    <polyline points="247.0225,415.1881 233.1212,416.0536 230.9464,381.1212 237.6274,380.5225 233.4029,380.9683"/>
    <polyline points="232.7886,377.9916 232.3987,376.3784 198.3783,384.6013 206.6013,418.6216 211.9254,417.3348"/>
    <polyline points="222.0938,440.231 226.7563,439.8235 226.7416,440.1607 219.7374,440.2666 220.2666,475.2626 241.7082,474.9384"/>
    <polyline points="230.0597,475.1145 215.0543,475.9943 213.0057,441.0543 219.7434,440.6593 219.74,440.4366 206.543,441.5898 209.5898,476.457 215.0535,475.9796"/>
    <polyline points="281.8612,415.1559 286.8434,415.4293 286.858,415.7319 255.099,414.05 256.95,379.099 262.9658,379.4176 262.9818,379.1268 260.4501,379.2844"/>
    <polyline points="263.4895,379.0952 265.8788,378.9464 265.8963,379.2272"/>
    <polyline points="200.0568,235.6357 200.0422,235.908 197.3067,235.762"/>
    <polyline points="146.4895,172.8964 139.1173,171.5373 145.4627,137.1173 155.7704,139.0176"/>
    <polyline points="97.0888,200.0342 76.1714,199.8303 75.8303,234.8286 82.2613,235.0795 78.6094,234.8557"/>
    <polyline points="79.2936,235.992 79.2346,236.603 44.397,233.2346 47.7654,198.397 53.6564,198.9666"/>
    <polyline points="47.7029,199.0436 41.6456,198.4964 38.4964,233.3544 73.3544,236.5036 73.3964,236.0385"/>
    <polyline points="71.8788,234.4433 75.8317,234.6855 69.3754,234.3522 70.6478,199.3754 85.7078,199.9232"/>
    <polyline points="73.5855,199.4822 65.103,198.9625 62.9625,233.8969 69.3776,234.29"/>
    <polyline points="67.6579,235.989 67.6372,236.2641 32.7359,233.6372 35.3628,198.7359 41.5817,199.204"/>
    <polyline points="35.3105,199.4311 28.9577,199.092 27.092,234.0422 62.0457,235.8432"/>
    <polyline points="51.1768,235.328 21.5252,234.512 22.488,199.5252 28.9252,199.7024"/>
    <polyline points="22.4753,199.9878 16.0194,199.9806 15.9806,234.9806 39.5016,235.0067"/>
    <polyline points="27.9702,234.9939 10.3919,235.3833 9.6167,200.3919 16.0191,200.2501"/>
    <polyline points="42.0591,177.2631 42.0137,177.5462 7.4538,172.0137 12.9863,137.4538 19.7074,138.5297"/>
    <polyline points="20.8276,257.1363 15.9221,255.6264 5.6264,289.0778 39.0779,299.3736 39.7231,297.277"/>
    <line x1="42.3755" x2="47.0072" y1="294.7234" y2="295.4548"/>
    <polyline points="46.9699,294.8084 39.6796,294.6736 40.3264,259.6796 61.7017,260.0747"/>
    <polyline points="72.2934,259.4633 45.0207,261.0375 47.0375,295.9793 54.282,295.5612"/>
    <line x1="54.426" x2="49.4478" y1="296.6263" y2="295.8402"/>
    <polyline points="46.4269,296.9111 45.8889,298.9246 12.0753,289.8888 21.1111,256.0754 25.9617,257.3715"/>
    <polyline points="30.9055,257.7269 26.1105,256.686 18.686,290.8895 52.8895,298.314 53.2946,296.4477"/>
    <polyline points="56.3717,296.9336 60.0563,297.5154 60.2305,296.412"/>
    <polyline points="61.5724,296.2306 54.5017,297.1863 49.8137,262.5017 83.156,257.9951"/>
    <polyline points="89.0865,257.1557 89.0027,256.7593 54.7593,263.9972 61.9973,298.2407 68.788,296.8054"/>
    <polyline points="75.8847,297.2849 69.443,299.1131 59.8869,265.443 93.557,255.8869 93.8027,256.7524"/>
    <polyline points="98.6842,256.4838 98.2351,255.2007 65.2007,266.7649 76.7649,299.7993 82.8317,297.6755"/>
    <polyline points="35.1602,293.5841 39.6865,294.2989 39.6921,293.9969 32.4847,293.3404 35.6596,258.4847 50.9293,259.8756"/>
    <polyline points="39.4818,258.8329 30.9437,257.4846 25.4846,292.0563 32.5008,293.1642"/>
    <polyline points="31.7063,497.3168 27.0892,496.088 18.088,529.9108 51.9108,538.912 52.4851,536.7537"/>
    <polyline points="54.2777,535.4811 46.8924,535.849 45.151,500.8924 71.1122,499.5991"/>
    <polyline points="273.3743,177.1092 272.5171,179.6613 239.3387,168.517 250.483,135.3387 254.803,136.7897"/>
    <polyline points="259.4841,137.3339 254.9669,136.1594 246.1594,170.0331 280.0331,178.8406 280.6048,176.6419"/>
    <polyline points="280.5948,175.2504 281.6365,175.3733 274.3991,175.3902 273.6098,140.3991 298.3058,139.842"/>
    <polyline points="287.6353,140.0827 268.8645,139.1762 267.1762,174.1355 274.3794,174.5173 273.8915,174.4598"/>
    <polygon points="346.067,182.2423 320.7578,158.067 344.933,132.7577 370.2422,156.933"/>
    <polygon points="335.8824,194.6965 368.3035,207.8824 355.1176,240.3035 322.6965,227.1176"/>
    <polygon points="365.4045,82.7924 360.2076,117.4045 325.5955,112.2076 330.7924,77.5955"/>
    <polygon points="354.8032,16.026 321.026,25.1968 330.1968,58.974 363.974,49.8032"/>
  </g>
</svg>
