<svg height="1123.1999999999998px" viewBox="0 0 796.8000000000001 1123.1999999999998" width="796.8000000000001px" xmlns="http://www.w3.org/2000/svg" xmlns:inkscape="http://www.inkscape.org/namespaces/inkscape">
<g fill="none" id="layer1" inkscape:groupmode="layer" inkscape:label="1" stroke="black" stroke-width="0.2mm">
<path d="M737.93164,590.98987 L672.78986,467.06833 L548.86835,532.21014 L550.42004,535.1621"/>
<path d="M736.36615,591.8128 L737.93164,590.98987"/>
<path d="M737.90717,594.7431 L672.7438,470.83295 L548.8336,535.9964 L550.3719,538.9215"/>
<path d="M736.2942,595.5914 L737.90717,594.7431"/>
<path d="M737.82294,598.49725 L672.6402,474.59723 L548.74023,539.77997 L550.26465,542.6776"/>
<path d="M736.16296,599.37054 L737.82294,598.49725"/>
<path d="M737.67896,602.2512 L672.47925,478.36017 L548.5882,543.5599 L550.0983,546.4294"/>
<path d="M735.9724,603.14935 L737.67896,602.2512"/>
<path d="M737.4753,606.0043 L672.2609,482.12088 L548.37756,547.3352 L549.873,550.1759"/>
<path d="M735.72266,606.9269 L737.4753,606.0043"/>
<path d="M737.2119,609.7553 L671.9853,485.87842 L548.1084,551.10504 L549.5887,553.9164"/>
<path d="M735.4137,610.70215 L737.2119,609.7553"/>
<path d="M736.88904,613.5035 L671.65234,489.63187 L547.78076,554.8685 L549.2455,557.6498"/>
<path d="M735.0457,614.47424 L736.88904,613.5035"/>
<path d="M736.5066,617.2478 L671.26215,493.38025 L547.39465,558.6247 L548.8435,561.3753"/>
<path d="M734.6187,618.2422 L736.5066,617.2478"/>
<path d="M736.0648,620.9873 L670.8148,497.12268 L546.95026,562.3727 L548.38275,565.0921"/>
<path d="M734.13293,622.005 L736.0648,620.9873"/>
<path d="M735.5638,624.721 L670.3104,500.85822 L546.4476,566.1116 L547.86346,568.79913"/>
<path d="M733.5884,625.7617 L735.5638,624.721"/>
<path d="M735.0036,628.448 L669.74896,504.58588 L545.8868,569.8405 L547.28564,572.4957"/>
<path d="M732.9852,629.51135 L735.0036,628.448"/>
<path d="M734.38446,632.16736 L669.1306,508.30478 L545.268,573.55865 L546.6495,576.18085"/>
<path d="M732.32367,633.253 L734.38446,632.16736"/>
<path d="M733.7065,635.878 L668.4554,512.014 L544.5914,577.2651 L545.9551,579.85376"/>
<path d="M731.6039,636.9856 L733.7065,635.878"/>
<path d="M732.9699,639.579 L667.72345,515.71246 L543.857,580.9589 L545.2027,583.5136"/>
<path d="M730.82605,640.70825 L732.9699,639.579"/>
<path d="M732.1749,643.26935 L666.93494,519.3995 L543.0651,584.63947 L544.3924,587.15955"/>
<path d="M729.9904,644.41986 L732.1749,643.26935"/>
<path d="M731.3218,646.94806 L666.08997,523.0739 L542.2158,588.3057 L543.52435,590.79065"/>
<path d="M729.09717,648.11957 L731.3218,646.94806"/>
<path d="M730.41064,650.61426 L665.1886,526.7349 L541.30927,591.9569 L542.5989,594.40625"/>
<path d="M728.1466,651.8063 L730.41064,650.61426"/>
<path d="M729.4418,654.26685 L664.2311,530.38153 L540.34576,595.5922 L541.6161,598.0055"/>
<path d="M727.13885,655.479 L729.4418,654.26685"/>
<path d="M728.41547,657.90485 L663.21747,534.0129 L539.3255,599.2109 L540.5762,601.5875"/>
<path d="M726.07434,659.13684 L728.41547,657.90485"/>
<path d="M727.33203,661.5273 L662.14795,537.628 L538.24866,602.8121 L539.4795,605.15155"/>
<path d="M724.9533,662.77875 L727.33203,661.5273"/>
<path d="M726.19165,665.13324 L661.0227,541.22595 L537.1155,606.3949 L538.3262,608.69684"/>
<path d="M723.77606,666.40375 L726.19165,665.13324"/>
<path d="M724.99475,668.7216 L659.8419,544.8059 L535.9262,609.95874 L537.1165,612.22266"/>
<path d="M722.5429,670.0108 L724.99475,668.7216"/>
<path d="M723.74164,672.2915 L658.6058,548.3668 L534.68115,613.5027 L535.8508,615.7281"/>
<path d="M721.25415,673.59894 L723.74164,672.2915"/>
<path d="M722.4326,675.84186 L657.31445,551.9079 L533.3805,617.02606 L534.5293,619.2125"/>
<path d="M719.91016,677.16724 L722.4326,675.84186"/>
<path d="M721.06805,679.3717 L655.9682,555.42816 L532.02466,620.5281 L533.15234,622.6751"/>
<path d="M718.51135,680.7146 L721.06805,679.3717"/>
<path d="M719.6484,682.8801 L654.5672,558.92676 L530.61383,624.00793 L531.72015,626.1151"/>
<path d="M717.0581,684.2401 L719.6484,682.8801"/>
<path d="M718.1739,686.366 L653.11163,562.4027 L529.1483,627.46497 L530.23315,629.53186"/>
<path d="M715.5508,687.7428 L718.1739,686.366"/>
<path d="M716.645,689.8285 L651.6018,565.85516 L527.62854,630.89844 L528.6916,632.9246"/>
<path d="M713.98975,691.2216 L716.645,689.8285"/>
<path d="M715.06226,693.26654 L650.03796,569.28326 L526.05475,634.30756 L527.0958,636.2926"/>
<path d="M712.37555,694.6756 L715.06226,693.26654"/>
<path d="M713.4259,696.67914 L648.42035,572.6861 L524.4273,637.69165 L525.4462,639.6352"/>
<path d="M710.7085,698.1038 L713.4259,696.67914"/>
<path d="M711.7365,700.0654 L646.74927,576.06274 L522.7466,641.05005 L523.7432,642.95166"/>
<path d="M708.98914,701.50525 L711.7365,700.0654"/>
<path d="M709.9945,703.4243 L645.0249,579.4124 L521.013,644.382 L521.98706,646.2413"/>
<path d="M707.21783,704.87897 L709.9945,703.4243"/>
<path d="M708.2003,706.75494 L643.2476,582.73413 L519.22687,647.6868 L520.1782,649.50336"/>
<path d="M705.3952,708.22406 L708.2003,706.75494"/>
<path d="M706.3545,710.0563 L641.4177,586.02716 L517.3886,650.96387 L518.31714,652.7373"/>
<path d="M703.52167,711.5394 L706.3545,710.0563"/>
<path d="M704.45746,713.3274 L639.5355,589.2905 L515.49866,654.21246 L516.4041,655.9424"/>
<path d="M701.5977,714.8242 L704.45746,713.3274"/>
<path d="M702.5098,716.5674 L637.6013,592.52344 L513.55743,657.43195 L514.4397,659.1179"/>
<path d="M699.6239,718.0775 L702.5098,716.5674"/>
<path d="M700.512,719.7752 L635.6155,595.7251 L511.56537,660.62164 L512.4242,662.26337"/>
<path d="M697.6007,721.2983 L700.512,719.7752"/>
<path d="M698.46466,722.9501 L633.57837,598.8946 L509.52286,663.7809 L510.35822,665.378"/>
<path d="M695.52875,724.48566 L698.46466,722.9501"/>
<path d="M696.3683,726.09094 L631.4903,602.03107 L507.43042,666.90906 L508.2421,668.4612"/>
<path d="M693.40857,727.63873 L696.3683,726.09094"/>
<path d="M694.2234,729.19696 L629.3516,605.13385 L505.2885,670.00555 L506.07635,671.5123"/>
<path d="M691.2407,730.75653 L694.2234,729.19696"/>
<path d="M692.0306,732.26715 L627.1628,608.20197 L503.0976,673.06976 L503.86148,674.53076"/>
<path d="M689.0258,733.8382 L692.0306,732.26715"/>
<path d="M689.79047,735.3007 L624.9242,611.23474 L500.8582,676.101 L501.598,677.5159"/>
<path d="M686.7644,736.8829 L689.79047,735.3007"/>
<path d="M687.5036,738.2967 L622.63617,614.2313 L498.5708,679.0987 L499.28635,680.4672"/>
<path d="M684.4571,739.8895 L687.5036,738.2967"/>
<path d="M685.17065,741.2542 L620.29926,617.1909 L496.23596,682.06226 L496.92712,683.3841"/>
<path d="M682.1045,742.8574 L685.17065,741.2542"/>
<path d="M682.7922,744.1724 L617.9138,620.11273 L493.85416,684.9911 L494.5208,686.26587"/>
<path d="M679.70734,745.78564 L682.7922,744.1724"/>
<path d="M680.3689,747.0504 L615.48035,622.9961 L491.426,687.88464 L492.06796,689.112"/>
<path d="M677.2661,748.67334 L680.3689,747.0504"/>
<path d="M677.9013,749.8874 L612.9992,625.84015 L488.952,690.7423 L489.56918,691.92194"/>
<path d="M674.7816,751.51965 L677.9013,749.8874"/>
<path d="M675.3902,752.6825 L610.471,628.6442 L486.4327,693.5635 L487.02496,694.69507"/>
<path d="M672.2544,754.3238 L675.3902,752.6825"/>
<path d="M672.8362,755.43494 L607.8961,631.4076 L483.86874,696.34766 L484.43594,697.4309"/>
<path d="M669.6851,757.08484 L672.8362,755.43494"/>
<path d="M670.2399,758.14386 L605.2751,634.12946 L481.2607,699.0943 L481.8027,700.1289"/>
<path d="M667.0746,759.80206 L670.2399,758.14386"/>
<path d="M667.6021,760.8085 L602.60846,636.80914 L478.60916,701.8028 L478.69556,701.9676"/>
<path d="M664.42334,762.4746 L667.6021,760.8085"/>
<path d="M482.17664,701.18835 L599.8968,639.446 L664.9234,763.428"/>
<path d="M661.7322,765.10175 L664.9234,763.428"/>
<path d="M486.01715,700.36444 L489.18225,698.7032"/>
<path d="M489.34735,698.6166 L597.1405,642.03925 L662.2045,766.00165"/>
<path d="M659.0018,767.6827 L662.2045,766.00165"/>
<path d="M489.83963,699.48254 L492.07468,698.3085"/>
<path d="M493.18137,697.7271 L594.3402,644.5883 L659.44617,768.5287"/>
<path d="M656.23285,770.2166 L659.44617,768.5287"/>
<path d="M493.6427,698.54205 L494.8102,697.9282"/>
<path d="M496.99487,696.77954 L591.4965,647.0924 L656.64905,771.0083"/>
<path d="M653.4261,772.7029 L656.64905,771.0083"/>
<path d="M500.7865,695.77344 L588.6099,649.551 L653.81396,773.4398"/>
<path d="M650.5823,775.1407 L653.81396,773.4398"/>
<path d="M504.55493,694.7082 L585.6811,651.96344 L650.9415,775.8225"/>
<path d="M647.7021,777.52936 L650.9415,775.8225"/>
<path d="M508.2988,693.58325 L582.71063,654.329 L648.03253,778.1557"/>
<path d="M644.7864,779.8681 L648.03253,778.1557"/>
<path d="M512.0168,692.3981 L579.69916,656.64716 L645.0877,780.43866"/>
<path d="M641.8358,782.1564 L645.0877,780.43866"/>
<path d="M515.70746,691.152 L576.6472,658.9173 L642.10785,782.6707"/>
<path d="M638.85114,784.3934 L642.10785,782.6707"/>
<path d="M519.36957,689.84454 L573.5556,661.13885 L639.0937,784.8512"/>
<path d="M635.8332,786.5785 L639.0937,784.8512"/>
<path d="M523.0017,688.475 L570.42487,663.31116 L636.046,786.97955"/>
<path d="M632.7827,788.7111 L636.046,786.97955"/>
<path d="M526.6025,687.04266 L567.25574,665.4338 L632.9656,789.05505"/>
<path d="M629.7005,790.7906 L632.9656,789.05505"/>
<path d="M530.1706,685.54706 L564.0489,667.5061 L629.85315,791.07715"/>
<path d="M626.5873,792.8163 L629.85315,791.07715"/>
<path d="M533.70465,683.9874 L560.805,669.52765 L626.7095,793.0452"/>
<path d="M623.4439,794.78766 L626.7095,793.0452"/>
<path d="M537.2033,682.3631 L557.5248,671.49786 L623.5354,794.95874"/>
<path d="M620.2712,796.70404 L623.5354,794.95874"/>
<path d="M540.6653,680.6735 L543.79236,678.99786"/>
<path d="M544.0561,678.85657 L554.209,673.41626 L620.3318,796.81714"/>
<path d="M617.0698,798.565 L620.3318,796.81714"/>
<path d="M547.4755,677.0992 L550.8584,675.28235 L617.0993,798.6199"/>
<path d="M610.3104,802.266 L617.0993,798.6199"/>
<path d="M544.0891,678.91785 L547.4737,677.0957 L613.8388,800.3664"/>
<path d="M551.83887,833.74524 L613.8388,800.3664"/>
<path d="M540.67035,680.6829 L544.05566,678.8558 L610.55115,802.0562"/>
<path d="M498.27637,862.6547 L610.55115,802.0562"/>
<path d="M484.08838,870.2802 L484.11038,870.3209 L607.23706,803.6889"/>
<path d="M537.2201,682.39404 L540.60504,680.56226 L607.23706,803.6889"/>
<path d="M480.79736,871.9451 L480.84808,872.03864 L603.8974,805.2639"/>
<path d="M533.73914,684.0508 L537.12274,682.2146 L603.8974,805.2639"/>
<path d="M477.485,873.55817 L477.56464,873.7045 L600.533,806.7809"/>
<path d="M530.2282,685.65265 L533.60944,683.8125 L600.533,806.7809"/>
<path d="M474.15213,875.11884 L474.2609,875.3181 L597.1448,808.2393"/>
<path d="M526.68823,687.1993 L530.066,685.35547 L597.1448,808.2393"/>
<path d="M470.79965,876.62683 L470.9377,876.87897 L593.73334,809.63885"/>
<path d="M523.12,688.69037 L526.4933,686.84326 L593.73334,809.63885"/>
<path d="M467.42844,878.0818 L467.596,878.3868 L590.29974,810.9791"/>
<path d="M519.5244,690.1254 L522.892,688.2754 L590.29974,810.9791"/>
<path d="M464.0393,879.4833 L464.23657,879.8411 L586.84467,812.2597"/>
<path d="M515.9023,691.50415 L519.26324,689.65155 L586.84467,812.2597"/>
<path d="M460.63315,880.831 L460.8603,881.24164 L583.369,813.4802"/>
<path d="M512.25446,692.8262 L515.60767,690.9715 L583.369,813.4802"/>
<path d="M457.21082,882.1246 L457.46802,882.58795 L579.87366,814.64044"/>
<path d="M508.58188,694.09125 L511.92618,692.2348 L579.87366,814.64044"/>
<path d="M453.77313,883.3637 L454.06064,883.8797 L576.3594,815.74005"/>
<path d="M504.88538,695.299 L508.21973,693.4413 L576.3594,815.74005"/>
<path d="M450.321,884.54803 L450.639,885.1166 L572.8271,816.7786"/>
<path d="M501.16592,696.4492 L504.48917,694.5906 L572.8271,816.7786"/>
<path d="M446.85532,885.6773 L447.20395,886.2982 L569.2776,817.75604"/>
<path d="M497.4244,697.5415 L500.7354,695.68243 L569.2776,817.75604"/>
<path d="M443.37686,886.7512 L443.75635,887.4243 L565.71173,818.672"/>
<path d="M493.66174,698.5757 L496.95938,696.7166 L565.71173,818.672"/>
<path d="M439.8865,887.7694 L440.29706,888.4946 L562.1304,819.52625"/>
<path d="M489.87885,699.5515 L493.16202,697.69293 L562.1304,819.52625"/>
<path d="M436.38513,888.73175 L436.8269,889.5088 L558.5344,820.3186"/>
<path d="M486.0767,700.4687 L489.34424,698.6111 L558.5344,820.3186"/>
<path d="M432.8736,889.6379 L433.34674,890.46655 L554.9247,821.0489"/>
<path d="M482.2562,701.32715 L485.50702,699.471 L554.9247,821.0489"/>
<path d="M429.3527,890.48755 L429.85745,891.3677 L551.302,821.7169"/>
<path d="M478.41837,702.1265 L481.6513,700.2724 L551.302,821.7169"/>
<path d="M425.82333,891.2806 L426.35986,892.2118 L547.6673,822.3226"/>
<path d="M474.56412,702.86676 L477.77805,701.01514 L547.6673,822.3226"/>
<path d="M422.28635,892.0167 L422.8548,892.9988 L544.02136,822.86566"/>
<path d="M470.69446,703.54767 L473.88824,701.6991 L544.02136,822.86566"/>
<path d="M418.74255,892.69574 L419.3431,893.7284 L540.3652,823.3461"/>
<path d="M466.8104,704.16907 L469.98288,702.3241 L540.3652,823.3461"/>
<path d="M415.1928,893.31757 L415.82562,894.4004 L536.69946,823.76385"/>
<path d="M462.91287,704.7309 L466.06293,702.89 L536.69946,823.76385"/>
<path d="M411.63797,893.88184 L412.30316,895.0145 L533.02515,824.11884"/>
<path d="M459.0029,705.2329 L462.12943,703.39685 L533.02515,824.11884"/>
<path d="M408.07886,894.38855 L408.77658,895.5707 L529.34314,824.41095"/>
<path d="M455.0815,705.6751 L458.18338,703.84436 L529.34314,824.41095"/>
<path d="M404.5163,894.8374 L405.2467,896.0686 L525.65424,824.6402"/>
<path d="M451.1497,706.05743 L454.22577,704.2326 L525.65424,824.6402"/>
<path d="M400.95114,895.2284 L401.71432,896.50824 L521.95935,824.8066"/>
<path d="M447.20847,706.37976 L450.2577,704.5615 L521.95935,824.8066"/>
<path d="M397.3842,895.5613 L398.18027,896.88934 L518.25934,824.9101"/>
<path d="M443.25888,706.642 L446.2801,704.831 L518.25934,824.9101"/>
<path d="M393.81628,895.83606 L394.64536,897.2118 L514.5551,824.9508"/>
<path d="M439.30194,706.8442 L442.2941,705.041 L514.5551,824.9508"/>
<path d="M390.24823,896.0525 L391.11038,897.47546 L510.84747,824.9287"/>
<path d="M435.3387,706.98627 L438.3007,705.19165 L510.84747,824.9287"/>
<path d="M386.68088,896.21063 L387.5762,897.6803 L507.13733,824.844"/>
<path d="M431.3702,707.06824 L434.30096,705.28284 L507.13733,824.844"/>
<path d="M383.115,896.31036 L384.04355,897.8262 L503.42554,824.6966"/>
<path d="M427.3975,707.09015 L430.296,705.3146 L503.42554,824.6966"/>
<path d="M379.5514,896.35156 L380.51324,897.913 L499.713,824.48676"/>
<path d="M423.4216,707.05194 L426.28677,705.287 L499.713,824.48676"/>
<path d="M375.9909,896.3343 L376.98605,897.94073 L496.00058,824.21454"/>
<path d="M419.4436,706.9537 L422.2744,705.2001 L496.00058,824.21454"/>
<path d="M372.43436,896.2584 L373.46283,897.9093 L492.28912,823.8802"/>
<path d="M415.46454,706.7955 L418.26,705.0539 L492.28912,823.8802"/>
<path d="M368.88248,896.124 L369.9443,897.81866 L488.57953,823.4837"/>
<path d="M411.48547,706.57733 L414.2446,704.8485 L488.57953,823.4837"/>
<path d="M365.3361,895.931 L366.43127,897.6688 L484.87268,823.02545"/>
<path d="M407.5075,706.2993 L410.22928,704.58405 L484.87268,823.02545"/>
<path d="M361.79602,895.6795 L362.9245,897.4597 L481.1694,822.5055"/>
<path d="M403.53165,705.9616 L406.21515,704.26056 L481.1694,822.5055"/>
<path d="M358.263,895.36945 L359.42474,897.19147 L477.4706,821.92413"/>
<path d="M399.559,705.5643 L402.20328,703.8783 L477.4706,821.92413"/>
<path d="M354.73785,895.001 L355.93277,896.864 L473.77716,821.2816"/>
<path d="M395.59064,705.1075 L398.19476,703.43726 L473.77716,821.2816"/>
<path d="M351.2213,894.57404 L352.44934,896.4774 L470.08994,820.5782"/>
<path d="M391.6276,704.59125 L394.1907,702.9376 L470.08994,820.5782"/>
<path d="M347.71417,894.08875 L348.97525,896.03174 L466.4098,819.81415"/>
<path d="M387.671,704.01587 L390.19217,702.3796 L466.4098,819.81415"/>
<path d="M344.21722,893.5452 L345.5112,895.5271 L462.7376,818.98975"/>
<path d="M383.72186,703.3815 L386.20026,701.7633 L462.7376,818.98975"/>
<path d="M340.7312,892.94354 L342.05792,894.9635 L459.07428,818.10535"/>
<path d="M379.78128,702.68823 L382.2161,701.089 L459.07428,818.10535"/>
<path d="M337.2569,892.2839 L338.6162,894.34106 L455.42062,817.1612"/>
<path d="M375.85034,701.93634 L378.24075,700.3568 L455.42062,817.1612"/>
<path d="M333.795,891.5663 L335.18677,893.66 L451.77753,816.1578"/>
<path d="M371.93008,701.126 L374.27536,699.567 L451.77753,816.1578"/>
<path d="M330.34634,890.79095 L331.7703,892.9203 L448.1459,815.09534"/>
<path d="M368.02158,700.25745 L370.32095,698.7197 L448.1459,815.09534"/>
<path d="M326.91162,889.95807 L328.36758,892.1222 L444.52655,813.9743"/>
<path d="M364.12592,699.3309 L366.37863,697.81537 L444.52655,813.9743"/>
<path d="M323.4916,889.0678 L324.9793,891.2659 L440.92038,812.79504"/>
<path d="M360.24417,698.3466 L362.44952,696.854 L440.92038,812.79504"/>
<path d="M320.087,888.1203 L321.60623,890.35156 L437.32822,811.55804"/>
<path d="M356.37735,697.30493 L358.53473,695.836 L437.32822,811.55804"/>
<path d="M316.6986,887.11584 L318.249,889.37933 L433.75098,810.2636"/>
<path d="M352.52655,696.20605 L354.63528,694.76166 L433.75098,810.2636"/>
<path d="M313.32706,886.0546 L314.90836,888.3495 L430.18948,808.9123"/>
<path d="M348.69284,695.0503 L350.7523,693.63116 L430.18948,808.9123"/>
<path d="M309.97318,884.93695 L311.58502,887.2622 L426.64456,807.50446"/>
<path d="M344.87723,693.83795 L346.8868,692.4449 L426.64456,807.50446"/>
<path d="M306.6376,883.76294 L308.2797,886.1178 L423.11716,806.04065"/>
<path d="M341.08075,692.56934 L343.03995,691.2032 L423.11716,806.04065"/>
<path d="M303.3211,882.53296 L304.993,884.9165 L419.60803,804.52124"/>
<path d="M337.3045,691.24475 L339.21277,689.90625 L419.60803,804.52124"/>
<path d="M300.0244,881.2473 L301.72574,883.6586 L416.1181,802.94684"/>
<path d="M333.54947,689.8646 L335.40634,688.5545 L416.1181,802.94684"/>
<path d="M296.74817,879.90625 L298.47855,882.3444 L412.64816,801.31793"/>
<path d="M329.8167,688.42926 L331.62167,687.1483 L412.64816,801.31793"/>
<path d="M293.49313,878.51013 L295.25208,880.97424 L409.19913,799.635"/>
<path d="M326.10724,686.939 L327.85986,685.6879 L409.19913,799.635"/>
<path d="M290.25998,877.05927 L292.04706,879.54834 L405.77176,797.89856"/>
<path d="M322.4221,685.3943 L324.12198,684.1738 L405.77176,797.89856"/>
<path d="M287.0494,875.554 L288.86414,878.0672 L402.36694,796.1092"/>
<path d="M318.7622,683.7955 L320.409,682.6064 L402.36694,796.1092"/>
<path d="M283.86215,873.9947 L285.70398,876.53107 L398.9855,794.26746"/>
<path d="M315.12866,682.143 L316.72195,680.98596 L398.9855,794.26746"/>
<path d="M280.69882,872.3818 L282.5673,874.9403 L395.6283,792.3739"/>
<path d="M311.5224,680.4372 L313.06192,679.3129 L395.6283,792.3739"/>
<path d="M277.56018,870.7156 L279.4547,873.2954 L392.2961,790.42914"/>
<path d="M307.9444,678.6786 L309.42984,677.5877 L392.2961,790.42914"/>
<path d="M274.44687,868.9965 L276.3669,871.5967 L388.98978,788.4337"/>
<path d="M304.3957,676.86755 L305.82678,675.8108 L388.98978,788.4337"/>
<path d="M271.35956,867.225 L273.30453,869.8446 L385.71014,786.3882"/>
<path d="M300.87717,675.0046 L302.2537,673.98254 L385.71014,786.3882"/>
<path d="M268.29895,865.4015 L270.26825,868.0396 L382.458,784.2932"/>
<path d="M297.38983,673.09015 L298.71158,672.1035 L382.458,784.2932"/>
<path d="M265.26572,863.5265 L267.2587,866.1822 L379.23416,782.1494"/>
<path d="M293.93463,671.12463 L295.20142,670.174 L379.23416,782.1494"/>
<path d="M262.2605,861.60034 L264.27655,864.2727 L376.0394,779.95746"/>
<path d="M290.51248,669.1087 L291.72412,668.1946 L376.0394,779.95746"/>
<path d="M259.28394,859.6236 L261.32242,862.3117 L372.87457,777.71783"/>
<path d="M287.12427,667.04266 L288.2807,666.1657 L372.87457,777.71783"/>
<path d="M256.33676,857.59674 L258.39697,860.2997 L369.74042,775.43134"/>
<path d="M283.77097,664.9271 L284.87207,664.0879 L369.74042,775.43134"/>
<path d="M253.41956,855.52026 L255.50084,858.2371 L366.63776,773.0985"/>
<path d="M280.55267,662.68665 L281.49915,661.96155 L366.63776,773.0985"/>
<path d="M250.533,853.3947 L252.63466,856.1246 L363.56735,770.72003"/>
<path d="M281.68546,664.36285 L363.56735,770.72003"/>
<path d="M247.67775,851.2206 L249.79904,853.9625 L360.53,768.2966"/>
<path d="M282.9907,668.07007 L360.53,768.2966"/>
<path d="M244.85443,848.9984 L246.99464,851.7516 L357.52643,765.8288"/>
<path d="M284.3791,671.73145 L357.52643,765.8288"/>
<path d="M242.06369,846.7288 L244.22208,849.4923 L354.55743,763.31744"/>
<path d="M285.84985,675.3466 L286.0386,675.5883"/>
<path d="M288.14203,678.28143 L354.55743,763.31744"/>
<path d="M239.30617,844.4123 L241.48196,847.18524 L351.62372,760.7631"/>
<path d="M289.71167,681.8585 L351.62372,760.7631"/>
<path d="M236.58247,842.0495 L238.77493,844.83105 L348.7261,758.1665"/>
<path d="M291.36145,685.38806 L348.7261,758.1665"/>
<path d="M233.89325,839.6409 L236.10158,842.43024 L345.86523,755.5283"/>
<path d="M293.09036,688.8696 L294.30072,690.3984"/>
<path d="M295.44232,691.84033 L345.86523,755.5283"/>
<path d="M231.23912,837.18726 L233.46254,839.9834 L343.04193,752.84924"/>
<path d="M297.26422,695.27954 L343.04193,752.84924"/>
<path d="M228.6207,834.6891 L230.85841,837.4913 L340.25684,750.13007"/>
<path d="M299.16266,698.66974 L340.25684,750.13007"/>
<path d="M226.03859,832.1471 L228.2898,834.95447 L337.51068,747.3714"/>
<path d="M301.1365,702.0108 L337.51068,747.3714"/>
<path d="M223.49342,829.5618 L225.7573,832.3736 L334.8042,744.5739"/>
<path d="M305.59808,708.30005 L334.8042,744.5739"/>
<path d="M220.98578,826.934 L223.26152,829.74927 L332.13803,741.73846"/>
<path d="M307.73068,711.5446 L332.13803,741.73846"/>
<path d="M218.51627,824.2643 L220.80305,827.0823 L329.5129,738.8657"/>
<path d="M309.93448,714.7391 L329.5129,738.8657"/>
<path d="M216.08548,821.5533 L218.38248,824.3732 L326.92947,735.95636"/>
<path d="M312.2082,717.8834 L314.29745,720.44836"/>
<path d="M314.65686,720.8896 L326.92947,735.95636"/>
<path d="M213.69402,818.80176 L216.00038,821.62286 L324.3884,733.01117"/>
<path d="M317.00745,723.9829 L324.3884,733.01117"/>
<path d="M205.77063,809.2193 L213.65736,818.83185 L321.89035,730.0308 L319.42456,727.02545"/>
<path d="M179.33302,777.10785 L211.35399,816.0009 L319.43594,727.0161 L316.96652,724.0167"/>
<path d="M151.42342,743.32227 L209.0908,813.13074 L317.02582,723.9678 L314.55365,720.97516"/>
<path d="M121.89814,707.69714 L206.86842,810.2221 L314.66058,720.88654 L312.18658,717.90137"/>
<path d="M309.8659,714.79626 L312.34088,717.77313 L204.68738,807.27576 L115.18472,699.62225 L115.22911,699.5854"/>
<path d="M307.59222,711.6604 L310.06726,714.6283 L202.54822,804.2924 L112.8841,696.7734 L112.980736,696.6928"/>
<path d="M305.3661,708.4946 L307.84036,711.4529 L200.4515,801.2729 L110.63149,693.88403 L110.78005,693.75977"/>
<path d="M303.1881,705.2997 L305.6607,708.24756 L198.39778,798.2179 L108.42743,690.95496 L108.627594,690.7871"/>
<path d="M301.0588,702.0763 L303.5289,705.01306 L196.38759,795.12823 L106.27243,687.98694 L106.523865,687.77545"/>
<path d="M298.97873,698.8252 L301.44547,701.75024 L194.42146,792.0047 L104.167015,684.9807 L104.46937,684.7257"/>
<path d="M296.94843,695.5472 L299.41092,698.45984 L192.49991,788.8481 L102.11167,681.9371 L102.46459,681.6387"/>
<path d="M294.96838,692.2429 L297.42584,695.1426 L190.62346,785.6591 L100.10688,678.85675 L100.51001,678.5151"/>
<path d="M293.03912,688.91327 L295.4907,691.79926 L188.79262,782.4387 L98.15312,675.74066 L98.60609,675.35583"/>
<path d="M291.1611,685.55896 L293.60602,688.4306 L187.00789,779.1877 L96.250854,672.58954 L96.75328,672.16174"/>
<path d="M289.33484,682.1807 L291.77228,685.03754 L185.26976,775.90674 L94.40053,669.40424 L94.952034,668.9337"/>
<path d="M287.56076,678.77936 L289.98993,681.62067 L183.57872,772.5968 L92.602585,666.1856 L93.20278,665.6725"/>
<path d="M285.83932,675.35565 L288.25943,678.1809 L181.93526,769.2587 L90.85744,662.9346 L91.50593,662.379"/>
<path d="M284.171,671.9104 L286.58127,674.71893 L180.33983,765.8933 L89.165504,659.65186 L89.8619,659.0542"/>
<path d="M282.55615,668.4443 L284.95584,671.23566 L178.79288,762.50134 L87.52718,656.3384 L88.27107,655.6989"/>
<path d="M280.9952,664.9581 L283.38358,667.7318 L177.29488,759.0838 L85.94286,652.9951 L86.73384,652.314"/>
<path d="M279.4886,661.4528 L281.86487,664.2081 L175.84624,755.6415 L84.41292,649.62286 L85.25057,648.90045"/>
<path d="M278.03662,657.929 L280.40012,660.6655 L174.44742,752.17523 L82.93771,646.22253 L83.821625,645.4591"/>
<path d="M276.6397,654.3876 L278.9897,657.10474 L173.0988,748.686 L81.51759,642.79504 L82.44735,641.99097"/>
<path d="M275.29822,650.8293 L277.63397,653.52655 L171.80081,745.1745 L80.15289,639.3414 L81.12807,638.4969"/>
<path d="M274.01242,647.25494 L276.33328,649.9319 L170.55385,741.6418 L78.84393,635.8623 L79.864105,634.97784"/>
<path d="M272.7827,643.6654 L275.08798,646.3214 L169.35826,738.0887 L77.591034,632.35895 L78.65577,631.4348"/>
<path d="M271.60934,640.0614 L273.89838,642.69604 L168.21445,734.51605 L76.394485,628.8321 L77.50335,627.8687"/>
<path d="M270.4926,636.4438 L272.76477,639.0566 L167.12276,730.9248 L75.25458,625.2828 L76.407135,624.28046"/>
<path d="M269.43286,632.8134 L271.68747,635.4039 L166.08351,727.3158 L74.17157,621.71185 L75.36739,620.6711"/>
<path d="M268.43027,629.171 L270.66672,631.7387 L165.09706,723.69 L73.14572,618.12036 L74.38438,617.0415"/>
<path d="M267.48514,625.5175 L269.7028,628.0619 L164.16371,720.04834 L72.17729,614.5092 L73.45832,613.3927"/>
<path d="M266.5977,621.8537 L268.79596,624.3743 L163.28375,716.3916 L71.26649,610.87946 L72.58947,609.72565"/>
<path d="M265.76813,618.1804 L267.9464,620.6769 L162.45749,712.7208 L70.41354,607.2319 L71.77802,606.0413"/>
<path d="M264.99667,614.4985 L267.1544,616.9703 L161.68518,709.0368 L69.61865,603.5676 L71.024185,602.3407"/>
<path d="M264.28354,610.8088 L266.4201,613.2555 L160.96709,705.3406 L68.88201,599.8875 L70.32815,598.62476"/>
<path d="M263.62888,607.1121 L265.74374,609.5333 L160.30344,701.63293 L68.2038,596.1927 L69.69009,594.8944"/>
<path d="M263.03284,603.40936 L265.12543,605.8046 L159.69446,697.9149 L67.58415,592.48395 L69.11015,591.15076"/>
<path d="M262.49557,599.7014 L264.5654,602.07025 L159.14037,694.1874 L67.02325,588.7623 L68.58851,587.39465"/>
<path d="M262.0172,595.9891 L264.06372,598.3311 L158.64134,690.45123 L66.52121,585.0289 L68.12527,583.6272"/>
<path d="M261.5979,592.27325 L263.62057,594.588 L158.19757,686.70746 L66.078156,581.2844 L67.720566,579.8493"/>
<path d="M261.23773,588.5548 L263.23605,590.8419 L157.8092,682.9569 L65.69419,577.5301 L67.3745,576.06195"/>
<path d="M260.93677,584.8346 L262.91028,587.0936 L157.47638,679.2006 L65.36941,573.7667 L67.08716,572.2661"/>
<path d="M260.69507,581.1135 L262.64328,583.3441 L157.19922,675.4394 L65.10389,569.99536 L66.85863,568.46277"/>
<path d="M260.51273,577.39246 L262.43515,579.5942 L156.97783,671.67426 L64.8977,566.2169 L66.688965,564.6529"/>
<path d="M260.3898,573.67224 L262.28598,575.8447 L156.81232,667.9061 L64.75088,562.4325 L66.57822,560.8375"/>
<path d="M260.32626,569.95386 L262.19574,572.0966 L156.70273,664.13586 L64.663475,558.6429 L66.52642,557.0175"/>
<path d="M260.32214,566.23816 L262.1645,568.3509 L156.64912,660.3645 L64.635506,554.8491 L66.5336,553.1939"/>
<path d="M260.37747,562.52606 L262.19223,564.6083 L156.65155,656.5929 L64.66698,551.0522 L66.59976,549.3677"/>
<path d="M260.4922,558.8184 L262.27896,560.8698 L156.71002,652.82196 L64.75788,547.253 L66.7249,545.53973"/>
<path d="M260.66626,555.11615 L262.42465,557.13635 L156.82452,649.0527 L64.908195,543.4526 L66.90899,541.711"/>
<path d="M260.89966,551.4202 L262.62927,553.4088 L156.99506,645.28595 L65.1179,539.65173 L67.152,537.88257"/>
<path d="M261.19232,547.73145 L262.89276,549.6881 L157.22157,641.5227 L65.38693,535.85156 L67.45387,534.05524"/>
<path d="M261.54413,544.0508 L263.21503,545.9751 L157.50401,637.7639 L65.715225,532.0529 L67.81455,530.23004"/>
<path d="M261.95505,540.37915 L263.596,542.2708 L157.84232,634.01044 L66.10272,528.2567 L68.23396,526.4079"/>
<path d="M262.42493,536.71747 L264.03564,538.5761 L158.23639,630.2632 L66.54931,524.4639 L68.71201,522.5897"/>
<path d="M262.95364,533.06665 L264.53375,534.8919 L158.68613,626.52313 L67.0549,520.6755 L69.24859,518.7764"/>
<path d="M263.54108,529.4276 L265.09024,531.2191 L159.19139,622.79114 L67.61937,516.89233 L69.84358,514.969"/>
<path d="M264.18707,525.8013 L265.70496,527.5587 L159.75206,619.0682 L68.24258,513.1153 L70.49686,511.16833"/>
<path d="M264.89142,522.18854 L266.37775,523.9116 L160.36795,615.35516 L68.924385,509.34537 L71.20827,507.3753"/>
<path d="M265.654,518.59033 L267.10843,520.2787 L161.0389,611.65295 L69.664635,505.5834 L71.977646,503.59085"/>
<path d="M266.47452,515.00757 L267.89682,516.6609 L161.76471,607.96246 L70.46314,501.83035 L72.804825,499.8159"/>
<path d="M267.35284,511.44122 L268.7427,513.0592 L162.54515,604.2846 L71.319725,498.08707 L73.68961,496.05127"/>
<path d="M268.28873,507.89215 L269.6459,509.47443 L163.38004,600.6203 L72.234184,494.35443 L74.631805,492.29794"/>
<path d="M269.28192,504.36127 L270.60614,505.90762 L164.26907,596.9704 L73.2063,490.63333 L75.631195,488.55673"/>
<path d="M270.33215,500.84955 L271.6232,502.35962 L165.21204,593.3358 L74.23585,486.92465 L76.687546,484.82858"/>
<path d="M271.43915,497.35785 L272.69678,498.83136 L166.20863,589.7174 L75.32258,483.22928 L77.80062,481.11432"/>
<path d="M272.60263,493.8871 L273.82663,495.3238 L167.25858,586.11615 L76.46624,479.54807 L78.97016,477.4148"/>
<path d="M273.82227,490.4382 L275.01248,491.8378 L168.36154,582.5328 L77.66656,475.88187 L80.1959,473.73093"/>
<path d="M275.09778,487.0121 L276.25397,488.3743 L169.51723,578.96826 L78.923256,472.2315 L81.47755,470.06354"/>
<path d="M276.42883,483.60962 L277.5508,484.93417 L170.72528,575.42346 L80.23604,468.5979 L82.81481,466.41348"/>
<path d="M277.81503,480.23172 L278.9027,481.51837 L171.98537,571.8992 L81.60459,464.98184 L84.20738,462.78162"/>
<path d="M279.25607,476.87927 L280.30923,478.1278 L173.29709,568.3963 L83.028595,461.38416 L85.65494,459.16873"/>
<path d="M280.75153,473.5532 L281.77008,474.7633 L174.6601,564.9157 L84.507706,457.80573 L87.15715,455.57574"/>
<path d="M282.30106,470.2543 L283.28485,471.42578 L176.07397,561.4582 L86.04159,454.2473 L88.71365,452.0034"/>
<path d="M283.9042,466.9835 L284.85315,468.11615 L177.53833,558.0246 L87.629875,450.70978 L90.324104,448.45258"/>
<path d="M285.5606,463.74167 L286.47458,464.83524 L179.05273,554.6158 L89.27219,447.19394 L91.98811,444.92404"/>
<path d="M287.26978,460.52966 L288.14874,461.58395 L180.61674,551.2326 L90.96814,443.7006 L93.70531,441.41864"/>
<path d="M289.03128,457.34833 L289.87515,458.36316 L182.22995,547.87573 L92.71734,440.23053 L95.47527,437.93716"/>
<path d="M290.8447,454.19855 L291.65344,455.17365 L183.89186,544.54614 L94.51936,436.78458 L97.29761,434.48044"/>
<path d="M292.70953,451.0811 L293.4831,452.01633 L185.60202,541.24457 L96.373795,433.3635 L99.171875,431.04922"/>
<path d="M294.6253,447.99683 L295.36365,448.89203 L187.35995,537.9718 L98.28019,429.9681 L101.09765,427.6443"/>
<path d="M296.5915,444.94656 L297.29462,445.80154 L189.16516,534.7286 L100.238106,426.59915 L103.07448,424.26648"/>
<path d="M298.60757,441.93115 L299.2755,442.7457 L191.01715,531.5158 L102.24708,423.25742 L105.1019,420.91653"/>
<path d="M300.6731,438.95132 L301.30585,439.72534 L192.91542,528.3341 L104.30663,419.94373 L107.17943,417.5952"/>
<path d="M302.78745,436.0079 L303.38504,436.7412 L194.85944,525.1844 L106.416275,416.65878 L109.306595,414.3033"/>
<path d="M304.9501,433.10168 L305.5126,433.79413 L196.8487,522.06726 L108.57552,413.40335 L111.48288,411.04156"/>
<path d="M307.09015,431.3689 L198.88263,518.9836 L110.78386,410.17825 L113.707794,407.81076"/>
<path d="M305.94177,431.2169 L200.9607,515.9341 L113.04076,406.98416 L115.9808,404.61163"/>
<path d="M303.0261,432.54428 L203.08237,512.91943 L115.34568,403.82187 L118.30136,401.44492"/>
<path d="M299.88596,434.099 L205.24706,509.94037 L117.6981,400.6921 L120.668945,398.31134"/>
<path d="M296.75577,435.69092 L207.45421,506.99762 L120.09744,397.59564 L123.08298,395.2117"/>
<path d="M295.059,436.1866 L209.70325,504.0919 L122.54315,394.53314 L125.5429,392.14667"/>
<path d="M293.2786,436.80026 L211.99358,501.22385 L125.03464,391.50537 L128.04813,389.117"/>
<path d="M290.1897,438.49725 L214.32462,498.39423 L127.57132,388.5131 L130.59807,386.1234"/>
<path d="M287.1107,440.22778 L216.69577,495.60364 L130.15259,385.55695 L133.19211,383.1666"/>
<path d="M285.16095,441.114 L219.10643,492.85278 L132.77783,382.63766 L135.82965,380.24725"/>
<path d="M283.77362,441.6079 L221.556,490.14233 L135.44643,379.756 L138.51004,377.36615"/>
<path d="M280.735,443.43372 L224.04385,487.4729 L138.15773,376.91263 L141.23267,374.52393"/>
<path d="M277.70612,445.28934 L226.56938,484.84512 L140.91112,374.10822 L143.99687,371.72128"/>
<path d="M276.20822,446.00214 L229.13196,482.25964 L143.7059,371.3435 L146.802,368.95892"/>
<path d="M274.50504,446.91803 L231.73094,479.71704 L146.54144,368.61914 L149.64735,366.23752"/>
<path d="M271.51544,448.85925 L234.3657,477.218 L149.41704,365.9358 L152.53229,363.55774"/>
<path d="M268.53546,450.82675 L237.03561,474.76303 L152.33203,363.2942 L155.4561,360.92026"/>
<path d="M256.1252,284.42325 L263.80087,278.5906 L263.8139,278.60776"/>
<path d="M268.15063,450.86392 L239.74004,472.35278 L155.28569,360.69498 L158.41808,358.32574"/>
<path d="M240.73811,296.06152 L266.94348,276.24063 L266.98843,276.30005"/>
<path d="M265.466,452.6824 L242.4783,469.98776 L158.27733,358.1388 L161.4175,355.77484"/>
<path d="M225.90126,307.23087 L270.1263,273.9378 L270.20288,274.03952"/>
<path d="M262.52432,454.72632 L245.24977,467.6686 L161.30621,355.6263 L164.45366,353.2682"/>
<path d="M211.57599,317.96353 L273.3485,271.68274 L273.4564,271.82672"/>
<path d="M261.00845,455.7371 L248.05379,465.39584 L164.37161,353.15817 L167.52582,350.80646"/>
<path d="M197.72514,328.29047 L276.60928,269.476 L276.74817,269.6623"/>
<path d="M259.55447,456.7415 L250.8897,463.16998 L167.47281,350.73502 L170.63322,348.3903"/>
<path d="M184.31287,338.24118 L279.90778,267.31815 L280.07736,267.54672"/>
<path d="M283.44308,265.48056 L283.24313,265.20972 L170.60904,348.3575 L253.75684,460.9916 L256.6504,458.85556"/>
<path d="M286.8445,263.4644 L286.6145,263.15125 L173.77953,346.02625 L256.65454,458.86124 L259.54962,456.73483"/>
<path d="M290.2807,261.49866 L290.021,261.14325 L176.98354,343.74185 L259.58212,456.77933 L262.47833,454.66306"/>
<path d="M293.7508,259.58392 L293.46173,259.18628 L180.22026,341.50497 L262.53894,454.74646 L265.4358,452.64066"/>
<path d="M297.25388,257.7206 L296.9358,257.2808 L183.48892,339.31616 L265.52432,452.76306 L268.4214,450.66812"/>
<path d="M300.789,255.90927 L300.4423,255.42725 L186.78873,337.17606 L268.53754,450.82962 L271.4344,448.74597"/>
<path d="M304.35526,254.15031 L303.9803,253.62616 L190.11888,335.08524 L271.57797,448.94662 L274.47415,446.87463"/>
<path d="M307.95172,252.44418 L307.54883,251.87794 L193.47855,333.04428 L274.64487,447.11456 L277.53998,445.05453"/>
<path d="M311.57742,250.79134 L311.14697,250.18306 L196.86691,331.05374 L277.73758,445.3338 L280.63116,443.28616"/>
<path d="M315.23138,249.19217 L314.77377,248.54192 L200.28313,329.11423 L280.85544,443.60486 L283.74704,441.5699"/>
<path d="M318.91263,247.6471 L318.42825,246.95493 L203.72638,327.22623 L283.9977,441.9281 L286.88687,439.90616"/>
<path d="M322.6202,246.15648 L322.1094,245.42247 L207.1958,325.39035 L287.1637,440.30396 L290.05002,438.29538"/>
<path d="M326.35312,244.72072 L325.81628,243.94493 L210.69055,323.60712 L290.35272,438.73285 L293.23572,436.73795"/>
<path d="M330.11032,243.34016 L329.54788,242.52267 L214.20973,321.877 L293.56406,437.21515 L296.44333,435.2342"/>
<path d="M333.89087,242.01514 L333.3032,241.15604 L217.7525,320.20056 L296.79703,435.75125 L299.6721,433.78452"/>
<path d="M337.69373,240.74599 L337.08118,239.84535 L221.31795,318.5783 L300.0509,434.34152 L302.9213,432.3893"/>
<path d="M341.51782,239.53299 L340.88083,238.59093 L224.90521,317.01068 L303.32498,432.9863 L306.19025,431.04886"/>
<path d="M345.36218,238.37648 L344.7011,237.39308 L228.51338,315.49823 L306.61853,431.68594 L309.47824,429.76355"/>
<path d="M349.22577,237.2767 L348.54102,236.25208 L232.14157,314.04135 L309.93085,430.4408 L312.78452,428.5337"/>
<path d="M353.10748,236.23393 L352.39944,235.1682 L235.78885,312.64053 L313.2612,429.25116 L316.10837,427.3596"/>
<path d="M357.00635,235.24841 L356.27542,234.14168 L239.4543,311.29623 L316.60886,428.11734 L319.4491,426.24152"/>
<path d="M360.92126,234.32036 L360.16782,233.17276 L243.13701,310.00888 L319.9731,427.03967 L322.8059,425.1798"/>
<path d="M364.8512,233.45001 L364.07562,232.26166 L246.83604,308.77884 L323.35324,426.01843 L326.1781,424.17474"/>
<path d="M368.7951,232.63754 L367.99774,231.40857 L250.55048,307.60657 L326.74847,425.05386 L329.56497,423.22656"/>
<path d="M372.75186,231.88315 L371.93314,230.61371 L254.27936,306.49246 L330.15808,424.14624 L332.9657,422.33554"/>
<path d="M376.72043,231.18698 L375.88074,229.87721 L258.02173,305.43683 L333.58136,423.29584 L336.3796,421.50186"/>
<path d="M380.69974,230.5492 L379.83942,229.19925 L261.77667,304.44012 L337.01755,422.50287 L339.80594,420.72583"/>
<path d="M384.68872,229.96992 L383.80817,228.57997 L265.5432,303.50262 L340.46588,421.76755 L343.2439,420.00763"/>
<path d="M388.6863,229.44928 L387.78586,228.01947 L269.3204,302.62466 L343.9256,421.09012 L346.69275,419.34747"/>
<path d="M392.69138,228.98737 L391.77142,227.51787 L273.10724,301.8066 L347.396,420.47076 L350.15176,418.74554"/>
<path d="M396.7029,228.58427 L395.76376,227.07526 L276.9028,301.04874 L350.87628,419.90967 L353.62015,418.20203"/>
<path d="M400.7198,228.24005 L399.76184,226.69171 L280.70612,300.3513 L354.3657,419.407 L357.09717,417.71707"/>
<path d="M404.74094,227.95476 L403.76453,226.3673 L284.51617,299.7146 L357.8635,418.96295 L360.582,417.29086"/>
<path d="M408.76532,227.72844 L407.77075,226.10204 L288.332,299.1389 L361.36887,418.57764 L364.0739,416.92352"/>
<path d="M412.79178,227.5611 L411.77945,225.89595 L292.15265,298.62442 L364.8811,418.25122 L367.5721,416.61517"/>
<path d="M416.81934,227.45276 L415.78952,225.74908 L295.9771,298.17136 L368.39938,417.98376 L371.07584,416.36597"/>
<path d="M420.84683,227.40338 L419.79987,225.6614 L299.8044,297.77997 L371.92297,417.77545 L374.5843,416.17593"/>
<path d="M424.87323,227.41296 L423.80945,225.6329 L303.63354,297.4504 L375.45105,417.6263 L378.0967,416.04526"/>
<path d="M428.89746,227.48146 L427.81717,225.66356 L307.46356,297.18283 L378.98285,417.53644 L381.61224,415.97394"/>
<path d="M432.91843,227.60881 L431.82196,225.75328 L311.29343,296.97742 L382.51758,417.50592 L385.1302,415.96207"/>
<path d="M436.93512,227.79494 L435.82272,225.90204 L315.1222,296.8343 L386.05444,417.53482 L388.64966,416.00967"/>
<path d="M440.94644,228.03975 L439.81842,226.10974 L318.94885,296.75354 L389.59265,417.6231 L392.16992,416.11682"/>
<path d="M444.95135,228.34314 L443.808,226.3763 L322.77243,296.73532 L393.13144,417.77087 L395.69016,416.28348"/>
<path d="M448.9488,228.705 L447.79037,226.70158 L326.59192,296.77963 L396.66998,417.9781 L399.20953,416.5097"/>
<path d="M452.93768,229.1252 L451.76453,227.08548 L330.40634,296.8866 L400.2075,418.24478 L402.72726,416.79547"/>
<path d="M456.91705,229.60359 L455.72934,227.52786 L334.21472,297.05624 L403.7431,418.57086 L406.24255,417.14075"/>
<path d="M460.8858,230.14 L459.68387,228.02856 L338.01608,297.2886 L407.2761,418.95636 L409.75455,417.5455"/>
<path d="M464.84293,230.73427 L463.62698,228.58743 L341.8094,297.58362 L410.8056,419.4012 L413.26248,418.00967"/>
<path d="M468.7874,231.3862 L467.5577,229.20425 L345.59375,297.94135 L414.33084,419.90533 L416.76547,418.5332"/>
<path d="M472.71823,232.09558 L471.475,229.87888 L349.3681,298.36172 L417.85095,420.46866 L420.26276,419.116"/>
<path d="M476.63437,232.8622 L475.37787,230.61107 L353.13153,298.8447 L421.36517,421.09106 L423.75348,419.75797"/>
<path d="M480.53482,233.68582 L479.26526,231.4006 L356.88303,299.3902 L424.87262,421.77246 L427.23685,420.459"/>
<path d="M484.4186,234.56622 L483.13623,232.24725 L360.62164,299.99814 L428.37253,422.5127 L430.712,421.21896"/>
<path d="M488.28473,235.50313 L486.98972,233.15077 L364.34644,300.6684 L431.86404,423.31165 L434.1781,422.03772"/>
<path d="M492.1322,236.49626 L490.8248,234.11092 L368.05643,301.40082 L435.34634,424.16916 L437.63434,422.9151"/>
<path d="M495.96008,237.54536 L494.64044,235.12738 L371.7507,302.1953 L438.8186,425.08505 L441.0799,423.85095"/>
<path d="M499.76736,238.65012 L498.43573,236.19989 L375.42825,303.05164 L442.28,426.05914 L444.51392,424.84506"/>
<path d="M503.55313,239.81021 L502.2097,237.32817 L379.08817,303.96967 L445.72964,427.0912 L447.93555,425.89722"/>
<path d="M507.31644,241.02534 L505.96136,238.51187 L382.72952,304.94913 L449.16678,428.181 L451.34396,427.00723"/>
<path d="M511.05634,242.29517 L509.68982,239.75072 L386.35138,305.98987 L452.5905,429.3283 L454.73837,428.1748"/>
<path d="M514.7719,243.61935 L513.39417,241.04433 L389.95282,307.09158 L456.00006,430.5329 L458.11786,429.39978"/>
<path d="M518.4622,244.99753 L517.0734,242.3924 L393.53293,308.254 L459.39453,431.79446 L461.48166,430.6818"/>
<path d="M522.12646,246.42934 L520.7267,243.79454 L397.0908,309.47687 L462.7731,433.11273 L464.82886,432.0206"/>
<path d="M525.7636,247.9144 L524.3531,245.25041 L400.62552,310.75983 L466.13495,434.48743 L468.1587,433.41592"/>
<path d="M529.3728,249.45233 L527.9518,246.75961 L404.1362,312.10263 L469.47922,435.91818 L471.47025,434.86743"/>
<path d="M532.9533,251.04271 L531.5218,248.32176 L407.62198,313.50485 L472.80508,437.40466 L474.76273,436.37476"/>
<path d="M536.5041,252.68513 L535.0624,249.93646 L411.08197,314.96616 L476.1117,438.94656 L478.0353,437.9376"/>
<path d="M540.0244,254.3792 L538.5726,251.60329 L414.51532,316.48618 L479.3982,440.54346 L481.2871,439.55554"/>
<path d="M543.5134,256.12445 L542.05164,253.32184 L417.92114,318.06448 L482.6638,442.19504 L484.51733,441.22827"/>
<path d="M546.9703,257.92044 L545.4987,255.09167 L421.29858,319.70068 L485.9076,443.90082 L487.7251,442.95535"/>
<path d="M550.3941,259.76672 L548.91296,256.91235 L424.64682,321.3943 L489.12878,445.66046 L490.9096,444.7364"/>
<path d="M553.78424,261.66284 L552.29364,258.7834 L427.96503,323.14487 L492.32654,447.47348 L494.07,446.57092"/>
<path d="M557.13983,263.6083 L555.6399,260.70438 L431.2524,324.95197 L495.5,449.33945 L497.20547,448.45856"/>
<path d="M560.4601,265.60266 L558.951,262.6748 L434.5081,326.81503 L498.64832,451.2579 L500.3152,450.39877"/>
<path d="M563.7442,267.6454 L562.22614,264.6942 L437.73132,328.73358 L501.77072,453.2284 L503.3983,452.39117"/>
<path d="M566.9916,269.736 L565.46466,266.7621 L440.92133,330.7071 L504.86633,455.2504 L506.454,454.4352"/>
<path d="M570.2013,271.87396 L568.6657,268.87793 L444.07727,332.73495 L507.93433,457.3234 L509.48145,456.53043"/>
<path d="M573.3728,274.05878 L571.8287,271.04123 L447.19843,334.81668 L510.97388,459.4469 L512.47986,458.67627"/>
<path d="M576.50525,276.28992 L574.95276,273.2515 L450.28403,336.95163 L513.98413,461.62036 L515.44836,460.8722"/>
<path d="M579.598,278.5668 L578.03735,275.50815 L453.33334,339.1392 L516.96436,463.8432 L518.3862,463.11768"/>
<path d="M582.65045,280.88892 L581.0817,277.8107 L456.34558,341.37878 L519.9137,466.1149 L521.2926,465.41217"/>
<path d="M585.6618,283.2557 L584.0852,280.15857 L459.3201,343.66974 L522.83124,468.43484 L524.1666,467.75507"/>
<path d="M588.6315,285.6666 L587.0472,282.5512 L462.25613,346.01138 L525.7163,470.80243 L527.0076,470.14578"/>
<path d="M591.5588,288.121 L589.967,284.98804 L465.153,348.4031 L528.56805,473.2171 L529.8147,472.5837"/>
<path d="M594.4431,290.61835 L592.844,287.4685 L468.01,350.84418 L531.3857,475.67816 L532.5871,475.06824"/>
<path d="M597.2839,293.15805 L595.6777,289.99203 L470.8265,353.3339 L534.16833,478.18503 L535.32404,477.59872"/>
<path d="M600.0805,295.7395 L598.4673,292.558 L473.60178,355.87155 L536.91534,480.73706 L538.0247,480.17453"/>
<path d="M602.8323,298.36206 L601.21234,295.16583 L476.3352,358.4564 L539.6258,483.33356 L540.6884,482.79498"/>
<path d="M605.53876,301.02518 L603.9123,297.81488 L479.02615,361.08768 L542.29895,485.97385 L543.3143,485.45944"/>
<path d="M608.19934,303.72818 L606.5666,300.50458 L481.67398,363.76468 L544.9341,488.65726 L545.4839,488.37875"/>
<path d="M610.81354,306.47043 L609.1746,303.23428 L484.27805,366.48657 L545.1519,486.68668"/>
<path d="M613.3807,309.2513 L611.7359,306.00333 L486.8378,369.25256 L544.4189,482.95776"/>
<path d="M615.9004,312.07016 L614.24994,308.8111 L489.3526,372.0619 L543.6295,479.2391"/>
<path d="M618.3721,314.9263 L616.7162,311.65695 L491.8219,374.9137 L542.7833,475.53204"/>
<path d="M620.7953,317.81912 L619.1342,314.5402 L494.24515,377.8072 L541.87976,471.838"/>
<path d="M623.16956,320.7479 L621.5036,317.4602 L496.62173,380.7415 L540.9184,468.1583"/>
<path d="M625.49445,323.71194 L623.8238,320.41626 L498.95114,383.71573 L539.89874,464.49423"/>
<path d="M627.7694,326.71063 L626.0944,323.40768 L501.23285,386.72906 L538.82056,460.8471"/>
<path d="M629.99414,329.7432 L628.315,326.4338 L503.46634,389.78064 L537.6835,457.21823"/>
<path d="M632.16815,332.809 L630.48517,329.49393 L505.65112,392.86954 L536.4872,453.60886"/>
<path d="M634.291,335.90726 L632.6045,332.5873 L507.78668,395.99484 L535.23157,450.02023"/>
<path d="M636.3624,339.03732 L634.6726,335.7133 L509.87253,399.15567 L533.9165,446.45352"/>
<path d="M638.3819,342.19843 L636.68915,338.8711 L511.9082,402.3511 L532.5418,442.90997"/>
<path d="M640.3491,345.38983 L638.65375,342.06 L513.8933,405.5802 L531.1075,439.39072"/>
<path d="M642.26373,348.6108 L640.5661,345.27927 L515.8273,408.84204 L529.6135,435.89688"/>
<path d="M644.1254,351.86063 L642.42584,348.52817 L517.7098,412.13568 L528.0601,432.42963"/>
<path d="M645.93384,355.1385 L644.2326,351.8059 L519.5404,415.46014 L524.72034,425.6071"/>
<path d="M526.2331,428.57043 L526.44727,428.98996"/>
<path d="M650.9259,364.77905 L645.98615,355.1118 L521.31866,418.81448 L523.0468,422.19644"/>
<path d="M711.43884,483.08682 L647.6861,358.44498 L523.04425,422.19772 L524.77405,425.5796"/>
<path d="M711.4316,483.09055 L711.43884,483.08682"/>
<path d="M713.1365,486.4203 L649.3323,361.80475 L524.7168,425.60892 L526.44775,428.98972"/>
<path d="M713.0757,486.4514 L713.1365,486.4203"/>
<path d="M714.7812,489.77887 L650.9244,365.1903 L526.3358,429.0471 L528.06757,432.42578"/>
<path d="M714.6668,489.83746 L714.7812,489.77887"/>
<path d="M716.3725,493.1619 L652.4621,368.60083 L527.90106,432.5112 L529.63306,435.88687"/>
<path d="M716.2045,493.2481 L716.3725,493.1619"/>
<path d="M717.9101,496.56866 L653.94525,372.03552 L529.4121,436.00034 L531.1439,439.37198"/>
<path d="M717.6884,496.68253 L717.9101,496.56866"/>
<path d="M719.39343,499.99847 L655.3736,375.49362 L530.8687,439.51346 L532.59985,442.8801"/>
<path d="M719.11804,500.14008 L719.39343,499.99847"/>
<path d="M720.82214,503.45062 L656.7469,378.9743 L532.27057,443.0496 L534.0005,446.41025"/>
<path d="M720.4931,503.62003 L720.82214,503.45062"/>
<path d="M722.1959,506.92435 L658.0649,382.4767 L533.61725,446.60773 L535.3455,449.96146"/>
<path d="M721.8132,507.12158 L722.1959,506.92435"/>
<path d="M723.5142,510.4189 L659.3274,386.00006 L534.90857,450.1869 L536.63464,453.5327"/>
<path d="M723.0779,510.64404 L723.5142,510.4189"/>
<path d="M724.7768,513.9336 L660.5343,389.54352 L536.14417,453.786 L537.8676,457.12302"/>
<path d="M724.28687,514.18665 L724.7768,513.9336"/>
<path d="M725.9833,517.4677 L661.6853,393.10623 L537.32385,457.40414 L539.0441,460.73138"/>
<path d="M725.4399,517.7486 L725.9833,517.4677"/>
<path d="M727.1333,521.0204 L662.7804,396.68735 L538.4473,461.04028 L540.16394,464.3568"/>
<path d="M726.53656,521.3292 L727.1333,521.0204"/>
<path d="M728.22656,524.5909 L663.8192,400.28604 L539.5144,464.6934 L541.2268,467.99832"/>
<path d="M727.5766,524.9277 L728.22656,524.5909"/>
<path d="M729.2628,528.17847 L664.8018,403.90146 L540.5248,468.36246 L542.2325,471.65488"/>
<path d="M728.55975,528.54315 L729.2628,528.17847"/>
<path d="M730.24164,531.78235 L665.7279,407.5327 L541.4783,472.04648 L543.1808,475.32547"/>
<path d="M729.4857,532.17487 L730.24164,531.78235"/>
<path d="M731.1629,535.40173 L666.5974,411.179 L542.37463,475.74448 L544.0715,479.00916"/>
<path d="M730.35425,535.8221 L731.1629,535.40173"/>
<path d="M732.0263,539.0358 L667.4102,414.83936 L543.21375,479.4554 L544.90436,482.70493"/>
<path d="M731.1651,539.4839 L732.0263,539.0358"/>
<path d="M732.83154,542.6838 L668.1662,418.51297 L543.9954,483.17828 L545.6793,486.41174"/>
<path d="M731.9181,543.15955 L732.83154,542.6838"/>
<path d="M733.5785,546.34485 L668.8653,422.19894 L544.7194,486.9121 L546.3961,490.12866"/>
<path d="M732.6129,546.84814 L733.5785,546.34485"/>
<path d="M734.26685,550.0182 L669.5074,425.8964 L545.3856,490.65588 L547.05457,493.85468"/>
<path d="M733.2495,550.54895 L734.26685,550.0182"/>
<path d="M734.8965,553.7029 L670.09235,429.60443 L545.9939,494.40857 L547.65466,497.5888"/>
<path d="M733.82764,554.26105 L734.8965,553.7029"/>
<path d="M735.4672,557.3982 L670.6202,433.32217 L546.5441,498.16922 L548.19617,501.33008"/>
<path d="M734.3471,557.98364 L735.4672,557.3982"/>
<path d="M735.9789,561.1033 L671.09076,437.04868 L547.0362,501.9368 L548.67896,505.07748"/>
<path d="M734.8078,561.71576 L735.9789,561.1033"/>
<path d="M736.4313,564.8172 L671.504,440.7831 L547.47,505.71036 L549.103,508.83008"/>
<path d="M735.20966,565.45667 L736.4313,564.8172"/>
<path d="M736.8244,568.5391 L671.86,444.5245 L547.84534,509.4889 L549.4682,512.58685"/>
<path d="M735.5525,569.2054 L736.8244,568.5391"/>
<path d="M737.158,572.2682 L672.15857,448.27197 L548.1623,513.2714 L549.7745,516.34686"/>
<path d="M735.8362,572.9611 L737.158,572.2682"/>
<path d="M737.4321,576.00354 L672.3997,452.0246 L548.4207,517.057 L550.0217,520.1092"/>
<path d="M736.0607,576.7229 L737.4321,576.00354"/>
<path d="M737.64655,579.7443 L672.58344,455.78146 L548.6206,520.8446 L550.20996,523.8728"/>
<path d="M736.2261,580.48987 L737.64655,579.7443"/>
<path d="M737.80133,583.48956 L672.7097,459.54166 L548.76184,524.6333 L550.3391,527.6368"/>
<path d="M736.3321,584.2611 L737.80133,583.48956"/>
<path d="M737.89636,587.23834 L672.7785,463.30426 L548.8444,528.4221 L550.4091,531.4002"/>
<path d="M736.3788,588.03577 L737.89636,587.23834"/>
</g>
<g fill="none" id="layer2" inkscape:groupmode="layer" inkscape:label="2" stroke="black" stroke-width="0.5mm"/>
<g fill="none" id="layer3" inkscape:groupmode="layer" inkscape:label="3" stroke="black" stroke-width="0.5mm"/>
<g fill="none" id="layer4" inkscape:groupmode="layer" inkscape:label="4" stroke="black" stroke-width="0.5mm"/>
<g fill="none" id="layer5" inkscape:groupmode="layer" inkscape:label="5" stroke="black" stroke-width="0.5mm"/>
<g fill="none" id="layer6" inkscape:groupmode="layer" inkscape:label="6" stroke="black" stroke-width="0.5mm"/>
<g fill="none" id="layer7" inkscape:groupmode="layer" inkscape:label="7" stroke="black" stroke-width="0.5mm"/>
<g fill="none" id="layer8" inkscape:groupmode="layer" inkscape:label="8" stroke="black" stroke-width="0.5mm"/>
<g fill="none" id="layer9" inkscape:groupmode="layer" inkscape:label="9" stroke="black" stroke-width="0.5mm"/>
<g fill="none" id="layer10" inkscape:groupmode="layer" inkscape:label="10" stroke="black" stroke-width="0.5mm"/>
</svg>