<svg height="576px" viewBox="0 0 384 576" width="384px" xmlns="http://www.w3.org/2000/svg" xmlns:inkscape="http://www.inkscape.org/namespaces/inkscape">
<g fill="none" id="1" stroke="black" stroke-width="0.2mm">
<path d="M27.966787,16.175041 L24.559507,12.751334 L-0.2486658,37.440495 L24.440493,62.248665 L27.003632,59.697826"/>
<path d="M34.87069,16.266537 L31.710482,12.780883 L5.7808833,36.289516 L29.289518,62.219116 L32.028885,59.735516"/>
<path d="M41.872295,16.372316 L39.03238,12.881165 L11.881165,34.96762 L33.96762,62.118835 L36.93996,59.700954"/>
<path d="M48.921185,16.4924 L46.45051,13.068596 L18.068596,33.54949 L38.54949,61.931404 L41.80504,59.582146"/>
<path d="M55.95985,16.620462 L53.87461,13.341905 L24.341906,32.12539 L43.12539,61.658096 L46.703426,59.38238"/>
<path d="M62.92719,16.742744 L61.209507,13.678109 L30.678108,30.790491 L47.790493,61.32189 L51.715748,59.121845"/>
<path d="M69.762695,16.839157 L68.36649,14.034743 L37.034744,29.633505 L52.633507,60.965256 L56.913475,58.83444"/>
<path d="M76.4114,16.887135 L75.27286,14.358328 L43.35833,28.727142 L57.727142,60.64167 L62.350075,58.5603"/>
<path d="M82.82931,16.867836 L81.877754,14.596774 L49.596775,28.122246 L63.122246,60.403225 L68.05539,58.33628"/>
<path d="M88.98884,16.772957 L88.15455,14.7120695 L55.71207,27.845455 L68.84545,60.28793 L74.033775,58.18759"/>
<path d="M94.88349,16.609417 L94.101,14.689459 L61.68946,27.898998 L74.899,60.31054 L80.26559,58.123352"/>
<path d="M100.53102,16.39935 L99.73887,14.540397 L67.5404,28.261135 L81.26113,60.459602 L86.71116,58.137184"/>
<path d="M105.97313,16.174322 L105.11286,14.298306 L73.29831,28.887136 L87.88714,60.701694 L93.31705,58.21176"/>
<path d="M111.26967,15.9651 L110.28721,14.008312 L79.00831,29.712793 L94.71279,60.991688 L100.02469,58.324696"/>
<path d="M116.48535,15.790113 L115.33632,13.7141905 L84.71419,30.66368 L101.66368,61.28581 L106.782135,58.45272"/>
<path d="M121.66846,15.646606 L120.32668,13.446938 L90.44694,31.67332 L108.67332,61.553062 L113.55968,58.572426"/>
<path d="M126.830086,15.517485 L125.288895,13.21901 L96.21901,32.7111 L115.711105,61.78099 L120.35895,58.66449"/>
<path d="M131.94571,15.392027 L130.20502,13.030165 L102.03017,33.794983 L122.79498,61.969837 L127.20347,58.72079"/>
<path d="M136.9763,15.270901 L135.03235,12.881161 L107.881165,34.96766 L129.96765,62.11884 L134.12338,58.738308"/>
<path d="M141.88495,15.166587 L139.72525,12.7816105 L113.78161,36.274754 L137.27475,62.218388 L141.1442,58.714436"/>
<path d="M148.28012,58.64465 L144.74908,62.247482 L119.75252,37.74909 L144.25092,12.752516 L146.6479,15.101737"/>
<path d="M155.53136,58.522194 L152.40039,62.175667 L125.82433,39.4004 L148.59961,12.824334 L151.26143,15.105483"/>
<path d="M162.88428,58.339237 L160.21036,61.96903 L132.03098,41.21035 L152.78964,13.0309725 L155.74467,15.207832"/>
<path d="M170.31306,58.0891 L168.13304,61.599148 L138.40085,43.133038 L156.86696,13.400853 L160.13858,15.4327965"/>
<path d="M177.78218,57.768986 L176.1008,61.05266 L144.94734,45.1008 L160.8992,13.947339 L164.5011,15.791661"/>
<path d="M185.24913,57.382767 L184.03448,60.338425 L151.66158,47.03448 L164.96552,14.661575 L168.89926,16.278183"/>
<path d="M192.66797,56.943085 L191.85588,59.48963 L158.51038,48.855885 L169.14412,15.510368 L173.39949,16.86739"/>
<path d="M199.99356,56.47177 L199.4994,58.559803 L165.4402,50.499413 L173.5006,16.440197 L178.05815,17.518782"/>
<path d="M179.28746,53.05784 L172.38623,51.919994 L178.08,17.386229 L184.57828,18.457636"/>
<path d="M179.91687,53.161613 L206.92,57.613773 L207.18642,55.997852"/>
<path d="M186.089,53.803562 L179.28352,53.09574 L182.90427,18.283525 L193.3271,19.36758"/>
<path d="M190.56627,54.26923 L192.73044,54.49432"/>
<path d="M195.31622,54.76326 L199.20818,55.168056"/>
<path d="M199.5372,55.202274 L214.09573,56.716476 L214.21672,55.553356"/>
<path d="M192.73213,54.38683 L186.07695,54.02548 L187.97452,19.076958 L202.66412,19.874542"/>
<path d="M210.48447,55.350708 L211.61345,55.412006"/>
<path d="M213.71072,55.525883 L221.02548,55.923042 L221.05208,55.433254"/>
<path d="M199.2041,54.824436 L192.72685,54.72252 L193.27748,19.726852 L213.1118,20.038929"/>
<path d="M227.50658,55.26975 L227.72252,55.273148 L227.72264,55.265327"/>
<path d="M226.39417,19.881504 L198.79382,20.208628 L199.20863,55.20617 L205.49698,55.131638"/>
<path d="M239.49553,19.606295 L239.49269,19.50698 L204.50699,20.507317 L205.50731,55.49302 L211.61018,55.31852"/>
<path d="M235.26912,19.753544 L210.40128,20.619947 L211.61995,55.598724 L217.5561,55.391907"/>
<path d="M235.64565,19.740425 L241.60242,19.532888"/>
<path d="M243.33134,19.472652 L245.38005,19.401276 L245.38498,19.542671"/>
<path d="M222.64545,20.365517 L216.45653,20.560894 L217.5609,55.543465 L223.87666,55.344086"/>
<path d="M222.96617,20.355392 L228.93188,20.16706"/>
<path d="M232.48706,20.054829 L235.26585,19.967104"/>
<path d="M240.22827,19.810448 L241.59444,19.767319"/>
<path d="M246.9838,19.597183 L247.86713,19.569298"/>
<path d="M228.93214,20.23322 L222.64537,20.361961 L223.36195,55.354626 L239.292,55.028408"/>
<path d="M235.26468,20.043934 L228.93149,20.068773 L229.06877,55.068504 L251.17505,54.981796"/>
<path d="M262.94067,55.161575 L234.73468,54.73059 L235.26941,19.734676 L241.59225,19.83129"/>
<path d="M275.39435,55.56138 L275.39352,55.58616 L240.41385,54.393517 L241.60648,19.413843 L247.86426,19.627203"/>
<path d="M281.1216,55.65789 L281.11234,55.84475 L246.15524,54.112347 L247.88765,19.155249 L254.03508,19.459902"/>
<path d="M286.95743,55.66677 L286.93768,56.001427 L251.99857,53.937675 L254.06233,18.998571 L260.06897,19.353369"/>
<path d="M289.9,55.84533 L257.97214,53.907883 L260.09213,18.972145 L265.94504,19.327312"/>
<path d="M290.00034,55.85142 L292.90787,56.027855 L292.92752,55.70429"/>
<path d="M276.77234,54.719204 L264.09216,54.04242 L265.95758,19.092165 L271.66077,19.396564"/>
<path d="M278.00174,54.78482 L283.29282,55.067223"/>
<path d="M286.4914,55.23794 L289.87857,55.418728"/>
<path d="M294.1127,55.64472 L296.48853,55.771526"/>
<path d="M276.7742,54.576263 L270.3621,54.337936 L271.66205,19.362087 L285.66107,19.8824"/>
<path d="M283.28925,54.854267 L276.7717,54.768665 L277.23132,19.771685 L297.83606,20.042307"/>
<path d="M308.92822,19.855858 L282.70834,20.296587 L283.2966,55.291645 L289.86664,55.18121"/>
<path d="M320.02338,19.29818 L288.14355,20.900564 L289.90057,55.856434 L296.4677,55.52635"/>
<path d="M328.46542,18.686497 L328.45657,18.582077 L293.58206,21.543428 L296.54343,56.417923 L303.06744,55.86394"/>
<path d="M333.8397,18.358055 L333.8029,18.049503 L299.0495,22.197119 L303.1971,56.950497 L309.66663,56.1784"/>
<path d="M339.21274,18.03704 L339.13684,17.543474 L304.5435,22.863161 L309.86316,57.456528 L316.2838,56.469173"/>
<path d="M344.56055,17.709707 L344.435,17.047226 L310.0472,23.565008 L316.565,57.952774 L322.94287,56.743927"/>
<path d="M349.85477,17.369577 L349.66632,16.544144 L315.54416,24.333675 L323.33368,58.455856 L329.6638,57.0108"/>
<path d="M363.97397,49.803207 L354.8032,16.026037 L321.02603,25.196793 L330.1968,58.973965 L363.97397,49.803207"/>
<path d="M37.30573,76.966484 L36.06846,74.28187 L4.2818704,88.93154 L18.931543,120.71813 L23.352465,118.68063"/>
<path d="M44.00713,77.18447 L42.942593,74.62343 L10.62343,88.05741 L24.057407,120.37657 L28.591236,118.49201"/>
<path d="M50.7518,77.437874 L49.861584,75.024734 L17.024734,87.13842 L29.138416,119.975266 L33.78066,118.26272"/>
<path d="M57.535732,77.72385 L56.81993,75.49184 L23.491838,86.18007 L34.18007,119.50816 L38.93369,117.98369"/>
<path d="M64.34324,78.03493 L63.79595,76.02188 L30.021883,85.20405 L39.20405,118.97812 L44.07833,117.65295"/>
<path d="M71.14794,78.3578 L70.75437,76.599724 L36.59972,84.24563 L44.24563,118.400276 L49.254604,117.27896"/>
<path d="M77.915306,78.6727 L77.651764,77.19662 L43.196613,83.348236 L49.348232,117.80338 L54.509083,116.881966"/>
<path d="M84.60627,78.95387 L84.44313,77.771774 L49.771774,82.55687 L54.556873,117.228226 L59.888206,116.49243"/>
<path d="M91.18119,79.17208 L91.087715,78.277016 L56.277016,81.912285 L59.912285,116.722984 L65.43194,116.14657"/>
<path d="M97.6036,79.298904 L97.55293,78.66378 L62.663776,81.44707 L65.44707,116.33622 L71.16915,115.879745"/>
<path d="M103.843445,79.312035 L103.815796,78.891 L68.891,81.184204 L71.184204,116.109 L77.11558,115.719536"/>
<path d="M109.87936,79.20016 L109.86242,78.931984 L74.931984,81.13758 L77.13758,116.068016 L83.2742,115.680534"/>
<path d="M115.700066,78.96517 L115.68651,78.778435 L80.778435,81.31349 L83.31349,116.221565 L89.637924,115.762276"/>
<path d="M121.30412,78.62062 L121.28721,78.44051 L86.44051,81.71279 L89.71279,116.55949 L96.19415,115.95085"/>
<path d="M126.69662,78.185555 L126.66588,77.94249 L91.94249,82.33412 L96.33412,117.05751 L102.93178,116.22307"/>
<path d="M131.8814,77.67794 L131.81964,77.31466 L97.31466,83.18036 L103.18036,117.68534 L109.847626,116.55193"/>
<path d="M136.85399,77.12132 L136.73375,76.586655 L102.586655,84.26626 L110.26626,118.413345 L116.93835,116.9128"/>
<path d="M141.61253,76.54934 L141.39249,75.79588 L107.79588,85.607506 L117.607506,119.20412 L124.19266,117.280975"/>
<path d="M146.16856,76.003815 L145.79204,74.9928 L112.9928,87.20797 L125.20797,120.0072 L131.5887,117.630875"/>
<path d="M150.55179,75.529205 L149.94861,74.23799 L118.23799,89.05139 L133.05139,120.76201 L139.09471,117.93891"/>
<path d="M154.81029,75.16494 L153.90305,73.59391 L123.59391,91.09696 L141.09695,121.40609 L146.67189,118.18665"/>
<path d="M159.00615,74.93812 L157.72002,73.1137 L129.11371,93.27998 L149.27998,121.8863 L154.278,118.3629"/>
<path d="M163.20793,74.85854 L161.48169,72.83073 L134.83073,95.51832 L157.51831,122.16927 L161.87083,118.464035"/>
<path d="M169.4108,118.49321 L165.7235,122.24773 L140.75227,97.723495 L165.2765,72.75227 L167.48141,74.91771"/>
<path d="M176.8634,118.45872 L173.81389,122.14033 L146.85966,99.813896 L169.18611,72.85967 L171.88063,75.09157"/>
<path d="M184.20197,118.37185 L181.72668,121.88514 L153.11485,101.726685 L173.27332,73.11486 L176.44086,75.34655"/>
<path d="M191.41083,118.24421 L189.42575,121.52885 L159.47115,103.42574 L177.57425,73.47115 L181.17468,75.64707"/>
<path d="M198.488,118.08486 L196.90439,121.11514 L165.88486,104.90439 L182.09561,73.88486 L186.07172,75.96277"/>
<path d="M205.4464,117.898254 L204.18301,120.67553 L172.32446,106.183014 L186.81699,74.32447 L191.10225,76.27384"/>
<path d="M212.31174,117.68411 L211.3024,120.22472 L178.77528,107.30241 L191.6976,74.77528 L196.22452,76.57372"/>
<path d="M219.11682,117.440125 L218.31335,119.76144 L185.23857,108.313354 L196.68665,75.23856 L201.39616,76.86866"/>
<path d="M225.89142,117.16807 L225.26244,119.27487 L191.72513,109.262436 L201.73756,75.72513 L206.59056,77.17397"/>
<path d="M232.64832,116.88174 L232.17386,118.75732 L198.24269,110.17386 L206.82614,76.24268 L211.81557,77.504845"/>
<path d="M239.37144,116.6042 L239.03195,118.221634 L204.77837,111.03195 L211.96805,76.778366 L217.11122,77.857895"/>
<path d="M246.0223,116.36309 L245.79237,117.70466 L211.29535,111.79237 L217.20763,77.29534 L222.52922,78.20739"/>
<path d="M252.55545,116.18751 L252.40588,117.256386 L217.74362,112.405876 L222.59412,77.743614 L228.11494,78.516174"/>
<path d="M258.93,116.10246 L258.8329,116.92686 L224.07315,112.83288 L228.16711,78.07314 L233.89693,78.74799"/>
<path d="M265.11685,116.12238 L265.04965,116.75378 L230.24622,113.04967 L233.95033,78.24622 L239.88318,78.877655"/>
<path d="M271.10364,116.24621 L271.04962,116.75382 L236.24617,113.04961 L239.9504,78.24618 L246.0618,78.89663"/>
<path d="M276.89685,116.45615 L276.84253,116.91924 L242.08076,112.84253 L246.15747,78.08076 L252.40398,78.813324"/>
<path d="M282.52258,116.72097 L282.454,117.219986 L247.78001,112.453995 L252.546,77.780014 L258.8679,78.648964"/>
<path d="M288.02484,117.0026 L287.92477,117.61034 L253.38966,111.92478 L259.07523,77.38966 L265.40283,78.43139"/>
<path d="M293.46094,117.26401 L293.30936,118.03781 L258.9622,111.30936 L265.69064,76.96219 L271.95355,78.189064"/>
<path d="M298.8949,117.47571 L298.67227,118.45211 L264.54788,110.67228 L272.32773,76.54789 L278.46487,77.94706"/>
<path d="M304.38928,117.619194 L304.08215,118.81172 L270.1883,110.08215 L278.91785,76.18828 L284.88602,77.72542"/>
<path d="M309.99796,117.68681 L309.60385,119.08696 L275.91302,109.60384 L285.39615,75.91304 L291.17456,77.53952"/>
<path d="M315.76053,117.678925 L315.2909,119.25947 L281.74054,109.29091 L291.7091,75.74053 L297.29926,77.40149"/>
<path d="M321.7004,117.59967 L321.17993,119.31924 L287.68076,109.17994 L297.82007,75.68076 L303.24106,77.321556"/>
<path d="M327.82584,117.453384 L327.28867,119.26069 L293.73932,109.28865 L303.71133,75.73931 L308.99307,77.30923"/>
<path d="M334.13074,117.24985 L333.61688,119.07964 L299.92035,109.6169 L309.38312,75.92036 L314.56995,77.37694"/>
<path d="M340.5882,117.002686 L340.13504,118.7804 L306.2196,110.13505 L314.86496,76.2196 L320.0115,77.5315"/>
<path d="M347.15344,116.72655 L346.78583,118.380295 L312.61972,110.785835 L320.21417,76.619705 L325.3746,77.76677"/>
<path d="M353.77344,116.4384 L353.4996,117.90861 L319.0914,111.499596 L325.5004,77.09139 L330.7221,78.06401"/>
<path d="M365.40448,82.79245 L360.20755,117.40447 L325.59552,112.20755 L330.79245,77.59553 L365.40448,82.79245"/>
<path d="M42.059067,177.2631 L42.013744,177.54623 L7.453772,172.01375 L12.986257,137.45377 L19.707407,138.52972"/>
<path d="M47.003094,177.80513 L46.89326,178.31155 L12.688453,170.89326 L20.106737,136.68845 L26.785868,138.13701"/>
<path d="M51.8006,178.32657 L51.582348,179.099 L17.901,169.58235 L27.417652,135.901 L33.963684,137.75058"/>
<path d="M56.48756,178.78813 L56.104744,179.86156 L23.13844,168.10474 L34.895256,135.13844 L41.202534,137.38782"/>
<path d="M61.12162,179.15564 L60.511078,180.54996 L28.450045,166.51108 L42.488922,134.45004 L48.45356,137.06184"/>
<path d="M65.776215,179.40784 L64.87695,181.12373 L33.876274,164.87695 L50.123043,133.87627 L55.661705,136.77896"/>
<path d="M70.53073,179.54103 L69.29513,181.56068 L39.439316,163.29512 L57.704876,133.43932 L62.7702,136.53824"/>
<path d="M75.45917,179.56866 L73.863174,181.86108 L45.13891,161.86317 L65.136826,133.13892 L69.72487,136.33311"/>
<path d="M80.61988,179.51648 L78.66983,182.0449 L50.955097,160.66983 L72.33017,132.9551 L76.4785,136.15451"/>
<path d="M86.04858,179.415 L83.78299,182.14322 L56.85679,159.78299 L79.21701,132.85678 L82.99559,135.99461"/>
<path d="M91.75556,179.29202 L89.24186,182.18736 L62.812637,159.24187 L85.75814,132.81264 L89.25699,135.8503"/>
<path d="M97.727394,179.16743 L95.05388,182.1999 L68.800095,159.05388 L91.94612,132.8001 L95.263214,135.72453"/>
<path d="M103.932465,179.0509 L101.196594,182.19052 L74.80949,159.1966 L97.803406,132.80948 L101.03437,135.62497"/>
<path d="M110.330025,178.94191 L107.62478,182.15736 L80.84264,159.62479 L103.37522,132.84264 L106.604256,135.55931"/>
<path d="M116.882576,178.82956 L114.28395,182.09166 L86.90834,160.28395 L108.71605,132.90834 L112.00653,135.52957"/>
<path d="M123.569405,178.69385 L121.131676,181.98083 L93.01917,161.13167 L113.868324,133.01917 L117.256096,135.53165"/>
<path d="M130.38791,178.51901 L128.15776,181.80649 L99.19351,162.15776 L118.84224,133.19351 L122.34919,135.57256"/>
<path d="M137.34108,178.29185 L135.36433,181.54391 L105.45609,163.36433 L123.63567,133.45609 L127.27776,135.66992"/>
<path d="M144.42929,177.99855 L142.74873,181.16339 L111.83662,164.74873 L128.25127,133.83661 L132.03902,135.84795"/>
<path d="M151.64705,177.62413 L150.29607,180.63286 L118.367134,166.29607 L132.70393,134.36714 L136.64047,136.13474"/>
<path d="M158.9814,177.1528 L157.97566,179.92232 L125.07768,167.97566 L137.02434,135.07768 L141.1024,136.5586"/>
<path d="M166.41171,176.56909 L165.74173,179.00906 L131.99094,169.74173 L141.25827,135.99094 L145.4578,137.14404"/>
<path d="M146.48949,172.89636 L139.1173,171.53728 L145.46272,137.1173 L155.7704,139.01755"/>
<path d="M150.9644,173.72133 L153.97522,174.27638"/>
<path d="M157.7907,174.97978 L161.57686,175.67776"/>
<path d="M164.62454,176.23962 L169.30687,177.10281"/>
<path d="M171.4697,177.50154 L173.53728,177.8827 L173.68245,177.09525"/>
<path d="M153.97562,174.00192 L146.4518,173.30083 L149.69917,138.4518 L166.22989,139.9922"/>
<path d="M161.51405,174.98528 L153.97418,174.97414 L154.02586,139.97418 L176.6248,140.00755"/>
<path d="M186.98105,139.06825 L158.4908,141.65227 L161.65227,176.5092 L169.07426,175.83603"/>
<path d="M197.24643,137.18335 L163.12727,143.44823 L169.44823,177.87273 L176.63266,176.55353"/>
<path d="M201.81091,136.44461 L201.67416,135.9526 L167.9526,145.32584 L177.32584,179.0474 L184.17502,177.14359"/>
<path d="M206.101,135.92528 L205.74303,134.97046 L172.97046,147.25697 L185.25697,180.02954 L191.69682,177.61523"/>
<path d="M210.4165,135.52306 L209.77475,134.17558 L178.17558,149.22525 L193.22525,180.82442 L199.20148,177.97813"/>
<path d="M214.74728,135.22389 L213.77432,133.55981 L183.55981,151.22568 L201.22568,181.44019 L206.69676,178.24135"/>
<path d="M219.08165,135.02263 L217.74094,133.11732 L189.11732,153.25906 L209.25906,181.88268 L214.1893,178.41339"/>
<path d="M223.41693,134.9226 L221.67868,132.84735 L194.84735,155.32132 L217.32132,182.15265 L221.67926,178.50243"/>
<path d="M227.76321,134.92654 L225.60687,132.7515 L200.7515,157.39313 L225.39313,182.2485 L229.16023,178.5138"/>
<path d="M236.62228,178.45085 L233.44472,182.17221 L206.82779,159.44472 L229.55528,132.82779 L232.1371,135.03233"/>
<path d="M244.05511,178.3164 L241.44437,181.9324 L213.0676,161.44437 L233.55563,133.0676 L236.55504,135.23317"/>
<path d="M251.45009,178.11314 L249.36491,181.54376 L219.45624,163.36491 L237.63509,133.45624 L241.029,135.5191"/>
<path d="M258.8018,177.84348 L257.18787,181.02438 L225.97562,165.18785 L241.81215,133.97562 L245.56421,135.87933"/>
<path d="M266.1089,177.5089 L264.90482,180.39212 L232.60788,166.90483 L246.09517,134.60788 L250.15846,136.30472"/>
<path d="M273.37427,177.10924 L272.51706,179.66133 L239.33867,168.51704 L250.48296,135.33867 L254.803,136.78972"/>
<path d="M280.6048,176.64194 L280.0331,178.84059 L246.15941,170.03311 L254.96689,136.15941 L259.4841,137.33392"/>
<path d="M260.07602,172.7832 L253.06839,171.466 L259.534,137.06839 L266.0367,138.29068"/>
<path d="M260.7478,172.90947 L267.17706,174.11797"/>
<path d="M267.3028,174.1416 L287.466,177.93161 L287.81,176.10149"/>
<path d="M267.1987,173.67036 L260.07056,172.82959 L264.1704,138.07054 L276.78906,139.55893"/>
<path d="M273.89154,174.4598 L274.37943,174.51733"/>
<path d="M280.5948,175.25044 L281.63647,175.3733"/>
<path d="M287.3893,176.05186 L288.99283,176.241"/>
<path d="M294.27515,176.86406 L294.8296,176.92946 L294.84906,176.76437"/>
<path d="M274.37866,174.4833 L267.17624,174.13548 L268.8645,139.17622 L287.6353,140.08273"/>
<path d="M298.30576,139.84203 L273.6098,140.39911 L274.3991,175.39021 L281.62244,175.22726"/>
<path d="M308.59,138.85405 L278.40674,141.75366 L281.75366,176.59326 L288.9342,175.90346"/>
<path d="M317.75574,137.31117 L317.74747,137.26366 L283.26367,143.25252 L289.25253,177.73634 L296.315,176.50978"/>
<path d="M322.21048,136.64287 L322.09576,136.19632 L288.19632,144.90424 L296.90424,178.80368 L303.76288,177.04187"/>
<path d="M326.5764,136.05621 L326.2881,135.22632 L293.22632,146.7119 L304.7119,179.77368 L311.27466,177.4938"/>
<path d="M330.85327,135.55736 L330.32574,134.37845 L298.37845,148.67426 L312.67426,180.62155 L318.8507,177.8577"/>
<path d="M335.0345,135.15387 L334.20667,133.6773 L303.6773,150.79333 L320.79333,181.3227 L326.49454,178.12637"/>
<path d="M339.11148,134.8599 L337.92828,133.15067 L309.15067,153.07172 L329.07172,181.84933 L334.20883,178.29323"/>
<path d="M343.08157,134.69603 L341.49664,132.83194 L314.83194,155.50336 L337.50336,182.16806 L341.993,178.35078"/>
<path d="M370.24225,156.933 L346.067,182.24225 L320.75775,158.067 L344.933,132.75775 L370.24225,156.933"/>
<path d="M16.019123,200.25006 L9.616679,200.3919 L10.391907,235.38332 L27.970205,234.99388"/>
<path d="M39.501556,235.00667 L15.980599,234.98058 L16.019423,199.9806 L22.475294,199.98776"/>
<path d="M51.176792,235.32796 L21.525223,234.51198 L22.488022,199.52522 L28.925165,199.70236"/>
<path d="M62.04571,235.84323 L62.04225,235.90799 L27.092016,234.04225 L28.957747,199.09201 L35.310474,199.43114"/>
<path d="M67.657906,235.98898 L67.6372,236.26408 L32.735916,233.63719 L35.3628,198.73592 L41.58166,199.20398"/>
<path d="M73.39643,236.03848 L73.354416,236.50362 L38.49638,233.35442 L41.645588,198.49638 L47.702923,199.04362"/>
<path d="M79.29364,235.99196 L79.23456,236.60298 L44.397026,233.23456 L47.765438,198.39702 L53.656437,198.96663"/>
<path d="M85.35998,235.85783 L85.294975,236.55305 L50.446953,233.29498 L53.70502,198.44695 L59.445324,198.98363"/>
<path d="M91.58435,235.65073 L91.52692,236.35837 L56.641636,233.52692 L59.47308,198.64163 L65.09476,199.09792"/>
<path d="M69.37762,234.29002 L62.962467,233.89694 L65.10305,198.96246 L73.58553,199.48222"/>
<path d="M71.87876,234.44328 L75.83167,234.6855"/>
<path d="M78.60942,234.8557 L82.26131,235.07947"/>
<path d="M84.63057,235.22464 L88.60352,235.46808"/>
<path d="M89.85306,235.54465 L97.89695,236.03754 L97.922264,235.62437"/>
<path d="M75.832634,234.58713 L69.37535,234.35222 L70.64779,199.37535 L85.70777,199.92322"/>
<path d="M104.11182,235.6159 L104.35221,235.62465 L104.35292,235.60513"/>
<path d="M82.258484,234.89127 L75.83028,234.82861 L76.17139,199.83028 L97.088844,200.03415"/>
<path d="M109.754944,199.84447 L81.739914,200.264 L82.26401,235.26009 L88.59318,235.1653"/>
<path d="M122.39523,199.49553 L122.39241,199.41281 L87.41281,200.60759 L88.60759,235.58719 L94.78157,235.37631"/>
<path d="M124.64708,199.39487 L93.236015,200.7989 L94.7989,235.76399 L100.786934,235.49632"/>
<path d="M124.88818,199.3841 L128.2011,199.23601 L128.21307,199.50368"/>
<path d="M118.17019,199.95258 L99.236015,200.7989 L100.7989,235.76399 L106.60477,235.50447"/>
<path d="M120.416565,199.85216 L124.63731,199.6635"/>
<path d="M128.196,199.50444 L131.07774,199.37563"/>
<path d="M111.74182,200.39142 L105.41281,200.60759 L106.60759,235.58719 L119.245056,235.15553"/>
<path d="M118.16809,200.16774 L111.739914,200.264 L112.26401,235.26009 L131.91115,234.96585"/>
<path d="M143.29224,235.07678 L117.83028,234.82861 L118.17139,199.83028 L124.628944,199.89322"/>
<path d="M155.41447,235.51778 L123.37535,234.35222 L124.64779,199.37535 L131.06345,199.60875"/>
<path d="M163.90524,235.90208 L163.89694,236.03754 L128.96246,233.89694 L131.10306,198.96246 L137.41565,199.34927"/>
<path d="M169.55467,236.01637 L169.52692,236.35837 L134.64163,233.52692 L137.47308,198.64163 L143.64003,199.14217"/>
<path d="M175.34357,236.03337 L175.29498,236.55305 L140.44695,233.29498 L143.70502,198.44695 L149.70636,199.00804"/>
<path d="M181.29707,235.95638 L181.23456,236.60298 L146.39702,233.23456 L149.76544,198.39702 L155.60356,198.96152"/>
<path d="M187.41833,235.79602 L187.35442,236.50362 L152.49638,233.35442 L155.64558,198.49638 L161.3421,199.01102"/>
<path d="M193.68953,235.56886 L193.63719,236.26408 L158.73592,233.63719 L161.36281,198.73592 L166.95428,199.15677"/>
<path d="M171.52869,234.38586 L165.09201,234.04225 L166.95775,199.09201 L177.82321,199.67204"/>
<path d="M176.4087,234.64636 L177.98088,234.73029"/>
<path d="M182.7689,234.98589 L184.38501,235.07216"/>
<path d="M188.50632,235.29216 L190.68091,235.40825"/>
<path d="M193.46721,235.55699 L196.81886,235.73592"/>
<path d="M197.30666,235.76195 L200.04225,235.90799 L200.0568,235.63568"/>
<path d="M177.98093,234.68964 L171.52522,234.51198 L172.48802,199.52522 L189.49844,199.99333"/>
<path d="M184.38315,234.98769 L177.9806,234.98058 L178.01942,199.9806 L201.0298,200.00612"/>
<path d="M214.9745,199.69717 L183.61668,200.3919 L184.3919,235.38332 L190.67455,235.24413"/>
<path d="M220.55383,199.48094 L189.3354,200.69084 L190.69084,235.6646 L196.8047,235.42764"/>
<path d="M220.81601,199.4708 L224.30916,199.3354 L224.31496,199.485"/>
<path d="M220.54831,199.65794 L195.21576,200.82108 L196.82108,235.78424 L202.74593,235.5122"/>
<path d="M223.08331,199.54155 L227.28008,199.34886"/>
<path d="M213.9485,200.21909 L201.27638,200.75487 L202.75487,235.72362 L208.57256,235.47765"/>
<path d="M218.1956,200.03952 L220.5395,199.94041"/>
<path d="M227.04733,199.66527 L227.2576,199.65637"/>
<path d="M213.94878,200.31456 L207.52014,200.4934 L208.4934,235.47986 L225.05061,235.01927"/>
<path d="M220.53662,200.03255 L213.948,200.05215 L214.05215,235.052 L236.7307,234.98451"/>
<path d="M247.05933,235.30685 L219.46262,234.44559 L220.55441,199.46262 L227.25647,199.67178"/>
<path d="M257.0605,236.03789 L224.7708,233.67767 L227.32233,198.7708 L234.07127,199.26411"/>
<path d="M264.7953,236.84315 L264.78018,236.96832 L230.03168,232.78018 L234.21982,198.03168 L240.93619,198.84117"/>
<path d="M269.87204,237.28046 L269.8005,237.6989 L235.3011,231.8005 L241.1995,197.3011 L247.80225,198.42998"/>
<path d="M274.96103,237.63808 L274.79825,238.37239 L240.62761,230.79825 L248.20175,196.62761 L254.62093,198.05046"/>
<path d="M280.12146,237.90456 L279.83844,238.95374 L246.04626,229.83844 L255.16156,196.04626 L261.34906,197.71532"/>
<path d="M285.40164,238.08226 L284.9823,239.42389 L251.57611,228.9823 L262.0177,195.57611 L267.9534,197.4314"/>
<path d="M290.83255,238.18385 L290.27765,239.77873 L257.22125,228.27765 L268.72235,195.22127 L274.4146,197.20174"/>
<path d="M296.42447,238.22795 L295.7512,240.02583 L262.97418,227.75119 L275.2488,194.97417 L280.7302,197.0269"/>
<path d="M302.16702,238.23523 L301.4043,240.1805 L268.8195,227.4043 L281.5957,194.8195 L286.91544,196.90532"/>
<path d="M308.0321,238.22527 L307.21332,240.26294 L274.73706,227.21333 L287.78668,194.73706 L293.0011,196.83232"/>
<path d="M313.98013,238.21391 L313.13516,240.29614 L280.70386,227.13516 L293.86484,194.70386 L299.02713,196.79878"/>
<path d="M319.96942,238.20973 L319.11795,240.3034 L286.6966,227.11794 L299.88205,194.6966 L305.0307,196.79051"/>
<path d="M325.96924,238.20964 L325.1176,240.30354 L292.69647,227.11763 L305.8824,194.69646 L311.03076,196.79036"/>
<path d="M331.96924,238.20964 L331.1176,240.30354 L298.69647,227.11763 L311.8824,194.69646 L317.03076,196.79036"/>
<path d="M337.96924,238.20964 L337.1176,240.30354 L304.69647,227.11763 L317.8824,194.69646 L323.03076,196.79036"/>
<path d="M343.96924,238.20964 L343.1176,240.30354 L310.69647,227.11763 L323.8824,194.69646 L329.03076,196.79036"/>
<path d="M349.96924,238.20964 L349.1176,240.30354 L316.69647,227.11763 L329.8824,194.69646 L335.03076,196.79036"/>
<path d="M368.30353,207.88237 L355.1176,240.30354 L322.69647,227.11763 L335.8824,194.69646 L368.30353,207.88237"/>
<path d="M39.72314,297.27704 L39.077866,299.37357 L5.6264305,289.07785 L15.922134,255.62643 L20.827633,257.13626"/>
<path d="M46.426926,296.91113 L45.888866,298.92465 L12.075341,289.88885 L21.111134,256.07535 L25.96169,257.37152"/>
<path d="M53.294624,296.44766 L52.88951,298.31396 L18.686039,290.88953 L26.110487,256.68604 L30.905474,257.72687"/>
<path d="M32.500755,293.16415 L25.484634,292.05627 L30.943726,257.48465 L39.481834,258.83286"/>
<path d="M35.16017,293.5841 L39.68653,294.29886"/>
<path d="M42.37549,294.72345 L47.00723,295.45483"/>
<path d="M49.447826,295.8402 L54.426003,296.6263"/>
<path d="M56.371742,296.93356 L60.056274,297.51535 L60.230503,296.412"/>
<path d="M39.69211,293.99692 L32.484703,293.3404 L35.65959,258.4847 L50.929295,259.87558"/>
<path d="M46.969913,294.80838 L39.679604,294.6736 L40.326374,259.6796 L61.70173,260.07468"/>
<path d="M72.293396,259.46332 L45.020653,261.0375 L47.037502,295.97934 L54.28204,295.5612"/>
<path d="M83.15605,257.99512 L49.81369,262.5017 L54.501694,297.1863 L61.572407,296.23062"/>
<path d="M89.08651,257.15567 L89.00273,256.7593 L54.75931,263.99725 L61.99727,298.2407 L68.78798,296.80536"/>
<path d="M93.80267,256.75235 L93.55704,255.88686 L59.88686,265.44296 L69.44296,299.11313 L75.88472,297.28488"/>
<path d="M98.68421,256.48376 L98.23506,255.20071 L65.20071,266.76492 L76.76494,299.7993 L82.83174,297.6755"/>
<path d="M103.75845,256.3202 L103.09139,254.68541 L70.68542,267.9086 L83.90861,300.31458 L89.61341,297.98676"/>
<path d="M109.02945,256.2307 L108.15463,254.31386 L76.31386,268.84537 L90.84537,300.68616 L96.2292,298.22906"/>
<path d="M114.483406,256.18988 L113.42764,254.05533 L82.05533,269.57236 L97.57236,300.94467 L102.68993,298.41348"/>
<path d="M120.09892,256.18286 L118.8954,253.88203 L87.88204,270.1046 L104.1046,301.11795 L109.00918,298.55246"/>
<path d="M125.86194,256.2099 L124.54091,253.77394 L93.77395,270.4591 L110.45909,301.22604 L115.188545,298.66122"/>
<path d="M131.77943,256.28073 L130.36848,253.72346 L99.72346,270.6315 L116.631516,301.27655 L121.20808,298.75146"/>
<path d="M137.87697,256.40332 L136.41158,253.73595 L105.73595,270.58844 L122.588425,301.26404 L127.033134,298.82224"/>
<path d="M144.18312,256.58356 L142.71347,253.82584 L111.82584,270.28653 L128.28653,301.17416 L132.62688,298.86108"/>
<path d="M150.7183,256.82806 L149.30968,254.01578 L118.01577,269.69034 L133.69032,300.98422 L137.96054,298.84537"/>
<path d="M157.48906,257.14667 L156.21553,254.33669 L124.33668,268.78445 L138.78447,300.66333 L143.02094,298.74332"/>
<path d="M164.4866,257.55362 L163.4192,254.82602 L130.82602,267.5808 L143.5808,300.17398 L147.8154,298.51685"/>
<path d="M171.68782,258.06702 L170.8794,255.52252 L137.52252,266.1206 L148.1206,299.47748 L152.37386,298.12613"/>
<path d="M158.87825,297.03503 L152.47165,298.5419 L144.45808,264.47165 L151.65744,262.77832"/>
<path d="M152.32373,262.62158 L159.0932,261.02936"/>
<path d="M159.47319,260.94 L178.52835,256.4581 L178.97612,258.36185"/>
<path d="M159.12512,261.62558 L151.64896,262.72043 L156.72041,297.35104 L169.78212,295.43823"/>
<path d="M166.30354,260.57434 L166.69904,260.51642"/>
<path d="M173.27002,259.55414 L174.35695,259.39496"/>
<path d="M180.22325,258.5359 L182.0998,258.26108"/>
<path d="M166.69748,260.55325 L159.08951,260.96054 L160.96053,295.9105 L180.24048,294.87836"/>
<path d="M190.50877,295.31033 L165.27988,294.24893 L166.75105,259.27988 L174.32852,259.59866"/>
<path d="M200.70168,296.73276 L169.74928,292.4134 L174.58661,257.7493 L181.97585,258.78046"/>
<path d="M208.51254,298.3634 L208.45985,298.58417 L174.41583,290.45984 L182.54015,256.41583 L189.60631,258.1021"/>
<path d="M212.6978,298.94687 L212.44264,299.69818 L179.30183,288.44263 L190.55736,255.30183 L197.19844,257.5573"/>
<path d="M216.94324,299.37878 L216.40594,300.5908 L184.40923,286.40594 L198.59406,254.40923 L204.74156,257.13455"/>
<path d="M221.25797,299.68097 L220.38062,301.27304 L189.72696,284.3806 L206.61938,253.72696 L212.23192,256.8199"/>
<path d="M225.64322,299.8726 L224.38799,301.76123 L195.23877,282.38797 L214.61201,253.23877 L219.66972,256.60022"/>
<path d="M230.09541,299.9706 L228.44255,302.07318 L200.92682,280.44254 L222.55745,252.92682 L227.05824,256.46497"/>
<path d="M234.60951,299.98563 L232.55156,302.22638 L206.7736,278.55154 L230.44844,252.7736 L234.40068,256.4034"/>
<path d="M241.69624,256.4048 L238.27658,252.76344 L212.76344,276.72342 L236.72342,302.23654 L239.18634,299.92355"/>
<path d="M248.93796,256.4579 L246.02654,252.88057 L218.88057,274.97348 L240.97346,302.11945 L243.8363,299.7895"/>
<path d="M256.11176,256.55 L253.67401,253.10579 L225.10579,273.326 L245.32599,301.89423 L248.57986,299.59116"/>
<path d="M263.19693,256.66583 L261.1871,253.41356 L231.41356,271.8129 L249.81291,301.58646 L253.4455,299.34158"/>
<path d="M270.16736,256.7872 L268.52957,253.77058 L237.77058,270.47043 L254.47043,301.22943 L258.46576,299.06024"/>
<path d="M276.994,256.89352 L275.66528,254.13702 L244.13702,269.33472 L259.33472,300.86298 L263.67276,298.77188"/>
<path d="M283.64725,256.96335 L282.56204,254.47003 L250.47003,268.43796 L264.43796,300.52997 L269.09366,298.5036"/>
<path d="M290.10016,256.97754 L289.1945,254.72903 L256.72903,267.8055 L269.8055,300.27097 L274.74728,298.28052"/>
<path d="M296.33084,256.92245 L295.54523,254.88158 L262.88156,267.45477 L275.45477,300.11844 L280.6425,298.12152"/>
<path d="M302.32483,256.7929 L301.6051,254.90825 L268.90826,267.3949 L281.3949,300.09174 L286.77783,298.03604"/>
<path d="M308.07626,256.59332 L307.3724,254.8056 L274.8056,267.6276 L287.6276,300.1944 L293.1433,298.02277"/>
<path d="M313.58737,256.33655 L312.8516,254.58609 L280.5861,268.1484 L294.1484,300.4139 L299.72354,298.0705"/>
<path d="M318.86563,256.0399 L318.05075,254.27534 L286.27533,268.94925 L300.94925,300.72467 L306.50256,298.16013"/>
<path d="M323.91806,255.72293 L322.9764,253.90756 L291.90756,270.0236 L308.0236,301.09244 L313.46762,298.26852"/>
<path d="M328.7621,255.43205 L327.63013,253.52248 L297.5225,271.36987 L315.36987,301.4775 L320.586,298.38547"/>
<path d="M333.46423,255.22646 L332.06064,253.17511 L303.1751,272.93936 L322.93936,301.8249 L327.7916,298.50488"/>
<path d="M338.142,255.1452 L336.38403,252.91988 L308.9199,274.61597 L330.61597,302.0801 L334.99496,298.6208"/>
<path d="M342.9351,255.1946 L340.75714,252.78322 L314.7832,276.24286 L338.24286,302.2168 L342.09644,298.73624"/>
<path d="M370.24826,277.34818 L345.65182,302.24826 L320.75174,277.65182 L345.34818,252.75172 L370.24826,277.34818"/>
<path d="M36.13234,316.01892 L35.060455,313.93436 L3.934357,329.93954 L19.939547,361.06564 L25.098358,358.41296"/>
<path d="M41.43435,315.74582 L40.299984,313.70377 L9.703777,330.7 L26.700016,361.29623 L31.85129,358.4347"/>
<path d="M46.464264,315.45563 L45.207737,313.41843 L15.418435,331.79227 L33.792263,361.58157 L38.828896,358.475"/>
<path d="M51.23773,315.19296 L49.78921,313.1258 L21.125778,333.2108 L41.21079,361.8742 L46.001953,358.51697"/>
<path d="M55.802376,315.00668 L54.085396,312.8867 L26.886675,334.9146 L48.914604,362.1133 L53.324223,358.54202"/>
<path d="M60.235813,314.9373 L58.17454,312.76047 L32.760456,336.82547 L56.82546,362.23953 L60.73729,358.53537"/>
<path d="M68.17569,358.49008 L64.83447,362.21274 L38.787266,338.83447 L62.165524,312.78726 L64.63643,315.00497"/>
<path d="M75.571396,358.4094 L72.81691,362.02545 L44.97454,340.8169 L66.18309,312.97455 L69.1089,315.20325"/>
<path d="M82.85822,358.30673 L80.65145,361.70667 L51.293335,342.65146 L70.34855,313.29333 L73.74795,315.49976"/>
<path d="M89.97715,358.20285 L88.23855,361.3137 L57.686306,344.23856 L74.76145,313.6863 L78.62436,315.8452"/>
<path d="M96.882484,358.12064 L95.51256,360.91577 L64.08421,345.51254 L79.48744,314.08423 L83.7769,316.1865"/>
<path d="M103.54752,358.07828 L102.4456,360.57544 L70.42455,346.44562 L84.5544,314.42456 L89.21139,316.47952"/>
<path d="M109.96748,358.08472 L109.04404,360.33444 L76.665565,347.04404 L89.95596,314.66556 L94.90681,316.69772"/>
<path d="M116.15738,358.13992 L115.339386,360.20874 L82.79127,347.3394 L95.660614,314.79126 L100.82733,316.83417"/>
<path d="M122.14254,358.2424 L121.3746,360.19345 L88.80656,347.3746 L101.6254,314.80655 L106.93965,316.89825"/>
<path d="M127.941986,358.3952 L127.18353,360.27563 L94.72437,347.18353 L107.81647,314.72437 L113.22791,316.907"/>
<path d="M133.5617,358.58878 L132.77383,360.4455 L100.554504,346.77383 L114.22616,314.5545 L119.67822,316.86798"/>
<path d="M139.01569,358.80286 L138.15677,360.68533 L106.31465,346.15677 L120.84323,314.31467 L126.26644,316.7891"/>
<path d="M144.33427,359.0124 L143.36035,360.96732 L112.032684,345.36035 L127.63964,314.03268 L132.95717,316.6818"/>
<path d="M149.56348,359.1924 L148.43054,361.2585 L117.74147,344.43054 L134.56946,313.7415 L139.70619,316.55814"/>
<path d="M154.76117,359.3235 L153.42935,361.52795 L123.47204,343.42935 L141.57065,313.47205 L146.46379,316.42822"/>
<path d="M159.99078,359.3955 L158.43001,361.75275 L129.24727,342.43002 L148.56999,313.24725 L153.17839,316.2986"/>
<path d="M165.31364,359.4089 L163.50952,361.92178 L135.07822,341.50952 L155.49048,313.07822 L159.80038,316.17252"/>
<path d="M170.78142,359.37292 L168.73978,362.03577 L140.96423,340.73978 L162.26022,312.96423 L166.28613,316.05096"/>
<path d="M176.43005,359.30222 L174.17908,362.1033 L146.8967,340.17908 L168.82092,312.8967 L172.60213,315.93527"/>
<path d="M182.27606,359.2124 L179.86508,362.13547 L152.86453,339.86508 L175.13492,312.86453 L178.72914,315.8291"/>
<path d="M188.31561,359.11688 L185.81023,362.1407 L158.85933,339.81024 L181.18977,312.8593 L184.66585,315.73947"/>
<path d="M194.5261,359.0252 L192.00012,362.12213 L164.87787,340.00012 L186.99988,312.87787 L190.43059,315.6761"/>
<path d="M200.87004,358.943 L198.3951,362.07883 L170.92117,340.3951 L192.6049,312.92117 L196.0602,315.64825"/>
<path d="M207.30115,358.87256 L204.93593,362.00906 L176.99094,340.93594 L198.06407,312.99094 L201.60413,315.66046"/>
<path d="M213.7728,358.8125 L211.55446,361.91437 L183.08563,341.55444 L203.44554,313.08563 L207.11314,315.70856"/>
<path d="M220.24966,358.7551 L218.18965,361.80035 L189.19965,342.18967 L208.81035,313.19965 L212.62247,315.7784"/>
<path d="M226.71933,358.68738 L224.80939,361.67252 L195.32748,342.8094 L214.19061,313.32748 L218.13817,315.8532"/>
<path d="M233.19183,358.60098 L231.42082,361.53006 L201.46994,343.42084 L219.57918,313.46994 L223.64453,315.92798"/>
<path d="M239.68619,358.49115 L238.04907,361.3665 L207.6335,344.04907 L224.95093,313.6335 L229.11932,316.00684"/>
<path d="M246.22006,358.35587 L244.72029,361.1721 L213.82791,344.72028 L230.27971,313.8279 L234.54443,316.09912"/>
<path d="M252.80365,358.19534 L251.45117,360.9367 L220.06331,345.45117 L235.54883,314.0633 L239.9123,316.21606"/>
<path d="M259.4364,358.01205 L258.24344,360.6528 L226.3472,346.24344 L240.75658,314.3472 L245.22902,316.36765"/>
<path d="M266.10645,357.81113 L265.08215,360.31845 L232.68153,347.08215 L245.91783,314.68155 L250.51471,316.55945"/>
<path d="M272.79178,357.60098 L271.93796,359.9399 L239.0601,347.93796 L251.06204,315.0601 L255.80122,316.79013"/>
<path d="M279.4625,357.3938 L278.77115,359.53317 L245.46683,348.77115 L256.22885,315.46683 L261.128,317.04993"/>
<path d="M286.0841,357.20535 L285.53775,359.1239 L251.8761,349.53775 L261.46225,315.8761 L266.53656,317.32117"/>
<path d="M292.62088,357.05392 L292.19495,358.74472 L258.25528,350.19495 L266.80505,316.25528 L272.06525,317.58038"/>
<path d="M299.03925,356.95792 L298.7059,358.43094 L264.56906,350.7059 L272.2941,316.56906 L277.74457,317.8025"/>
<path d="M305.31088,356.9327 L305.04245,358.21478 L270.78522,351.04245 L277.95755,316.78522 L283.59457,317.96542"/>
<path d="M311.41486,356.9879 L311.18597,358.12024 L276.87976,351.18597 L283.81403,316.87976 L289.62445,318.0542"/>
<path d="M317.33862,357.12573 L317.1266,358.15955 L282.84045,351.1266 L289.8734,316.84045 L295.83423,318.06317"/>
<path d="M323.07724,357.34198 L322.8608,358.3324 L288.6676,350.8608 L296.1392,316.6676 L302.21893,317.9961"/>
<path d="M328.62994,357.6277 L328.38748,358.62848 L294.37152,350.38748 L302.61252,316.37152 L308.77228,317.86383"/>
<path d="M334.00217,357.95206 L333.704,359.0305 L299.9695,349.704 L309.296,315.9695 L315.46628,317.67538"/>
<path d="M339.23242,358.2668 L338.83856,359.49857 L305.50143,348.83856 L316.16144,315.50143 L322.24414,317.44647"/>
<path d="M344.3971,358.52618 L343.86282,359.9747 L311.0253,347.86282 L323.13718,315.0253 L329.03204,317.1996"/>
<path d="M349.59134,358.69916 L348.87723,360.40344 L316.59656,346.87723 L330.12277,314.59656 L335.7509,316.95483"/>
<path d="M368.74542,329.00583 L353.99417,360.74542 L322.25458,345.99417 L337.00583,314.25458 L368.74542,329.00583"/>
<path d="M30.37197,375.4761 L27.689177,372.75198 L2.7519858,397.31082 L27.310823,422.24802 L30.623274,418.9858"/>
<path d="M37.193768,418.93384 L34.020775,422.24326 L8.7567425,398.02078 L32.979225,372.75674 L35.774796,375.43707"/>
<path d="M43.86499,418.84915 L40.8509,422.21185 L14.788159,398.8509 L38.1491,372.78815 L41.060493,375.39774"/>
<path d="M50.6609,418.7291 L47.84503,422.1374 L20.862614,399.84503 L43.15497,372.8626 L46.197685,375.37643"/>
<path d="M57.59137,418.56906 L55.026955,421.99612 L27.003866,401.02695 L47.973045,373.00388 L51.17189,375.3975"/>
<path d="M64.651566,418.3627 L62.39527,421.75977 L33.240234,402.39526 L52.60473,373.24023 L55.988823,375.4879"/>
<path d="M71.823235,418.10324 L69.92248,421.40088 L39.599125,403.9225 L57.07752,373.59912 L60.674828,375.6726"/>
<path d="M79.07708,417.7856 L77.55816,420.90012 L46.09987,405.55817 L61.44184,374.09988 L65.27434,375.96896"/>
<path d="M86.37553,417.4091 L85.23596,420.25327 L52.746735,407.23596 L65.76404,374.74673 L69.84453,376.38165"/>
<path d="M93.67582,416.97955 L92.88332,419.47543 L59.524563,408.88333 L70.11668,375.52457 L74.44777,376.89978"/>
<path d="M100.9337,416.51105 L100.43195,418.6013 L66.398705,410.43195 L74.56805,376.3987 L79.14324,377.49695"/>
<path d="M80.2345,412.9997 L73.319664,411.8267 L79.17331,377.31967 L85.54309,378.4002"/>
<path d="M80.74285,413.08594 L107.82669,417.68033 L108.10746,416.0252"/>
<path d="M87.09322,413.76804 L80.23114,413.03098 L83.96903,378.23114 L94.80561,379.3951"/>
<path d="M91.98823,414.29382 L93.82289,414.49088"/>
<path d="M97.19027,414.85257 L100.41647,415.1991"/>
<path d="M102.03693,415.37317 L115.03097,416.76886 L115.115814,415.97894"/>
<path d="M93.8239,414.39325 L87.07915,414.02792 L88.97208,379.07913 L104.6437,379.92798"/>
<path d="M118.731316,415.7423 L119.34426,415.7755"/>
<path d="M100.40902,414.88596 L93.8195,414.81763 L94.18238,379.8195 L115.56228,380.04117"/>
<path d="M128.61838,379.7303 L99.58838,380.42154 L100.42154,415.41162 L106.843254,415.2587"/>
<path d="M140.13365,379.26654 L140.12897,379.17032 L105.17031,380.87103 L106.87103,415.82968 L113.142334,415.5246"/>
<path d="M145.83702,379.15994 L145.81964,378.89438 L110.89437,381.18036 L113.18037,416.10562 L119.33869,415.70255"/>
<path d="M151.64536,379.08844 L151.61713,378.71866 L116.71867,381.38287 L119.38287,416.28134 L125.47364,415.81635"/>
<path d="M157.513,379.02432 L157.47742,378.59967 L122.59968,381.52258 L125.52258,416.40033 L131.59001,415.89185"/>
<path d="M163.3953,378.94556 L163.35475,378.49667 L128.49666,381.64526 L131.64525,416.50333 L137.72594,415.9541"/>
<path d="M169.25356,378.8369 L169.2083,378.37543 L134.37543,381.7917 L137.7917,416.62457 L143.91023,416.0245"/>
<path d="M175.0589,378.69144 L175.00676,378.21164 L140.21164,381.99326 L143.99324,416.78836 L150.15947,416.1182"/>
<path d="M180.7949,378.51114 L180.73117,377.9933 L145.9933,382.26883 L150.26883,417.0067 L156.47679,416.24265"/>
<path d="M186.45949,378.30685 L186.37672,377.72165 L151.72165,382.6233 L156.62328,417.27835 L162.85179,416.3974"/>
<path d="M192.06561,378.0964 L191.9537,377.41043 L157.41045,383.0463 L163.0463,417.58957 L169.26172,416.5755"/>
<path d="M197.6406,377.90176 L197.48763,377.0832 L163.08319,383.51236 L169.51237,417.9168 L175.67337,416.7655"/>
<path d="M203.2236,377.74527 L203.01807,376.76932 L168.7693,383.98193 L175.98193,418.23068 L182.0459,416.95364"/>
<path d="M208.8613,377.64603 L208.59557,376.49985 L174.49985,384.40445 L182.40443,418.50015 L188.3346,417.12534"/>
<path d="M214.60168,377.6176 L214.27611,376.304 L180.30399,384.72388 L188.72389,418.696 L194.49562,417.2655"/>
<path d="M220.48703,377.66675 L220.11325,376.20667 L186.20667,384.88675 L194.88675,418.79333 L200.49225,417.35834"/>
<path d="M226.5462,377.79294 L226.14816,376.2274 L192.22739,384.85184 L200.85184,418.7726 L206.30283,417.3867"/>
<path d="M232.7886,377.99158 L232.39867,376.37836 L198.37834,384.60132 L206.60133,418.62164 L211.92538,417.33478"/>
<path d="M239.20427,378.25784 L238.85564,376.66428 L204.66429,384.14435 L212.14436,418.33572 L217.37607,417.19116"/>
<path d="M245.76881,378.5843 L245.48848,377.08377 L211.08377,383.51154 L217.51152,417.91623 L222.68983,416.9488"/>
<path d="M252.44463,378.959 L252.247,377.62473 L217.62473,382.75302 L222.753,417.37527 L227.91931,416.61005"/>
<path d="M230.953,381.22678 L224.26024,381.93298 L227.933,416.73975 L236.328,415.85394"/>
<path d="M233.40288,380.9683 L237.6274,380.52252"/>
<path d="M239.28246,380.34787 L244.22589,379.82626"/>
<path d="M244.64732,379.78177 L259.06702,378.26025 L259.1679,379.2165"/>
<path d="M237.63135,380.70502 L230.94643,381.12122 L233.12122,416.0536 L247.02252,415.1881"/>
<path d="M256.17178,379.55075 L256.9285,379.50363"/>
<path d="M260.4501,379.2844 L262.9818,379.12677"/>
<path d="M263.48947,379.09518 L265.87878,378.9464 L265.89627,379.22723"/>
<path d="M244.22055,380.2407 L237.62437,380.38385 L238.38387,415.3756 L257.81,414.95398"/>
<path d="M270.05954,415.11154 L243.77637,414.77347 L244.22653,379.77637 L250.66641,379.8592"/>
<path d="M284.316,415.5973 L284.31357,415.6605 L249.3395,414.31357 L250.68643,379.3395 L256.92447,379.57974"/>
<path d="M286.858,415.73193 L255.09904,414.05005 L256.94995,379.09903 L262.96585,379.41763"/>
<path d="M287.74884,415.77908 L290.05005,415.90097 L290.0624,415.66763"/>
<path d="M280.17325,415.06326 L261.0675,414.01492 L262.98508,379.0675 L268.78214,379.3856"/>
<path d="M281.86118,415.15588 L286.84344,415.42926"/>
<path d="M290.6617,415.63876 L293.57642,415.7987"/>
<path d="M273.6254,414.49316 L267.24573,414.2117 L268.7883,379.24573 L280.21536,379.74985"/>
<path d="M279.06253,414.73303 L280.17044,414.7819"/>
<path d="M280.1702,414.75717 L273.62274,414.61444 L274.38556,379.62274 L293.4795,380.039"/>
<path d="M304.5465,379.9293 L279.8274,380.17432 L280.17432,415.1726 L286.82788,415.10666"/>
<path d="M315.202,379.416 L285.1782,380.86234 L286.86234,415.8218 L293.5495,415.49966"/>
<path d="M325.3634,378.53268 L325.3606,378.50153 L290.50153,381.6394 L293.6394,416.49847 L300.29486,415.89938"/>
<path d="M330.57513,378.12396 L330.53784,377.84387 L295.84387,382.46216 L300.46216,417.15613 L307.04898,416.27933"/>
<path d="M335.77634,377.73282 L335.68573,377.22034 L301.22034,383.31427 L307.31427,417.77966 L313.8253,416.62845"/>
<path d="M340.94577,377.3417 L340.78516,376.6193 L306.6193,384.21484 L314.21484,418.3807 L320.65112,416.94983"/>
<path d="M346.0471,376.93967 L345.79797,376.02304 L312.02304,385.20203 L321.20203,418.97696 L327.55548,417.25027"/>
<path d="M351.04398,376.52722 L350.68164,375.42126 L317.42126,386.31836 L328.31836,419.57874 L334.56015,417.53375"/>
<path d="M368.1819,407.40112 L355.40112,374.8181 L322.8181,387.59888 L335.59888,420.1819 L368.1819,407.40112"/>
<path d="M38.11065,479.24332 L37.83515,479.98743 L5.0125666,467.83514 L17.16485,435.01257 L23.81971,437.47647"/>
<path d="M42.088276,479.75354 L41.520473,480.9131 L10.086926,465.52048 L25.479527,434.0869 L31.61703,437.09238"/>
<path d="M46.028725,480.07468 L45.066387,481.61462 L15.385371,463.06638 L33.933613,433.38538 L39.41546,436.8111"/>
<path d="M50.024002,480.19684 L48.57869,482.0565 L20.9435,460.5787 L42.42131,432.9435 L47.159695,436.62613"/>
<path d="M54.17253,480.13626 L52.182358,482.23932 L26.760672,458.18237 L50.817642,432.76068 L54.79146,436.52115"/>
<path d="M62.25116,436.47104 L58.996407,432.79654 L32.796543,456.0036 L56.003593,482.20346 L58.566124,479.93365"/>
<path d="M69.48074,436.44427 L66.84782,432.97873 L38.97874,454.1522 L60.152184,482.02127 L63.278133,479.64633"/>
<path d="M76.428566,436.40784 L74.291084,433.21945 L45.219444,452.70892 L64.708916,481.78055 L68.35506,479.3362"/>
<path d="M83.0558,436.3344 L81.279816,433.43564 L51.435635,451.72018 L69.720184,481.56436 L73.81287,479.05692"/>
<path d="M89.34283,436.21008 L87.80145,433.56693 L57.566933,451.19855 L75.19855,481.43307 L79.638,478.84415"/>
<path d="M95.29425,436.03885 L93.87382,433.5861 L63.586105,451.1262 L81.12618,481.4139 L85.79191,478.7119"/>
<path d="M100.941025,435.84134 L99.54134,433.49997 L69.499954,451.45865 L87.45866,481.50003 L92.21793,478.65497"/>
<path d="M106.33761,435.64648 L104.87079,433.34106 L75.34106,452.1292 L94.12921,481.65894 L98.85008,478.6553"/>
<path d="M111.55172,435.47937 L109.94386,433.1535 L81.153496,453.05615 L101.05614,481.8465 L105.623924,478.6888"/>
<path d="M116.64507,435.34946 L114.8426,432.97803 L86.97803,454.1574 L108.1574,482.02197 L112.49049,478.72845"/>
<path d="M121.648254,435.24786 L119.62464,432.84262 L92.84263,455.37537 L115.37536,482.15738 L119.430374,478.74573"/>
<path d="M126.553894,435.17087 L124.29749,432.76413 L98.764114,456.7025 L122.70251,482.23587 L126.45014,478.72235"/>
<path d="M133.56595,478.64783 L130.16075,482.23993 L104.760086,458.16077 L128.83925,432.76007 L131.3381,435.12894"/>
<path d="M140.79027,478.51346 L137.77264,482.14417 L110.85583,459.77264 L133.22736,432.85583 L135.98112,435.1446"/>
<path d="M148.12482,478.31042 L145.54375,481.91614 L117.083855,461.54376 L137.45625,433.08386 L140.48,435.24835"/>
<path d="M155.55774,478.0302 L153.45268,481.5222 L123.47781,463.4527 L141.54732,433.4778 L144.85541,435.47202"/>
<path d="M163.06317,477.6665 L161.44908,480.9374 L130.06259,465.4491 L145.55092,434.0626 L149.15292,435.8401"/>
<path d="M170.60272,477.2189 L169.4591,480.1565 L136.84352,467.4591 L149.5409,434.8435 L153.4387,436.36096"/>
<path d="M178.12817,476.6964 L177.39716,479.20157 L143.79843,469.39716 L153.60284,435.79843 L157.79027,437.02036"/>
<path d="M158.01701,472.6259 L150.87616,471.18054 L157.81946,436.87616 L165.11314,438.35242"/>
<path d="M159.5059,472.92722 L185.18054,478.12384 L185.5431,476.33258"/>
<path d="M165.1164,473.61426 L158.00266,472.74313 L162.25685,438.00266 L174.40785,439.49063"/>
<path d="M171.34586,474.3771 L172.06659,474.46536"/>
<path d="M176.84023,475.04993 L178.8414,475.29498"/>
<path d="M181.95679,475.67648 L185.43237,476.10208"/>
<path d="M186.61449,476.24686 L192.74315,476.99734 L192.79887,476.5422"/>
<path d="M172.0664,474.4155 L165.0935,474.0439 L166.9561,439.0935 L184.344,440.02014"/>
<path d="M195.57236,439.97598 L171.9313,440.06897 L172.06897,475.0687 L178.82915,475.0421"/>
<path d="M209.58371,439.29733 L177.17386,440.86713 L178.86713,475.82614 L185.38503,475.51044"/>
<path d="M217.56914,438.91672 L217.54861,438.6601 L182.6601,441.4514 L185.45139,476.3399 L191.73111,475.8375"/>
<path d="M223.23932,438.86414 L223.18936,438.3599 L188.3599,441.81064 L191.81064,476.6401 L197.875,476.03928"/>
<path d="M229.12054,438.9189 L229.04886,438.24557 L194.24557,441.95114 L197.95114,476.75443 L203.8227,476.12927"/>
<path d="M234.12468,438.40454 L200.30234,441.8811 L203.88112,476.69766 L209.55986,476.11395"/>
<path d="M219.73999,440.43665 L206.54303,441.58984 L209.58984,476.45697 L215.05347,475.97955"/>
<path d="M222.09384,440.23096 L226.75633,439.82352"/>
<path d="M231.12283,439.44196 L234.0326,439.1877"/>
<path d="M239.53065,438.70728 L241.41016,438.54303 L241.44417,438.93225"/>
<path d="M219.74335,440.65927 L213.00568,441.05432 L215.05434,475.99432 L230.05971,475.1145"/>
<path d="M226.7416,440.16068 L219.73741,440.2666 L220.26659,475.26257 L241.70825,474.93835"/>
<path d="M251.64748,475.37305 L225.25209,474.2187 L226.78133,439.2521 L233.98796,439.56726"/>
<path d="M260.7489,476.44318 L230.07617,472.83673 L234.16328,438.07617 L241.4479,438.93268"/>
<path d="M269.12833,478.13083 L269.12177,478.16272 L234.8373,471.12177 L241.87823,436.83728 L249.06528,438.3133"/>
<path d="M273.26962,478.86267 L273.12036,479.351 L239.64899,469.12036 L249.87962,435.649 L256.76917,437.7548"/>
<path d="M277.32855,479.41058 L276.92258,480.38483 L244.61519,466.92258 L258.07742,434.61517 L264.4833,437.28445"/>
<path d="M281.4245,479.75226 L280.65198,481.1928 L249.80719,464.65198 L266.34802,433.8072 L272.1347,436.91037"/>
<path d="M285.66687,479.90207 L284.4452,481.74963 L255.25037,462.4452 L274.5548,433.25037 L279.65958,436.6258"/>
<path d="M290.13846,479.90128 L288.4275,482.07498 L260.92502,460.4275 L282.5725,432.92502 L287.00693,436.4154"/>
<path d="M294.88644,479.80338 L292.69217,482.22 L266.78,458.69217 L290.30783,432.78 L294.14145,436.26086"/>
<path d="M301.046,436.14505 L297.71027,432.75217 L272.75217,457.28973 L297.28973,482.24783 L299.92218,479.65976"/>
<path d="M307.72165,436.05392 L304.77173,432.78397 L278.78397,456.22827 L302.22827,482.21603 L305.22882,479.50916"/>
<path d="M314.182,435.9748 L311.51517,432.83344 L284.83344,455.48483 L307.48483,482.16656 L310.77618,479.37238"/>
<path d="M320.4392,435.89114 L317.97394,432.8752 L290.8752,455.02606 L313.02606,482.1248 L316.5411,479.25153"/>
<path d="M326.48975,435.78683 L324.1626,432.8949 L296.8949,454.8374 L318.8374,482.1051 L322.52032,479.14142"/>
<path d="M332.3155,435.6562 L330.06772,432.88483 L302.88483,454.93228 L324.93228,482.11517 L328.72302,479.0406"/>
<path d="M337.89554,435.50446 L335.6669,432.8463 L308.8463,455.3331 L331.3331,482.1537 L335.15744,478.94733"/>
<path d="M343.2157,435.34805 L340.94296,432.79337 L314.79337,456.05704 L338.05704,482.20663 L341.8233,478.85602"/>
<path d="M370.2456,457.8931 L345.8931,432.7544 L320.7544,457.1069 L345.1069,482.2456 L370.2456,457.8931"/>
<path d="M38.947292,537.592 L38.150948,539.8396 L5.1604095,528.15094 L16.849052,495.1604 L21.689638,496.87546"/>
<path d="M45.594208,537.23096 L44.880856,539.47675 L11.523282,528.88086 L22.119144,495.5233 L26.840427,497.02298"/>
<path d="M52.48513,536.7537 L51.91075,538.912 L18.08801,529.91077 L27.089249,496.088 L31.706345,497.31677"/>
<path d="M31.980207,532.6328 L24.894995,531.2089 L31.791107,496.895 L38.53314,498.24994"/>
<path d="M32.914604,532.8206 L39.324192,534.10876"/>
<path d="M40.446198,534.3342 L46.881325,535.6275"/>
<path d="M47.76672,535.8055 L54.60374,537.1795"/>
<path d="M54.884422,537.2359 L59.208893,538.105 L59.51488,536.58246"/>
<path d="M39.34362,533.6213 L31.971449,532.7031 L36.296852,497.97144 L50.10865,499.69153"/>
<path d="M54.27767,535.48114 L54.365612,535.49207"/>
<path d="M61.20552,536.3439 L61.90568,536.4311"/>
<path d="M46.829575,534.5886 L39.317,534.28925 L40.710762,499.317 L60.74621,500.11548"/>
<path d="M71.11222,499.5991 L45.15099,500.89236 L46.892357,535.849 L54.363464,535.47687"/>
<path d="M81.77178,498.09485 L49.726357,502.61703 L54.617023,537.2736 L61.864147,536.251"/>
<path d="M88.70704,496.8892 L88.62092,496.5157 L54.515686,504.3791 L62.37908,538.4843 L69.25493,536.899"/>
<path d="M93.239,496.4915 L92.94505,495.55664 L59.55665,506.05493 L70.05495,539.44336 L76.47206,537.4256"/>
<path d="M98.020805,496.27032 L97.46736,494.84714 L64.847145,507.53265 L77.53264,540.15283 L83.47018,537.8438"/>
<path d="M103.08936,496.17828 L102.26891,494.35684 L70.356834,508.73108 L84.73109,540.6432 L90.225105,538.16846"/>
<path d="M108.446625,496.1705 L107.38988,494.0426 L76.042595,509.61014 L91.61012,540.9574 L96.7341,538.4128"/>
<path d="M114.06922,496.2137 L112.83084,493.8619 L81.86192,510.16916 L98.16916,541.13806 L103.01139,538.5883"/>
<path d="M119.92401,496.29227 L118.565704,493.7813 L87.78132,510.4343 L104.434296,541.2187 L109.07599,538.70776"/>
<path d="M125.984764,496.40457 L124.565704,493.7813 L93.78132,510.4343 L110.434296,541.2187 L114.93955,538.78156"/>
<path d="M132.22832,496.53674 L130.81496,493.857 L99.857,510.18506 L116.18504,541.143 L120.6271,538.8002"/>
<path d="M138.61148,496.674 L137.26678,494.00156 L106.00155,509.73322 L121.733215,540.9985 L126.1893,538.7563"/>
<path d="M145.07526,496.80356 L143.84525,494.2007 L112.200714,509.15475 L127.15475,540.7993 L131.6943,538.65405"/>
<path d="M151.5551,496.91226 L150.46239,494.43106 L118.43107,508.53763 L132.53761,540.5689 L137.21516,538.509"/>
<path d="M157.98837,496.98618 L157.03247,494.66074 L124.660736,507.96753 L137.96753,540.3393 L142.81848,538.3452"/>
<path d="M164.32025,497.01227 L163.48254,494.85382 L130.85384,507.51746 L143.51746,540.1462 L148.5559,538.1907"/>
<path d="M170.50865,496.98187 L169.75888,494.97766 L136.97768,507.24112 L149.24112,540.02234 L154.45876,538.07043"/>
<path d="M176.52827,496.89456 L175.83015,495.01028 L143.01027,507.16983 L155.16985,539.98975 L160.53625,538.0015"/>
<path d="M182.37386,496.7605 L181.68848,494.94574 L148.94574,507.31152 L161.31152,540.05426 L166.7762,537.9904"/>
<path d="M188.06203,496.59985 L187.34961,494.79572 L154.7957,507.6504 L167.65039,540.2043 L173.14728,538.03375"/>
<path d="M193.63124,496.43927 L192.85252,494.58646 L160.58646,508.1475 L174.14748,540.4135 L179.60266,538.1208"/>
<path d="M199.13889,496.30612 L198.25784,494.35263 L166.35265,508.74216 L180.74216,540.64734 L186.08434,538.238"/>
<path d="M204.65483,496.22217 L203.6437,494.12952 L172.1295,509.3563 L187.3563,540.8705 L192.5283,538.3715"/>
<path d="M210.25185,496.19925 L209.09795,493.9464 L177.94643,509.90204 L193.90205,541.0536 L198.87094,538.50854"/>
<path d="M215.99365,496.23758 L214.70628,493.82364 L183.82365,510.29373 L200.29372,541.17633 L205.05724,538.6359"/>
<path d="M221.92241,496.32657 L220.53691,493.77277 L189.77277,510.4631 L206.46309,541.22723 L211.05191,538.7377"/>
<path d="M228.05186,496.45523 L226.62292,493.79843 L195.79845,510.37708 L212.37708,541.20154 L216.84277,538.79974"/>
<path d="M234.37604,496.62158 L232.96454,493.9038 L201.9038,510.03546 L218.03546,541.0962 L222.43127,538.81323"/>
<path d="M240.88019,496.82474 L239.54817,494.09644 L208.09644,509.45184 L223.45183,540.90356 L227.831,538.76556"/>
<path d="M247.5394,497.0638 L246.34312,494.3851 L214.38509,508.65686 L228.65688,540.6149 L233.07086,538.64374"/>
<path d="M254.3187,497.33664 L253.30057,494.77448 L220.77449,507.69943 L233.69943,540.2255 L238.1954,538.43896"/>
<path d="M261.17487,497.6377 L260.3571,495.25986 L227.25986,506.6429 L238.64293,539.7401 L243.26137,538.15173"/>
<path d="M268.05957,497.9565 L267.4417,495.82294 L233.82294,505.5583 L243.55827,539.17706 L248.33144,537.79486"/>
<path d="M274.923,498.27692 L274.48483,496.4312 L240.43121,504.51517 L248.51515,538.5688 L253.46613,537.3935"/>
<path d="M281.7185,498.5784 L281.42654,497.04147 L247.04146,503.57346 L253.57347,537.95856 L258.7156,536.9817"/>
<path d="M288.40704,498.8395 L288.22296,497.6069 L253.60692,502.77704 L258.77704,537.39307 L264.1133,536.59607"/>
<path d="M294.9614,499.0429 L294.84955,498.0863 L260.0863,502.15045 L264.15045,536.9137 L269.6725,536.2681"/>
<path d="M301.36932,499.1805 L301.30148,498.45233 L266.45233,501.69852 L269.69852,536.54767 L275.38593,536.0179"/>
<path d="M307.63538,499.25632 L307.59195,498.69708 L272.69708,501.40805 L275.40805,536.3029 L281.2287,535.8507"/>
<path d="M313.78073,499.28577 L313.7494,498.83298 L278.83298,501.2506 L281.2506,536.167 L287.1634,535.7576"/>
<path d="M319.83978,499.2906 L319.81335,498.88885 L284.88885,501.18665 L287.18665,536.11115 L293.1479,535.71893"/>
<path d="M325.8527,499.28992 L325.8274,498.90118 L290.90118,501.1726 L293.1726,536.0988 L299.1471,535.71027"/>
<path d="M331.85284,499.2887 L331.82767,498.90143 L296.90143,501.17233 L299.17233,536.0986 L305.14886,535.70996"/>
<path d="M337.85,499.27274 L337.8257,498.8997 L302.8997,501.1743 L305.1743,536.1003 L311.1728,535.70966"/>
<path d="M343.82242,499.21854 L343.7997,498.8769 L308.8769,501.2003 L311.2003,536.1231 L317.25623,535.7202"/>
<path d="M349.7311,499.1025 L349.7094,498.79825 L314.79825,501.2906 L317.2906,536.2017 L323.43854,535.7628"/>
<path d="M355.5345,498.908 L355.51157,498.6286 L320.6286,501.48843 L323.48843,536.3714 L329.75034,535.85803"/>
<path d="M326.34384,501.83023 L361.16977,498.34384 L364.65616,533.16974 L329.83023,536.6561 L326.34384,501.83023"/>
</g>
</svg>