<svg height="576px" viewBox="0 0 384 576" width="384px" xmlns="http://www.w3.org/2000/svg" xmlns:inkscape="http://www.inkscape.org/namespaces/inkscape">
<g fill="none" id="layer1" inkscape:groupmode="layer" inkscape:label="1" stroke="black" stroke-width="0.2mm">
<path d="M378.48492,337.62384 L368.62384,283.51508 L314.51508,293.37616 L315.05002,296.31146"/>
<path d="M377.80927,337.74698 L378.48492,337.62384"/>
<path d="M378.369,340.8848 L368.7105,286.73947 L314.56522,296.39795 L315.08652,299.3204"/>
<path d="M377.63663,341.0154 L378.369,340.8848"/>
<path d="M378.18304,344.1494 L368.7365,289.96674 L314.55383,299.41327 L315.0607,302.32053"/>
<path d="M377.39316,344.28714 L378.18304,344.1494"/>
<path d="M377.9257,347.41824 L368.70367,293.1969 L314.48233,302.4189 L314.97385,305.30878"/>
<path d="M377.07764,347.5625 L377.9257,347.41824"/>
<path d="M377.59558,350.69168 L368.61395,296.43002 L314.35226,305.41165 L314.8274,308.28204"/>
<path d="M376.68893,350.84177 L377.59558,350.69168"/>
<path d="M377.1914,353.97012 L368.46915,299.66614 L314.16516,308.3884 L314.62277,311.23737"/>
<path d="M376.22586,354.1252 L377.1914,353.97012"/>
<path d="M376.7118,357.25388 L368.2711,302.90543 L313.92264,311.3461 L314.36148,314.17184"/>
<path d="M375.68732,357.41296 L376.7118,357.25388"/>
<path d="M376.1554,360.54315 L368.02155,306.14792 L313.6263,314.28177 L314.04514,317.08267"/>
<path d="M375.07217,360.7051 L376.1554,360.54315"/>
<path d="M375.52094,363.83807 L367.72214,309.3938 L313.2779,317.19257 L313.67532,319.96713"/>
<path d="M374.37924,364.0016 L375.52094,363.83807"/>
<path d="M374.8071,367.13864 L367.37454,312.6432 L312.87906,320.07574 L313.25372,322.8227"/>
<path d="M373.60748,367.30228 L374.8071,367.13864"/>
<path d="M374.01263,370.44482 L366.98022,315.89627 L312.43164,322.92868 L312.78207,325.6469"/>
<path d="M372.7558,370.60684 L374.01263,370.44482"/>
<path d="M373.13623,373.75632 L366.54053,319.15323 L311.93744,325.74893 L312.2622,328.43747"/>
<path d="M371.8231,373.91495 L373.13623,373.75632"/>
<path d="M372.17664,377.07275 L366.05676,322.4143 L311.39832,328.5342 L311.69592,331.19226"/>
<path d="M370.8083,377.22598 L372.17664,377.07275"/>
<path d="M371.13266,380.39362 L365.53003,325.67972 L310.81613,331.28235 L311.0851,333.9093"/>
<path d="M369.7104,380.53925 L371.13266,380.39362"/>
<path d="M370.00302,383.7181 L364.96127,328.94968 L310.19284,333.99142 L310.43176,336.5868"/>
<path d="M368.52832,383.85385 L370.00302,383.7181"/>
<path d="M368.78653,387.04538 L364.35132,332.2245 L309.53043,336.65973 L309.73782,339.2232"/>
<path d="M367.2611,387.1688 L368.78653,387.04538"/>
<path d="M367.48203,390.3743 L363.70074,335.50443 L308.8309,339.2857 L309.00534,341.8171"/>
<path d="M365.9078,390.4828 L367.48203,390.3743"/>
<path d="M366.08835,393.70355 L363.01004,338.78976 L308.09625,341.86807 L308.23636,344.36734"/>
<path d="M364.4674,393.79443 L366.08835,393.70355"/>
<path d="M364.60437,397.03162 L362.27942,342.08078 L307.32858,344.40573 L307.43295,346.87292"/>
<path d="M362.93903,397.10208 L364.60437,397.03162"/>
<path d="M363.02902,400.35678 L361.5089,345.37778 L306.5299,346.8979 L306.59726,349.3332"/>
<path d="M361.32184,400.404 L363.02902,400.35678"/>
<path d="M361.3613,403.67703 L360.69833,348.68103 L305.70233,349.34396 L305.73132,351.7476"/>
<path d="M359.61502,403.69806 L361.3613,403.67703"/>
<path d="M304.83722,354.1159 L304.84787,351.74362 L359.84732,351.99072"/>
<path d="M357.81784,406.98215 L359.60025,406.99017 L359.84732,351.99072"/>
<path d="M303.91702,356.4381 L303.96857,354.0968 L358.95526,355.30707"/>
<path d="M355.92966,410.2538 L357.74496,410.29376 L358.95526,355.30707"/>
<path d="M302.97275,358.71442 L303.06638,356.40366 L358.0213,358.63025"/>
<path d="M353.94992,413.5104 L355.79468,413.58517 L358.0213,358.63025"/>
<path d="M302.00635,360.9453 L302.14325,358.66464 L357.0444,361.9603"/>
<path d="M351.87814,416.74918 L353.74875,416.86148 L357.0444,361.9603"/>
<path d="M301.01965,363.13147 L301.20102,360.88043 L356.02338,365.29718"/>
<path d="M349.71405,419.9671 L351.60663,420.11957 L356.02338,365.29718"/>
<path d="M300.01447,365.2738 L300.2414,363.05197 L354.95673,368.6408"/>
<path d="M347.4574,423.16098 L349.36786,423.35614 L354.95673,368.6408"/>
<path d="M298.99243,367.37344 L299.26608,365.18042 L353.8428,371.9909"/>
<path d="M345.1082,426.3275 L347.0323,426.56763 L353.8428,371.9909"/>
<path d="M297.95505,369.43173 L298.27655,367.26712 L352.6798,375.3471"/>
<path d="M342.66653,429.46323 L344.59982,429.75034 L352.6798,375.3471"/>
<path d="M296.90372,371.45016 L297.2741,369.31366 L351.46576,378.70877"/>
<path d="M340.13278,432.56442 L342.07065,432.9004 L351.46576,378.70877"/>
<path d="M295.8396,373.43048 L296.25998,371.32184 L350.19852,382.07523"/>
<path d="M337.50745,435.62744 L339.44513,436.01373 L350.19852,382.07523"/>
<path d="M294.76364,375.37445 L295.23508,373.29352 L348.87582,385.44547"/>
<path d="M334.7913,438.64838 L336.7239,439.0862 L348.87582,385.44547"/>
<path d="M293.6767,377.2841 L294.20016,375.2308 L347.4954,388.81833"/>
<path d="M331.98526,441.62338 L333.90787,442.11353 L347.4954,388.81833"/>
<path d="M292.57925,379.16144 L293.1558,377.13583 L346.05475,392.1924"/>
<path d="M329.0906,444.5484 L330.99817,445.09137 L346.05475,392.1924"/>
<path d="M291.47165,381.0086 L292.1022,379.01086 L344.55148,395.56604"/>
<path d="M326.10876,447.41953 L327.9963,448.01532 L344.55148,395.56604"/>
<path d="M290.35394,382.8278 L291.03946,380.8582 L342.98312,398.93732"/>
<path d="M323.04147,450.23276 L324.904,450.88098 L342.98312,398.93732"/>
<path d="M289.22592,384.62115 L289.9673,382.6801 L341.34726,402.30405"/>
<path d="M319.89075,452.9841 L321.7233,453.68402 L341.34726,402.30405"/>
<path d="M288.0872,386.39084 L288.8852,384.4789 L339.64148,405.6638"/>
<path d="M316.65884,455.6697 L318.45663,456.42007 L339.64148,405.6638"/>
<path d="M286.93695,388.13898 L287.79236,386.25687 L337.86356,409.01376"/>
<path d="M313.34827,458.2858 L315.10663,459.08496 L337.86356,409.01376"/>
<path d="M285.7743,389.86758 L286.68777,388.01605 L336.0113,412.351"/>
<path d="M309.96185,460.82864 L311.67636,461.67453 L336.0113,412.351"/>
<path d="M284.59796,391.57852 L285.57013,389.7585 L334.0828,415.67227"/>
<path d="M306.50266,463.2948 L308.16907,464.18494 L334.0828,415.67227"/>
<path d="M283.40646,393.27353 L284.43784,391.4861 L332.07623,418.974"/>
<path d="M302.97394,465.68088 L304.58835,466.6124 L332.07623,418.974"/>
<path d="M282.19815,394.95416 L283.2891,393.2005 L329.99008,422.25247"/>
<path d="M299.3793,467.98376 L300.9381,468.95346 L329.99008,422.25247"/>
<path d="M280.9711,396.62177 L282.1219,394.9031 L327.8231,425.50372"/>
<path d="M295.72247,470.2006 L297.22244,471.20496 L327.8231,425.50372"/>
<path d="M279.72314,398.27744 L280.934,396.59506 L325.57428,428.7236"/>
<path d="M292.00742,472.3287 L293.44577,473.36392 L325.57428,428.7236"/>
<path d="M277.6566,400.9514 L279.723,398.2773 L323.243,431.90775"/>
<path d="M288.2383,474.3658 L289.61258,475.4278 L320.60052,435.32733"/>
<path d="M320.81955,435.04388 L323.243,431.90775"/>
<path d="M275.51535,403.53433 L278.48636,399.9504 L320.829,435.0517"/>
<path d="M284.41946,476.30984 L285.7277,477.39435 L315.5859,441.37646"/>
<path d="M315.7412,441.18912 L317.25443,439.3637"/>
<path d="M318.29056,438.11383 L320.829,435.0517"/>
<path d="M273.30508,406.02133 L277.22144,401.61462 L318.33228,438.1509"/>
<path d="M280.5553,478.1591 L281.79602,479.26175 L310.33737,447.14682"/>
<path d="M310.35098,447.1315 L312.05914,445.20947"/>
<path d="M313.023,444.12494 L313.78644,443.2659"/>
<path d="M315.68213,441.13287 L318.33228,438.1509"/>
<path d="M271.02832,408.412 L275.92548,403.2699 L315.75333,441.20065"/>
<path d="M276.6504,479.91217 L277.82254,481.0285 L306.64423,450.76535"/>
<path d="M307.45474,449.91428 L308.41968,448.9011"/>
<path d="M312.9953,444.09665 L315.75333,441.20065"/>
<path d="M272.70935,481.56805 L273.8124,482.69354 L301.0345,456.0143"/>
<path d="M301.60336,455.45676 L302.84927,454.23572"/>
<path d="M304.49078,452.62692 L304.6746,452.44678"/>
<path d="M268.6879,410.70575 L274.5957,404.91574 L313.09296,444.1963"/>
<path d="M310.23138,447.0008 L313.09296,444.1963"/>
<path d="M268.7369,483.12607 L269.77075,484.25623 L295.25903,460.94012"/>
<path d="M295.48962,460.7292 L297.10266,459.25363"/>
<path d="M298.483,457.9909 L298.9607,457.55396"/>
<path d="M266.28693,412.90207 L273.22925,406.5514 L310.35242,447.13306"/>
<path d="M307.39218,449.841 L310.35242,447.13306"/>
<path d="M264.73773,484.58588 L265.70273,485.71628 L291.2117,463.9398"/>
<path d="M292.22983,463.07062 L293.09088,462.33554"/>
<path d="M263.82898,415.00037 L271.8234,408.17572 L307.53333,450.00632"/>
<path d="M304.47977,452.6131 L307.53333,450.00632"/>
<path d="M260.71655,485.94754 L261.6135,487.07388 L285.21286,468.2805"/>
<path d="M285.75653,467.84753 L287.09976,466.77783"/>
<path d="M288.92334,465.32565 L289.00906,465.25735"/>
<path d="M261.31793,417.00006 L270.3753,409.7872 L304.63776,452.81146"/>
<path d="M301.49658,455.31293 L304.63776,452.81146"/>
<path d="M256.678,487.21146 L257.50815,488.32956 L281.0266,470.86874"/>
<path d="M282.33966,469.8939 L282.93414,469.45255"/>
<path d="M258.758,418.90063 L268.88242,411.38397 L301.6681,455.54388"/>
<path d="M298.4454,457.93652 L301.6681,455.54388"/>
<path d="M252.62674,488.3783 L253.39165,489.4843 L274.91614,474.5979"/>
<path d="M275.5841,474.13593 L276.80475,473.29172"/>
<path d="M256.15384,420.70166 L267.34213,412.9638 L298.62714,458.1993"/>
<path d="M295.32928,460.4801 L298.62714,458.1993"/>
<path d="M248.56723,489.4492 L249.2689,490.5394 L270.66885,476.7664"/>
<path d="M272.0559,475.87366 L272.55988,475.54932"/>
<path d="M253.51054,422.4029 L265.75208,414.52423 L295.51807,460.7734"/>
<path d="M292.1517,462.94003 L295.51807,460.7734"/>
<path d="M244.5039,490.42548 L245.1446,491.49655 L264.5811,479.86987"/>
<path d="M265.1012,479.55878 L266.4197,478.77005"/>
<path d="M250.83363,424.00418 L264.11008,416.0624 L292.34442,463.2622"/>
<path d="M288.91626,465.3129 L292.34442,463.2622"/>
<path d="M240.441,491.30887 L241.0233,492.35776 L260.36493,481.62003"/>
<path d="M261.50833,480.98526 L262.1834,480.61047"/>
<path d="M248.12921,425.50558 L262.41406,417.57516 L289.11,465.66183"/>
<path d="M285.62692,467.59552 L289.11,465.66183"/>
<path d="M236.38263,492.10138 L236.90933,493.1254 L256.18707,483.2099"/>
<path d="M257.91248,482.32242 L257.97556,482.28998"/>
<path d="M245.40395,426.90732 L260.66226,419.0592 L285.8189,467.96878"/>
<path d="M282.28784,469.78494 L285.8189,467.96878"/>
<path d="M232.33273,492.80518 L232.80682,493.802 L250.39177,485.43863"/>
<path d="M250.8271,485.2316 L252.06537,484.64267"/>
<path d="M242.66522,428.20987 L258.85318,420.5109 L282.47556,470.17963"/>
<path d="M278.90344,471.8785 L282.47556,470.17963"/>
<path d="M228.29503,493.4228 L228.71965,494.39053 L246.40828,486.6291"/>
<path d="M247.22487,486.2708 L248.01956,485.92212"/>
<path d="M239.9213,429.41385 L256.98544,421.92642 L279.0846,472.29138"/>
<path d="M275.47824,473.87378 L279.0846,472.29138"/>
<path d="M224.27307,493.95688 L224.65146,494.894 L242.53767,487.6718"/>
<path d="M243.63591,487.22836 L244.0717,487.0524"/>
<path d="M237.18144,430.52014 L255.05807,423.30185 L275.65085,474.30124"/>
<path d="M272.01697,475.76855 L275.65085,474.30124"/>
<path d="M220.27017,494.41034 L220.60564,495.31573 L238.80757,488.57156"/>
<path d="M240.06331,488.10632 L240.24704,488.03824"/>
<path d="M234.45627,431.52988 L253.07031,424.63303 L272.17932,476.20673"/>
<path d="M268.52444,477.5609 L272.17932,476.20673"/>
<path d="M216.28944,494.78616 L216.5853,495.65915 L235.25061,489.3334"/>
<path d="M236.51004,488.90656 L236.57504,488.88455"/>
<path d="M231.758,432.44434 L251.02167,425.9158 L268.67517,478.00565"/>
<path d="M265.0056,479.2493 L268.67517,478.00565"/>
<path d="M212.3338,495.08755 L212.59334,495.92783 L231.90628,489.96246"/>
<path d="M232.9791,489.63107 L233.09091,489.59656"/>
<path d="M229.10098,433.26505 L248.91193,427.14584 L265.14362,479.69614"/>
<path d="M261.46542,480.83224 L265.14362,479.69614"/>
<path d="M208.4059,495.3177 L208.63237,496.1254 L228.82367,490.46393"/>
<path d="M229.4735,490.2817 L229.83781,490.17957"/>
<path d="M226.50232,433.99368 L246.74113,428.31888 L261.59,481.27652"/>
<path d="M257.90897,482.30865 L261.59,481.27652"/>
<path d="M204.50824,495.47995 L204.70477,496.25555 L226.87,490.6389"/>
<path d="M223.98268,434.63217 L244.50961,429.4306 L258.01968,482.7455"/>
<path d="M254.34128,483.6776 L258.01968,482.7455"/>
<path d="M200.64307,495.57764 L200.81271,496.32208 L224.25761,490.97946"/>
<path d="M221.56763,435.1825 L242.21791,430.47675 L254.43799,484.10202"/>
<path d="M250.76736,484.93848 L254.43799,484.10202"/>
<path d="M196.81248,495.61414 L196.95811,496.32864 L222.09396,491.20584"/>
<path d="M222.53456,491.11606 L222.58359,491.10608"/>
<path d="M219.28917,435.64685 L239.8668,431.45303 L250.85025,485.34518"/>
<path d="M247.19223,486.09073 L250.85025,485.34518"/>
<path d="M193.0184,495.5928 L193.14272,496.279 L220.63725,491.2979"/>
<path d="M217.18832,436.02747 L237.45726,432.35544 L247.26176,486.4745"/>
<path d="M243.62083,487.1341 L247.26176,486.4745"/>
<path d="M189.26254,495.5169 L189.36809,496.1767 L219.3664,491.37823"/>
<path d="M215.31866,436.32654 L234.99046,433.17987 L243.67767,487.48947"/>
<path d="M240.058,488.06848 L243.67767,487.48947"/>
<path d="M185.54652,495.38965 L185.63564,496.02533 L218.30946,491.44504"/>
<path d="M213.75175,436.54617 L232.46773,433.92255 L240.10307,488.38998"/>
<path d="M236.50848,488.89386 L240.10307,488.38998"/>
<path d="M181.87183,495.21423 L181.94666,495.82828 L217.50073,491.49615"/>
<path d="M213.37698,436.59183 L229.8905,434.57974 L236.54286,489.17593"/>
<path d="M232.97693,489.61044 L236.54286,489.17593"/>
<path d="M178.23982,494.9936 L178.3023,495.5889 L216.95787,491.5315"/>
<path d="M213.37755,436.60513 L227.26039,435.14795 L233.00182,489.84747"/>
<path d="M229.46783,490.2184 L233.00182,489.84747"/>
<path d="M174.65182,494.73068 L174.70372,495.31027 L216.5987,491.55865"/>
<path d="M213.5855,436.6084 L224.57901,435.62396 L229.48451,490.40475"/>
<path d="M225.98552,490.71808 L229.48451,490.40475"/>
<path d="M171.10904,494.4282 L171.15193,494.99533 L217.04016,491.52527"/>
<path d="M214.48991,436.56107 L221.84807,436.00467 L225.99535,490.84808"/>
<path d="M222.53416,491.1098 L225.99535,490.84808"/>
<path d="M167.6127,494.08865 L167.64798,494.6469 L219.0964,491.3953"/>
<path d="M215.92503,436.486 L219.06929,436.2873 L222.53845,491.17776"/>
<path d="M219.11777,491.39395 L222.53845,491.17776"/>
<path d="M164.16396,493.71445 L164.19289,494.26755 L219.11778,491.3942"/>
<path d="M213.37816,436.61923 L216.24442,436.4693 L219.11778,491.3942"/>
<path d="M160.764,493.30777 L160.78772,493.8596 L215.73698,491.4977"/>
<path d="M210.46835,436.67337 L213.37512,436.54843 L215.73698,491.4977"/>
<path d="M157.41406,492.87054 L157.4336,493.4251 L212.39949,491.48865"/>
<path d="M207.51665,436.62656 L210.46304,436.52277 L212.39949,491.48865"/>
<path d="M154.11536,492.4045 L154.13168,492.966 L209.10844,491.36734"/>
<path d="M204.5248,436.47736 L207.50978,436.39056 L209.10844,491.36734"/>
<path d="M150.86919,491.9112 L150.88326,492.4839 L205.86668,491.13397"/>
<path d="M201.49458,436.22473 L204.51678,436.15054 L205.86668,491.13397"/>
<path d="M147.67693,491.3918 L147.68968,491.98007 L202.67677,490.78873"/>
<path d="M198.42764,435.86786 L201.48541,435.80164 L202.67677,490.78873"/>
<path d="M144.54002,490.8474 L144.55246,491.4557 L199.54097,490.33163"/>
<path d="M195.32559,435.4063 L198.41692,435.3431 L199.54097,490.33163"/>
<path d="M141.45999,490.27878 L141.47322,490.9115 L196.46121,489.76266"/>
<path d="M192.18991,434.8399 L195.3124,434.7747 L196.46121,489.76266"/>
<path d="M138.43846,489.6864 L138.4537,490.34802 L193.43912,489.0817"/>
<path d="M189.02203,434.16882 L192.17279,434.09625 L193.43912,489.0817"/>
<path d="M135.47716,489.07053 L135.49582,489.76544 L190.47598,488.2884"/>
<path d="M185.82326,433.39352 L188.99892,433.30823 L190.47598,488.2884"/>
<path d="M132.57787,488.43115 L132.60161,489.1637 L187.57275,487.3824"/>
<path d="M182.5948,432.51483 L185.79143,432.41125 L187.57275,487.3824"/>
<path d="M129.7425,487.76804 L129.7732,488.54236 L184.73001,486.36322"/>
<path d="M179.33777,431.5338 L182.55086,431.4064 L184.73001,486.36322"/>
<path d="M126.97304,487.08063 L127.0129,487.90073 L181.94803,485.23026"/>
<path d="M176.05318,430.45187 L179.27756,430.29514 L181.94803,485.23026"/>
<path d="M124.27154,486.36813 L124.32309,487.23773 L179.2267,483.98285"/>
<path d="M172.74196,429.27072 L175.9718,429.07922 L179.2267,483.98285"/>
<path d="M121.64014,485.6295 L121.706245,486.55197 L176.56554,482.6202"/>
<path d="M169.40497,427.99234 L172.63376,427.76093 L176.56554,482.6202"/>
<path d="M119.080986,484.86343 L119.16491,485.8418 L173.9637,481.14157"/>
<path d="M166.04297,426.61902 L169.26347,426.3428 L173.9637,481.14157"/>
<path d="M116.59631,484.06833 L116.701645,485.10516 L171.42,479.54614"/>
<path d="M162.6567,425.15332 L165.861,424.8278 L171.42,479.54614"/>
<path d="M114.18833,483.2424 L114.31905,484.33963 L168.93283,477.83307"/>
<path d="M159.24681,423.59808 L162.42627,423.2193 L168.93283,477.83307"/>
<path d="M111.85927,482.3836 L112.01969,483.5426 L166.50027,476.00162"/>
<path d="M155.814,421.95642 L158.95932,421.52106 L166.50027,476.00162"/>
<path d="M109.61131,481.4896 L109.80605,482.71097 L164.12001,474.05112"/>
<path d="M152.3589,420.23163 L155.46016,419.73715 L164.12001,474.05112"/>
<path d="M107.44662,480.55786 L107.680534,481.84146 L161.78941,471.98096"/>
<path d="M148.88217,418.4273 L151.92891,417.87207 L161.78941,471.98096"/>
<path d="M105.36725,479.58563 L105.64538,480.9304 L159.50546,469.79074"/>
<path d="M145.3845,416.54727 L148.36581,415.93066 L159.50546,469.79074"/>
<path d="M103.37519,478.56998 L103.70267,479.9739 L157.26486,467.4803"/>
<path d="M141.86662,414.5956 L144.77124,413.9181 L157.26486,467.4803"/>
<path d="M101.47228,477.5077 L101.85421,478.96783 L155.06401,465.0496"/>
<path d="M138.32936,412.5765 L141.14578,411.83978 L155.06401,465.0496"/>
<path d="M99.66023,476.39545 L100.101585,477.9077 L152.89903,462.499"/>
<path d="M134.77357,410.49442 L137.49031,409.70154 L152.89903,462.499"/>
<path d="M97.940544,475.22968 L98.44602,476.78903 L150.76582,459.82916"/>
<path d="M131.2003,408.35397 L133.80594,407.50934 L150.76582,459.82916"/>
<path d="M96.31453,474.00674 L96.8884,475.607 L148.66006,457.04105"/>
<path d="M127.610695,406.15997 L130.09413,405.26938 L148.66006,457.04105"/>
<path d="M94.78326,472.72278 L95.429214,474.35672 L146.57732,454.13614"/>
<path d="M124.00603,403.91736 L126.35671,402.98804 L146.57732,454.13614"/>
<path d="M93.34752,471.37384 L94.06852,473.0333 L144.51297,451.11624"/>
<path d="M120.38781,401.63116 L122.59591,400.67178 L144.51297,451.11624"/>
<path d="M92.00783,469.95593 L92.805916,471.63177 L142.46242,447.9837"/>
<path d="M116.75772,399.30664 L118.81435,398.3272 L142.46242,447.9837"/>
<path d="M90.76435,468.46494 L91.640526,470.14725 L140.42105,444.74133"/>
<path d="M113.11768,396.94904 L115.015144,395.96082 L140.42105,444.74133"/>
<path d="M89.616905,466.8967 L90.57097,468.5749 L138.3843,441.39243"/>
<path d="M111.15056,393.60825 L111.201836,393.5791 L111.25523,393.67303"/>
<path d="M112.41269,395.70895 L113.64185,397.87103"/>
<path d="M114.70134,399.73465 L116.02717,402.06674"/>
<path d="M116.977875,403.739 L118.40983,406.25778"/>
<path d="M119.239136,407.71652 L120.78857,410.44196"/>
<path d="M121.48198,411.66165 L123.162224,414.61716"/>
<path d="M123.70331,415.5689 L125.529755,418.7816"/>
<path d="M125.89999,419.4328 L127.89024,422.93362"/>
<path d="M128.06888,423.24783 L138.3843,441.39243"/>
<path d="M86.16292,461.37057 L89.59536,466.91006 L136.34772,437.9408 L134.1949,434.4665"/>
<path d="M129.78314,427.3465 L129.89317,427.52408"/>
<path d="M132.0054,430.93292 L132.3543,431.49597"/>
<path d="M82.20299,455.50027 L88.71131,465.14838 L134.30707,434.3908 L131.98471,430.9481"/>
<path d="M78.07269,449.87164 L87.91594,463.28574 L132.25836,430.74728 L129.77036,427.3567"/>
<path d="M73.778915,444.4902 L87.205864,461.31833 L130.19794,427.01553 L127.55054,423.69754"/>
<path d="M69.331505,439.36365 L86.57726,459.2429 L128.1225,423.20132 L125.32437,419.97592"/>
<path d="M64.74324,434.50095 L86.02588,457.05655 L126.02919,419.31088 L123.091385,416.19736"/>
<path d="M60.029747,429.91156 L85.5471,454.757 L123.91569,415.35077 L120.851524,412.36728"/>
<path d="M55.209282,425.60477 L85.13595,452.34253 L121.780174,411.32788 L118.60514,408.49118"/>
<path d="M50.302486,421.58893 L84.78721,449.812 L119.62144,407.2494 L116.353,404.57443"/>
<path d="M45.33203,417.87106 L84.495445,447.16507 L117.43888,403.1227 L114.09622,400.6224"/>
<path d="M40.32222,414.45627 L84.25509,444.40192 L115.23257,398.9553 L111.83631,396.64032"/>
<path d="M109.57511,392.6333 L113.0032,394.75476 L84.06049,441.52353 L37.291702,412.58084 L37.346302,412.49258"/>
<path d="M107.31477,388.60623 L110.75217,390.52863 L83.90604,438.5316 L35.90307,411.68546 L36.042206,411.43665"/>
<path d="M105.05774,384.56387 L108.48152,386.28436 L83.78618,435.42844 L34.642105,410.7331 L34.84955,410.32028"/>
<path d="M102.806725,380.51086 L106.193954,382.0293 L83.695526,432.21716 L33.50767,409.71872 L33.76688,409.1405"/>
<path d="M100.56469,376.45154 L103.89277,377.77048 L83.62892,428.90146 L32.49795,408.6376 L32.792385,407.89468"/>
<path d="M98.33482,372.39005 L101.58188,373.51468 L83.58152,425.4857 L31.610497,407.48532 L31.923923,406.58038"/>
<path d="M96.1205,368.33035 L99.265724,369.26825 L83.5488,421.9748 L30.842268,406.25784 L31.15904,405.19556"/>
<path d="M93.92531,364.2762 L96.94924,365.0372 L83.52667,418.37418 L30.189682,404.95163 L30.494999,403.73837"/>
<path d="M91.752975,360.23108 L94.637794,360.827 L83.51152,414.68985 L29.648676,403.56357 L29.928814,402.2074"/>
<path d="M89.60739,356.19827 L92.33712,356.64264 L83.5002,410.92807 L29.214762,402.09116 L29.457268,400.60144"/>
<path d="M87.49258,352.1808 L90.05325,352.48856 L83.49011,407.09558 L28.883108,400.53244 L29.076939,398.9197"/>
<path d="M85.41267,348.18146 L87.79246,348.36865 L83.47921,403.19928 L28.648596,398.88602 L28.784237,397.16174"/>
<path d="M83.37187,344.2028 L85.56116,344.28622 L83.46597,399.2463 L28.505898,397.15112 L28.575422,395.3274"/>
<path d="M28.445568,392.71054 L28.449547,395.32758 L83.449486,395.24396"/>
<path d="M82.65643,340.24512 L83.36586,340.24402 L83.36826,341.8289"/>
<path d="M83.368324,341.86743 L83.449486,395.24396"/>
<path d="M28.202116,386.67383 L28.474009,393.4158 L83.42934,391.19952 L83.265274,387.13132"/>
<path d="M82.43987,366.66425 L82.44483,366.7872"/>
<path d="M82.60472,370.75204 L82.61386,370.97855"/>
<path d="M82.769966,374.84943 L82.78207,375.1494"/>
<path d="M82.93532,378.9496 L82.94931,379.29648"/>
<path d="M83.10051,383.04578 L83.115456,383.41632"/>
<path d="M27.710852,380.40414 L28.573748,391.41672 L83.405685,387.12033 L83.08655,383.0474"/>
<path d="M26.959944,373.91086 L28.743288,389.33185 L83.379166,383.01355 L82.909645,378.9535"/>
<path d="M25.938465,367.20047 L28.977276,387.16327 L83.35091,378.88632 L82.737335,374.85556"/>
<path d="M24.635881,360.27606 L29.270527,384.91342 L83.32247,374.74548 L82.5726,370.75922"/>
<path d="M23.041433,353.13644 L29.618086,382.58527 L83.295815,370.59772 L82.418594,366.66974"/>
<path d="M21.143448,345.77573 L30.015247,380.1821 L83.27322,366.44937 L82.27858,362.59198"/>
<path d="M18.928555,338.1824 L30.45761,377.70758 L83.25729,362.3065 L82.155876,358.5305"/>
<path d="M16.380772,330.3385 L30.941088,375.1656 L83.25087,358.1748 L82.05382,354.4894"/>
<path d="M13.480474,322.21872 L31.461945,372.5603 L83.25699,354.05966 L81.97573,350.4726"/>
<path d="M81.92488,346.48352 L83.27881,349.96597 L32.016796,369.896 L12.086778,318.63397 L12.214955,318.58414"/>
<path d="M81.90444,342.52536 L83.31961,345.89835 L32.602623,367.17715 L11.323822,316.46017 L11.611923,316.3393"/>
<path d="M81.91747,338.60098 L83.38269,341.86096 L33.216785,364.4083 L10.669455,314.2424 L11.108735,314.04495"/>
<path d="M81.9669,334.71292 L83.47135,337.85757 L33.856995,361.59393 L10.120626,311.97958 L10.702326,311.7013"/>
<path d="M82.055504,330.86353 L83.588875,333.8916 L34.521336,358.73865 L9.674274,309.6711 L10.389734,309.3088"/>
<path d="M82.18588,327.05478 L83.738434,329.966 L35.208244,355.8469 L9.327357,307.3167 L10.168128,306.86832"/>
<path d="M82.36045,323.28845 L83.92311,326.08353 L35.916485,352.92313 L9.076889,304.91647 L10.03481,304.38092"/>
<path d="M82.581436,319.56616 L84.14583,322.24637 L36.645164,349.97156 L8.919965,302.47092 L9.987234,301.84796"/>
<path d="M82.85088,315.88916 L84.40936,318.45654 L37.39368,346.99643 L8.853787,299.98074 L10.023011,299.271"/>
<path d="M83.170616,312.2586 L84.71629,314.7157 L38.161728,344.00174 L8.875687,297.44714 L10.139909,296.6519"/>
<path d="M83.542274,308.67538 L85.06901,311.02512 L38.94927,340.99127 L8.983131,294.87152 L10.335857,293.99258"/>
<path d="M83.96731,305.14026 L85.46969,307.38593 L39.756523,337.9687 L9.173742,292.25555 L10.608942,291.29538"/>
<path d="M84.446945,301.65375 L85.920296,303.79886 L40.58394,334.9375 L9.445297,289.60117 L10.957406,288.5626"/>
<path d="M84.98226,298.21625 L86.42257,300.26453 L41.432167,331.90097 L9.795733,286.91055 L11.379635,285.79678"/>
<path d="M85.574135,294.828 L86.97804,296.7832 L42.30207,328.86215 L10.2231455,284.18616 L11.874155,283.00067"/>
<path d="M86.223274,291.48904 L87.58804,293.35504 L43.194668,325.82394 L10.725783,281.43057 L12.439622,280.17706"/>
<path d="M86.930244,288.19937 L88.25368,289.97995 L44.11115,322.78906 L11.302044,278.64655 L13.074808,277.32892"/>
<path d="M87.69546,284.95874 L88.97587,286.65768 L45.05284,319.76007 L11.95046,275.83704 L13.77859,274.4593"/>
<path d="M88.51917,281.76685 L89.755356,283.38785 L46.021183,316.73935 L12.669693,273.0052 L14.549937,271.57132"/>
<path d="M89.401566,278.62326 L90.59271,280.1699 L47.01774,313.72913 L13.458515,270.15414 L15.387898,268.66824"/>
<path d="M90.34267,275.52744 L91.48835,277.00314 L48.044155,310.7315 L14.315801,267.28732 L16.291586,265.7534"/>
<path d="M91.34244,272.47876 L92.442535,273.8868 L49.102158,307.74847 L15.240507,264.40808 L17.260164,262.83014"/>
<path d="M92.40076,269.47653 L93.45543,270.82 L50.193535,304.7819 L16.231663,261.52 L18.292833,259.90192"/>
<path d="M93.517426,266.51993 L94.527054,267.80176 L51.320126,301.83356 L17.288353,258.62662 L19.388819,256.9722"/>
<path d="M94.6922,263.60812 L95.65736,264.83102 L52.483814,298.90515 L18.409698,255.7316 L20.547358,254.04448"/>
<path d="M95.92478,260.7402 L96.8462,261.9067 L53.686493,295.99832 L19.594856,252.83862 L21.767689,251.12231"/>
<path d="M97.21486,257.9152 L98.093376,259.02762 L54.930077,293.1147 L20.842987,249.9514 L23.049042,248.20923"/>
<path d="M98.56208,255.13208 L99.39862,256.19257 L56.216476,290.2558 L22.153263,247.07364 L24.390627,245.30875"/>
<path d="M99.96608,252.38991 L100.76163,253.40038 L57.547592,287.42313 L23.524845,244.20908 L25.791628,242.42442"/>
<path d="M101.42649,249.68762 L102.182045,250.64977 L58.92529,284.61816 L24.956879,241.36142 L27.251196,239.55975"/>
<path d="M102.94294,247.02419 L103.65951,247.93954 L60.351406,281.84247 L26.448484,238.53436 L28.768448,236.71822"/>
<path d="M104.51504,244.39857 L105.19362,245.26846 L61.82773,279.09744 L27.998756,235.73154 L30.342457,233.90326"/>
<path d="M106.142426,241.8098 L106.783966,242.63533 L63.355984,276.38455 L29.606756,232.95657 L31.972254,231.11827"/>
<path d="M107.82472,239.25688 L108.430115,240.03896 L64.937836,273.7053 L31.271507,230.213 L33.65683,228.36658"/>
<path d="M109.56156,236.73886 L110.13162,237.47823 L66.57485,271.06107 L32.992004,227.5043 L35.395134,225.65146"/>
<path d="M111.35257,234.25485 L111.88803,234.95204 L68.26854,268.45337 L34.767204,224.83388 L37.186077,222.9761"/>
<path d="M113.197365,231.80402 L113.698875,232.4594 L70.02027,265.88364 L36.59603,222.20503 L39.02853,220.34361"/>
<path d="M115.09556,229.38557 L115.56364,229.9993 L71.831345,263.35327 L38.477386,219.62097 L40.92135,217.75699"/>
<path d="M117.04675,226.9988 L117.48181,227.57088 L73.702934,260.86368 L40.41015,217.08478 L42.863346,215.2192"/>
<path d="M119.05053,224.64304 L119.45285,225.17334 L75.63608,258.41623 L42.393177,214.59947 L44.853333,212.733"/>
<path d="M121.412415,222.72177 L121.47616,222.80594 L77.63171,256.01233 L44.425323,212.16788 L46.890095,210.30113"/>
<path d="M120.94578,222.4393 L79.6906,253.65324 L46.505436,209.79272 L48.972435,207.92618"/>
<path d="M117.944664,224.00847 L81.8134,251.34027 L48.63237,207.47664 L51.099144,205.61061"/>
<path d="M114.984505,225.62036 L84.00062,249.07462 L50.804985,205.22202 L53.269035,203.35678"/>
<path d="M112.07221,227.28018 L86.252594,246.85742 L53.022167,203.0312 L55.480938,201.16689"/>
<path d="M109.21496,228.99399 L88.56953,244.6898 L55.28283,200.9063 L57.73371,199.043"/>
<path d="M103.81183,232.75897 L90.951454,242.57277 L57.58591,198.84932 L60.026253,196.98708"/>
<path d="M104.82147,231.98851 L106.420105,230.76859"/>
<path d="M101.10195,234.59993 L93.39823,240.50726 L59.93039,196.86206 L62.3575,195.00092"/>
<path d="M98.472015,236.5174 L95.909584,238.49414 L62.31528,194.9462 L69.64113,189.2948"/>
<path d="M101.053696,234.53835 L98.48504,236.53416 L64.739655,193.10318 L89.39126,173.94917"/>
<path d="M105.005196,161.71538 L67.20262,191.33435 L101.12396,234.62802 L103.69611,232.6127"/>
<path d="M112.85958,155.54475 L112.838875,155.51857 L69.70334,189.6408 L103.825554,232.77632 L106.398224,230.74123"/>
<path d="M115.260155,153.7545 L115.19711,153.67566 L72.241,188.02347 L106.58882,230.97958 L109.15882,228.9246"/>
<path d="M117.67708,152.0178 L117.56994,151.8854 L74.81486,186.48314 L109.4126,229.23822 L111.976524,227.16347"/>
<path d="M120.10952,150.33578 L119.956406,150.14903 L77.4242,185.02039 L112.295555,227.5526 L114.849815,225.4584"/>
<path d="M122.5568,148.70952 L122.355736,148.46774 L80.06834,183.63557 L115.23617,225.92297 L117.77699,223.80992"/>
<path d="M125.018364,147.14014 L124.76727,146.8428 L82.74661,182.32892 L118.23273,224.34958 L120.75623,222.21849"/>
<path d="M127.49379,145.62871 L127.19053,145.27544 L85.4584,181.10042 L121.28337,222.83255 L123.78553,220.68457"/>
<path d="M129.98277,144.1763 L129.62517,143.7669 L88.20305,179.94989 L124.386024,221.37201 L126.86276,219.20854"/>
<path d="M132.48515,142.78398 L132.07097,142.31845 L90.979935,178.87698 L127.538475,219.96802 L129.98566,217.79077"/>
<path d="M135.00089,141.45274 L134.5279,140.93126 L93.78842,177.88115 L130.73831,218.62064 L133.1518,216.43166"/>
<path d="M137.53001,140.18355 L136.99603,139.6065 L96.62782,176.96164 L133.98297,217.32986 L136.35866,215.1315"/>
<path d="M140.07274,138.9773 L139.47562,138.34529 L99.49743,176.11757 L137.26971,216.09576 L139.60358,213.89067"/>
<path d="M142.62933,137.83482 L141.96698,137.1487 L102.39649,175.34787 L140.59566,214.91835 L142.8838,212.7095"/>
<path d="M145.20016,136.75691 L144.4706,136.01767 L105.324165,174.65129 L143.95778,213.79773 L146.19647,211.58836"/>
<path d="M149.5386,210.52765 L147.35292,212.734 L108.279564,174.02646 L146.98709,134.9531 L147.7857,135.74423"/>
<path d="M152.90715,209.52774 L150.77777,211.72728 L111.26169,173.47185 L149.51712,133.95576 L150.38649,134.7974"/>
<path d="M156.29898,208.5891 L154.22894,210.77785 L114.26946,172.9858 L152.06151,133.0263 L153.00314,133.91687"/>
<path d="M159.7109,207.71216 L157.70294,209.88596 L117.30169,172.56653 L154.62112,132.16528 L155.63634,133.10306"/>
<path d="M163.13966,206.89746 L161.19615,209.05196 L120.357086,172.21216 L157.19688,131.3731 L158.28677,132.35626"/>
<path d="M166.58194,206.14554 L164.70493,208.2763 L123.43422,171.92072 L159.78981,130.65002 L160.95525,131.67665"/>
<path d="M170.0344,205.45697 L168.22554,207.55954 L126.53157,171.69016 L162.40096,129.99619 L163.6425,131.0643"/>
<path d="M173.49364,204.83238 L171.75426,206.90224 L129.64748,171.51837 L165.03134,129.41158 L166.34938,130.51918"/>
<path d="M176.95631,204.27243 L175.2873,206.30511 L132.78017,171.4032 L167.68208,128.89607 L169.07666,130.04114"/>
<path d="M180.41898,203.77779 L178.82086,205.76894 L135.92776,171.34247 L170.35423,128.44937 L171.82515,129.62994"/>
<path d="M183.87825,203.34918 L182.35118,205.29454 L139.08827,171.33397 L173.04884,128.07106 L174.59563,129.28525"/>
<path d="M187.33073,202.98734 L185.87451,204.88283 L142.25961,171.3755 L175.76694,127.760605 L177.38885,129.00664"/>
<path d="M190.77306,202.693 L189.38715,204.53476 L145.43964,171.46489 L178.5095,127.51738 L180.20554,128.79362"/>
<path d="M194.20186,202.46687 L192.8854,204.25134 L148.62607,171.59998 L181.27744,127.340645 L183.04633,128.6456"/>
<path d="M197.61388,202.3097 L196.36574,204.03357 L151.81665,171.77866 L184.07158,127.229576 L185.91183,128.56198"/>
<path d="M201.00581,202.22217 L199.82458,203.88249 L155.00905,171.99886 L186.89268,127.183304 L188.80258,128.54208"/>
<path d="M204.3745,202.20494 L203.25858,203.7991 L158.2009,172.25858 L189.74142,127.20089 L191.71902,128.58522"/>
<path d="M207.71678,202.25862 L206.66437,203.7844 L161.38986,172.5559 L192.61836,127.281395 L194.66154,128.6907"/>
<path d="M211.02962,202.38374 L210.03876,203.8393 L164.57362,172.88898 L195.52394,127.42385 L197.63039,128.8578"/>
<path d="M214.31003,202.58076 L213.37865,203.96466 L167.74991,173.25606 L198.45851,127.62732 L200.62573,129.08588"/>
<path d="M217.55511,202.85002 L216.68108,204.16125 L170.91649,173.65547 L201.42229,127.890884 L203.64763,129.37425"/>
<path d="M220.7621,203.19179 L219.94319,204.42973 L174.07124,174.08565 L204.41534,128.2137 L206.69604,129.72237"/>
<path d="M223.9283,203.60617 L223.16232,204.77063 L177.21214,174.54514 L207.43764,128.59496 L209.77078,130.12967"/>
<path d="M227.05116,204.09314 L226.3359,205.18433 L180.33728,175.0326 L210.48901,129.03398 L212.87157,130.59572"/>
<path d="M230.12825,204.65253 L229.4615,205.67104 L183.44487,175.54678 L213.56912,129.53017 L215.99794,131.12016"/>
<path d="M233.15726,205.28401 L232.53688,206.23079 L186.53333,176.0866 L216.67752,130.08304 L219.14934,131.70271"/>
<path d="M236.13602,205.98709 L235.5599,206.86346 L189.60115,176.65102 L219.8136,130.69226 L222.32506,132.34325"/>
<path d="M239.06253,206.7611 L238.52866,207.56873 L192.64708,177.2392 L222.9766,131.3576 L225.52423,133.0417"/>
<path d="M241.93494,207.6052 L241.44135,208.34601 L195.67,177.85039 L226.16562,132.07904 L228.74585,133.79814"/>
<path d="M244.75156,208.51834 L244.29637,209.19461 L198.66898,178.48401 L229.37958,132.85661 L231.98875,134.6128"/>
<path d="M247.5109,209.49934 L247.09229,210.11357 L201.64328,179.1396 L232.61725,133.69058 L235.2516,135.48592"/>
<path d="M250.21164,210.54683 L249.82785,211.10175 L204.59232,179.81683 L235.87724,134.5813 L238.5329,136.41795"/>
<path d="M252.85266,211.6593 L252.50201,212.15782 L207.51572,180.51555 L239.15799,135.52927 L241.831,137.4094"/>
<path d="M255.43306,212.83504 L255.11388,213.28029 L210.41322,181.23578 L242.45773,136.53511 L245.14404,138.46085"/>
<path d="M257.95212,214.07227 L257.66278,214.46747 L213.28474,181.97763 L245.77457,137.5996 L248.47003,139.57297"/>
<path d="M260.40936,215.36905 L260.1483,215.71753 L216.13034,182.74147 L249.10638,138.72353 L251.80678,140.74652"/>
<path d="M262.80447,216.72334 L262.5701,217.02853 L218.95015,183.52779 L252.4509,139.90784 L255.15192,141.98225"/>
<path d="M265.13745,218.13307 L264.92816,218.3984 L221.74443,184.33722 L255.80562,141.15347 L258.50293,143.28098"/>
<path d="M267.40845,219.59605 L267.2227,219.82501 L224.5135,185.17064 L259.16788,142.46146 L261.8571,144.64348"/>
<path d="M269.61783,221.11014 L269.45398,221.30615 L227.2577,186.02902 L262.53485,143.83276 L265.21152,146.07053"/>
<path d="M271.7662,222.67314 L271.62262,222.8396 L229.97745,186.91356 L265.90347,145.2684 L268.5632,147.56285"/>
<path d="M273.8544,224.2829 L273.7294,224.42311 L232.67308,187.82559 L269.2706,146.76927 L271.90897,149.1211"/>
<path d="M275.88336,225.9373 L275.7753,226.05447 L235.34492,188.7666 L272.6328,148.33624 L275.24548,150.74583"/>
<path d="M277.85428,227.63437 L277.7614,227.73155 L237.99327,189.7382 L275.98663,149.97006 L278.5693,152.43748"/>
<path d="M279.7685,229.37216 L279.68912,229.45227 L240.61827,190.74219 L279.32834,151.67136 L281.8769,154.19637"/>
<path d="M285.16458,156.02261 L282.65424,153.4406 L243.22002,191.78043 L281.55984,231.21465 L281.62747,231.14888"/>
<path d="M288.4287,157.91621 L285.96036,155.27806 L245.7984,192.85487 L283.3752,233.01683 L283.43286,232.96289"/>
<path d="M291.66547,159.87694 L289.2428,157.18387 L248.35321,193.96758 L285.13693,234.85716 L285.18634,234.81271"/>
<path d="M294.87106,161.90437 L292.4975,159.15787 L250.88406,195.12065 L286.84683,236.73409 L286.8897,236.69704"/>
<path d="M298.04172,163.9979 L295.7204,161.19975 L253.39034,196.3162 L288.50677,238.64627 L288.5448,238.61473"/>
<path d="M301.17365,166.15666 L298.90747,163.30893 L255.87128,197.55637 L290.1187,240.59254 L290.15347,240.5649"/>
<path d="M304.2631,168.37962 L302.05463,165.48459 L258.3259,198.84325 L291.68457,242.57196 L291.71756,242.54678"/>
<path d="M307.30643,170.66551 L305.15787,167.72568 L260.75305,200.17891 L293.20627,244.58372 L293.23892,244.55986"/>
<path d="M310.30008,173.01288 L308.2133,170.03091 L263.1513,201.56532 L294.68573,246.62729 L294.71933,246.60376"/>
<path d="M313.2405,175.42004 L311.21704,172.39876 L265.51917,203.00436 L296.12476,248.70224 L296.16046,248.67833"/>
<path d="M316.12445,177.88516 L314.16544,174.82747 L267.85483,204.4978 L297.52515,250.8084 L297.56393,250.78355"/>
<path d="M318.94864,180.40622 L317.0549,177.31512 L270.15643,206.04724 L298.88855,252.9457 L298.93118,252.91957"/>
<path d="M321.7101,182.98103 L319.88205,179.85957 L272.42194,207.65411 L300.21646,255.11424 L300.26355,255.08665"/>
<path d="M324.40598,185.60733 L322.64368,182.45854 L274.64914,209.3197 L301.51028,257.31427 L301.56223,257.2852"/>
<path d="M327.0336,188.28267 L325.3368,185.10957 L276.83575,211.04504 L302.77124,259.54608 L302.82822,259.51563"/>
<path d="M329.59048,191.00458 L327.95862,187.81012 L278.9795,212.83101 L304.00037,261.81015 L304.06232,261.7785"/>
<path d="M332.07443,193.77046 L330.50656,190.55754 L281.07788,214.6782 L305.19855,264.10687 L305.2652,264.07437"/>
<path d="M334.48334,196.57773 L332.97827,193.34912 L283.12854,216.58707 L306.3665,266.43683 L306.4373,266.4038"/>
<path d="M336.8154,199.42377 L335.37173,196.18208 L285.129,218.55772 L307.50464,268.80045 L307.5789,268.7674"/>
<path d="M339.06903,202.30592 L337.68503,199.0537 L287.0769,220.59015 L308.61334,271.19827 L308.69003,271.16562"/>
<path d="M341.24277,205.22163 L339.91656,201.9612 L288.96988,222.68404 L309.69272,273.6307 L309.77066,273.599"/>
<path d="M343.33542,208.1683 L342.06494,204.90184 L290.80566,224.83887 L310.74268,276.09814 L310.82043,276.06793"/>
<path d="M345.346,211.14346 L344.12903,207.87299 L292.58203,227.05391 L311.76297,278.6009 L311.83893,278.57263"/>
<path d="M347.2737,214.14471 L346.1079,210.87206 L294.297,229.32822 L312.75317,281.13913 L312.82553,281.11334"/>
<path d="M349.1179,217.16972 L348.00085,213.89656 L295.9486,231.66063 L313.71268,283.7129 L313.77945,283.6901"/>
<path d="M350.87817,220.2163 L349.80737,216.9441 L297.53506,234.04979 L313.98337,284.3133"/>
<path d="M352.55423,223.28233 L351.52716,220.01244 L299.05475,236.49416 L314.06702,284.28824"/>
<path d="M354.14603,226.36589 L353.1601,223.09946 L300.5063,238.99202 L314.17194,284.26794"/>
<path d="M355.65356,229.46513 L354.7063,226.20319 L301.88834,241.5415 L314.18182,283.8745"/>
<path d="M357.07706,232.57837 L356.16595,229.32178 L303.1999,244.14055 L313.85977,282.24167"/>
<path d="M358.4169,235.70409 L357.53946,232.45355 L304.44,246.78699 L313.74945,281.27463"/>
<path d="M371.85873,285.55685 L371.8729,285.553 L371.44705,283.97537"/>
<path d="M359.67352,238.84085 L358.82742,235.597 L305.60803,249.4785 L313.8768,281.1796"/>
<path d="M372.67157,288.82614 L372.70892,288.8164 L371.4718,284.07352"/>
<path d="M360.84756,241.98741 L360.0305,238.75073 L306.70343,252.21266 L313.33087,278.46606"/>
<path d="M373.4292,292.09375 L373.49243,292.07782 L371.30005,283.39313"/>
<path d="M361.93973,245.14264 L361.14954,241.91351 L307.72586,254.98688 L313.42096,278.25958"/>
<path d="M374.1311,295.35962 L374.2229,295.33716 L370.87878,281.6716"/>
<path d="M362.95087,248.30556 L362.18546,245.08426 L308.6752,257.79852 L312.9486,275.7838"/>
<path d="M374.7767,298.62375 L374.89975,298.5945 L370.17743,278.71985"/>
<path d="M363.8819,251.47531 L363.1394,248.262 L309.55145,260.6448 L312.93237,275.27603"/>
<path d="M375.36533,301.88617 L375.52222,301.8499 L369.16568,274.34134"/>
<path d="M364.73392,254.65114 L364.01248,251.44592 L310.3548,263.5229 L312.33426,272.3176"/>
<path d="M375.89612,305.14713 L376.08948,305.1036 L367.81714,268.34988"/>
<path d="M365.508,257.83243 L364.80606,254.6353 L311.08557,266.42984 L312.36618,272.26254"/>
<path d="M376.3683,308.40677 L376.6006,308.35577 L366.11533,260.59866"/>
<path d="M377.05457,311.60675 L365.52145,257.82953 L311.74426,269.36264 L312.3761,272.30884"/>
<path d="M376.78088,311.66544 L377.05457,311.60675"/>
<path d="M377.45026,314.8569 L366.16022,261.02814 L312.33145,272.31818 L312.95102,275.27222"/>
<path d="M377.1329,314.92346 L377.45026,314.8569"/>
<path d="M377.78653,318.10663 L366.72385,264.2307 L312.8479,275.2934 L313.45554,278.25262"/>
<path d="M377.4233,318.1812 L377.78653,318.10663"/>
<path d="M378.06213,321.3564 L367.214,267.4369 L313.29443,278.28503 L313.89032,281.24686"/>
<path d="M377.65103,321.43915 L378.06213,321.3564"/>
<path d="M378.27582,324.60675 L367.63235,270.64642 L313.67203,281.28992 L314.25623,284.25165"/>
<path d="M377.81494,324.69766 L378.27582,324.60675"/>
<path d="M378.4263,327.8581 L367.98068,273.85913 L313.98172,284.30475 L314.5541,287.26373"/>
<path d="M377.91388,327.9572 L378.4263,327.8581"/>
<path d="M378.5122,331.11105 L368.26083,277.07486 L314.22464,287.32626 L314.785,290.2799"/>
<path d="M377.94672,331.21832 L378.5122,331.11105"/>
<path d="M378.5322,334.36612 L368.47458,280.29355 L314.402,290.35117 L314.94992,293.2969"/>
<path d="M377.91223,334.48145 L378.5322,334.36612"/>
<path d="M378.48492,337.62384 L368.62384,283.51508 L314.51508,293.37616 L314.51508,293.37616"/>
<path d="M378.48492,337.62384 L378.48492,337.62384"/>
</g>
<g fill="none" id="layer2" inkscape:groupmode="layer" inkscape:label="2" stroke="black" stroke-width="0.5mm"/>
<g fill="none" id="layer3" inkscape:groupmode="layer" inkscape:label="3" stroke="black" stroke-width="0.5mm"/>
<g fill="none" id="layer4" inkscape:groupmode="layer" inkscape:label="4" stroke="black" stroke-width="0.5mm"/>
<g fill="none" id="layer5" inkscape:groupmode="layer" inkscape:label="5" stroke="black" stroke-width="0.5mm"/>
<g fill="none" id="layer6" inkscape:groupmode="layer" inkscape:label="6" stroke="black" stroke-width="0.5mm"/>
<g fill="none" id="layer7" inkscape:groupmode="layer" inkscape:label="7" stroke="black" stroke-width="0.5mm"/>
<g fill="none" id="layer8" inkscape:groupmode="layer" inkscape:label="8" stroke="black" stroke-width="0.5mm"/>
<g fill="none" id="layer9" inkscape:groupmode="layer" inkscape:label="9" stroke="black" stroke-width="0.5mm"/>
<g fill="none" id="layer10" inkscape:groupmode="layer" inkscape:label="10" stroke="black" stroke-width="0.5mm"/>
<g fill="none" id="layer11" inkscape:groupmode="layer" inkscape:label="11" stroke="black" stroke-width="0.5mm">
<rect height="576" width="384" x="0" y="0"/>
</g>
</svg>