<svg height="576px" viewBox="0 0 384 576" width="384px" xmlns="http://www.w3.org/2000/svg" xmlns:inkscape="http://www.inkscape.org/namespaces/inkscape">
<g fill="none" id="layer1" inkscape:groupmode="layer" inkscape:label="1" stroke="black" stroke-width="0.2mm">
<path d="M52.091698,41.206333 L51.909264,40.42373 L15.100857,49.00415 L23.681276,85.81255 L27.787851,84.85527"/>
<path d="M56.057034,41.131607 L55.853035,40.29221 L19.126814,49.21786 L28.052465,85.94408 L32.115067,84.95673"/>
<path d="M60.05344,41.072903 L59.829723,40.18309 L23.175177,49.398647 L32.390736,86.0532 L36.412453,85.04207"/>
<path d="M64.080345,41.02919 L63.839096,40.095142 L27.244707,49.546757 L36.696323,86.14114 L40.680466,85.11212"/>
<path d="M68.13706,40.99955 L67.88071,40.027233 L31.334278,49.662624 L40.96967,86.20905 L44.919685,85.16764"/>
<path d="M72.22278,40.98316 L71.95394,39.978344 L35.44287,49.746872 L45.211395,86.25794 L49.130825,85.209305"/>
<path d="M76.33659,40.97929 L76.058,39.94756 L39.569565,49.80029 L49.422295,86.28873 L53.31469,85.23769"/>
<path d="M80.4775,40.9873 L80.191956,39.93405 L43.713535,49.82382 L53.603302,86.30224 L57.4722,85.25333"/>
<path d="M84.644424,41.006622 L84.35472,39.937084 L47.87405,49.818527 L57.755493,86.2992 L61.60436,85.25667"/>
<path d="M88.836205,41.03676 L88.54511,39.955997 L52.05044,49.78562 L61.880066,86.28029 L65.71226,85.248116"/>
<path d="M93.05163,41.077263 L92.76181,39.990185 L56.242107,49.726402 L65.978325,86.2461 L69.797066,85.22802"/>
<path d="M97.28941,41.127743 L97.003426,40.039104 L60.44851,49.642265 L70.05167,86.19718 L73.860016,85.19671"/>
<path d="M101.54825,41.18783 L101.26847,40.102253 L64.669136,49.5347 L74.101585,86.13403 L77.90239,85.15448"/>
<path d="M105.826775,41.257202 L105.5554,40.179142 L68.9035,49.40525 L78.129616,86.057144 L81.925545,85.10162"/>
<path d="M110.1236,41.335533 L109.8626,40.269314 L73.15115,49.255527 L82.13737,85.96697 L85.93086,85.03841"/>
<path d="M114.437294,41.42252 L114.18843,40.372303 L77.41163,49.087177 L86.1265,85.86398 L89.91977,84.9651"/>
<path d="M118.76646,41.517853 L118.5312,40.487648 L81.68445,48.90189 L90.098694,85.74864 L93.8937,84.88202"/>
<path d="M123.10962,41.62121 L122.8892,40.614857 L85.96914,48.70137 L94.05565,85.62143 L97.85414,84.78946"/>
<path d="M127.46534,41.732258 L127.26071,40.75342 L90.26518,48.48734 L97.9991,85.482864 L101.80257,84.68775"/>
<path d="M131.83217,41.85064 L131.64403,40.902798 L94.57204,48.26151 L101.93075,85.33349 L105.74048,84.57726"/>
<path d="M136.20866,41.975975 L136.03741,41.062397 L98.889114,48.02559 L105.85231,85.17389 L109.66935,84.45841"/>
<path d="M140.5934,42.10784 L140.43922,41.231583 L103.21578,47.78127 L109.76547,85.00471 L113.59066,84.33164"/>
<path d="M144.98497,42.24578 L144.84776,41.40968 L107.55136,47.53021 L113.67189,84.82661 L117.50588,84.19743"/>
<path d="M149.38199,42.38931 L149.26143,41.595943 L111.8951,47.27402 L117.57318,84.64034 L121.41644,84.056335"/>
<path d="M153.78308,42.53788 L153.67863,41.789593 L116.24623,47.014286 L121.470924,84.44669 L125.32376,83.90893"/>
<path d="M158.18695,42.690918 L158.09789,41.989784 L120.603905,46.75252 L125.36664,84.246506 L129.2292,83.75585"/>
<path d="M162.5923,42.8478 L162.5177,42.195618 L124.96722,46.49018 L129.26178,84.040665 L133.13411,83.5978"/>
<path d="M166.99788,43.007866 L166.9367,42.406155 L129.33524,46.228657 L133.15773,83.83013 L137.03978,83.435486"/>
<path d="M171.4025,43.17041 L171.35358,42.620403 L133.70695,45.96927 L137.05583,83.61588 L140.94743,83.26971"/>
<path d="M175.80502,43.334686 L175.76706,42.837334 L138.08138,45.71326 L140.95729,83.39896 L144.85826,83.10126"/>
<path d="M180.20433,43.49992 L180.17601,43.055878 L142.4574,45.461792 L144.86331,83.18041 L148.77339,82.931"/>
<path d="M151.21043,44.990894 L146.83394,45.21595 L148.77495,82.96134 L154.0906,82.687996"/>
<path d="M152.37837,44.930836 L155.58467,44.765953"/>
<path d="M156.4554,44.72118 L159.95575,44.541176"/>
<path d="M160.50197,44.51309 L164.32283,44.316605"/>
<path d="M164.51633,44.306656 L184.57933,43.27494 L184.599,43.657444"/>
<path d="M155.58574,44.80486 L151.20988,44.976727 L152.6932,82.74288 L161.88174,82.38199"/>
<path d="M172.79904,44.128784 L173.03746,44.11942"/>
<path d="M176.80035,43.971626 L177.38367,43.948715"/>
<path d="M180.76942,43.815735 L181.72177,43.778328"/>
<path d="M184.70377,43.661205 L186.05109,43.608288"/>
<path d="M188.60057,43.508156 L188.97603,43.49341 L188.97728,43.525013"/>
<path d="M159.95708,44.62526 L155.5841,44.745045 L156.619,82.526146 L169.71942,82.1673"/>
<path d="M164.32346,44.452644 L159.95544,44.521732 L160.55318,82.31228 L177.63997,82.04202"/>
<path d="M168.68384,44.287506 L164.32278,44.307545 L164.49646,82.10242 L185.68422,82.00506"/>
<path d="M193.89975,82.05624 L168.44955,81.89769 L168.685,44.103153 L173.03728,44.13027"/>
<path d="M202.344,82.19654 L172.41304,81.69921 L173.04095,43.90916 L177.3828,43.981304"/>
<path d="M211.08853,82.42848 L176.38744,81.50807 L177.38957,43.726086 L181.71951,43.840935"/>
<path d="M218.1448,82.66353 L218.14415,82.68189 L180.37323,81.32531 L181.72981,43.554394 L186.04655,43.709435"/>
<path d="M222.13112,82.77802 L222.12827,82.841805 L184.37079,81.151955 L186.06065,43.394478 L190.36308,43.587036"/>
<path d="M226.12843,82.88244 L226.12276,82.98961 L188.38048,80.98896 L190.38112,43.246677 L194.66832,43.473934"/>
<path d="M230.13751,82.97666 L230.12852,83.12501 L192.40256,80.83725 L194.6903,43.11128 L198.96156,43.370296"/>
<path d="M234.15907,83.06062 L234.14641,83.247765 L196.43727,80.69766 L198.98738,42.988518 L203.24213,43.27625"/>
<path d="M238.19374,83.134254 L238.17722,83.3577 L200.48483,80.57099 L203.27153,42.878593 L207.50943,43.191914"/>
<path d="M242.24211,83.19753 L242.22166,83.45463 L204.54538,80.45795 L207.54205,42.781662 L211.7629,43.11738"/>
<path d="M246.30467,83.25045 L246.28036,83.53844 L208.61905,80.35917 L211.79831,42.697853 L216.00206,43.052723"/>
<path d="M250.38187,83.293015 L250.3539,83.60902 L212.70593,80.275215 L216.03973,42.627266 L220.22653,42.998016"/>
<path d="M254.47408,83.32523 L254.44272,83.666306 L216.80614,80.206566 L220.26587,42.56998 L224.43593,42.953312"/>
<path d="M258.58154,83.34714 L258.54724,83.710236 L220.91968,80.1536 L224.47632,42.52605 L228.63,42.918667"/>
<path d="M262.70453,83.35875 L262.66776,83.74077 L225.04663,80.11663 L228.67076,42.495518 L232.80855,42.894123"/>
<path d="M266.84317,83.36012 L266.80444,83.75787 L229.18701,80.095856 L232.84901,42.478413 L236.97145,42.879726"/>
<path d="M270.9975,83.35128 L270.95746,83.76154 L233.34082,80.0914 L237.01096,42.474747 L241.11864,42.87552"/>
<path d="M275.1675,83.33226 L275.12683,83.75176 L237.50807,80.10328 L241.15656,42.484524 L245.25014,42.881542"/>
<path d="M279.35315,83.30312 L279.31247,83.72855 L241.68877,80.13144 L245.28587,42.507736 L249.36606,42.89783"/>
<path d="M283.55423,83.2639 L283.51422,83.691925 L245.88287,80.17571 L249.39908,42.54436 L253.46657,42.92442"/>
<path d="M287.7705,83.21464 L287.73184,83.64192 L250.09036,80.23585 L253.49643,42.594368 L257.5519,42.961334"/>
<path d="M292.0017,83.1554 L291.96497,83.57858 L254.31117,80.31151 L257.57825,42.657707 L261.6224,43.008602"/>
<path d="M296.2474,83.08625 L296.21323,83.50197 L258.54526,80.40226 L261.645,42.734314 L265.67847,43.06623"/>
<path d="M300.50723,83.00725 L300.476,83.412186 L262.79254,80.5076 L265.6971,42.8241 L269.72052,43.13422"/>
<path d="M304.78064,82.91849 L304.75284,83.309326 L267.05286,80.62692 L269.7353,42.926956 L273.74918,43.21255"/>
<path d="M309.06705,82.82007 L309.04294,83.19355 L271.32614,80.75955 L273.76013,43.04274 L277.76495,43.301186"/>
<path d="M313.3658,82.712105 L313.3456,83.06502 L275.61215,80.904755 L277.7724,43.171272 L281.76862,43.400055"/>
<path d="M317.6763,82.59476 L317.66006,82.92395 L279.91068,81.06171 L281.77292,43.31234 L285.76083,43.509068"/>
<path d="M288.54434,81.40593 L284.22153,81.22952 L285.7626,43.465683 L290.062,43.641136"/>
<path d="M288.69244,81.41197 L292.87894,81.58282"/>
<path d="M293.47498,81.60714 L297.2246,81.760155"/>
<path d="M298.20987,81.80036 L301.58063,81.93792"/>
<path d="M302.9019,81.99184 L305.94617,82.11607"/>
<path d="M307.55496,82.181725 L310.32043,82.29458"/>
<path d="M312.1724,82.370155 L314.7026,82.473404"/>
<path d="M316.75693,82.557236 L319.09177,82.65252"/>
<path d="M321.3108,82.74307 L321.98535,82.7706 L321.9877,82.71277"/>
<path d="M292.8798,81.54477 L288.5443,81.40728 L289.7423,43.630997 L299.00745,43.924828"/>
<path d="M297.22546,81.68996 L292.8787,81.59397 L293.7131,43.807915 L307.6055,44.11469"/>
<path d="M301.58075,81.84065 L297.22427,81.78858 L297.67596,43.996014 L315.9379,44.214275"/>
<path d="M305.945,81.99598 L301.58054,81.990036 L301.632,44.194805 L324.06912,44.22534"/>
<path d="M332.0517,44.14832 L305.58228,44.40373 L305.94696,82.197235 L310.3175,82.15507"/>
<path d="M339.92984,43.982586 L309.52792,44.62215 L310.32285,82.40906 L314.69748,82.31703"/>
<path d="M347.74207,43.72667 L313.4701,44.849365 L314.70755,82.624374 L319.08408,82.481"/>
<path d="M355.16757,43.3986 L355.16736,43.39425 L317.4099,45.084583 L319.10025,82.84203 L323.47644,82.646126"/>
<path d="M359.08548,43.22773 L359.0825,43.175373 L321.3485,45.326935 L323.5001,83.06091 L327.87357,82.81154"/>
<path d="M362.9985,43.058186 L362.99146,42.95641 L325.28702,45.575462 L327.9061,83.27988 L332.27444,82.97644"/>
<path d="M369.98593,80.40716 L366.89526,42.738464 L329.22656,45.829132 L332.31723,83.497826 L369.98593,80.40716"/>
<path d="M43.001118,151.38016 L41.029793,153.89894 L11.266435,130.60463 L34.56075,100.84127 L36.588665,102.42841"/>
<path d="M48.06039,151.27538 L46.2916,153.74083 L15.582016,131.70895 L37.613903,100.99937 L39.80606,102.57208"/>
<path d="M53.08728,151.14555 L51.508717,153.54446 L19.935862,132.76859 L40.711742,101.19573 L43.060585,102.74134"/>
<path d="M58.081696,150.99348 L56.680645,153.31458 L24.32324,133.78304 L43.854774,101.42564 L46.35208,102.93305"/>
<path d="M63.04369,150.82182 L61.807236,153.05563 L28.739656,134.75215 L47.04314,101.68457 L49.680252,103.14426"/>
<path d="M67.97343,150.63309 L66.888664,152.77191 L33.180866,135.6761 L50.276672,101.9683 L53.04467,103.37216"/>
<path d="M72.87118,150.42966 L71.925385,152.46736 L37.642883,136.55534 L53.554913,102.272835 L56.444786,103.61416"/>
<path d="M77.73732,150.21378 L76.918076,152.14574 L42.121998,137.39055 L56.87718,102.594475 L59.879955,103.86779"/>
<path d="M82.57232,149.98756 L81.867645,151.81044 L46.614765,138.18263 L60.24257,102.92976 L63.34944,104.13079"/>
<path d="M87.37673,149.75299 L86.77515,151.46468 L51.11801,138.93266 L63.650032,103.27553 L66.85243,104.40104"/>
<path d="M92.15115,149.51193 L91.64177,151.11134 L55.628826,139.64182 L67.09836,103.62886 L70.38806,104.676575"/>
<path d="M96.896286,149.26611 L96.46884,150.7531 L60.144558,140.3114 L70.58625,103.987114 L73.95539,104.9556"/>
<path d="M101.61285,149.01712 L101.25774,150.39232 L64.6628,140.94281 L74.11231,104.34788 L77.553444,105.23645"/>
<path d="M106.30162,148.76642 L106.009926,150.0312 L69.181404,141.53752 L77.67509,104.709 L81.18122,105.51762"/>
<path d="M110.96342,148.51537 L110.72688,149.67166 L73.698425,142.097 L81.27309,105.06854 L84.837685,105.79773"/>
<path d="M115.5991,148.26521 L115.41014,149.31543 L78.21214,142.62277 L84.904785,105.42478 L88.52179,106.075554"/>
<path d="M120.20952,148.01704 L120.06122,148.96399 L82.721054,143.11638 L88.56867,105.776215 L92.232475,106.34998"/>
<path d="M124.79556,147.77188 L124.68164,148.6187 L87.22383,143.57932 L92.263214,106.12151 L95.96867,106.620026"/>
<path d="M129.35814,147.53061 L129.27289,148.28067 L91.71933,144.01309 L95.986916,106.459526 L99.72934,106.88482"/>
<path d="M133.89812,147.29404 L133.83647,147.95093 L96.206566,144.41919 L99.738304,106.78928 L103.51341,107.14359"/>
<path d="M105.15418,145.13478 L100.684715,144.79903 L103.51594,107.109955 L108.74168,107.50251"/>
<path d="M106.2432,145.21658 L109.61175,145.46964"/>
<path d="M110.07316,145.50429 L138.3738,147.63025 L138.41641,147.06287"/>
<path d="M109.61417,145.41003 L105.153076,145.15402 L107.31842,107.42084 L115.96964,107.91729"/>
<path d="M118.032234,145.89311 L118.496,145.91972"/>
<path d="M121.9263,146.11656 L122.91832,146.1735"/>
<path d="M125.80213,146.33899 L127.329124,146.4266"/>
<path d="M129.65944,146.56033 L131.729,146.67911"/>
<path d="M133.49796,146.78061 L136.11847,146.931"/>
<path d="M137.31735,146.99979 L140.49797,147.18231"/>
<path d="M141.11728,147.21785 L142.88628,147.31937 L142.89757,147.12256"/>
<path d="M114.06151,145.66623 L109.6111,145.48553 L111.144394,107.72138 L123.40178,108.21905"/>
<path d="M118.49615,145.90457 L114.05833,145.79485 L114.99255,108.01112 L131.05092,108.40818"/>
<path d="M122.918106,146.1262 L118.494415,146.08322 L118.861664,108.289734 L138.93248,108.48477"/>
<path d="M147.06485,108.448494 L122.75052,108.55695 L122.91911,146.35185 L127.32744,146.33218"/>
<path d="M155.46973,108.29852 L126.65798,108.81261 L127.332245,146.60187 L131.72426,146.5235"/>
<path d="M164.17273,108.033424 L130.58296,109.05661 L131.73373,146.83435 L136.10873,146.70108"/>
<path d="M172.28632,107.7001 L172.28589,107.68986 L134.52446,109.28892 L136.12352,147.05034 L140.48103,146.86581"/>
<path d="M176.22629,107.556145 L176.22272,107.489395 L138.48148,109.50957 L140.50165,147.25081 L144.8414,147.01851"/>
<path d="M180.17882,107.42346 L180.17114,107.30356 L142.45311,109.71862 L144.86818,147.43665 L149.19008,147.15993"/>
<path d="M184.1436,107.30131 L184.13104,107.13147 L146.4385,109.91619 L149.22324,147.60873 L153.52731,147.29076"/>
<path d="M188.12029,107.18901 L188.10228,106.972336 L150.43684,110.10244 L153.56696,147.76787 L157.85338,147.41165"/>
<path d="M192.10857,107.08592 L192.08467,106.82539 L154.44739,110.27753 L157.89952,147.91481 L162.16856,147.52325"/>
<path d="M196.10811,106.99147 L196.07803,106.68994 L158.46942,110.44166 L162.22113,148.05026 L166.47314,147.6261"/>
<path d="M200.11856,106.9051 L200.08212,106.56533 L162.50229,110.59504 L166.532,148.17488 L170.76744,147.7207"/>
<path d="M204.13959,106.82633 L204.09674,106.45094 L166.54538,110.73791 L170.83235,148.28926 L175.0517,147.80757"/>
<path d="M208.17088,106.754715 L208.12163,106.346214 L170.59813,110.87049 L175.1224,148.394 L179.32623,147.88713"/>
<path d="M212.21213,106.68983 L212.15657,106.25062 L174.66002,110.99303 L179.40242,148.48958 L183.5913,147.9598"/>
<path d="M216.263,106.6313 L216.20132,106.16369 L178.73056,111.10575 L183.67262,148.57652 L187.84715,148.02594"/>
<path d="M220.32323,106.578804 L220.25566,106.08498 L182.80933,111.2089 L187.93326,148.65523 L192.09406,148.08589"/>
<path d="M224.39253,106.53202 L224.31934,106.014084 L186.89592,111.3027 L192.18452,148.72612 L196.33226,148.13997"/>
<path d="M228.47066,106.490685 L228.39215,105.950645 L190.98996,111.38736 L196.42668,148.78957 L200.56197,148.18846"/>
<path d="M232.55736,106.45455 L232.47389,105.89433 L195.09113,111.463104 L200.6599,148.84587 L204.78339,148.23161"/>
<path d="M236.6524,106.42341 L236.56438,105.84487 L199.19914,111.530106 L204.88438,148.89534 L208.99672,148.26964"/>
<path d="M240.7556,106.39707 L240.6634,105.80198 L203.31374,111.58855 L209.1003,148.93822 L213.20212,148.30273"/>
<path d="M244.86679,106.37538 L244.77084,105.76546 L207.4347,111.638596 L213.30783,148.97475 L217.39972,148.33107"/>
<path d="M248.9858,106.35821 L248.88655,105.73509 L211.56181,111.680374 L217.50708,149.00511 L221.58966,148.35481"/>
<path d="M253.1125,106.34545 L253.01039,105.71074 L215.69493,111.71401 L221.69821,149.02946 L225.77205,148.37407"/>
<path d="M257.2468,106.33702 L257.14227,105.69226 L219.83394,111.73961 L225.88127,149.04794 L229.94695,148.38893"/>
<path d="M261.38858,106.33287 L261.28214,105.679565 L223.97871,111.75723 L230.05638,149.06064 L234.11441,148.39949"/>
<path d="M265.5378,106.33296 L265.4299,105.672585 L228.12921,111.76694 L234.22357,149.06763 L238.27446,148.40578"/>
<path d="M269.69443,106.33729 L269.58557,105.67127 L232.28539,111.76876 L238.38287,149.06894 L242.42712,148.40782"/>
<path d="M273.85846,106.345856 L273.74908,105.67563 L236.44722,111.7627 L242.53429,149.06458 L246.57236,148.40562"/>
<path d="M278.0299,106.35871 L277.92053,105.68568 L240.61475,111.74874 L246.67781,149.05453 L250.71013,148.39919"/>
<path d="M282.20883,106.375916 L282.0999,105.70146 L244.78801,111.72685 L250.8134,149.03874 L254.84036,148.38844"/>
<path d="M286.39523,106.39755 L286.28726,105.723076 L248.9671,111.69696 L254.941,149.01714 L258.96295,148.37334"/>
<path d="M290.58926,106.42373 L290.48273,105.75062 L253.15213,111.65899 L259.0605,148.9896 L263.07782,148.35376"/>
<path d="M294.79102,106.454575 L294.68637,105.78424 L257.34323,111.61282 L263.1718,148.95596 L267.18478,148.3296"/>
<path d="M299.00058,106.49026 L298.89835,105.82412 L261.5406,111.558334 L267.2748,148.91608 L271.2837,148.30074"/>
<path d="M303.21817,106.53095 L303.11877,105.87046 L265.74442,111.495384 L271.36932,148.86974 L275.37436,148.26698"/>
<path d="M307.44394,106.57687 L307.34784,105.92351 L269.95493,111.4238 L275.45523,148.8167 L279.45657,148.22812"/>
<path d="M311.67807,106.62826 L311.58572,105.98352 L274.17242,111.3434 L279.53232,148.75668 L283.53012,148.18396"/>
<path d="M315.9208,106.68536 L315.8326,106.05082 L278.39722,111.25398 L283.60037,148.68939 L287.59473,148.13422"/>
<path d="M320.17233,106.74849 L320.0887,106.12574 L282.6296,111.15535 L287.6592,148.61446 L291.65015,148.0786"/>
<path d="M324.43292,106.817955 L324.35428,106.20867 L286.87003,111.047264 L291.70862,148.53154 L295.69608,148.01682"/>
<path d="M328.70285,106.89413 L328.62952,106.300026 L291.11887,110.92951 L295.74835,148.44019 L299.73227,147.94849"/>
<path d="M332.98233,106.97738 L332.91467,106.40026 L295.37656,110.80185 L299.77817,148.33994 L303.75833,147.87325"/>
<path d="M337.2717,107.06815 L337.20996,106.50989 L299.64368,110.66404 L303.79782,148.23032 L307.77402,147.79062"/>
<path d="M341.57117,107.16689 L341.51563,106.62943 L303.9207,110.515854 L307.80713,148.11078 L311.779,147.70018"/>
<path d="M345.8811,107.27412 L345.83188,106.75948 L308.20822,110.357056 L311.80582,147.98071 L315.77286,147.6014"/>
<path d="M350.20175,107.39035 L350.159,106.90069 L312.5069,110.18743 L315.79367,147.83952 L319.75537,147.4937"/>
<path d="M354.5334,107.51618 L354.49713,107.0537 L316.8174,110.006775 L319.77048,147.6865 L323.72614,147.37648"/>
<path d="M358.8763,107.65225 L358.8465,107.21928 L321.14047,109.81489 L323.73608,147.52094 L327.68484,147.2491"/>
<path d="M363.23077,107.79923 L363.20724,107.39818 L325.47684,109.611626 L327.69028,147.34203 L331.63116,147.11084"/>
<path d="M369.3851,145.34335 L367.5795,107.59124 L329.8274,109.39684 L331.633,147.14896 L369.3851,145.34335"/>
<path d="M23.872103,210.14784 L18.390606,209.99869 L19.418648,172.21739 L40.219845,172.7834"/>
<path d="M47.207165,172.468 L22.222189,173.5958 L23.926485,211.35262 L29.359129,211.1074"/>
<path d="M54.202236,171.65134 L25.148691,175.0433 L29.531475,212.5836 L34.86795,211.96057"/>
<path d="M61.135323,170.34573 L28.199266,176.54808 L35.19372,213.6905 L40.39079,212.71182"/>
<path d="M67.94227,168.57253 L31.37399,178.09862 L40.90175,214.67326 L45.92081,213.36578"/>
<path d="M70.61046,167.97977 L70.52081,167.71135 L34.67196,179.68391 L46.644527,215.53278 L51.452023,213.9272"/>
<path d="M73.279045,167.48692 L73.06877,166.97331 L38.0914,181.29344 L52.411526,216.27081 L56.9792,214.40076"/>
<path d="M75.959564,167.08661 L75.60246,166.35416 L41.629723,182.91722 L58.19279,216.88997 L62.497776,214.7911"/>
<path d="M78.65663,166.77365 L78.131256,165.85057 L45.283623,184.54591 L63.97896,217.39354 L68.00378,215.10281"/>
<path d="M81.37428,166.54301 L80.66386,165.45863 L49.04916,186.17079 L69.761314,217.78549 L73.49371,215.34023"/>
<path d="M84.11605,166.38974 L83.20833,165.17383 L52.921833,187.7838 L75.53181,218.0703 L78.96454,215.50763"/>
<path d="M86.885025,166.30905 L85.77204,164.99118 L56.89667,189.37756 L81.28305,218.25293 L84.41354,215.60912"/>
<path d="M89.68394,166.2963 L88.361694,164.90533 L60.968304,190.9454 L87.00836,218.33879 L89.83834,215.64862"/>
<path d="M95.236786,215.62997 L92.70173,218.33354 L65.13103,192.4813 L90.983284,164.91058 L92.51516,166.34698"/>
<path d="M100.60697,215.55687 L98.35784,218.24313 L69.37891,193.97992 L93.64213,165.00099 L95.380806,166.45673"/>
<path d="M105.94716,215.43294 L103.972046,218.07372 L73.70581,195.43665 L96.34289,165.17041 L98.282715,166.62126"/>
<path d="M111.255806,215.2617 L109.54034,217.83154 L78.10547,196.84744 L99.089554,165.41258 L101.22251,166.83643"/>
<path d="M116.531494,215.04663 L115.05935,217.5229 L82.57158,198.20898 L101.885506,165.72122 L104.201614,167.09814"/>
<path d="M121.772964,214.79114 L120.52632,217.15416 L87.09781,199.51848 L104.73349,166.08997 L107.22122,167.4024"/>
<path d="M126.97912,214.49861 L125.93907,216.73158 L91.677864,200.77374 L107.6357,166.51254 L110.28239,167.7453"/>
<path d="M132.14896,214.17244 L131.29594,216.26138 L96.30554,201.97314 L110.59378,166.98274 L113.38596,168.12292"/>
<path d="M137.28166,213.81596 L136.59583,215.74966 L100.97474,203.11554 L113.608864,167.49446 L116.532616,168.53146"/>
<path d="M142.37654,213.43253 L141.83803,215.20235 L105.679535,204.20027 L116.68162,168.04178 L119.72287,168.96715"/>
<path d="M147.43303,213.02542 L147.02234,214.6252 L110.41417,205.2271 L119.81227,168.61893 L122.95706,169.42625"/>
<path d="M152.45074,212.59799 L152.14893,214.02376 L115.173096,206.1962 L123.00065,169.22037 L126.23535,169.90514"/>
<path d="M131.42734,170.71599 L126.24622,169.84079 L119.95099,207.10811 L124.74858,207.91852"/>
<path d="M125.87483,208.10876 L129.5468,208.72903"/>
<path d="M129.9893,208.80379 L157.2183,213.40334 L157.42943,212.15349"/>
<path d="M129.56,208.58113 L124.74279,207.96365 L129.54814,170.47511 L138.38492,171.60782"/>
<path d="M134.29991,209.1887 L134.36542,209.1971"/>
<path d="M138.49661,209.72665 L139.16122,209.81184"/>
<path d="M142.68103,210.26302 L143.94917,210.42557"/>
<path d="M146.85178,210.79762 L148.7306,211.03847"/>
<path d="M151.00731,211.33029 L153.50647,211.65063"/>
<path d="M155.14604,211.86081 L158.27737,212.26218"/>
<path d="M159.26619,212.38893 L162.23134,212.76901 L162.32373,212.04825"/>
<path d="M134.36554,209.19456 L129.54367,208.76399 L132.90529,171.11852 L145.55142,172.24777"/>
<path d="M139.16206,209.76134 L134.34908,209.51048 L136.31628,171.76643 L152.92131,172.63188"/>
<path d="M143.94669,210.28394 L139.15472,210.20471 L139.77953,172.41461 L160.49347,172.75708"/>
<path d="M168.27193,172.62054 L143.29327,173.059 L143.9566,210.84845 L148.71687,210.7649"/>
<path d="M176.26672,172.21912 L146.85562,173.69588 L148.75095,211.44359 L153.47029,211.20662"/>
<path d="M184.495,171.5486 L150.46454,174.32175 L153.5343,211.99214 L158.20486,211.61154"/>
<path d="M191.68484,170.78459 L191.68076,170.74791 L154.11795,174.93341 L158.30345,212.49622 L162.91873,211.98195"/>
<path d="M195.2681,170.46013 L195.24374,170.2862 L157.81372,175.5279 L163.05542,212.95793 L167.61023,212.32007"/>
<path d="M198.87743,170.16826 L198.82661,169.86465 L161.54965,176.10251 L167.7875,213.37947 L172.27783,212.62807"/>
<path d="M202.51411,169.9067 L202.43185,169.48112 L165.32361,176.65475 L172.49722,213.763 L176.92021,212.90796"/>
<path d="M206.17935,169.6733 L206.06169,169.13345 L169.13342,177.18239 L177.18234,214.11066 L181.53616,213.1617"/>
<path d="M209.87413,169.46602 L209.71817,168.81955 L172.97699,177.6834 L181.84084,214.42458 L186.12462,213.39111"/>
<path d="M213.59933,169.28297 L213.40312,168.53734 L176.85226,178.15593 L186.47084,214.70679 L190.68462,213.5979"/>
<path d="M217.35573,169.12238 L217.11818,168.28488 L180.75728,178.59834 L191.07074,214.95924 L195.2153,213.78368"/>
<path d="M221.14395,168.98259 L220.86479,168.06029 L184.69017,179.0092 L195.63908,215.18384 L199.71591,213.9499"/>
<path d="M224.96455,168.8621 L224.64427,167.86182 L188.64917,179.3872 L200.17456,215.38231 L204.18579,214.09795"/>
<path d="M228.81802,168.75954 L228.45773,167.68779 L192.63263,179.73122 L204.67606,215.55634 L208.62431,214.22903"/>
<path d="M232.70474,168.67366 L232.30618,167.53673 L196.63905,180.04025 L209.14258,215.7074 L213.03098,214.34427"/>
<path d="M236.62502,168.60336 L236.19044,167.40726 L200.66705,180.31348 L213.57327,215.83687 L217.4053,214.44463"/>
<path d="M240.57909,168.54768 L240.11127,167.29813 L204.71541,180.55013 L217.9674,215.946 L221.74689,214.53098"/>
<path d="M244.56715,168.50578 L244.06924,167.20831 L208.78307,180.74963 L222.32439,216.03581 L226.05539,214.60402"/>
<path d="M248.58936,168.47697 L248.06488,167.13687 L212.86911,180.91147 L226.6437,216.10725 L230.33049,214.66435"/>
<path d="M252.64578,168.46071 L252.09857,167.0831 L216.97281,181.03526 L230.92497,216.16103 L234.57195,214.71243"/>
<path d="M256.73642,168.45659 L256.17062,167.04642 L221.0936,181.1207 L235.1679,216.19771 L238.77954,214.74858"/>
<path d="M260.86133,168.46431 L260.28122,167.02643 L225.2311,181.16759 L239.37227,216.2177 L242.95313,214.77298"/>
<path d="M265.0204,168.48373 L264.43045,167.02293 L229.38509,181.17583 L243.53798,216.22119 L247.09256,214.78569"/>
<path d="M269.21353,168.51486 L268.61838,167.03587 L233.55551,181.14537 L247.66501,216.20824 L251.1978,214.78664"/>
<path d="M273.4406,168.55783 L272.8449,167.06541 L237.74254,181.07632 L251.75343,216.1787 L255.26878,214.77557"/>
<path d="M277.70142,168.61292 L277.1099,167.11186 L241.94646,180.96881 L255.8034,216.13225 L259.3055,214.75217"/>
<path d="M281.99576,168.6805 L281.4131,167.1757 L246.16779,180.82312 L259.8152,216.0684 L263.3081,214.71591"/>
<path d="M286.3233,168.76111 L285.7541,167.25761 L250.40717,180.63957 L263.78912,215.98651 L267.2766,214.66618"/>
<path d="M290.68378,168.85542 L290.1325,167.35841 L254.66545,180.41864 L267.72568,215.88571 L271.2112,214.6022"/>
<path d="M295.07675,168.96423 L294.54776,167.47911 L258.94363,180.16086 L271.62537,215.76501 L275.11212,214.52307"/>
<path d="M299.50183,169.08847 L298.99918,167.62085 L263.24283,179.86693 L275.48892,215.62328 L278.97964,214.42775"/>
<path d="M303.95847,169.22917 L303.48596,167.78494 L267.56442,179.53764 L279.3171,215.45917 L282.81415,214.31503"/>
<path d="M308.44614,169.38754 L308.00717,167.97285 L271.90982,179.1739 L283.11087,215.27126 L286.61603,214.18361"/>
<path d="M312.9642,169.56487 L312.56174,168.18617 L276.2806,178.77681 L286.87125,215.05795 L290.3858,214.03203"/>
<path d="M317.5119,169.76257 L317.14847,168.4266 L280.67853,178.34756 L290.59946,214.8175 L294.12408,213.8587"/>
<path d="M322.08844,169.98222 L321.76596,168.696 L285.10538,177.88756 L294.29694,214.54813 L297.8316,213.66191"/>
<path d="M326.69293,170.22546 L326.41266,168.99626 L289.5631,177.39835 L297.9652,214.24786 L301.5092,213.4398"/>
<path d="M331.3243,170.4941 L331.0868,169.3294 L294.05377,176.88167 L301.60602,213.91472 L305.15775,213.1904"/>
<path d="M335.98148,170.79 L335.78647,169.69754 L298.57938,176.3395 L305.2213,213.54659 L308.7784,212.91159"/>
<path d="M340.66312,171.11517 L340.50946,170.10278 L303.1421,175.77397 L308.81326,213.14133 L312.3724,212.60117"/>
<path d="M312.3904,174.61269 L307.7441,175.18745 L312.38425,212.69681 L317.51947,212.06155"/>
<path d="M313.4239,174.48483 L317.0791,174.03265"/>
<path d="M318.25626,173.88704 L321.81116,173.44727"/>
<path d="M323.0911,173.28894 L326.5877,172.85638"/>
<path d="M327.93094,172.69022 L331.41028,172.2598"/>
<path d="M332.77835,172.09056 L345.25345,170.54732 L345.3678,171.47171"/>
<path d="M317.0859,174.1394 L312.38757,174.58258 L315.93686,212.21083 L325.85376,211.27542"/>
<path d="M337.11166,172.25047 L350.0158,171.0333 L350.09396,171.86183"/>
<path d="M321.81787,173.66048 L317.07465,173.9622 L319.47394,211.68123 L333.94473,210.76074"/>
<path d="M341.461,172.41098 L354.79367,171.56288 L354.83978,172.28781"/>
<path d="M326.58707,173.1787 L321.80743,173.32942 L322.99863,211.10591 L341.81296,210.51263"/>
<path d="M345.8257,172.57205 L359.58392,172.13821 L359.6033,172.752"/>
<path d="M349.47128,210.52757 L326.5143,210.48279 L326.58804,172.68759 L331.39413,172.69698"/>
<path d="M364.38226,173.25684 L364.38324,172.76132 L350.2053,172.73367"/>
<path d="M369.18793,173.43419 L367.79413,211.20375 L330.02457,209.80994 L331.41837,172.04037 L369.18793,173.43419"/>
<path d="M47.829838,233.79163 L14.795709,242.26294 L24.184193,278.8736 L29.507826,277.5084"/>
<path d="M53.549625,231.8188 L53.539997,231.7913 L17.87004,244.28677 L30.365501,279.95673 L35.413986,278.1882"/>
<path d="M55.75741,231.22331 L55.609516,230.89394 L21.130142,246.37473 L36.610943,280.8541 L41.333363,278.7338"/>
<path d="M57.960567,230.77483 L57.632824,230.18362 L24.577316,248.50891 L42.902596,281.56442 L47.257824,279.14996"/>
<path d="M60.167984,230.4681 L59.62749,229.65996 L28.211123,250.67172 L49.22289,282.08807 L53.180172,279.4414"/>
<path d="M62.38769,230.29796 L61.610588,229.32082 L32.02946,252.8461 L55.55475,282.42722 L59.093945,279.61258"/>
<path d="M64.62705,230.25934 L63.59853,229.16252 L36.028645,255.01564 L61.881767,282.5855 L64.99327,279.6678"/>
<path d="M70.87268,279.61102 L68.18835,282.5681 L40.20352,257.16473 L65.60691,229.17992 L66.89289,230.34727"/>
<path d="M76.727005,279.44614 L74.459816,282.38156 L44.547577,259.27872 L67.6504,229.36649 L69.19161,230.55685"/>
<path d="M82.55122,279.1768 L80.68256,282.03354 L49.053066,261.344 L69.74261,229.7145 L71.52933,230.88322"/>
<path d="M88.3404,278.8067 L86.84412,281.53293 L53.711155,263.34805 L71.89602,230.2151 L73.91191,231.32152"/>
<path d="M94.08965,278.33948 L92.93322,280.8895 L58.512062,265.2797 L74.12187,230.85854 L76.345055,231.86673"/>
<path d="M99.79409,277.77896 L98.93993,280.11383 L63.44522,267.12894 L76.430115,231.63422 L79.062035,232.59703"/>
<path d="M85.17403,234.33365 L78.82938,232.53093 L68.49942,268.88715 L73.700676,270.365"/>
<path d="M76.16519,271.06525 L78.956505,271.85834"/>
<path d="M80.60965,272.32806 L84.28106,273.37122"/>
<path d="M85.09138,273.60144 L104.85564,279.2171 L105.44887,277.12924"/>
<path d="M91.61264,235.66695 L81.32692,233.537 L73.662964,270.5471 L78.98447,271.64905"/>
<path d="M94.47193,274.85614 L95.085815,274.98328"/>
<path d="M99.1091,275.8164 L100.54264,276.11325"/>
<path d="M103.77028,276.78165 L106.0666,277.25714"/>
<path d="M108.45521,277.75177 L110.67305,278.21103 L110.87155,277.25247"/>
<path d="M84.31548,272.82312 L78.92384,272.10284 L83.92865,234.6404 L98.31413,236.56223"/>
<path d="M89.68274,273.88983 L84.26984,273.54987 L86.639114,235.82892 L105.21422,236.99564"/>
<path d="M112.24993,236.95334 L89.46154,237.09032 L89.68872,274.88492 L95.07621,274.8525"/>
<path d="M119.361206,236.43066 L92.39787,238.41246 L95.16834,276.10605 L100.486824,275.71515"/>
<path d="M126.4923,235.43082 L95.44884,239.78342 L100.69678,277.21255 L105.90645,276.48212"/>
<path d="M133.59288,233.96355 L98.614,241.1916 L106.26244,278.2049 L111.327805,277.15817"/>
<path d="M138.38863,232.80302 L138.35051,232.66351 L101.891846,242.62585 L111.85418,279.08453 L116.74443,277.74826"/>
<path d="M141.19035,232.28197 L141.05829,231.89409 L105.279884,244.07556 L117.46136,279.85397 L122.1506,278.25742"/>
<path d="M144.01181,231.84595 L143.76065,231.23145 L108.77473,245.53067 L123.07396,280.5166 L127.541245,278.69077"/>
<path d="M146.85815,231.48917 L146.46696,230.67143 L112.3722,246.98183 L128.6826,281.0766 L132.9119,279.05338"/>
<path d="M149.73395,231.20581 L149.18591,230.20918 L116.06742,248.42036 L134.27861,281.53888 L138.25859,279.35034"/>
<path d="M152.64313,230.99011 L151.92542,229.8392 L119.85492,249.83835 L139.85406,281.90884 L143.57788,279.58667"/>
<path d="M155.58917,230.83641 L154.69264,229.55556 L123.72876,251.22859 L145.4018,282.19247 L148.86665,279.76727"/>
<path d="M158.57509,230.7391 L157.49402,229.35193 L127.6826,252.58472 L150.91539,282.39612 L154.12222,279.89694"/>
<path d="M161.60345,230.69273 L160.33516,229.22165 L131.70982,253.90103 L156.38919,282.5264 L159.34218,279.98047"/>
<path d="M164.67651,230.69191 L163.22101,229.15793 L135.80357,255.17267 L161.81831,282.59012 L164.52441,280.02246"/>
<path d="M169.66705,280.02747 L167.19855,282.59424 L139.95694,256.39542 L166.15575,229.15381 L167.79616,230.73143"/>
<path d="M174.76848,279.99994 L172.5264,282.54572 L144.16293,257.5658 L169.14284,229.20233 L170.96394,230.80618"/>
<path d="M179.82729,279.94424 L177.79903,282.4515 L148.41463,258.68094 L172.18518,229.29654 L174.18121,230.91124"/>
<path d="M184.84224,279.8646 L183.01416,282.31842 L152.70518,259.73862 L175.285,229.42963 L177.449,231.04178"/>
<path d="M189.8123,279.76517 L188.17012,282.15314 L157.02794,260.7371 L178.444,229.59491 L180.76813,231.19319"/>
<path d="M194.73662,279.64993 L193.2657,281.9621 L161.37646,261.6752 L181.66338,229.78595 L184.1392,231.361"/>
<path d="M199.61447,279.52286 L198.30016,281.7515 L165.74454,262.55215 L184.94388,229.99655 L187.56267,231.54094"/>
<path d="M204.44528,279.3876 L203.27309,281.52722 L170.12628,263.3676 L188.2859,230.22081 L191.03873,231.72896"/>
<path d="M209.2286,279.24783 L208.18448,281.2949 L174.51611,264.12152 L191.68948,230.45316 L194.5675,231.92117"/>
<path d="M213.96413,279.10696 L213.03453,281.05966 L178.90883,264.8141 L195.15437,230.68839 L198.14896,232.11395"/>
<path d="M218.65158,278.96817 L217.82373,280.82642 L183.29955,265.4458 L198.68015,230.92163 L201.78293,232.30392"/>
<path d="M223.29083,278.83453 L222.55267,280.59964 L187.6838,266.01727 L202.26617,231.1484 L205.46918,232.48793"/>
<path d="M227.8818,278.70886 L227.22208,280.38336 L192.05754,266.5292 L205.91171,231.36467 L209.20738,232.6631"/>
<path d="M232.42444,278.59372 L231.83276,280.18134 L196.41707,266.9824 L209.616,231.56671 L212.99721,232.82684"/>
<path d="M236.91873,278.49142 L236.38554,279.99677 L200.75912,267.37772 L213.37817,231.75128 L216.83823,232.97685"/>
<path d="M241.3647,278.40408 L240.88124,279.83255 L205.08081,267.7159 L217.19743,231.9155 L220.73004,233.11111"/>
<path d="M245.76233,278.33347 L245.3206,279.69113 L209.3797,267.9978 L221.07303,232.05692 L224.67224,233.2279"/>
<path d="M250.11162,278.28107 L249.70436,279.5746 L213.65372,268.2241 L225.00424,232.17345 L228.66443,233.32585"/>
<path d="M254.41255,278.2481 L254.03305,279.4846 L217.90121,268.3953 L228.9905,232.26346 L232.70625,233.40387"/>
<path d="M258.665,278.2355 L258.3072,279.42236 L222.12091,268.51193 L233.03133,232.32568 L236.79738,233.46117"/>
<path d="M262.86893,278.24387 L262.52704,279.38876 L226.31198,268.57434 L237.12643,232.35927 L240.93753,233.49733"/>
<path d="M267.0241,278.2735 L266.6928,279.38428 L230.47395,268.58264 L241.2756,232.36375 L245.12648,233.51222"/>
<path d="M271.1303,278.32434 L270.80453,279.40897 L234.60675,268.53687 L245.47884,232.33908 L249.36406,233.50601"/>
<path d="M275.1873,278.3961 L274.86206,279.46246 L238.71072,268.43692 L249.73628,232.28557 L253.65015,233.47923"/>
<path d="M279.19473,278.48804 L278.8651,279.54407 L242.78659,268.28247 L254.0482,232.20396 L257.98465,233.4327"/>
<path d="M283.15225,278.59924 L282.8132,279.65265 L246.8355,268.0731 L258.41507,232.09538 L262.36752,233.3675"/>
<path d="M287.05948,278.72836 L286.70584,279.78668 L250.85895,267.80823 L262.8374,231.96135 L266.7988,233.28508"/>
<path d="M290.91595,278.87384 L290.5423,279.9442 L254.85889,267.4872 L267.3159,231.80382 L271.27844,233.18713"/>
<path d="M294.7213,279.03372 L294.32184,280.12292 L258.83765,267.1093 L271.8513,231.6251 L275.8065,233.07565"/>
<path d="M298.4751,279.20578 L298.04367,280.32007 L262.798,266.67365 L276.44443,231.42796 L280.38293,232.95288"/>
<path d="M302.17694,279.38754 L301.70694,280.5325 L266.74307,266.1794 L281.09613,231.21555 L285.00778,232.82133"/>
<path d="M305.82648,279.57617 L305.3108,280.75662 L270.6764,265.6258 L285.80725,230.99141 L289.68097,232.68375"/>
<path d="M309.42346,279.76865 L308.85446,280.98853 L274.602,265.012 L290.57852,230.7595 L294.40237,232.54309"/>
<path d="M312.9677,279.96158 L312.33734,281.22382 L278.52417,264.33737 L295.4106,230.52422 L299.17178,232.40256"/>
<path d="M316.45908,280.1515 L315.75885,281.45776 L282.4477,263.6014 L300.30405,230.29027 L303.9889,232.2655"/>
<path d="M319.89764,280.3345 L319.11868,281.68524 L286.3777,262.80377 L305.2592,230.06279 L308.8533,232.1355"/>
<path d="M323.28363,280.50662 L322.4168,281.90076 L290.31967,261.94443 L310.27603,229.84727 L313.76453,232.01625"/>
<path d="M326.6173,280.6636 L325.65344,282.0985 L294.27942,261.0236 L315.35434,229.64954 L318.7219,231.91164"/>
<path d="M329.8993,280.80106 L328.82925,282.2723 L298.26306,260.0419 L320.4935,229.47572 L323.72455,231.82564"/>
<path d="M333.13028,280.91434 L331.94525,282.4158 L302.27707,259.00043 L325.69244,229.33223 L328.77155,231.76237"/>
<path d="M336.31128,280.99872 L335.00302,282.52237 L306.328,257.9007 L330.94965,229.2257 L333.8617,231.7261"/>
<path d="M339.44348,281.04926 L338.00458,282.5851 L310.4227,256.7448 L336.26303,229.16292 L338.99368,231.72115"/>
<path d="M344.16592,231.75197 L341.6299,229.15088 L314.56815,255.53539 L340.95267,282.59717 L342.5284,281.06085"/>
<path d="M349.37662,231.82309 L347.047,229.19656 L318.7713,254.27577 L343.85052,282.55148 L345.56784,281.0283"/>
<path d="M376.17328,258.77808 L352.5103,229.30698 L323.0392,252.96996 L346.70218,282.44107 L376.17328,258.77808"/>
<path d="M42.137806,301.1137 L18.430641,301.70718 L19.376465,339.4906 L24.899105,339.35236"/>
<path d="M48.987938,300.42255 L21.253443,303.22095 L25.047724,340.8253 L30.492786,340.27588"/>
<path d="M55.721413,299.22775 L24.201635,304.8206 L30.804846,342.03458 L36.119843,341.0915"/>
<path d="M62.262703,297.5564 L27.280066,306.49478 L36.636517,343.11362 L41.772617,341.8013"/>
<path d="M66.37422,296.35693 L66.31924,296.1933 L30.492517,308.23193 L42.53114,344.05865 L47.444115,342.40778"/>
<path d="M68.86659,295.8093 L68.68839,295.385 L33.8417,310.02026 L48.47694,344.86694 L53.12796,342.91357"/>
<path d="M71.35191,295.37122 L71.01822,294.71506 L37.32923,311.8479 L54.46208,345.5369 L58.81834,343.32147"/>
<path d="M73.8366,295.0397 L73.32051,294.18396 L40.95562,313.7031 L60.474747,346.068 L64.50994,343.63437"/>
<path d="M76.32661,294.8116 L75.60694,293.79117 L44.720303,315.57416 L66.50327,346.4608 L70.197876,343.85516"/>
<path d="M78.827484,294.6837 L77.888916,293.53503 L48.62164,317.44965 L72.53626,346.71692 L75.87762,343.98666"/>
<path d="M81.344444,294.6526 L80.17748,293.41287 L52.656975,319.31857 L78.56265,346.83908 L81.54494,344.03177"/>
<path d="M87.19582,343.99332 L84.57185,346.83087 L56.822666,321.1703 L82.483246,293.4211 L83.88242,294.71497"/>
<path d="M92.82643,343.87408 L90.55381,346.69684 L61.114155,322.99478 L84.81624,293.5551 L86.44612,294.86734"/>
<path d="M98.43306,343.677 L96.49914,346.44244 L65.52603,324.7826 L87.185875,293.8095 L89.040016,295.1061"/>
<path d="M104.01208,343.4049 L102.39912,346.07385 L70.05211,326.52512 L89.60085,294.1781 L91.6684,295.4276"/>
<path d="M109.55996,343.06088 L108.245834,345.5979 L74.68553,328.21436 L92.0691,294.65405 L94.33542,295.82794"/>
<path d="M115.07325,342.6481 L114.032196,345.0221 L79.41884,329.84323 L94.597694,295.22986 L97.045006,296.30307"/>
<path d="M120.54858,342.16995 L119.75199,344.3543 L84.24408,331.40555 L97.19286,295.89764 L99.800934,296.84872"/>
<path d="M125.98268,341.62997 L125.39988,343.60297 L89.152916,332.89597 L99.85993,296.649 L102.84654,297.53122"/>
<path d="M109.3252,299.02036 L102.60331,297.4753 L94.1367,334.31006 L99.21459,335.47723"/>
<path d="M101.965324,336.1095 L104.32011,336.65076"/>
<path d="M106.349304,337.11716 L109.46059,337.8323"/>
<path d="M110.749725,338.12863 L114.64307,339.02353"/>
<path d="M115.16547,339.1436 L130.97145,342.77667 L131.20724,341.75085"/>
<path d="M116.06182,300.148 L105.42649,298.36774 L99.186615,335.64435 L104.33563,336.50626"/>
<path d="M124.40964,339.86652 L124.9913,339.9639"/>
<path d="M128.91974,340.6215 L130.20242,340.8362"/>
<path d="M133.43445,341.37723 L135.44382,341.7136"/>
<path d="M109.47938,337.45352 L104.293724,336.89627 L108.332054,299.31735 L123.01655,300.8954"/>
<path d="M114.638466,338.32153 L109.44909,338.0641 L111.32171,300.31525 L130.1514,301.24933"/>
<path d="M137.43123,301.20163 L114.39627,301.35254 L114.643875,339.147 L119.806114,339.1132"/>
<path d="M144.82466,300.7482 L117.555786,302.4206 L119.86939,340.145 L124.97611,339.8318"/>
<path d="M152.30492,299.88803 L120.79949,303.51093 L125.1172,341.05875 L130.1428,340.48083"/>
<path d="M159.85043,298.6222 L124.12594,304.61542 L130.37917,341.8898 L135.30104,341.0641"/>
<path d="M164.47897,297.7575 L164.44693,297.6118 L127.53301,305.72626 L135.6475,342.6402 L140.44621,341.58533"/>
<path d="M167.59117,297.29547 L167.49454,296.9393 L131.01804,306.83615 L140.91487,343.31265 L145.5741,342.0485"/>
<path d="M170.72809,296.89383 L170.55006,296.34158 L134.5778,307.9381 L146.1743,343.91037 L150.68092,342.45755"/>
<path d="M173.89346,296.54816 L173.61995,295.81497 L138.20865,309.0257 L151.41939,344.43698 L155.7633,342.8164"/>
<path d="M177.09065,296.25403 L176.71014,295.35544 L141.9066,310.093 L156.64413,344.8965 L160.81822,343.129"/>
<path d="M180.32262,296.0071 L179.82613,294.95865 L145.6673,311.13446 L161.84311,345.2933 L165.84291,343.3992"/>
<path d="M183.59195,295.8031 L182.97284,294.62012 L149.48624,312.14523 L167.01135,345.63184 L170.83495,343.63077"/>
<path d="M186.90092,295.6378 L186.15474,294.3351 L153.3587,313.12082 L172.14442,345.91684 L175.79214,343.82742"/>
<path d="M190.25154,295.5072 L189.37578,294.09885 L157.27992,314.05725 L177.23834,346.1531 L180.71252,343.99274"/>
<path d="M193.64552,295.40735 L192.63947,293.9065 L161.24506,314.95105 L182.28961,346.34546 L185.59435,344.13022"/>
<path d="M197.08435,295.33447 L195.94885,293.75327 L165.24931,315.79913 L187.29518,346.4987 L190.43604,344.2432"/>
<path d="M200.56929,295.28503 L199.3066,293.63446 L169.28798,316.59888 L192.25241,346.6175 L195.23622,344.33487"/>
<path d="M204.10141,295.25558 L202.71492,293.54544 L173.35646,317.34805 L197.15904,346.7065 L199.99365,344.40833"/>
<path d="M207.68161,295.24292 L206.17574,293.48184 L177.45033,318.0447 L202.01318,346.7701 L204.70721,344.46646"/>
<path d="M211.3106,295.24405 L209.69061,293.43945 L181.5654,318.6873 L206.81326,346.81253 L209.37595,344.512"/>
<path d="M214.98897,295.25616 L213.26086,293.41425 L185.6977,319.27454 L211.55797,346.8377 L213.999,344.5475"/>
<path d="M218.71721,295.2767 L216.88754,293.40262 L189.84354,319.80533 L216.24626,346.84933 L218.57556,344.5753"/>
<path d="M223.10498,344.5975 L220.8773,346.85083 L193.99953,320.2789 L220.57146,293.40112 L222.49564,295.3034"/>
<path d="M227.58669,344.6161 L225.45044,346.8452 L198.16261,320.69458 L224.31326,293.40674 L226.32452,295.33417"/>
<path d="M232.02011,344.63272 L229.9652,346.83524 L202.3301,321.05185 L228.11348,293.41672 L230.20403,295.3672"/>
<path d="M236.40482,344.64886 L234.42117,346.8232 L206.49959,321.35034 L231.97246,293.42874 L234.13423,295.40094"/>
<path d="M240.74039,344.6657 L238.8181,346.81116 L210.66913,321.58978 L235.8905,293.4408 L238.11519,295.4341"/>
<path d="M245.02647,344.68423 L243.15578,346.80066 L214.8371,321.77 L239.86778,293.4513 L242.14684,295.46576"/>
<path d="M249.26274,344.70508 L247.43407,346.79294 L219.0023,321.89078 L243.90445,293.459 L246.22913,295.49512"/>
<path d="M253.44891,344.72867 L251.6529,346.78882 L223.16391,321.95215 L248.00058,293.46317 L250.36191,295.52176"/>
<path d="M257.58478,344.75516 L255.8122,346.7887 L227.32152,321.95395 L252.15623,293.4633 L254.54503,295.54553"/>
<path d="M261.67014,344.78436 L259.91196,346.79257 L231.4751,321.89624 L256.37143,293.45938 L258.77826,295.56656"/>
<path d="M265.7048,344.81592 L263.9522,346.8001 L235.62505,321.779 L260.64615,293.45187 L263.06137,295.5852"/>
<path d="M269.68872,344.8491 L267.93298,346.81046 L239.77217,321.6023 L264.98032,293.4415 L267.39407,295.60217"/>
<path d="M273.62177,344.88287 L271.8544,346.82248 L243.91763,321.36624 L269.37387,293.42947 L271.77606,295.61838"/>
<path d="M277.504,344.91605 L275.71664,346.83456 L248.06303,321.071 L273.8266,293.4174 L276.20688,295.635"/>
<path d="M281.33545,344.94708 L279.5199,346.84473 L252.21033,320.7168 L278.3383,293.40723 L280.68616,295.6535"/>
<path d="M285.11627,344.97415 L283.2646,346.85068 L256.36188,320.304 L282.90857,293.40128 L285.21335,295.67557"/>
<path d="M289.7879,295.7031 L287.53702,293.40228 L260.52036,319.83304 L286.9511,346.84967 L288.84665,344.9952"/>
<path d="M294.40918,295.73825 L292.223,293.41333 L264.68887,319.30453 L290.58008,346.83865 L292.52695,345.00797"/>
<path d="M299.07642,295.78336 L296.9657,293.43774 L268.87076,318.7193 L294.15234,346.81424 L296.15756,345.0098"/>
<path d="M303.78882,295.841 L301.76413,293.47925 L273.06976,318.07834 L297.66885,346.7727 L299.73904,344.998"/>
<path d="M308.54535,295.91388 L306.61703,293.54184 L277.28983,317.38293 L301.13092,346.7101 L303.27213,344.96945"/>
<path d="M313.345,296.00497 L311.52286,293.62973 L281.5352,316.63458 L304.54004,346.62222 L306.75766,344.921"/>
<path d="M318.18655,296.11734 L316.47974,293.74738 L285.81033,315.83517 L307.89813,346.50458 L310.1967,344.84918"/>
<path d="M323.06857,296.25418 L321.48544,293.89944 L290.11987,314.98694 L311.2074,346.35254 L313.5904,344.7504"/>
<path d="M327.98956,296.41895 L326.53735,294.09064 L294.46857,314.0925 L314.47043,346.16132 L316.9403,344.6208"/>
<path d="M332.94778,296.6151 L331.63248,294.3259 L298.86127,313.15488 L317.69028,345.9261 L320.2481,344.45645"/>
<path d="M337.94125,296.84634 L336.76727,294.61002 L303.3029,312.17755 L320.87042,345.64194 L323.51572,344.25323"/>
<path d="M342.96783,297.11636 L341.9378,294.94794 L307.7983,311.1645 L324.01486,345.30402 L326.74548,344.00693"/>
<path d="M348.02505,297.42905 L347.13962,295.34442 L312.35226,310.12018 L327.12802,344.90753 L329.93994,343.71317"/>
<path d="M353.11017,297.7883 L352.3677,295.8041 L316.9694,309.04956 L330.21487,344.44788 L333.10208,343.36752"/>
<path d="M358.22015,298.19812 L357.61664,296.33136 L321.65414,307.95813 L333.2809,343.92062 L336.23523,342.96545"/>
<path d="M372.8019,333.4001 L362.88034,296.9303 L326.41058,306.85187 L336.33215,343.32166 L372.8019,333.4001"/>
<path d="M45.055878,408.00873 L43.453434,410.4974 L11.675806,390.0361 L32.137104,358.25848 L34.39444,359.71194"/>
<path d="M50.236675,407.79025 L48.84192,410.20004 L16.130655,391.26712 L35.06358,358.55585 L37.47205,359.94983"/>
<path d="M55.407257,407.53265 L54.210243,409.84616 L20.641994,392.47797 L38.010216,358.9097 L40.56151,360.22974"/>
<path d="M60.566135,407.2364 L59.555447,409.43744 L25.208197,393.66568 L40.979973,359.31842 L43.664513,360.55112"/>
<path d="M65.711784,406.90198 L64.87463,408.9757 L29.827417,394.8274 L43.975746,359.78018 L46.782814,360.91336"/>
<path d="M70.8426,406.53003 L70.165016,408.463 L34.497604,395.9603 L47.000317,360.29288 L49.918205,361.3157"/>
<path d="M75.95696,406.12122 L75.42395,407.90158 L39.21649,397.06174 L50.056347,360.85428 L53.07252,361.75726"/>
<path d="M81.05321,405.67642 L80.64892,407.29395 L43.981625,398.12924 L53.14634,361.46194 L56.247616,362.23706"/>
<path d="M60.56753,362.9806 L56.27264,362.11316 L48.79034,399.1604 L53.64181,400.14023"/>
<path d="M53.924183,400.19727 L85.83758,406.6427 L86.12965,405.19656"/>
<path d="M67.72473,364.0916 L59.437397,362.80518 L53.639812,400.15314 L58.5479,400.915"/>
<path d="M62.765682,401.56976 L63.47066,401.6792"/>
<path d="M67.203445,402.25864 L68.411064,402.4461"/>
<path d="M71.65211,402.94922 L73.37204,403.2162"/>
<path d="M76.11128,403.64142 L78.35652,403.98993"/>
<path d="M80.58054,404.33517 L83.36746,404.7678"/>
<path d="M85.059425,405.03046 L88.40784,405.55023"/>
<path d="M89.5474,405.7271 L90.98778,405.9507 L91.05799,405.49838"/>
<path d="M63.472733,401.64722 L58.527042,401.10544 L62.64256,363.5349 L75.007034,364.88934"/>
<path d="M68.41331,402.33694 L63.448887,402.01566 L65.88985,364.2993 L82.390755,365.3672"/>
<path d="M73.36672,402.98453 L68.40208,402.88223 L69.18073,365.095 L89.8531,365.52097"/>
<path d="M97.372475,365.34848 L72.51646,365.91867 L73.38323,403.70398 L78.33014,403.5905"/>
<path d="M104.92873,364.8494 L75.89799,366.76685 L78.388885,404.47995 L83.30082,404.15552"/>
<path d="M112.503456,364.02496 L79.326035,367.636 L83.41552,405.20938 L88.276115,404.68033"/>
<path d="M120.08025,362.8777 L82.80104,368.52255 L88.459564,405.89185 L93.2535,405.16592"/>
<path d="M123.4606,362.39987 L123.42741,362.22867 L86.323166,369.42294 L93.51744,406.5272 L98.230545,405.61334"/>
<path d="M126.75447,361.97983 L126.67423,361.64035 L89.89231,370.33362 L98.58557,407.11554 L103.20492,406.02377"/>
<path d="M130.05383,361.5989 L129.91435,361.09866 L93.50812,371.25098 L103.66042,407.6572 L108.17442,406.3984"/>
<path d="M133.36105,361.2556 L133.15123,360.60303 L97.16997,372.17157 L108.738495,408.15283 L113.136955,406.73868"/>
<path d="M136.67833,360.94852 L136.3883,360.15256 L100.876976,373.09198 L113.81638,408.6033 L118.09052,407.04593"/>
<path d="M140.00778,360.676 L139.62889,359.7462 L104.62806,374.00888 L118.89076,409.0097 L123.03324,407.32166"/>
<path d="M143.35141,360.43637 L142.87619,359.38254 L108.42189,374.91904 L123.95841,409.37335 L127.96331,407.5674"/>
<path d="M146.71107,360.22794 L146.13332,359.0601 L112.25695,375.8194 L129.01625,409.69577 L132.87906,407.78476"/>
<path d="M150.08853,360.04895 L149.40318,358.7772 L116.131516,376.70703 L134.06134,409.9787 L137.7789,407.97534"/>
<path d="M153.48543,359.8976 L152.68858,358.53192 L120.04372,377.5791 L139.0909,410.22397 L142.66132,408.14075"/>
<path d="M156.9033,359.77206 L155.99217,358.32227 L123.99154,378.43298 L144.10228,410.43362 L147.52492,408.28268"/>
<path d="M160.34357,359.67044 L159.31639,358.14606 L127.97282,379.26627 L149.09302,410.60983 L152.36838,408.4028"/>
<path d="M163.80757,359.59094 L162.66351,358.00107 L131.9853,380.0766 L154.06084,410.75482 L157.19044,408.5028"/>
<path d="M167.29651,359.53165 L166.03568,357.88495 L136.02667,380.8619 L159.00365,410.87094 L161.98997,408.58438"/>
<path d="M170.81151,359.49072 L169.4348,357.7953 L140.0945,381.62027 L163.91948,410.96057 L166.76587,408.64923"/>
<path d="M174.3536,359.4663 L172.86264,357.7297 L144.18639,382.3499 L168.80661,411.02618 L171.51714,408.69904"/>
<path d="M177.92374,359.4566 L176.32077,357.6857 L148.29985,383.04926 L173.66342,411.0702 L176.24283,408.7354"/>
<path d="M181.52274,359.4598 L179.81064,357.66083 L152.43246,383.7169 L178.48853,411.09506 L180.94206,408.76"/>
<path d="M185.1514,359.47418 L183.33347,357.65265 L156.58179,384.35153 L183.28065,411.1032 L185.61404,408.7744"/>
<path d="M190.25804,408.78024 L188.0387,411.09708 L160.74542,384.9521 L186.89038,357.6588 L188.81036,359.49802"/>
<path d="M194.87337,408.77896 L192.7617,411.07892 L164.92104,385.51764 L190.48233,357.67697 L192.50027,359.5297"/>
<path d="M199.45938,408.77203 L197.44884,411.05106 L169.1064,386.04727 L194.11015,357.70483 L196.22165,359.5676"/>
<path d="M204.01553,408.7609 L202.0994,411.0156 L173.29932,386.54034 L197.77457,357.74026 L199.97496,359.61023"/>
<path d="M208.54128,408.74683 L206.71277,410.97467 L177.49774,386.99625 L201.47615,357.78122 L203.76062,359.65622"/>
<path d="M213.03616,408.7311 L211.28848,410.93018 L181.6997,387.4145 L205.2154,357.8257 L207.57895,359.70413"/>
<path d="M217.49976,408.71494 L215.8261,410.88394 L185.90343,387.79462 L208.99274,357.87195 L211.43025,359.7528"/>
<path d="M221.93167,408.69937 L220.32532,410.83765 L190.10721,388.13635 L212.80849,357.91824 L215.31477,359.8011"/>
<path d="M226.33156,408.6854 L224.78584,410.79282 L194.3095,388.4394 L216.6629,357.96307 L219.2327,359.84793"/>
<path d="M230.69911,408.6739 L229.20749,410.75085 L198.50896,388.70355 L220.55623,358.00504 L223.18416,359.8924"/>
<path d="M235.03406,408.66565 L233.59006,410.71292 L202.70435,388.92868 L224.48862,358.04294 L227.1693,359.9337"/>
<path d="M239.33612,408.66132 L237.93346,410.68015 L206.89462,389.1146 L228.46017,358.07574 L231.18816,359.97113"/>
<path d="M243.6051,408.6614 L242.23756,410.65332 L211.07893,389.2612 L232.47102,358.10257 L235.2408,360.00418"/>
<path d="M247.8408,408.66638 L246.50232,410.63315 L215.25658,389.36847 L236.52124,358.12274 L239.32722,360.03238"/>
<path d="M252.04306,408.6765 L250.72765,410.62015 L219.42703,389.4363 L240.61087,358.1357 L243.44743,360.05548"/>
<path d="M256.21173,408.69196 L254.9135,410.61465 L223.59001,389.46472 L244.73996,358.1412 L247.60136,360.07327"/>
<path d="M260.34668,408.71277 L259.05988,410.61682 L227.74533,389.45358 L248.90855,358.13907 L251.78897,360.08572"/>
<path d="M264.4478,408.7388 L263.16672,410.62656 L231.89307,389.40298 L253.11667,358.1293 L256.01013,360.09296"/>
<path d="M268.5151,408.76987 L267.23404,410.64368 L236.03345,389.3128 L257.3643,358.1122 L260.26477,360.09518"/>
<path d="M272.54843,408.80557 L271.26184,410.6677 L240.1669,389.18314 L261.65146,358.0882 L264.5527,360.09274"/>
<path d="M276.54785,408.84543 L275.25012,410.69806 L244.294,389.01395 L265.97812,358.05783 L268.8738,360.08618"/>
<path d="M280.51334,408.88882 L279.19894,410.73395 L248.41559,388.80527 L270.34427,358.0219 L273.22784,360.07605"/>
<path d="M284.44498,408.93497 L283.10837,410.77444 L252.5326,388.5572 L274.74982,357.98145 L277.6146,360.06308"/>
<path d="M288.3428,408.98303 L286.97845,410.81833 L256.64618,388.26984 L279.19467,357.93753 L282.03384,360.04813"/>
<path d="M292.20697,409.03198 L290.8094,410.86435 L260.75766,387.9433 L283.6787,357.89154 L286.48523,360.03214"/>
<path d="M296.0377,409.08072 L294.60135,410.91098 L264.8685,387.57776 L288.2017,357.8449 L290.9685,360.01617"/>
<path d="M299.83514,409.12802 L298.3546,410.9566 L268.98035,387.17352 L292.76343,357.79926 L295.48322,360.00137"/>
<path d="M303.5996,409.17258 L302.06946,410.99945 L273.09497,386.7309 L297.36353,357.75644 L300.029,359.98895"/>
<path d="M307.33142,409.21298 L305.7463,411.03757 L277.21436,386.25027 L302.00162,357.71832 L304.60535,359.98032"/>
<path d="M311.031,409.24774 L309.3857,411.0689 L281.34048,385.7322 L306.6772,357.68698 L309.21176,359.97678"/>
<path d="M314.6988,409.2752 L312.98828,411.09128 L285.4756,385.17728 L311.3896,357.6646 L313.8477,359.97986"/>
<path d="M318.33536,409.2938 L316.5547,411.10242 L289.62192,384.58624 L316.13812,357.65347 L318.51248,359.9911"/>
<path d="M323.20544,360.01205 L320.92188,357.6559 L293.78186,383.95996 L320.0859,411.09998 L321.9413,409.3017"/>
<path d="M327.92584,360.0444 L325.73987,357.6744 L297.95786,383.29944 L323.58286,411.08145 L325.51733,409.2972"/>
<path d="M332.67282,360.08978 L330.5909,357.71146 L302.15237,382.60587 L327.04678,411.0444 L329.0642,409.2784"/>
<path d="M337.44553,360.14993 L335.47366,357.7696 L306.36798,381.8806 L330.479,410.9863 L332.58282,409.2435"/>
<path d="M342.24295,360.22656 L340.38663,357.85135 L310.6072,381.12512 L333.881,410.90454 L336.07416,409.1905"/>
<path d="M347.06406,360.32144 L345.32806,357.9593 L314.87262,380.34116 L337.2545,410.7966 L339.53928,409.1175"/>
<path d="M351.9077,360.43637 L350.29617,358.09595 L319.16675,379.53052 L340.60135,410.65994 L342.97937,409.02255"/>
<path d="M375.7204,390.06055 L355.28885,358.2638 L323.4921,378.69534 L343.92365,410.4921 L375.7204,390.06055"/>
<path d="M49.684063,425.58612 L49.30271,424.50894 L13.674324,437.12247 L26.287828,472.75085 L30.246967,471.34918"/>
<path d="M53.489338,425.4562 L53.06851,424.32596 L17.648817,437.51413 L30.836992,472.93384 L34.749943,471.47687"/>
<path d="M57.294125,425.3316 L56.832195,424.1497 L21.63002,437.90793 L35.388264,473.1101 L39.253315,471.59952"/>
<path d="M61.09867,425.21237 L60.59408,423.9802 L25.61802,438.30353 L39.941338,473.2796 L43.75685,471.71707"/>
<path d="M64.90323,425.09854 L64.35449,423.8176 L29.612892,438.7006 L44.495884,473.4422 L48.260303,471.82956"/>
<path d="M68.708084,424.9901 L68.11379,423.66193 L33.61471,439.0988 L49.051544,473.59784 L52.7634,471.93695"/>
<path d="M72.51353,424.8871 L71.87235,423.51328 L37.62354,439.49768 L53.60794,473.74652 L57.265858,472.0393"/>
<path d="M76.31987,424.78952 L75.630585,423.3717 L41.639427,439.89694 L58.164673,473.8881 L61.76738,472.1366"/>
<path d="M80.12744,424.69736 L79.38889,423.23718 L45.662407,440.2961 L62.72132,474.02258 L66.267654,472.22885"/>
<path d="M83.936584,424.6106 L83.14773,423.1098 L49.6925,440.69476 L67.27744,474.15 L70.76635,472.31613"/>
<path d="M87.74764,424.5292 L86.90755,422.98953 L53.729717,441.0924 L71.83259,474.27023 L75.263145,472.39844"/>
<path d="M91.56098,424.4532 L90.66882,422.87637 L57.774033,441.48862 L76.38628,474.38342 L79.75769,472.47583"/>
<path d="M95.37698,424.38242 L94.43202,422.7703 L61.82542,441.8829 L80.93803,474.4895 L84.24964,472.54837"/>
<path d="M99.19601,424.31686 L98.19766,422.6712 L65.88382,442.27475 L85.48735,474.5886 L88.73863,472.61615"/>
<path d="M103.01845,424.25644 L101.966225,422.57907 L69.949165,442.66367 L90.03375,474.68073 L93.224304,472.67926"/>
<path d="M106.84469,424.20108 L105.73822,422.49377 L74.021355,443.04913 L94.576706,474.76602 L97.70629,472.73776"/>
<path d="M110.67513,424.15063 L109.514175,422.41522 L78.100266,443.43066 L99.115715,474.84457 L102.18422,472.79178"/>
<path d="M114.51016,424.10498 L113.294586,422.34326 L82.185776,443.80774 L103.65026,474.91653 L106.65772,472.84146"/>
<path d="M118.35017,424.06406 L117.07999,422.2777 L86.27771,444.1798 L108.179825,474.9821 L111.12642,472.8869"/>
<path d="M122.19555,424.02762 L120.87087,422.2184 L90.3759,444.54642 L112.703896,475.04138 L115.58994,472.92825"/>
<path d="M126.04669,423.99557 L124.66776,422.1652 L94.48015,444.90698 L117.22196,475.0946 L120.04791,472.9657"/>
<path d="M129.90399,423.96774 L128.47118,422.1178 L98.590225,445.26108 L121.73352,475.142 L124.49998,472.99933"/>
<path d="M133.76782,423.9439 L132.28159,422.076 L102.70591,445.60815 L126.23807,475.1838 L128.94576,473.02942"/>
<path d="M137.63855,423.92392 L136.09949,422.03955 L106.82694,445.94772 L130.73512,475.22025 L133.3849,473.05606"/>
<path d="M141.51657,423.90756 L139.92538,422.00818 L110.953064,446.2793 L135.22418,475.25162 L137.81703,473.0795"/>
<path d="M145.40222,423.89465 L143.75972,421.98163 L115.083984,446.60245 L139.7048,475.27817 L142.24182,473.0999"/>
<path d="M149.29588,423.88492 L147.60297,421.95956 L119.21942,446.9167 L144.17653,475.30023 L146.65892,473.1175"/>
<path d="M153.19786,423.87817 L151.45557,421.94174 L123.35906,447.22156 L148.63889,475.31805 L151.068,473.13248"/>
<path d="M157.10854,423.8742 L155.31793,421.9278 L127.50261,447.51666 L153.09146,475.332 L155.4687,473.14502"/>
<path d="M161.0282,423.87274 L159.19052,421.91745 L131.64973,447.80157 L157.53384,475.34235 L159.86075,473.15543"/>
<path d="M164.95717,423.8736 L163.07368,421.91034 L135.80011,448.07587 L161.96564,475.34946 L164.2438,473.16385"/>
<path d="M168.89575,423.8765 L166.96783,421.9062 L139.95343,448.3392 L166.38644,475.3536 L168.61757,473.1705"/>
<path d="M172.84422,423.88126 L170.87334,421.90463 L144.10936,448.5912 L170.79591,475.35516 L172.98177,473.17563"/>
<path d="M177.3361,473.17944 L175.19368,475.35443 L148.26756,448.83148 L174.79053,421.90536 L176.80287,423.8876"/>
<path d="M181.68033,473.18213 L179.57942,475.35175 L152.42775,449.05975 L178.71973,421.90805 L180.77197,423.89532"/>
<path d="M186.01418,473.18393 L183.95284,475.34738 L156.58957,449.27567 L182.66129,421.9124 L184.75174,423.9042"/>
<path d="M190.3374,473.18503 L188.31361,475.3417 L160.75273,449.47897 L186.61546,421.9181 L188.74243,423.914"/>
<path d="M194.64978,473.1856 L192.66148,475.33496 L164.91695,449.66937 L190.58257,421.92484 L192.74426,423.92456"/>
<path d="M198.95108,473.18588 L196.99617,475.32748 L169.08191,449.8466 L194.56282,421.9323 L196.75743,423.9356"/>
<path d="M203.24112,473.186 L201.31746,475.31952 L173.24736,450.01038 L198.55649,421.94028 L200.78214,423.94702"/>
<path d="M207.51968,473.18616 L205.62512,475.3113 L177.41304,450.16055 L202.5638,421.9485 L204.81854,423.95856"/>
<path d="M211.78659,473.18646 L209.91893,475.30316 L181.57869,450.29688 L206.58495,421.95663 L208.86684,423.9701"/>
<path d="M216.0417,473.1871 L214.19872,475.29523 L185.7441,450.4192 L210.62013,421.96457 L212.92714,423.98145"/>
<path d="M220.28484,473.18817 L218.4643,475.28775 L189.90904,450.52728 L214.66951,421.97205 L216.9996,423.9925"/>
<path d="M224.51587,473.18982 L222.71552,475.2809 L194.07336,450.62103 L218.73325,421.97888 L221.08432,424.00308"/>
<path d="M228.73466,473.1921 L226.95224,475.27487 L198.23688,450.7003 L222.81146,421.98492 L225.18143,424.01312"/>
<path d="M232.94112,473.19516 L231.17436,475.26978 L202.39946,450.76492 L226.90431,421.99002 L229.29099,424.02252"/>
<path d="M237.13513,473.19897 L235.38176,475.26572 L206.56099,450.81482 L231.01189,421.99408 L233.41307,424.0312"/>
<path d="M241.31662,473.20367 L239.57434,475.26282 L210.72137,450.84995 L235.13426,421.99698 L237.54776,424.03906"/>
<path d="M245.48552,473.20923 L243.75203,475.26114 L214.88054,450.87015 L239.27151,421.99866 L241.69507,424.0461"/>
<path d="M249.64175,473.21567 L247.9148,475.26068 L219.03847,450.87543 L243.4237,421.9991 L245.85506,424.0523"/>
<path d="M253.78531,473.223 L252.06258,475.2615 L223.19513,450.86575 L247.5909,421.9983 L250.02771,424.05765"/>
<path d="M257.91614,473.2312 L256.19534,475.26355 L227.35056,450.84103 L251.77307,421.99625 L254.21304,424.06213"/>
<path d="M262.03424,473.2402 L260.3131,475.2668 L231.50476,450.80133 L255.97026,421.99298 L258.41104,424.0658"/>
<path d="M266.13962,473.24994 L264.4159,475.27124 L235.65784,450.7466 L260.18246,421.98856 L262.62164,424.06866"/>
<path d="M270.2323,473.26035 L268.50366,475.27667 L239.80988,450.6769 L264.40964,421.98312 L266.84488,424.07086"/>
<path d="M274.3123,473.27133 L272.5765,475.28305 L243.96098,450.59225 L268.65176,421.97675 L271.0806,424.07245"/>
<path d="M278.37964,473.28278 L276.63446,475.2902 L248.11133,450.49274 L272.90878,421.9696 L275.3288,424.07352"/>
<path d="M282.43445,473.29453 L280.6776,475.29794 L252.26106,450.37842 L277.18057,421.96185 L279.58936,424.0742"/>
<path d="M286.47678,473.30643 L284.70602,475.3061 L256.4104,450.24936 L281.4671,421.9537 L283.86218,424.07462"/>
<path d="M290.5067,473.31833 L288.71988,475.31442 L260.55954,450.1057 L285.76825,421.94537 L288.14716,424.07495"/>
<path d="M294.52438,473.33005 L292.71924,475.3227 L264.70874,449.9476 L290.08383,421.9371 L292.44412,424.07532"/>
<path d="M298.52988,473.3414 L296.70425,475.33063 L268.85828,449.77515 L294.41376,421.92917 L296.753,424.07596"/>
<path d="M302.52338,473.35214 L300.67514,475.33798 L273.0084,449.58853 L298.75784,421.9218 L301.07355,424.07703"/>
<path d="M306.505,473.36206 L304.63205,475.34442 L277.15942,449.38797 L303.1159,421.91534 L305.40564,424.07874"/>
<path d="M310.47498,473.37094 L308.5752,475.34967 L281.31168,449.17365 L307.4877,421.91013 L309.74905,424.0813"/>
<path d="M314.43347,473.3785 L312.5048,475.35333 L285.4655,448.94577 L311.87308,421.90646 L314.10364,424.08493"/>
<path d="M318.38065,473.38455 L316.4211,475.35507 L289.62122,448.7046 L316.2717,421.90472 L318.46915,424.0899"/>
<path d="M322.84534,424.0964 L320.68338,421.9052 L293.7792,448.4504 L320.3244,475.35458 L322.3168,473.3888"/>
<path d="M327.232,424.10474 L325.10776,421.90833 L297.93982,448.1835 L324.21497,475.35147 L326.2421,473.39093"/>
<path d="M331.6288,424.1151 L329.5446,421.91446 L302.10342,447.90417 L328.09314,475.34534 L330.15686,473.39078"/>
<path d="M336.03558,424.12778 L333.99347,421.92398 L306.2704,447.61276 L331.9592,475.33582 L334.06128,473.38797"/>
<path d="M340.45197,424.14304 L338.4541,421.93723 L310.44116,447.3096 L335.8135,475.32257 L337.95572,473.3823"/>
<path d="M344.87772,424.1611 L342.9261,421.95465 L314.61606,446.9951 L339.6565,475.30515 L341.8404,473.37344"/>
<path d="M349.31247,424.18225 L347.40906,421.9766 L318.79547,446.66962 L343.4885,475.2832 L345.7157,473.36118"/>
<path d="M376.2327,450.9262 L351.90256,422.00345 L322.9798,446.3336 L347.30994,475.25635 L376.2327,450.9262"/>
<path d="M52.76612,534.44867 L52.634556,535.1088 L15.56833,527.7211 L22.955986,490.6549 L27.119833,491.4848"/>
<path d="M56.728893,534.5505 L56.583332,535.2467 L19.587883,527.51245 L27.322166,490.517 L31.469904,491.38412"/>
<path d="M60.69129,534.6504 L60.531075,535.3825 L23.609552,527.3027 L31.689384,490.3812 L35.82029,491.2852"/>
<path d="M64.65341,534.7485 L64.47788,535.5162 L27.633396,527.09204 L36.057533,490.24753 L40.170895,491.18802"/>
<path d="M68.615364,534.8446 L68.423874,535.6476 L31.65947,526.88055 L40.426502,490.11615 L44.52161,491.09268"/>
<path d="M72.57725,534.9387 L72.36918,535.7767 L35.687836,526.6684 L44.796154,489.98703 L48.87233,490.99918"/>
<path d="M76.5392,535.0309 L76.313934,535.90344 L39.71856,526.4556 L49.16636,489.86026 L53.222923,490.90756"/>
<path d="M80.501335,535.12103 L80.25829,536.0278 L43.7517,526.2425 L53.536964,489.73593 L57.57327,490.8178"/>
<path d="M84.4638,535.2091 L84.2024,536.14966 L47.78732,526.0292 L57.907814,489.61407 L61.92322,490.73004"/>
<path d="M88.426735,535.29504 L88.14643,536.269 L51.82548,525.8157 L62.27874,489.49475 L66.272644,490.6442"/>
<path d="M92.3903,535.37885 L92.09057,536.3857 L55.866238,525.60236 L66.64957,489.37802 L70.62139,490.56036"/>
<path d="M96.35464,535.46045 L96.03499,536.49976 L59.90965,525.3893 L71.02011,489.26395 L74.96931,490.47855"/>
<path d="M100.319916,535.53986 L99.97987,536.61115 L63.955765,525.1767 L75.390175,489.1526 L79.31623,490.39877"/>
<path d="M104.2863,535.617 L103.92544,536.7197 L68.00464,524.9648 L79.759575,489.04398 L83.662,490.32104"/>
<path d="M108.25397,535.6919 L107.87187,536.8255 L72.05631,524.7537 L84.1281,488.93817 L88.006454,490.2454"/>
<path d="M112.22308,535.7645 L111.81939,536.92847 L76.110825,524.54376 L88.495544,488.8352 L92.34942,490.17184"/>
<path d="M116.193825,535.8349 L115.768196,537.02856 L80.16822,524.3351 L92.861694,488.73514 L96.69073,490.1004"/>
<path d="M120.166374,535.9029 L119.71851,537.12573 L84.22852,524.1279 L97.22633,488.63797 L101.030205,490.03107"/>
<path d="M124.14091,535.9686 L123.67056,537.22 L88.29176,523.92255 L101.58924,488.54373 L105.367676,489.96387"/>
<path d="M128.1176,536.03204 L127.624565,537.3113 L92.35796,523.71906 L105.9502,488.45242 L109.70296,489.8988"/>
<path d="M132.09665,536.09314 L131.58073,537.3996 L96.427124,523.5177 L110.30899,488.3641 L114.03589,489.83585"/>
<path d="M136.07823,536.1519 L135.5393,537.4849 L100.499275,523.31885 L114.665375,488.27878 L118.36628,489.775"/>
<path d="M140.06253,536.2084 L139.5005,537.56726 L104.57441,523.12256 L119.01914,488.19644 L122.69396,489.71628"/>
<path d="M144.04971,536.2625 L143.46455,537.6466 L108.65253,522.9291 L123.370056,488.1171 L127.01876,489.65964"/>
<path d="M148.03996,536.3144 L147.43166,537.723 L112.73363,522.7387 L127.7179,488.0407 L131.3405,489.6051"/>
<path d="M152.03346,536.3641 L151.40207,537.79645 L116.81769,522.55164 L132.06245,487.9673 L135.65901,489.55264"/>
<path d="M156.03038,536.41144 L155.37599,537.8669 L120.9047,522.3681 L136.40349,487.89682 L139.97412,489.50223"/>
<path d="M160.0309,536.4566 L159.35364,537.93445 L124.994644,522.1883 L140.7408,487.82928 L144.28566,489.45383"/>
<path d="M164.03517,536.49963 L163.33524,537.9991 L129.08748,522.0124 L145.07417,487.76465 L148.59348,489.40744"/>
<path d="M168.04337,536.54047 L167.32098,538.06085 L133.1832,521.84064 L149.40338,487.70288 L152.8974,489.363"/>
<path d="M172.05565,536.57916 L171.31108,538.11975 L137.28175,521.6733 L153.72824,487.64395 L157.19728,489.32056"/>
<path d="M176.07217,536.61584 L175.30576,538.1759 L141.3831,521.51044 L158.04852,487.58783 L161.49297,489.28"/>
<path d="M180.09308,536.65045 L179.30516,538.22925 L145.48721,521.3524 L162.36407,487.53445 L165.7843,489.2413"/>
<path d="M184.11853,536.68304 L183.30952,538.2799 L149.59404,521.1993 L166.67467,487.4838 L170.07114,489.20447"/>
<path d="M188.14865,536.7137 L187.31902,538.3279 L153.70352,521.0513 L170.98015,487.4358 L174.35336,489.16946"/>
<path d="M192.18358,536.7424 L191.33379,538.3733 L157.81563,520.90857 L175.28032,487.39044 L178.63083,489.1362"/>
<path d="M196.22345,536.7692 L195.35405,538.4161 L161.93031,520.77136 L179.57504,487.34763 L182.9034,489.1047"/>
<path d="M200.26837,536.7942 L199.37993,538.45636 L166.0475,520.6398 L183.86412,487.30734 L187.17097,489.0749"/>
<path d="M204.31848,536.81744 L203.41159,538.4942 L170.16714,520.5139 L188.14742,487.2695 L191.43343,489.04675"/>
<path d="M208.37386,536.83887 L207.44917,538.5296 L174.2892,520.39404 L192.42479,487.2341 L195.69064,489.02023"/>
<path d="M212.43463,536.85864 L211.49283,538.5627 L178.41362,520.2802 L196.69609,487.20102 L199.94254,488.9953"/>
<path d="M216.50087,536.8768 L215.54266,538.59344 L182.54033,520.1726 L200.96121,487.17026 L204.189,488.9719"/>
<path d="M220.57268,536.89325 L219.59882,538.62195 L186.6693,520.0712 L205.22002,487.14172 L208.42996,488.95004"/>
<path d="M224.65013,536.9082 L223.66138,538.6483 L190.80046,519.9763 L209.47241,487.11542 L212.66531,488.92966"/>
<path d="M228.73329,536.9216 L227.73047,538.6725 L194.93376,519.88794 L213.71829,487.09125 L216.89502,488.91074"/>
<path d="M232.82224,536.9335 L231.80615,538.6946 L199.06917,519.80615 L217.95755,487.06915 L221.11897,488.89322"/>
<path d="M236.91702,536.944 L235.88853,538.7146 L203.20662,519.7311 L222.19012,487.04913 L225.33716,488.8771"/>
<path d="M241.01768,536.953 L239.97768,538.7326 L207.34607,519.6627 L226.41595,487.0311 L229.54948,488.86234"/>
<path d="M245.12427,536.96063 L244.07364,538.74866 L211.48749,519.6012 L230.63495,487.01505 L233.75594,488.84894"/>
<path d="M249.23682,536.967 L248.17648,538.7628 L215.63084,519.5466 L234.84708,487.00092 L237.95647,488.83682"/>
<path d="M253.35533,536.9719 L252.28622,538.775 L219.77608,519.49884 L239.05228,486.98868 L242.15105,488.82602"/>
<path d="M257.47986,536.97565 L256.40292,538.7854 L223.92316,519.45807 L243.25055,486.97827 L246.33966,488.8165"/>
<path d="M261.61038,536.978 L260.52658,538.794 L228.07208,519.4242 L247.44186,486.96973 L250.5223,488.80823"/>
<path d="M265.74692,536.9792 L264.6572,538.8008 L232.2228,519.39734 L251.62619,486.96295 L254.69894,488.80118"/>
<path d="M269.88943,536.9791 L268.7948,538.8057 L236.37529,519.3775 L255.80354,486.95798 L258.86963,488.7954"/>
<path d="M274.03793,536.9779 L272.93936,538.80896 L240.52953,519.36456 L259.97394,486.95474 L263.03433,488.79083"/>
<path d="M278.1924,536.9754 L277.09088,538.8105 L244.68552,519.3586 L264.1374,486.95325 L267.1931,488.7875"/>
<path d="M282.35278,536.97174 L281.24933,538.81024 L248.84325,519.35956 L268.2939,486.9535 L271.34595,488.78537"/>
<path d="M286.51907,536.9669 L285.4146,538.8083 L253.00267,519.3674 L272.44357,486.95544 L275.49292,488.78445"/>
<path d="M290.6912,536.96094 L289.58676,538.8046 L257.16382,519.382 L276.5864,486.9591 L279.63406,488.7848"/>
<path d="M294.86908,536.9538 L293.76566,538.7992 L261.3267,519.40344 L280.72244,486.96448 L283.7694,488.78632"/>
<path d="M299.0527,536.94543 L297.95126,538.7921 L265.49127,519.4316 L284.8518,486.9716 L287.89905,488.7891"/>
<path d="M303.24197,536.936 L302.1435,538.7833 L269.65753,519.4663 L288.97455,486.98038 L292.023,488.7931"/>
<path d="M307.43683,536.9253 L306.34225,538.77277 L273.82556,519.5076 L293.09073,486.9909 L296.1414,488.79834"/>
<path d="M311.63715,536.9135 L310.54742,538.76056 L277.9953,519.5553 L297.2005,487.00317 L300.25427,488.80484"/>
<path d="M315.8429,536.9005 L314.75897,538.7465 L282.16678,519.6094 L301.30392,487.01718 L304.36172,488.81262"/>
<path d="M320.05396,536.88635 L318.9767,538.7308 L286.34,519.6696 L305.40115,487.03293 L308.46387,488.8217"/>
<path d="M324.2702,536.871 L323.20056,538.71326 L290.51498,519.736 L309.49225,487.05045 L312.56082,488.83203"/>
<path d="M328.49152,536.85443 L327.43036,538.694 L294.69177,519.80835 L313.57742,487.06973 L316.65262,488.84372"/>
<path d="M332.71783,536.8367 L331.66602,538.67285 L298.87036,519.8865 L317.65674,487.09085 L320.73944,488.85672"/>
<path d="M336.949,536.8177 L335.90735,538.64996 L303.05075,519.97034 L321.73038,487.11377 L324.8214,488.8711"/>
<path d="M341.1849,536.7975 L340.1542,538.6252 L307.233,520.0597 L325.79846,487.13852 L328.89862,488.8868"/>
<path d="M345.4254,536.776 L344.40643,538.5986 L311.41708,520.1545 L329.8612,487.16513 L332.97122,488.9039"/>
<path d="M349.67035,536.7533 L348.66385,538.5701 L315.60303,520.2544 L333.91873,487.1936 L337.03934,488.92242"/>
<path d="M353.91965,536.7294 L352.92633,538.53973 L319.79086,520.35944 L337.97122,487.22397 L341.10312,488.94232"/>
<path d="M342.01886,487.25623 L375.23187,505.29446 L357.19363,538.5075 L323.98062,520.46924 L342.01886,487.25623"/>
</g>
<g fill="none" id="layer2" inkscape:groupmode="layer" inkscape:label="2" stroke="black" stroke-width="0.5mm"/>
<g fill="none" id="layer3" inkscape:groupmode="layer" inkscape:label="3" stroke="black" stroke-width="0.5mm"/>
<g fill="none" id="layer4" inkscape:groupmode="layer" inkscape:label="4" stroke="black" stroke-width="0.5mm"/>
<g fill="none" id="layer5" inkscape:groupmode="layer" inkscape:label="5" stroke="black" stroke-width="0.5mm"/>
<g fill="none" id="layer6" inkscape:groupmode="layer" inkscape:label="6" stroke="black" stroke-width="0.5mm"/>
<g fill="none" id="layer7" inkscape:groupmode="layer" inkscape:label="7" stroke="black" stroke-width="0.5mm"/>
<g fill="none" id="layer8" inkscape:groupmode="layer" inkscape:label="8" stroke="black" stroke-width="0.5mm"/>
<g fill="none" id="layer9" inkscape:groupmode="layer" inkscape:label="9" stroke="black" stroke-width="0.5mm"/>
<g fill="none" id="layer10" inkscape:groupmode="layer" inkscape:label="10" stroke="black" stroke-width="0.5mm"/>
<g fill="none" id="layer11" inkscape:groupmode="layer" inkscape:label="11" stroke="black" stroke-width="0.5mm">
<rect height="576" width="384" x="0" y="0"/>
</g>
</svg>