<svg height="1122.24px" viewBox="0 0 793.92 1122.24" width="793.92px" xmlns="http://www.w3.org/2000/svg" xmlns:inkscape="http://www.inkscape.org/namespaces/inkscape">
<g fill="none" id="layer1" inkscape:groupmode="layer" inkscape:label="1" stroke="black" stroke-width="0.2mm">
<path d="M736.4325,590.6995 L671.5395,466.6475 L547.4875,531.54047 L549.0347,534.4982"/>
<path d="M734.8708,591.5164 L736.4325,590.6995"/>
<path d="M736.40784,594.4535 L671.4941,470.41232 L547.45294,535.32605 L548.9869,538.25714"/>
<path d="M734.79865,595.2956 L736.40784,594.4535"/>
<path d="M736.3234,598.2082 L671.3912,474.17673 L547.35974,539.10895 L548.8799,542.01276"/>
<path d="M734.6672,599.07526 L736.3234,598.2082"/>
<path d="M736.1793,601.96277 L671.2308,477.93982 L547.2078,542.88837 L548.7138,545.7641"/>
<path d="M734.47644,602.8545 L736.1793,601.96277"/>
<path d="M735.9755,605.7162 L671.0129,481.70065 L546.9973,546.6632 L548.4887,549.5103"/>
<path d="M734.2265,606.6324 L735.9755,605.7162"/>
<path d="M735.71204,609.46765 L670.7376,485.45828 L546.7283,550.43274 L548.20465,553.25055"/>
<path d="M733.9175,610.40796 L735.71204,609.46765"/>
<path d="M735.3891,613.2161 L670.40497,489.2118 L546.4007,554.19586 L547.86163,556.98376"/>
<path d="M733.5493,614.18024 L735.3891,613.2161"/>
<path d="M735.0066,616.96063 L670.015,492.96027 L546.01465,557.95184 L547.45984,560.70917"/>
<path d="M733.12225,617.9483 L735.0066,616.96063"/>
<path d="M734.56476,620.70026 L669.5678,496.70273 L545.57025,561.69965 L546.9993,564.4259"/>
<path d="M732.63635,621.7111 L734.56476,620.70026"/>
<path d="M734.0637,624.4341 L669.0635,500.43826 L545.0676,565.43854 L546.4801,568.133"/>
<path d="M732.0917,625.46783 L734.0637,624.4341"/>
<path d="M733.50354,628.1611 L668.502,504.16592 L544.50684,569.1675 L545.90247,571.82965"/>
<path d="M731.4885,629.2174 L733.50354,628.1611"/>
<path d="M732.88446,631.8803 L667.88354,507.8848 L543.88806,572.8857 L545.2664,575.515"/>
<path d="M730.8269,632.95886 L732.88446,631.8803"/>
<path d="M732.20654,635.59076 L667.2082,511.59393 L543.21136,576.5923 L544.57214,579.1882"/>
<path d="M730.1071,636.6913 L732.20654,635.59076"/>
<path d="M731.47003,639.2915 L666.476,515.2924 L542.4769,580.2864 L543.81976,582.8483"/>
<path d="M729.3293,640.4136 L731.47003,639.2915"/>
<path d="M730.6751,642.98157 L665.6872,518.97925 L541.68494,583.96716 L543.0095,586.4946"/>
<path d="M728.49365,644.1248 L730.6751,642.98157"/>
<path d="M729.8221,646.6599 L664.8418,522.6536 L540.8355,587.63385 L542.14154,590.1263"/>
<path d="M727.60046,647.8241 L729.8221,646.6599"/>
<path d="M728.9111,650.3256 L663.94,526.31445 L539.9289,591.2855 L541.21606,593.7424"/>
<path d="M726.6499,651.51025 L728.9111,650.3256"/>
<path d="M727.9423,653.97766 L662.98193,529.961 L538.9652,594.9214 L540.2333,597.3422"/>
<path d="M725.6423,655.18243 L727.9423,653.97766"/>
<path d="M726.9162,657.6151 L661.9677,533.59216 L537.94476,598.54065 L539.19336,600.9249"/>
<path d="M724.5779,658.83966 L726.9162,657.6151"/>
<path d="M725.83295,661.2369 L660.8975,537.2071 L536.86774,602.1425 L538.0966,604.4897"/>
<path d="M723.4569,662.48083 L725.83295,661.2369"/>
<path d="M724.6928,664.84204 L659.77155,540.8048 L535.7343,605.72614 L536.94324,608.0358"/>
<path d="M722.2798,666.105 L724.6928,664.84204"/>
<path d="M723.49615,668.4296 L658.5899,544.3845 L534.54486,609.2908 L535.73346,611.56244"/>
<path d="M721.0468,669.71124 L723.49615,668.4296"/>
<path d="M722.2433,671.9986 L657.35284,547.9452 L533.2995,612.83563 L534.46765,615.06885"/>
<path d="M719.75824,673.29846 L722.2433,671.9986"/>
<path d="M720.9345,675.548 L656.06055,551.486 L531.9986,616.36 L533.14606,618.55426"/>
<path d="M718.4145,676.8657 L720.9345,675.548"/>
<path d="M719.57025,679.0768 L654.71326,555.006 L530.64246,619.863 L531.7689,622.01794"/>
<path d="M717.01587,680.41205 L719.57025,679.0768"/>
<path d="M718.1509,682.58405 L653.3111,558.5042 L529.23126,623.344 L530.33655,625.4591"/>
<path d="M715.56287,683.93646 L718.1509,682.58405"/>
<path d="M716.67676,686.0688 L651.85443,561.97986 L527.76544,626.8022 L528.84937,628.8771"/>
<path d="M714.0558,687.4379 L716.67676,686.0688"/>
<path d="M715.14825,689.53 L650.3433,565.43195 L526.2453,630.2369 L527.30756,632.27106"/>
<path d="M712.49506,690.9155 L715.14825,689.53"/>
<path d="M713.56586,692.96674 L648.7782,568.8597 L524.67114,633.64734 L525.71155,635.6404"/>
<path d="M710.8811,694.3682 L713.56586,692.96674"/>
<path d="M711.92993,696.378 L647.1592,572.2621 L523.04333,637.03284 L524.0617,638.9843"/>
<path d="M709.2144,697.7951 L711.92993,696.378"/>
<path d="M710.24097,699.76276 L645.48663,575.6383 L521.3622,640.39264 L522.3584,642.30225"/>
<path d="M707.4954,701.1951 L710.24097,699.76276"/>
<path d="M708.4994,703.1202 L643.7608,578.98755 L519.6281,643.72614 L520.6019,645.5933"/>
<path d="M705.7245,704.5673 L708.4994,703.1202"/>
<path d="M706.7057,706.4492 L641.98193,582.30884 L517.84155,647.03253 L518.7928,648.857"/>
<path d="M703.9023,707.9108 L706.7057,706.4492"/>
<path d="M704.86035,709.7489 L640.1504,585.6013 L516.0028,650.3112 L516.9313,652.0926"/>
<path d="M702.0291,711.2246 L704.86035,709.7489"/>
<path d="M702.9638,713.0183 L638.2665,588.8642 L514.11237,653.5615 L515.0179,655.2993"/>
<path d="M700.1056,714.50775 L702.9638,713.0183"/>
<path d="M701.0167,716.25653 L636.3305,592.09656 L512.1706,656.7828 L513.05304,658.4766"/>
<path d="M698.13226,717.75934 L701.0167,716.25653"/>
<path d="M699.0195,719.4626 L634.34283,595.29767 L510.17792,659.97424 L511.03717,661.62384"/>
<path d="M696.1096,720.97833 L699.0195,719.4626"/>
<path d="M696.9727,722.63556 L632.30383,598.46655 L508.13483,663.13544 L508.9707,664.7403"/>
<path d="M694.03815,724.1639 L696.9727,722.63556"/>
<path d="M694.8769,725.7745 L630.2138,601.6025 L506.0418,666.26556 L506.8541,667.8254"/>
<path d="M691.9185,727.31506 L694.8769,725.7745"/>
<path d="M692.7326,728.8785 L628.0732,604.7046 L503.89926,669.364 L504.68787,670.8785"/>
<path d="M689.7512,730.43097 L692.7326,728.8785"/>
<path d="M690.54047,731.94666 L625.88226,607.7721 L501.7077,672.4303 L502.47247,673.899"/>
<path d="M687.53687,733.5106 L690.54047,731.94666"/>
<path d="M688.30096,734.9781 L623.64154,610.8042 L499.46765,675.4636 L500.2084,676.8862"/>
<path d="M685.27606,736.5532 L688.30096,734.9781"/>
<path d="M686.01483,737.97186 L621.3514,613.80005 L497.17957,678.4635 L497.8962,679.83966"/>
<path d="M682.96936,739.5578 L686.01483,737.97186"/>
<path d="M683.68256,740.9272 L619.0122,616.759 L494.84402,681.4293 L495.53638,682.7586"/>
<path d="M680.6175,742.52356 L683.68256,740.9272"/>
<path d="M681.3049,743.8431 L616.6245,619.68005 L492.46152,684.3604 L493.12943,685.64264"/>
<path d="M678.22095,745.4496 L681.3049,743.8431"/>
<path d="M678.88226,746.7188 L614.18866,622.5627 L490.0326,687.2563 L490.67596,688.491"/>
<path d="M675.78046,748.335 L678.88226,746.7188"/>
<path d="M676.4155,749.5534 L611.7052,625.406 L487.5578,690.11633 L488.17648,691.3032"/>
<path d="M673.29663,751.1791 L676.4155,749.5534"/>
<path d="M673.9052,752.34607 L609.17456,628.2093 L485.03775,692.93994 L485.6316,694.0788"/>
<path d="M670.77014,753.98083 L673.9052,752.34607"/>
<path d="M671.352,755.096 L606.59717,630.9718 L482.473,695.7266 L483.04184,696.817"/>
<path d="M668.2017,756.7395 L671.352,755.096"/>
<path d="M668.75653,757.8024 L603.97363,633.6929 L479.8641,698.47577 L480.40784,699.51746"/>
<path d="M665.5919,759.4543 L668.75653,757.8024"/>
<path d="M666.11957,760.4644 L601.30444,636.3717 L477.21173,701.1868 L477.3487,701.4491"/>
<path d="M662.9415,762.1243 L666.11957,760.4644"/>
<path d="M480.70428,700.625 L598.5901,639.0077 L663.4417,763.0813"/>
<path d="M660.25116,764.74896 L663.4417,763.0813"/>
<path d="M484.55334,699.81024 L595.8311,641.6001 L660.7237,765.6523"/>
<path d="M657.5216,767.32733 L660.7237,765.6523"/>
<path d="M488.38412,698.9372 L593.02814,644.1482 L657.96625,768.1766"/>
<path d="M654.75354,769.8587 L657.96625,768.1766"/>
<path d="M492.19525,698.0053 L590.18164,646.6514 L655.1701,770.65344"/>
<path d="M651.9477,772.3423 L655.1701,770.65344"/>
<path d="M495.98538,697.01404 L498.08667,695.9116"/>
<path d="M499.35196,695.24774 L587.2923,649.1091 L652.3359,773.08215"/>
<path d="M649.1048,774.7774 L652.3359,773.08215"/>
<path d="M499.75317,695.963 L500.4488,695.5976"/>
<path d="M503.1279,694.1903 L584.3606,651.5205 L649.4644,775.46204"/>
<path d="M646.2256,777.1633 L649.4644,775.46204"/>
<path d="M506.879,693.0729 L581.38727,653.88513 L646.5564,777.7923"/>
<path d="M643.3108,779.4993 L646.5564,777.7923"/>
<path d="M510.60394,691.8948 L578.3728,656.20233 L643.61255,780.0723"/>
<path d="M640.3612,781.7847 L643.61255,780.0723"/>
<path d="M514.3014,690.65546 L575.31793,658.4715 L640.6337,782.3014"/>
<path d="M637.3775,784.0189 L640.6337,782.3014"/>
<path d="M517.9699,689.3543 L572.22327,660.692 L637.62054,784.4789"/>
<path d="M634.3606,786.2012 L637.62054,784.4789"/>
<path d="M521.6082,687.99066 L569.0895,662.86334 L634.57385,786.6042"/>
<path d="M631.31116,788.3308 L634.57385,786.6042"/>
<path d="M525.21497,686.5639 L565.91724,664.9849 L631.49445,788.6766"/>
<path d="M628.2299,790.40735 L631.49445,788.6766"/>
<path d="M528.7887,685.07336 L562.7073,667.0562 L628.38306,790.69556"/>
<path d="M625.1178,792.43005 L628.38306,790.69556"/>
<path d="M532.3281,683.5183 L559.4602,669.07666 L625.2405,792.6605"/>
<path d="M621.97546,794.3984 L625.2405,792.6605"/>
<path d="M535.8319,681.8982 L556.1768,671.04584 L622.06744,794.5708"/>
<path d="M618.8038,796.3117 L622.06744,794.5708"/>
<path d="M539.2987,680.2123 L552.85785,672.96313 L618.86487,796.42596"/>
<path d="M615.6036,798.16956 L618.86487,796.42596"/>
<path d="M542.7272,678.4599 L543.5692,678.0086"/>
<path d="M546.1174,676.64307 L549.5039,674.8282 L615.6335,798.2254"/>
<path d="M609.76306,801.3714 L615.6335,798.2254"/>
<path d="M542.7276,678.46075 L546.1159,676.6404 L612.3741,799.9686"/>
<path d="M552.88776,831.92773 L612.3741,799.9686"/>
<path d="M539.30554,680.225 L542.6946,678.3994 L609.08746,801.65515"/>
<path d="M500.65546,860.0632 L609.08746,801.65515"/>
<path d="M482.5754,869.7824 L482.59482,869.81836 L605.77454,803.2845"/>
<path d="M535.8519,681.9351 L539.2406,680.10474 L605.77454,803.2845"/>
<path d="M479.28775,871.4483 L479.3359,871.53723 L602.436,804.85614"/>
<path d="M532.36755,683.5909 L535.7549,681.75604 L602.436,804.85614"/>
<path d="M475.97876,873.0623 L476.05585,873.20416 L599.0727,806.3697"/>
<path d="M528.8533,685.19183 L532.2382,683.3528 L599.0727,806.3697"/>
<path d="M472.64935,874.62396 L472.75555,874.81885 L595.68555,807.82465"/>
<path d="M525.3099,686.73755 L528.69135,684.8947 L595.68555,807.82465"/>
<path d="M469.30032,876.13293 L469.43585,876.38086 L592.27527,809.22076"/>
<path d="M521.7382,688.2276 L525.1151,686.38135 L592.27527,809.22076"/>
<path d="M465.93253,877.58887 L466.09763,877.8898 L588.8427,810.5575"/>
<path d="M518.13916,689.66174 L521.51044,687.8124 L588.8427,810.5575"/>
<path d="M462.5469,878.99133 L462.7417,879.3452 L585.3888,811.83453"/>
<path d="M514.5135,691.0395 L517.8781,689.1875 L585.3888,811.83453"/>
<path d="M459.14423,880.34 L459.36896,880.7468 L581.91425,813.0516"/>
<path d="M510.8622,692.3606 L514.219,690.5063 L581.91425,813.0516"/>
<path d="M455.7254,881.6346 L455.98026,882.09424 L578.42,814.20825"/>
<path d="M507.18613,693.6247 L510.53394,691.7685 L578.42,814.20825"/>
<path d="M452.29126,882.8747 L452.57648,883.38715 L574.9068,815.3042"/>
<path d="M503.4861,694.8315 L506.82388,692.9739 L574.9068,815.3042"/>
<path d="M448.8427,884.06 L449.15842,884.62506 L571.3756,816.33923"/>
<path d="M499.76312,695.9807 L503.08972,694.122 L571.3756,816.33923"/>
<path d="M445.38055,885.19025 L445.727,885.80786 L567.8272,817.313"/>
<path d="M496.01804,697.072 L499.33237,695.2128 L567.8272,817.313"/>
<path d="M441.90567,886.26514 L442.28305,886.93506 L564.26245,818.22534"/>
<path d="M492.2518,698.1053 L495.5527,696.2459 L564.26245,818.22534"/>
<path d="M438.4189,887.2843 L438.8274,888.0064 L560.6822,819.0759"/>
<path d="M488.46533,699.08014 L491.75168,697.2211 L560.6822,819.0759"/>
<path d="M434.92114,888.24756 L435.36093,889.02167 L557.0873,819.8646"/>
<path d="M484.65958,699.9964 L487.93024,698.13824 L557.0873,819.8646"/>
<path d="M431.41318,889.1546 L431.88446,889.98047 L553.4786,820.5912"/>
<path d="M480.8355,700.8539 L484.0893,698.9971 L553.4786,820.5912"/>
<path d="M427.89594,890.00525 L428.3989,890.8826 L549.857,821.2555"/>
<path d="M476.99405,701.6524 L480.2299,699.7974 L549.857,821.2555"/>
<path d="M424.3702,890.7992 L424.905,891.72784 L546.22327,821.8574"/>
<path d="M473.1362,702.3917 L476.3529,700.5391 L546.22327,821.8574"/>
<path d="M420.83682,891.5363 L421.40366,892.5158 L542.5784,822.3968"/>
<path d="M469.26294,703.0717 L472.45938,701.22205 L542.5784,822.3968"/>
<path d="M417.2967,892.21625 L417.89572,893.24646 L538.9232,822.87354"/>
<path d="M465.3752,703.6922 L468.55026,701.846 L538.9232,822.87354"/>
<path d="M413.7506,892.8389 L414.38196,893.91943 L535.2585,823.2875"/>
<path d="M461.47406,704.2531 L464.62656,702.411 L535.2585,823.2875"/>
<path d="M410.19943,893.4041 L410.86328,894.53455 L531.5852,823.6387"/>
<path d="M457.56046,704.7543 L460.6893,702.9168 L531.5852,823.6387"/>
<path d="M406.64395,893.9117 L407.34048,895.0917 L527.9041,823.92706"/>
<path d="M453.63544,705.1956 L456.73947,703.3634 L527.9041,823.92706"/>
<path d="M403.08508,894.36145 L403.81436,895.5906 L524.2162,824.1525"/>
<path d="M449.69998,705.577 L452.7781,703.7507 L524.2162,824.1525"/>
<path d="M399.52356,894.7533 L400.28577,896.0311 L520.5222,824.3151"/>
<path d="M445.75513,705.8985 L448.80624,704.0786 L520.5222,824.3151"/>
<path d="M395.9603,895.08704 L396.7555,896.41315 L516.8232,824.41486"/>
<path d="M441.80188,706.1599 L444.8249,704.34717 L516.8232,824.41486"/>
<path d="M392.39606,895.3626 L393.22437,896.7365 L513.1198,824.4518"/>
<path d="M437.8413,706.36127 L440.83508,704.55634 L513.1198,824.4518"/>
<path d="M388.83167,895.5799 L389.6932,897.0011 L509.41306,824.4259"/>
<path d="M433.87442,706.50256 L436.8379,704.70605 L509.41306,824.4259"/>
<path d="M385.26794,895.73883 L386.16278,897.2068 L505.7038,824.3374"/>
<path d="M429.90228,706.58374 L432.83438,704.7964 L505.7038,824.3374"/>
<path d="M381.70572,895.8393 L382.6339,897.35345 L501.99286,824.1862"/>
<path d="M425.9259,706.6048 L428.8256,704.82733 L501.99286,824.1862"/>
<path d="M378.1458,895.8813 L379.10742,897.4411 L498.28113,823.9726"/>
<path d="M421.94638,706.56586 L424.8126,704.7989 L498.28113,823.9726"/>
<path d="M374.589,895.86475 L375.58405,897.46967 L494.5695,823.6966"/>
<path d="M417.96475,706.46686 L420.79645,704.7111 L494.5695,823.6966"/>
<path d="M371.03604,895.7896 L372.06458,897.43896 L490.85883,823.3584"/>
<path d="M413.9821,706.30786 L416.77826,704.56415 L490.85883,823.3584"/>
<path d="M367.48782,895.65594 L368.54984,897.3491 L487.14996,822.9582"/>
<path d="M409.99942,706.089 L412.75906,704.35803 L487.14996,822.9582"/>
<path d="M363.94507,895.4637 L365.04056,897.19995 L483.44385,822.4961"/>
<path d="M406.01782,705.81036 L408.74,704.09283 L483.44385,822.4961"/>
<path d="M360.40863,895.2128 L361.53757,896.99164 L479.74127,821.9724"/>
<path d="M402.03836,705.4719 L404.72208,703.7687 L479.74127,821.9724"/>
<path d="M356.8792,894.90344 L358.04156,896.72406 L476.04318,821.3873"/>
<path d="M398.06213,705.0739 L400.70645,703.3857 L476.04318,821.3873"/>
<path d="M353.35767,894.5356 L354.55334,896.3972 L472.35037,820.741"/>
<path d="M394.09018,704.61646 L396.69418,702.94403 L472.35037,820.741"/>
<path d="M349.84473,894.10925 L351.07367,896.0113 L468.6638,820.0339"/>
<path d="M390.1236,704.0996 L392.68637,702.4438 L468.6638,820.0339"/>
<path d="M346.3412,893.6246 L347.6033,895.5662 L464.98425,819.2661"/>
<path d="M386.16342,703.5236 L388.6841,701.88513 L464.98425,819.2661"/>
<path d="M342.8478,893.08167 L344.14294,895.06213 L461.31265,818.438"/>
<path d="M382.21072,702.8886 L384.6885,701.26825 L461.31265,818.438"/>
<path d="M339.36533,892.4805 L340.6934,894.4991 L457.64987,817.54987"/>
<path d="M378.26663,702.19476 L380.70062,700.5934 L457.64987,817.54987"/>
<path d="M335.89456,891.8214 L337.25537,893.8772 L453.99677,816.60205"/>
<path d="M374.33218,701.4423 L376.7216,699.86066 L453.99677,816.60205"/>
<path d="M332.43622,891.1044 L333.8296,893.1966 L450.3542,815.5949"/>
<path d="M370.40842,700.6314 L372.7525,699.0703 L450.3542,815.5949"/>
<path d="M328.99106,890.3295 L330.4168,892.4574 L446.72302,814.5289"/>
<path d="M366.49646,699.7623 L368.79443,698.2226 L446.72302,814.5289"/>
<path d="M325.55984,889.49713 L327.01773,891.6598 L443.10413,813.4042"/>
<path d="M362.59732,698.8353 L364.8485,697.31775 L443.10413,813.4042"/>
<path d="M322.14328,888.60736 L323.63306,890.80396 L439.49838,812.2213"/>
<path d="M358.7121,697.8506 L360.91577,696.356 L439.49838,812.2213"/>
<path d="M318.74216,887.66034 L320.26358,889.88995 L435.90665,810.98065"/>
<path d="M354.84186,696.8084 L356.99738,695.3376 L435.90665,810.98065"/>
<path d="M315.35718,886.6563 L316.90994,888.91815 L432.32977,809.6827"/>
<path d="M350.98764,695.70905 L353.09433,694.2628 L432.32977,809.6827"/>
<path d="M311.98907,885.5955 L313.57285,887.8887 L428.76865,808.32776"/>
<path d="M347.15054,694.55286 L349.2078,693.132 L428.76865,808.32776"/>
<path d="M308.63858,884.47815 L310.25305,886.80176 L425.2241,806.91644"/>
<path d="M343.33154,693.3401 L345.33878,691.9454 L425.2241,806.91644"/>
<path d="M305.3064,883.30457 L306.95123,885.65765 L421.69696,805.4491"/>
<path d="M339.53174,692.0711 L341.48843,690.7033 L421.69696,805.4491"/>
<path d="M301.99326,882.07495 L303.66806,884.45667 L418.18814,803.9262"/>
<path d="M335.75214,690.74615 L337.65775,689.4061 L418.18814,803.9262"/>
<path d="M298.69986,880.7896 L300.40424,883.19904 L414.6985,802.3484"/>
<path d="M331.99384,689.36566 L333.84784,688.05414 L414.6985,802.3484"/>
<path d="M295.42694,879.4489 L297.16046,881.8851 L411.2288,800.716"/>
<path d="M328.25778,687.92993 L330.05975,686.64764 L411.2288,800.716"/>
<path d="M292.17517,878.0531 L293.9374,880.5151 L407.77997,799.02966"/>
<path d="M324.54504,686.43933 L326.29456,685.1871 L407.77997,799.02966"/>
<path d="M288.94528,876.6025 L290.73575,879.0894 L404.3528,797.28986"/>
<path d="M320.85663,684.8943 L322.55325,683.6728 L404.3528,797.28986"/>
<path d="M285.73798,875.09753 L287.55618,877.6084 L400.94818,795.49713"/>
<path d="M317.19354,683.29517 L318.8369,682.10516 L400.94818,795.49713"/>
<path d="M282.5539,873.5385 L284.39938,876.07245 L397.5669,793.6521"/>
<path d="M313.5568,681.6424 L315.14658,680.48456 L397.5669,793.6521"/>
<path d="M279.39377,871.9258 L281.26596,874.4818 L394.2098,791.75525"/>
<path d="M309.9474,679.93634 L311.48322,678.8114 L394.2098,791.75525"/>
<path d="M276.25827,870.2598 L278.15665,872.83704 L390.87775,789.8072"/>
<path d="M306.36627,678.1775 L307.8479,677.0861 L390.87775,789.8072"/>
<path d="M273.1481,868.54095 L275.07208,871.1384 L387.57153,787.80853"/>
<path d="M302.81442,676.3662 L304.2416,675.3091 L387.57153,787.80853"/>
<path d="M270.0639,866.76965 L272.0129,869.3865 L384.29196,785.7598"/>
<path d="M299.29285,674.503 L300.6653,673.4808 L384.29196,785.7598"/>
<path d="M267.00635,864.94635 L268.9798,867.58154 L381.0399,783.6617"/>
<path d="M295.80246,672.5883 L297.12006,671.6016 L381.0399,783.6617"/>
<path d="M263.97614,863.0715 L265.9734,865.7241 L377.81607,781.5148"/>
<path d="M292.3442,670.6227 L293.60675,669.67206 L377.81607,781.5148"/>
<path d="M260.97394,861.1455 L262.99432,863.81464 L374.62137,779.31964"/>
<path d="M288.91907,668.60645 L290.12637,667.6926 L374.62137,779.31964"/>
<path d="M258.00037,859.1689 L260.04327,861.8537 L371.45654,777.077"/>
<path d="M285.5279,666.5403 L286.67987,665.66376 L371.45654,777.077"/>
<path d="M255.05614,857.1422 L257.12085,859.8416 L368.3224,774.7874"/>
<path d="M282.17166,664.4246 L283.2682,663.5859 L368.3224,774.7874"/>
<path d="M252.14186,855.06586 L254.2277,857.77905 L365.21973,772.4516"/>
<path d="M279.17352,662.01215 L279.89227,661.4596 L365.21973,772.4516"/>
<path d="M249.25821,852.9404 L251.36449,855.6665 L362.1493,770.0702"/>
<path d="M280.0528,663.81506 L362.1493,770.0702"/>
<path d="M246.40582,850.76636 L248.5318,853.50446 L359.11188,767.6438"/>
<path d="M281.3675,667.5166 L359.11188,767.6438"/>
<path d="M243.58533,848.5443 L245.73029,851.29346 L356.10828,765.17316"/>
<path d="M282.76563,671.17194 L283.13638,671.6471"/>
<path d="M285.04434,674.09247 L356.10828,765.17316"/>
<path d="M240.7974,846.2748 L242.96057,849.0341 L353.1392,762.65894"/>
<path d="M286.54333,677.71045 L353.1392,762.65894"/>
<path d="M238.04263,843.9584 L240.22328,846.727 L350.20544,760.1018"/>
<path d="M288.12366,681.2807 L350.20544,760.1018"/>
<path d="M235.32169,841.5956 L237.51903,844.3727 L347.3077,757.5024"/>
<path d="M289.7844,684.80304 L290.8742,686.1804"/>
<path d="M292.1261,687.7626 L347.3077,757.5024"/>
<path d="M232.63516,839.18713 L234.84843,841.97174 L344.44678,754.86145"/>
<path d="M293.88202,691.24304 L344.44678,754.86145"/>
<path d="M229.98372,836.7335 L232.2121,839.52484 L341.62335,752.1797"/>
<path d="M295.7158,694.67444 L341.62335,752.1797"/>
<path d="M227.36794,834.2354 L229.61064,837.03265 L338.83817,749.4578"/>
<path d="M297.6264,698.0565 L299.9084,700.9027"/>
<path d="M300.02103,701.0432 L338.83817,749.4578"/>
<path d="M224.78844,831.6934 L227.04466,834.49567 L336.09192,746.6965"/>
<path d="M302.02032,704.37933 L336.09192,746.6965"/>
<path d="M222.24585,829.1082 L224.51477,831.9147 L333.3853,743.8965"/>
<path d="M304.09357,707.6652 L333.3853,743.8965"/>
<path d="M219.74075,826.48047 L222.02156,829.2903 L330.71902,741.0584"/>
<path d="M306.2395,710.9008 L330.71902,741.0584"/>
<path d="M217.27376,823.8107 L219.56561,826.62317 L328.09378,738.18317"/>
<path d="M308.45697,714.08606 L309.7218,715.6382"/>
<path d="M310.9035,717.0883 L328.09378,738.18317"/>
<path d="M214.84547,821.0998 L217.14754,823.914 L325.51022,735.2713"/>
<path d="M313.20044,720.223 L325.51022,735.2713"/>
<path d="M212.45647,818.3483 L214.76791,821.1635 L322.96902,732.3236"/>
<path d="M315.56552,723.3067 L322.96902,732.3236"/>
<path d="M201.01651,804.52484 L212.4273,818.3723 L320.47083,729.3409 L317.99747,726.33936"/>
<path d="M174.71973,772.72437 L210.12631,815.54126 L318.0163,726.3238 L315.53934,723.3284"/>
<path d="M146.97066,739.28174 L207.8655,812.67096 L315.60602,723.2731 L313.12637,720.28467"/>
<path d="M117.62907,704.03644 L205.64542,809.7622 L313.24066,720.1895 L310.75922,717.2088"/>
<path d="M308.43848,714.10156 L310.9208,717.07385 L203.46666,806.81573 L113.724785,699.3616 L113.77437,699.3201"/>
<path d="M306.1647,710.9637 L308.64706,713.92676 L201.32974,803.8323 L111.424286,696.5149 L111.52609,696.4296"/>
<path d="M303.93854,707.7959 L306.42004,710.74915 L199.23526,800.81256 L109.171814,693.6278 L109.325516,693.49866"/>
<path d="M301.76047,704.59894 L304.24026,707.5416 L197.18372,797.75745 L106.96788,690.7009 L107.17314,690.52795"/>
<path d="M299.63113,701.3736 L302.1083,704.305 L195.17567,794.66766 L104.81301,687.73505 L105.069496,687.51825"/>
<path d="M297.55103,698.12054 L300.02475,701.04004 L193.21165,791.544 L102.70772,684.7309 L103.015076,684.47046"/>
<path d="M295.52066,694.8406 L297.9901,697.74756 L191.29219,788.3872 L100.65249,681.68933 L101.01036,681.3853"/>
<path d="M293.5406,691.5345 L296.0049,694.4282 L189.41779,785.1982 L98.64782,678.6111 L99.05584,678.2636"/>
<path d="M291.6113,688.203 L294.06964,691.0829 L187.58896,781.97766 L96.694176,675.497 L97.15196,675.1062"/>
<path d="M289.73328,684.84686 L292.18484,687.7123 L185.80623,778.7265 L94.792015,672.34784 L95.2992,671.91394"/>
<path d="M287.907,681.46686 L290.351,684.3172 L184.07005,775.4455 L92.941795,669.16455 L93.497986,668.6876"/>
<path d="M286.13297,678.0637 L288.56854,680.89844 L182.38095,772.13544 L91.143936,665.9479 L91.74875,665.4282"/>
<path d="M284.41156,674.6383 L286.83798,677.4568 L180.73938,768.79724 L89.39889,662.69867 L90.05191,662.1365"/>
<path d="M282.74323,671.1913 L285.15973,673.993 L179.14581,765.43176 L87.70704,659.41785 L88.407875,658.81335"/>
<path d="M281.12842,667.7235 L283.5342,670.5078 L177.60071,762.03973 L86.068794,656.10626 L86.81705,655.4597"/>
<path d="M279.56754,664.2357 L281.96188,667.00214 L176.10452,758.62213 L84.48455,652.7648 L85.27979,652.0765"/>
<path d="M278.06097,660.72876 L280.4431,663.4767 L174.65767,755.1797 L82.954666,649.3943 L83.79649,648.6645"/>
<path d="M276.60907,657.20337 L278.9783,659.9323 L173.2606,751.71344 L81.47952,645.9957 L82.36751,645.2248"/>
<path d="M275.21225,653.66034 L277.56784,656.3698 L171.91371,748.22406 L80.05945,642.56995 L80.99318,641.7582"/>
<path d="M273.87082,650.10046 L276.21207,652.79 L170.61743,744.7126 L78.69479,639.118 L79.673836,638.2657"/>
<path d="M272.58514,646.52466 L274.91135,649.1936 L169.37213,741.1799 L77.38587,635.6406 L78.4098,634.74817"/>
<path d="M271.35553,642.93353 L273.66602,645.5815 L168.1782,737.6267 L76.133,632.13885 L77.20138,631.20667"/>
<path d="M270.18228,639.32806 L272.4764,641.9545 L167.03601,734.054 L74.93647,628.61365 L76.048874,627.642"/>
<path d="M269.0657,635.709 L271.34277,638.3134 L165.9459,730.46277 L73.79658,625.0659 L74.95255,624.05524"/>
<path d="M268.00607,632.07715 L270.26547,634.6591 L164.90825,726.8538 L72.71357,621.4966 L73.9127,620.44727"/>
<path d="M267.00363,628.43335 L269.24472,630.99243 L163.92334,723.228 L71.68773,617.9067 L72.92955,616.81915"/>
<path d="M266.05865,624.77844 L268.2808,627.3141 L162.99152,719.58636 L70.71928,614.29706 L72.00336,613.1717"/>
<path d="M265.1714,621.1133 L267.374,623.62506 L162.11307,715.9296 L69.80846,610.6687 L71.13435,609.50604"/>
<path d="M264.342,617.4386 L266.52448,619.9261 L161.28827,712.25885 L68.95549,607.02264 L70.322754,605.82306"/>
<path d="M263.57074,613.7554 L265.73248,616.2181 L160.51741,708.5749 L68.16056,603.35986 L69.56875,602.1237"/>
<path d="M262.85782,610.06433 L264.99823,612.50183 L159.80074,704.8787 L67.423874,599.6812 L68.872536,598.40906"/>
<path d="M262.20334,606.3664 L264.32193,608.77826 L159.13849,701.17114 L66.745605,595.98773 L68.23428,594.68005"/>
<path d="M261.6075,602.66235 L263.7037,605.04816 L158.53088,697.4532 L66.1259,592.28033 L67.65415,590.9376"/>
<path d="M261.0705,598.9532 L263.1437,601.3125 L157.97815,693.7257 L65.564926,588.5601 L67.13229,587.1828"/>
<path d="M260.5924,595.2396 L262.64212,597.572 L157.48045,689.9896 L65.06281,584.82794 L66.66884,583.41656"/>
<path d="M260.17334,591.5226 L262.19907,593.82764 L157.03798,686.2459 L64.61967,581.08484 L66.2639,579.63983"/>
<path d="M259.81342,587.8029 L261.81464,590.08026 L156.6509,682.49554 L64.23561,577.3317 L65.917595,575.85364"/>
<path d="M259.51273,584.08154 L261.48895,586.3307 L156.31932,678.7393 L63.91073,573.56964 L65.63001,572.05896"/>
<path d="M259.27133,580.3594 L261.22208,582.5799 L156.04338,674.9782 L63.645096,569.7995 L65.401215,568.2568"/>
<path d="M259.0893,576.63715 L261.01407,578.8288 L155.82321,671.2132 L63.438786,566.02234 L65.231285,564.44806"/>
<path d="M258.96664,572.9159 L260.86502,575.0781 L155.65887,667.4452 L63.29184,562.239 L65.12026,560.6337"/>
<path d="M258.9034,569.1964 L260.7749,571.3289 L155.55043,663.67505 L63.2043,558.45056 L65.068184,556.8148"/>
<path d="M258.89963,565.4797 L260.7438,567.58203 L155.49797,659.9038 L63.176186,554.65796 L65.075066,552.99225"/>
<path d="M258.95526,561.76654 L260.77173,563.8384 L155.5015,656.1323 L63.207504,550.8621 L65.14092,549.16705"/>
<path d="M259.0703,558.05786 L260.8586,560.0988 L155.56104,652.3616 L63.29825,547.064 L65.26575,545.3401"/>
<path d="M259.24475,554.3547 L261.00446,556.3643 L155.67657,648.59247 L63.4484,543.2646 L65.44952,541.5124"/>
<path d="M259.47852,550.6577 L261.20926,552.63574 L155.84813,644.8259 L63.65792,539.46484 L65.69219,537.6849"/>
<path d="M259.77155,546.968 L261.4729,548.914 L156.07562,641.06287 L63.92677,535.6656 L65.99373,533.85846"/>
<path d="M260.12375,543.2865 L261.79538,545.2001 L156.35904,637.30426 L64.254875,531.8679 L66.35406,530.0342"/>
<path d="M260.53503,539.61395 L262.17657,541.4949 L156.69827,633.55096 L64.642166,528.0727 L66.77312,526.2129"/>
<path d="M261.0053,535.9514 L262.6164,537.79926 L157.09325,629.80396 L65.08855,524.2808 L67.2508,522.39557"/>
<path d="M261.53442,532.2998 L263.11472,534.1142 L157.54384,626.0641 L65.59392,520.4932 L67.787,518.58307"/>
<path d="M262.12228,528.66 L263.67145,530.44055 L158.04996,622.3324 L66.15816,516.7109 L68.381615,514.7764"/>
<path d="M262.76868,525.03284 L264.28638,526.77936 L158.61142,618.6096 L66.781136,512.9347 L69.0345,510.97653"/>
<path d="M263.47345,521.4194 L264.9594,523.1315 L159.22807,614.89685 L67.4627,509.1655 L69.745514,507.18423"/>
<path d="M264.23645,517.82043 L265.69034,519.4978 L159.89977,611.1949 L68.2027,505.4043 L70.51449,503.40048"/>
<path d="M265.05746,514.23706 L266.479,515.87933 L160.62627,607.50464 L69.00095,501.65192 L71.341255,499.62616"/>
<path d="M265.93625,510.67004 L267.32516,512.2769 L161.4074,603.8271 L69.85727,497.90927 L72.225624,495.86218"/>
<path d="M266.8726,507.12036 L268.22864,508.6916 L162.24289,600.163 L70.771454,494.17728 L73.1674,492.10944"/>
<path d="M267.86624,503.58893 L269.18915,505.12415 L163.13254,596.5134 L71.743286,490.4568 L74.16636,488.3688"/>
<path d="M268.91693,500.07666 L270.20648,501.57562 L164.07603,592.8791 L72.772545,486.74866 L75.22227,484.64117"/>
<path d="M270.0244,496.58444 L271.28036,498.04684 L165.07315,589.26105 L73.85898,483.0538 L76.3349,480.9274"/>
<path d="M271.1884,493.11325 L272.41055,494.5388 L166.12355,585.66003 L75.002335,479.37305 L77.50399,477.22833"/>
<path d="M272.40854,489.66394 L273.59668,491.05237 L167.22696,582.07697 L76.20234,475.70728 L78.72926,473.5449"/>
<path d="M273.68457,486.23743 L274.8385,487.5885 L168.38303,578.5128 L77.45872,472.0573 L80.010445,469.87787"/>
<path d="M275.0161,482.83463 L276.13568,484.14804 L169.59142,574.9683 L78.77117,468.42404 L81.34724,466.22815"/>
<path d="M276.40286,479.45645 L277.4879,480.73196 L170.85179,571.44434 L80.13939,464.80826 L82.739334,462.59656"/>
<path d="M277.84442,476.10373 L278.89478,477.34113 L172.16377,567.94183 L81.56304,461.21085 L84.18641,458.98395"/>
<path d="M279.34042,472.7774 L280.35596,473.9764 L173.52698,564.4616 L83.04181,457.6326 L85.68813,455.39114"/>
<path d="M280.89047,469.47836 L281.8711,470.63876 L174.94101,561.00446 L84.57533,454.07434 L87.24415,451.81897"/>
<path d="M282.49417,466.20746 L283.43976,467.329 L176.40547,557.5712 L86.163246,450.53693 L88.854095,448.26825"/>
<path d="M284.1511,462.96555 L285.06158,464.04807 L177.91992,554.1628 L87.80518,447.02115 L90.5176,444.73978"/>
<path d="M285.86084,459.7535 L286.7361,460.79675 L179.48395,550.77997 L89.50076,443.5278 L92.23428,441.2344"/>
<path d="M287.62292,456.5722 L288.46292,457.576 L181.09709,547.4235 L91.24957,440.05768 L94.00374,437.7529"/>
<path d="M289.43692,453.4225 L290.24158,454.38663 L182.7589,544.0943 L93.0512,436.61163 L95.82556,434.29608"/>
<path d="M291.3023,450.30518 L292.07162,451.22946 L184.4689,540.79315 L94.905235,433.1904 L97.69931,430.86472"/>
<path d="M293.21863,447.2211 L293.9526,448.10535 L186.22662,537.52075 L96.811226,429.79477 L99.624565,427.45963"/>
<path d="M295.1854,444.17108 L295.884,445.01514 L188.03156,534.27795 L98.76873,426.42554 L101.60087,424.08154"/>
<path d="M297.2021,441.1559 L297.86533,441.95963 L189.88322,531.0656 L100.77728,423.0835 L103.62776,420.73132"/>
<path d="M299.2682,438.17645 L299.89606,438.93964 L191.78111,527.88434 L102.83641,419.7694 L105.704765,417.40964"/>
<path d="M301.38312,435.23343 L301.97568,435.95596 L193.72469,524.73505 L104.94563,416.484 L107.8314,414.11734"/>
<path d="M303.5464,432.32767 L304.1037,433.00937 L195.71342,521.61835 L107.10445,413.2281 L110.00716,410.85513"/>
<path d="M305.21658,430.96677 L197.7468,518.5351 L109.31234,410.0024 L112.23154,407.6238"/>
<path d="M302.05862,432.4636 L199.82425,515.486 L111.5688,406.8077 L114.504005,404.4241"/>
<path d="M299.99814,433.11923 L201.94522,512.4718 L113.87329,403.64474 L116.82404,401.25674"/>
<path d="M298.48904,433.38248 L204.10916,509.4932 L116.22526,400.51422 L119.19109,398.1225"/>
<path d="M295.3731,434.99133 L206.31549,506.5509 L118.62415,397.4169 L121.6046,395.02206"/>
<path d="M292.2672,436.63638 L208.56364,503.64563 L121.06941,394.35355 L124.063995,391.9562"/>
<path d="M289.45428,438.0909 L210.85303,500.77805 L123.56045,391.32483 L126.568695,388.92566"/>
<path d="M288.64374,437.9985 L213.18306,497.94885 L126.09667,388.3315 L129.11812,385.93112"/>
<path d="M285.7764,439.58902 L215.55313,495.15872 L128.67749,385.3743 L131.71164,382.97327"/>
<path d="M282.72165,441.36865 L217.96265,492.40833 L131.30228,382.4539 L134.34866,380.0529"/>
<path d="M279.89285,443.01013 L220.411,489.69833 L133.97043,379.57098 L137.02856,377.17062"/>
<path d="M279.30493,442.93958 L222.89757,487.02933 L136.68129,376.72632 L139.75069,374.32718"/>
<path d="M276.42035,444.70987 L225.42174,484.402 L139.43422,373.92056 L142.5144,371.5233"/>
<path d="M273.41544,446.61047 L227.98288,481.81696 L142.22858,371.15442 L145.31903,368.75958"/>
<path d="M271.27173,447.8819 L230.58038,479.2748 L145.06367,368.42856 L148.16393,366.03674"/>
<path d="M270.26364,448.32117 L233.2136,476.77618 L147.93884,365.74368 L151.04839,363.3555"/>
<path d="M267.29764,450.30435 L235.88187,474.32166 L150.8534,363.10046 L153.97174,360.7165"/>
<path d="M250.20804,287.14395 L262.07462,278.072 L262.09503,278.0987"/>
<path d="M264.34116,452.31265 L238.58458,471.91183 L153.80664,360.4995 L156.93326,358.12036"/>
<path d="M235.06332,298.66815 L265.21893,275.7216 L265.27136,275.79047"/>
<path d="M263.5381,452.72147 L241.32109,469.54724 L156.79787,357.94156 L159.93225,355.56778"/>
<path d="M220.4685,309.72137 L268.40353,273.41837 L268.48764,273.52942"/>
<path d="M261.31958,454.2431 L244.09071,467.2285 L159.82634,355.42725 L162.968,353.0594"/>
<path d="M206.38498,320.3361 L271.62756,271.16287 L271.7431,271.31616"/>
<path d="M258.4009,456.32483 L246.89282,464.95612 L162.89136,352.9572 L166.03975,350.59586"/>
<path d="M192.7756,330.5434 L274.89026,268.95575 L275.03687,269.1512"/>
<path d="M256.65643,457.559 L249.72676,462.73065 L165.99216,350.5321 L169.14676,348.1778"/>
<path d="M179.60466,340.373 L278.1907,266.7975 L278.3681,267.0352"/>
<path d="M281.73596,264.96857 L281.52814,264.6887 L169.128,348.15253 L252.59186,460.55264 L255.47784,458.40964"/>
<path d="M285.13956,262.95193 L284.9016,262.62985 L172.29814,345.81915 L255.48744,458.4226 L258.37488,456.28943"/>
<path d="M288.578,260.98575 L288.3103,260.62152 L175.5018,343.53256 L258.41284,456.34106 L261.30133,454.21814"/>
<path d="M292.0504,259.0706 L291.7533,258.6642 L178.73819,341.29343 L261.3674,454.30853 L264.25647,452.19623"/>
<path d="M295.55585,257.20688 L295.22968,256.7584 L182.00653,339.1023 L264.35043,452.32544 L267.23965,450.22418"/>
<path d="M299.0934,255.39511 L298.73856,254.90456 L185.30603,336.9598 L267.36127,450.39233 L270.2502,448.30252"/>
<path d="M302.6622,253.63577 L302.279,253.10318 L188.6359,334.86652 L270.39923,448.5096 L273.28745,446.4316"/>
<path d="M306.2612,251.92928 L305.85007,251.35469 L191.99529,332.82303 L273.46362,446.6778 L276.3507,444.61197"/>
<path d="M309.88953,250.27608 L309.4508,249.65956 L195.3834,330.8299 L276.55374,444.8973 L279.43924,442.844"/>
<path d="M313.54617,248.67657 L313.08026,248.01817 L198.7994,328.8877 L279.6689,443.16858 L282.5524,441.12814"/>
<path d="M317.2302,247.13118 L316.73746,246.43097 L202.24243,326.997 L282.80847,441.49203 L285.68948,439.46478"/>
<path d="M320.94055,245.64027 L320.42145,244.89833 L205.71167,325.15833 L285.97168,439.8681 L288.8498,437.85434"/>
<path d="M324.67633,244.20424 L324.13116,243.42062 L209.20624,323.37222 L289.15784,438.29715 L292.03262,436.2972"/>
<path d="M328.43646,242.82344 L327.8657,241.99821 L212.72528,321.6392 L292.36627,436.7796 L295.23724,434.7938"/>
<path d="M332.22,241.49818 L331.62396,240.63145 L216.26793,319.95978 L295.59625,435.31583 L298.463,433.34442"/>
<path d="M336.02588,240.22884 L335.405,239.32068 L219.83328,318.33447 L298.84708,433.9062 L301.70917,431.94943"/>
<path d="M339.8531,239.01567 L339.20773,238.0662 L223.42047,316.76376 L302.11804,432.55103 L304.975,430.60925"/>
<path d="M343.7006,237.85901 L343.0312,236.8683 L227.02861,315.24814 L305.40845,431.25073 L308.2598,429.32413"/>
<path d="M347.56735,236.75911 L346.8743,235.72728 L230.65677,313.78806 L308.71753,430.00558 L311.56287,428.09445"/>
<path d="M351.45236,235.71623 L350.73605,234.6434 L234.30406,312.38397 L312.04462,428.81595 L314.88345,426.92047"/>
<path d="M355.35452,234.73065 L354.61533,233.61693 L237.96954,311.03632 L315.38895,427.6821 L318.22083,425.80255"/>
<path d="M359.2728,233.80257 L358.51114,232.64809 L241.65233,309.74554 L318.74982,426.60437 L321.57425,424.74094"/>
<path d="M363.20615,232.9322 L362.42236,231.73708 L245.35147,308.5121 L322.12646,425.583 L324.94302,423.7359"/>
<path d="M367.15347,232.11977 L366.348,230.88414 L249.06602,307.33633 L325.51822,424.61832 L328.3264,422.78775"/>
<path d="M371.11374,231.36543 L370.28696,230.08943 L252.79507,306.21866 L328.9243,423.71054 L331.7236,421.8967"/>
<path d="M375.08588,230.66936 L374.23813,229.35313 L256.53766,305.15945 L332.34396,422.85992 L335.1339,421.06302"/>
<path d="M379.06876,230.0317 L378.20047,228.6754 L260.29282,304.15906 L335.7765,422.0667 L338.5566,420.2869"/>
<path d="M383.0614,229.45258 L382.1729,228.05637 L264.05963,303.21786 L339.22113,421.33115 L341.9909,419.5686"/>
<path d="M387.06265,228.93211 L386.15436,227.49617 L267.8371,302.33618 L342.67712,420.65344 L345.43607,418.9083"/>
<path d="M391.07144,228.47043 L390.1437,226.99489 L271.62427,301.5143 L346.1437,420.03375 L348.89133,418.30618"/>
<path d="M395.08673,228.06758 L394.1399,226.55264 L275.4202,300.7526 L349.62015,419.4723 L352.35593,417.76245"/>
<path d="M399.10742,227.72365 L398.14185,226.1695 L279.22388,300.0513 L353.10568,418.96924 L355.8291,417.27725"/>
<path d="M403.13242,227.43869 L402.14844,225.84549 L283.03436,299.41068 L356.59958,418.52475 L359.31006,416.85074"/>
<path d="M407.16064,227.21272 L406.15863,225.58069 L286.85068,298.83102 L360.101,418.13898 L362.7981,416.4831"/>
<path d="M411.191,227.04578 L410.17133,225.37512 L290.6718,298.31253 L363.60922,417.81204 L366.29236,416.17438"/>
<path d="M415.22247,226.93785 L414.18542,225.22878 L294.4968,297.85547 L367.12347,417.54407 L369.7921,415.92477"/>
<path d="M419.25397,226.88896 L418.19986,225.14168 L298.32468,297.46 L370.64297,417.33517 L373.29657,415.7343"/>
<path d="M423.28436,226.89903 L422.21353,225.11377 L302.15442,297.1263 L374.16696,417.18546 L376.80493,415.60315"/>
<path d="M427.3126,226.96806 L426.22537,225.14505 L305.98505,296.8546 L377.6946,417.09494 L380.31644,415.53134"/>
<path d="M431.33765,227.09598 L430.23434,225.23544 L309.8156,296.64502 L381.2252,417.06375 L383.83026,415.51892"/>
<path d="M435.3584,227.2827 L434.23932,225.3849 L313.64508,296.4977 L384.75784,417.09195 L387.34564,415.56595"/>
<path d="M439.37384,227.52815 L438.23923,225.59335 L317.47247,296.41275 L388.29187,417.1795 L390.86176,415.6725"/>
<path d="M443.38287,227.83223 L442.23306,225.86067 L321.2968,296.39026 L391.8264,417.3265 L394.37784,415.8385"/>
<path d="M447.38446,228.1948 L446.21973,226.18675 L325.1171,296.4303 L395.36066,417.53293 L397.89304,416.06406"/>
<path d="M451.37753,228.61574 L450.19815,226.5715 L328.93237,296.53296 L398.89383,417.79877 L401.40656,416.3491"/>
<path d="M455.36108,229.09491 L454.16733,227.01474 L332.7416,296.69827 L402.42514,418.124 L404.91763,416.6936"/>
<path d="M459.33405,229.63213 L458.12616,227.51634 L336.54385,296.92627 L405.95377,418.5086 L408.42538,417.0976"/>
<path d="M463.2954,230.22723 L462.07367,228.07613 L340.3381,297.21695 L409.4789,418.9525 L411.92908,417.56094"/>
<path d="M467.2441,230.88002 L466.0088,228.69392 L344.12338,297.57028 L412.99976,419.4557 L415.42783,418.08362"/>
<path d="M471.1792,231.5903 L469.93048,229.36952 L347.89874,297.98627 L416.5155,420.018 L418.9208,418.66553"/>
<path d="M475.09958,232.35786 L473.83774,230.10272 L351.66318,298.46484 L420.0253,420.6394 L422.40726,419.30658"/>
<path d="M479.00433,233.18245 L477.72958,230.89331 L355.41574,299.0059 L423.52832,421.31973 L425.88632,420.00665"/>
<path d="M482.8924,234.06384 L481.60495,231.74104 L359.15543,299.6094 L427.0238,422.05893 L429.35715,420.76563"/>
<path d="M486.7628,235.00177 L485.46292,232.64566 L362.88132,300.2752 L430.51086,422.85678 L432.81897,421.58337"/>
<path d="M490.6146,235.99596 L489.30243,233.60692 L366.59244,301.00317 L433.9887,423.71317 L436.27087,422.45972"/>
<path d="M494.44675,237.04611 L493.12256,234.62453 L370.28784,301.79318 L437.45648,424.6279 L439.7121,423.3945"/>
<path d="M498.25836,238.15196 L496.92233,235.69821 L373.96655,302.64505 L440.9134,425.60083 L443.14178,424.3875"/>
<path d="M502.04843,239.31319 L500.70078,236.82768 L377.6277,303.5586 L444.35858,426.63168 L446.5591,425.43854"/>
<path d="M505.81604,240.52948 L504.45694,238.0126 L381.27023,304.5336 L447.79123,427.72028 L449.9632,426.5474"/>
<path d="M509.56024,241.80048 L508.18988,239.25267 L384.89334,305.56982 L451.21048,428.86636 L453.35327,427.71384"/>
<path d="M513.28015,243.12585 L511.89865,240.54755 L388.49603,306.66705 L454.61554,430.0697 L456.72845,428.9376"/>
<path d="M516.9748,244.50525 L515.5824,241.89688 L392.0774,307.82498 L458.00552,431.33 L460.0879,430.21838"/>
<path d="M520.64325,245.9383 L519.2402,243.30031 L395.63657,309.04337 L461.37964,432.64697 L463.4308,431.55597"/>
<path d="M524.2847,247.4246 L522.87103,244.75748 L399.1726,310.32187 L464.737,434.02036 L466.7563,432.95004"/>
<path d="M527.89825,248.96379 L526.4742,246.268 L402.6846,311.6602 L468.07678,435.44977 L470.06357,434.40027"/>
<path d="M531.483,250.55545 L530.0487,247.83148 L406.17172,313.05795 L471.3982,436.93494 L473.35178,435.9063"/>
<path d="M535.0381,252.19919 L533.59375,249.44753 L409.63306,314.5148 L474.70035,438.4755 L476.62006,437.46783"/>
<path d="M538.5627,253.89456 L537.1084,251.11572 L413.06775,316.0304 L477.9824,440.07104 L479.86758,439.08447"/>
<path d="M542.0559,255.64113 L540.5919,252.83563 L416.4749,317.60425 L481.24353,441.72125 L483.09354,440.75586"/>
<path d="M545.51697,257.43848 L544.0434,254.60683 L419.85373,319.23602 L484.4829,443.42566 L486.29706,442.48157"/>
<path d="M548.94507,259.2861 L547.46204,256.4289 L423.20337,320.92523 L487.6997,445.1839 L489.47733,444.26123"/>
<path d="M552.3394,261.1836 L550.8471,258.30133 L426.52298,322.67142 L490.89307,446.99554 L492.6335,446.0944"/>
<path d="M555.6992,263.13043 L554.19775,260.2237 L429.8117,324.47412 L494.06213,448.86014 L495.7648,447.98065"/>
<path d="M559.0236,265.12616 L557.5132,262.19553 L433.06882,326.33282 L497.20612,450.77722 L498.87033,449.9195"/>
<path d="M562.31195,267.17026 L560.7927,264.2163 L436.29343,328.247 L500.32416,452.74628 L501.94928,451.9105"/>
<path d="M565.5634,269.26227 L564.0355,266.28558 L439.48483,330.2162 L503.41544,454.76688 L505.00082,453.95313"/>
<path d="M568.7773,271.4016 L567.2409,268.40283 L442.64218,332.23978 L506.47913,456.8385 L508.02417,456.0469"/>
<path d="M571.9529,273.58783 L570.40814,270.56754 L445.7647,334.3172 L509.5144,458.9606 L511.0185,458.19135"/>
<path d="M575.0894,275.82034 L573.5365,272.77917 L448.8517,336.4479 L512.52045,461.13266 L513.9829,460.38586"/>
<path d="M578.1863,278.09863 L576.6253,275.03723 L451.9024,338.63123 L515.4964,463.35413 L516.91675,462.62994"/>
<path d="M581.2427,280.42215 L579.6739,277.34116 L454.91605,340.8666 L518.4415,465.62445 L519.8191,464.923"/>
<path d="M584.25806,282.7903 L582.6815,279.6904 L457.89194,343.15338 L521.3549,467.943 L522.68915,467.2645"/>
<path d="M587.2317,285.20258 L585.64764,282.0844 L460.82935,345.4909 L524.23584,470.30923 L525.5261,469.65378"/>
<path d="M590.16296,287.6584 L588.5716,284.5226 L463.72757,347.8785 L527.0835,472.72253 L528.3293,472.0903"/>
<path d="M593.0512,290.1571 L591.4527,287.00443 L466.58594,350.3155 L529.897,475.18225 L531.0978,474.57343"/>
<path d="M595.8959,292.69815 L594.2904,289.5293 L469.40375,352.80115 L532.6756,477.68777 L533.8309,477.1025"/>
<path d="M598.6963,295.28098 L597.08405,292.0966 L472.18036,355.33478 L535.4186,480.23846 L536.5277,479.6769"/>
<path d="M601.4519,297.9049 L599.83307,294.70572 L474.9151,357.91565 L538.12506,482.83365 L539.18756,482.296"/>
<path d="M604.1622,300.56934 L602.537,297.3561 L477.60736,360.54303 L540.79425,485.47266 L541.8097,484.95905"/>
<path d="M606.82654,303.27368 L605.1951,300.0471 L480.25647,363.2161 L543.4255,488.1548 L544.1338,487.79666"/>
<path d="M609.44434,306.01724 L607.80707,302.77805 L482.86182,365.9341 L543.6093,486.11432"/>
<path d="M612.0152,308.79944 L610.37213,305.54834 L485.42282,368.69632 L542.87976,482.38498"/>
<path d="M614.5385,311.61957 L612.88995,308.35736 L487.93887,371.50186 L542.0945,478.66562"/>
<path d="M617.0138,314.477 L615.36,311.20444 L490.4094,374.3499 L541.2529,474.95767"/>
<path d="M619.4406,317.37106 L617.78174,314.0889 L492.83383,377.23972 L540.35455,471.26248"/>
<path d="M621.81836,320.3011 L620.1547,317.01007 L495.2116,380.17035 L539.3989,467.58136"/>
<path d="M624.14667,323.2664 L622.4785,319.9673 L497.5422,383.141 L538.3857,463.91568"/>
<path d="M626.4251,326.2663 L624.7527,322.95987 L499.82504,386.1508 L537.3144,460.26675"/>
<path d="M628.6532,329.30008 L626.97675,325.98715 L502.05966,389.19885 L536.18475,456.6358"/>
<path d="M630.8305,332.36703 L629.1504,329.04837 L504.24554,392.2843 L534.9965,453.02417"/>
<path d="M632.9567,335.46646 L631.27313,332.14282 L506.38217,395.40622 L533.7494,449.43304"/>
<path d="M635.0313,338.59766 L633.3446,335.26987 L508.4691,398.5637 L532.44336,445.86365"/>
<path d="M637.05396,341.75986 L635.36444,338.42868 L510.50583,401.75583 L531.0782,442.31723"/>
<path d="M639.02435,344.95236 L637.3323,341.61862 L512.4919,404.9817 L529.6539,438.7949"/>
<path d="M640.9421,348.17444 L639.2478,344.83887 L514.4269,408.24036 L528.1705,435.2978"/>
<path d="M642.80676,351.4253 L641.1106,348.08875 L516.31036,411.53085 L526.628,431.8271"/>
<path d="M644.61816,354.70422 L642.9205,351.36746 L518.14197,414.85226 L525.02655,428.38382"/>
<path d="M646.37585,358.0104 L644.677,354.67426 L519.92114,418.2036 L523.36633,424.9691"/>
<path d="M709.9555,482.74066 L646.37994,358.00833 L521.64764,421.58392 L523.37164,424.96637"/>
<path d="M709.95123,482.74283 L709.9555,482.74066"/>
<path d="M711.6522,486.07697 L648.029,361.369 L523.321,424.99222 L525.0462,428.37378"/>
<path d="M711.59454,486.1064 L711.6522,486.07697"/>
<path d="M713.2961,489.4384 L649.6239,364.75537 L524.9409,428.42755 L526.6668,431.80725"/>
<path d="M713.1849,489.49515 L713.2961,489.4384"/>
<path d="M714.8866,492.82416 L651.16437,368.16672 L526.50696,431.88895 L528.2331,435.26575"/>
<path d="M714.72186,492.9084 L714.8866,492.82416"/>
<path d="M716.4234,496.2336 L652.6502,371.60223 L528.01886,435.3754 L529.74475,438.74835"/>
<path d="M716.205,496.34534 L716.4234,496.2336"/>
<path d="M717.90594,499.66605 L654.0812,375.0611 L529.4762,438.8859 L531.2014,442.25403"/>
<path d="M717.634,499.80536 L717.90594,499.66605"/>
<path d="M719.3339,503.12076 L655.457,378.5425 L530.8788,442.41946 L532.6028,445.78183"/>
<path d="M719.00836,503.2877 L719.3339,503.12076"/>
<path d="M720.707,506.59695 L656.77747,382.04565 L532.2262,445.97513 L533.94855,449.33072"/>
<path d="M720.32776,506.79156 L720.707,506.59695"/>
<path d="M722.0246,510.09396 L658.0424,385.5697 L533.5182,449.55185 L535.2384,452.89975"/>
<path d="M721.59186,510.31628 L722.0246,510.09396"/>
<path d="M723.28644,513.611 L659.25165,389.11383 L534.7545,453.14862 L536.47205,456.48788"/>
<path d="M722.80023,513.8611 L723.28644,513.611"/>
<path d="M724.4923,517.14734 L660.405,392.6772 L535.9348,456.7645 L537.64923,460.09418"/>
<path d="M723.95264,517.4252 L724.4923,517.14734"/>
<path d="M725.64166,520.7023 L661.50226,396.25894 L537.05896,460.3984 L538.7697,463.71756"/>
<path d="M725.04877,521.0079 L725.64166,520.7023"/>
<path d="M726.7344,524.2749 L662.5433,399.85825 L538.1266,464.04935 L539.8332,467.35712"/>
<path d="M726.08826,524.6083 L726.7344,524.2749"/>
<path d="M727.77,527.86456 L663.5279,403.47424 L539.1376,467.71637 L540.8395,471.01178"/>
<path d="M727.07086,528.22565 L727.77,527.86456"/>
<path d="M728.7483,531.47046 L664.456,407.10608 L540.0916,471.3984 L541.7884,474.68057"/>
<path d="M727.9963,531.8592 L728.7483,531.47046"/>
<path d="M729.669,535.09174 L665.3274,410.75287 L540.9885,475.09448 L542.6796,478.36252"/>
<path d="M728.8643,535.5082 L729.669,535.09174"/>
<path d="M730.5319,538.72766 L666.1421,414.41376 L541.8281,478.80356 L543.5131,482.0566"/>
<path d="M729.6747,539.1717 L730.5319,538.72766"/>
<path d="M731.3367,542.37744 L666.89984,418.08786 L542.6103,482.5247 L544.2886,485.76187"/>
<path d="M730.4272,542.84894 L731.3367,542.37744"/>
<path d="M732.0831,546.04016 L667.60065,421.7743 L543.3348,486.2568 L545.00586,489.47726"/>
<path d="M731.1216,546.5391 L732.0831,546.04016"/>
<path d="M732.77106,549.7151 L668.2443,425.4722 L544.0014,489.99893 L545.66486,493.20184"/>
<path d="M731.75775,550.2414 L732.77106,549.7151"/>
<path d="M733.40027,553.40137 L668.8308,429.18063 L544.6101,493.7501 L546.26544,496.9346"/>
<path d="M732.33545,553.9549 L733.40027,553.40137"/>
<path d="M733.97064,557.09814 L669.3601,432.89877 L545.16077,497.50928 L546.8074,500.67456"/>
<path d="M732.85455,557.6788 L733.97064,557.09814"/>
<path d="M734.4819,560.80457 L669.8321,436.62567 L545.6532,501.27548 L547.29065,504.42075"/>
<path d="M733.3149,561.4122 L734.4819,560.80457"/>
<path d="M734.93396,564.51984 L670.2467,440.3604 L546.0873,505.0477 L547.71515,508.17218"/>
<path d="M733.7163,565.15424 L734.93396,564.51984"/>
<path d="M735.3267,568.243 L670.6039,444.10214 L546.463,508.825 L548.08075,511.9279"/>
<path d="M734.05884,568.90405 L735.3267,568.243"/>
<path d="M735.66003,571.97327 L670.90356,447.8499 L546.7803,512.6064 L548.3874,515.68695"/>
<path d="M734.3422,572.66077 L735.66003,571.97327"/>
<path d="M735.93384,575.7097 L671.1458,451.60284 L547.039,516.39087 L548.6351,519.4483"/>
<path d="M734.56647,576.4235 L735.93384,575.7097"/>
<path d="M736.1481,579.4514 L671.33057,455.35995 L547.2391,520.1775 L548.82367,523.21106"/>
<path d="M734.7315,580.19135 L736.1481,579.4514"/>
<path d="M736.3026,583.1976 L671.45776,459.12042 L547.38055,523.9653 L548.9531,526.9743"/>
<path d="M734.8372,583.9634 L736.3026,583.1976"/>
<path d="M736.3974,586.94727 L671.5274,462.88324 L547.4634,527.75323 L549.0235,530.737"/>
<path d="M734.88367,587.7388 L736.3974,586.94727"/>
</g>
<g fill="none" id="layer2" inkscape:groupmode="layer" inkscape:label="2" stroke="black" stroke-width="0.5mm"/>
<g fill="none" id="layer3" inkscape:groupmode="layer" inkscape:label="3" stroke="black" stroke-width="0.5mm"/>
<g fill="none" id="layer4" inkscape:groupmode="layer" inkscape:label="4" stroke="black" stroke-width="0.5mm"/>
<g fill="none" id="layer5" inkscape:groupmode="layer" inkscape:label="5" stroke="black" stroke-width="0.5mm"/>
<g fill="none" id="layer6" inkscape:groupmode="layer" inkscape:label="6" stroke="black" stroke-width="0.5mm"/>
<g fill="none" id="layer7" inkscape:groupmode="layer" inkscape:label="7" stroke="black" stroke-width="0.5mm"/>
<g fill="none" id="layer8" inkscape:groupmode="layer" inkscape:label="8" stroke="black" stroke-width="0.5mm"/>
<g fill="none" id="layer9" inkscape:groupmode="layer" inkscape:label="9" stroke="black" stroke-width="0.5mm"/>
<g fill="none" id="layer10" inkscape:groupmode="layer" inkscape:label="10" stroke="black" stroke-width="0.5mm"/>
</svg>