<?xml version="1.0" encoding="utf-8" ?>
<svg xmlns="http://www.w3.org/2000/svg" xmlns:cc="http://creativecommons.org/ns" xmlns:dc="http://purl.org/dc/elements/1.1/" xmlns:ev="http://www.w3.org/2001/xml-events" xmlns:inkscape="http://www.inkscape.org/namespaces/inkscape" xmlns:rdf="http://www.w3.org/1999/02/22-rdf-syntax-ns" xmlns:sodipodi="http://sodipodi.sourceforge.net/DTD/sodipodi-0.dtd" xmlns:xlink="http://www.w3.org/1999/xlink" baseProfile="tiny" height="15.24cm" version="1.2" viewBox="0 0 384.0 576.0" width="10.16cm">
  <metadata>
    <rdf:RDF>
      <cc:Work>
        <dc:format>image/svg+xml</dc:format>
        <dc:source>vpype read samples/vector_field_spiral_1.svg linemerge --tolerance 0.1mm linesort reloop linesimplify write samples/vector_field_spiral_1_opt.svg
</dc:source>
        <dc:date>2024-03-27T12:41:42.286847</dc:date>
      </cc:Work>
    </rdf:RDF>
  </metadata>
  <defs/>
  <g fill="none" id="layer1" inkscape:groupmode="layer" inkscape:label="1" stroke="#000000" stroke-width="1.8898" style="display:inline">
    <line x1="69.8119" x2="73.9154" y1="418.8672" y2="420.7364"/>
    <line x1="73.0555" x2="60.4768" y1="414.2052" y2="407.609"/>
    <polyline points="68.1877,415.8589 54.152,408.1876 39.9924,398.7895 27.4491,388.8633 15.0223,377.2697"/>
    <line x1="11.0719" x2="20.4726" y1="378.9853" y2="387.9616"/>
    <polyline points="42.8504,374.9452 49.6943,380.7885 56.018,385.6876 63.3898,390.8488 70.5739,395.3555"/>
    <polyline points="69.9514,390.6269 60.2042,384.0261 50.7604,376.6264 41.8446,368.598 32.8155,359.2491"/>
    <polyline points="64.9328,352.5076 56.9273,343.7643 49.5366,334.3141 42.8867,324.3286 36.997,313.8765"/>
    <polyline points="62.8789,336.9059 56.9326,328.8974 51.0162,319.6268 46.2328,310.8471 41.636,300.8561 37.7422,290.5706 34.5544,280.0448 32.0716,269.3306 30.2898,258.4778 29.2018,247.5336 28.7981,236.5427 29.0667,225.5477 30.11,213.5952 31.7372,202.7178 34.2232,190.9801 37.1336,180.3735 40.8268,169.404"/>
    <polyline points="41.8286,177.0136 38.6251,187.4886 36.2243,197.1949 34.179,208.0015 32.8764,217.9151 32.1178,227.885 31.9152,237.8817 32.2795,247.8737 33.2198,257.828"/>
    <polyline points="23.4488,269.5069 21.0541,254.7036 19.8787,239.7538 19.8991,224.7577 21.2048,208.8155 23.5952,194.0107 27.3428,178.46 32.2748,163.2431 38.1273,148.8992"/>
    <polyline points="39.4548,158.9829 34.4194,172.5414 30.4668,185.969 27.4589,199.6391 25.4325,213.4886"/>
    <line x1="3.2365" x2="6.2811" y1="179.8819" y2="167.2452"/>
    <polyline points="1.9883,155.571 6.808,141.3689 12.8834,126.5701 19.88,112.1839 27.7526,98.2575 36.4547,84.8338 45.9394,71.951 56.1594,59.6432 67.7706,47.2298"/>
    <polyline points="68.7273,44.3113 81.1489,32.7085 95.0114,21.2312"/>
    <polyline points="110.2825,25.3432 99.0408,33.685 88.9807,41.9169 79.3128,50.6061 70.0644,59.7403 61.2627,69.3058 52.9355,79.287 45.1102,89.6663 37.8146,100.4245"/>
    <line x1="61.9133" x2="71.6768" y1="101.7866" y2="89.7415"/>
    <polyline points="97.065,97.1588 107.7099,87.4081 118.5998,78.6131 129.9976,70.487 141.8538,63.0456 154.12,56.3012 167.6635,49.8588 180.6299,44.5839 194.8196,39.7269"/>
    <polyline points="192.4796,36.0105 181.1403,39.9341 170.9141,43.9849 160.8704,48.4686 151.0302,53.383"/>
    <polyline points="169.8807,40.4679 181.9683,35.6872 194.2755,31.5038 206.77,27.9183 219.4206,24.9297 232.197,22.5354 246.0636,20.6175 259.0095,19.4445 272.9946,18.8289"/>
    <polyline points="276.4984,18.6407 288.4968,18.7802 301.4774,19.4713"/>
    <polyline points="303.2196,22.1093 322.0915,24.2854 341.7726,27.8232 361.1904,32.6001 380.2744,38.5728"/>
    <polyline points="381.8265,45.9523 366.6789,40.8047 352.2598,36.6757"/>
    <line x1="360.9174" x2="379.1405" y1="24.7173" y2="30.0859"/>
    <polyline points="380.3846,17.3176 367.879,13.7693 356.2235,10.9171"/>
    <line x1="349.2814" x2="366.8543" y1="3.0328" y2="6.9214"/>
    <line x1="370.5451" x2="380.2064" y1="2.9169" y2="5.4961"/>
    <polyline points="336.683,18.9226 317.902,16.0652 299.9811,14.4066"/>
    <polyline points="271.575,22.7448 251.6099,23.8558 232.7595,26.2064 214.1132,29.8363 195.7655,34.7567"/>
    <polyline points="197.6781,57.8166 187.2042,61.1746 177.8258,64.6433 168.6033,68.5073 159.5558,72.7649 150.703,77.4137 142.0648,82.4501 133.6617,87.8696 125.929,93.3588"/>
    <polyline points="114.6164,94.8482 121.7716,89.1543 129.8573,83.2716 137.3517,78.2893 145.902,73.1052 153.7828,68.7597 162.7279,64.2907 180.2053,56.8508"/>
    <polyline points="193.5357,72.5957 207.0109,68.8065 221.6745,65.66"/>
    <line x1="218.5215" x2="229.3464" y1="52.193" y2="50.2432"/>
    <polyline points="246.7738,48.2284 260.7463,47.3788 274.7443,47.2736 288.7287,47.9004 302.6624,49.2455 316.5103,51.2936 331.2144,54.2494 344.781,57.7003 359.1141,62.1178"/>
    <polyline points="349.5768,55.4151 329.2195,50.2781 309.533,46.7736"/>
    <polyline points="311.1639,70.547 327.7459,74.2802 345.0056,79.3773 360.9636,85.2298 377.4361,92.4786"/>
    <polyline points="365.3648,105.9024 349.8188,99.0308 333.8554,93.1944 317.5367,88.4414 300.8074,84.7957"/>
    <line x1="317.6646" x2="333.062" y1="85.4026" y2="89.7423"/>
    <polyline points="319.4302,105.7125 329.8657,109.1878 341.053,113.5256"/>
    <polyline points="325.5227,122.3975 334.7753,126.1887 343.8518,130.384 352.7376,134.9696 361.4188,139.9317"/>
    <polyline points="357.5261,149.8982 344.5879,142.3141 332.0756,136.039 319.1853,130.5826 306.2416,126.0725"/>
    <line x1="308.0134" x2="318.2557" y1="139.5311" y2="143.6139"/>
    <line x1="310.1157" x2="315.9889" y1="155.4994" y2="158.2197"/>
    <polyline points="310.9779,162.0486 323.8038,168.8066 336.4781,176.822 348.487,185.8038 359.7761,195.6755"/>
    <polyline points="374.1818,182.679 366.612,176.1459 359.5496,170.5682 351.4365,164.7236 343.9064,159.7956"/>
    <polyline points="325.761,174.7585 332.459,179.1319 339.7627,184.3893 346.809,189.9871 353.5861,195.9079 365.6171,207.9112 371.5619,214.6674 377.2029,221.6793"/>
    <polyline points="365.8516,248.3639 369.7874,255.3281 373.8607,263.3526 377.5554,271.5584 380.8694,279.9252"/>
    <polyline points="368.306,292.6534 371.3086,304.2695 373.5692,316.0527 375.0939,327.9535 375.9254,340.9246"/>
    <polyline points="372.0123,346.2643 371.5727,359.2546 370.1717,373.1816 367.8356,386.9827 364.5944,400.5998"/>
    <polyline points="363.6319,403.9744 360.6271,413.5114 356.8276,423.8332 352.5273,433.9566 348.0104,443.3386"/>
    <polyline points="349.4266,454.0953 357.3438,438.2347 363.7908,422.5086"/>
    <polyline points="366.2174,406.4176 368.811,396.7607 370.7652,387.9761 372.5037,378.1293 373.6703,369.2059"/>
    <polyline points="379.2872,348.5824 379.0054,337.5873 378.2342,327.6182 376.9661,317.6999 375.1964,307.8589 372.9213,298.1222 370.1385,288.5185 366.8471,279.0769 363.048,269.828 358.7436,260.8032 353.9382,252.035 348.6382,243.5567 343.4525,236.2021 337.2387,228.3689 331.2502,221.652 324.1706,214.5916 317.071,208.3302"/>
    <line x1="320.4381" x2="328.9243" y1="199.4599" y2="206.4557"/>
    <line x1="333.4779" x2="341.676" y1="199.1177" y2="206.4493"/>
    <polyline points="320.2139,232.2031 329.0261,243.2422 337.2132,255.8039 343.7356,268.1866 349.5021,282.0282 353.9938,296.3347 357.2114,310.9807 359.166,325.8484 359.8816,341.8273"/>
    <polyline points="364.7332,343.4444 364.482,353.4401 363.6115,364.4042 362.1321,375.3029 360.0588,386.1043 357.4081,396.7789 354.1973,407.2985 350.4443,417.6372 346.0074,428.1242"/>
    <polyline points="379.4626,429.4078 373.7328,444.3437 366.6204,459.7809 359.0092,473.8518 350.0005,488.2651 340.0967,502.0789 329.3546,515.2514 317.8306,527.7458 305.5814,539.5303"/>
    <polyline points="303.0867,542.5541 287.6639,555.2815 271.4234,566.9477"/>
    <line x1="270.4546" x2="253.5042" y1="560.8461" y2="571.4545"/>
    <polyline points="250.6676,553.3653 263.4037,545.4444 274.8936,537.4482"/>
    <polyline points="256.4227,536.6251 247.8844,541.8296 238.2795,547.1896"/>
    <polyline points="235.6748,551.2197 224.8992,556.4984 213.9106,561.3179"/>
    <line x1="208.6021" x2="199.2247" y1="569.3256" y2="572.7976"/>
    <polyline points="200.3837,555.0005 184.2157,560.2456 167.765,564.5222 151.093,567.8339 134.259,570.1874"/>
    <polyline points="116.2572,563.4039 104.2615,563.6943 92.2636,563.5115"/>
    <polyline points="73.8791,545.3538 60.0197,543.3835 45.2887,540.5632"/>
    <polyline points="37.9202,543.0148 27.2585,540.3102 16.697,537.2372"/>
    <line x1="16.3584" x2="2.1735" y1="534.0106" y2="529.1372"/>
    <polyline points="21.3251,514.9031 38.5074,520.2573 55.9862,524.5454 73.6994,527.7291 91.5799,529.7726"/>
    <line x1="82.4999" x2="66.6326" y1="538.1352" y2="536.0945"/>
    <polyline points="55.0562,520.1121 67.8022,522.6637 79.6614,524.4903 91.589,525.7983 103.5626,526.5778"/>
    <polyline points="105.8975,515.7742 87.9647,514.2626 69.1957,511.3352 50.681,507.0854 32.505,501.5634"/>
    <polyline points="31.7338,498.2774 19.5781,493.6722 6.7395,488.0926"/>
    <polyline points="7.7685,478.561 17.7373,483.2095 26.9545,487.0867 45.7865,493.8075 55.3783,496.6334 65.0709,499.0915 74.8511,501.1736 84.7292,502.8754"/>
    <line x1="83.3898" x2="65.4457" y1="492.7024" y2="488.8203"/>
    <polyline points="62.2993,488.2246 46.0431,483.262 29.2292,476.846"/>
    <polyline points="30.0353,466.5231 42.0137,471.571 54.2389,475.9875"/>
    <polyline points="57.5296,475.5956 69.0445,478.9688 80.7142,481.7593"/>
    <polyline points="81.3189,476.9722 66.2716,473.1089 51.0785,468.1017"/>
    <polyline points="47.652,466.8355 37.4774,462.6573 27.5004,458.027 17.7378,452.9602 7.3506,446.9536"/>
    <polyline points="12.2214,464.0596 29.3477,472.2775 47.0311,479.2151 65.1862,484.8024 82.8783,488.8166"/>
    <polyline points="61.8136,492.5719 48.3677,488.6786 34.2168,483.7095 21.2833,478.3541 7.7556,471.8778"/>
    <line x1="25.7241" x2="40.0282" y1="509.5657" y2="514.0761"/>
    <polyline points="42.9706,513.2454 56.5432,516.6725 70.2703,519.4155 84.1193,521.4563 98.0552,522.7776 112.0413,523.3636 125.0393,523.2368 139.0104,522.3656 151.9221,520.8651 165.7183,518.4961 178.388,515.5913 190.8816,512.004 203.1581,507.733 215.1754,502.7791 226.8895,497.146 238.2554,490.8397 249.3429,483.7902"/>
    <line x1="247.6225" x2="257.7511" y1="489.7501" y2="482.6833"/>
    <polyline points="249.2766,496.0162 239.9375,501.8263 229.446,507.6485 218.6702,512.926 207.6423,517.6539"/>
    <polyline points="194.3344,515.4454 183.8248,518.69 172.2052,521.6828 161.4374,523.9264 149.5907,525.8318"/>
    <line x1="141.2337" x2="124.2816" y1="529.7081" y2="530.9428"/>
    <polyline points="121.1034,500.6733 137.6102,500.2518 153.533,498.7165 169.3066,496.0548 184.6628,492.3056"/>
    <polyline points="217.278,497.4947 228.9166,491.7072 240.6815,484.9305"/>
    <polyline points="237.5528,527.8901 247.0905,522.4116 255.5474,517.076 264.595,510.8213 272.5706,504.79 281.0489,497.7831 288.4703,491.0817 295.6016,484.0725 302.3873,476.8068"/>
    <polyline points="349.7316,498.9015 342.5865,508.5412 335.0359,517.8669 327.0991,526.8661 318.7949,535.5275"/>
    <polyline points="315.8123,537.2947 302.5567,549.4681 288.5914,560.8204"/>
    <polyline points="287.9987,566.5949 300.5349,556.6558 311.7989,546.7524"/>
    <polyline points="312.8235,550.306 301.5436,560.1913 289.7964,569.5165"/>
    <polyline points="309.5526,557.741 321.2635,546.8416 331.708,536.0775 342.2393,524.0347 351.5044,512.2402 360.1458,499.9815 368.1291,487.2846 375.4202,474.1778 381.9852,460.6929"/>
    <line x1="374.1331" x2="381.9993" y1="466.369" y2="449.0783"/>
    <polyline points="382.06,431.3033 378.5957,440.6834 374.7642,449.9196 370.576,458.9996 365.5696,468.7934"/>
    <polyline points="373.9391,469.4445 364.2048,486.9106 358.8688,495.3673 352.6545,504.443 340.4754,520.302 326.5432,536.0089"/>
    <line x1="340.6907" x2="333.1964" y1="543.9612" y2="552.0125"/>
    <line x1="331.8171" x2="318.1168" y1="554.9256" y2="568.086"/>
    <line x1="336.919" x2="345.2324" y1="570.0262" y2="561.3735"/>
    <polyline points="341.0846,557.3893 349.778,547.7249 357.4479,538.4969"/>
    <polyline points="353.7229,536.7846 361.7021,526.5226 368.677,516.7588 375.7916,505.8796 381.9347,495.5722"/>
    <line x1="381.6221" x2="374.8516" y1="523.696" y2="533.6028"/>
    <line x1="381.7203" x2="373.1594" y1="553.5223" y2="564.5986"/>
    <polyline points="339.168,376.1734 341.1522,366.4168 342.5902,356.5221 343.4571,346.5611 343.7395,336.5666"/>
    <polyline points="347.7705,337.8128 347.3278,325.8234 346.1722,314.8863 344.0808,303.0727 341.3946,292.408 337.6211,281.0198 333.3896,270.8689 328.4245,261.056 322.7828,251.7159"/>
    <polyline points="321.454,241.6226 328.4843,251.6204 335.0309,262.8471 340.5991,274.59 345.1762,286.7538 348.7576,299.2472 351.5042,312.971 353.0334,325.8776 353.5983,339.8626"/>
    <polyline points="339.1089,334.9889 338.8408,325.994 338.1773,318.0224 337.1083,310.095 335.63,302.2337 333.7396,294.4612 331.4352,286.8013 328.7166,279.2785 325.3862,271.4904"/>
    <polyline points="362.7484,297.5889 365.3918,309.2919 367.2655,321.1427 368.3777,333.089 368.7391,345.0817"/>
    <polyline points="327.709,65.8973 315.984,63.3476 304.1573,61.3218 292.2512,59.8316 280.2894,58.888 268.2967,58.5013 256.2992,58.6807 244.3241,59.4346 232.3999,60.7703 220.5563,62.6938 209.7969,64.9774 198.1955,68.0394 187.7132,71.3709 176.4764,75.5779 166.3872,79.9578 155.6453,85.3035 146.0994,90.7033"/>
    <polyline points="189.1655,85.0336 201.795,81.1947 215.4157,77.9682 229.2126,75.6057 243.1291,74.0991"/>
    <line x1="238.7228" x2="221.6791" y1="78.5092" y2="80.7531"/>
    <polyline points="151.8173,10.4187 140.2775,16.4026 129.8725,22.3788 118.8935,29.3381 109.0527,36.2038"/>
    <line x1="105.7081" x2="117.9772" y1="33.4237" y2="24.7971"/>
    <polyline points="45.6795,3.0715 33.3219,16.1562 22.3199,29.1136 12.0095,42.6276 2.4314,56.6701"/>
    <polyline points="2.4586,45.2738 11.152,33.0515 20.3941,21.2385"/>
    <line x1="30.7477" x2="18.8735" y1="26.9613" y2="41.7903"/>
    <polyline points="34.2795,60.9911 24.9392,73.9793 16.3412,87.4703 8.5269,101.4297 1.9492,114.9085"/>
    <line x1="21.6558" x2="30.7709" y1="414.8685" y2="421.024"/>
    <polyline points="33.4648,423.2744 43.8475,429.288 54.5491,434.7137 65.5412,439.5234 76.9439,443.7403"/>
    <line x1="30.9121" x2="10.4931" y1="571.0615" y2="566.1696"/>
  </g>
  <g fill="none" id="layer2" inkscape:groupmode="layer" inkscape:label="2" stroke="#000000" stroke-width="1.8898" style="display:inline">
    <polyline points="52.8664,462.8116 67.064,467.6439 80.5736,471.3111"/>
    <line x1="84.011" x2="65.1951" y1="497.4202" y2="493.5591"/>
    <line x1="42.0794" x2="24.9584" y1="510.0122" y2="504.4657"/>
    <line x1="25.7924" x2="10.4548" y1="475.3116" y2="467.9863"/>
    <line x1="39.3305" x2="49.4759" y1="458.0298" y2="462.2783"/>
    <polyline points="53.5624,430.4176 45.5838,426.2547 37.7893,421.7564 30.1903,416.9353 21.9888,411.2153"/>
    <polyline points="10.096,415.9352 22.3581,424.5701 34.2898,431.8894"/>
    <polyline points="30.062,434.6862 20.6656,428.969 11.5492,422.8152"/>
    <polyline points="20.7388,391.0729 33.1883,401.117 46.383,410.1596 60.2584,418.1178 74.4486,424.7869"/>
    <polyline points="57.2466,405.3851 48.8239,399.9967 40.6945,394.1751 32.8752,387.9432 24.6503,380.6411"/>
    <line x1="20.7822" x2="11.8757" y1="376.0775" y2="366.6108"/>
    <polyline points="15.1222,345.2528 21.1763,353.2105 26.972,360.0949 33.0882,366.6962 39.5158,372.9946"/>
    <polyline points="51.1916,366.4198 42.7181,357.9262 34.8524,348.8666"/>
    <polyline points="43.7442,349.2716 37.5067,341.4572 31.7341,333.2932 26.4369,324.813 21.6233,316.0493"/>
    <polyline points="15.9207,327.6695 21.2287,336.1431 26.983,344.3201 33.1746,352.1712 39.7923,359.6665 46.8229,366.776 53.4907,372.8193 61.2613,379.1112 69.1824,384.786"/>
    <line x1="55.4571" x2="45.033" y1="363.1074" y2="352.3285"/>
    <polyline points="65.7366,358.6127 55.5136,348.1371 46.6941,337.2702 38.8496,325.6794 31.5609,312.575 25.4508,298.881 20.5321,284.715 16.8074,270.1892 14.2706,255.4093 12.9075,240.4751 12.7236,224.4805 13.7135,209.5167 15.9725,193.6809 19.1803,179.0311 23.719,163.6921 29.3606,148.7234 36.1622,133.973"/>
    <polyline points="37.2515,142.247 31.2678,156.0256 26.5555,169.2062 22.4743,183.637 19.6061,197.3374 17.5799,212.1965 16.698,226.1657 16.8182,240.1622 17.9635,254.112"/>
    <line x1="2.3093" x2="4.0653" y1="253.749" y2="264.6065"/>
    <polyline points="48.0068,223.9416 47.2824,232.987 47.0698,242.9832 47.4837,252.973 48.4011,261.9248 50.0344,271.7888 52.062,280.556 54.621,289.183 57.7068,297.6203"/>
    <polyline points="59.3782,310.3157 54.1759,299.0925 49.7595,286.8701 46.4209,274.3102 44.155,261.513 42.9491,248.5726 42.8135,234.5775 43.8532,220.6202 45.8621,207.6511"/>
    <polyline points="42.9037,185.1795 40.4907,193.9602 38.3362,203.7241 36.7145,213.5905 35.7224,222.5347 35.1517,232.5171 35.1262,241.5161 35.5713,250.504 36.4939,259.4555 38.0857,269.3265 40.033,278.1121 42.4709,286.7744 45.4003,295.283 48.8207,303.6064 52.7294,311.7118 57.1217,319.5656 61.4972,326.4112"/>
    <polyline points="108.5003,513.5226 124.4967,513.6916 140.4705,512.8276 156.3525,510.9123 172.0693,507.9316 187.5433,503.8757 201.7574,499.0928 215.6164,493.362 229.5966,486.3899"/>
    <polyline points="218.9738,487.7884 208.4878,492.4602 198.2211,496.4062 187.7695,499.8323 176.1903,502.9768 165.4432,505.317 153.6064,507.2815 141.6845,508.6368 129.7093,509.3894"/>
    <line x1="144.6661" x2="159.5164" y1="518.7185" y2="516.6216"/>
    <polyline points="169.1191,512.5336 180.7854,509.7291 192.2922,506.3288 203.6055,502.3319 213.7763,498.1448"/>
    <polyline points="241.0199,521.3325 257.1396,511.2836 272.4304,500.0139"/>
    <polyline points="279.5968,509.21 288.6703,501.3587 297.3506,493.0747 305.6103,484.3715 313.3392,475.365"/>
    <polyline points="308.7107,475.9743 299.7439,485.9582 290.5326,495.1294 280.8406,503.791 269.9062,512.5309 259.3289,520.0864 247.5223,527.6067 235.326,534.4772 222.7816,540.6894"/>
    <polyline points="220.823,543.4745 210.7109,547.8023 199.4913,552.0565 189.0539,555.5269 177.5225,558.8445 166.8379,561.457 155.0779,563.8406 144.2202,565.6003 132.31,567.0588 121.3489,567.9763 109.3622,568.5239 97.3632,568.6033 85.37,568.2203 73.4001,567.3813 61.4702,566.0928 49.5963,564.3621 37.794,562.1967"/>
    <line x1="42.3987" x2="28.8265" y1="539.068" y2="535.6385"/>
    <line x1="94.634" x2="104.6206" y1="530.7983" y2="531.306"/>
    <line x1="105.9841" x2="121.9817" y1="528.4293" y2="528.4498"/>
    <polyline points="144.7023,530.1781 161.5023,527.5986 177.1234,524.1497 193.4409,519.3929 208.4601,513.8858 223.0756,507.3828 237.2102,499.8921 250.7842,491.428 263.887,481.8755"/>
    <polyline points="290.1957,478.4119 279.2159,488.7405 266.8514,498.8904 254.6578,507.622 241.078,516.0775 226.9758,523.63 212.4201,530.2668 197.4777,535.9802 182.213,540.7666"/>
    <polyline points="204.0656,539.8156 187.9762,545.2961 171.5744,549.7555 154.9291,553.197 137.1126,555.7396"/>
    <polyline points="119.9538,562.7916 131.9181,561.8776 142.8445,560.6128 153.7153,558.9364 164.5141,556.8457 175.2239,554.3386 185.8272,551.4137 196.306,548.0702 206.6418,544.308"/>
    <polyline points="207.0785,541.1598 220.8921,535.3184 234.3485,528.6954"/>
    <line x1="250.134" x2="238.8012" y1="544.4591" y2="550.826"/>
    <polyline points="237.5958,554.2398 224.1283,560.8411 210.3364,566.7346"/>
    <polyline points="222.192,571.8532 236.6302,564.9628 250.6735,557.2998"/>
    <line x1="247.4697" x2="233.3492" y1="555.2778" y2="562.7976"/>
    <polyline points="253.5649,543.7241 265.3195,536.1223 275.8712,528.5309 286.0421,520.4366 295.8017,511.8507 305.1189,502.7868 313.9625,493.2604 322.3012,483.289 329.8945,473.1855"/>
    <polyline points="325.6664,473.7421 319.0105,482.3635 311.9054,490.7598 304.4345,498.8323 295.8903,507.2566 287.7177,514.6181 278.4543,522.2447 269.6646,528.8571 259.7734,535.6497"/>
    <polyline points="278.0764,538.2376 289.0578,529.5562 299.581,520.3246 309.6099,510.5586 318.4484,501.0272"/>
    <polyline points="352.7307,497.846 362.4756,482.7158 370.7422,467.8643"/>
    <polyline points="381.942,476.4697 372.7904,493.1165 361.9922,509.9463 350.6959,525.2195 337.7866,540.4905"/>
    <polyline points="335.3636,542.6016 325.6377,552.67 314.727,562.9614"/>
    <polyline points="302.0941,568.4893 313.4644,558.7081 323.6414,549.0959 334.0474,538.2944 343.2658,527.7594"/>
    <polyline points="360.648,538.6165 371.9285,523.3312 381.7374,508.2417"/>
    <polyline points="381.982,530.7776 370.2847,546.9963 357.6281,562.4783"/>
    <polyline points="346.4386,567.9769 360.3244,552.2277 372.5909,536.435"/>
    <line x1="359.0357" x2="344.6998" y1="541.5618" y2="558.244"/>
    <line x1="324.2272" x2="314.9514" y1="538.6505" y2="547.7573"/>
    <line x1="285.2434" x2="276.3068" y1="562.0801" y2="568.493"/>
    <polyline points="270.9903,557.4156 281.5715,549.865 291.8048,541.8494 301.6645,533.3784 310.4112,525.1642 319.4781,515.8497 327.4477,506.8796 335.6232,496.7737 342.7243,487.1016 349.9094,476.2693 356.0508,465.9612 362.1473,454.481 367.2391,443.6161 371.7959,432.5162 375.7982,421.2046 379.2269,409.7062 382.0636,398.0477"/>
    <line x1="382.065" x2="377.3645" y1="411.7068" y2="426.9977"/>
    <polyline points="367.6672,424.0373 364.0679,433.3662 359.658,443.4425 355.2525,452.4191 350.3852,461.3771"/>
    <line x1="359.6266" x2="353.7334" y1="481.6864" y2="490.9737"/>
    <polyline points="352.7857,423.9748 356.7129,413.7009 359.8292,404.1998 362.4996,394.5639 364.7114,384.8125 366.4523,374.9662 367.711,365.0467 368.4765,355.0772 368.7391,345.0817"/>
    <polyline points="372.0123,346.2643 371.7735,336.2682 371.1225,327.2926 370.0534,318.3572 368.5622,309.4824 366.4066,299.7187 364.0152,291.0432 361.1954,282.4973 357.9473,274.1049 354.2722,265.8905 350.1731,257.8794 345.654,250.0974 340.7209,242.5712 335.3812,235.3278 330.3009,229.149 324.2202,222.5156 318.1612,216.6112"/>
    <polyline points="319.3495,225.6373 324.3282,231.0714 329.4253,237.2362 334.1955,243.6574 338.6316,250.3137 342.7278,257.1846 346.4792,264.2496 349.8824,271.4888 352.9349,278.8827 357.9824,294.0597 359.977,301.8063 361.8008,310.6186 363.9528,326.4681 364.5114,334.448 364.7332,343.4444"/>
    <polyline points="343.7395,336.5666 343.3604,325.5751 342.3775,315.6251 340.7778,305.7555 338.5554,296.0073 335.7063,286.4236 332.2297,277.0494 328.1277,267.9316 323.8614,259.9086"/>
    <polyline points="334.3269,220.1148 339.6744,226.0639 345.3451,233.0514 350.0713,239.5052 355.0271,247.0167 359.1061,253.8979 363.3232,261.8477 367.1427,269.9961 370.5616,278.3204"/>
    <polyline points="366.4174,245.0669 360.9421,236.7005 355.6357,229.4323 349.328,221.6743 343.2897,215.0018 336.1916,207.9598 329.4659,201.9809 322.4341,196.3653 314.7779,190.9121"/>
    <polyline points="332.1266,162.7956 320.7003,156.6006 309.5869,151.4828"/>
    <polyline points="309.072,147.5721 316.9889,150.9719 325.0889,154.8931 333.0023,159.1785 340.7158,163.8142 348.217,168.786 355.4945,174.0798 362.5381,179.6812 369.3381,185.576"/>
    <polyline points="377.1396,170.1528 367.7036,162.7413 357.8891,155.839"/>
    <line x1="350.046" x2="339.753" y1="157.2218" y2="151.056"/>
    <polyline points="343.266,148.4479 334.4463,143.7369 325.4153,139.4447 316.1902,135.5874 307.0577,132.2713"/>
    <polyline points="305.7326,122.2063 314.9338,125.1757 323.3697,128.3102 331.6686,131.7911 340.7143,136.0524 348.6852,140.2302 357.3393,145.2393 365.7672,150.6204 373.9563,156.3582"/>
    <polyline points="380.9394,147.6881 368.4721,139.3517 355.5135,131.8016 342.1048,125.0837 328.2917,119.2426"/>
    <polyline points="324.9011,119.0586 314.4962,115.4929 304.4663,112.588"/>
    <line x1="303.8115" x2="315.1007" y1="107.614" y2="110.7265"/>
    <polyline points="319.3388,109.521 335.3375,115.2579 350.8821,122.1314 365.9048,130.0814 380.3452,139.0459"/>
    <line x1="374.7032" x2="364.1494" y1="121.3361" y2="115.6272"/>
    <polyline points="360.8149,115.3348 346.2753,108.663 332.2813,103.2687 317.0193,98.475 302.1313,94.852"/>
    <polyline points="304.829,92.2363 319.389,95.8326 333.6988,100.3225 347.7102,105.6717 362.2767,112.2847"/>
    <polyline points="367.7468,103.616 352.2074,96.7292 336.2548,90.8632"/>
    <polyline points="342.9589,99.7522 332.5965,96.064 322.0821,92.8349 311.4341,90.0779 301.6549,87.9916"/>
    <line x1="300.3132" x2="306.6489" y1="81.0422" y2="82.215"/>
    <polyline points="299.8768,77.7271 314.4527,80.5537 328.0209,83.9971 342.3277,88.4974 356.3544,93.8071"/>
    <polyline points="345.9192,101.635 360.5945,108.0031 374.8493,115.2641"/>
    <polyline points="371.0053,93.1354 353.481,85.8037 335.4879,79.7128 317.1061,74.922 299.0678,71.5825"/>
    <polyline points="308.5245,68.037 292.693,65.7391 277.7477,64.4845 262.7543,64.1222 247.7667,64.6711"/>
    <polyline points="257.6596,53.8095 268.6571,53.6177 279.6528,53.8924 290.6275,54.6269 302.554,55.944 313.4255,57.6154 324.2212,59.7221 334.9248,62.2552 346.4786,65.4939"/>
    <line x1="352.7429" x2="364.1584" y1="55.8249" y2="59.522"/>
    <polyline points="367.5137,68.7758 357.1586,65.0668 346.671,61.7507 336.0645,58.8374 326.3311,56.5461 315.5378,54.4272 304.6692,52.7371 293.7415,51.4842 283.7704,50.7311 272.7784,50.334 262.779,50.3705 251.7905,50.8537 241.827,51.7003 230.9153,53.0839 221.0568,54.7565 210.3006,57.0553 200.6213,59.5645"/>
    <polyline points="183.4046,57.9932 197.6473,53.2946 213.1236,49.2455 227.839,46.3489 243.693,44.211 258.649,43.0893 274.6444,42.8206 290.628,43.4926 306.5464,45.0855"/>
    <polyline points="308.0841,27.9447 293.1364,26.7136 279.1453,26.2522 265.1483,26.4664 251.1787,27.3663 237.2712,28.9608 223.4624,31.2572 209.79,34.261 197.251,37.6871"/>
    <polyline points="174.9776,29.6237 186.2235,25.4398 198.599,21.4629 210.1751,18.305 222.854,15.4384 234.6615,13.3021 247.54,11.5365 259.4861,10.4095 272.4672,9.7278 285.4656,9.6006 298.4579,10.0206 311.4215,10.9798 324.335,12.4693 337.1777,14.4798 349.93,17.0014 362.573,20.0236 375.0888,23.5355"/>
    <polyline points="375.7283,33.5376 358.458,28.4726 340.9333,24.3739 323.205,21.2721 305.3277,19.1959"/>
    <polyline points="296.6664,15.3956 279.6745,14.9501 263.6829,15.4058 246.7454,16.8351 230.906,19.0817 214.2429,22.4365 198.7727,26.5111 183.5657,31.4784 168.6799,37.338"/>
    <polyline points="171.4093,30.8497 161.333,35.2602 151.4465,40.0808 141.7692,45.3089 133.1701,50.4121 123.9482,56.4069 114.9946,62.7957 106.3306,69.5716 98.7231,76.0611"/>
    <polyline points="102.898,96.3909 113.8488,86.8864 124.9758,78.3935 136.5962,70.589 148.659,63.4875"/>
    <polyline points="105.8165,36.4702 96.3671,43.8652 87.2484,51.6644 78.4829,59.8584 70.7773,67.7073 62.7517,76.6273 55.7628,85.1206 48.5609,94.7179 41.9735,104.4118"/>
    <polyline points="48.0695,103.6092 59.002,88.7132 70.6723,75.0139 83.9957,61.474 98.2589,48.9278 113.3692,37.4154 129.2354,26.9691 145.7684,17.6136 162.8816,9.3667"/>
    <polyline points="143.5558,6.0378 127.873,14.867 113.5817,24.0689"/>
    <polyline points="120.4666,12.563 105.581,22.6782 92.1165,33.0525"/>
    <polyline points="89.3957,34.8544 76.6989,46.1551 65.3917,57.4722 54.1168,70.1916 44.2528,82.7862"/>
    <polyline points="28.2696,83.5998 20.3577,96.3413 13.6206,108.6119 7.5385,121.2199 2.1398,134.1353"/>
    <polyline points="2.1059,124.892 9.6301,108.5438 18.7389,91.874 28.9763,75.8722 40.2706,60.5978 52.5492,46.1028 65.7397,32.4321 79.7699,19.6245 95.3671,7.1109"/>
    <polyline points="87.8268,19.5114 75.686,29.9298 64.1227,40.9854 53.1813,52.6567 43.5283,64.1358"/>
    <polyline points="35.0653,57.4417 41.9764,48.8846 49.8715,39.8487"/>
    <line x1="49.9927" x2="59.7099" y1="36.4832" y2="26.4064"/>
    <line x1="70.7941" x2="82.4966" y1="46.9519" y2="36.0439"/>
    <polyline points="32.4509,58.2735 25.9483,67.1449 20.3319,75.4182 9.983,92.5277"/>
    <polyline points="2.2103,77.896 13.3395,60.0925 25.6693,43.0983"/>
    <line x1="22.4439" x2="33.6661" y1="18.9477" y2="6.1805"/>
    <line x1="12.6406" x2="2.132" y1="6.4706" y2="19.8315"/>
    <polyline points="327.5133,2.8954 341.3508,5.0157 355.0881,7.7098"/>
    <line x1="357.8244" x2="340.2569" y1="23.0908" y2="19.1788"/>
    <polyline points="321.5168,145.559 332.2909,150.839 342.7398,156.7366"/>
    <line x1="354.0554" x2="363.6777" y1="203.1112" y2="213.2762"/>
    <polyline points="351.7683,206.6776 361.9119,217.7227 371.7536,230.3322"/>
    <line x1="372.6766" x2="379.7122" y1="233.519" y2="244.4479"/>
    <line x1="381.8901" x2="373.2216" y1="559.5039" y2="570.4962"/>
    <line x1="161.7093" x2="146.9539" y1="569.5963" y2="572.2855"/>
  </g>
  <g fill="none" id="layer3" inkscape:groupmode="layer" inkscape:label="3" stroke="#000000" stroke-width="1.8898" style="display:inline">
    <polyline points="44.3073,195.8413 41.0477,211.7938 39.8748,220.716 39.2184,228.6883 39.024,244.6813 39.4979,252.6665 40.3591,260.6192 41.6118,268.5196 43.2592,276.3474 47.4187,290.753 50.2093,298.2495 53.397,305.5859 56.9792,312.738 60.5163,318.9603"/>
    <polyline points="63.7702,343.6763 55.8973,333.9035 48.6291,323.1298 42.2878,311.7856 36.5162,299.0354"/>
    <polyline points="34.3499,296.5745 31.0574,287.1336 28.3283,277.5146 26.1613,267.7537 24.5531,257.8852 23.4989,247.9422 22.992,237.9562 23.0244,227.9575 23.6718,216.9781"/>
    <polyline points="1.959,208.4929 3.2991,196.5694 5.4802,183.7556 8.3988,171.0892 12.0317,158.609 16.3549,146.3506 21.343,134.3474 26.9698,122.6299 33.1752,111.2843"/>
    <polyline points="34.0101,117.626 25.8625,133.501 18.871,150.083 13.1817,167.1554 8.8634,184.6247 5.98,202.3872 4.6272,219.3287 4.4655,228.3266 4.6952,237.3229 6.2144,254.2498 9.1758,270.9845 11.3341,279.721 13.5975,287.3936 16.5324,295.9007 19.4862,303.3347 26.3629,317.7757 30.7934,325.6086 35.0667,332.3708 39.6508,338.9263 44.54,345.2574 49.7281,351.3461 55.2072,357.1741 60.9688,362.7231 66.965,367.943"/>
    <polyline points="68.2205,377.4799 61.0642,371.9043 54.2821,365.9897"/>
    <polyline points="56.8541,354.5898 47.5728,344.1145 38.6651,332.0522 31.3546,320.1171 24.6244,306.7168 19.0521,292.7949 14.6455,278.4611 11.4032,263.8197 9.2177,247.9742 8.345,233.0031 8.6431,217.01 10.1769,201.0876 12.9076,185.3261 16.7919,169.8084 21.7825,154.6101 27.8295,139.8003 35.0077,125.2039"/>
    <polyline points="54.9594,102.7021 61.0519,94.5663 68.0181,86.0544 75.3531,77.8582 83.0379,69.9889 90.3115,63.1272 98.611,55.9092 107.2051,49.0444 116.075,42.5399 125.2023,36.4019 134.5689,30.6356 144.1569,25.2453 154.8483,19.798 164.8426,15.2046 175.0049,10.9959 185.3186,7.1731 196.7235,3.4439"/>
    <polyline points="214.343,5.4307 194.1029,11.0121 183.6752,14.5119 174.3178,18.0373 164.1749,22.2924 155.1049,26.5026 145.3104,31.5077 136.5868,36.3953 127.2068,42.1397 118.8909,47.6925 110.7911,53.5562 102.9221,59.7259 95.2984,66.1964 87.9349,72.9614 80.8465,80.0141 74.0482,87.3469"/>
    <polyline points="75.636,99.98 85.042,89.5659 95.0222,79.7506"/>
    <polyline points="90.4322,98.032 103.0907,85.8904 116.9928,74.4635 131.7188,64.1198 148.0456,54.411"/>
    <polyline points="151.4991,61.1487 164.0418,54.9336 176.9168,49.4395 190.0777,44.6708 204.4451,40.3681 218.0577,37.1042 232.8116,34.4091 246.6974,32.6365 261.6543,31.525 276.6494,31.2176 291.6399,31.7015 306.5851,32.9621 321.4468,34.9834 336.1882,37.7478 350.7753,41.2367 365.1756,45.4305 380.2959,50.6575"/>
    <polyline points="363.8074,50.479 346.5324,45.431 329.9686,41.6148 312.2233,38.6147 295.3236,36.793 277.3458,35.964 260.3507,36.2435 243.4057,37.5752 226.5789,39.9752 209.9421,43.456 193.571,48.0254 177.5448,53.6866 162.8505,60.0101 147.7333,67.7786 134.05,76.0652 120.9732,85.2789 108.2516,95.6861"/>
    <polyline points="84.1996,98.8526 92.5872,90.1513 102.099,81.2923 111.2984,73.589 121.6836,65.7719 132.4687,58.5163 143.6174,51.8328 155.0942,45.7297 166.8641,40.213"/>
    <polyline points="161.0077,39.3557 149.3664,45.1389 138.0296,51.4983 127.0316,58.427 117.2105,65.3204"/>
    <polyline points="136.741,91.9354 149.7045,83.9641 162.991,77.0083 176.7134,70.9574 191.7536,65.5085 207.1312,61.1002 222.7693,57.7301 238.5945,55.3909 254.5373,54.0709"/>
    <polyline points="244.8117,66.2109 233.8691,67.3239 222.9902,68.9452 212.2002,71.079 202.4901,73.466 191.9429,76.5856 181.5629,80.223 172.2958,83.9785 162.4072,88.5564"/>
    <polyline points="172.2192,87.2646 186.9566,81.4972 201.275,77.0366 215.862,73.5529 231.6385,70.9074 247.5599,69.3552 263.5499,68.8798 279.5365,69.4604 295.3317,71.0565"/>
    <polyline points="311.2793,66.4834 327.8902,70.0863 345.1941,75.0317 362.1388,81.095 378.6618,88.2283"/>
    <polyline points="380.9319,84.4953 368.1032,78.893 355.9596,74.2557 343.6161,70.1804 331.0962,66.6844"/>
    <polyline points="363.2776,53.7666 351.8112,50.2308 340.213,47.1546 328.5002,44.5487 317.678,42.5823 305.7964,40.9072 293.8549,39.732 281.8744,39.0655 270.8762,38.9086"/>
    <line x1="268.0767" x2="250.9026" y1="74.6447" y2="74.7455"/>
    <polyline points="233.9651,42.0316 219.1886,44.599 204.5866,48.0223"/>
    <line x1="201.1322" x2="183.0543" y1="48.9632" y2="54.7952"/>
    <polyline points="234.3752,5.3224 221.5991,7.719 209.9093,10.4264 197.3826,13.898 185.969,17.6007 173.7928,22.1515 162.7515,26.8492 151.0328,32.4743 140.4653,38.1578 129.3166,44.8417 119.3289,51.4915 109.6584,58.5947 100.331,66.1428 91.373,74.1256 82.8107,82.5316 74.6709,91.3471 66.9804,100.5573"/>
    <polyline points="71.1242,100.574 77.4762,93.1344 84.28,85.8069 98.0159,72.6865 112.7196,60.6603 120.8107,54.785 129.1249,49.2295 137.6468,43.9984 146.3616,39.0952 164.3109,30.2839 182.8582,22.8124 192.3214,19.5819 202.8558,16.4178 222.2895,11.7089 242.9909,8.2064 263.8872,6.1653 284.8745,5.5628 305.8551,6.3706 327.7279,8.6929 348.4158,12.2793 369.8015,17.4252"/>
    <polyline points="348.8129,36.7412 330.252,32.6939 311.4755,29.8089"/>
    <line x1="248.8666" x2="237.9647" y1="3.573" y2="5.0348"/>
    <polyline points="129.3383,2.9233 117.4173,10.262 106.6627,17.5636 95.449,25.9431 85.4047,34.1944"/>
    <line x1="89.9447" x2="101.8988" y1="17.2375" y2="8.1792"/>
    <polyline points="73.7353,17.4589 63.467,26.9735 54.3309,36.2204"/>
    <polyline points="65.6082,14.4564 55.535,24.1774 46.5799,33.5999 38.0303,43.3916 29.9073,53.54 22.232,64.0311 15.0255,74.8496 8.3089,85.9788 2.103,97.4006"/>
    <polyline points="2.2647,86.182 7.755,76.6508 14.1452,66.4947 20.9381,56.6034 28.1179,46.9893 35.6685,37.6635 43.5741,28.6367 51.8186,19.9182 60.3861,11.517"/>
    <polyline points="55.3993,8.3581 40.0886,24.1505 26.5181,40.1717"/>
    <polyline points="17.0251,44.5657 8.9748,56.0182 1.9682,66.9673"/>
    <polyline points="2.3612,38.1275 11.8264,25.2294 22.5455,12.0369"/>
    <polyline points="18.6795,9.6871 9.8693,20.5661 2.0954,30.9846"/>
    <polyline points="43.7816,67.6803 37.1561,76.4602 30.8862,85.4975 24.9867,94.7808 19.9574,103.4233 14.8058,113.1415 10.067,123.0676 5.7554,133.1864 2.218,142.5392"/>
    <polyline points="2.0011,171.3911 4.8476,160.7668 8.509,149.3403 12.7326,138.1094 17.4996,127.0982 22.7903,116.3287 28.5848,105.8217 34.8628,95.5962 41.6039,85.6698"/>
    <line x1="50.578" x2="50.7526" y1="243.4714" y2="249.9865"/>
    <polyline points="18.9195,262.983 21.5464,275.712 25.0865,288.2177 29.5425,300.4269 34.4661,311.3676"/>
    <polyline points="18.4255,315.3804 13.7575,305.4217 9.6788,295.2075 6.1922,284.7762 3.0643,273.193"/>
    <line x1="5.389" x2="8.4477" y1="267.9109" y2="280.5435"/>
    <polyline points="7.4646,301.2576 12.7285,313.1415 18.791,324.6384 25.6411,335.6841 33.2621,346.2125"/>
    <line x1="35.3536" x2="41.6664" y1="343.9857" y2="351.7395"/>
    <polyline points="30.155,356.7294 23.8202,348.9934 17.9053,340.9316 12.4197,332.5719 6.8902,323.0643"/>
    <line x1="5.2125" x2="12.787" y1="330.7747" y2="342.5453"/>
    <polyline points="11.2981,354.1823 17.6444,361.9092 24.3705,369.3077 31.4654,376.3533 38.9162,383.0213 46.7085,389.2869 54.8258,395.1252 63.2498,400.5114 71.8944,405.3859"/>
    <polyline points="72.5551,410.4042 59.6426,403.3104 47.1234,395.0552 35.2964,385.8353 24.2158,375.7302"/>
    <line x1="22.7469" x2="12.6373" y1="373.0168" y2="361.94"/>
    <polyline points="29.1918,367.2044 39.2459,376.9422 49.2133,385.2836 59.7516,392.8909 71.1729,399.9057"/>
    <polyline points="68.6175,429.1826 54.1921,422.2708 39.5145,413.7033 25.5859,403.9648 12.477,393.1478"/>
    <polyline points="4.2846,390.1494 12.4373,397.5324 20.947,404.501 29.7978,411.0306 38.1255,416.5652 47.5775,422.1894 56.4182,426.8609 66.3943,431.4922 75.8302,435.281"/>
    <polyline points="76.3916,439.5456 66.5211,435.7604 56.4745,431.284"/>
    <polyline points="49.0703,449.5188 63.944,455.4064 79.1081,460.1792"/>
    <polyline points="78.2675,453.794 66.2882,449.8365 55.1291,445.4276 44.2277,440.4151 33.6114,434.824"/>
    <polyline points="24.6118,434.916 15.3033,429.0568 5.4695,422.1817"/>
    <polyline points="9.0398,428.992 18.2439,435.014 26.8433,440.1165 36.5428,445.3028 45.5644,449.615"/>
    <polyline points="49.9432,456.8132 38.9546,451.9946 27.3436,446.1515 16.0658,439.6884 5.1478,432.6345"/>
    <polyline points="15.5748,447.4293 26.1066,453.1785 35.9964,457.9922"/>
    <polyline points="53.1604,458.266 66.3495,462.955 79.9885,466.8668"/>
    <polyline points="77.454,447.6153 68.4567,444.4972 59.1717,440.7863 50.0712,436.6435 41.1721,432.0841 32.49,427.1238 24.0395,421.7785 15.8339,416.0642 7.8856,409.9972"/>
    <polyline points="8.3727,451.3202 19.7403,457.6244 31.4153,463.3391 43.3714,468.4392 55.5805,472.9002"/>
    <polyline points="14.8507,485.6758 27.7814,491.0381 40.0188,495.4214 53.4166,499.478 66.0326,502.6087 79.7748,505.2747 92.6477,507.0775 105.5963,508.2165 118.5866,508.6775"/>
    <polyline points="94.5433,504.17 109.5675,505.3892 123.5623,505.6904 138.5485,505.1064 152.4756,503.7006 167.2729,501.2591 180.9092,498.0989 194.3182,494.0826 207.0834,489.3538"/>
    <polyline points="198.0646,514.4551 208.3506,510.5594 218.4427,506.186 228.3153,501.3374 237.942,496.0173"/>
    <polyline points="247.5322,504.9976 236.351,511.6262 224.8269,517.639 212.9987,523.0294 200.9044,527.7928 188.5808,531.927 175.0936,535.6751 162.4063,538.5032 148.606,540.8498 135.6982,542.385 121.7331,543.3516 107.737,543.6151 93.745,543.1862 79.7904,542.0768 65.9049,540.2999 52.1187,537.8697 38.4604,534.8013"/>
    <line x1="35.1974" x2="24.6115" y1="532.8116" y2="529.824"/>
    <polyline points="14.2178,521.2541 26.567,525.3128 39.0783,528.8402 51.7306,531.8221 63.5156,534.079"/>
    <polyline points="77.0226,545.5093 90.9722,546.6802 103.962,547.1678 117.96,547.0361 130.9377,546.2949 144.8584,544.8216 157.7022,542.82 170.4348,540.2034 183.0245,536.9681 195.4381,533.1124 207.6415,528.6356 219.5994,523.5394 231.2753,517.8269 242.6321,511.5036 252.7988,505.131 263.4331,497.6566 272.8654,490.2404"/>
    <polyline points="274.9004,497.3333 285.4345,488.1151 295.9916,477.6488"/>
    <polyline points="275.3241,480.3698 265.4246,488.5682 255.7741,495.698 245.7625,502.3113 234.5474,508.8822 223.8886,514.3922 212.0472,519.7533 200.8778,524.137 188.5543,528.2716 177.0037,531.5208 164.3342,534.4272 151.5355,536.6987 138.6408,538.3396 125.6818,539.356 112.6892,539.7551 99.692,539.5453 85.7221,538.6495"/>
    <polyline points="88.4802,552.5766 100.4697,553.06 111.469,553.0744 123.4594,552.6163 134.4252,551.7571 146.3398,550.3361 157.199,548.5861 168.9555,546.1858 179.6301,543.5331"/>
    <polyline points="182.2748,526.4669 193.7538,522.9733 204.116,519.2848"/>
    <polyline points="229.0322,544.7972 216.3082,550.6332 203.3058,555.8196"/>
    <polyline points="207.6607,564.7252 195.4356,569.1432 183.028,573.0195"/>
    <polyline points="163.9425,571.9055 181.4059,567.5544 198.5703,562.1434 215.3636,555.6722 231.7107,548.1448"/>
    <polyline points="232.6256,544.8718 245.8108,537.7238 257.7393,530.3981 269.2629,522.4507 280.3411,513.8936 290.9331,504.7416 300.9973,495.0122 310.4917,484.7261 318.8004,474.646"/>
    <polyline points="333.9254,475.95 322.4305,491.0728 309.8365,505.2934 296.2372,518.5562 281.726,530.8149"/>
    <line x1="278.4313" x2="262.1342" y1="530.5257" y2="542.1114"/>
    <polyline points="253.4663,558.5847 266.9917,550.0408 280.0192,540.7554 292.4979,530.7448 304.3761,520.0287 315.6014,508.6305 326.1208,496.578 335.8811,483.9031 344.4314,471.2716"/>
    <polyline points="364.8931,456.5212 358.3321,468.8867 351.111,480.8788 343.2618,492.4695 334.8168,503.6336 325.8085,514.3484 316.2693,524.5936 306.2316,534.3509 294.9604,544.2458"/>
    <line x1="330.6985" x2="342.4157" y1="560.3531" y2="548.0389"/>
    <line x1="343.7642" x2="350.2652" y1="544.3875" y2="536.7896"/>
    <polyline points="348.5505,533.477 357.8164,521.6832 366.4839,509.4428 374.5211,496.7796 381.8965,483.72"/>
    <polyline points="381.6468,469.7414 374.2515,483.9273 365.5245,498.5133 356.5346,511.7466 346.2045,525.245"/>
    <polyline points="355.4601,553.0874 369.1497,535.8708 375.5448,526.9215 381.6253,517.7556"/>
    <polyline points="382.001,545.616 374.2183,556.028 365.3997,566.9003"/>
    <line x1="354.9103" x2="348.1644" y1="564.4855" y2="571.8671"/>
    <polyline points="332.3875,496.106 323.4616,506.8894 313.2886,517.9101 303.2614,527.678 291.9869,537.5691 281.0042,546.249 268.783,554.9434 256.1315,562.9989 243.0893,570.4052"/>
    <polyline points="142.8578,532.8241 126.9165,534.1646 109.9235,534.5433 93.9374,533.9333 77.0205,532.2805 61.2157,529.8023 44.6008,526.2158 28.2204,521.6766 12.1232,516.2172"/>
    <line x1="18.0945" x2="2.2661" y1="513.3072" y2="507.1117"/>
    <line x1="6.5382" x2="21.369" y1="497.6928" y2="503.6914"/>
    <line x1="11.8298" x2="2.813" y1="484.6606" y2="480.3377"/>
    <polyline points="5.2448,536.724 25.309,542.9105 44.7557,547.5683 65.45,551.1149 85.3404,553.1704"/>
    <polyline points="88.8876,565.1821 69.9424,563.7787 51.1152,561.2434"/>
    <polyline points="50.4923,558.2535 30.897,554.2665 11.5816,549.0899"/>
    <polyline points="16.5465,546.9004 31.0409,550.7568 45.6983,553.9382 60.4889,556.4274 75.3814,558.2081 90.3426,559.2651 105.3377,559.5842 120.3299,559.1529 134.2861,558.0633"/>
    <polyline points="140.8136,519.0121 127.8452,519.8968 113.8484,520.1036 99.8611,519.5495 85.9232,518.2492"/>
    <polyline points="96.6266,571.5781 79.6414,570.9199 62.715,569.3608"/>
    <polyline points="61.1443,573.046 47.2801,571.1085 32.5297,568.3905"/>
    <polyline points="344.6008,417.4396 348.0745,408.4493 351.232,398.9619 353.921,389.3313 356.1273,379.5788 357.8374,369.7272 358.9418,360.796 359.675,350.8241 359.8816,341.8273"/>
    <polyline points="356.503,344.4299 355.5059,360.3938 352.9648,377.1971 348.9587,393.713 343.588,409.7469"/>
    <polyline points="342.6623,402.7156 347.3948,387.326 350.8156,371.7007 352.9011,355.8422 353.5983,339.8626"/>
    <polyline points="347.7705,337.8128 347.3759,349.8039 346.0273,362.7309 343.7494,375.527 340.6894,387.7298"/>
    <polyline points="337.137,360.7462 338.6179,347.9762 339.1089,334.9889"/>
    <polyline points="333.9137,334.0775 333.558,323.0855 332.4154,312.1475 330.6832,302.3005 328.0643,291.8326"/>
    <line x1="358.3093" x2="361.2709" y1="285.0356" y2="294.5856"/>
    <polyline points="375.7524,282.4864 370.5858,269.478 364.9377,257.772 358.4799,246.4925 351.2268,235.7075 343.1985,225.4865 335.1225,216.6141 325.6838,207.6796 315.9487,199.8056"/>
    <polyline points="313.5179,181.3415 322.1847,186.8871 331.0671,193.3727 338.778,199.7379 346.8377,207.2216 354.4348,215.1744 361.5518,223.5598 368.1735,232.3416 374.2877,241.4842"/>
    <polyline points="370.4363,199.9005 358.1108,188.1992 345.6577,178.1601 331.5869,168.6296 317.6266,160.8219"/>
    <line x1="311.8811" x2="322.0424" y1="168.9088" y2="174.5906"/>
    <polyline points="312.6713,174.911 322.9127,181.0588 332.7603,187.9124 342.1339,195.4013 351.0038,203.4808"/>
    <polyline points="374.4666,198.7715 364.4289,189.0158 354.543,180.5769 344.142,172.782 333.2582,165.6769"/>
    <polyline points="336.4654,148.9885 323.9193,142.7819 311.9173,137.7923"/>
    <line x1="316.7026" x2="303.2831" y1="107.1917" y2="103.6004"/>
    <line x1="358.8294" x2="371.5564" y1="96.1426" y2="101.9716"/>
    <line x1="360.8316" x2="372.2579" y1="118.4997" y2="124.6968"/>
    <line x1="359.7877" x2="374.4366" y1="152.7326" y2="163.1845"/>
    <line x1="355.3492" x2="346.8207" y1="153.9969" y2="148.7769"/>
    <polyline points="379.2872,348.5824 379.0825,357.5794 378.4922,366.5594 377.5228,375.5064 376.0092,385.3902 372.1582,402.9684 369.7058,411.6272 366.5819,421.126"/>
    <polyline points="364.021,442.9276 370.0727,428.1194 375.1169,412.9386 379.1079,397.4476 382.0024,381.715"/>
  </g>
  <g fill="none" id="layer4" inkscape:groupmode="layer" inkscape:label="4" stroke="#000000" stroke-width="1.8898" style="display:inline">
    <polyline points="200.3503,287.2302 199.0065,284.5618 196.8328,282.5157 194.0535,281.4354 192.0593,281.3964 189.2846,282.4661 187.8866,283.8852 187.1055,285.7159 187.0046,286.7108 187.4484,288.6481"/>
    <polyline points="184.5404,295.8298 182.7993,294.8496 180.5548,292.8692 179.3474,291.2766 178.0154,288.5946 177.4587,286.6749 177.1212,283.6983 177.8233,278.7669 179.9263,274.2482 181.7504,271.87 183.9194,269.8011 188.1288,267.1238 190.9116,266.0084 193.8172,265.2694 198.7924,264.8653 203.7503,265.4528 208.5123,266.955 213.7688,269.8266 217.6406,272.9819 221.5616,277.5126 224.1659,281.7758 226.4534,287.3153"/>
    <polyline points="221.0216,286.844 219.0521,282.2542 216.3394,278.0611 212.9272,274.4157 208.8931,271.4744 204.356,269.3934 199.4829,268.3184 194.4942,268.3707 190.6051,269.2785"/>
    <polyline points="184.4702,251.0588 189.0217,248.9966 193.792,247.5083 198.705,246.5939 204.6902,246.2422 209.6783,246.5518 215.5796,247.6145 221.3078,249.3883 226.7885,251.8221 231.121,254.3146 235.9921,257.8128 240.4643,261.8087 244.5023,266.2433 248.0789,271.0578 251.1743,276.1951 253.775,281.5998 255.8736,287.2188"/>
    <polyline points="260.1063,286.7668 261.754,292.5344 262.9302,298.4164 263.6392,304.3729 263.8857,311.3663 263.6104,317.3586 262.7381,324.302 261.5338,330.1787 259.6174,336.9094 257.5552,342.5427 254.6842,348.925 251.3395,355.0724 247.5508,360.9567 243.3482,366.5529 238.7621,371.8395 233.8228,376.7978 228.5608,381.4123 223.0059,385.6698 217.1876,389.5597 211.1349,393.0737 204.8759,396.2057 198.4379,398.9514 191.8477,401.3082 185.1308,403.2753 177.3308,405.0471 170.4245,406.1829 162.4689,407.0118 155.477,407.3316 147.4787,407.2411 140.4953,406.7702 132.5562,405.794 124.6865,404.3622 117.7579,402.714"/>
    <polyline points="120.7303,411.8621 130.1707,413.5235 139.1139,414.5204 148.1018,414.958 157.0992,414.823 166.0689,414.1043 174.971,412.7924 183.7638,410.8804 192.403,408.3641"/>
    <polyline points="162.2046,396.479 150.2095,396.4541 137.2858,395.1032 125.5366,392.6844 113.2743,388.9147"/>
    <polyline points="107.5523,371.3043 117.6092,375.9316 127.9758,379.5987 138.6398,382.2802 148.5178,383.8164 159.4938,384.4688 169.4827,384.0843 179.3883,382.7427 189.1121,380.4267 198.5478,377.1286 207.5817,372.8514 216.093,367.6118 223.9552,361.4412 231.0368,354.3892 236.6318,347.3455 241.8594,338.8289 245.5681,330.6345"/>
    <polyline points="252.103,332.1184 249.1753,339.5599 245.0314,347.5442 240.6528,354.2362 235.0182,361.2492"/>
    <polyline points="255.7551,370.1386 251.0112,376.5783 245.1439,383.3998 238.7633,389.7439 231.9191,395.5851 224.6605,400.9028 217.0358,405.6807 209.0919,409.907 199.9464,413.9459 191.4766,416.9846 181.8536,419.6963 173.0461,421.5403 163.1453,422.9315 153.1723,423.6388 143.1742,423.6736 133.1954,423.0501 123.9907,421.8964"/>
    <polyline points="131.7232,445.6947 140.9947,445.9114 150.9882,445.5926"/>
    <polyline points="133.5155,451.2108 142.5622,451.2441 151.5514,450.825 160.5077,449.9487 168.4214,448.7816 177.2478,447.0281 185.0051,445.0754 193.6076,442.434 201.1216,439.6903 209.3988,436.1596 216.5765,432.6287 224.4207,428.219 231.1634,423.9155 238.4608,418.6502 244.6652,413.6014 250.5792,408.2156 256.179,402.5037 261.44,396.4784 266.3381,390.1546 270.8487,383.549 274.9477,376.6803 278.611,369.5698 281.8152,362.241 284.5373,354.7198 286.7553,347.035 288.4482,339.2177 289.5964,331.3022 290.1818,323.3253 290.2197,316.3266 289.7084,308.3448 288.7672,301.4096 287.1195,293.5832 285.1734,286.8607"/>
    <polyline points="276.9027,285.9012 279.3803,294.5498 281.0087,303.3978 281.7988,312.3598 281.7151,322.3554"/>
    <line x1="294.6699" x2="293.7637" y1="326.2312" y2="336.187"/>
    <polyline points="306.4,307.3351 307.3959,317.2826 307.5993,327.278 307.0286,337.2593 305.5331,348.1541 303.4122,357.9244 300.2757,368.4648 296.3362,378.7324 291.6356,388.6747"/>
    <polyline points="306.8982,416.6264 313.8138,403.6108 319.3586,390.7597 323.8453,377.5022 327.2172,363.9058"/>
    <polyline points="331.1309,376.5183 328.3301,386.1167 324.9928,395.542 321.139,404.7683 317.0101,413.3409"/>
    <polyline points="329.8856,409.1574 333.4864,400.2427 336.3538,392.0252"/>
    <polyline points="268.0733,361.6328 264.2843,368.6767 260.0132,375.4393 255.2907,381.8949 250.1478,388.0208 244.6155,393.7976 238.7247,399.2085 232.5061,404.2392 225.9898,408.878 219.2056,413.1156 212.1827,416.9444 204.9492,420.359 196.5944,423.701 189.0042,426.2257 180.3146,428.5638 172.4841,430.197 163.5857,431.5369"/>
    <polyline points="175.5946,459.2896 166.1036,461.1462 157.1956,462.424 147.2389,463.3404 137.5825,463.7278"/>
    <polyline points="216.6477,436.4574 224.5118,432.0832 232.1104,427.2625 239.4122,422.0032 245.628,416.9685"/>
    <polyline points="212.9154,355.9931 207.0108,359.7483 200.7918,362.9564 194.3156,365.6077 186.6694,367.9503 179.823,369.3991 171.8854,370.3746 164.8922,370.6426 156.9022,370.2951 149.9568,369.4353 142.1198,367.8397 134.437,365.6166 126.953,362.7956 119.7075,359.4085 112.7361,355.4879 106.0702,351.0677 99.2598,345.7826"/>
    <polyline points="93.9404,329.4112 98.6169,334.4719 103.6842,339.2996 109.056,343.7858 114.7152,347.9034 120.6421,351.6254 126.814,354.925 133.2054,357.7762 138.8369,359.8437 145.5578,361.7949 151.4227,363.0557 158.3532,364.0271 164.3393,364.4172 171.3369,364.3408 177.312,363.8089 184.2105,362.6342 190.0218,361.1466 196.6309,358.8476 202.1051,356.3952 207.36,353.5028 212.353,350.1789 217.7885,345.7728 222.0617,341.5638 225.9303,336.9804 229.3481,332.0516 232.2689,326.8133 234.6479,321.3079 236.442,315.5852 237.6109,309.7032 238.1186,303.7278 237.9345,297.734 237.0352,291.8054 235.7288,286.9814"/>
    <polyline points="234.7104,295.9752 235.0061,300.9641 234.6749,306.9513 233.627,312.8557 231.9027,318.5993 229.5478,324.1146 226.6115,329.3439 223.1457,334.2385 218.5034,339.4726 214.072,343.5142 209.2784,347.1194 204.1743,350.2697 197.8937,353.3538 192.2858,355.4821 185.5453,357.3606 179.6474,358.4541 172.6829,359.1343 166.6849,359.216 159.7031,358.7413 153.7694,357.8604 146.9476,356.3 141.2176,354.5243 134.704,351.9652 128.4084,348.9087 122.3622,345.3844 117.3991,342.0145 111.8864,337.7029 106.6927,333.0119 101.8361,327.9725 97.332,322.6158 93.1928,316.9722 89.4287,311.0718 85.8884,304.6297"/>
    <polyline points="86.4162,287.2359 83.8343,277.5784 82.1116,267.7311"/>
    <polyline points="106.4508,285.3309 109.0195,292.9045 111.8303,299.3133 115.6792,306.3231 119.5929,312.1243"/>
    <polyline points="128.483,329.8552 121.0588,323.1651 114.494,315.6293 108.8472,307.3828 104.1578,298.5561 100.449,289.2744 97.7292,279.6558 95.995,269.8115 95.209,258.8448 95.4892,248.8523 96.8547,237.9419 99.2809,227.2171 102.7137,216.7707 107.0936,206.6844 112.3581,197.03 118.442,187.8696 125.9355,178.5021"/>
    <polyline points="128.8681,177.0935 135.1899,170.6901 142.6918,164.0811 150.6475,158.0259 159.0075,152.5422 167.7231,147.6433 176.7473,143.3389 186.0343,139.6352 195.54,136.5354"/>
    <polyline points="216.8176,142.8006 225.7637,141.8291 235.7506,141.3505 245.748,141.4939 255.1778,142.1911"/>
    <polyline points="252.9836,135.438 239.3747,134.9806 226.3915,135.5723 212.5102,137.3575 199.8061,140.0983 187.3759,143.8914 175.3176,148.7382 163.7348,154.6311 153.5588,160.9842 143.1991,168.8296 134.3472,176.9258 125.6392,186.5709 118.5158,196.2222 112.3675,206.5217 107.2872,217.3875 103.3645,228.7224 100.6841,240.413 99.7252,247.3458 99.2291,254.3269 99.2081,261.3255 99.6729,268.3086 100.6322,275.2412 102.0924,282.0856 104.0574,288.8024 106.1444,294.4266 109.047,300.7945 111.9322,306.054 115.7534,311.9167 119.4092,316.6727 124.1023,321.8635 128.4753,325.9695 133.9605,330.3145 138.9659,333.6201 145.1238,336.9433 150.64,339.299 156.3394,341.1682 162.1826,342.5225 169.1218,343.4168 175.1176,343.5695 181.0994,343.1352 187.0068,342.0997 192.7739,340.4542 198.33,338.197 203.5994,335.3342 208.5023,331.8816 212.9555,327.8659 216.8731,323.3267 220.1686,318.3178 222.3778,313.8353"/>
    <polyline points="200.7084,317.8631 197.2762,319.9132 193.6299,321.5528 189.8232,322.7752 185.9068,323.5797 181.9276,323.9711 177.9292,323.9582 173.9512,323.5536 169.0619,322.5204 161.5745,319.7328 158.0421,317.8584 153.869,315.1082 150.7467,312.6096 147.1392,309.1503 141.5417,302.1163 137.1747,294.2577 134.0879,285.8128 132.292,277.0019 131.8456,272.023 131.7848,267.0246 132.618,258.0698 134.8955,248.3411 138.4926,239.0185 143.2897,230.2522 147.906,223.7225 153.8368,216.9588 160.4562,210.8671 167.6697,205.4915 175.3848,200.864 183.5121,197.0059 191.9663,193.9287 200.6662,191.6358 209.5354,190.1234 218.502,189.3814 227.4995,189.3944 237.4577,190.2701 246.3231,191.8076 256.0007,194.3144 265.4346,197.6227 274.499,201.6558"/>
    <polyline points="271.7314,193.1378 264.4894,190.3738 257.8172,188.2595 250.0616,186.3028 243.1836,185.0067 235.2466,184.0164 228.2605,183.5914 221.2616,183.5883 214.2758,184.0155 207.3305,184.88 200.4549,186.1873 193.6794,187.941 187.0361,190.143 180.5585,192.7928 174.2815,195.8877 168.2411,199.4223 162.4748,203.3882 157.021,207.7737 151.9188,212.5636 147.2081,217.739 143.5125,222.4643 139.6357,228.2903 136.2649,234.4229 133.4394,240.8248 131.48,246.4944 129.7656,253.2786 128.8098,259.2004 128.3486,265.1808 128.3986,271.1788 129.1212,278.1383 130.3214,284.015 132.0638,289.7541 134.349,295.2994"/>
    <polyline points="115.9038,258.1227 117.3041,247.2195 118.6375,241.3706 120.3549,235.6228 124.4498,225.42 130.2127,214.9029 137.1949,205.1518 145.2564,196.2716 154.2567,188.3437 164.0574,181.4291 174.524,175.5703 186.4643,170.4451 197.9099,166.8548 210.6304,164.2003 223.5514,162.8163 236.5458,162.6765 249.4973,163.7453 262.9545,166.1255"/>
    <polyline points="260.9186,159.8596 252.3938,158.4907 244.4377,157.6622 235.4487,157.2473 227.4504,157.3481"/>
    <polyline points="223.7158,156.8971 215.7542,157.6687 208.8341,158.7183 201.0034,160.3499 194.2417,162.1578 186.6444,164.66 180.1345,167.2307 173.7759,170.1559 167.5912,173.4326 161.6037,177.057 155.8369,181.0231 150.3151,185.3238 145.0631,189.9499 140.1058,194.8906 135.4686,200.1327 131.1769,205.6613 127.2562,211.4587"/>
    <polyline points="125.2582,214.1357 120.6427,223.0024 116.9289,232.2827 114.1846,241.8941 112.596,250.7492 111.8619,260.7171 112.1677,269.708 113.4178,278.6164 115.6301,287.3356 118.8114,295.7493 122.9548,303.7329 128.037,311.1537 133.309,317.1651 140.0311,323.1395 146.6417,327.636 154.6895,331.6473 162.2737,334.174"/>
    <polyline points="192.2346,369.4788 185.5058,371.4015 177.6576,372.9395 169.7046,373.7814 161.7085,373.9401 153.7268,373.4325 145.8125,372.2793 138.014,370.504 129.434,367.7958"/>
    <polyline points="208.284,287.2451 209.1281,292.1585 208.6804,297.1258 207.0585,301.844 205.5881,304.4568 203.7925,306.8578 200.1873,310.3106 195.0817,313.4384 190.3878,315.1426 184.4731,316.091 179.4791,315.9902 173.5945,314.8606 167.9965,312.721 162.8294,309.6837 158.2047,305.8703 154.2047,301.4052 150.8861,296.4123 148.2842,291.0107 146.6761,286.2788 145.5792,281.4029 144.9889,276.4399 144.9349,270.4435 145.4183,265.4687 146.3627,260.5605 147.747,255.7576 149.9564,250.182 152.2254,245.728 155.4226,240.6536 158.4511,236.6767 162.482,232.2352 166.1397,228.8279 170.8475,225.1112 175.8597,221.8163 181.132,218.9558 187.5546,216.1783 194.2078,214.0098 201.0296,212.4508 207.9621,211.4965 214.9508,211.1375 222.9423,211.4392 229.8864,212.3074 237.7104,213.9638 244.4151,215.9698 251.8696,218.867 259.058,222.373 265.9393,226.4489 271.6805,230.4514 277.894,235.4875 283.7108,240.9771 289.2462,247.0431"/>
    <polyline points="296.3203,273.042 299.1509,279.4429 301.8967,286.9553"/>
    <polyline points="298.6784,287.167 294.3679,275.9741 288.8532,265.3233 282.1612,255.3706 275.0332,246.9999 266.2391,238.8466 257.3256,232.4118 247.6972,227.107 237.4766,223.0607 226.8131,220.3945 220.8726,219.5617 215.8853,219.2178 209.8869,219.2376 204.9026,219.6223 195.0735,221.4183 185.603,224.6015 181.0721,226.7131 176.7171,229.1671 172.5692,231.9568 168.6606,235.0727 165.0241,238.5023 161.6932,242.2292"/>
    <polyline points="142.7297,239.4033 147.3163,231.6662 152.7981,224.5348"/>
    <polyline points="105.8137,197.4815 110.4024,189.7411 115.5018,182.3272 121.0789,175.2655 127.1002,168.5785 133.5324,162.2855 140.3422,156.4033 147.497,150.9457 155.812,145.3936 163.5896,140.8673 172.5192,136.3696 180.782,132.8052 190.1774,129.3854 198.7956,126.7955 208.5174,124.4592 218.3583,122.6903 228.284,121.484"/>
    <polyline points="231.0274,123.3119 240.0154,122.8673 248.8994,122.8684"/>
    <polyline points="230.296,237.3671 237.6243,240.5644 244.5361,244.5844 250.9588,249.3474 256.8337,254.7721 262.1142,260.7772 266.7649,267.2825 270.7606,274.2097 274.4523,282.4133"/>
    <polyline points="54.8424,209.08 58.1934,196.0149 62.3938,183.7154 67.9288,170.86 74.0501,159.1801"/>
    <polyline points="60.8006,163.4852 54.4448,178.2877 49.5942,192.9277"/>
    <line x1="44.9986" x2="49.3531" y1="178.7837" y2="167.2047"/>
  </g>
  <g fill="none" id="layer5" inkscape:groupmode="layer" inkscape:label="5" stroke="#000000" stroke-width="1.8898" style="display:inline">
    <polyline points="250.193,286.8967 246.7575,278.5871 242.6755,271.7142 237.6638,265.4875 231.7869,260.0707 225.1417,255.6313 217.8627,252.3348 210.1265,250.3379 203.1576,249.7657 196.1921,250.3674 190.385,251.8532 184.0141,254.728 179.0918,258.146 174.8567,262.3845 171.4957,267.3436 169.1934,272.873 168.1205,278.7642 168.1586,282.7602 168.8344,286.6984 170.1614,290.4669 171.5812,293.1074 174.018,296.2723 177.0243,298.9012 180.5087,300.851 183.3563,301.7847 187.3225,302.2275 190.3012,301.9075 194.0597,300.5739 196.5462,298.9053 199.141,295.8822 200.354,293.1467 200.7894,290.1874 200.3503,287.2302"/>
    <polyline points="195.816,287.2999 195.9428,289.2852 195.2955,291.1682 194.0222,292.7007 191.3642,294.0377 189.3774,294.217 187.4163,293.8476 185.6138,292.99 183.414,290.9697 182.3706,289.2668 181.7008,287.385 181.4116,285.4083 181.668,282.4274 183.1685,278.7378 184.3397,277.1184 186.5154,275.0606 189.9932,273.1081 193.8593,272.1212 197.8507,272.0933 202.685,273.3105 206.2216,275.1656 210.0265,278.3922 213.0005,282.3994 215.0554,286.9481"/>
    <polyline points="221.0216,286.844 222.2322,291.6902 222.6938,297.6646 222.1161,303.6298 220.5676,309.42 218.1341,314.8982 214.9121,319.9535 211.0034,324.4994 205.7136,329.0735 200.671,332.3176 194.3327,335.2748 188.6161,337.0859 181.7369,338.3538 175.7514,338.7275 168.7655,338.3561 161.8739,337.1522 155.1665,335.1622 149.6237,332.8707 143.4576,329.564 138.4717,326.2296 133.0472,321.8098 128.7629,317.6116 124.2195,312.2898 120.7335,307.4082 117.1598,301.3918 114.1299,295.0839 111.6514,288.5396 109.7274,281.8112 108.3563,274.9487 107.5329,267.999 107.2487,261.0065 107.4925,254.0123 108.2503,247.055 110.1933,237.2498 113.443,226.7464 117.784,216.6445 123.1344,207.0387 129.4091,198.0091 136.5209,189.6226 144.3823,181.934 152.9063,174.987 162.0075,168.8151 172.4967,162.9947 182.5391,158.5134 193.8675,154.5664 205.4926,151.6046 217.3243,149.6223 229.2781,148.6074 241.2749,148.5418"/>
    <polyline points="251.1283,129.7281 237.1948,129.5776 224.2271,130.4482 211.365,132.3139 198.6903,135.1885"/>
    <polyline points="215.0984,127.396 201.3978,130.2559 188.9334,133.9371 176.8054,138.6081 165.1042,144.2636 153.9247,150.8904 143.3652,158.4658 133.5273,166.957 125.1766,175.5696"/>
    <polyline points="122.5446,201.2585 117.8511,208.9351 114.202,216.0525 110.7242,224.3507 108.2229,231.9476 106.1087,240.6929 104.8801,248.5959 104.2885,256.5719 104.3546,264.5693"/>
    <polyline points="103.7293,268.3637 104.6377,275.3029 106.0702,282.153"/>
    <polyline points="135.0754,264.8948 135.6532,259.9295 136.8435,254.0508 138.5524,248.3013 140.7525,242.7211"/>
    <polyline points="154.0458,262.2482 155.736,257.5448 157.8964,253.0379 160.4908,248.7659 164.1248,243.9955 167.5426,240.3482 171.2738,237.0223 175.2812,234.0346 180.4027,230.9135 184.8894,228.7099 190.4848,226.5499 196.2575,224.9216 202.1541,223.8232 207.1265,223.3085 213.123,223.1632 219.1106,223.5209 225.0492,224.3664 229.9337,225.4307 235.6886,227.1228 241.2983,229.2477 246.7348,231.7833 251.973,234.7066 256.9909,237.9939 261.7688,241.6213 266.2897,245.5644 270.5389,249.799 274.5038,254.301 278.1738,259.0464 282.0717,264.859 287.7642,275.4147 290.133,280.9264 292.49,287.5164"/>
    <polyline points="301.8967,286.9553 304.1191,294.6388 305.9952,303.439"/>
    <polyline points="310.7424,313.2014 311.274,320.8426 311.35,328.841 311.0226,335.8326 310.2078,343.7899 308.9339,351.6867 307.2135,359.4985 305.06,367.2021 302.4875,374.7762 299.5108,382.2008 296.1452,389.4574 292.4064,396.529 288.3105,403.3999 283.8737,410.0559 279.1124,416.4838 274.0432,422.6717 268.0833,429.2382"/>
    <polyline points="261.3976,431.4105 267.5389,425.2092 273.5189,418.4846 279.1172,411.4393 284.3095,404.0895"/>
    <polyline points="298.1796,395.2709 293.8139,403.1398 288.4605,411.5844 283.2141,418.8957 277.3088,426.2406"/>
    <polyline points="282.9695,424.4013 290.2279,414.5287 297.123,403.5118 303.1293,391.9863 307.831,380.9488 311.6756,369.5845 314.6182,357.9541 316.6167,346.1251 317.6231,334.3781"/>
    <polyline points="320.4137,342.9666 319.1318,352.9066 316.9694,363.6896 314.3414,373.3363 310.7511,383.7316 306.4599,393.8578 301.5024,403.6751 295.9139,413.1475 289.7667,422.1928"/>
    <polyline points="309.1574,402.6604 314.5119,390.8178 318.6334,379.5505 321.9255,368.0137 324.4791,355.4788"/>
    <polyline points="332.9165,381.4463 327.9928,396.4121 322.13,410.2145"/>
    <line x1="334.4944" x2="338.2154" y1="407.6599" y2="397.7547"/>
    <polyline points="282.8146,387.5049 287.8936,377.7508 292.1847,367.6255 295.6392,357.1852 298.2111,346.4935"/>
    <polyline points="293.1829,340.7228 290.5638,352.4286 286.4714,364.7617 281.6065,375.7267 275.2424,387.0567 267.8314,397.7317 259.4685,407.6788 250.249,416.8381 239.4711,425.7654 228.7737,433.1457 216.6178,440.0818 204.8336,445.5632 191.7075,450.4206 178.2283,454.1895 164.4916,456.8734 150.5879,458.4831 136.0578,459.0351"/>
    <polyline points="126.6964,430.2236 135.3053,430.9869 143.299,431.2824 152.2966,431.1345 160.2757,430.5691"/>
    <polyline points="165.975,444.6351 175.8106,442.8373 184.5543,440.7099"/>
    <line x1="188.3596" x2="198.7794" y1="440.9177" y2="437.3992"/>
    <polyline points="209.5909,431.8349 217.63,427.7914 224.561,423.7982 231.2652,419.4349 237.7182,414.7081 243.8952,409.626 249.7711,404.1986 255.3205,398.4379 260.5176,392.3575"/>
    <polyline points="267.9602,370.7798 262.6628,379.2581 256.6893,387.2745 250.0955,394.7892 242.1926,402.4359 234.4776,408.7946 225.4748,415.11 216.0,420.6928 206.1222,425.5272"/>
    <polyline points="192.3033,404.281 185.5956,406.2793 177.8067,408.0994 169.919,409.4274 161.9645,410.268 153.9738,410.6276 145.9757,410.514 137.9977,409.9364 130.0655,408.9052"/>
    <polyline points="122.1774,416.3158 129.4599,417.4796 137.4128,418.338 145.4003,418.7675 153.3993,418.7593 161.3853,418.3056 169.3328,417.3998 177.2147,416.0365 184.0352,414.465 191.7167,412.2344 198.3156,409.9015 205.6888,406.8006 211.9682,403.7093 218.9174,399.7487 224.7728,395.9146 230.393,391.7433 235.7535,387.2433 241.5299,381.7109 246.2499,376.5431 250.6312,371.0853 254.6485,365.3543 258.2765,359.3694 261.4902,353.1522 264.2652,346.7273 266.5777,340.1219 268.405,333.3662 269.7256,326.4935 270.5196,319.5404 270.7675,313.5466 270.5381,306.5522 269.7378,299.6001 268.3571,292.7398 266.7071,286.9725"/>
    <polyline points="263.4641,286.7467 261.3545,281.1315 258.7962,275.706 255.795,270.5126 252.3606,265.595 248.5072,260.9985 244.2538,256.7695 239.6252,252.9551 235.5034,250.1271 230.2713,247.1952 225.7025,245.1677 220.0127,243.272 215.1378,242.1683 209.1843,241.448 204.1867,241.3738 199.2065,241.7947 194.2955,242.7221 187.6443,244.8831 182.2667,247.534 177.3083,250.9038 172.8901,254.9554 169.1372,259.6292 166.1757,264.8399 164.1277,270.4719 163.2004,275.3805 163.1055,281.3708 163.9222,286.2979 166.0055,291.9128 168.6485,296.1486 172.8334,300.4281 177.0472,303.1019 181.7507,304.7656 186.7141,305.2542"/>
    <polyline points="208.7532,305.058 206.5988,308.4241 203.9725,311.4368 200.9481,314.05 196.7186,316.7066 193.0614,318.3206 188.2562,319.6861 184.2995,320.2584 179.304,320.3377 175.3288,319.9101 170.4586,318.7928 165.7683,317.0693 161.322,314.7885 157.977,312.5976 154.098,309.4468 150.5884,305.8887 147.4763,301.9781 145.287,298.6316 142.9383,294.2198 141.029,289.6007 139.5634,284.8221 138.04,275.9617 137.8031,270.9688 137.9898,265.9737 138.5877,261.0109 139.5824,256.1122 140.958,251.3064 142.697,246.6197 147.1911,237.6963 149.9071,233.4994 153.5419,228.7278 158.9681,222.8545 164.9806,217.5825 171.4974,212.948 179.3322,208.5279 186.6587,205.3222 195.2136,202.5395 203.0194,200.7989 211.9432,199.6576 219.9353,199.3572 228.9212,199.8024 237.8314,201.0503 246.5992,203.0691 255.1648,205.8233 263.4742,209.2743 272.3484,213.8768 280.0423,218.7163"/>
    <polyline points="277.9441,212.2586 270.0278,207.865 262.7719,204.4994 254.3524,201.3261 246.6763,199.0788 237.8714,197.2272 229.9385,196.2078 221.9509,195.7994 213.9561,196.0197"/>
    <polyline points="182.4892,184.7572 171.6991,189.9938 161.5792,196.43"/>
    <polyline points="154.6634,205.7692 160.0436,201.2934 166.57,196.6706 172.5709,193.0693 179.714,189.4714 186.1755,186.7825 193.7582,184.2381 200.5313,182.4748 208.39,180.9866 215.3377,180.1417 223.3235,179.6918 231.3215,179.7824 239.2961,180.4017 247.2139,181.5362 255.0438,183.1706 262.757,185.2888 269.9788,187.744"/>
    <line x1="272.9924" x2="261.1837" y1="197.0189" y2="192.3971"/>
    <polyline points="208.4479,230.6874 213.4451,230.8108 219.4066,231.4718 225.2834,232.6716 231.0314,234.3857 236.611,236.5873 241.9871,239.2477 247.1286,242.3373 252.0087,245.8254 256.6041,249.6809 260.895,253.8728 264.8648,258.37 269.0727,263.9617 272.3041,269.0157 275.6254,275.1756 278.0814,280.6487 280.4863,287.2209"/>
    <polyline points="271.7609,286.6837 267.6255,276.4992 264.8026,271.2064 262.1495,266.9693 258.6131,262.1241 255.3804,258.3108 251.1721,254.0364 247.4039,250.7515 242.5887,247.1749 238.3501,244.5248 233.9258,242.198 229.3367,240.2159 223.646,238.3213 218.7821,237.1685 213.8395,236.4222 208.8515,236.0988 202.8573,236.2884 197.9017,236.9409 193.0284,238.0514 188.284,239.6235 183.7182,241.6564 179.3834,244.144 175.3348,247.0742 171.6294,250.4276 168.3258,254.1773 165.4832,258.2871 163.1601,262.7112 161.7138,266.4388 160.4664,271.2771 159.9471,275.2413 159.9313,280.2371 160.4454,284.2017"/>
    <polyline points="129.1116,331.9709 134.0411,335.389 139.2172,338.4206"/>
    <polyline points="141.7323,340.9649 150.0773,344.3213 157.7893,346.4335 166.6851,347.758 174.6782,347.947 182.6348,347.1655 190.4291,345.3871 197.9218,342.6007 204.9617,338.8143 211.3864,334.0594 217.0251,328.3954 221.7018,321.9154 224.8668,315.6788 227.2728,308.0602 228.2035,301.1303 227.9496,294.1436 226.4534,287.3153"/>
    <polyline points="239.3091,286.8794 237.0868,281.31 234.7222,276.907 231.9027,272.7806 228.6464,268.9896"/>
    <polyline points="244.7992,287.1634 246.1296,291.9815 247.0382,296.8968 247.5297,301.8712 247.5796,307.8687 247.1831,312.8517 246.4012,317.789 245.2476,322.6529 243.3941,328.3575"/>
    <polyline points="280.1854,325.8666 279.0959,333.7901 277.1489,342.5742 274.4713,351.164 271.1005,359.5064"/>
    <polyline points="255.8736,287.2188 257.4673,293.0014 258.5579,298.8996 259.1511,304.8686 259.2263,311.8657 258.7757,317.8472 257.8647,323.7762 256.5096,329.6198 254.3911,336.2894 252.1366,341.8484 249.0227,348.1156 245.9632,353.2756 241.9684,359.0217 238.2044,363.693 233.4475,368.8261 228.3297,373.5998 222.8855,377.9977 217.985,381.4581 212.024,385.1253 205.8315,388.3865 199.439,391.236 192.8773,393.6705 186.1756,395.6887 179.3626,397.291 172.4653,398.4795 165.5097,399.258 158.5206,399.6313 151.5215,399.6056 143.539,399.0971 136.5923,398.2421 128.723,396.8086 121.9193,395.166 114.5913,392.9681"/>
    <polyline points="116.4234,398.6065 126.2645,401.0893 136.1116,402.8186 146.0599,403.8108 155.0548,404.054 165.0411,403.5833 173.9712,402.4792 182.7956,400.7207 191.4623,398.302"/>
    <polyline points="173.885,367.1743 163.8962,367.515 153.932,366.7314 144.1112,364.8719 133.5993,361.6515 123.5102,357.2824 113.9481,351.855 105.0008,345.4644 96.8246,338.2877"/>
    <polyline points="105.228,364.1507 113.8416,368.7867 122.0786,372.4077 130.5732,375.3744 139.2779,377.6513"/>
    <polyline points="154.7813,355.027 146.0536,352.8483 136.6938,349.344 127.799,344.7858 119.4649,339.2681 111.7702,332.8886 104.778,325.7455 98.5377,317.9367 92.5853,308.6923 88.0304,299.7939 83.9801,289.5715 80.9431,279.0034 78.9161,268.1958 77.8871,257.2477 77.8358,246.2514 78.7356,235.2916 80.5543,224.4461"/>
    <polyline points="64.6009,239.1134 65.7247,227.3835 67.6219,216.5509 70.5897,204.9268 74.4539,193.5691 79.17,182.5378 84.6915,171.8865 90.9702,161.6632 98.4727,151.2448"/>
    <polyline points="110.118,147.461 100.3876,159.282 91.9579,171.6829 84.722,184.8158 78.7828,198.5834 74.2392,212.8721 71.3398,226.563 69.8062,240.4728 69.5708,247.4681 69.7178,254.8616"/>
    <polyline points="56.743,214.9293 60.2191,200.1268 64.9621,185.9017 71.3762,171.2498 78.8699,157.6141"/>
    <polyline points="215.2103,113.3144 229.9049,111.3051 244.8635,110.4473"/>
  </g>
  <g fill="none" id="layer6" inkscape:groupmode="layer" inkscape:label="6" stroke="#000000" stroke-width="1.8898" style="display:inline">
    <polyline points="110.2146,379.498 116.7298,382.1447 123.3503,384.4157 130.0879,386.3107 136.923,387.8168 143.8343,388.9216 150.799,389.6135 157.7927,389.8821 164.7897,389.7179 171.7623,389.1128 178.6815,388.0603 185.5166,386.5554 191.2837,384.9031 197.8756,382.5519 204.2869,379.7456 210.481,376.4881 215.5888,373.3418 221.2783,369.2667 225.8951,365.4362 230.9421,360.5883 234.9476,356.1226 239.2099,350.5724 242.4812,345.5442 245.8155,339.3918 248.2311,333.9011 250.2123,328.2392 251.7357,322.4375 252.7793,316.5306 253.323,310.5571 253.3491,304.559 252.8429,298.5824 251.7932,292.6771 250.193,286.8967"/>
    <polyline points="244.7992,287.1634 243.0456,282.4827 240.8712,277.9822 238.2824,273.7067 235.9206,270.4796 232.6187,266.7277 228.9488,263.335 224.9397,260.3512 221.512,258.2918 216.9883,256.1682 213.2101,254.859 208.3386,253.7466 204.3651,253.3008 199.3687,253.3273 195.4026,253.8322 190.5655,255.0821 186.859,256.5801"/>
    <polyline points="185.1378,281.4958 187.0021,279.1594 188.5989,277.959 190.3936,277.0812 193.3063,276.3948 197.2832,276.6321 201.0063,278.0576 204.1889,280.4617 206.6477,283.6044 208.284,287.2451"/>
    <polyline points="204.7292,286.7511 205.2662,288.6764 205.5715,291.6564 204.8121,296.5792 202.6527,301.0712 200.7976,303.4252 198.6008,305.4645 194.3543,308.0825 191.5557,309.1575 188.6394,309.8534 183.6587,310.1822 177.7412,309.2721 173.064,307.5232 167.9592,304.3896 163.5702,300.3118 160.0137,295.4893 157.3589,290.1166 155.6356,284.3762 154.8431,278.4346 154.9564,272.441 155.5145,268.4816 156.727,263.6335 158.4779,258.9528 160.7277,254.49 162.8586,251.1062 165.9,247.1402 169.3203,243.4956 173.0756,240.1972 177.1228,237.2641 181.4196,234.7104 185.9251,232.5458 190.5998,230.776 195.4063,229.4031 200.3086,228.4262 205.273,227.8414 210.2679,227.6429 216.2603,227.9029 222.2066,228.69 228.0636,229.9841 233.7923,231.7624 239.3574,234.0008 244.7278,236.6731 249.8755,239.7527 255.5675,243.8235 260.1536,247.6904 265.1375,252.6029 269.0785,257.1256 273.2734,262.7271 276.5129,267.7762 279.8669,273.9185 282.7553,280.2932 285.1734,286.8607"/>
    <polyline points="280.4863,287.2209 282.3939,293.9544 283.8054,300.8091 284.7248,307.747 285.1814,315.7319 285.0707,322.7298 284.3755,330.6976 283.2831,337.6107 281.4999,345.4077 279.4883,352.1113 276.6946,359.6059 273.3968,366.893 269.6207,373.9441 265.9447,379.9001 261.3426,386.4423 256.3388,392.6826 250.9603,398.6031 245.2342,404.1881 239.1874,409.4243 232.8464,414.3003 226.2376,418.8066 219.3867,422.9356 212.3189,426.6813 205.0588,430.0394 196.6914,433.3503 189.1016,435.8764 181.3922,438.01 173.585,439.7519 164.711,441.2458 156.7645,442.1628 147.784,442.7374 138.7855,442.8344 130.6915,442.5193"/>
    <polyline points="129.2885,437.7186 139.2738,438.2341 148.2726,438.1884 158.2513,437.561 167.1837,436.4694 177.0177,434.6643 185.7528,432.502 194.3451,429.8283 202.761,426.6426"/>
    <polyline points="206.2827,440.8027 197.9268,444.1433 189.401,447.0226 180.7329,449.4403 171.9493,451.3973 163.0759,452.896 153.1415,454.0282 144.1589,454.5726 134.6379,454.6651"/>
    <line x1="138.793" x2="153.365" y1="467.4533" y2="466.5124"/>
    <polyline points="161.3971,433.7596 153.4256,434.4244 144.4308,434.6936 136.4336,434.5138 127.8879,433.8909"/>
    <polyline points="125.4745,426.4632 133.8604,427.3554 141.8478,427.7888 149.8469,427.813 157.8364,427.4212 165.794,426.6073 173.6962,425.3665 181.5185,423.6948 189.2356,421.5898 196.8206,419.0501 204.2462,416.0764 211.4836,412.6704 217.639,409.3386 224.4436,405.1343 230.1731,401.1142 236.4358,396.1386 241.642,391.4608 247.2496,385.7571 251.8319,380.4667 256.6684,374.0962 260.5249,368.2556 264.4739,361.3002 267.5036,354.9912 270.1139,348.4974 272.2843,341.8438 273.9951,335.0575 275.2278,328.1683 275.9652,321.2087 276.1919,314.214 275.8945,307.222 275.0619,300.2734 273.6857,293.4118 271.7609,286.6837"/>
    <polyline points="263.4641,286.7467 265.7837,295.4375 267.0956,304.3366 267.4188,313.3264 266.7831,322.2999 265.2267,331.1604 262.7945,339.8218 259.5367,348.2079 255.0142,357.1219 250.1931,364.7182 244.0754,372.6237 237.2344,379.9127 229.7507,386.5403 221.7035,392.4714 213.1705,397.6798 204.2271,402.1472 194.9457,405.8621"/>
    <polyline points="220.3943,373.6572 212.0455,379.1535 202.2726,384.1905 192.0148,388.1484 181.401,391.0193 170.552,392.8086 159.5801,393.5326 148.5886,393.217 136.6864,391.726"/>
    <line x1="133.5024" x2="123.7994" y1="390.274" y2="387.8657"/>
    <line x1="120.2726" x2="111.6045" y1="386.9096" y2="383.7757"/>
    <polyline points="118.4651,364.1078 109.6748,359.3468 102.0416,354.344"/>
    <polyline points="103.6306,359.2345 112.6338,364.5352 122.5855,369.2117 132.9469,372.8918 142.6454,375.3142 152.5293,376.8077 162.5117,377.3293 172.4955,376.8426 182.3741,375.3193 192.0309,372.7413 201.3397,369.1028 210.1652,364.4126 217.5761,359.3139 225.0814,352.7157 231.0564,345.9922 236.1737,338.5955 240.3194,330.614"/>
    <polyline points="228.0948,315.6871 226.1479,320.2902 223.7523,324.6768 220.9446,328.8118 217.0836,333.4007 213.5005,336.8856 209.6246,340.042 205.4928,342.8552 200.2473,345.7631 195.6771,347.7881 190.0039,349.7347 185.1558,350.9531 179.2383,351.9333 174.257,352.3533 168.2589,352.3901 162.2782,351.9297 156.3542,350.9878 151.4866,349.8481 145.7571,348.0716 140.1776,345.8689 134.7749,343.262 129.5734,340.2738 124.5945,336.9277 119.8571,333.2476 115.3777,329.2573 111.1705,324.981 107.2475,320.4424 100.293,310.6724 94.5734,300.1312 92.1882,294.6266 89.8094,288.0445 86.9523,277.4269 85.0566,265.5833 84.4206,254.6058 84.8972,242.6203 86.3713,231.7231 89.0631,220.0335 92.8299,208.6444 97.6094,197.6416 103.3358,187.1003 109.9407,177.0857 117.3545,167.6542 126.2176,158.1494 135.0913,150.0756 145.372,142.125 156.2627,135.0326 168.06,128.6344"/>
    <polyline points="144.3786,136.329 132.9839,145.0998 122.6834,154.5748 113.2655,164.927 105.401,175.2734 97.9778,187.137 92.1436,198.7493 87.0949,211.8009 83.6339,224.3264"/>
    <polyline points="83.8652,226.8253 82.2196,236.6864 81.4072,245.6477 81.2715,255.644 81.8573,264.6228"/>
    <polyline points="74.7658,270.398 73.6653,261.9576 73.151,253.9754 73.1315,245.9767 73.6889,236.9957 74.6873,229.0593 76.3603,220.2178 78.3215,212.463 81.0426,203.8857 83.9025,196.4154 87.5958,188.2096 91.7711,180.2382 96.4049,172.5242 101.4734,165.0886 106.9525,157.95 112.8179,151.1253 119.1506,144.5261"/>
    <polyline points="131.4162,140.5408 121.8675,149.2128 113.6282,157.9334 106.0701,167.2503 99.2548,177.1235 93.2436,187.5056 88.0968,198.342 83.8729,209.5703 80.6282,221.1194"/>
    <polyline points="99.232,215.1762 95.8677,225.6452 93.6539,235.3941 92.1949,246.2927 91.793,256.2812 92.3014,266.2648 93.7432,276.1565 96.1336,285.8625 99.4795,295.2816"/>
    <polyline points="104.3469,311.4268 100.2746,304.5436 96.7805,297.3493 93.8725,289.8988 91.554,282.2441 89.8241,274.4353 88.5762,265.5248 88.0791,257.5419 88.195,248.545 88.8838,240.5762 90.2982,231.6901 92.3665,222.9331 95.0627,214.3484 98.359,205.9757 102.226,197.8508 106.6336,190.0058 111.5506,182.4696 116.9457,175.2678 122.7871,168.423 129.043,161.9547 136.4417,155.23 143.4691,149.6093 150.8137,144.4098 158.4451,139.6411 167.2245,134.8569 175.3644,131.02 184.6381,127.2824 193.1609,124.3938 202.7934,121.7129 211.5812,119.7748 221.4464,118.1457 231.3864,117.064 241.3706,116.5234"/>
    <polyline points="256.2674,145.5446 246.6044,144.6958 236.6095,144.432 226.6181,144.8015 217.6628,145.6852 207.794,147.288 199.022,149.2949 190.3908,151.8396 181.9371,154.9232 173.6993,158.544 165.717,162.6978 158.0315,167.3778 150.6849,172.5735 143.7207,178.2714 137.183,184.4539 131.1168,191.0996 126.157,197.3746"/>
    <polyline points="121.0905,198.2622 126.4025,190.9996 132.2336,184.1466 138.5416,177.7298 146.0584,171.1383 153.2352,165.7102 161.6151,160.2575 169.4785,155.8826 178.5237,151.6232"/>
    <polyline points="182.1044,149.9452 191.5172,146.5747 201.1358,143.8461"/>
    <polyline points="199.0378,178.846 206.8688,177.218 215.7878,176.0293 224.7709,175.5118 233.7679,175.6525 241.7389,176.3175 250.6369,177.6566 259.4224,179.6019 268.167,182.1681"/>
    <polyline points="266.815,178.0069 254.221,174.8543 242.3657,173.0227 230.3932,172.2763 218.4036,172.654 206.5068,174.1871 194.8221,176.8974 183.4786,180.7952 172.6144,185.8775 162.3763,192.1251 153.6731,198.8438 145.0715,207.2007 138.141,215.7351 132.2542,225.0197 127.5367,234.9491 124.1091,245.3934 122.0834,256.197"/>
    <polyline points="142.3462,280.0637 141.8246,275.0927 141.8103,269.0957 142.2926,264.1206 143.4406,258.234 144.8498,253.4382 147.0537,247.8601 149.292,243.3905 152.4262,238.2765 156.0111,233.4677 160.0061,228.9935 164.37,224.8782 169.0622,221.1415 174.0427,217.7985 179.2726,214.8608 184.7141,212.3362 190.3306,210.2294 196.0871,208.542 201.9502,207.2735 207.8881,206.4208 213.8706,205.9788 219.8694,205.9407 225.8577,206.2983 231.8105,207.0418 238.6793,208.3826 244.477,209.9241 251.1081,212.1621 256.6572,214.4419 262.9506,217.5039 268.1728,220.4566 274.0457,224.2636 279.6633,228.4381 284.5306,232.53"/>
    <polyline points="282.1189,225.1074 277.0008,221.3727 271.1145,217.5864 265.0024,214.1767 258.6847,211.1652 252.1838,208.5728 246.4844,206.6999 239.7108,204.9394 233.8194,203.8077"/>
    <polyline points="230.7494,203.4127 221.7827,202.6781 212.7869,202.7965 203.846,203.7934 196.0184,205.432"/>
    <polyline points="180.5088,201.6263 186.0298,199.2799 191.6906,197.2941 203.33,194.406 215.2342,192.9497 221.23,192.7489 228.2259,192.9493 240.1376,194.3513 252.7882,197.314 265.0233,201.6877 276.279,207.1341"/>
    <polyline points="264.8514,171.9637 253.6015,169.5071 242.704,168.0301 231.7232,167.4332 220.7308,167.7436 209.8043,168.9839 199.9987,170.9323 189.4355,173.988 180.1129,177.5976 170.2591,182.4773 161.7517,187.7268 153.7585,193.73 146.3646,200.4572 139.6569,207.8684 133.7234,215.9125 128.6519,224.5258 124.8959,232.7007 121.4366,243.1353 119.3189,253.9218 118.6342,264.8923 119.3188,274.8621 120.3452,280.7722 121.5585,285.6218 124.9662,295.0147 129.6716,303.8286 132.4994,307.9507 135.6334,311.8451 139.0621,315.4827 142.7711,318.8337 146.7431,321.8685 150.9569,324.5571 155.388,326.8702 160.0076,328.7789 168.6897,331.1088 173.6472,331.7446 178.6432,331.8824 183.6267,331.5046 187.5669,330.8223 192.3829,329.4876 196.1076,328.0331 200.5453,325.7356 203.8753,323.5222"/>
    <polyline points="215.6369,354.1464 223.1162,347.5203 229.5947,339.9138 234.8898,331.4417 238.4948,323.2034 239.9741,318.4286 241.0542,313.5481 241.9347,304.6004 241.3731,295.628 240.4143,290.7227 239.3091,286.8794"/>
    <polyline points="235.7288,286.9814 233.0458,280.5234 229.9644,275.3804 225.4976,270.0014 220.9794,266.0621 215.0116,262.4228 209.4219,260.2615 203.5428,259.1026 197.5518,259.0407 191.664,260.143 186.1319,262.4367 181.2423,265.892 177.3081,270.4024 175.8,272.9936 174.6506,275.7624 173.63,280.6454 173.6047,283.6427 174.0475,286.6069 175.8493,291.2535"/>
    <polyline points="215.0554,286.9481 216.2686,292.8108 216.1447,298.798 214.7738,304.629 213.6601,307.4134 211.7722,310.9371 208.1724,315.7275 203.0019,320.4298 197.0305,324.0636 190.5026,326.5663 183.6433,327.9224 176.6542,328.1527 169.7122,327.3054 162.9691,325.4488 156.5525,322.6645 149.7532,318.4632 144.3644,314.0026 138.9314,308.139 135.4043,303.2881 131.9128,297.2252 129.4686,291.7479 127.266,285.1068 125.7631,278.2731 124.953,271.323 124.8222,264.3268 125.3516,257.3494 126.5175,250.4495 128.2925,243.6806 130.6464,237.0904 133.5468,230.7217 136.9595,224.6121 141.442,217.9891 145.8336,212.5402 151.3404,206.7405"/>
    <polyline points="166.1566,232.8578 172.3939,227.8563 180.0745,223.1778 188.3006,219.5415 196.918,216.9648 205.7836,215.4455 214.766,214.9658 223.7459,215.4947 233.5909,217.2155 242.2284,219.73 251.474,223.5273 259.4004,227.7829 267.6929,233.3638 275.3768,239.7572 282.3955,246.8748 288.7044,254.6288 294.5739,263.4402"/>
    <polyline points="298.6784,287.167 301.3439,296.8019 303.17,306.6307 304.1661,316.5782 304.3471,326.5738 303.7328,336.5524 302.3465,346.4534 300.2151,356.2212 297.045,366.7515 293.4471,376.0796 288.743,386.02 283.3015,395.577 277.1703,404.7068 270.3974,413.3716 263.0314,421.5382 255.1207,429.1785 246.8997,436.1211"/>
    <polyline points="236.9998,439.3378 247.6449,431.3557 257.3773,422.7423 266.3691,413.3589 273.9401,404.0527"/>
    <line x1="274.14" x2="281.32" y1="401.0431" y2="390.211"/>
    <polyline points="306.6081,405.077 302.7252,412.0707 298.1424,419.4714"/>
    <polyline points="311.6647,415.0777 317.5309,403.4546 322.1805,392.3944 326.0666,381.0436 329.0973,369.6922"/>
    <polyline points="292.49,287.5164 295.3077,298.1445 297.1536,309.9959 297.7403,321.9762 297.1025,333.9542 295.2851,345.811 292.3412,357.4397 288.3302,368.7451 282.855,380.5304 276.8301,390.904 269.3343,401.5199 260.9187,411.4228 251.6735,420.5564 241.6885,428.8753 231.0522,436.3435 219.8507,442.9344 207.481,448.929"/>
    <polyline points="260.1063,286.7668 257.5866,280.239 254.428,273.9954"/>
    <line x1="259.8612" x2="254.3519" y1="156.6054" y2="155.7568"/>
    <polyline points="258.7158,153.0802 250.1,151.9934 242.1215,151.4201"/>
    <polyline points="88.2476,154.5671 83.0488,162.6285 78.1123,171.3236 73.6934,180.2927 69.8177,189.5094 66.5101,198.9449 64.0387,207.5977 61.8753,217.3592 60.4563,226.3576"/>
    <polyline points="52.4288,198.483 55.2651,188.895 58.6389,179.4827 62.5301,170.2722 66.787,161.54"/>
    <polyline points="53.8958,165.7286 50.2456,174.6422 46.8307,184.4223"/>
  </g>
</svg>
